<svg width="1440" height="1190" viewBox="0 0 1440 1190" fill="none" xmlns="http://www.w3.org/2000/svg">
<g clip-path="url(#clip0_8_2)">
<g filter="url(#filter0_f_8_2)">
<path d="M1057.44 705L426 910L663.978 582L795.398 275L1452.94 22L1746 763L1057.44 705Z" fill="url(#paint0_angular_8_2)" fill-opacity="0.4"/>
</g>
<g opacity="0.05">
<path opacity="0.010101" d="M165.098 235.057L683.721 -740.331C687.484 -747.408 695.375 -751.257 703.268 -749.865L1791.18 -558.036C1799.07 -556.645 1805.17 -550.329 1806.29 -542.392L1960.03 551.553C1961.15 559.489 1957.03 567.241 1949.82 570.755L956.928 1055.02C949.725 1058.54 941.078 1057.01 935.51 1051.25L168.124 256.594C162.557 250.828 161.335 242.134 165.098 235.057Z" stroke="white" stroke-width="3"/>
<path opacity="0.020202" d="M154.298 221.817L688.862 -742.562C692.748 -749.572 700.705 -753.283 708.573 -751.754L1790.94 -541.362C1798.81 -539.833 1804.8 -533.412 1805.77 -525.457L1940.15 568.951C1941.13 576.906 1936.87 584.585 1929.61 587.972L930.287 1053.96C923.023 1057.35 914.404 1055.67 908.938 1049.81L156.949 243.403C151.483 237.541 150.413 228.826 154.298 221.817Z" stroke="white" stroke-width="3"/>
<path opacity="0.030303" d="M143.797 208.609L694.076 -744.502C698.083 -751.443 706.104 -755.015 713.944 -753.348L1790.45 -524.529C1798.29 -522.863 1804.17 -516.338 1805 -508.367L1920.04 586.161C1920.88 594.132 1916.49 601.736 1909.17 604.996L903.76 1052.63C896.438 1055.89 887.85 1054.07 882.487 1048.11L146.07 230.237C140.707 224.281 139.79 215.549 143.797 208.609Z" stroke="white" stroke-width="3"/>
<path opacity="0.040404" d="M133.587 195.433L699.35 -746.156C703.478 -753.025 711.56 -756.456 719.369 -754.653L1789.7 -507.547C1797.51 -505.744 1803.27 -499.118 1803.97 -491.134L1899.71 603.175C1900.41 611.159 1895.89 618.685 1888.51 621.817L877.346 1051.03C869.969 1054.16 861.414 1052.19 856.156 1046.14L135.482 217.098C130.224 211.05 129.459 202.303 133.587 195.433Z" stroke="white" stroke-width="3"/>
<path opacity="0.050505" d="M123.673 182.299L704.687 -747.518C708.934 -754.315 717.075 -757.604 724.852 -755.665L1788.7 -490.417C1796.48 -488.478 1802.12 -481.752 1802.68 -473.757L1879.16 619.992C1879.72 627.987 1875.07 635.433 1867.64 638.435L851.057 1049.16C843.626 1052.16 835.107 1050.04 829.955 1043.9L125.19 203.994C120.038 197.854 119.426 189.096 123.673 182.299Z" stroke="white" stroke-width="3"/>
<path opacity="0.0606061" d="M114.049 169.205L710.075 -748.595C714.44 -755.316 722.637 -758.463 730.379 -756.388L1787.44 -473.15C1795.18 -471.075 1800.71 -464.252 1801.13 -456.248L1858.4 636.603C1858.82 644.607 1854.04 651.97 1846.56 654.842L824.892 1047.02C817.409 1049.9 808.928 1047.62 803.885 1041.39L115.187 190.924C110.143 184.695 109.684 175.927 114.049 169.205Z" stroke="white" stroke-width="3"/>
<path opacity="0.0707071" d="M104.72 156.16L715.517 -749.383C719.999 -756.027 728.249 -759.03 735.953 -756.821L1785.92 -455.747C1793.63 -453.538 1799.03 -446.619 1799.31 -438.61L1837.43 653.007C1837.71 661.017 1832.8 668.296 1825.27 671.037L798.861 1044.62C791.33 1047.36 782.89 1044.94 777.955 1038.63L105.479 177.895C100.545 171.579 100.239 162.805 104.72 156.16Z" stroke="white" stroke-width="3"/>
<path opacity="0.0808081" d="M95.6781 143.177L720.999 -749.874C725.596 -756.439 733.897 -759.298 741.562 -756.954L1784.14 -438.207C1791.8 -435.864 1797.09 -428.852 1797.23 -420.838L1816.25 669.209C1816.39 677.223 1811.36 684.415 1803.78 687.024L772.962 1041.96C765.384 1044.57 756.988 1042.01 752.164 1035.6L96.0577 164.921C91.2343 158.521 91.081 149.742 95.6781 143.177Z" stroke="white" stroke-width="3"/>
<path opacity="0.0909091" d="M86.9263 130.246L726.521 -750.082C731.232 -756.566 739.583 -759.279 747.205 -756.802L1782.09 -420.547C1789.71 -418.07 1794.88 -410.967 1794.88 -402.953L1794.88 685.192C1794.88 693.207 1789.71 700.31 1782.09 702.786L747.205 1039.04C739.583 1041.52 731.232 1038.81 726.521 1032.32L86.9263 151.994C82.2154 145.51 82.2154 136.73 86.9263 130.246Z" stroke="white" stroke-width="3"/>
<path opacity="0.10101" d="M78.458 117.381L732.074 -749.997C736.898 -756.398 745.294 -758.965 752.872 -756.356L1779.78 -402.765C1787.35 -400.155 1792.39 -392.963 1792.25 -384.95L1773.3 700.96C1773.16 708.974 1767.87 715.986 1760.21 718.329L721.589 1035.87C713.924 1038.21 705.623 1035.35 701.026 1028.79L78.0785 139.125C73.4814 132.56 73.6347 123.781 78.458 117.381Z" stroke="white" stroke-width="3"/>
<path opacity="0.111111" d="M70.2773 104.591L737.658 -749.618C742.593 -755.934 751.032 -758.354 758.564 -755.613L1777.2 -384.861C1784.73 -382.12 1789.64 -374.841 1789.36 -366.831L1751.53 716.515C1751.25 724.525 1745.84 731.444 1738.14 733.653L696.124 1032.45C688.419 1034.65 680.169 1031.65 675.687 1025.01L69.5183 126.325C65.0366 119.681 65.343 110.906 70.2773 104.591Z" stroke="white" stroke-width="3"/>
<path opacity="0.121212" d="M62.3773 91.8665L743.263 -748.957C748.306 -755.185 756.787 -757.458 764.27 -754.586L1774.35 -366.854C1781.83 -363.982 1786.61 -356.618 1786.19 -348.614L1729.57 731.84C1729.15 739.844 1723.62 746.667 1715.88 748.742L670.808 1028.77C663.066 1030.84 654.87 1027.7 650.504 1020.97L61.2391 113.585C56.874 106.863 57.3335 98.095 62.3773 91.8665Z" stroke="white" stroke-width="3"/>
<path opacity="0.131313" d="M54.7602 79.2299L748.886 -747.998C754.038 -754.137 762.557 -756.261 769.989 -753.259L1771.23 -348.733C1778.66 -345.731 1783.31 -338.285 1782.75 -330.29L1707.42 746.949C1706.86 754.944 1701.22 761.67 1693.44 763.609L645.651 1024.85C637.874 1026.79 629.734 1023.5 625.486 1016.71L53.2432 100.925C48.9961 94.1282 49.6085 85.3695 54.7602 79.2299Z" stroke="white" stroke-width="3"/>
<path opacity="0.141414" d="M47.4212 66.6739L754.522 -746.752C759.78 -752.801 768.335 -754.776 775.712 -751.644L1767.83 -330.514C1775.21 -327.383 1779.73 -319.857 1779.03 -311.872L1685.1 761.826C1684.4 769.81 1678.64 776.437 1670.83 778.239L620.653 1020.69C612.844 1022.49 604.762 1019.06 600.634 1012.19L45.5258 88.3392C41.3979 81.4693 42.1631 72.7227 47.4212 66.6739Z" stroke="white" stroke-width="3"/>
<path opacity="0.151515" d="M40.359 54.2092L760.163 -745.215C765.526 -751.171 774.114 -752.996 781.436 -749.736L1764.17 -312.197C1771.49 -308.937 1775.88 -301.334 1775.04 -293.363L1662.59 776.475C1661.76 784.446 1655.88 790.971 1648.04 792.637L595.819 1016.29C587.979 1017.96 579.958 1014.39 575.951 1007.45L38.0857 75.8382C34.0784 68.8972 34.9961 60.1653 40.359 54.2092Z" stroke="white" stroke-width="3"/>
<path opacity="0.161616" d="M33.5723 41.8371L765.808 -743.389C771.274 -749.251 779.893 -750.926 787.156 -747.539L1760.22 -293.79C1767.49 -290.403 1771.74 -282.724 1770.77 -274.769L1639.92 790.89C1638.94 798.845 1632.96 805.266 1625.09 806.796L571.154 1011.66C563.287 1013.19 555.329 1009.48 551.443 1002.47L30.9219 63.4231C27.0363 56.4133 28.1063 47.6987 33.5723 41.8371Z" stroke="white" stroke-width="3"/>
<path opacity="0.171717" d="M27.0582 29.5663L771.449 -741.273C777.017 -747.039 785.663 -748.563 792.867 -745.05L1756.01 -275.294C1763.21 -271.781 1767.33 -264.029 1766.22 -256.092L1617.08 805.073C1615.97 813.009 1609.87 819.325 1601.97 820.717L546.661 1006.8C538.768 1008.19 530.877 1004.34 527.114 997.263L24.0314 51.1027C20.2688 44.0262 21.4907 35.3316 27.0582 29.5663Z" stroke="white" stroke-width="3"/>
<path opacity="0.181818" d="M20.8155 17.3947L777.083 -738.873C782.75 -744.54 791.422 -745.914 798.564 -742.275L1751.52 -256.722C1758.66 -253.083 1762.64 -245.26 1761.39 -237.344L1594.08 819.013C1592.83 826.929 1586.62 833.137 1578.7 834.391L522.345 1001.7C514.429 1002.96 506.606 998.969 502.967 991.828L17.4134 38.8751C13.7748 31.7339 15.1482 23.0619 20.8155 17.3947Z" stroke="white" stroke-width="3"/>
<path opacity="0.191919" d="M14.8395 5.33445L782.703 -736.182C788.468 -741.75 797.162 -742.972 804.239 -739.209L1746.75 -238.069C1753.82 -234.306 1757.67 -226.415 1756.28 -218.522L1570.92 832.716C1569.53 840.609 1563.21 846.708 1555.27 847.824L498.207 996.385C490.27 997.5 482.518 993.378 479.005 986.175L11.063 26.7522C7.54963 19.5486 9.07423 10.9019 14.8395 5.33445Z" stroke="white" stroke-width="3"/>
<path opacity="0.20202" d="M9.13106 -6.61687L788.305 -733.209C794.167 -738.675 802.881 -739.745 809.891 -735.859L1741.7 -219.35C1748.71 -215.464 1752.42 -207.507 1750.89 -199.639L1547.61 846.173C1546.08 854.041 1539.65 860.029 1531.7 861.005L474.254 990.843C466.299 991.82 458.62 987.563 455.233 980.3L4.98134 14.7316C1.59419 7.46784 3.26949 -1.15087 9.13106 -6.61687Z" stroke="white" stroke-width="3"/>
<path opacity="0.212121" d="M3.6855 -18.4472L793.884 -729.946C799.841 -735.309 808.573 -736.226 815.513 -732.219L1736.37 -200.56C1743.31 -196.553 1746.89 -188.532 1745.22 -180.692L1524.14 859.389C1522.48 867.229 1515.95 873.104 1507.98 873.942L450.488 985.089C442.518 985.926 434.914 981.536 431.654 974.215L-0.836162 2.8256C-4.09603 -4.49617 -2.27057 -13.0843 3.6855 -18.4472Z" stroke="white" stroke-width="3"/>
<path opacity="0.222222" d="M-1.50172 -30.159L799.433 -726.401C805.482 -731.659 814.228 -732.424 821.098 -728.296L1730.77 -181.713C1737.64 -177.585 1741.07 -169.503 1739.26 -161.693L1500.53 872.355C1498.73 880.165 1492.11 885.925 1484.12 886.623L426.911 979.117C418.926 979.816 411.401 975.294 408.269 967.916L-6.39396 -8.96828C-9.52553 -16.3459 -7.55048 -24.9009 -1.50172 -30.159Z" stroke="white" stroke-width="3"/>
<path opacity="0.232323" d="M-6.4315 -41.7422L804.947 -722.57C811.087 -727.721 819.845 -728.334 826.642 -724.087L1724.88 -162.807C1731.67 -158.56 1734.96 -150.419 1733.02 -142.643L1476.79 885.075C1474.85 892.851 1468.12 898.495 1460.13 899.054L403.526 972.939C395.531 973.498 388.085 968.845 385.083 961.414L-11.6928 -20.6401C-14.6952 -28.0713 -12.5711 -36.5905 -6.4315 -41.7422Z" stroke="white" stroke-width="3"/>
<path opacity="0.242424" d="M-11.1027 -53.1962L810.427 -718.458C816.655 -723.501 825.423 -723.961 832.145 -719.596L1718.71 -143.852C1725.43 -139.487 1728.58 -131.29 1726.51 -123.548L1452.91 897.542C1450.83 905.284 1444.01 910.809 1436 911.229L380.343 966.554C372.339 966.973 364.975 962.191 362.103 954.709L-16.7315 -32.1892C-19.6037 -39.6715 -17.3313 -48.1524 -11.1027 -53.1962Z" stroke="white" stroke-width="3"/>
<path opacity="0.252525" d="M-15.5235 -64.5163L815.861 -714.065C822.176 -718.999 830.951 -719.306 837.596 -714.824L1712.26 -124.852C1718.91 -120.37 1721.91 -112.12 1719.7 -104.415L1428.89 909.756C1426.69 917.46 1419.77 922.866 1411.76 923.145L357.357 959.966C349.348 960.245 342.069 955.336 339.327 947.804L-21.5181 -43.6107C-24.2593 -51.142 -21.8392 -59.582 -15.5235 -64.5163Z" stroke="white" stroke-width="3"/>
<path opacity="0.262626" d="M-19.6964 -75.7L821.245 -709.395C827.646 -714.218 836.425 -714.371 842.99 -709.774L1705.54 -105.814C1712.1 -101.217 1714.96 -92.9153 1712.62 -85.2507L1404.76 921.712C1402.41 929.377 1395.4 934.661 1387.39 934.801L334.575 953.178C326.561 953.317 319.369 948.281 316.76 940.703L-26.0549 -54.9021C-28.6642 -62.4802 -26.0972 -70.8766 -19.6964 -75.7Z" stroke="white" stroke-width="3"/>
<path opacity="0.272727" d="M-23.6201 -86.7355L826.579 -704.441C833.063 -709.152 841.843 -709.152 848.327 -704.441L1698.53 -86.7356C1705.01 -82.0246 1707.72 -73.6744 1705.25 -66.0519L1380.5 933.417C1378.02 941.04 1370.92 946.201 1362.91 946.201L312.001 946.201C303.987 946.201 296.883 941.04 294.407 933.417L-30.3406 -66.0518C-32.8173 -73.6742 -30.1041 -82.0246 -23.6201 -86.7355Z" stroke="white" stroke-width="3"/>
<path opacity="0.282828" d="M-27.3025 -97.6278L831.853 -699.215C838.418 -703.812 847.197 -703.659 853.598 -698.835L1691.23 -67.6306C1697.64 -62.8073 1700.2 -54.4109 1697.59 -46.8328L1356.13 944.86C1353.52 952.438 1346.32 957.474 1338.31 957.335L289.636 939.03C281.622 938.89 274.61 933.606 272.267 925.942L-34.383 -77.0646C-36.7262 -84.7291 -33.8678 -93.0308 -27.3025 -97.6278Z" stroke="white" stroke-width="3"/>
<path opacity="0.292929" d="M-30.7442 -108.364L837.064 -693.708C843.709 -698.19 852.484 -697.883 858.799 -692.949L1683.66 -48.4951C1689.98 -43.5608 1692.4 -35.1209 1689.66 -27.5895L1331.64 956.049C1328.9 963.58 1321.62 968.49 1313.61 968.21L267.483 931.679C259.473 931.399 252.555 925.993 250.345 918.289L-38.1825 -87.927C-40.3916 -95.6313 -37.3887 -103.882 -30.7442 -108.364Z" stroke="white" stroke-width="3"/>
<path opacity="0.30303" d="M-33.9492 -118.952L842.208 -687.935C848.929 -692.3 857.698 -691.84 863.926 -686.796L1675.81 -29.3471C1682.04 -24.3033 1684.31 -15.8224 1681.44 -8.33999L1307.05 966.969C1304.18 974.451 1296.82 979.233 1288.81 978.814L245.546 924.139C237.542 923.719 230.719 918.194 228.645 910.452L-41.743 -98.648C-43.8173 -106.39 -40.6709 -114.587 -33.9492 -118.952Z" stroke="white" stroke-width="3"/>
<path opacity="0.313131" d="M-36.9198 -129.371L847.279 -681.88C854.076 -686.127 862.835 -685.515 868.974 -680.363L1667.67 -10.1746C1673.81 -5.02284 1675.94 3.49634 1672.94 10.9275L1282.36 977.636C1279.36 985.067 1271.91 989.72 1263.92 989.16L223.828 916.431C215.833 915.871 209.107 910.228 207.168 902.451L-45.0668 -109.207C-47.0057 -116.983 -43.7166 -125.124 -36.9198 -129.371Z" stroke="white" stroke-width="3"/>
<path opacity="0.323232" d="M-39.6616 -139.639L852.272 -675.566C859.142 -679.694 867.888 -678.929 873.937 -673.671L1659.26 8.99734C1665.31 14.2555 1667.28 22.8104 1664.15 30.1881L1257.57 988.028C1254.44 995.406 1246.91 999.928 1238.93 999.229L202.329 908.539C194.345 907.84 187.719 902.08 185.916 894.271L-48.1593 -119.619C-49.9622 -127.429 -46.5315 -135.511 -39.6616 -139.639Z" stroke="white" stroke-width="3"/>
<path opacity="0.333333" d="M-42.175 -149.733L857.184 -668.979C864.125 -672.986 872.857 -672.068 878.813 -666.705L1650.56 28.1802C1656.52 33.5431 1658.34 42.1312 1655.08 49.4531L1232.69 998.161C1229.43 1005.48 1221.83 1009.87 1213.86 1009.04L181.056 900.484C173.085 899.646 166.56 893.771 164.894 885.931L-51.0207 -129.866C-52.687 -137.705 -49.1159 -145.726 -42.175 -149.733Z" stroke="white" stroke-width="3"/>
<path opacity="0.343434" d="M-44.4636 -159.658L862.011 -662.125C869.021 -666.011 877.736 -664.941 883.597 -659.475L1641.59 47.3634C1647.45 52.8294 1649.13 61.4481 1645.74 68.7119L1207.73 1008.03C1204.34 1015.29 1196.66 1019.55 1188.71 1018.57L160.01 892.265C152.055 891.288 145.633 885.3 144.104 877.433L-53.6547 -139.947C-55.1839 -147.815 -51.4734 -155.772 -44.4636 -159.658Z" stroke="white" stroke-width="3"/>
<path opacity="0.353535" d="M-46.5332 -169.408L866.746 -655.008C873.823 -658.77 882.517 -657.549 888.283 -651.981L1632.33 66.5408C1638.1 72.1082 1639.62 80.7548 1636.11 87.9585L1182.68 1017.63C1179.17 1024.83 1171.41 1028.95 1163.48 1027.84L139.191 883.885C131.254 882.769 124.938 876.67 123.547 868.777L-56.0669 -149.861C-57.4587 -157.754 -53.6098 -165.646 -46.5332 -169.408Z" stroke="white" stroke-width="3"/>
<path opacity="0.363636" d="M-48.3875 -178.983L871.384 -647.63C878.525 -651.269 887.197 -649.895 892.864 -644.228L1622.8 85.7071C1628.47 91.3743 1629.84 100.046 1626.2 107.187L1157.55 1026.96C1153.92 1034.1 1146.09 1038.09 1138.18 1036.83L118.602 875.348C110.686 874.094 104.478 867.886 103.224 859.97L-58.2609 -159.605C-59.5147 -167.521 -55.5286 -175.344 -48.3875 -178.983Z" stroke="white" stroke-width="3"/>
<path opacity="0.373737" d="M-50.0262 -188.371L875.925 -639.988C883.129 -643.502 891.775 -641.977 897.343 -636.212L1612.99 104.863C1618.56 110.628 1619.78 119.323 1616.02 126.4L1132.36 1036.03C1128.6 1043.1 1120.71 1046.95 1112.81 1045.56L98.2494 866.664C90.3565 865.273 84.2574 858.957 83.1419 851.02L-60.2363 -169.169C-61.3518 -177.106 -57.2298 -184.858 -50.0262 -188.371Z" stroke="white" stroke-width="3"/>
<path opacity="0.383838" d="M-51.4568 -197.58L880.36 -632.093C887.624 -635.48 896.243 -633.805 901.709 -627.944L1602.9 123.995C1608.37 129.856 1609.44 138.571 1605.55 145.581L1107.1 1044.82C1103.21 1051.83 1095.25 1055.54 1087.39 1054.01L78.1313 857.83C70.2638 856.3 64.2758 849.879 63.2991 841.924L-62.0005 -178.559C-62.9772 -186.514 -58.7206 -194.193 -51.4568 -197.58Z" stroke="white" stroke-width="3"/>
<path opacity="0.393939" d="M-52.6826 -206.601L884.686 -623.944C892.008 -627.204 900.596 -625.378 905.959 -619.422L1592.54 143.102C1597.9 149.058 1598.82 157.79 1594.81 164.731L1081.77 1053.34C1077.77 1060.28 1069.74 1063.85 1061.91 1062.19L58.25 848.852C50.4105 847.186 44.5354 840.661 43.6977 832.69L-63.5566 -187.766C-64.3943 -195.737 -60.0043 -203.341 -52.6826 -206.601Z" stroke="white" stroke-width="3"/>
<path opacity="0.40404" d="M-53.7052 -215.432L888.9 -615.544C896.277 -618.676 904.832 -616.701 910.09 -610.652L1581.9 162.177C1587.16 168.225 1587.92 176.972 1583.8 183.842L1056.39 1061.59C1052.26 1068.46 1044.18 1071.89 1036.37 1070.09L38.61 839.734C30.8008 837.932 25.0405 831.305 24.342 823.321L-64.9063 -196.791C-65.6048 -204.775 -61.0827 -212.301 -53.7052 -215.432Z" stroke="white" stroke-width="3"/>
<path opacity="0.414141" d="M-54.5297 -224.066L892.996 -606.892C900.427 -609.894 908.947 -607.77 914.098 -601.63L1570.99 181.221C1576.14 187.36 1576.75 196.119 1572.51 202.916L1030.96 1069.57C1026.71 1076.37 1018.57 1079.66 1010.8 1077.72L19.2119 830.487C11.4353 828.548 5.79156 821.823 5.23247 813.827L-66.0544 -205.623C-66.6135 -213.618 -61.9608 -221.064 -54.5297 -224.066Z" stroke="white" stroke-width="3"/>
<path opacity="0.424242" d="M-55.1612 -232.498L896.97 -597.987C904.452 -600.86 912.933 -598.587 917.977 -592.359L1559.8 200.23C1564.85 206.458 1565.31 215.226 1560.94 221.948L1005.48 1077.28C1001.11 1084.01 992.917 1087.15 985.176 1085.08L0.056378 821.115C-7.68518 819.041 -13.2107 812.218 -13.6301 804.214L-67.006 -214.259C-67.4255 -222.263 -62.6435 -229.626 -55.1612 -232.498Z" stroke="white" stroke-width="3"/>
<path opacity="0.434343" d="M-55.6011 -240.737L900.82 -588.846C908.351 -591.587 916.791 -589.167 921.725 -582.851L1548.35 219.188C1553.28 225.503 1553.59 234.278 1549.11 240.923L979.958 1084.72C975.476 1091.36 967.226 1094.37 959.522 1092.16L-18.8523 811.613C-26.5565 809.404 -31.962 802.485 -32.2417 794.475L-67.7625 -222.707C-68.0422 -230.717 -63.1324 -237.996 -55.6011 -240.737Z" stroke="white" stroke-width="3"/>
<path opacity="0.444444" d="M-55.8561 -248.765L904.538 -579.455C912.116 -582.065 920.513 -579.498 925.336 -573.097L1536.62 238.103C1541.44 244.504 1541.6 253.283 1537 259.848L954.398 1091.89C949.801 1098.45 941.5 1101.31 933.835 1098.97L-37.515 801.997C-45.1795 799.653 -50.4634 792.641 -50.6033 784.628L-68.3303 -230.95C-68.4702 -238.964 -63.4342 -246.156 -55.8561 -248.765Z" stroke="white" stroke-width="3"/>
<path opacity="0.454545" d="M-55.9293 -256.59L908.122 -569.829C915.745 -572.306 924.095 -569.592 928.806 -563.108L1524.62 256.963C1529.33 263.447 1529.33 272.227 1524.62 278.711L928.806 1098.78C924.095 1105.27 915.745 1107.98 908.122 1105.5L-55.9292 792.263C-63.5516 789.787 -68.7124 782.683 -68.7124 774.669L-68.7124 -238.995C-68.7125 -247.01 -63.5517 -254.113 -55.9293 -256.59Z" stroke="white" stroke-width="3"/>
<path opacity="0.464646" d="M-55.8232 -264.207L911.57 -559.969C919.234 -562.312 927.536 -559.454 932.133 -552.888L1512.36 275.762C1516.96 282.327 1516.8 291.106 1511.98 297.507L903.188 1105.4C898.364 1111.8 889.968 1114.37 882.39 1111.76L-74.0921 782.418C-81.6701 779.808 -86.7062 772.616 -86.5663 764.603L-68.9115 -246.838C-68.7716 -254.852 -63.4877 -261.864 -55.8232 -264.207Z" stroke="white" stroke-width="3"/>
<path opacity="0.474747" d="M-55.543 -271.612L914.876 -549.875C922.58 -552.084 930.831 -549.081 935.312 -542.437L1499.83 294.498C1504.31 301.143 1504.01 309.917 1499.07 316.233L877.547 1111.75C872.613 1118.07 864.173 1120.49 856.641 1117.75L-92.003 772.467C-99.5344 769.726 -104.444 762.447 -104.164 754.437L-68.9324 -254.474C-68.6527 -262.484 -63.2472 -269.403 -55.543 -271.612Z" stroke="white" stroke-width="3"/>
<path opacity="0.484848" d="M-55.093 -278.802L918.036 -539.551C925.778 -541.625 933.975 -538.479 938.34 -531.757L1487.04 313.168C1491.41 319.889 1490.95 328.657 1485.9 334.886L851.889 1117.83C846.845 1124.06 838.364 1126.33 830.882 1123.46L-109.661 762.416C-117.143 759.544 -121.925 752.18 -121.506 744.176L-68.7795 -261.9C-68.36 -269.904 -62.8346 -276.727 -55.093 -278.802Z" stroke="white" stroke-width="3"/>
<path opacity="0.494949" d="M-54.4778 -285.773L921.046 -528.999C928.823 -530.938 936.964 -527.648 941.211 -520.852L1473.99 331.766C1478.23 338.563 1477.62 347.322 1472.47 353.461L826.217 1123.63C821.065 1129.77 812.546 1131.9 805.115 1128.89L-127.065 752.27C-134.496 749.267 -139.149 741.821 -138.59 733.826L-68.4572 -269.113C-67.8982 -277.108 -62.2545 -283.834 -54.4778 -285.773Z" stroke="white" stroke-width="3"/>
<path opacity="0.50505" d="M-53.702 -292.523L923.902 -518.221C931.712 -520.024 939.794 -516.593 943.922 -509.723L1460.67 350.289C1464.8 357.159 1464.03 365.906 1458.77 371.955L800.537 1129.17C795.279 1135.22 786.724 1137.19 779.346 1134.06L-144.214 742.034C-151.592 738.902 -156.114 731.376 -155.415 723.392L-67.97 -276.11C-67.2715 -284.094 -61.5113 -290.72 -53.702 -292.523Z" stroke="white" stroke-width="3"/>
<path opacity="0.515152" d="M-52.7697 -299.052L926.601 -507.224C934.441 -508.89 942.462 -505.319 946.469 -498.378L1447.09 368.73C1451.1 375.671 1450.18 384.403 1444.82 390.359L774.854 1134.43C769.491 1140.39 760.902 1142.21 753.581 1138.96L-161.107 731.71C-168.429 728.45 -172.819 720.846 -171.981 712.875L-67.322 -282.89C-66.4842 -290.861 -60.6092 -297.386 -52.7697 -299.052Z" stroke="white" stroke-width="3"/>
<path opacity="0.525253" d="M-51.6834 -305.356L929.14 -496.009C937.008 -497.538 944.965 -493.827 948.851 -486.818L1433.26 387.086C1437.15 394.096 1436.08 402.811 1430.61 408.672L749.173 1139.43C743.707 1145.29 735.088 1146.96 727.825 1143.58L-177.742 721.305C-185.005 717.918 -189.262 710.238 -188.285 702.283L-66.5156 -289.45C-65.5388 -297.405 -59.5509 -303.827 -51.6834 -305.356Z" stroke="white" stroke-width="3"/>
<path opacity="0.535354" d="M-50.4474 -311.433L931.517 -484.58C939.41 -485.971 947.301 -482.122 951.064 -475.046L1419.18 405.352C1422.94 412.429 1421.72 421.123 1416.15 426.889L723.5 1144.15C717.933 1149.92 709.286 1151.44 702.083 1147.93L-194.116 710.823C-201.32 707.309 -205.441 699.557 -204.326 691.62L-65.5548 -295.789C-64.4394 -303.725 -58.3403 -310.041 -50.4474 -311.433Z" stroke="white" stroke-width="3"/>
<path opacity="0.545455" d="M-49.0673 -317.279L933.726 -472.938C941.642 -474.192 949.465 -470.206 953.104 -463.065L1404.84 423.526C1408.48 430.667 1407.11 439.339 1401.44 445.006L697.84 1148.61C692.172 1154.28 683.501 1155.65 676.359 1152.01L-210.231 700.27C-217.372 696.632 -221.358 688.809 -220.105 680.893L-64.4455 -301.901C-63.1917 -309.817 -56.9833 -316.025 -49.0673 -317.279Z" stroke="white" stroke-width="3"/>
<path opacity="0.555556" d="M-47.5494 -322.898L935.762 -461.093C943.699 -462.209 951.451 -458.087 954.964 -450.883L1390.26 441.597C1393.77 448.801 1392.24 457.447 1386.48 463.015L672.193 1152.79C666.428 1158.36 657.733 1159.58 650.657 1155.82L-226.088 689.646C-233.165 685.884 -237.014 677.992 -235.622 670.099L-63.1936 -307.79C-61.8019 -315.683 -55.4861 -321.782 -47.5494 -322.898Z" stroke="white" stroke-width="3"/>
<path opacity="0.565657" d="M-45.8937 -328.278L937.626 -449.039C945.581 -450.016 953.26 -445.759 956.647 -438.495L1375.42 459.571C1378.81 466.834 1377.13 475.453 1371.27 480.919L646.57 1156.72C640.708 1162.18 631.994 1163.25 624.984 1159.37L-241.682 678.965C-248.692 675.079 -252.402 667.122 -250.873 659.255L-61.7993 -313.446C-60.27 -321.313 -53.8487 -327.301 -45.8937 -328.278Z" stroke="white" stroke-width="3"/>
<path opacity="0.575758" d="M-44.1097 -333.429L939.31 -436.791C947.281 -437.628 954.885 -433.238 958.145 -425.917L1360.34 477.431C1363.6 484.753 1361.78 493.341 1355.82 498.704L620.97 1160.36C615.014 1165.73 606.282 1166.65 599.341 1162.64L-257.017 668.22C-263.958 664.212 -267.529 656.191 -265.862 648.352L-60.2716 -318.877C-58.6053 -326.716 -52.0804 -332.591 -44.1097 -333.429Z" stroke="white" stroke-width="3"/>
<path opacity="0.585859" d="M-42.1953 -338.338L940.818 -424.34C948.802 -425.039 956.328 -420.517 959.46 -413.139L1345.02 495.186C1348.15 502.563 1346.18 511.118 1340.13 516.376L595.405 1163.75C589.356 1169.01 580.61 1169.78 573.74 1165.65L-272.086 657.427C-278.956 653.299 -282.386 645.217 -280.583 637.407L-58.6088 -324.07C-56.8059 -331.879 -50.1795 -337.639 -42.1953 -338.338Z" stroke="white" stroke-width="3"/>
<path opacity="0.59596" d="M-40.162 -343.009L942.138 -411.698C950.134 -412.257 957.579 -407.604 960.582 -400.173L1329.46 512.824C1332.46 520.255 1330.33 528.774 1324.2 533.926L569.872 1166.88C563.732 1172.03 554.974 1172.64 548.177 1168.4L-286.895 646.584C-293.692 642.337 -296.981 634.197 -295.042 626.42L-56.822 -329.029C-54.8831 -336.806 -48.1572 -342.45 -40.162 -343.009Z" stroke="white" stroke-width="3"/>
<path opacity="0.606061" d="M-38.0112 -347.441L943.272 -398.868C951.276 -399.287 958.64 -394.505 961.512 -387.023L1313.66 530.342C1316.53 537.824 1314.25 546.305 1308.03 551.349L544.379 1169.74C538.15 1174.78 529.382 1175.24 522.661 1170.88L-301.442 635.697C-308.164 631.332 -311.31 623.135 -309.236 615.394L-54.9126 -333.754C-52.8382 -341.496 -46.0149 -347.021 -38.0112 -347.441Z" stroke="white" stroke-width="3"/>
<path opacity="0.616162" d="M-35.7482 -351.631L944.216 -385.852C952.226 -386.132 959.505 -381.222 962.246 -373.691L1297.62 547.735C1300.36 555.267 1297.94 563.707 1291.62 568.641L518.93 1172.34C512.614 1177.27 503.84 1177.58 497.195 1173.09L-315.727 624.771C-322.371 620.289 -325.374 612.039 -323.165 604.334L-52.8859 -338.242C-50.6768 -345.946 -43.758 -351.352 -35.7482 -351.631Z" stroke="white" stroke-width="3"/>
<path opacity="0.626263" d="M-33.3768 -355.574L944.967 -372.651C952.98 -372.791 960.172 -367.755 962.782 -360.177L1281.35 565.006C1283.96 572.584 1281.39 580.98 1274.99 585.804L493.53 1174.68C487.129 1179.5 478.351 1179.65 471.786 1175.05L-329.749 613.815C-336.314 609.218 -339.172 600.916 -336.829 593.251L-50.7456 -342.486C-48.4024 -350.15 -41.3903 -355.434 -33.3768 -355.574Z" stroke="white" stroke-width="3"/>
<path opacity="0.636364" d="M-30.8999 -359.273L945.524 -359.273C953.539 -359.273 960.642 -354.113 963.118 -346.49L1264.85 582.144C1267.33 589.766 1264.61 598.117 1258.13 602.828L468.186 1176.76C461.702 1181.47 452.922 1181.47 446.438 1176.76L-343.505 602.828C-349.989 598.117 -352.703 589.766 -350.226 582.144L-48.4945 -346.49C-46.0178 -354.113 -38.9146 -359.273 -30.8999 -359.273Z" stroke="white" stroke-width="3"/>
<path opacity="0.646465" d="M-28.3266 -362.727L945.88 -345.722C953.893 -345.582 960.905 -340.298 963.249 -332.634L1248.12 599.146C1250.47 606.811 1247.61 615.112 1241.04 619.709L442.897 1178.58C436.332 1183.17 427.553 1183.02 421.152 1178.2L-357.002 591.815C-363.403 586.992 -365.97 578.596 -363.36 571.018L-46.1415 -350.253C-43.5322 -357.831 -36.34 -362.867 -28.3266 -362.727Z" stroke="white" stroke-width="3"/>
<path opacity="0.656566" d="M-25.656 -365.932L946.038 -332C954.047 -331.72 960.966 -326.314 963.175 -318.61L1231.17 616.011C1233.38 623.715 1230.38 631.966 1223.74 636.448L417.674 1180.14C411.029 1184.62 402.255 1184.32 395.939 1179.38L-370.233 580.785C-376.548 575.851 -378.968 567.411 -376.227 559.879L-43.6859 -353.771C-40.9448 -361.302 -33.6658 -366.212 -25.656 -365.932Z" stroke="white" stroke-width="3"/>
<path opacity="0.666667" d="M-22.8971 -368.891L945.99 -318.114C953.994 -317.695 960.817 -312.169 962.892 -304.428L1214 632.73C1216.08 640.471 1212.93 648.668 1206.21 653.033L392.516 1181.45C385.794 1185.82 377.026 1185.36 370.798 1180.31L-383.202 569.736C-389.431 564.692 -391.703 556.211 -388.831 548.729L-41.1365 -357.047C-38.2643 -364.529 -30.9008 -369.311 -22.8971 -368.891Z" stroke="white" stroke-width="3"/>
<path opacity="0.676768" d="M-20.0543 -371.598L945.735 -304.064C953.731 -303.505 960.456 -297.861 962.395 -290.084L1196.61 649.305C1198.55 657.082 1195.26 665.223 1188.46 669.47L367.428 1182.51C360.632 1186.76 351.873 1186.14 345.733 1180.99L-395.911 558.68C-402.051 553.528 -404.175 545.009 -401.172 537.578L-38.4977 -360.074C-35.4953 -367.505 -28.0494 -372.157 -20.0543 -371.598Z" stroke="white" stroke-width="3"/>
<path opacity="0.686869" d="M-17.1307 -374.057L945.272 -289.858C953.256 -289.159 959.883 -283.399 961.685 -275.59L1179.01 665.729C1180.81 673.538 1177.38 681.62 1170.51 685.748L342.417 1183.32C335.547 1187.44 326.801 1186.68 320.752 1181.42L-408.357 547.615C-414.406 542.357 -416.381 533.802 -413.25 526.424L-35.7724 -362.856C-32.6408 -370.233 -25.1149 -374.755 -17.1307 -374.057Z" stroke="white" stroke-width="3"/>
<path opacity="0.69697" d="M-14.1307 -376.263L944.599 -275.496C952.569 -274.659 959.094 -268.784 960.76 -260.944L1161.19 682C1162.86 689.84 1159.28 697.861 1152.34 701.868L317.486 1183.87C310.545 1187.88 301.814 1186.96 295.858 1181.6L-420.542 536.551C-426.498 531.188 -428.323 522.6 -425.063 515.278L-32.9651 -365.389C-29.7052 -372.711 -22.1015 -377.101 -14.1307 -376.263Z" stroke="white" stroke-width="3"/>
<path opacity="0.707071" d="M-11.0573 -378.211L943.714 -260.98C951.669 -260.003 958.09 -254.015 959.619 -246.148L1143.17 698.12C1144.7 705.987 1140.99 713.945 1133.98 717.83L292.642 1184.19C285.633 1188.07 276.918 1187 271.057 1181.54L-432.463 525.496C-438.324 520.03 -440 511.411 -436.613 504.148L-30.0786 -367.667C-26.6915 -374.931 -19.0123 -379.188 -11.0573 -378.211Z" stroke="white" stroke-width="3"/>
<path opacity="0.717172" d="M-7.92045 -379.914L942.611 -246.325C950.547 -245.21 956.863 -239.111 958.255 -231.218L1124.94 714.072C1126.33 721.965 1122.48 729.856 1115.4 733.619L267.884 1184.25C260.808 1188.01 252.113 1186.79 246.348 1181.23L-444.127 514.442C-449.892 508.874 -451.417 500.228 -447.903 493.024L-27.1228 -369.704C-23.6094 -376.907 -15.8571 -381.029 -7.92045 -379.914Z" stroke="white" stroke-width="3"/>
<path opacity="0.727273" d="M-4.72069 -381.357L941.291 -231.524C949.207 -230.27 955.415 -224.061 956.669 -216.145L1106.5 729.866C1107.76 737.782 1103.77 745.605 1096.63 749.244L243.22 1184.08C236.079 1187.72 227.407 1186.34 221.74 1180.68L-455.53 503.406C-461.197 497.739 -462.571 489.067 -458.932 481.926L-24.0983 -371.484C-20.4597 -378.625 -12.6367 -382.611 -4.72069 -381.357Z" stroke="white" stroke-width="3"/>
<path opacity="0.737374" d="M-1.46604 -382.546L939.749 -216.585C947.642 -215.193 953.741 -208.877 954.856 -200.941L1087.87 745.493C1088.98 753.43 1084.86 761.182 1077.66 764.695L218.65 1183.66C211.447 1187.18 202.8 1185.65 197.233 1179.89L-466.677 492.387C-472.244 486.622 -473.466 477.928 -469.703 470.851L-21.013 -373.013C-17.2504 -380.089 -9.35896 -383.938 -1.46604 -382.546Z" stroke="white" stroke-width="3"/>
<path opacity="0.747475" d="M1.84311 -383.479L937.987 -201.511C945.855 -199.982 951.843 -193.56 952.82 -185.605L1069.04 760.952C1070.02 768.907 1065.76 776.586 1058.5 779.974L194.184 1183.01C186.92 1186.4 178.301 1184.72 172.835 1178.86L-477.563 481.393C-483.029 475.532 -484.099 466.817 -480.214 459.807L-17.8673 -374.288C-13.9817 -381.297 -6.02432 -385.008 1.84311 -383.479Z" stroke="white" stroke-width="3"/>
<path opacity="0.757576" d="M5.20053 -384.161L936.003 -186.313C943.842 -184.647 949.717 -178.122 950.555 -170.151L1050.02 776.233C1050.86 784.203 1046.47 791.807 1039.15 795.067L169.823 1182.12C162.501 1185.38 153.913 1183.55 148.55 1177.59L-488.192 470.421C-493.555 464.464 -494.473 455.733 -490.466 448.792L-14.6673 -375.315C-10.66 -382.256 -2.63901 -385.828 5.20053 -384.161Z" stroke="white" stroke-width="3"/>
<path opacity="0.767677" d="M8.60069 -384.587L933.792 -170.99C941.602 -169.187 947.362 -162.56 948.06 -154.576L1030.82 791.339C1031.52 799.323 1026.99 806.849 1019.62 809.98L145.571 1180.99C138.193 1184.12 129.639 1182.15 124.38 1176.1L-498.566 459.48C-503.824 453.432 -504.589 444.685 -500.462 437.815L-11.4185 -376.089C-7.29059 -382.959 0.791423 -386.39 8.60069 -384.587Z" stroke="white" stroke-width="3"/>
<path opacity="0.777778" d="M12.0376 -384.752L931.353 -155.541C939.13 -153.602 944.774 -146.876 945.333 -138.881L1011.42 806.27C1011.98 814.266 1007.33 821.711 999.899 824.714L121.43 1179.64C113.999 1182.64 105.48 1180.52 100.328 1174.38L-508.687 448.581C-513.838 442.442 -514.451 433.683 -510.204 426.886L-8.12675 -376.605C-3.87962 -383.402 4.26104 -386.691 12.0376 -384.752Z" stroke="white" stroke-width="3"/>
<path opacity="0.787879" d="M15.5094 -384.661L928.686 -139.976C936.428 -137.901 941.953 -131.078 942.373 -123.074L991.851 821.02C992.27 829.024 987.488 836.388 980.006 839.26L97.408 1178.06C89.9257 1180.93 81.4448 1178.66 76.401 1172.43L-518.552 437.722C-523.596 431.494 -524.056 422.726 -519.691 416.004L-4.79416 -376.867C-0.429052 -383.588 7.76781 -386.735 15.5094 -384.661Z" stroke="white" stroke-width="3"/>
<path opacity="0.79798" d="M19.0084 -384.318L925.787 -124.304C933.491 -122.094 938.897 -115.176 939.176 -107.166L972.098 835.581C972.378 843.591 967.468 850.87 959.936 853.611L73.5046 1176.25C65.9732 1178.99 57.5333 1176.57 52.599 1170.25L-528.168 426.904C-533.102 420.588 -533.408 411.813 -528.927 405.169L-1.42803 -376.88C3.05371 -383.524 11.3042 -386.527 19.0084 -384.318Z" stroke="white" stroke-width="3"/>
<path opacity="0.808081" d="M22.5352 -383.717L922.659 -108.522C930.324 -106.179 935.608 -99.1665 935.748 -91.153L952.175 849.956C952.315 857.97 947.279 865.162 939.701 867.771L49.729 1174.21C42.151 1176.82 33.7546 1174.26 28.9312 1167.85L-537.529 416.137C-542.352 409.736 -542.505 400.957 -537.908 394.392L1.97202 -376.637C6.5691 -383.202 14.8707 -386.061 22.5352 -383.717Z" stroke="white" stroke-width="3"/>
<path opacity="0.818182" d="M26.0783 -382.863L919.295 -92.6395C926.917 -90.1628 932.078 -83.0596 932.078 -75.0449L932.078 864.139C932.078 872.153 926.917 879.257 919.295 881.733L26.0783 1171.96C18.4559 1174.43 10.1056 1171.72 5.39469 1165.24L-546.644 405.421C-551.354 398.937 -551.354 390.157 -546.644 383.673L5.39466 -376.143C10.1056 -382.627 18.4559 -385.34 26.0783 -382.863Z" stroke="white" stroke-width="3"/>
<path opacity="0.828283" d="M29.638 -381.748L915.697 -76.6531C923.275 -74.0438 928.311 -66.8517 928.171 -58.8382L911.817 878.134C911.677 886.147 906.393 893.159 898.728 895.503L2.56104 1169.49C-5.10343 1171.83 -13.4051 1168.97 -18.0021 1162.41L-555.509 394.768C-560.106 388.203 -559.953 379.425 -555.129 373.024L8.84022 -375.389C13.6636 -381.79 22.06 -384.357 29.638 -381.748Z" stroke="white" stroke-width="3"/>
<path opacity="0.838384" d="M33.2073 -380.384L911.863 -60.5796C919.394 -57.8384 924.304 -50.5594 924.024 -42.5496L891.392 891.927C891.112 899.936 885.706 906.855 878.002 909.064L-20.8214 1166.8C-28.5257 1169.01 -36.7762 1166 -41.2579 1159.36L-564.129 384.171C-568.611 377.527 -568.304 368.752 -563.37 362.437L12.3017 -374.389C17.2361 -380.705 25.676 -383.125 33.2073 -380.384Z" stroke="white" stroke-width="3"/>
<path opacity="0.848485" d="M36.7829 -378.759L907.792 -44.4099C915.274 -41.5378 920.056 -34.1742 919.637 -26.1705L870.809 905.528C870.389 913.531 864.864 920.355 857.122 922.429L-44.0645 1163.9C-51.8061 1165.98 -60.0029 1162.83 -64.368 1156.11L-572.504 373.647C-576.869 366.926 -576.409 358.158 -571.365 351.929L15.776 -373.13C20.8198 -379.359 29.3006 -381.631 36.7829 -378.759Z" stroke="white" stroke-width="3"/>
<path opacity="0.858586" d="M40.3615 -376.884L903.484 -28.1596C910.915 -25.1573 915.568 -17.7114 915.009 -9.7162L850.072 918.924C849.513 926.919 843.869 933.645 836.093 935.584L-67.1632 1160.79C-74.9398 1162.73 -83.0805 1159.44 -87.3277 1152.64L-580.634 363.189C-584.881 356.393 -584.268 347.634 -579.117 341.494L19.2594 -371.623C24.4112 -377.762 32.9304 -379.886 40.3615 -376.884Z" stroke="white" stroke-width="3"/>
<path opacity="0.868687" d="M43.9325 -374.754L898.933 -11.8276C906.311 -8.69606 910.833 -1.17012 910.134 6.81409L829.181 932.118C828.482 940.103 822.722 946.729 814.913 948.532L-90.1202 1157.48C-97.9295 1159.28 -106.011 1155.85 -110.139 1148.98L-588.527 352.807C-592.655 345.937 -591.889 337.191 -586.631 331.142L22.7419 -369.862C28 -375.91 36.555 -377.885 43.9325 -374.754Z" stroke="white" stroke-width="3"/>
<path opacity="0.878788" d="M47.5004 -372.366L894.147 4.58486C901.469 7.8447 905.859 15.4484 905.021 23.4192L808.147 945.112C807.309 953.083 801.434 959.608 793.595 961.274L-112.923 1153.96C-120.763 1155.63 -128.783 1152.06 -132.791 1145.11L-596.176 342.508C-600.183 335.567 -599.265 326.836 -593.903 320.879L26.2276 -367.845C31.5905 -373.801 40.1786 -375.626 47.5004 -372.366Z" stroke="white" stroke-width="3"/>
<path opacity="0.888889" d="M51.0531 -369.728L889.117 21.0672C896.381 24.4543 900.638 32.1335 899.661 40.0885L786.968 957.897C785.991 965.852 780.003 972.273 772.136 973.803L-135.576 1150.24C-143.443 1151.77 -151.401 1148.06 -155.286 1141.05L-603.591 332.291C-607.476 325.281 -606.406 316.567 -600.94 310.705L29.7047 -365.579C35.1707 -371.44 43.7894 -373.116 51.0531 -369.728Z" stroke="white" stroke-width="3"/>
<path opacity="0.89899" d="M54.5892 -366.838L883.846 37.6177C891.049 41.1311 895.171 48.8834 894.056 56.8201L765.65 970.473C764.535 978.41 758.436 984.726 750.543 986.118L-158.073 1146.33C-165.966 1147.72 -173.857 1143.87 -177.62 1136.8L-610.769 322.161C-614.532 315.085 -613.31 306.39 -607.743 300.625L33.1716 -363.061C38.739 -368.826 47.3857 -370.351 54.5892 -366.838Z" stroke="white" stroke-width="3"/>
<path opacity="0.909091" d="M58.1043 -363.693L878.332 54.234C885.474 57.8726 889.46 65.6956 888.206 73.6117L744.198 982.842C742.944 990.758 736.736 996.966 728.82 998.22L-180.41 1142.23C-188.326 1143.48 -196.149 1139.5 -199.788 1132.35L-617.715 312.126C-621.353 304.985 -619.98 296.313 -614.313 290.646L36.624 -360.291C42.2913 -365.958 50.9632 -367.332 58.1043 -363.693Z" stroke="white" stroke-width="3"/>
<path opacity="0.919192" d="M61.5937 -360.305L872.576 70.9021C879.653 74.6647 883.502 82.5562 882.11 90.4491L722.615 994.99C721.224 1002.88 714.908 1008.98 706.971 1010.1L-202.585 1137.93C-210.522 1139.04 -218.274 1134.92 -221.787 1127.72L-624.429 302.179C-627.942 294.976 -626.418 286.329 -620.652 280.762L40.0574 -357.278C45.8227 -362.846 54.5172 -364.068 61.5937 -360.305Z" stroke="white" stroke-width="3"/>
<path opacity="0.929293" d="M65.0509 -356.663L866.575 87.6293C873.584 91.5149 877.295 99.4723 875.766 107.34L700.903 1006.93C699.374 1014.8 692.953 1020.78 684.998 1021.76L-224.597 1133.44C-232.552 1134.42 -240.231 1130.16 -243.618 1122.9L-630.916 292.337C-634.303 285.073 -632.628 276.455 -626.766 270.988L43.4649 -354.012C49.3265 -359.478 58.0411 -360.548 65.0509 -356.663Z" stroke="white" stroke-width="3"/>
<path opacity="0.939394" d="M68.4755 -352.776L860.332 104.403C867.273 108.41 870.844 116.431 869.177 124.271L679.072 1018.65C677.406 1026.49 670.881 1032.36 662.91 1033.2L-246.438 1128.77C-254.409 1129.61 -262.012 1125.22 -265.272 1117.9L-637.174 282.595C-640.434 275.273 -638.609 266.685 -632.653 261.322L46.8466 -350.502C52.8027 -355.865 61.5346 -356.783 68.4755 -352.776Z" stroke="white" stroke-width="3"/>
<path opacity="0.949495" d="M71.8594 -348.634L853.843 121.229C860.713 125.357 864.143 133.439 862.34 141.248L657.12 1030.15C655.317 1037.96 648.691 1043.72 640.707 1044.42L-268.109 1123.93C-276.094 1124.63 -283.62 1120.11 -286.751 1112.73L-643.21 272.967C-646.342 265.589 -644.367 257.035 -638.318 251.776L50.1942 -346.738C56.2429 -351.996 64.9895 -352.762 71.8594 -348.634Z" stroke="white" stroke-width="3"/>
<path opacity="0.959596" d="M75.2022 -344.256L847.112 138.087C853.909 142.334 857.198 150.474 855.259 158.251L635.057 1041.43C633.118 1049.21 626.392 1054.85 618.397 1055.41L-289.605 1118.91C-297.6 1119.46 -305.046 1114.81 -308.048 1107.38L-649.022 263.44C-652.025 256.009 -649.901 247.49 -643.761 242.338L53.5071 -342.739C59.6467 -347.891 68.4053 -348.503 75.2022 -344.256Z" stroke="white" stroke-width="3"/>
<path opacity="0.969697" d="M78.4936 -339.627L840.132 154.987C846.854 159.352 850.001 167.548 847.926 175.29L612.88 1052.5C610.805 1060.24 603.982 1065.76 595.978 1066.18L-310.927 1113.71C-318.931 1114.13 -326.294 1109.35 -329.167 1101.87L-654.619 254.035C-657.491 246.553 -655.218 238.072 -648.99 233.028L56.7754 -338.489C63.004 -343.533 71.772 -343.993 78.4936 -339.627Z" stroke="white" stroke-width="3"/>
<path opacity="0.979798" d="M81.7337 -334.764L832.909 171.91C839.554 176.392 842.556 184.642 840.347 192.347L590.597 1063.33C588.388 1071.03 581.47 1076.44 573.46 1076.72L-332.069 1108.34C-340.079 1108.62 -347.358 1103.71 -350.099 1096.18L-659.997 244.74C-662.739 237.209 -660.318 228.769 -654.003 223.834L59.9989 -334.005C66.3145 -338.939 75.0892 -339.246 81.7337 -334.764Z" stroke="white" stroke-width="3"/>
<path opacity="0.989899" d="M84.9201 -329.651L825.444 188.869C832.009 193.466 834.867 201.768 832.524 209.433L568.216 1073.94C565.873 1081.61 558.861 1086.89 550.848 1087.03L-353.027 1102.81C-361.04 1102.95 -368.232 1097.91 -370.842 1090.33L-665.159 235.575C-667.769 227.997 -665.202 219.6 -658.801 214.777L63.1754 -329.271C69.5762 -334.094 78.3549 -334.248 84.9201 -329.651Z" stroke="white" stroke-width="3"/>
<path d="M88.0454 -324.301L817.733 205.848C824.217 210.559 826.93 218.909 824.453 226.532L545.738 1084.33C543.261 1091.95 536.158 1097.11 528.143 1097.11L-373.8 1097.11C-381.815 1097.11 -388.918 1091.95 -391.395 1084.33L-670.111 226.532C-672.587 218.909 -669.874 210.559 -663.39 205.848L66.2974 -324.301C72.7814 -329.012 81.5614 -329.012 88.0454 -324.301Z" stroke="white" stroke-width="3"/>
</g>
<g filter="url(#filter1_f_8_2)">
<path d="M1057.44 705L426 910L663.978 582L795.398 275L1452.94 22L1746 763L1057.44 705Z" fill="url(#paint1_angular_8_2)" fill-opacity="0.4"/>
</g>
<g opacity="0.05">
<path opacity="0.010101" d="M165.098 235.057L683.721 -740.331C687.484 -747.408 695.375 -751.257 703.268 -749.865L1791.18 -558.036C1799.07 -556.645 1805.17 -550.329 1806.29 -542.392L1960.03 551.553C1961.15 559.489 1957.03 567.241 1949.82 570.755L956.928 1055.02C949.725 1058.54 941.078 1057.01 935.51 1051.25L168.124 256.594C162.557 250.828 161.335 242.134 165.098 235.057Z" stroke="white" stroke-width="3"/>
<path opacity="0.020202" d="M154.298 221.817L688.862 -742.562C692.748 -749.572 700.705 -753.283 708.573 -751.754L1790.94 -541.362C1798.81 -539.833 1804.8 -533.412 1805.77 -525.457L1940.15 568.951C1941.13 576.906 1936.87 584.585 1929.61 587.972L930.287 1053.96C923.023 1057.35 914.404 1055.67 908.938 1049.81L156.949 243.403C151.483 237.541 150.413 228.826 154.298 221.817Z" stroke="white" stroke-width="3"/>
<path opacity="0.030303" d="M143.797 208.609L694.076 -744.502C698.083 -751.443 706.104 -755.015 713.944 -753.348L1790.45 -524.529C1798.29 -522.863 1804.17 -516.338 1805 -508.367L1920.04 586.161C1920.88 594.132 1916.49 601.736 1909.17 604.996L903.76 1052.63C896.438 1055.89 887.85 1054.07 882.487 1048.11L146.07 230.237C140.707 224.281 139.79 215.549 143.797 208.609Z" stroke="white" stroke-width="3"/>
<path opacity="0.040404" d="M133.587 195.433L699.35 -746.156C703.478 -753.025 711.56 -756.456 719.369 -754.653L1789.7 -507.547C1797.51 -505.744 1803.27 -499.118 1803.97 -491.134L1899.71 603.175C1900.41 611.159 1895.89 618.685 1888.51 621.817L877.346 1051.03C869.969 1054.16 861.414 1052.19 856.156 1046.14L135.482 217.098C130.224 211.05 129.459 202.303 133.587 195.433Z" stroke="white" stroke-width="3"/>
<path opacity="0.050505" d="M123.673 182.299L704.687 -747.518C708.934 -754.315 717.075 -757.604 724.852 -755.665L1788.7 -490.417C1796.48 -488.478 1802.12 -481.752 1802.68 -473.757L1879.16 619.992C1879.72 627.987 1875.07 635.433 1867.64 638.435L851.057 1049.16C843.626 1052.16 835.107 1050.04 829.955 1043.9L125.19 203.994C120.038 197.854 119.426 189.096 123.673 182.299Z" stroke="white" stroke-width="3"/>
<path opacity="0.0606061" d="M114.049 169.205L710.075 -748.595C714.44 -755.316 722.637 -758.463 730.379 -756.388L1787.44 -473.15C1795.18 -471.075 1800.71 -464.252 1801.13 -456.248L1858.4 636.603C1858.82 644.607 1854.04 651.97 1846.56 654.842L824.892 1047.02C817.409 1049.9 808.928 1047.62 803.885 1041.39L115.187 190.924C110.143 184.695 109.684 175.927 114.049 169.205Z" stroke="white" stroke-width="3"/>
<path opacity="0.0707071" d="M104.72 156.16L715.517 -749.383C719.999 -756.027 728.249 -759.03 735.953 -756.821L1785.92 -455.747C1793.63 -453.538 1799.03 -446.619 1799.31 -438.61L1837.43 653.007C1837.71 661.017 1832.8 668.296 1825.27 671.037L798.861 1044.62C791.33 1047.36 782.89 1044.94 777.955 1038.63L105.479 177.895C100.545 171.579 100.239 162.805 104.72 156.16Z" stroke="white" stroke-width="3"/>
<path opacity="0.0808081" d="M95.6781 143.177L720.999 -749.874C725.596 -756.439 733.897 -759.298 741.562 -756.954L1784.14 -438.207C1791.8 -435.864 1797.09 -428.852 1797.23 -420.838L1816.25 669.209C1816.39 677.223 1811.36 684.415 1803.78 687.024L772.962 1041.96C765.384 1044.57 756.988 1042.01 752.164 1035.6L96.0577 164.921C91.2343 158.521 91.081 149.742 95.6781 143.177Z" stroke="white" stroke-width="3"/>
<path opacity="0.0909091" d="M86.9263 130.246L726.521 -750.082C731.232 -756.566 739.583 -759.279 747.205 -756.802L1782.09 -420.547C1789.71 -418.07 1794.88 -410.967 1794.88 -402.953L1794.88 685.192C1794.88 693.207 1789.71 700.31 1782.09 702.786L747.205 1039.04C739.583 1041.52 731.232 1038.81 726.521 1032.32L86.9263 151.994C82.2154 145.51 82.2154 136.73 86.9263 130.246Z" stroke="white" stroke-width="3"/>
<path opacity="0.10101" d="M78.458 117.381L732.074 -749.997C736.898 -756.398 745.294 -758.965 752.872 -756.356L1779.78 -402.765C1787.35 -400.155 1792.39 -392.963 1792.25 -384.95L1773.3 700.96C1773.16 708.974 1767.87 715.986 1760.21 718.329L721.589 1035.87C713.924 1038.21 705.623 1035.35 701.026 1028.79L78.0785 139.125C73.4814 132.56 73.6347 123.781 78.458 117.381Z" stroke="white" stroke-width="3"/>
<path opacity="0.111111" d="M70.2773 104.591L737.658 -749.618C742.593 -755.934 751.032 -758.354 758.564 -755.613L1777.2 -384.861C1784.73 -382.12 1789.64 -374.841 1789.36 -366.831L1751.53 716.515C1751.25 724.525 1745.84 731.444 1738.14 733.653L696.124 1032.45C688.419 1034.65 680.169 1031.65 675.687 1025.01L69.5183 126.325C65.0366 119.681 65.343 110.906 70.2773 104.591Z" stroke="white" stroke-width="3"/>
<path opacity="0.121212" d="M62.3773 91.8665L743.263 -748.957C748.306 -755.185 756.787 -757.458 764.27 -754.586L1774.35 -366.854C1781.83 -363.982 1786.61 -356.618 1786.19 -348.614L1729.57 731.84C1729.15 739.844 1723.62 746.667 1715.88 748.742L670.808 1028.77C663.066 1030.84 654.87 1027.7 650.504 1020.97L61.2391 113.585C56.874 106.863 57.3335 98.095 62.3773 91.8665Z" stroke="white" stroke-width="3"/>
<path opacity="0.131313" d="M54.7602 79.2299L748.886 -747.998C754.038 -754.137 762.557 -756.261 769.989 -753.259L1771.23 -348.733C1778.66 -345.731 1783.31 -338.285 1782.75 -330.29L1707.42 746.949C1706.86 754.944 1701.22 761.67 1693.44 763.609L645.651 1024.85C637.874 1026.79 629.734 1023.5 625.486 1016.71L53.2432 100.925C48.9961 94.1282 49.6085 85.3695 54.7602 79.2299Z" stroke="white" stroke-width="3"/>
<path opacity="0.141414" d="M47.4212 66.6739L754.522 -746.752C759.78 -752.801 768.335 -754.776 775.712 -751.644L1767.83 -330.514C1775.21 -327.383 1779.73 -319.857 1779.03 -311.872L1685.1 761.826C1684.4 769.81 1678.64 776.437 1670.83 778.239L620.653 1020.69C612.844 1022.49 604.762 1019.06 600.634 1012.19L45.5258 88.3392C41.3979 81.4693 42.1631 72.7227 47.4212 66.6739Z" stroke="white" stroke-width="3"/>
<path opacity="0.151515" d="M40.359 54.2092L760.163 -745.215C765.526 -751.171 774.114 -752.996 781.436 -749.736L1764.17 -312.197C1771.49 -308.937 1775.88 -301.334 1775.04 -293.363L1662.59 776.475C1661.76 784.446 1655.88 790.971 1648.04 792.637L595.819 1016.29C587.979 1017.96 579.958 1014.39 575.951 1007.45L38.0857 75.8382C34.0784 68.8972 34.9961 60.1653 40.359 54.2092Z" stroke="white" stroke-width="3"/>
<path opacity="0.161616" d="M33.5723 41.8371L765.808 -743.389C771.274 -749.251 779.893 -750.926 787.156 -747.539L1760.22 -293.79C1767.49 -290.403 1771.74 -282.724 1770.77 -274.769L1639.92 790.89C1638.94 798.845 1632.96 805.266 1625.09 806.796L571.154 1011.66C563.287 1013.19 555.329 1009.48 551.443 1002.47L30.9219 63.4231C27.0363 56.4133 28.1063 47.6987 33.5723 41.8371Z" stroke="white" stroke-width="3"/>
<path opacity="0.171717" d="M27.0582 29.5663L771.449 -741.273C777.017 -747.039 785.663 -748.563 792.867 -745.05L1756.01 -275.294C1763.21 -271.781 1767.33 -264.029 1766.22 -256.092L1617.08 805.073C1615.97 813.009 1609.87 819.325 1601.97 820.717L546.661 1006.8C538.768 1008.19 530.877 1004.34 527.114 997.263L24.0314 51.1027C20.2688 44.0262 21.4907 35.3316 27.0582 29.5663Z" stroke="white" stroke-width="3"/>
<path opacity="0.181818" d="M20.8155 17.3947L777.083 -738.873C782.75 -744.54 791.422 -745.914 798.564 -742.275L1751.52 -256.722C1758.66 -253.083 1762.64 -245.26 1761.39 -237.344L1594.08 819.013C1592.83 826.929 1586.62 833.137 1578.7 834.391L522.345 1001.7C514.429 1002.96 506.606 998.969 502.967 991.828L17.4134 38.8751C13.7748 31.7339 15.1482 23.0619 20.8155 17.3947Z" stroke="white" stroke-width="3"/>
<path opacity="0.191919" d="M14.8395 5.33445L782.703 -736.182C788.468 -741.75 797.162 -742.972 804.239 -739.209L1746.75 -238.069C1753.82 -234.306 1757.67 -226.415 1756.28 -218.522L1570.92 832.716C1569.53 840.609 1563.21 846.708 1555.27 847.824L498.207 996.385C490.27 997.5 482.518 993.378 479.005 986.175L11.063 26.7522C7.54963 19.5486 9.07423 10.9019 14.8395 5.33445Z" stroke="white" stroke-width="3"/>
<path opacity="0.20202" d="M9.13106 -6.61687L788.305 -733.209C794.167 -738.675 802.881 -739.745 809.891 -735.859L1741.7 -219.35C1748.71 -215.464 1752.42 -207.507 1750.89 -199.639L1547.61 846.173C1546.08 854.041 1539.65 860.029 1531.7 861.005L474.254 990.843C466.299 991.82 458.62 987.563 455.233 980.3L4.98134 14.7316C1.59419 7.46784 3.26949 -1.15087 9.13106 -6.61687Z" stroke="white" stroke-width="3"/>
<path opacity="0.212121" d="M3.6855 -18.4472L793.884 -729.946C799.841 -735.309 808.573 -736.226 815.513 -732.219L1736.37 -200.56C1743.31 -196.553 1746.89 -188.532 1745.22 -180.692L1524.14 859.389C1522.48 867.229 1515.95 873.104 1507.98 873.942L450.488 985.089C442.518 985.926 434.914 981.536 431.654 974.215L-0.836162 2.8256C-4.09603 -4.49617 -2.27057 -13.0843 3.6855 -18.4472Z" stroke="white" stroke-width="3"/>
<path opacity="0.222222" d="M-1.50172 -30.159L799.433 -726.401C805.482 -731.659 814.228 -732.424 821.098 -728.296L1730.77 -181.713C1737.64 -177.585 1741.07 -169.503 1739.26 -161.693L1500.53 872.355C1498.73 880.165 1492.11 885.925 1484.12 886.623L426.911 979.117C418.926 979.816 411.401 975.294 408.269 967.916L-6.39396 -8.96828C-9.52553 -16.3459 -7.55048 -24.9009 -1.50172 -30.159Z" stroke="white" stroke-width="3"/>
<path opacity="0.232323" d="M-6.4315 -41.7422L804.947 -722.57C811.087 -727.721 819.845 -728.334 826.642 -724.087L1724.88 -162.807C1731.67 -158.56 1734.96 -150.419 1733.02 -142.643L1476.79 885.075C1474.85 892.851 1468.12 898.495 1460.13 899.054L403.526 972.939C395.531 973.498 388.085 968.845 385.083 961.414L-11.6928 -20.6401C-14.6952 -28.0713 -12.5711 -36.5905 -6.4315 -41.7422Z" stroke="white" stroke-width="3"/>
<path opacity="0.242424" d="M-11.1027 -53.1962L810.427 -718.458C816.655 -723.501 825.423 -723.961 832.145 -719.596L1718.71 -143.852C1725.43 -139.487 1728.58 -131.29 1726.51 -123.548L1452.91 897.542C1450.83 905.284 1444.01 910.809 1436 911.229L380.343 966.554C372.339 966.973 364.975 962.191 362.103 954.709L-16.7315 -32.1892C-19.6037 -39.6715 -17.3313 -48.1524 -11.1027 -53.1962Z" stroke="white" stroke-width="3"/>
<path opacity="0.252525" d="M-15.5235 -64.5163L815.861 -714.065C822.176 -718.999 830.951 -719.306 837.596 -714.824L1712.26 -124.852C1718.91 -120.37 1721.91 -112.12 1719.7 -104.415L1428.89 909.756C1426.69 917.46 1419.77 922.866 1411.76 923.145L357.357 959.966C349.348 960.245 342.069 955.336 339.327 947.804L-21.5181 -43.6107C-24.2593 -51.142 -21.8392 -59.582 -15.5235 -64.5163Z" stroke="white" stroke-width="3"/>
<path opacity="0.262626" d="M-19.6964 -75.7L821.245 -709.395C827.646 -714.218 836.425 -714.371 842.99 -709.774L1705.54 -105.814C1712.1 -101.217 1714.96 -92.9153 1712.62 -85.2507L1404.76 921.712C1402.41 929.377 1395.4 934.661 1387.39 934.801L334.575 953.178C326.561 953.317 319.369 948.281 316.76 940.703L-26.0549 -54.9021C-28.6642 -62.4802 -26.0972 -70.8766 -19.6964 -75.7Z" stroke="white" stroke-width="3"/>
<path opacity="0.272727" d="M-23.6201 -86.7355L826.579 -704.441C833.063 -709.152 841.843 -709.152 848.327 -704.441L1698.53 -86.7356C1705.01 -82.0246 1707.72 -73.6744 1705.25 -66.0519L1380.5 933.417C1378.02 941.04 1370.92 946.201 1362.91 946.201L312.001 946.201C303.987 946.201 296.883 941.04 294.407 933.417L-30.3406 -66.0518C-32.8173 -73.6742 -30.1041 -82.0246 -23.6201 -86.7355Z" stroke="white" stroke-width="3"/>
<path opacity="0.282828" d="M-27.3025 -97.6278L831.853 -699.215C838.418 -703.812 847.197 -703.659 853.598 -698.835L1691.23 -67.6306C1697.64 -62.8073 1700.2 -54.4109 1697.59 -46.8328L1356.13 944.86C1353.52 952.438 1346.32 957.474 1338.31 957.335L289.636 939.03C281.622 938.89 274.61 933.606 272.267 925.942L-34.383 -77.0646C-36.7262 -84.7291 -33.8678 -93.0308 -27.3025 -97.6278Z" stroke="white" stroke-width="3"/>
<path opacity="0.292929" d="M-30.7442 -108.364L837.064 -693.708C843.709 -698.19 852.484 -697.883 858.799 -692.949L1683.66 -48.4951C1689.98 -43.5608 1692.4 -35.1209 1689.66 -27.5895L1331.64 956.049C1328.9 963.58 1321.62 968.49 1313.61 968.21L267.483 931.679C259.473 931.399 252.555 925.993 250.345 918.289L-38.1825 -87.927C-40.3916 -95.6313 -37.3887 -103.882 -30.7442 -108.364Z" stroke="white" stroke-width="3"/>
<path opacity="0.30303" d="M-33.9492 -118.952L842.208 -687.935C848.929 -692.3 857.698 -691.84 863.926 -686.796L1675.81 -29.3471C1682.04 -24.3033 1684.31 -15.8224 1681.44 -8.33999L1307.05 966.969C1304.18 974.451 1296.82 979.233 1288.81 978.814L245.546 924.139C237.542 923.719 230.719 918.194 228.645 910.452L-41.743 -98.648C-43.8173 -106.39 -40.6709 -114.587 -33.9492 -118.952Z" stroke="white" stroke-width="3"/>
<path opacity="0.313131" d="M-36.9198 -129.371L847.279 -681.88C854.076 -686.127 862.835 -685.515 868.974 -680.363L1667.67 -10.1746C1673.81 -5.02284 1675.94 3.49634 1672.94 10.9275L1282.36 977.636C1279.36 985.067 1271.91 989.72 1263.92 989.16L223.828 916.431C215.833 915.871 209.107 910.228 207.168 902.451L-45.0668 -109.207C-47.0057 -116.983 -43.7166 -125.124 -36.9198 -129.371Z" stroke="white" stroke-width="3"/>
<path opacity="0.323232" d="M-39.6616 -139.639L852.272 -675.566C859.142 -679.694 867.888 -678.929 873.937 -673.671L1659.26 8.99734C1665.31 14.2555 1667.28 22.8104 1664.15 30.1881L1257.57 988.028C1254.44 995.406 1246.91 999.928 1238.93 999.229L202.329 908.539C194.345 907.84 187.719 902.08 185.916 894.271L-48.1593 -119.619C-49.9622 -127.429 -46.5315 -135.511 -39.6616 -139.639Z" stroke="white" stroke-width="3"/>
<path opacity="0.333333" d="M-42.175 -149.733L857.184 -668.979C864.125 -672.986 872.857 -672.068 878.813 -666.705L1650.56 28.1802C1656.52 33.5431 1658.34 42.1312 1655.08 49.4531L1232.69 998.161C1229.43 1005.48 1221.83 1009.87 1213.86 1009.04L181.056 900.484C173.085 899.646 166.56 893.771 164.894 885.931L-51.0207 -129.866C-52.687 -137.705 -49.1159 -145.726 -42.175 -149.733Z" stroke="white" stroke-width="3"/>
<path opacity="0.343434" d="M-44.4636 -159.658L862.011 -662.125C869.021 -666.011 877.736 -664.941 883.597 -659.475L1641.59 47.3634C1647.45 52.8294 1649.13 61.4481 1645.74 68.7119L1207.73 1008.03C1204.34 1015.29 1196.66 1019.55 1188.71 1018.57L160.01 892.265C152.055 891.288 145.633 885.3 144.104 877.433L-53.6547 -139.947C-55.1839 -147.815 -51.4734 -155.772 -44.4636 -159.658Z" stroke="white" stroke-width="3"/>
<path opacity="0.353535" d="M-46.5332 -169.408L866.746 -655.008C873.823 -658.77 882.517 -657.549 888.283 -651.981L1632.33 66.5408C1638.1 72.1082 1639.62 80.7548 1636.11 87.9585L1182.68 1017.63C1179.17 1024.83 1171.41 1028.95 1163.48 1027.84L139.191 883.885C131.254 882.769 124.938 876.67 123.547 868.777L-56.0669 -149.861C-57.4587 -157.754 -53.6098 -165.646 -46.5332 -169.408Z" stroke="white" stroke-width="3"/>
<path opacity="0.363636" d="M-48.3875 -178.983L871.384 -647.63C878.525 -651.269 887.197 -649.895 892.864 -644.228L1622.8 85.7071C1628.47 91.3743 1629.84 100.046 1626.2 107.187L1157.55 1026.96C1153.92 1034.1 1146.09 1038.09 1138.18 1036.83L118.602 875.348C110.686 874.094 104.478 867.886 103.224 859.97L-58.2609 -159.605C-59.5147 -167.521 -55.5286 -175.344 -48.3875 -178.983Z" stroke="white" stroke-width="3"/>
<path opacity="0.373737" d="M-50.0262 -188.371L875.925 -639.988C883.129 -643.502 891.775 -641.977 897.343 -636.212L1612.99 104.863C1618.56 110.628 1619.78 119.323 1616.02 126.4L1132.36 1036.03C1128.6 1043.1 1120.71 1046.95 1112.81 1045.56L98.2494 866.664C90.3565 865.273 84.2574 858.957 83.1419 851.02L-60.2363 -169.169C-61.3518 -177.106 -57.2298 -184.858 -50.0262 -188.371Z" stroke="white" stroke-width="3"/>
<path opacity="0.383838" d="M-51.4568 -197.58L880.36 -632.093C887.624 -635.48 896.243 -633.805 901.709 -627.944L1602.9 123.995C1608.37 129.856 1609.44 138.571 1605.55 145.581L1107.1 1044.82C1103.21 1051.83 1095.25 1055.54 1087.39 1054.01L78.1313 857.83C70.2638 856.3 64.2758 849.879 63.2991 841.924L-62.0005 -178.559C-62.9772 -186.514 -58.7206 -194.193 -51.4568 -197.58Z" stroke="white" stroke-width="3"/>
<path opacity="0.393939" d="M-52.6826 -206.601L884.686 -623.944C892.008 -627.204 900.596 -625.378 905.959 -619.422L1592.54 143.102C1597.9 149.058 1598.82 157.79 1594.81 164.731L1081.77 1053.34C1077.77 1060.28 1069.74 1063.85 1061.91 1062.19L58.25 848.852C50.4105 847.186 44.5354 840.661 43.6977 832.69L-63.5566 -187.766C-64.3943 -195.737 -60.0043 -203.341 -52.6826 -206.601Z" stroke="white" stroke-width="3"/>
<path opacity="0.40404" d="M-53.7052 -215.432L888.9 -615.544C896.277 -618.676 904.832 -616.701 910.09 -610.652L1581.9 162.177C1587.16 168.225 1587.92 176.972 1583.8 183.842L1056.39 1061.59C1052.26 1068.46 1044.18 1071.89 1036.37 1070.09L38.61 839.734C30.8008 837.932 25.0405 831.305 24.342 823.321L-64.9063 -196.791C-65.6048 -204.775 -61.0827 -212.301 -53.7052 -215.432Z" stroke="white" stroke-width="3"/>
<path opacity="0.414141" d="M-54.5297 -224.066L892.996 -606.892C900.427 -609.894 908.947 -607.77 914.098 -601.63L1570.99 181.221C1576.14 187.36 1576.75 196.119 1572.51 202.916L1030.96 1069.57C1026.71 1076.37 1018.57 1079.66 1010.8 1077.72L19.2119 830.487C11.4353 828.548 5.79156 821.823 5.23247 813.827L-66.0544 -205.623C-66.6135 -213.618 -61.9608 -221.064 -54.5297 -224.066Z" stroke="white" stroke-width="3"/>
<path opacity="0.424242" d="M-55.1612 -232.498L896.97 -597.987C904.452 -600.86 912.933 -598.587 917.977 -592.359L1559.8 200.23C1564.85 206.458 1565.31 215.226 1560.94 221.948L1005.48 1077.28C1001.11 1084.01 992.917 1087.15 985.176 1085.08L0.056378 821.115C-7.68518 819.041 -13.2107 812.218 -13.6301 804.214L-67.006 -214.259C-67.4255 -222.263 -62.6435 -229.626 -55.1612 -232.498Z" stroke="white" stroke-width="3"/>
<path opacity="0.434343" d="M-55.6011 -240.737L900.82 -588.846C908.351 -591.587 916.791 -589.167 921.725 -582.851L1548.35 219.188C1553.28 225.503 1553.59 234.278 1549.11 240.923L979.958 1084.72C975.476 1091.36 967.226 1094.37 959.522 1092.16L-18.8523 811.613C-26.5565 809.404 -31.962 802.485 -32.2417 794.475L-67.7625 -222.707C-68.0422 -230.717 -63.1324 -237.996 -55.6011 -240.737Z" stroke="white" stroke-width="3"/>
<path opacity="0.444444" d="M-55.8561 -248.765L904.538 -579.455C912.116 -582.065 920.513 -579.498 925.336 -573.097L1536.62 238.103C1541.44 244.504 1541.6 253.283 1537 259.848L954.398 1091.89C949.801 1098.45 941.5 1101.31 933.835 1098.97L-37.515 801.997C-45.1795 799.653 -50.4634 792.641 -50.6033 784.628L-68.3303 -230.95C-68.4702 -238.964 -63.4342 -246.156 -55.8561 -248.765Z" stroke="white" stroke-width="3"/>
<path opacity="0.454545" d="M-55.9293 -256.59L908.122 -569.829C915.745 -572.306 924.095 -569.592 928.806 -563.108L1524.62 256.963C1529.33 263.447 1529.33 272.227 1524.62 278.711L928.806 1098.78C924.095 1105.27 915.745 1107.98 908.122 1105.5L-55.9292 792.263C-63.5516 789.787 -68.7124 782.683 -68.7124 774.669L-68.7124 -238.995C-68.7125 -247.01 -63.5517 -254.113 -55.9293 -256.59Z" stroke="white" stroke-width="3"/>
<path opacity="0.464646" d="M-55.8232 -264.207L911.57 -559.969C919.234 -562.312 927.536 -559.454 932.133 -552.888L1512.36 275.762C1516.96 282.327 1516.8 291.106 1511.98 297.507L903.188 1105.4C898.364 1111.8 889.968 1114.37 882.39 1111.76L-74.0921 782.418C-81.6701 779.808 -86.7062 772.616 -86.5663 764.603L-68.9115 -246.838C-68.7716 -254.852 -63.4877 -261.864 -55.8232 -264.207Z" stroke="white" stroke-width="3"/>
<path opacity="0.474747" d="M-55.543 -271.612L914.876 -549.875C922.58 -552.084 930.831 -549.081 935.312 -542.437L1499.83 294.498C1504.31 301.143 1504.01 309.917 1499.07 316.233L877.547 1111.75C872.613 1118.07 864.173 1120.49 856.641 1117.75L-92.003 772.467C-99.5344 769.726 -104.444 762.447 -104.164 754.437L-68.9324 -254.474C-68.6527 -262.484 -63.2472 -269.403 -55.543 -271.612Z" stroke="white" stroke-width="3"/>
<path opacity="0.484848" d="M-55.093 -278.802L918.036 -539.551C925.778 -541.625 933.975 -538.479 938.34 -531.757L1487.04 313.168C1491.41 319.889 1490.95 328.657 1485.9 334.886L851.889 1117.83C846.845 1124.06 838.364 1126.33 830.882 1123.46L-109.661 762.416C-117.143 759.544 -121.925 752.18 -121.506 744.176L-68.7795 -261.9C-68.36 -269.904 -62.8346 -276.727 -55.093 -278.802Z" stroke="white" stroke-width="3"/>
<path opacity="0.494949" d="M-54.4778 -285.773L921.046 -528.999C928.823 -530.938 936.964 -527.648 941.211 -520.852L1473.99 331.766C1478.23 338.563 1477.62 347.322 1472.47 353.461L826.217 1123.63C821.065 1129.77 812.546 1131.9 805.115 1128.89L-127.065 752.27C-134.496 749.267 -139.149 741.821 -138.59 733.826L-68.4572 -269.113C-67.8982 -277.108 -62.2545 -283.834 -54.4778 -285.773Z" stroke="white" stroke-width="3"/>
<path opacity="0.50505" d="M-53.702 -292.523L923.902 -518.221C931.712 -520.024 939.794 -516.593 943.922 -509.723L1460.67 350.289C1464.8 357.159 1464.03 365.906 1458.77 371.955L800.537 1129.17C795.279 1135.22 786.724 1137.19 779.346 1134.06L-144.214 742.034C-151.592 738.902 -156.114 731.376 -155.415 723.392L-67.97 -276.11C-67.2715 -284.094 -61.5113 -290.72 -53.702 -292.523Z" stroke="white" stroke-width="3"/>
<path opacity="0.515152" d="M-52.7697 -299.052L926.601 -507.224C934.441 -508.89 942.462 -505.319 946.469 -498.378L1447.09 368.73C1451.1 375.671 1450.18 384.403 1444.82 390.359L774.854 1134.43C769.491 1140.39 760.902 1142.21 753.581 1138.96L-161.107 731.71C-168.429 728.45 -172.819 720.846 -171.981 712.875L-67.322 -282.89C-66.4842 -290.861 -60.6092 -297.386 -52.7697 -299.052Z" stroke="white" stroke-width="3"/>
<path opacity="0.525253" d="M-51.6834 -305.356L929.14 -496.009C937.008 -497.538 944.965 -493.827 948.851 -486.818L1433.26 387.086C1437.15 394.096 1436.08 402.811 1430.61 408.672L749.173 1139.43C743.707 1145.29 735.088 1146.96 727.825 1143.58L-177.742 721.305C-185.005 717.918 -189.262 710.238 -188.285 702.283L-66.5156 -289.45C-65.5388 -297.405 -59.5509 -303.827 -51.6834 -305.356Z" stroke="white" stroke-width="3"/>
<path opacity="0.535354" d="M-50.4474 -311.433L931.517 -484.58C939.41 -485.971 947.301 -482.122 951.064 -475.046L1419.18 405.352C1422.94 412.429 1421.72 421.123 1416.15 426.889L723.5 1144.15C717.933 1149.92 709.286 1151.44 702.083 1147.93L-194.116 710.823C-201.32 707.309 -205.441 699.557 -204.326 691.62L-65.5548 -295.789C-64.4394 -303.725 -58.3403 -310.041 -50.4474 -311.433Z" stroke="white" stroke-width="3"/>
<path opacity="0.545455" d="M-49.0673 -317.279L933.726 -472.938C941.642 -474.192 949.465 -470.206 953.104 -463.065L1404.84 423.526C1408.48 430.667 1407.11 439.339 1401.44 445.006L697.84 1148.61C692.172 1154.28 683.501 1155.65 676.359 1152.01L-210.231 700.27C-217.372 696.632 -221.358 688.809 -220.105 680.893L-64.4455 -301.901C-63.1917 -309.817 -56.9833 -316.025 -49.0673 -317.279Z" stroke="white" stroke-width="3"/>
<path opacity="0.555556" d="M-47.5494 -322.898L935.762 -461.093C943.699 -462.209 951.451 -458.087 954.964 -450.883L1390.26 441.597C1393.77 448.801 1392.24 457.447 1386.48 463.015L672.193 1152.79C666.428 1158.36 657.733 1159.58 650.657 1155.82L-226.088 689.646C-233.165 685.884 -237.014 677.992 -235.622 670.099L-63.1936 -307.79C-61.8019 -315.683 -55.4861 -321.782 -47.5494 -322.898Z" stroke="white" stroke-width="3"/>
<path opacity="0.565657" d="M-45.8937 -328.278L937.626 -449.039C945.581 -450.016 953.26 -445.759 956.647 -438.495L1375.42 459.571C1378.81 466.834 1377.13 475.453 1371.27 480.919L646.57 1156.72C640.708 1162.18 631.994 1163.25 624.984 1159.37L-241.682 678.965C-248.692 675.079 -252.402 667.122 -250.873 659.255L-61.7993 -313.446C-60.27 -321.313 -53.8487 -327.301 -45.8937 -328.278Z" stroke="white" stroke-width="3"/>
<path opacity="0.575758" d="M-44.1097 -333.429L939.31 -436.791C947.281 -437.628 954.885 -433.238 958.145 -425.917L1360.34 477.431C1363.6 484.753 1361.78 493.341 1355.82 498.704L620.97 1160.36C615.014 1165.73 606.282 1166.65 599.341 1162.64L-257.017 668.22C-263.958 664.212 -267.529 656.191 -265.862 648.352L-60.2716 -318.877C-58.6053 -326.716 -52.0804 -332.591 -44.1097 -333.429Z" stroke="white" stroke-width="3"/>
<path opacity="0.585859" d="M-42.1953 -338.338L940.818 -424.34C948.802 -425.039 956.328 -420.517 959.46 -413.139L1345.02 495.186C1348.15 502.563 1346.18 511.118 1340.13 516.376L595.405 1163.75C589.356 1169.01 580.61 1169.78 573.74 1165.65L-272.086 657.427C-278.956 653.299 -282.386 645.217 -280.583 637.407L-58.6088 -324.07C-56.8059 -331.879 -50.1795 -337.639 -42.1953 -338.338Z" stroke="white" stroke-width="3"/>
<path opacity="0.59596" d="M-40.162 -343.009L942.138 -411.698C950.134 -412.257 957.579 -407.604 960.582 -400.173L1329.46 512.824C1332.46 520.255 1330.33 528.774 1324.2 533.926L569.872 1166.88C563.732 1172.03 554.974 1172.64 548.177 1168.4L-286.895 646.584C-293.692 642.337 -296.981 634.197 -295.042 626.42L-56.822 -329.029C-54.8831 -336.806 -48.1572 -342.45 -40.162 -343.009Z" stroke="white" stroke-width="3"/>
<path opacity="0.606061" d="M-38.0112 -347.441L943.272 -398.868C951.276 -399.287 958.64 -394.505 961.512 -387.023L1313.66 530.342C1316.53 537.824 1314.25 546.305 1308.03 551.349L544.379 1169.74C538.15 1174.78 529.382 1175.24 522.661 1170.88L-301.442 635.697C-308.164 631.332 -311.31 623.135 -309.236 615.394L-54.9126 -333.754C-52.8382 -341.496 -46.0149 -347.021 -38.0112 -347.441Z" stroke="white" stroke-width="3"/>
<path opacity="0.616162" d="M-35.7482 -351.631L944.216 -385.852C952.226 -386.132 959.505 -381.222 962.246 -373.691L1297.62 547.735C1300.36 555.267 1297.94 563.707 1291.62 568.641L518.93 1172.34C512.614 1177.27 503.84 1177.58 497.195 1173.09L-315.727 624.771C-322.371 620.289 -325.374 612.039 -323.165 604.334L-52.8859 -338.242C-50.6768 -345.946 -43.758 -351.352 -35.7482 -351.631Z" stroke="white" stroke-width="3"/>
<path opacity="0.626263" d="M-33.3768 -355.574L944.967 -372.651C952.98 -372.791 960.172 -367.755 962.782 -360.177L1281.35 565.006C1283.96 572.584 1281.39 580.98 1274.99 585.804L493.53 1174.68C487.129 1179.5 478.351 1179.65 471.786 1175.05L-329.749 613.815C-336.314 609.218 -339.172 600.916 -336.829 593.251L-50.7456 -342.486C-48.4024 -350.15 -41.3903 -355.434 -33.3768 -355.574Z" stroke="white" stroke-width="3"/>
<path opacity="0.636364" d="M-30.8999 -359.273L945.524 -359.273C953.539 -359.273 960.642 -354.113 963.118 -346.49L1264.85 582.144C1267.33 589.766 1264.61 598.117 1258.13 602.828L468.186 1176.76C461.702 1181.47 452.922 1181.47 446.438 1176.76L-343.505 602.828C-349.989 598.117 -352.703 589.766 -350.226 582.144L-48.4945 -346.49C-46.0178 -354.113 -38.9146 -359.273 -30.8999 -359.273Z" stroke="white" stroke-width="3"/>
<path opacity="0.646465" d="M-28.3266 -362.727L945.88 -345.722C953.893 -345.582 960.905 -340.298 963.249 -332.634L1248.12 599.146C1250.47 606.811 1247.61 615.112 1241.04 619.709L442.897 1178.58C436.332 1183.17 427.553 1183.02 421.152 1178.2L-357.002 591.815C-363.403 586.992 -365.97 578.596 -363.36 571.018L-46.1415 -350.253C-43.5322 -357.831 -36.34 -362.867 -28.3266 -362.727Z" stroke="white" stroke-width="3"/>
<path opacity="0.656566" d="M-25.656 -365.932L946.038 -332C954.047 -331.72 960.966 -326.314 963.175 -318.61L1231.17 616.011C1233.38 623.715 1230.38 631.966 1223.74 636.448L417.674 1180.14C411.029 1184.62 402.255 1184.32 395.939 1179.38L-370.233 580.785C-376.548 575.851 -378.968 567.411 -376.227 559.879L-43.6859 -353.771C-40.9448 -361.302 -33.6658 -366.212 -25.656 -365.932Z" stroke="white" stroke-width="3"/>
<path opacity="0.666667" d="M-22.8971 -368.891L945.99 -318.114C953.994 -317.695 960.817 -312.169 962.892 -304.428L1214 632.73C1216.08 640.471 1212.93 648.668 1206.21 653.033L392.516 1181.45C385.794 1185.82 377.026 1185.36 370.798 1180.31L-383.202 569.736C-389.431 564.692 -391.703 556.211 -388.831 548.729L-41.1365 -357.047C-38.2643 -364.529 -30.9008 -369.311 -22.8971 -368.891Z" stroke="white" stroke-width="3"/>
<path opacity="0.676768" d="M-20.0543 -371.598L945.735 -304.064C953.731 -303.505 960.456 -297.861 962.395 -290.084L1196.61 649.305C1198.55 657.082 1195.26 665.223 1188.46 669.47L367.428 1182.51C360.632 1186.76 351.873 1186.14 345.733 1180.99L-395.911 558.68C-402.051 553.528 -404.175 545.009 -401.172 537.578L-38.4977 -360.074C-35.4953 -367.505 -28.0494 -372.157 -20.0543 -371.598Z" stroke="white" stroke-width="3"/>
<path opacity="0.686869" d="M-17.1307 -374.057L945.272 -289.858C953.256 -289.159 959.883 -283.399 961.685 -275.59L1179.01 665.729C1180.81 673.538 1177.38 681.62 1170.51 685.748L342.417 1183.32C335.547 1187.44 326.801 1186.68 320.752 1181.42L-408.357 547.615C-414.406 542.357 -416.381 533.802 -413.25 526.424L-35.7724 -362.856C-32.6408 -370.233 -25.1149 -374.755 -17.1307 -374.057Z" stroke="white" stroke-width="3"/>
<path opacity="0.69697" d="M-14.1307 -376.263L944.599 -275.496C952.569 -274.659 959.094 -268.784 960.76 -260.944L1161.19 682C1162.86 689.84 1159.28 697.861 1152.34 701.868L317.486 1183.87C310.545 1187.88 301.814 1186.96 295.858 1181.6L-420.542 536.551C-426.498 531.188 -428.323 522.6 -425.063 515.278L-32.9651 -365.389C-29.7052 -372.711 -22.1015 -377.101 -14.1307 -376.263Z" stroke="white" stroke-width="3"/>
<path opacity="0.707071" d="M-11.0573 -378.211L943.714 -260.98C951.669 -260.003 958.09 -254.015 959.619 -246.148L1143.17 698.12C1144.7 705.987 1140.99 713.945 1133.98 717.83L292.642 1184.19C285.633 1188.07 276.918 1187 271.057 1181.54L-432.463 525.496C-438.324 520.03 -440 511.411 -436.613 504.148L-30.0786 -367.667C-26.6915 -374.931 -19.0123 -379.188 -11.0573 -378.211Z" stroke="white" stroke-width="3"/>
<path opacity="0.717172" d="M-7.92045 -379.914L942.611 -246.325C950.547 -245.21 956.863 -239.111 958.255 -231.218L1124.94 714.072C1126.33 721.965 1122.48 729.856 1115.4 733.619L267.884 1184.25C260.808 1188.01 252.113 1186.79 246.348 1181.23L-444.127 514.442C-449.892 508.874 -451.417 500.228 -447.903 493.024L-27.1228 -369.704C-23.6094 -376.907 -15.8571 -381.029 -7.92045 -379.914Z" stroke="white" stroke-width="3"/>
<path opacity="0.727273" d="M-4.72069 -381.357L941.291 -231.524C949.207 -230.27 955.415 -224.061 956.669 -216.145L1106.5 729.866C1107.76 737.782 1103.77 745.605 1096.63 749.244L243.22 1184.08C236.079 1187.72 227.407 1186.34 221.74 1180.68L-455.53 503.406C-461.197 497.739 -462.571 489.067 -458.932 481.926L-24.0983 -371.484C-20.4597 -378.625 -12.6367 -382.611 -4.72069 -381.357Z" stroke="white" stroke-width="3"/>
<path opacity="0.737374" d="M-1.46604 -382.546L939.749 -216.585C947.642 -215.193 953.741 -208.877 954.856 -200.941L1087.87 745.493C1088.98 753.43 1084.86 761.182 1077.66 764.695L218.65 1183.66C211.447 1187.18 202.8 1185.65 197.233 1179.89L-466.677 492.387C-472.244 486.622 -473.466 477.928 -469.703 470.851L-21.013 -373.013C-17.2504 -380.089 -9.35896 -383.938 -1.46604 -382.546Z" stroke="white" stroke-width="3"/>
<path opacity="0.747475" d="M1.84311 -383.479L937.987 -201.511C945.855 -199.982 951.843 -193.56 952.82 -185.605L1069.04 760.952C1070.02 768.907 1065.76 776.586 1058.5 779.974L194.184 1183.01C186.92 1186.4 178.301 1184.72 172.835 1178.86L-477.563 481.393C-483.029 475.532 -484.099 466.817 -480.214 459.807L-17.8673 -374.288C-13.9817 -381.297 -6.02432 -385.008 1.84311 -383.479Z" stroke="white" stroke-width="3"/>
<path opacity="0.757576" d="M5.20053 -384.161L936.003 -186.313C943.842 -184.647 949.717 -178.122 950.555 -170.151L1050.02 776.233C1050.86 784.203 1046.47 791.807 1039.15 795.067L169.823 1182.12C162.501 1185.38 153.913 1183.55 148.55 1177.59L-488.192 470.421C-493.555 464.464 -494.473 455.733 -490.466 448.792L-14.6673 -375.315C-10.66 -382.256 -2.63901 -385.828 5.20053 -384.161Z" stroke="white" stroke-width="3"/>
<path opacity="0.767677" d="M8.60069 -384.587L933.792 -170.99C941.602 -169.187 947.362 -162.56 948.06 -154.576L1030.82 791.339C1031.52 799.323 1026.99 806.849 1019.62 809.98L145.571 1180.99C138.193 1184.12 129.639 1182.15 124.38 1176.1L-498.566 459.48C-503.824 453.432 -504.589 444.685 -500.462 437.815L-11.4185 -376.089C-7.29059 -382.959 0.791423 -386.39 8.60069 -384.587Z" stroke="white" stroke-width="3"/>
<path opacity="0.777778" d="M12.0376 -384.752L931.353 -155.541C939.13 -153.602 944.774 -146.876 945.333 -138.881L1011.42 806.27C1011.98 814.266 1007.33 821.711 999.899 824.714L121.43 1179.64C113.999 1182.64 105.48 1180.52 100.328 1174.38L-508.687 448.581C-513.838 442.442 -514.451 433.683 -510.204 426.886L-8.12675 -376.605C-3.87962 -383.402 4.26104 -386.691 12.0376 -384.752Z" stroke="white" stroke-width="3"/>
<path opacity="0.787879" d="M15.5094 -384.661L928.686 -139.976C936.428 -137.901 941.953 -131.078 942.373 -123.074L991.851 821.02C992.27 829.024 987.488 836.388 980.006 839.26L97.408 1178.06C89.9257 1180.93 81.4448 1178.66 76.401 1172.43L-518.552 437.722C-523.596 431.494 -524.056 422.726 -519.691 416.004L-4.79416 -376.867C-0.429052 -383.588 7.76781 -386.735 15.5094 -384.661Z" stroke="white" stroke-width="3"/>
<path opacity="0.79798" d="M19.0084 -384.318L925.787 -124.304C933.491 -122.094 938.897 -115.176 939.176 -107.166L972.098 835.581C972.378 843.591 967.468 850.87 959.936 853.611L73.5046 1176.25C65.9732 1178.99 57.5333 1176.57 52.599 1170.25L-528.168 426.904C-533.102 420.588 -533.408 411.813 -528.927 405.169L-1.42803 -376.88C3.05371 -383.524 11.3042 -386.527 19.0084 -384.318Z" stroke="white" stroke-width="3"/>
<path opacity="0.808081" d="M22.5352 -383.717L922.659 -108.522C930.324 -106.179 935.608 -99.1665 935.748 -91.153L952.175 849.956C952.315 857.97 947.279 865.162 939.701 867.771L49.729 1174.21C42.151 1176.82 33.7546 1174.26 28.9312 1167.85L-537.529 416.137C-542.352 409.736 -542.505 400.957 -537.908 394.392L1.97202 -376.637C6.5691 -383.202 14.8707 -386.061 22.5352 -383.717Z" stroke="white" stroke-width="3"/>
<path opacity="0.818182" d="M26.0783 -382.863L919.295 -92.6395C926.917 -90.1628 932.078 -83.0596 932.078 -75.0449L932.078 864.139C932.078 872.153 926.917 879.257 919.295 881.733L26.0783 1171.96C18.4559 1174.43 10.1056 1171.72 5.39469 1165.24L-546.644 405.421C-551.354 398.937 -551.354 390.157 -546.644 383.673L5.39466 -376.143C10.1056 -382.627 18.4559 -385.34 26.0783 -382.863Z" stroke="white" stroke-width="3"/>
<path opacity="0.828283" d="M29.638 -381.748L915.697 -76.6531C923.275 -74.0438 928.311 -66.8517 928.171 -58.8382L911.817 878.134C911.677 886.147 906.393 893.159 898.728 895.503L2.56104 1169.49C-5.10343 1171.83 -13.4051 1168.97 -18.0021 1162.41L-555.509 394.768C-560.106 388.203 -559.953 379.425 -555.129 373.024L8.84022 -375.389C13.6636 -381.79 22.06 -384.357 29.638 -381.748Z" stroke="white" stroke-width="3"/>
<path opacity="0.838384" d="M33.2073 -380.384L911.863 -60.5796C919.394 -57.8384 924.304 -50.5594 924.024 -42.5496L891.392 891.927C891.112 899.936 885.706 906.855 878.002 909.064L-20.8214 1166.8C-28.5257 1169.01 -36.7762 1166 -41.2579 1159.36L-564.129 384.171C-568.611 377.527 -568.304 368.752 -563.37 362.437L12.3017 -374.389C17.2361 -380.705 25.676 -383.125 33.2073 -380.384Z" stroke="white" stroke-width="3"/>
<path opacity="0.848485" d="M36.7829 -378.759L907.792 -44.4099C915.274 -41.5378 920.056 -34.1742 919.637 -26.1705L870.809 905.528C870.389 913.531 864.864 920.355 857.122 922.429L-44.0645 1163.9C-51.8061 1165.98 -60.0029 1162.83 -64.368 1156.11L-572.504 373.647C-576.869 366.926 -576.409 358.158 -571.365 351.929L15.776 -373.13C20.8198 -379.359 29.3006 -381.631 36.7829 -378.759Z" stroke="white" stroke-width="3"/>
<path opacity="0.858586" d="M40.3615 -376.884L903.484 -28.1596C910.915 -25.1573 915.568 -17.7114 915.009 -9.7162L850.072 918.924C849.513 926.919 843.869 933.645 836.093 935.584L-67.1632 1160.79C-74.9398 1162.73 -83.0805 1159.44 -87.3277 1152.64L-580.634 363.189C-584.881 356.393 -584.268 347.634 -579.117 341.494L19.2594 -371.623C24.4112 -377.762 32.9304 -379.886 40.3615 -376.884Z" stroke="white" stroke-width="3"/>
<path opacity="0.868687" d="M43.9325 -374.754L898.933 -11.8276C906.311 -8.69606 910.833 -1.17012 910.134 6.81409L829.181 932.118C828.482 940.103 822.722 946.729 814.913 948.532L-90.1202 1157.48C-97.9295 1159.28 -106.011 1155.85 -110.139 1148.98L-588.527 352.807C-592.655 345.937 -591.889 337.191 -586.631 331.142L22.7419 -369.862C28 -375.91 36.555 -377.885 43.9325 -374.754Z" stroke="white" stroke-width="3"/>
<path opacity="0.878788" d="M47.5004 -372.366L894.147 4.58486C901.469 7.8447 905.859 15.4484 905.021 23.4192L808.147 945.112C807.309 953.083 801.434 959.608 793.595 961.274L-112.923 1153.96C-120.763 1155.63 -128.783 1152.06 -132.791 1145.11L-596.176 342.508C-600.183 335.567 -599.265 326.836 -593.903 320.879L26.2276 -367.845C31.5905 -373.801 40.1786 -375.626 47.5004 -372.366Z" stroke="white" stroke-width="3"/>
<path opacity="0.888889" d="M51.0531 -369.728L889.117 21.0672C896.381 24.4543 900.638 32.1335 899.661 40.0885L786.968 957.897C785.991 965.852 780.003 972.273 772.136 973.803L-135.576 1150.24C-143.443 1151.77 -151.401 1148.06 -155.286 1141.05L-603.591 332.291C-607.476 325.281 -606.406 316.567 -600.94 310.705L29.7047 -365.579C35.1707 -371.44 43.7894 -373.116 51.0531 -369.728Z" stroke="white" stroke-width="3"/>
<path opacity="0.89899" d="M54.5892 -366.838L883.846 37.6177C891.049 41.1311 895.171 48.8834 894.056 56.8201L765.65 970.473C764.535 978.41 758.436 984.726 750.543 986.118L-158.073 1146.33C-165.966 1147.72 -173.857 1143.87 -177.62 1136.8L-610.769 322.161C-614.532 315.085 -613.31 306.39 -607.743 300.625L33.1716 -363.061C38.739 -368.826 47.3857 -370.351 54.5892 -366.838Z" stroke="white" stroke-width="3"/>
<path opacity="0.909091" d="M58.1043 -363.693L878.332 54.234C885.474 57.8726 889.46 65.6956 888.206 73.6117L744.198 982.842C742.944 990.758 736.736 996.966 728.82 998.22L-180.41 1142.23C-188.326 1143.48 -196.149 1139.5 -199.788 1132.35L-617.715 312.126C-621.353 304.985 -619.98 296.313 -614.313 290.646L36.624 -360.291C42.2913 -365.958 50.9632 -367.332 58.1043 -363.693Z" stroke="white" stroke-width="3"/>
<path opacity="0.919192" d="M61.5937 -360.305L872.576 70.9021C879.653 74.6647 883.502 82.5562 882.11 90.4491L722.615 994.99C721.224 1002.88 714.908 1008.98 706.971 1010.1L-202.585 1137.93C-210.522 1139.04 -218.274 1134.92 -221.787 1127.72L-624.429 302.179C-627.942 294.976 -626.418 286.329 -620.652 280.762L40.0574 -357.278C45.8227 -362.846 54.5172 -364.068 61.5937 -360.305Z" stroke="white" stroke-width="3"/>
<path opacity="0.929293" d="M65.0509 -356.663L866.575 87.6293C873.584 91.5149 877.295 99.4723 875.766 107.34L700.903 1006.93C699.374 1014.8 692.953 1020.78 684.998 1021.76L-224.597 1133.44C-232.552 1134.42 -240.231 1130.16 -243.618 1122.9L-630.916 292.337C-634.303 285.073 -632.628 276.455 -626.766 270.988L43.4649 -354.012C49.3265 -359.478 58.0411 -360.548 65.0509 -356.663Z" stroke="white" stroke-width="3"/>
<path opacity="0.939394" d="M68.4755 -352.776L860.332 104.403C867.273 108.41 870.844 116.431 869.177 124.271L679.072 1018.65C677.406 1026.49 670.881 1032.36 662.91 1033.2L-246.438 1128.77C-254.409 1129.61 -262.012 1125.22 -265.272 1117.9L-637.174 282.595C-640.434 275.273 -638.609 266.685 -632.653 261.322L46.8466 -350.502C52.8027 -355.865 61.5346 -356.783 68.4755 -352.776Z" stroke="white" stroke-width="3"/>
<path opacity="0.949495" d="M71.8594 -348.634L853.843 121.229C860.713 125.357 864.143 133.439 862.34 141.248L657.12 1030.15C655.317 1037.96 648.691 1043.72 640.707 1044.42L-268.109 1123.93C-276.094 1124.63 -283.62 1120.11 -286.751 1112.73L-643.21 272.967C-646.342 265.589 -644.367 257.035 -638.318 251.776L50.1942 -346.738C56.2429 -351.996 64.9895 -352.762 71.8594 -348.634Z" stroke="white" stroke-width="3"/>
<path opacity="0.959596" d="M75.2022 -344.256L847.112 138.087C853.909 142.334 857.198 150.474 855.259 158.251L635.057 1041.43C633.118 1049.21 626.392 1054.85 618.397 1055.41L-289.605 1118.91C-297.6 1119.46 -305.046 1114.81 -308.048 1107.38L-649.022 263.44C-652.025 256.009 -649.901 247.49 -643.761 242.338L53.5071 -342.739C59.6467 -347.891 68.4053 -348.503 75.2022 -344.256Z" stroke="white" stroke-width="3"/>
<path opacity="0.969697" d="M78.4936 -339.627L840.132 154.987C846.854 159.352 850.001 167.548 847.926 175.29L612.88 1052.5C610.805 1060.24 603.982 1065.76 595.978 1066.18L-310.927 1113.71C-318.931 1114.13 -326.294 1109.35 -329.167 1101.87L-654.619 254.035C-657.491 246.553 -655.218 238.072 -648.99 233.028L56.7754 -338.489C63.004 -343.533 71.772 -343.993 78.4936 -339.627Z" stroke="white" stroke-width="3"/>
<path opacity="0.979798" d="M81.7337 -334.764L832.909 171.91C839.554 176.392 842.556 184.642 840.347 192.347L590.597 1063.33C588.388 1071.03 581.47 1076.44 573.46 1076.72L-332.069 1108.34C-340.079 1108.62 -347.358 1103.71 -350.099 1096.18L-659.997 244.74C-662.739 237.209 -660.318 228.769 -654.003 223.834L59.9989 -334.005C66.3145 -338.939 75.0892 -339.246 81.7337 -334.764Z" stroke="white" stroke-width="3"/>
<path opacity="0.989899" d="M84.9201 -329.651L825.444 188.869C832.009 193.466 834.867 201.768 832.524 209.433L568.216 1073.94C565.873 1081.61 558.861 1086.89 550.848 1087.03L-353.027 1102.81C-361.04 1102.95 -368.232 1097.91 -370.842 1090.33L-665.159 235.575C-667.769 227.997 -665.202 219.6 -658.801 214.777L63.1754 -329.271C69.5762 -334.094 78.3549 -334.248 84.9201 -329.651Z" stroke="white" stroke-width="3"/>
<path d="M88.0454 -324.301L817.733 205.848C824.217 210.559 826.93 218.909 824.453 226.532L545.738 1084.33C543.261 1091.95 536.158 1097.11 528.143 1097.11L-373.8 1097.11C-381.815 1097.11 -388.918 1091.95 -391.395 1084.33L-670.111 226.532C-672.587 218.909 -669.874 210.559 -663.39 205.848L66.2974 -324.301C72.7814 -329.012 81.5614 -329.012 88.0454 -324.301Z" stroke="white" stroke-width="3"/>
</g>
</g>
<defs>
<filter id="filter0_f_8_2" x="226" y="-178" width="1720" height="1288" filterUnits="userSpaceOnUse" color-interpolation-filters="sRGB">
<feFlood flood-opacity="0" result="BackgroundImageFix"/>
<feBlend mode="normal" in="SourceGraphic" in2="BackgroundImageFix" result="shape"/>
<feGaussianBlur stdDeviation="100" result="effect1_foregroundBlur_8_2"/>
</filter>
<filter id="filter1_f_8_2" x="226" y="-178" width="1720" height="1288" filterUnits="userSpaceOnUse" color-interpolation-filters="sRGB">
<feFlood flood-opacity="0" result="BackgroundImageFix"/>
<feBlend mode="normal" in="SourceGraphic" in2="BackgroundImageFix" result="shape"/>
<feGaussianBlur stdDeviation="100" result="effect1_foregroundBlur_8_2"/>
</filter>
<radialGradient id="paint0_angular_8_2" cx="0" cy="0" r="1" gradientUnits="userSpaceOnUse" gradientTransform="translate(1139 695.998) rotate(46.7455) scale(130.439 130.544)">
<stop offset="0.00807593" stop-color="#FEF1E7"/>
<stop offset="0.250667" stop-color="#F7CA55" stop-opacity="0"/>
<stop offset="0.736757" stop-color="#F79C55"/>
</radialGradient>
<radialGradient id="paint1_angular_8_2" cx="0" cy="0" r="1" gradientUnits="userSpaceOnUse" gradientTransform="translate(1139 695.998) rotate(46.7455) scale(130.439 130.544)">
<stop offset="0.00807593" stop-color="#FEF1E7"/>
<stop offset="0.250667" stop-color="#F7CA55" stop-opacity="0"/>
<stop offset="0.736757" stop-color="#F79C55"/>
</radialGradient>
<clipPath id="clip0_8_2">
<rect width="1440" height="1190" fill="white"/>
</clipPath>
</defs>
</svg>
