<svg width="1440" height="750" viewBox="0 0 1440 750" fill="none" xmlns="http://www.w3.org/2000/svg">
<mask id="mask0_623_335" style="mask-type:alpha" maskUnits="userSpaceOnUse" x="0" y="0" width="1440" height="750">
<rect width="1440" height="750" fill="white"/>
</mask>
<g mask="url(#mask0_623_335)">
<g filter="url(#filter0_f_623_335)">
<path d="M1057.44 705L426 910L663.978 582L795.398 275L1452.94 22L1746 763L1057.44 705Z" fill="url(#paint0_angular_623_335)" fill-opacity="0.4"/>
</g>
<g opacity="0.05">
<path opacity="0.010101" d="M165.098 235.057L683.721 -740.331C687.484 -747.408 695.375 -751.257 703.268 -749.865L1791.18 -558.036C1799.07 -556.645 1805.17 -550.329 1806.29 -542.392L1960.03 551.553C1961.15 559.489 1957.03 567.241 1949.82 570.755L956.929 1055.02C949.725 1058.54 941.078 1057.01 935.511 1051.25L168.125 256.594C162.557 250.828 161.335 242.134 165.098 235.057Z" stroke="white" stroke-width="3"/>
<path opacity="0.020202" d="M154.298 221.817L688.862 -742.562C692.748 -749.572 700.705 -753.283 708.573 -751.754L1790.94 -541.362C1798.81 -539.833 1804.8 -533.412 1805.77 -525.457L1940.15 568.951C1941.13 576.906 1936.87 584.585 1929.61 587.972L930.287 1053.96C923.023 1057.35 914.404 1055.67 908.938 1049.81L156.949 243.403C151.483 237.541 150.413 228.826 154.298 221.817Z" stroke="white" stroke-width="3"/>
<path opacity="0.030303" d="M143.797 208.609L694.076 -744.502C698.083 -751.443 706.104 -755.015 713.943 -753.348L1790.45 -524.529C1798.29 -522.863 1804.17 -516.338 1805 -508.367L1920.04 586.161C1920.88 594.132 1916.49 601.736 1909.17 604.996L903.76 1052.63C896.438 1055.89 887.85 1054.07 882.487 1048.11L146.07 230.237C140.707 224.281 139.789 215.549 143.797 208.609Z" stroke="white" stroke-width="3"/>
<path opacity="0.040404" d="M133.586 195.433L699.35 -746.156C703.478 -753.025 711.56 -756.456 719.369 -754.653L1789.7 -507.547C1797.51 -505.744 1803.27 -499.118 1803.97 -491.134L1899.71 603.175C1900.41 611.159 1895.89 618.685 1888.51 621.817L877.346 1051.03C869.968 1054.16 861.413 1052.19 856.155 1046.14L135.482 217.098C130.224 211.05 129.458 202.303 133.586 195.433Z" stroke="white" stroke-width="3"/>
<path opacity="0.050505" d="M123.673 182.299L704.687 -747.518C708.934 -754.315 717.075 -757.604 724.852 -755.665L1788.7 -490.417C1796.48 -488.478 1802.12 -481.752 1802.68 -473.757L1879.17 619.992C1879.72 627.987 1875.07 635.433 1867.64 638.435L851.058 1049.16C843.627 1052.16 835.107 1050.04 829.956 1043.9L125.19 203.994C120.039 197.854 119.426 189.096 123.673 182.299Z" stroke="white" stroke-width="3"/>
<path opacity="0.0606061" d="M114.049 169.205L710.075 -748.595C714.44 -755.316 722.637 -758.463 730.379 -756.388L1787.44 -473.15C1795.18 -471.075 1800.71 -464.252 1801.13 -456.248L1858.4 636.603C1858.82 644.607 1854.04 651.97 1846.56 654.842L824.891 1047.02C817.409 1049.9 808.928 1047.62 803.884 1041.39L115.187 190.924C110.143 184.695 109.684 175.927 114.049 169.205Z" stroke="white" stroke-width="3"/>
<path opacity="0.0707071" d="M104.72 156.16L715.516 -749.383C719.998 -756.027 728.249 -759.03 735.953 -756.821L1785.92 -455.747C1793.63 -453.538 1799.03 -446.619 1799.31 -438.61L1837.43 653.007C1837.71 661.017 1832.8 668.296 1825.27 671.037L798.861 1044.62C791.329 1047.36 782.889 1044.94 777.955 1038.63L105.479 177.895C100.545 171.579 100.238 162.805 104.72 156.16Z" stroke="white" stroke-width="3"/>
<path opacity="0.0808081" d="M95.6781 143.177L720.999 -749.874C725.596 -756.439 733.897 -759.298 741.562 -756.954L1784.14 -438.207C1791.8 -435.864 1797.09 -428.852 1797.23 -420.838L1816.25 669.209C1816.39 677.223 1811.36 684.415 1803.78 687.024L772.962 1041.96C765.384 1044.57 756.988 1042.01 752.164 1035.6L96.0577 164.921C91.2343 158.521 91.081 149.742 95.6781 143.177Z" stroke="white" stroke-width="3"/>
<path opacity="0.0909091" d="M86.9264 130.246L726.522 -750.082C731.233 -756.566 739.583 -759.279 747.205 -756.802L1782.09 -420.547C1789.71 -418.07 1794.88 -410.967 1794.88 -402.953L1794.88 685.192C1794.88 693.207 1789.71 700.31 1782.09 702.786L747.205 1039.04C739.583 1041.52 731.233 1038.81 726.522 1032.32L86.9264 151.994C82.2155 145.51 82.2155 136.73 86.9264 130.246Z" stroke="white" stroke-width="3"/>
<path opacity="0.10101" d="M78.458 117.381L732.074 -749.997C736.898 -756.398 745.294 -758.965 752.872 -756.356L1779.78 -402.765C1787.35 -400.155 1792.39 -392.963 1792.25 -384.95L1773.3 700.96C1773.16 708.974 1767.87 715.986 1760.21 718.329L721.589 1035.87C713.924 1038.21 705.623 1035.35 701.026 1028.79L78.0785 139.125C73.4814 132.56 73.6347 123.781 78.458 117.381Z" stroke="white" stroke-width="3"/>
<path opacity="0.111111" d="M70.2775 104.591L737.658 -749.618C742.593 -755.934 751.033 -758.354 758.564 -755.613L1777.2 -384.861C1784.73 -382.12 1789.64 -374.841 1789.36 -366.831L1751.53 716.515C1751.25 724.525 1745.84 731.444 1738.14 733.653L696.124 1032.45C688.42 1034.65 680.169 1031.65 675.687 1025.01L69.5186 126.325C65.0368 119.681 65.3432 110.906 70.2775 104.591Z" stroke="white" stroke-width="3"/>
<path opacity="0.121212" d="M62.377 91.8665L743.262 -748.957C748.306 -755.185 756.787 -757.458 764.269 -754.586L1774.34 -366.854C1781.83 -363.982 1786.61 -356.618 1786.19 -348.614L1729.57 731.84C1729.15 739.844 1723.62 746.667 1715.88 748.742L670.808 1028.77C663.066 1030.84 654.869 1027.7 650.504 1020.97L61.2388 113.585C56.8737 106.863 57.3332 98.095 62.377 91.8665Z" stroke="white" stroke-width="3"/>
<path opacity="0.131313" d="M54.7602 79.2299L748.886 -747.998C754.038 -754.137 762.557 -756.261 769.989 -753.259L1771.23 -348.733C1778.66 -345.731 1783.31 -338.285 1782.75 -330.29L1707.42 746.949C1706.86 754.944 1701.22 761.67 1693.44 763.609L645.651 1024.85C637.874 1026.79 629.734 1023.5 625.486 1016.71L53.2432 100.925C48.9961 94.1282 49.6085 85.3695 54.7602 79.2299Z" stroke="white" stroke-width="3"/>
<path opacity="0.141414" d="M47.4212 66.6739L754.522 -746.752C759.78 -752.801 768.335 -754.776 775.712 -751.644L1767.83 -330.514C1775.21 -327.383 1779.73 -319.857 1779.03 -311.872L1685.1 761.826C1684.4 769.81 1678.64 776.437 1670.83 778.239L620.653 1020.69C612.844 1022.49 604.762 1019.06 600.634 1012.19L45.5258 88.3392C41.3979 81.4693 42.1631 72.7227 47.4212 66.6739Z" stroke="white" stroke-width="3"/>
<path opacity="0.151515" d="M40.359 54.2092L760.163 -745.215C765.526 -751.171 774.114 -752.996 781.436 -749.736L1764.17 -312.197C1771.49 -308.937 1775.88 -301.334 1775.04 -293.363L1662.59 776.475C1661.76 784.446 1655.88 790.971 1648.04 792.637L595.819 1016.29C587.979 1017.96 579.958 1014.39 575.951 1007.45L38.0857 75.8382C34.0784 68.8972 34.9961 60.1653 40.359 54.2092Z" stroke="white" stroke-width="3"/>
<path opacity="0.161616" d="M33.5725 41.8371L765.808 -743.389C771.274 -749.251 779.893 -750.926 787.157 -747.539L1760.22 -293.79C1767.49 -290.403 1771.75 -282.724 1770.77 -274.769L1639.92 790.89C1638.95 798.845 1632.96 805.266 1625.09 806.796L571.154 1011.66C563.287 1013.19 555.329 1009.48 551.444 1002.47L30.9221 63.4231C27.0365 56.4133 28.1065 47.6987 33.5725 41.8371Z" stroke="white" stroke-width="3"/>
<path opacity="0.171717" d="M27.0581 29.5663L771.449 -741.273C777.017 -747.039 785.663 -748.563 792.867 -745.05L1756.01 -275.294C1763.21 -271.781 1767.33 -264.029 1766.22 -256.092L1617.08 805.073C1615.97 813.009 1609.87 819.325 1601.97 820.717L546.661 1006.8C538.768 1008.19 530.876 1004.34 527.114 997.263L24.0313 51.1027C20.2686 44.0262 21.4906 35.3316 27.0581 29.5663Z" stroke="white" stroke-width="3"/>
<path opacity="0.181818" d="M20.8156 17.3947L777.083 -738.873C782.751 -744.54 791.423 -745.914 798.564 -742.275L1751.52 -256.722C1758.66 -253.083 1762.64 -245.26 1761.39 -237.344L1594.08 819.013C1592.83 826.929 1586.62 833.137 1578.7 834.391L522.345 1001.7C514.429 1002.96 506.606 998.969 502.967 991.828L17.4135 38.8751C13.7749 31.7339 15.1484 23.0619 20.8156 17.3947Z" stroke="white" stroke-width="3"/>
<path opacity="0.191919" d="M14.8395 5.33445L782.703 -736.182C788.468 -741.75 797.162 -742.972 804.239 -739.209L1746.75 -238.069C1753.82 -234.306 1757.67 -226.415 1756.28 -218.522L1570.92 832.716C1569.53 840.609 1563.21 846.708 1555.27 847.824L498.207 996.385C490.27 997.5 482.518 993.378 479.005 986.175L11.063 26.7522C7.54963 19.5486 9.07423 10.9019 14.8395 5.33445Z" stroke="white" stroke-width="3"/>
<path opacity="0.20202" d="M9.13094 -6.61687L788.305 -733.209C794.167 -738.675 802.881 -739.745 809.891 -735.859L1741.7 -219.35C1748.71 -215.464 1752.42 -207.507 1750.89 -199.639L1547.6 846.173C1546.08 854.041 1539.65 860.029 1531.7 861.005L474.254 990.843C466.299 991.82 458.62 987.563 455.233 980.3L4.98122 14.7316C1.59406 7.46784 3.26937 -1.15087 9.13094 -6.61687Z" stroke="white" stroke-width="3"/>
<path opacity="0.212121" d="M3.68526 -18.4472L793.884 -729.946C799.84 -735.309 808.572 -736.226 815.513 -732.219L1736.37 -200.56C1743.31 -196.553 1746.89 -188.532 1745.22 -180.692L1524.14 859.389C1522.48 867.229 1515.95 873.104 1507.98 873.942L450.488 985.089C442.517 985.926 434.914 981.536 431.654 974.215L-0.836406 2.8256C-4.09628 -4.49617 -2.27081 -13.0843 3.68526 -18.4472Z" stroke="white" stroke-width="3"/>
<path opacity="0.222222" d="M-1.50209 -30.159L799.432 -726.401C805.481 -731.659 814.228 -732.424 821.098 -728.296L1730.77 -181.713C1737.64 -177.585 1741.07 -169.503 1739.26 -161.693L1500.53 872.355C1498.73 880.165 1492.1 885.925 1484.12 886.623L426.91 979.117C418.926 979.816 411.4 975.294 408.269 967.916L-6.39432 -8.96828C-9.5259 -16.3459 -7.55084 -24.9009 -1.50209 -30.159Z" stroke="white" stroke-width="3"/>
<path opacity="0.232323" d="M-6.43174 -41.7422L804.947 -722.57C811.087 -727.721 819.845 -728.334 826.642 -724.087L1724.88 -162.807C1731.67 -158.56 1734.96 -150.419 1733.02 -142.643L1476.79 885.075C1474.85 892.851 1468.12 898.495 1460.13 899.054L403.526 972.939C395.531 973.498 388.085 968.845 385.083 961.414L-11.6931 -20.6401C-14.6954 -28.0713 -12.5713 -36.5905 -6.43174 -41.7422Z" stroke="white" stroke-width="3"/>
<path opacity="0.242424" d="M-11.1032 -53.1962L810.426 -718.458C816.655 -723.501 825.423 -723.961 832.144 -719.596L1718.71 -143.852C1725.43 -139.487 1728.58 -131.29 1726.51 -123.548L1452.91 897.542C1450.83 905.284 1444.01 910.809 1436 911.229L380.342 966.554C372.338 966.973 364.975 962.191 362.103 954.709L-16.732 -32.1892C-19.6042 -39.6715 -17.3318 -48.1524 -11.1032 -53.1962Z" stroke="white" stroke-width="3"/>
<path opacity="0.252525" d="M-15.5239 -64.5163L815.86 -714.065C822.176 -718.999 830.951 -719.306 837.595 -714.824L1712.26 -124.852C1718.91 -120.37 1721.91 -112.12 1719.7 -104.415L1428.89 909.756C1426.68 917.46 1419.77 922.866 1411.76 923.145L357.357 959.966C349.347 960.245 342.068 955.336 339.327 947.804L-21.5185 -43.6107C-24.2596 -51.142 -21.8396 -59.582 -15.5239 -64.5163Z" stroke="white" stroke-width="3"/>
<path opacity="0.262626" d="M-19.6961 -75.7L821.245 -709.395C827.646 -714.218 836.425 -714.371 842.99 -709.774L1705.54 -105.814C1712.1 -101.217 1714.96 -92.9153 1712.62 -85.2507L1404.76 921.712C1402.41 929.377 1395.4 934.661 1387.39 934.801L334.575 953.178C326.561 953.317 319.369 948.281 316.76 940.703L-26.0546 -54.9021C-28.664 -62.4802 -26.0969 -70.8766 -19.6961 -75.7Z" stroke="white" stroke-width="3"/>
<path opacity="0.272727" d="M-23.6203 -86.7355L826.579 -704.441C833.063 -709.152 841.843 -709.152 848.327 -704.441L1698.53 -86.7356C1705.01 -82.0246 1707.72 -73.6744 1705.25 -66.0519L1380.5 933.417C1378.02 941.04 1370.92 946.201 1362.91 946.201L312.001 946.201C303.986 946.201 296.883 941.04 294.406 933.417L-30.3408 -66.0518C-32.8175 -73.6742 -30.1044 -82.0246 -23.6203 -86.7355Z" stroke="white" stroke-width="3"/>
<path opacity="0.282828" d="M-27.3027 -97.6278L831.853 -699.215C838.418 -703.812 847.197 -703.659 853.598 -698.835L1691.23 -67.6306C1697.64 -62.8073 1700.2 -54.4109 1697.59 -46.8328L1356.13 944.86C1353.52 952.438 1346.32 957.474 1338.31 957.335L289.635 939.03C281.622 938.89 274.61 933.606 272.267 925.942L-34.3831 -77.0646C-36.7264 -84.7291 -33.8679 -93.0308 -27.3027 -97.6278Z" stroke="white" stroke-width="3"/>
<path opacity="0.292929" d="M-30.7444 -108.364L837.064 -693.708C843.709 -698.19 852.483 -697.883 858.799 -692.949L1683.66 -48.4951C1689.98 -43.5608 1692.4 -35.1209 1689.66 -27.5895L1331.64 956.049C1328.9 963.58 1321.62 968.49 1313.61 968.21L267.483 931.679C259.473 931.399 252.554 925.993 250.345 918.289L-38.1826 -87.927C-40.3918 -95.6313 -37.3888 -103.882 -30.7444 -108.364Z" stroke="white" stroke-width="3"/>
<path opacity="0.30303" d="M-33.9494 -118.952L842.208 -687.935C848.929 -692.3 857.697 -691.84 863.926 -686.796L1675.81 -29.3471C1682.04 -24.3033 1684.31 -15.8224 1681.44 -8.33999L1307.05 966.969C1304.18 974.451 1296.82 979.233 1288.81 978.814L245.546 924.139C237.542 923.719 230.719 918.194 228.644 910.452L-41.7432 -98.648C-43.8176 -106.39 -40.6711 -114.587 -33.9494 -118.952Z" stroke="white" stroke-width="3"/>
<path opacity="0.313131" d="M-36.9202 -129.371L847.279 -681.88C854.076 -686.127 862.834 -685.515 868.974 -680.363L1667.67 -10.1746C1673.81 -5.02284 1675.94 3.49634 1672.94 10.9275L1282.36 977.636C1279.36 985.067 1271.91 989.72 1263.92 989.16L223.828 916.431C215.832 915.871 209.107 910.228 207.168 902.451L-45.0671 -109.207C-47.0061 -116.983 -43.717 -125.124 -36.9202 -129.371Z" stroke="white" stroke-width="3"/>
<path opacity="0.323232" d="M-39.6613 -139.639L852.272 -675.566C859.142 -679.694 867.889 -678.929 873.938 -673.671L1659.26 8.99734C1665.31 14.2555 1667.28 22.8104 1664.15 30.1881L1257.57 988.028C1254.44 995.406 1246.91 999.928 1238.93 999.229L202.33 908.539C194.345 907.84 187.719 902.08 185.916 894.271L-48.1589 -119.619C-49.9618 -127.429 -46.5312 -135.511 -39.6613 -139.639Z" stroke="white" stroke-width="3"/>
<path opacity="0.333333" d="M-42.1747 -149.733L857.184 -668.979C864.125 -672.986 872.857 -672.068 878.813 -666.705L1650.56 28.1802C1656.52 33.5431 1658.34 42.1312 1655.08 49.4531L1232.69 998.161C1229.43 1005.48 1221.83 1009.87 1213.86 1009.04L181.056 900.484C173.085 899.646 166.56 893.771 164.894 885.931L-51.0204 -129.866C-52.6868 -137.705 -49.1156 -145.726 -42.1747 -149.733Z" stroke="white" stroke-width="3"/>
<path opacity="0.343434" d="M-44.4633 -159.658L862.012 -662.125C869.021 -666.011 877.736 -664.941 883.598 -659.475L1641.59 47.3634C1647.45 52.8294 1649.13 61.4481 1645.74 68.7119L1207.73 1008.03C1204.34 1015.29 1196.66 1019.55 1188.71 1018.57L160.01 892.265C152.055 891.288 145.634 885.3 144.104 877.433L-53.6544 -139.947C-55.1837 -147.815 -51.4731 -155.772 -44.4633 -159.658Z" stroke="white" stroke-width="3"/>
<path opacity="0.353535" d="M-46.533 -169.408L866.746 -655.008C873.823 -658.77 882.518 -657.549 888.283 -651.981L1632.33 66.5408C1638.1 72.1082 1639.62 80.7548 1636.11 87.9585L1182.68 1017.63C1179.17 1024.83 1171.41 1028.95 1163.48 1027.84L139.191 883.885C131.254 882.769 124.939 876.67 123.547 868.777L-56.0667 -149.861C-57.4584 -157.754 -53.6095 -165.646 -46.533 -169.408Z" stroke="white" stroke-width="3"/>
<path opacity="0.363636" d="M-48.3873 -178.983L871.384 -647.63C878.526 -651.269 887.197 -649.895 892.865 -644.228L1622.8 85.7071C1628.47 91.3743 1629.84 100.046 1626.2 107.187L1157.55 1026.96C1153.92 1034.1 1146.09 1038.09 1138.18 1036.83L118.602 875.348C110.686 874.094 104.478 867.886 103.224 859.97L-58.2607 -159.605C-59.5144 -167.521 -55.5284 -175.344 -48.3873 -178.983Z" stroke="white" stroke-width="3"/>
<path opacity="0.373737" d="M-50.0267 -188.371L875.924 -639.988C883.128 -643.502 891.775 -641.977 897.342 -636.212L1612.99 104.863C1618.56 110.628 1619.78 119.323 1616.02 126.4L1132.36 1036.03C1128.6 1043.1 1120.71 1046.95 1112.81 1045.56L98.2489 866.664C90.356 865.273 84.2569 858.957 83.1414 851.02L-60.2368 -169.169C-61.3523 -177.106 -57.2303 -184.858 -50.0267 -188.371Z" stroke="white" stroke-width="3"/>
<path opacity="0.383838" d="M-51.4571 -197.58L880.36 -632.093C887.624 -635.48 896.242 -633.805 901.708 -627.944L1602.9 123.995C1608.37 129.856 1609.44 138.571 1605.55 145.581L1107.1 1044.82C1103.21 1051.83 1095.25 1055.54 1087.39 1054.01L78.1311 857.83C70.2636 856.3 64.2756 849.879 63.2988 841.924L-62.0007 -178.559C-62.9775 -186.514 -58.7208 -194.193 -51.4571 -197.58Z" stroke="white" stroke-width="3"/>
<path opacity="0.393939" d="M-52.6826 -206.601L884.686 -623.944C892.008 -627.204 900.596 -625.378 905.959 -619.422L1592.54 143.102C1597.9 149.058 1598.82 157.79 1594.81 164.731L1081.77 1053.34C1077.77 1060.28 1069.74 1063.85 1061.91 1062.19L58.25 848.852C50.4105 847.186 44.5354 840.661 43.6977 832.69L-63.5566 -187.766C-64.3943 -195.737 -60.0043 -203.341 -52.6826 -206.601Z" stroke="white" stroke-width="3"/>
<path opacity="0.40404" d="M-53.7048 -215.432L888.9 -615.544C896.277 -618.676 904.832 -616.701 910.091 -610.652L1581.9 162.177C1587.16 168.225 1587.92 176.972 1583.8 183.842L1056.39 1061.59C1052.26 1068.46 1044.18 1071.89 1036.37 1070.09L38.6104 839.734C30.8011 837.932 25.0409 831.305 24.3423 823.321L-64.9059 -196.791C-65.6044 -204.775 -61.0824 -212.301 -53.7048 -215.432Z" stroke="white" stroke-width="3"/>
<path opacity="0.414141" d="M-54.5299 -224.066L892.996 -606.892C900.427 -609.894 908.946 -607.77 914.098 -601.63L1570.99 181.221C1576.14 187.36 1576.75 196.119 1572.51 202.916L1030.96 1069.57C1026.71 1076.37 1018.57 1079.66 1010.8 1077.72L19.2117 830.487C11.4351 828.548 5.79132 821.823 5.23222 813.827L-66.0546 -205.623C-66.6137 -213.618 -61.961 -221.064 -54.5299 -224.066Z" stroke="white" stroke-width="3"/>
<path opacity="0.424242" d="M-55.1612 -232.498L896.97 -597.987C904.452 -600.86 912.933 -598.587 917.977 -592.359L1559.8 200.23C1564.85 206.458 1565.31 215.226 1560.94 221.948L1005.48 1077.28C1001.11 1084.01 992.917 1087.15 985.176 1085.08L0.056378 821.115C-7.68518 819.041 -13.2107 812.218 -13.6301 804.214L-67.006 -214.259C-67.4255 -222.263 -62.6435 -229.626 -55.1612 -232.498Z" stroke="white" stroke-width="3"/>
<path opacity="0.434343" d="M-55.6009 -240.737L900.82 -588.846C908.351 -591.587 916.791 -589.167 921.726 -582.851L1548.35 219.188C1553.28 225.503 1553.59 234.278 1549.11 240.923L979.958 1084.72C975.477 1091.36 967.226 1094.37 959.522 1092.16L-18.852 811.613C-26.5562 809.404 -31.9618 802.485 -32.2415 794.475L-67.7622 -222.707C-68.0419 -230.717 -63.1322 -237.996 -55.6009 -240.737Z" stroke="white" stroke-width="3"/>
<path opacity="0.444444" d="M-55.8559 -248.765L904.538 -579.455C912.116 -582.065 920.513 -579.498 925.336 -573.097L1536.62 238.103C1541.44 244.504 1541.6 253.283 1537 259.848L954.399 1091.89C949.802 1098.45 941.5 1101.31 933.835 1098.97L-37.5147 801.997C-45.1792 799.653 -50.4632 792.641 -50.6031 784.628L-68.3301 -230.95C-68.4699 -238.964 -63.4339 -246.156 -55.8559 -248.765Z" stroke="white" stroke-width="3"/>
<path opacity="0.454545" d="M-55.9293 -256.59L908.122 -569.829C915.745 -572.306 924.095 -569.592 928.806 -563.108L1524.62 256.963C1529.33 263.447 1529.33 272.227 1524.62 278.711L928.806 1098.78C924.095 1105.27 915.745 1107.98 908.122 1105.5L-55.9292 792.263C-63.5516 789.787 -68.7124 782.683 -68.7124 774.669L-68.7124 -238.995C-68.7125 -247.01 -63.5517 -254.113 -55.9293 -256.59Z" stroke="white" stroke-width="3"/>
<path opacity="0.464646" d="M-55.8237 -264.207L911.57 -559.969C919.234 -562.312 927.536 -559.454 932.133 -552.888L1512.36 275.762C1516.96 282.327 1516.8 291.106 1511.98 297.507L903.187 1105.4C898.364 1111.8 889.967 1114.37 882.389 1111.76L-74.0925 782.418C-81.6706 779.808 -86.7066 772.616 -86.5668 764.603L-68.912 -246.838C-68.7721 -254.852 -63.4881 -261.864 -55.8237 -264.207Z" stroke="white" stroke-width="3"/>
<path opacity="0.474747" d="M-55.5434 -271.612L914.875 -549.875C922.58 -552.084 930.83 -549.081 935.312 -542.437L1499.83 294.498C1504.31 301.143 1504.01 309.917 1499.07 316.233L877.547 1111.75C872.612 1118.07 864.172 1120.49 856.641 1117.75L-92.0034 772.467C-99.5347 769.726 -104.444 762.447 -104.165 754.437L-68.9328 -254.474C-68.6531 -262.484 -63.2476 -269.403 -55.5434 -271.612Z" stroke="white" stroke-width="3"/>
<path opacity="0.484848" d="M-55.0927 -278.802L918.036 -539.551C925.778 -541.625 933.975 -538.479 938.34 -531.757L1487.04 313.168C1491.41 319.889 1490.95 328.657 1485.9 334.886L851.889 1117.83C846.845 1124.06 838.364 1126.33 830.882 1123.46L-109.661 762.416C-117.143 759.544 -121.925 752.18 -121.506 744.176L-68.7792 -261.9C-68.3598 -269.904 -62.8343 -276.727 -55.0927 -278.802Z" stroke="white" stroke-width="3"/>
<path opacity="0.494949" d="M-54.4776 -285.773L921.047 -528.999C928.823 -530.938 936.964 -527.648 941.211 -520.852L1473.99 331.766C1478.23 338.563 1477.62 347.322 1472.47 353.461L826.217 1123.63C821.066 1129.77 812.546 1131.9 805.115 1128.89L-127.065 752.27C-134.496 749.267 -139.148 741.821 -138.589 733.826L-68.457 -269.113C-67.8979 -277.108 -62.2542 -283.834 -54.4776 -285.773Z" stroke="white" stroke-width="3"/>
<path opacity="0.50505" d="M-53.7015 -292.523L923.903 -518.221C931.712 -520.024 939.794 -516.593 943.922 -509.723L1460.67 350.289C1464.8 357.159 1464.03 365.906 1458.77 371.955L800.538 1129.17C795.279 1135.22 786.725 1137.19 779.347 1134.06L-144.214 742.034C-151.591 738.902 -156.113 731.376 -155.415 723.392L-67.9695 -276.11C-67.271 -284.094 -61.5108 -290.72 -53.7015 -292.523Z" stroke="white" stroke-width="3"/>
<path opacity="0.515152" d="M-52.7698 -299.052L926.601 -507.224C934.441 -508.89 942.461 -505.319 946.469 -498.378L1447.09 368.73C1451.1 375.671 1450.18 384.403 1444.82 390.359L774.853 1134.43C769.491 1140.39 760.902 1142.21 753.581 1138.96L-161.107 731.71C-168.429 728.45 -172.819 720.846 -171.981 712.875L-67.3221 -282.89C-66.4843 -290.861 -60.6094 -297.386 -52.7698 -299.052Z" stroke="white" stroke-width="3"/>
<path opacity="0.525253" d="M-51.6831 -305.356L929.141 -496.009C937.008 -497.538 944.966 -493.827 948.851 -486.818L1433.26 387.086C1437.15 394.096 1436.08 402.811 1430.61 408.672L749.173 1139.43C743.707 1145.29 735.089 1146.96 727.825 1143.58L-177.741 721.305C-185.005 717.918 -189.262 710.238 -188.285 702.283L-66.5152 -289.45C-65.5385 -297.405 -59.5505 -303.827 -51.6831 -305.356Z" stroke="white" stroke-width="3"/>
<path opacity="0.535354" d="M-50.4475 -311.433L931.517 -484.58C939.41 -485.971 947.301 -482.122 951.064 -475.046L1419.18 405.352C1422.94 412.429 1421.72 421.123 1416.15 426.889L723.5 1144.15C717.933 1149.92 709.286 1151.44 702.083 1147.93L-194.116 710.823C-201.32 707.309 -205.442 699.557 -204.326 691.62L-65.5549 -295.789C-64.4395 -303.725 -58.3404 -310.041 -50.4475 -311.433Z" stroke="white" stroke-width="3"/>
<path opacity="0.545455" d="M-49.0672 -317.279L933.726 -472.938C941.642 -474.192 949.465 -470.206 953.104 -463.065L1404.84 423.526C1408.48 430.667 1407.11 439.339 1401.44 445.006L697.84 1148.61C692.173 1154.28 683.501 1155.65 676.36 1152.01L-210.231 700.27C-217.372 696.632 -221.358 688.809 -220.105 680.893L-64.4453 -301.901C-63.1916 -309.817 -56.9832 -316.025 -49.0672 -317.279Z" stroke="white" stroke-width="3"/>
<path opacity="0.555556" d="M-47.5495 -322.898L935.762 -461.093C943.699 -462.209 951.451 -458.087 954.964 -450.883L1390.26 441.597C1393.77 448.801 1392.24 457.447 1386.48 463.015L672.193 1152.79C666.428 1158.36 657.733 1159.58 650.657 1155.82L-226.088 689.646C-233.165 685.884 -237.014 677.992 -235.622 670.099L-63.1937 -307.79C-61.802 -315.683 -55.4862 -321.782 -47.5495 -322.898Z" stroke="white" stroke-width="3"/>
<path opacity="0.565657" d="M-45.8935 -328.278L937.626 -449.039C945.581 -450.016 953.26 -445.759 956.648 -438.495L1375.42 459.571C1378.81 466.834 1377.13 475.453 1371.27 480.919L646.57 1156.72C640.709 1162.18 631.994 1163.25 624.984 1159.37L-241.682 678.965C-248.691 675.079 -252.402 667.122 -250.873 659.255L-61.799 -313.446C-60.2697 -321.313 -53.8484 -327.301 -45.8935 -328.278Z" stroke="white" stroke-width="3"/>
<path opacity="0.575758" d="M-44.1099 -333.429L939.31 -436.791C947.281 -437.628 954.885 -433.238 958.144 -425.917L1360.34 477.431C1363.6 484.753 1361.78 493.341 1355.82 498.704L620.97 1160.36C615.014 1165.73 606.282 1166.65 599.341 1162.64L-257.017 668.22C-263.958 664.212 -267.529 656.191 -265.863 648.352L-60.2719 -318.877C-58.6055 -326.716 -52.0807 -332.591 -44.1099 -333.429Z" stroke="white" stroke-width="3"/>
<path opacity="0.585859" d="M-42.1957 -338.338L940.818 -424.34C948.802 -425.039 956.328 -420.517 959.459 -413.139L1345.02 495.186C1348.15 502.563 1346.18 511.118 1340.13 516.376L595.405 1163.75C589.356 1169.01 580.609 1169.78 573.739 1165.65L-272.086 657.427C-278.956 653.299 -282.387 645.217 -280.584 637.407L-58.6092 -324.07C-56.8063 -331.879 -50.1799 -337.639 -42.1957 -338.338Z" stroke="white" stroke-width="3"/>
<path opacity="0.59596" d="M-40.1618 -343.009L942.139 -411.698C950.134 -412.257 957.58 -407.604 960.582 -400.173L1329.46 512.824C1332.46 520.255 1330.34 528.774 1324.2 533.926L569.872 1166.88C563.733 1172.03 554.974 1172.64 548.177 1168.4L-286.895 646.584C-293.692 642.337 -296.981 634.197 -295.042 626.42L-56.8217 -329.029C-54.8828 -336.806 -48.1569 -342.45 -40.1618 -343.009Z" stroke="white" stroke-width="3"/>
<path opacity="0.606061" d="M-38.0116 -347.441L943.272 -398.868C951.276 -399.287 958.639 -394.505 961.511 -387.023L1313.65 530.342C1316.53 537.824 1314.25 546.305 1308.03 551.349L544.379 1169.74C538.15 1174.78 529.382 1175.24 522.66 1170.88L-301.443 635.697C-308.164 631.332 -311.311 623.135 -309.236 615.394L-54.9129 -333.754C-52.8386 -341.496 -46.0153 -347.021 -38.0116 -347.441Z" stroke="white" stroke-width="3"/>
<path opacity="0.616162" d="M-35.7487 -351.631L944.216 -385.852C952.225 -386.132 959.504 -381.222 962.245 -373.691L1297.62 547.735C1300.36 555.267 1297.94 563.707 1291.62 568.641L518.93 1172.34C512.614 1177.27 503.839 1177.58 497.195 1173.09L-315.728 624.771C-322.372 620.289 -325.375 612.039 -323.166 604.334L-52.8864 -338.242C-50.6773 -345.946 -43.7585 -351.352 -35.7487 -351.631Z" stroke="white" stroke-width="3"/>
<path opacity="0.626263" d="M-33.3771 -355.574L944.966 -372.651C952.98 -372.791 960.172 -367.755 962.781 -360.177L1281.35 565.006C1283.96 572.584 1281.39 580.98 1274.99 585.804L493.53 1174.68C487.129 1179.5 478.351 1179.65 471.785 1175.05L-329.749 613.815C-336.314 609.218 -339.173 600.916 -336.829 593.251L-50.7459 -342.486C-48.4026 -350.15 -41.3905 -355.434 -33.3771 -355.574Z" stroke="white" stroke-width="3"/>
<path opacity="0.636364" d="M-30.8997 -359.273L945.524 -359.273C953.539 -359.273 960.642 -354.113 963.119 -346.49L1264.85 582.144C1267.33 589.766 1264.61 598.117 1258.13 602.828L468.186 1176.76C461.702 1181.47 452.922 1181.47 446.438 1176.76L-343.505 602.828C-349.989 598.117 -352.702 589.766 -350.226 582.144L-48.4942 -346.49C-46.0176 -354.113 -38.9144 -359.273 -30.8997 -359.273Z" stroke="white" stroke-width="3"/>
<path opacity="0.646465" d="M-28.3261 -362.727L945.88 -345.722C953.894 -345.582 960.906 -340.298 963.249 -332.634L1248.12 599.146C1250.47 606.811 1247.61 615.112 1241.04 619.709L442.898 1178.58C436.332 1183.17 427.554 1183.02 421.153 1178.2L-357.001 591.815C-363.402 586.992 -365.969 578.596 -363.36 571.018L-46.1411 -350.253C-43.5317 -357.831 -36.3396 -362.867 -28.3261 -362.727Z" stroke="white" stroke-width="3"/>
<path opacity="0.656566" d="M-25.6564 -365.932L946.037 -332C954.047 -331.72 960.966 -326.314 963.175 -318.61L1231.17 616.011C1233.38 623.715 1230.38 631.966 1223.74 636.448L417.674 1180.14C411.029 1184.62 402.254 1184.32 395.939 1179.38L-370.233 580.785C-376.549 575.851 -378.969 567.411 -376.228 559.879L-43.6863 -353.771C-40.9451 -361.302 -33.6662 -366.212 -25.6564 -365.932Z" stroke="white" stroke-width="3"/>
<path opacity="0.666667" d="M-22.8969 -368.891L945.99 -318.114C953.994 -317.695 960.817 -312.169 962.892 -304.428L1214 632.73C1216.08 640.471 1212.93 648.668 1206.21 653.033L392.516 1181.45C385.794 1185.82 377.027 1185.36 370.798 1180.31L-383.202 569.736C-389.431 564.692 -391.703 556.211 -388.831 548.729L-41.1364 -357.047C-38.2642 -364.529 -30.9006 -369.311 -22.8969 -368.891Z" stroke="white" stroke-width="3"/>
<path opacity="0.676768" d="M-20.0545 -371.598L945.735 -304.064C953.73 -303.505 960.456 -297.861 962.395 -290.084L1196.61 649.305C1198.55 657.082 1195.26 665.223 1188.46 669.47L367.428 1182.51C360.631 1186.76 351.873 1186.14 345.733 1180.99L-395.911 558.68C-402.051 553.528 -404.175 545.009 -401.173 537.578L-38.4979 -360.074C-35.4955 -367.505 -28.0497 -372.157 -20.0545 -371.598Z" stroke="white" stroke-width="3"/>
<path opacity="0.686869" d="M-17.1303 -374.057L945.272 -289.858C953.257 -289.159 959.883 -283.399 961.686 -275.59L1179.01 665.729C1180.81 673.538 1177.38 681.62 1170.51 685.748L342.417 1183.32C335.547 1187.44 326.801 1186.68 320.752 1181.42L-408.357 547.615C-414.406 542.357 -416.381 533.802 -413.249 526.424L-35.7721 -362.856C-32.6404 -370.233 -25.1145 -374.755 -17.1303 -374.057Z" stroke="white" stroke-width="3"/>
<path opacity="0.69697" d="M-14.131 -376.263L944.598 -275.496C952.569 -274.659 959.094 -268.784 960.76 -260.944L1161.19 682C1162.86 689.84 1159.28 697.861 1152.34 701.868L317.486 1183.87C310.545 1187.88 301.813 1186.96 295.857 1181.6L-420.542 536.551C-426.498 531.188 -428.323 522.6 -425.064 515.278L-32.9653 -365.389C-29.7055 -372.711 -22.1018 -377.101 -14.131 -376.263Z" stroke="white" stroke-width="3"/>
<path opacity="0.707071" d="M-11.0576 -378.211L943.714 -260.98C951.669 -260.003 958.09 -254.015 959.619 -246.148L1143.17 698.12C1144.7 705.987 1140.98 713.945 1133.98 717.83L292.642 1184.19C285.632 1188.07 276.918 1187 271.056 1181.54L-432.463 525.496C-438.325 520.03 -440 511.411 -436.613 504.148L-30.0789 -367.667C-26.6917 -374.931 -19.0125 -379.188 -11.0576 -378.211Z" stroke="white" stroke-width="3"/>
<path opacity="0.717172" d="M-7.92069 -379.914L942.61 -246.325C950.547 -245.21 956.863 -239.111 958.255 -231.218L1124.93 714.072C1126.33 721.965 1122.48 729.856 1115.4 733.619L267.884 1184.25C260.807 1188.01 252.113 1186.79 246.348 1181.23L-444.127 514.442C-449.892 508.874 -451.417 500.228 -447.903 493.024L-27.1231 -369.704C-23.6097 -376.907 -15.8574 -381.029 -7.92069 -379.914Z" stroke="white" stroke-width="3"/>
<path opacity="0.727273" d="M-4.72093 -381.357L941.29 -231.524C949.206 -230.27 955.415 -224.061 956.669 -216.145L1106.5 729.866C1107.76 737.782 1103.77 745.605 1096.63 749.244L243.22 1184.08C236.078 1187.72 227.407 1186.34 221.739 1180.68L-455.53 503.406C-461.197 497.739 -462.571 489.067 -458.932 481.926L-24.0985 -371.484C-20.46 -378.625 -12.6369 -382.611 -4.72093 -381.357Z" stroke="white" stroke-width="3"/>
<path opacity="0.737374" d="M-1.4658 -382.546L939.749 -216.585C947.642 -215.193 953.741 -208.877 954.857 -200.941L1087.87 745.493C1088.98 753.43 1084.86 761.182 1077.66 764.695L218.65 1183.66C211.447 1187.18 202.8 1185.65 197.233 1179.89L-466.676 492.387C-472.244 486.622 -473.466 477.928 -469.703 470.851L-21.0128 -373.013C-17.2501 -380.089 -9.35872 -383.938 -1.4658 -382.546Z" stroke="white" stroke-width="3"/>
<path opacity="0.747475" d="M1.84335 -383.479L937.988 -201.511C945.855 -199.982 951.843 -193.56 952.82 -185.605L1069.04 760.952C1070.02 768.907 1065.76 776.586 1058.5 779.974L194.184 1183.01C186.92 1186.4 178.302 1184.72 172.836 1178.86L-477.563 481.393C-483.029 475.532 -484.099 466.817 -480.213 459.807L-17.8671 -374.288C-13.9815 -381.297 -6.02407 -385.008 1.84335 -383.479Z" stroke="white" stroke-width="3"/>
<path opacity="0.757576" d="M5.20089 -384.161L936.003 -186.313C943.843 -184.647 949.718 -178.122 950.555 -170.151L1050.02 776.233C1050.86 784.203 1046.47 791.807 1039.15 795.067L169.823 1182.12C162.502 1185.38 153.913 1183.55 148.551 1177.59L-488.192 470.421C-493.555 464.464 -494.473 455.733 -490.465 448.792L-14.6669 -375.315C-10.6596 -382.256 -2.63864 -385.828 5.20089 -384.161Z" stroke="white" stroke-width="3"/>
<path opacity="0.767677" d="M8.60093 -384.587L933.793 -170.99C941.602 -169.187 947.362 -162.56 948.061 -154.576L1030.82 791.339C1031.52 799.323 1026.99 806.849 1019.62 809.98L145.571 1180.99C138.194 1184.12 129.639 1182.15 124.381 1176.1L-498.566 459.48C-503.824 453.432 -504.589 444.685 -500.461 437.815L-11.4182 -376.089C-7.29035 -382.959 0.791667 -386.39 8.60093 -384.587Z" stroke="white" stroke-width="3"/>
<path opacity="0.777778" d="M12.0372 -384.752L931.353 -155.541C939.129 -153.602 944.773 -146.876 945.332 -138.881L1011.42 806.27C1011.98 814.266 1007.33 821.711 999.899 824.714L121.43 1179.64C113.999 1182.64 105.48 1180.52 100.328 1174.38L-508.687 448.581C-513.839 442.442 -514.451 433.683 -510.204 426.886L-8.12723 -376.605C-3.8801 -383.402 4.26055 -386.691 12.0372 -384.752Z" stroke="white" stroke-width="3"/>
<path opacity="0.787879" d="M15.5094 -384.661L928.686 -139.976C936.428 -137.901 941.953 -131.078 942.373 -123.074L991.851 821.02C992.27 829.024 987.488 836.388 980.006 839.26L97.408 1178.06C89.9257 1180.93 81.4448 1178.66 76.401 1172.43L-518.552 437.722C-523.596 431.494 -524.056 422.726 -519.691 416.004L-4.79416 -376.867C-0.429052 -383.588 7.76781 -386.735 15.5094 -384.661Z" stroke="white" stroke-width="3"/>
<path opacity="0.79798" d="M19.0087 -384.318L925.787 -124.304C933.491 -122.094 938.897 -115.176 939.177 -107.166L972.098 835.581C972.378 843.591 967.468 850.87 959.937 853.611L73.5048 1176.25C65.9734 1178.99 57.5336 1176.57 52.5992 1170.25L-528.167 426.904C-533.102 420.588 -533.408 411.813 -528.926 405.169L-1.42779 -376.88C3.05396 -383.524 11.3045 -386.527 19.0087 -384.318Z" stroke="white" stroke-width="3"/>
<path opacity="0.808081" d="M22.5354 -383.717L922.66 -108.522C930.324 -106.179 935.608 -99.1665 935.748 -91.153L952.175 849.956C952.315 857.97 947.279 865.162 939.701 867.771L49.7292 1174.21C42.1512 1176.82 33.7549 1174.26 28.9315 1167.85L-537.528 416.137C-542.352 409.736 -542.505 400.957 -537.908 394.392L1.97226 -376.637C6.56935 -383.202 14.871 -386.061 22.5354 -383.717Z" stroke="white" stroke-width="3"/>
<path opacity="0.818182" d="M26.0785 -382.863L919.295 -92.6395C926.918 -90.1628 932.078 -83.0596 932.078 -75.0449L932.078 864.139C932.078 872.153 926.918 879.257 919.295 881.733L26.0785 1171.96C18.4561 1174.43 10.1059 1171.72 5.39493 1165.24L-546.643 405.421C-551.354 398.937 -551.354 390.157 -546.643 383.673L5.3949 -376.143C10.1058 -382.627 18.4561 -385.34 26.0785 -382.863Z" stroke="white" stroke-width="3"/>
<path opacity="0.828283" d="M29.6382 -381.748L915.698 -76.6531C923.276 -74.0438 928.312 -66.8517 928.172 -58.8382L911.817 878.134C911.677 886.147 906.393 893.159 898.728 895.503L2.56129 1169.49C-5.10319 1171.83 -13.4048 1168.97 -18.0019 1162.41L-555.509 394.768C-560.106 388.203 -559.953 379.425 -555.129 373.024L8.84046 -375.389C13.6639 -381.79 22.0602 -384.357 29.6382 -381.748Z" stroke="white" stroke-width="3"/>
<path opacity="0.838384" d="M33.2071 -380.384L911.863 -60.5796C919.394 -57.8384 924.304 -50.5594 924.024 -42.5496L891.391 891.927C891.112 899.936 885.706 906.855 878.002 909.064L-20.8217 1166.8C-28.5259 1169.01 -36.7764 1166 -41.2582 1159.36L-564.129 384.171C-568.611 377.527 -568.304 368.752 -563.37 362.437L12.3015 -374.389C17.2358 -380.705 25.6757 -383.125 33.2071 -380.384Z" stroke="white" stroke-width="3"/>
<path opacity="0.848485" d="M36.7834 -378.759L907.792 -44.4099C915.275 -41.5378 920.057 -34.1742 919.637 -26.1705L870.809 905.528C870.39 913.531 864.864 920.355 857.123 922.429L-44.064 1163.9C-51.8056 1165.98 -60.0024 1162.83 -64.3675 1156.11L-572.503 373.647C-576.868 366.926 -576.409 358.158 -571.365 351.929L15.7765 -373.13C20.8203 -379.359 29.3011 -381.631 36.7834 -378.759Z" stroke="white" stroke-width="3"/>
<path opacity="0.858586" d="M40.3617 -376.884L903.485 -28.1596C910.916 -25.1573 915.568 -17.7114 915.009 -9.7162L850.072 918.924C849.513 926.919 843.87 933.645 836.093 935.584L-67.163 1160.79C-74.9396 1162.73 -83.0803 1159.44 -87.3274 1152.64L-580.633 363.189C-584.881 356.393 -584.268 347.634 -579.116 341.494L19.2597 -371.623C24.4114 -377.762 32.9306 -379.886 40.3617 -376.884Z" stroke="white" stroke-width="3"/>
<path opacity="0.868687" d="M43.9328 -374.754L898.934 -11.8276C906.311 -8.69606 910.833 -1.17012 910.135 6.81409L829.181 932.118C828.482 940.103 822.722 946.729 814.913 948.532L-90.12 1157.48C-97.9292 1159.28 -106.011 1155.85 -110.139 1148.98L-588.527 352.807C-592.654 345.937 -591.889 337.191 -586.631 331.142L22.7421 -369.862C28.0002 -375.91 36.5552 -377.885 43.9328 -374.754Z" stroke="white" stroke-width="3"/>
<path opacity="0.878788" d="M47.5002 -372.366L894.147 4.58486C901.468 7.8447 905.858 15.4484 905.021 23.4192L808.147 945.112C807.309 953.083 801.434 959.608 793.595 961.274L-112.923 1153.96C-120.763 1155.63 -128.784 1152.06 -132.791 1145.11L-596.176 342.508C-600.183 335.567 -599.266 326.836 -593.903 320.879L26.2274 -367.845C31.5902 -373.801 40.1784 -375.626 47.5002 -372.366Z" stroke="white" stroke-width="3"/>
<path opacity="0.888889" d="M51.053 -369.728L889.117 21.0672C896.381 24.4543 900.637 32.1335 899.661 40.0885L786.968 957.897C785.991 965.852 780.003 972.273 772.136 973.803L-135.576 1150.24C-143.444 1151.77 -151.401 1148.06 -155.287 1141.05L-603.591 332.291C-607.476 325.281 -606.406 316.567 -600.94 310.705L29.7045 -365.579C35.1706 -371.44 43.7892 -373.116 51.053 -369.728Z" stroke="white" stroke-width="3"/>
<path opacity="0.89899" d="M54.5887 -366.838L883.845 37.6177C891.049 41.1311 895.171 48.8834 894.055 56.8201L765.65 970.473C764.534 978.41 758.435 984.726 750.542 986.118L-158.073 1146.33C-165.966 1147.72 -173.858 1143.87 -177.62 1136.8L-610.77 322.161C-614.533 315.085 -613.311 306.39 -607.743 300.625L33.1711 -363.061C38.7385 -368.826 47.3852 -370.351 54.5887 -366.838Z" stroke="white" stroke-width="3"/>
<path opacity="0.909091" d="M58.1046 -363.693L878.333 54.234C885.474 57.8726 889.46 65.6956 888.206 73.6117L744.198 982.842C742.944 990.758 736.736 996.966 728.82 998.22L-180.41 1142.23C-188.326 1143.48 -196.149 1139.5 -199.787 1132.35L-617.715 312.126C-621.353 304.985 -619.98 296.313 -614.312 290.646L36.6243 -360.291C42.2915 -365.958 50.9634 -367.332 58.1046 -363.693Z" stroke="white" stroke-width="3"/>
<path opacity="0.919192" d="M61.5935 -360.305L872.576 70.9021C879.653 74.6647 883.502 82.5562 882.11 90.4491L722.615 994.99C721.223 1002.88 714.907 1008.98 706.971 1010.1L-202.585 1137.93C-210.522 1139.04 -218.274 1134.92 -221.788 1127.72L-624.429 302.179C-627.943 294.976 -626.418 286.329 -620.653 280.762L40.0572 -357.278C45.8224 -362.846 54.517 -364.068 61.5935 -360.305Z" stroke="white" stroke-width="3"/>
<path opacity="0.929293" d="M65.0513 -356.663L866.575 87.6293C873.585 91.5149 877.295 99.4723 875.766 107.34L700.904 1006.93C699.375 1014.8 692.953 1020.78 684.998 1021.76L-224.596 1133.44C-232.551 1134.42 -240.23 1130.16 -243.617 1122.9L-630.915 292.337C-634.303 285.073 -632.627 276.455 -626.766 270.988L43.4654 -354.012C49.327 -359.478 58.0415 -360.548 65.0513 -356.663Z" stroke="white" stroke-width="3"/>
<path opacity="0.939394" d="M68.4759 -352.776L860.332 104.403C867.273 108.41 870.844 116.431 869.178 124.271L679.072 1018.65C677.406 1026.49 670.881 1032.36 662.91 1033.2L-246.437 1128.77C-254.408 1129.61 -262.012 1125.22 -265.272 1117.9L-637.174 282.595C-640.434 275.273 -638.608 266.685 -632.652 261.322L46.847 -350.502C52.8031 -355.865 61.535 -356.783 68.4759 -352.776Z" stroke="white" stroke-width="3"/>
<path opacity="0.949495" d="M71.8592 -348.634L853.843 121.229C860.712 125.357 864.143 133.439 862.34 141.248L657.12 1030.15C655.317 1037.96 648.691 1043.72 640.706 1044.42L-268.11 1123.93C-276.094 1124.63 -283.62 1120.11 -286.751 1112.73L-643.211 272.967C-646.342 265.589 -644.367 257.035 -638.318 251.776L50.1939 -346.738C56.2427 -351.996 64.9893 -352.762 71.8592 -348.634Z" stroke="white" stroke-width="3"/>
<path opacity="0.959596" d="M75.2026 -344.256L847.112 138.087C853.909 142.334 857.198 150.474 855.259 158.251L635.057 1041.43C633.118 1049.21 626.392 1054.85 618.397 1055.41L-289.605 1118.91C-297.6 1119.46 -305.046 1114.81 -308.048 1107.38L-649.022 263.44C-652.024 256.009 -649.9 247.49 -643.761 242.338L53.5076 -342.739C59.6472 -347.891 68.4058 -348.503 75.2026 -344.256Z" stroke="white" stroke-width="3"/>
<path opacity="0.969697" d="M78.4935 -339.627L840.132 154.987C846.854 159.352 850 167.548 847.926 175.29L612.88 1052.5C610.805 1060.24 603.982 1065.76 595.978 1066.18L-310.927 1113.71C-318.931 1114.13 -326.295 1109.35 -329.167 1101.87L-654.619 254.035C-657.491 246.553 -655.218 238.072 -648.99 233.028L56.7753 -338.489C63.0039 -343.533 71.7718 -343.993 78.4935 -339.627Z" stroke="white" stroke-width="3"/>
<path opacity="0.979798" d="M81.7334 -334.764L832.909 171.91C839.553 176.392 842.556 184.642 840.347 192.347L590.597 1063.33C588.388 1071.03 581.469 1076.44 573.459 1076.72L-332.07 1108.34C-340.079 1108.62 -347.358 1103.71 -350.1 1096.18L-659.998 244.74C-662.739 237.209 -660.319 228.769 -654.003 223.834L59.9986 -334.005C66.3143 -338.939 75.089 -339.246 81.7334 -334.764Z" stroke="white" stroke-width="3"/>
<path opacity="0.989899" d="M84.92 -329.651L825.443 188.869C832.009 193.466 834.867 201.768 832.524 209.433L568.216 1073.94C565.873 1081.61 558.861 1086.89 550.847 1087.03L-353.027 1102.81C-361.04 1102.95 -368.233 1097.91 -370.842 1090.33L-665.159 235.575C-667.769 227.997 -665.202 219.6 -658.801 214.777L63.1753 -329.271C69.5761 -334.094 78.3548 -334.248 84.92 -329.651Z" stroke="white" stroke-width="3"/>
<path d="M88.045 -324.301L817.732 205.848C824.217 210.559 826.93 218.909 824.453 226.532L545.737 1084.33C543.26 1091.95 536.157 1097.11 528.143 1097.11L-373.801 1097.11C-381.815 1097.11 -388.918 1091.95 -391.395 1084.33L-670.111 226.532C-672.588 218.909 -669.874 210.559 -663.39 205.848L66.2971 -324.301C72.7811 -329.012 81.561 -329.012 88.045 -324.301Z" stroke="white" stroke-width="3"/>
</g>
</g>
<defs>
<filter id="filter0_f_623_335" x="226" y="-178" width="1720" height="1288" filterUnits="userSpaceOnUse" color-interpolation-filters="sRGB">
<feFlood flood-opacity="0" result="BackgroundImageFix"/>
<feBlend mode="normal" in="SourceGraphic" in2="BackgroundImageFix" result="shape"/>
<feGaussianBlur stdDeviation="100" result="effect1_foregroundBlur_623_335"/>
</filter>
<radialGradient id="paint0_angular_623_335" cx="0" cy="0" r="1" gradientUnits="userSpaceOnUse" gradientTransform="translate(1139 695.998) rotate(46.7455) scale(130.439 130.544)">
<stop offset="0.00807593" stop-color="#FEF1E7"/>
<stop offset="0.250667" stop-color="#F7CA55" stop-opacity="0"/>
<stop offset="0.736757" stop-color="#F79C55"/>
</radialGradient>
</defs>
</svg>
