<svg width="176" height="44" viewBox="0 0 176 44" fill="none" xmlns="http://www.w3.org/2000/svg">
<path d="M17.8204 39.9113L13.8452 33.0261L19.6791 22.9493L23.3862 29.3708L45.2703 29.359L39.0606 40.0064L17.8204 39.9113Z" fill="#535D79"/>
<path d="M49.1784 22.5221L45.2033 29.4072L33.5597 29.3935L37.2672 22.9722L26.3149 4.02588L38.6407 4.07996L49.1784 22.5221Z" fill="#535D79"/>
<path d="M18.4334 3.98926H26.3838L32.1937 14.08L24.7788 14.0796L13.8471 33.0378L7.73096 22.3363L18.4334 3.98926Z" fill="#535D79"/>
<path fill-rule="evenodd" clip-rule="evenodd" d="M27.3532 2.39513L27.3295 2.354H17.4943L5.84277 22.3281L13.8409 36.3225L13.8507 36.3056L16.8744 41.5427L39.9981 41.6461L48.1186 27.7221H48.0646L51.0644 22.5263L39.5922 2.44882L27.3532 2.39513ZM34.9613 15.7154H35.0227L29.2412 5.67424L37.6893 5.71129L47.2925 22.5179L44.2867 27.7243L36.4095 27.7285L39.156 22.9717L34.9613 15.7154ZM25.3504 5.62474L29.2925 12.4445L23.8343 12.4444L14.4898 28.6497L13.8523 29.7508L9.61964 22.3447L19.373 5.62474H25.3504ZM21.5601 22.9358L25.7237 15.7151L31.1834 15.7154L35.3786 22.9727L32.6315 27.7306L24.3308 27.7351L21.5601 22.9358ZM15.7379 33.0327L17.3219 30.2857L19.6775 26.2168L22.4428 31.0069L30.7423 31.0023L30.7289 31.0256L42.3977 31.0394L38.1242 38.367L18.7676 38.2803L15.7379 33.0327Z" fill="#111318"/>
<path d="M110.634 14.323C111.754 14.323 112.664 13.4129 112.664 12.2696C112.664 11.1263 111.754 10.2396 110.634 10.2396C109.491 10.2396 108.581 11.1263 108.581 12.2696C108.581 13.4129 109.491 14.323 110.634 14.323ZM108.814 27.8096H112.431V16.143H108.814V27.8096Z" fill="#535D79"/>
<path d="M114.536 33.4097H118.082V26.643C118.759 27.5298 120.299 28.1363 121.909 28.1363C125.386 28.1363 127.486 25.4764 127.393 21.7897C127.299 18.033 125.129 15.7697 121.886 15.7697C120.229 15.7697 118.666 16.493 118.012 17.5663L117.826 16.143H114.536V33.4097ZM118.152 21.9763C118.152 20.2264 119.319 19.0598 120.999 19.0598C122.702 19.0598 123.776 20.2497 123.776 21.9763C123.776 23.703 122.702 24.8931 120.999 24.8931C119.319 24.8931 118.152 23.7263 118.152 21.9763Z" fill="#535D79"/>
<path d="M127.776 24.1231C127.869 26.4797 129.736 28.113 132.676 28.113C135.499 28.113 137.46 26.6197 137.46 24.2163C137.46 22.4897 136.433 21.3464 134.519 20.8796L132.442 20.3663C131.696 20.1797 131.229 19.993 131.229 19.3863C131.229 18.7797 131.719 18.383 132.442 18.383C133.259 18.383 133.795 18.9197 133.772 19.713H137.016C136.923 17.2863 135.079 15.7697 132.512 15.7697C129.922 15.7697 127.986 17.3097 127.986 19.643C127.986 21.2063 128.849 22.4897 131.159 23.0964L133.212 23.6331C133.819 23.7964 134.075 24.0764 134.075 24.473C134.075 25.0563 133.539 25.4297 132.629 25.4297C131.579 25.4297 131.02 24.9397 131.02 24.1231H127.776Z" fill="#535D79"/>
<path d="M142.959 28.1129C144.382 28.1129 145.806 27.4596 146.529 26.503L146.763 27.8095H150.146V16.1429H146.553V22.2096C146.553 23.9595 146.039 24.9163 144.382 24.9163C143.099 24.9163 142.259 24.3329 142.259 22.1629V16.1429H138.666V23.4696C138.666 26.2463 140.206 28.1129 142.959 28.1129Z" fill="#535D79"/>
<path d="M155.844 27.8095V21.4396C155.844 19.4796 156.894 18.9196 157.921 18.9196C159.065 18.9196 159.811 19.6196 159.811 21.0663V27.8095H163.357V21.4396C163.357 19.4563 164.384 18.8962 165.41 18.8962C166.554 18.8962 167.324 19.5962 167.324 21.0663V27.8095H170.824V20.1796C170.824 17.5195 169.424 15.7462 166.414 15.7462C164.735 15.7462 163.357 16.5629 162.751 17.8229C162.051 16.5629 160.838 15.7462 158.901 15.7462C157.618 15.7462 156.427 16.3296 155.728 17.2629L155.587 16.1429H152.228V27.8095H155.844Z" fill="#535D79"/>
<path d="M61.3516 10.5447H57.5249V27.8114H68.1183V24.428H61.3516V10.5447Z" fill="#535D79"/>
<path d="M68.4839 21.9548C68.4839 25.6414 70.9573 28.0915 74.6906 28.0915C78.4006 28.0915 80.8739 25.6414 80.8739 21.9548C80.8739 18.2681 78.4006 15.7947 74.6906 15.7947C70.9573 15.7947 68.4839 18.2681 68.4839 21.9548ZM72.1006 21.9315C72.1006 20.1814 73.1272 19.0147 74.6906 19.0147C76.2306 19.0147 77.2572 20.1814 77.2572 21.9315C77.2572 23.7048 76.2306 24.8714 74.6906 24.8714C73.1272 24.8714 72.1006 23.7048 72.1006 21.9315Z" fill="#535D79"/>
<path d="M81.4518 21.768C81.4518 25.2914 83.7386 27.6713 86.9819 27.6713C88.5453 27.6713 89.8986 27.1114 90.5752 26.2013V27.8114C90.5752 29.4214 89.5719 30.4946 87.7986 30.4946C86.2119 30.4946 85.1152 29.748 85.0452 28.418H81.4053C81.7319 31.6147 84.2053 33.7614 87.5886 33.7614C91.5786 33.7614 94.0985 31.1714 94.0985 27.0647V16.1447H90.8553L90.6686 17.3347C90.0152 16.378 88.6386 15.748 87.0519 15.748C83.7852 15.748 81.4518 18.198 81.4518 21.768ZM85.0919 21.6747C85.0919 19.9947 86.2119 18.8747 87.6352 18.8747C89.2919 18.8747 90.5052 19.9713 90.5052 21.6747C90.5052 23.378 89.3152 24.5446 87.6585 24.5446C86.2352 24.5446 85.0919 23.378 85.0919 21.6747Z" fill="#535D79"/>
<path d="M95.146 21.9548C95.146 25.6414 97.6193 28.0915 101.353 28.0915C105.063 28.0915 107.536 25.6414 107.536 21.9548C107.536 18.2681 105.063 15.7947 101.353 15.7947C97.6193 15.7947 95.146 18.2681 95.146 21.9548ZM98.7627 21.9315C98.7627 20.1814 99.7893 19.0147 101.353 19.0147C102.893 19.0147 103.919 20.1814 103.919 21.9315C103.919 23.7048 102.893 24.8714 101.353 24.8714C99.7893 24.8714 98.7627 23.7048 98.7627 21.9315Z" fill="#535D79"/>
</svg>
