<svg width="176" height="44" viewBox="0 0 176 44" fill="none" xmlns="http://www.w3.org/2000/svg">
<path d="M55.3402 11.3124H51.3999V29.092H62.3079V25.6082H55.3402V11.3124Z" fill="#535D79"/>
<path d="M62.6846 23.0613C62.6846 26.8575 65.2314 29.3803 69.0756 29.3803C72.8958 29.3803 75.4426 26.8575 75.4426 23.0613C75.4426 19.2651 72.8958 16.7183 69.0756 16.7183C65.2314 16.7183 62.6846 19.2651 62.6846 23.0613ZM66.4086 23.0372C66.4086 21.2353 67.4658 20.034 69.0756 20.034C70.6613 20.034 71.7185 21.2353 71.7185 23.0372C71.7185 24.8633 70.6613 26.0646 69.0756 26.0646C67.4658 26.0646 66.4086 24.8633 66.4086 23.0372Z" fill="#535D79"/>
<path d="M76.0373 22.8691C76.0373 26.497 78.392 28.9477 81.7316 28.9477C83.3414 28.9477 84.7349 28.3711 85.4317 27.4341V29.0919C85.4317 30.7497 84.3985 31.8549 82.5725 31.8549C80.9387 31.8549 79.8094 31.0861 79.7374 29.7166H75.9893C76.3256 33.0083 78.8725 35.2186 82.3563 35.2186C86.4648 35.2186 89.0597 32.5518 89.0597 28.323V17.0787H85.72L85.5278 18.304C84.855 17.319 83.4375 16.6703 81.8037 16.6703C78.4399 16.6703 76.0373 19.193 76.0373 22.8691ZM79.7855 22.773C79.7855 21.043 80.9387 19.8898 82.4043 19.8898C84.1102 19.8898 85.3596 21.019 85.3596 22.773C85.3596 24.5269 84.1342 25.7282 82.4283 25.7282C80.9628 25.7282 79.7855 24.5269 79.7855 22.773Z" fill="#535D79"/>
<path d="M90.1382 23.0613C90.1382 26.8575 92.685 29.3803 96.5293 29.3803C100.349 29.3803 102.896 26.8575 102.896 23.0613C102.896 19.2651 100.349 16.7183 96.5293 16.7183C92.685 16.7183 90.1382 19.2651 90.1382 23.0613ZM93.8623 23.0372C93.8623 21.2353 94.9194 20.034 96.5293 20.034C98.1149 20.034 99.1722 21.2353 99.1722 23.0372C99.1722 24.8633 98.1149 26.0646 96.5293 26.0646C94.9194 26.0646 93.8623 24.8633 93.8623 23.0372Z" fill="#535D79"/>
<path d="M106.086 15.2046C107.24 15.2046 108.177 14.2675 108.177 13.0903C108.177 11.913 107.24 11 106.086 11C104.909 11 103.972 11.913 103.972 13.0903C103.972 14.2675 104.909 15.2046 106.086 15.2046ZM104.212 29.0919H107.937V17.0787H104.212V29.0919Z" fill="#535D79"/>
<path d="M110.104 34.8583H113.757V27.8907C114.453 28.8037 116.039 29.4284 117.697 29.4284C121.276 29.4284 123.439 26.6894 123.343 22.8932C123.246 19.0249 121.012 16.6943 117.672 16.6943C115.966 16.6943 114.357 17.4391 113.684 18.5444L113.491 17.0788H110.104V34.8583ZM113.828 23.0853C113.828 21.2834 115.029 20.0821 116.759 20.0821C118.513 20.0821 119.618 21.3074 119.618 23.0853C119.618 24.8634 118.513 26.0887 116.759 26.0887C115.029 26.0887 113.828 24.8874 113.828 23.0853Z" fill="#535D79"/>
<path d="M123.737 25.2958C123.833 27.7225 125.756 29.4043 128.783 29.4043C131.69 29.4043 133.709 27.8666 133.709 25.3919C133.709 23.614 132.652 22.4367 130.681 21.9561L128.543 21.4275C127.774 21.2354 127.294 21.0431 127.294 20.4184C127.294 19.7937 127.797 19.3853 128.543 19.3853C129.384 19.3853 129.936 19.9379 129.913 20.7548H133.252C133.156 18.256 131.258 16.6943 128.615 16.6943C125.948 16.6943 123.954 18.2801 123.954 20.6827C123.954 22.2925 124.843 23.614 127.221 24.2387L129.335 24.7912C129.96 24.9594 130.224 25.2477 130.224 25.6561C130.224 26.2569 129.672 26.6413 128.735 26.6413C127.653 26.6413 127.077 26.1367 127.077 25.2958H123.737Z" fill="#535D79"/>
<path d="M139.372 29.4042C140.838 29.4042 142.303 28.7315 143.048 27.7464L143.289 29.0919H146.772V17.0787H143.072V23.3256C143.072 25.1275 142.544 26.1126 140.838 26.1126C139.516 26.1126 138.651 25.512 138.651 23.2776V17.0787H134.951V24.623C134.951 27.4822 136.537 29.4042 139.372 29.4042Z" fill="#535D79"/>
<path d="M152.64 29.0919V22.5327C152.64 20.5145 153.721 19.9378 154.778 19.9378C155.955 19.9378 156.724 20.6587 156.724 22.1483V29.0919H160.376V22.5327C160.376 20.4905 161.433 19.9139 162.49 19.9139C163.667 19.9139 164.46 20.6346 164.46 22.1483V29.0919H168.065V21.2353C168.065 18.4963 166.623 16.6703 163.523 16.6703C161.794 16.6703 160.376 17.5111 159.751 18.8086C159.031 17.5111 157.781 16.6703 155.787 16.6703C154.466 16.6703 153.24 17.2709 152.52 18.232L152.376 17.0787H148.915V29.0919H152.64Z" fill="#535D79"/>
<path d="M7.3999 22C7.3999 13.7033 7.3999 9.55494 9.97736 6.97748C12.5548 4.40002 16.7032 4.40002 24.9999 4.40002C33.2966 4.40002 37.4449 4.40002 40.0225 6.97748C42.5999 9.55494 42.5999 13.7033 42.5999 22C42.5999 30.2968 42.5999 34.4451 40.0225 37.0226C37.4449 39.6 33.2966 39.6 24.9999 39.6C16.7032 39.6 12.5548 39.6 9.97736 37.0226C7.3999 34.4451 7.3999 30.2968 7.3999 22Z" fill="#535D79"/>
<path d="M28.52 27.28C29.006 27.28 29.4089 27.6779 29.3124 28.1542C29.1417 28.9955 28.7273 29.7753 28.1113 30.3913C27.2862 31.2164 26.167 31.68 25 31.68C23.8331 31.68 22.714 31.2164 21.8888 30.3913C21.2728 29.7753 20.8583 28.9955 20.6878 28.1542C20.5911 27.6779 20.994 27.28 21.48 27.28H28.52Z" fill="#111318"/>
<path d="M30.3699 20.0433C29.9005 20.169 29.613 20.6602 29.851 21.0839C30.1015 21.5299 30.4481 21.9191 30.8697 22.2212C31.5316 22.6955 32.3375 22.9257 33.1502 22.8724C33.9628 22.8192 34.7318 22.4858 35.3262 21.9291C35.9206 21.3724 36.3035 20.6268 36.4098 19.8194C36.5161 19.012 36.3392 18.1927 35.9092 17.5011C35.4791 16.8096 34.8226 16.2886 34.0514 16.0268C33.2803 15.765 32.4423 15.7787 31.6801 16.0656C31.1947 16.2483 30.7593 16.5345 30.4018 16.9005C30.0622 17.2481 30.2128 17.797 30.6337 18.04L31.0801 18.2977C31.759 18.6898 31.6252 19.7069 30.8678 19.9099L30.3699 20.0433Z" fill="#111318"/>
<path d="M19.6301 20.0433C20.0995 20.169 20.387 20.6602 20.149 21.0839C19.8985 21.5299 19.5519 21.9191 19.1304 22.2212C18.4685 22.6955 17.6625 22.9257 16.8499 22.8724C16.0372 22.8192 15.2682 22.4858 14.6738 21.9291C14.0794 21.3724 13.6965 20.6268 13.5902 19.8194C13.4839 19.012 13.6608 18.1927 14.0909 17.5011C14.5209 16.8096 15.1774 16.2886 15.9486 16.0268C16.7197 15.765 17.5578 15.7787 18.32 16.0656C18.8053 16.2483 19.2408 16.5345 19.5983 16.9005C19.9379 17.2481 19.7872 17.797 19.3663 18.04L18.9199 18.2977C18.241 18.6898 18.3749 19.7069 19.1322 19.9099L19.6301 20.0433Z" fill="#111318"/>
</svg>
