<svg width="176" height="44" viewBox="0 0 176 44" fill="none" xmlns="http://www.w3.org/2000/svg">
<path d="M20.9945 8.60583V3.10583H3.65332V40.8941H20.9945V35.3941C17.4421 35.3941 14.0352 33.9828 11.5234 31.471C9.01154 28.9591 7.60038 25.5523 7.60038 22C7.60038 18.4476 9.01154 15.0407 11.5234 12.5289C14.0352 10.017 17.4421 8.60583 20.9945 8.60583Z" fill="#535D79"/>
<path d="M20.9941 8.60583V35.3941C24.5465 35.3941 27.9534 33.9828 30.4653 31.471C32.9772 28.9591 34.3883 25.5523 34.3883 22C34.3883 18.4476 32.9772 15.0407 30.4653 12.5289C27.9534 10.017 24.5465 8.60583 20.9941 8.60583Z" fill="#535D79"/>
<path d="M44.1201 11.9706H48.0025V30.6706H44.1201V11.9706Z" fill="#535D79"/>
<path d="M50.1764 24.2647C50.1764 22.9193 50.5759 21.6042 51.3241 20.4861C52.0724 19.368 53.1358 18.4972 54.3796 17.9841C55.6233 17.4711 56.9913 17.3388 58.3103 17.6041C59.6293 17.8694 60.8398 18.5203 61.7884 19.4744C62.737 20.4285 63.3811 21.6427 63.6388 22.9632C63.8965 24.2837 63.7565 25.6509 63.2362 26.8917C62.716 28.1324 61.8392 29.1909 60.7169 29.9327C59.5945 30.6746 58.2771 31.0664 56.9317 31.0588C56.0394 31.0658 55.1546 30.8946 54.3293 30.555C53.5041 30.2155 52.7548 29.7147 52.1256 29.082C51.4964 28.4492 51 27.6971 50.6652 26.8699C50.3305 26.0427 50.1644 25.157 50.1764 24.2647ZM59.9082 24.2647C59.8929 23.6847 59.7069 23.122 59.3736 22.6472C59.0402 22.1722 58.5743 21.8061 58.0339 21.5947C57.4936 21.3832 56.903 21.3357 56.3359 21.4583C55.7687 21.5807 55.2502 21.8676 54.8453 22.2833C54.4404 22.6988 54.1669 23.2245 54.0593 23.7947C53.9516 24.3648 54.0144 24.9541 54.2398 25.4887C54.4652 26.0233 54.8432 26.4797 55.3267 26.8005C55.8101 27.1214 56.3773 27.2927 56.9576 27.2929C57.3527 27.3007 57.745 27.2268 58.1102 27.0759C58.4754 26.9251 58.8056 26.7006 59.0801 26.4164C59.3545 26.1322 59.5674 25.7943 59.7055 25.4242C59.8436 25.054 59.9038 24.6593 59.8823 24.2647H59.9082Z" fill="#535D79"/>
<path d="M79.0482 17.8588V30.0364C79.0482 34.3329 75.6835 36.1576 72.28 36.1576C71.0795 36.2561 69.8753 36.0176 68.8031 35.4689C67.7308 34.9202 66.8329 34.083 66.2106 33.0517L69.4847 31.1623C69.75 31.6973 70.172 32.1386 70.6946 32.4276C71.2172 32.7165 71.8153 32.8395 72.4094 32.7799C72.788 32.8265 73.172 32.789 73.5343 32.6699C73.8966 32.5508 74.228 32.3531 74.505 32.091C74.7821 31.8288 74.9977 31.5087 75.1365 31.1535C75.2754 30.7984 75.334 30.4169 75.3082 30.0364V28.8588C74.8565 29.4066 74.2832 29.8414 73.634 30.1289C72.9848 30.4165 72.2776 30.5488 71.5682 30.5152C69.8521 30.5152 68.2064 29.8335 66.9929 28.62C65.7794 27.4066 65.0977 25.7608 65.0977 24.0447C65.0977 22.3285 65.7794 20.6828 66.9929 19.4693C68.2064 18.2558 69.8521 17.5741 71.5682 17.5741C72.2776 17.5405 72.9848 17.6728 73.634 17.9604C74.2832 18.2479 74.8565 18.6827 75.3082 19.2305V17.9364L79.0482 17.8588ZM75.3082 24.0058C75.334 23.3867 75.174 22.774 74.8488 22.2465C74.5236 21.719 74.0482 21.3009 73.4833 21.0458C72.9185 20.7907 72.2905 20.7105 71.6797 20.8153C71.069 20.9201 70.5034 21.2052 70.0561 21.634C69.6087 22.0627 69.2998 22.6156 69.1691 23.2213C69.0384 23.8271 69.0918 24.458 69.3226 25.0331C69.5534 25.6082 69.951 26.1011 70.4641 26.4485C70.9774 26.7958 71.5827 26.9818 72.2024 26.9823C72.6068 27.0114 73.0127 26.9554 73.394 26.8179C73.7754 26.6804 74.1237 26.4644 74.4163 26.1838C74.7091 25.9034 74.9397 25.5646 75.0933 25.1894C75.2469 24.8143 75.3202 24.411 75.3082 24.0058Z" fill="#535D79"/>
<path d="M81.2348 24.2647C81.2348 22.9204 81.6337 21.6063 82.3808 20.4887C83.1279 19.3711 84.1897 18.5003 85.4319 17.9866C86.6741 17.4727 88.0409 17.3389 89.3592 17.6021C90.6775 17.8653 91.888 18.5137 92.8378 19.4651C93.7874 20.4167 94.4334 21.6285 94.694 22.9472C94.9548 24.266 94.8184 25.6325 94.3022 26.8737C93.786 28.115 92.9131 29.1751 91.7942 29.9201C90.6752 30.6652 89.3603 31.0614 88.016 31.0588C87.122 31.0675 86.2352 30.8976 85.4077 30.5591C84.5803 30.2205 83.8286 29.7202 83.1971 29.0874C82.5654 28.4546 82.0666 27.702 81.7296 26.8739C81.3927 26.0458 81.2245 25.1587 81.2348 24.2647ZM90.9666 24.2647C90.9513 23.6842 90.765 23.121 90.4311 22.6458C90.0972 22.1707 89.6304 21.8046 89.0893 21.5935C88.5483 21.3825 87.957 21.3357 87.3895 21.4593C86.822 21.5828 86.3036 21.8711 85.8992 22.288C85.4948 22.7048 85.2224 23.2318 85.1163 23.8027C85.01 24.3737 85.0746 24.9633 85.302 25.4976C85.5294 26.0321 85.9094 26.4875 86.3946 26.8069C86.8796 27.1261 87.4481 27.2953 88.0289 27.293C88.424 27.3007 88.8164 27.2268 89.1816 27.0759C89.5468 26.9252 89.8769 26.7006 90.1514 26.4165C90.4259 26.1323 90.6388 25.7944 90.7769 25.4243C90.915 25.054 90.9751 24.6593 90.9537 24.2647H90.9666Z" fill="#535D79"/>
<path d="M96.5967 14.4294C96.5967 13.9739 96.7318 13.5284 96.9849 13.1496C97.238 12.7708 97.5978 12.4756 98.0187 12.3012C98.4396 12.1269 98.9028 12.0812 99.3497 12.1701C99.7964 12.259 100.207 12.4784 100.529 12.8005C100.851 13.1227 101.071 13.5332 101.159 13.9799C101.248 14.4268 101.203 14.89 101.028 15.3109C100.854 15.7318 100.559 16.0916 100.18 16.3447C99.8012 16.5978 99.3559 16.7329 98.9002 16.7329C98.2913 16.7262 97.7094 16.4813 97.2788 16.0508C96.8483 15.6202 96.6034 15.0383 96.5967 14.4294ZM96.972 17.8588H100.854V30.6706H96.972V17.8588Z" fill="#535D79"/>
<path d="M117.471 24.2646C117.514 25.1167 117.389 25.969 117.102 26.7724C116.815 27.5758 116.371 28.3145 115.798 28.9459C115.224 29.5774 114.531 30.0891 113.759 30.4517C112.987 30.8143 112.15 31.0206 111.298 31.0588C110.575 31.1069 109.85 30.9911 109.178 30.72C108.505 30.4487 107.903 30.0293 107.416 29.4929V35.8211H103.533V17.8588H107.416V19.0623C107.904 18.5274 108.506 18.11 109.179 17.841C109.851 17.572 110.576 17.4586 111.298 17.5094C112.147 17.5475 112.98 17.7526 113.749 18.1128C114.519 18.473 115.21 18.9813 115.783 19.6085C116.357 20.2358 116.801 20.9698 117.09 21.7688C117.38 22.5677 117.509 23.4157 117.471 24.2646ZM113.588 24.2646C113.573 23.6635 113.381 23.0804 113.036 22.5882C112.69 22.0961 112.207 21.7167 111.647 21.4978C111.087 21.2789 110.475 21.2302 109.888 21.3577C109.3 21.4851 108.763 21.7833 108.344 22.2146C107.925 22.646 107.643 23.1913 107.533 23.7825C107.423 24.3735 107.489 24.9839 107.725 25.5373C107.96 26.0905 108.353 26.5621 108.855 26.8929C109.358 27.2236 109.946 27.3987 110.547 27.3964C110.959 27.4139 111.37 27.3441 111.753 27.1917C112.136 27.0392 112.482 26.8076 112.77 26.5119C113.057 26.2162 113.278 25.863 113.419 25.4758C113.56 25.0885 113.618 24.6758 113.588 24.2646Z" fill="#535D79"/>
<path d="M129.286 26.8271C129.286 29.7777 126.698 31.0329 123.954 31.0329C122.835 31.1336 121.712 30.8964 120.729 30.352C119.746 29.8075 118.949 28.9809 118.441 27.9788L121.78 26.0894C121.912 26.5512 122.199 26.9535 122.593 27.2291C122.986 27.5048 123.462 27.6369 123.941 27.6035C124.86 27.6035 125.326 27.3188 125.326 26.8012C125.326 25.3906 119.024 26.1412 119.024 21.7024C119.024 18.9071 121.379 17.5094 124.045 17.5094C125.058 17.464 126.065 17.694 126.958 18.1747C127.851 18.6555 128.598 19.3692 129.118 20.24L125.779 22C125.632 21.6661 125.391 21.3822 125.085 21.1824C124.78 20.9826 124.423 20.8755 124.058 20.8741C123.385 20.8741 122.984 21.1329 122.984 21.5859C122.984 23.0612 129.286 22.0906 129.286 26.8271Z" fill="#535D79"/>
<path d="M143.352 17.8588V30.6705H139.47V29.467C139.029 29.9998 138.468 30.4213 137.836 30.6978C137.202 30.9744 136.512 31.098 135.821 31.0588C133.232 31.0588 131.02 29.2082 131.02 25.7529V17.8588H134.902V25.1705C134.871 25.4762 134.907 25.7848 135.008 26.0752C135.109 26.3655 135.271 26.6306 135.483 26.8521C135.696 27.0735 135.955 27.2462 136.241 27.3581C136.527 27.4699 136.834 27.5183 137.141 27.4999C138.538 27.4999 139.522 26.6717 139.522 24.9117V17.8588H143.352Z" fill="#535D79"/>
<path d="M165.353 22.8023V30.6706H161.47V23.1388C161.47 21.8447 160.862 21.0423 159.633 21.0423C158.403 21.0423 157.627 21.9353 157.627 23.4494V30.6706H153.744V23.1388C153.744 21.8447 153.136 21.0423 151.907 21.0423C150.677 21.0423 149.901 21.9353 149.901 23.4494V30.6706H146.019V17.8588H149.901V19.0364C150.303 18.5162 150.827 18.1042 151.429 17.8376C152.03 17.571 152.688 17.4581 153.343 17.5094C153.999 17.4751 154.654 17.6123 155.242 17.9072C155.829 18.2021 156.33 18.6448 156.695 19.1917C157.122 18.6203 157.686 18.1663 158.336 17.8721C158.984 17.5778 159.699 17.4531 160.409 17.5094C163.437 17.5094 165.353 19.6059 165.353 22.8023Z" fill="#535D79"/>
<path d="M168.614 17.7812C170.186 17.7812 171.461 16.5064 171.461 14.9341C171.461 13.3617 170.186 12.087 168.614 12.087C167.041 12.087 165.767 13.3617 165.767 14.9341C165.767 16.5064 167.041 17.7812 168.614 17.7812Z" fill="#535D79"/>
</svg>
