<svg width="176" height="44" viewBox="0 0 176 44" fill="none" xmlns="http://www.w3.org/2000/svg">
<path d="M27.725 29.9939H36.6084L14.6023 7.98767H5.71875L27.725 29.9939Z" fill="#535D79"/>
<path d="M19.166 7.98767L40.3796 29.2012V7.98767H34.6388V14.6852L27.9412 7.98767L19.166 7.98767Z" fill="#535D79"/>
<path d="M2 8.72437V29.9938H7.74074V23.2962L14.4382 29.9938H23.2694L2 8.72437Z" fill="#535D79"/>
<path d="M54.2333 26.6849H59.377V29.716H50.3066V13.5961H54.2333V26.6849Z" fill="#535D79"/>
<path d="M66.3936 29.8998C65.1383 29.8998 64.0054 29.6319 62.9951 29.096C61.9999 28.5602 61.2116 27.7948 60.6298 26.7998C60.0635 25.8046 59.7803 24.6412 59.7803 23.3093C59.7803 21.9929 60.071 20.837 60.6528 19.842C61.2346 18.8315 62.0306 18.0585 63.0409 17.5227C64.0514 16.9869 65.1842 16.719 66.4395 16.719C67.6948 16.719 68.8276 16.9869 69.838 17.5227C70.8484 18.0585 71.6444 18.8315 72.2262 19.842C72.8079 20.837 73.0987 21.9929 73.0987 23.3093C73.0987 24.6259 72.8003 25.7893 72.2032 26.7998C71.6215 27.7948 70.8177 28.5602 69.792 29.096C68.7817 29.6319 67.6488 29.8998 66.3936 29.8998ZM66.3936 26.5012C67.1437 26.5012 67.779 26.2256 68.2995 25.6745C68.8353 25.1234 69.1032 24.3351 69.1032 23.3093C69.1032 22.2836 68.8429 21.4953 68.3225 20.9442C67.8173 20.3931 67.1896 20.1175 66.4395 20.1175C65.674 20.1175 65.0387 20.3931 64.5336 20.9442C64.0284 21.48 63.7758 22.2684 63.7758 23.3093C63.7758 24.3351 64.0207 25.1234 64.5106 25.6745C65.0158 26.2256 65.6435 26.5012 66.3936 26.5012Z" fill="#535D79"/>
<path d="M79.3608 16.719C80.264 16.719 81.0525 16.9027 81.726 17.2701C82.4149 17.6375 82.943 18.1198 83.3105 18.7168V16.9027H87.2371V29.6931C87.2371 30.8719 86.9998 31.9358 86.5252 32.8849C86.066 33.8493 85.3541 34.6148 84.3897 35.1812C83.4406 35.7477 82.2541 36.0309 80.8305 36.0309C78.9321 36.0309 77.3937 35.5792 76.2149 34.676C75.0361 33.7881 74.3626 32.5788 74.1941 31.0479H78.0749C78.1974 31.5378 78.4882 31.9204 78.9475 32.196C79.4068 32.4869 79.9731 32.6323 80.6468 32.6323C81.4581 32.6323 82.101 32.3951 82.5757 31.9204C83.0655 31.4612 83.3105 30.7188 83.3105 29.6931V27.879C82.9277 28.476 82.3996 28.9659 81.726 29.3486C81.0525 29.716 80.264 29.8998 79.3608 29.8998C78.3046 29.8998 77.3477 29.6319 76.4905 29.096C75.6331 28.5449 74.9519 27.7719 74.4468 26.7768C73.9569 25.7664 73.7119 24.603 73.7119 23.2864C73.7119 21.9699 73.9569 20.8141 74.4468 19.819C74.9519 18.824 75.6331 18.0585 76.4905 17.5227C77.3477 16.9869 78.3046 16.719 79.3608 16.719ZM83.3105 23.3093C83.3105 22.3296 83.0349 21.5565 82.4838 20.9901C81.948 20.4236 81.2897 20.1404 80.509 20.1404C79.7282 20.1404 79.0624 20.4236 78.5112 20.9901C77.9754 21.5412 77.7075 22.3066 77.7075 23.2864C77.7075 24.2662 77.9754 25.0469 78.5112 25.6287C79.0624 26.1951 79.7282 26.4782 80.509 26.4782C81.2897 26.4782 81.948 26.1951 82.4838 25.6287C83.0349 25.0622 83.3105 24.2891 83.3105 23.3093Z" fill="#535D79"/>
<path d="M95.2217 29.8998C93.9664 29.8998 92.8336 29.6319 91.8232 29.096C90.8282 28.5602 90.0397 27.7948 89.4581 26.7998C88.8916 25.8046 88.6084 24.6412 88.6084 23.3093C88.6084 21.9929 88.8993 20.837 89.481 19.842C90.0627 18.8315 90.8587 18.0585 91.8692 17.5227C92.8795 16.9869 94.0124 16.719 95.2676 16.719C96.523 16.719 97.6558 16.9869 98.6662 17.5227C99.6765 18.0585 100.473 18.8315 101.054 19.842C101.636 20.837 101.927 21.9929 101.927 23.3093C101.927 24.6259 101.628 25.7893 101.031 26.7998C100.45 27.7948 99.646 28.5602 98.6203 29.096C97.6098 29.6319 96.4771 29.8998 95.2217 29.8998ZM95.2217 26.5012C95.9718 26.5012 96.6072 26.2256 97.1276 25.6745C97.6635 25.1234 97.9314 24.3351 97.9314 23.3093C97.9314 22.2836 97.6712 21.4953 97.1506 20.9442C96.6454 20.3931 96.0178 20.1175 95.2676 20.1175C94.5023 20.1175 93.867 20.3931 93.3617 20.9442C92.8565 21.48 92.604 22.2684 92.604 23.3093C92.604 24.3351 92.849 25.1234 93.3387 25.6745C93.844 26.2256 94.4716 26.5012 95.2217 26.5012Z" fill="#535D79"/>
<path d="M105.296 15.5709C104.607 15.5709 104.041 15.3719 103.597 14.9739C103.168 14.5605 102.954 14.0554 102.954 13.4583C102.954 12.846 103.168 12.3408 103.597 11.9428C104.041 11.5294 104.607 11.3228 105.296 11.3228C105.97 11.3228 106.521 11.5294 106.95 11.9428C107.394 12.3408 107.616 12.846 107.616 13.4583C107.616 14.0554 107.394 14.5605 106.95 14.9739C106.521 15.3719 105.97 15.5709 105.296 15.5709ZM107.248 16.9028V29.716H103.321V16.9028H107.248Z" fill="#535D79"/>
<path d="M113.331 18.7168C113.714 18.1198 114.242 17.6375 114.915 17.2701C115.589 16.9027 116.377 16.719 117.281 16.719C118.337 16.719 119.294 16.9869 120.151 17.5227C121.009 18.0585 121.682 18.824 122.172 19.819C122.677 20.8141 122.93 21.9699 122.93 23.2864C122.93 24.603 122.677 25.7664 122.172 26.7768C121.682 27.7719 121.009 28.5449 120.151 29.096C119.294 29.6319 118.337 29.8998 117.281 29.8998C116.393 29.8998 115.604 29.716 114.915 29.3486C114.242 28.9812 113.714 28.5066 113.331 27.9249V35.8242H109.404V16.9027H113.331V18.7168ZM118.934 23.2864C118.934 22.3066 118.659 21.5412 118.107 20.9901C117.572 20.4236 116.905 20.1404 116.11 20.1404C115.329 20.1404 114.663 20.4236 114.112 20.9901C113.576 21.5565 113.309 22.3296 113.309 23.3093C113.309 24.2891 113.576 25.0622 114.112 25.6286C114.663 26.1951 115.329 26.4782 116.11 26.4782C116.891 26.4782 117.556 26.1951 118.107 25.6286C118.659 25.0469 118.934 24.2662 118.934 23.2864Z" fill="#535D79"/>
<path d="M129.513 29.8998C128.396 29.8998 127.401 29.7084 126.529 29.3256C125.656 28.943 124.967 28.4224 124.462 27.7642C123.957 27.0906 123.673 26.3404 123.612 25.5138H127.493C127.539 25.9578 127.746 26.3175 128.113 26.5931C128.48 26.8687 128.932 27.0064 129.468 27.0064C129.958 27.0064 130.332 26.9145 130.593 26.7309C130.869 26.5319 131.007 26.2792 131.007 25.9731C131.007 25.6056 130.815 25.3378 130.432 25.1693C130.049 24.9856 129.429 24.7866 128.572 24.5723C127.653 24.358 126.888 24.136 126.276 23.9064C125.663 23.6614 125.136 23.2864 124.691 22.7812C124.248 22.2608 124.026 21.5642 124.026 20.6915C124.026 19.9568 124.225 19.2909 124.622 18.6938C125.036 18.0815 125.633 17.5992 126.413 17.2471C127.21 16.895 128.151 16.719 129.238 16.719C130.846 16.719 132.109 17.117 133.027 17.9131C133.961 18.7091 134.497 19.7654 134.635 21.082H131.007C130.945 20.638 130.746 20.2859 130.409 20.0256C130.088 19.7654 129.659 19.6353 129.123 19.6353C128.665 19.6353 128.312 19.7271 128.067 19.9109C127.822 20.0792 127.7 20.3165 127.7 20.6226C127.7 20.9901 127.891 21.2656 128.273 21.4493C128.671 21.6331 129.285 21.8168 130.111 22.0004C131.06 22.2454 131.833 22.4903 132.43 22.7353C133.027 22.9649 133.548 23.3476 133.991 23.8834C134.451 24.404 134.688 25.1081 134.703 25.996C134.703 26.7462 134.489 27.4198 134.06 28.0168C133.647 28.5985 133.042 29.0578 132.247 29.3945C131.466 29.7313 130.555 29.8998 129.513 29.8998Z" fill="#535D79"/>
<path d="M149.068 16.9027V29.716H145.142V27.9709C144.744 28.5373 144.201 28.9966 143.512 29.3487C142.838 29.6854 142.088 29.8538 141.262 29.8538C140.282 29.8538 139.416 29.6396 138.666 29.2109C137.916 28.7669 137.335 28.1316 136.922 27.3049C136.508 26.4782 136.302 25.5062 136.302 24.3887V16.9027H140.205V23.8604C140.205 24.7178 140.427 25.3837 140.871 25.8582C141.315 26.3329 141.912 26.5701 142.662 26.5701C143.427 26.5701 144.032 26.3329 144.476 25.8582C144.921 25.3837 145.142 24.7178 145.142 23.8604V16.9027H149.068Z" fill="#535D79"/>
<path d="M167.55 16.7649C169.142 16.7649 170.406 17.2471 171.339 18.2115C172.289 19.176 172.763 20.5155 172.763 22.2301V29.716H168.859V22.7582C168.859 21.9315 168.638 21.2963 168.193 20.8523C167.765 20.3931 167.168 20.1634 166.402 20.1634C165.637 20.1634 165.032 20.3931 164.588 20.8523C164.16 21.2963 163.946 21.9315 163.946 22.7582V29.716H160.041V22.7582C160.041 21.9315 159.82 21.2963 159.376 20.8523C158.947 20.3931 158.35 20.1634 157.585 20.1634C156.819 20.1634 156.215 20.3931 155.77 20.8523C155.342 21.2963 155.128 21.9315 155.128 22.7582V29.716H151.201V16.9027H155.128V18.5101C155.526 17.9743 156.046 17.5533 156.689 17.2471C157.332 16.9256 158.059 16.7649 158.87 16.7649C159.834 16.7649 160.692 16.9716 161.442 17.3849C162.208 17.7982 162.804 18.3876 163.233 19.1531C163.678 18.4488 164.282 17.8748 165.048 17.4308C165.813 16.9869 166.648 16.7649 167.55 16.7649Z" fill="#535D79"/>
</svg>
