<svg width="176" height="46" viewBox="0 0 176 46" fill="none" xmlns="http://www.w3.org/2000/svg">
<path d="M62.898 12.2755H59.3159V28.4387H69.2323V25.2716H62.898V12.2755Z" fill="#535D79"/>
<path d="M69.5742 22.9562C69.5742 26.4073 71.8895 28.7007 75.3842 28.7007C78.8572 28.7007 81.1724 26.4073 81.1724 22.9562C81.1724 19.5051 78.8572 17.1899 75.3842 17.1899C71.8895 17.1899 69.5742 19.5051 69.5742 22.9562ZM72.9598 22.9344C72.9598 21.2962 73.9208 20.2041 75.3842 20.2041C76.8258 20.2041 77.7869 21.2962 77.7869 22.9344C77.7869 24.5944 76.8258 25.6865 75.3842 25.6865C73.9208 25.6865 72.9598 24.5944 72.9598 22.9344Z" fill="#535D79"/>
<path d="M81.7135 22.7815C81.7135 26.0796 83.8541 28.3075 86.8901 28.3075C88.3536 28.3075 89.6204 27.7833 90.2538 26.9315V28.4386C90.2538 29.9457 89.3146 30.9505 87.6546 30.9505C86.1693 30.9505 85.1428 30.2515 85.0772 29.0065H81.6699C81.9756 31.9989 84.2909 34.0084 87.458 34.0084C91.1931 34.0084 93.552 31.5839 93.552 27.7396V17.5175H90.5159L90.3412 18.6314C89.7296 17.7359 88.4409 17.1462 86.9557 17.1462C83.8978 17.1462 81.7135 19.4396 81.7135 22.7815ZM85.1209 22.6941C85.1209 21.1215 86.1694 20.073 87.5017 20.073C89.0525 20.073 90.1883 21.0996 90.1883 22.6941C90.1883 24.2886 89.0744 25.3807 87.5236 25.3807C86.1912 25.3807 85.1209 24.2886 85.1209 22.6941Z" fill="#535D79"/>
<path d="M94.5327 22.9562C94.5327 26.4073 96.8479 28.7007 100.343 28.7007C103.816 28.7007 106.131 26.4073 106.131 22.9562C106.131 19.5051 103.816 17.1899 100.343 17.1899C96.8479 17.1899 94.5327 19.5051 94.5327 22.9562ZM97.9182 22.9344C97.9182 21.2962 98.8793 20.2041 100.343 20.2041C101.784 20.2041 102.745 21.2962 102.745 22.9344C102.745 24.5944 101.784 25.6865 100.343 25.6865C98.8793 25.6865 97.9182 24.5944 97.9182 22.9344Z" fill="#535D79"/>
<path d="M109.031 15.8139C110.079 15.8139 110.931 14.9621 110.931 13.8918C110.931 12.8215 110.079 11.9915 109.031 11.9915C107.961 11.9915 107.109 12.8215 107.109 13.8918C107.109 14.9621 107.961 15.8139 109.031 15.8139ZM107.327 28.4387H110.713V17.5176H107.327V28.4387Z" fill="#535D79"/>
<path d="M112.683 33.6808H116.003V27.3466C116.637 28.1766 118.078 28.7445 119.586 28.7445C122.84 28.7445 124.806 26.2545 124.718 22.8034C124.631 19.2868 122.6 17.1681 119.564 17.1681C118.013 17.1681 116.55 17.8452 115.938 18.85L115.763 17.5176H112.683V33.6808ZM116.069 22.9781C116.069 21.34 117.161 20.2479 118.734 20.2479C120.328 20.2479 121.333 21.3618 121.333 22.9781C121.333 24.5945 120.328 25.7084 118.734 25.7084C117.161 25.7084 116.069 24.6163 116.069 22.9781Z" fill="#535D79"/>
<path d="M125.077 24.9876C125.164 27.1937 126.912 28.7226 129.664 28.7226C132.307 28.7226 134.142 27.3247 134.142 25.075C134.142 23.4587 133.18 22.3884 131.389 21.9516L129.445 21.471C128.746 21.2963 128.31 21.1216 128.31 20.5537C128.31 19.9858 128.768 19.6144 129.445 19.6144C130.21 19.6144 130.712 20.1168 130.69 20.8595H133.727C133.639 18.5879 131.914 17.1681 129.511 17.1681C127.086 17.1681 125.274 18.6097 125.274 20.7939C125.274 22.2574 126.082 23.4587 128.244 24.0266L130.166 24.5289C130.734 24.6818 130.974 24.9439 130.974 25.3153C130.974 25.8613 130.472 26.2108 129.62 26.2108C128.637 26.2108 128.113 25.7521 128.113 24.9876H125.077Z" fill="#535D79"/>
<path d="M139.29 28.7226C140.623 28.7226 141.955 28.1111 142.632 27.2155L142.851 28.4387H146.018V17.5176H142.654V23.1966C142.654 24.8347 142.173 25.7303 140.623 25.7303C139.421 25.7303 138.635 25.1842 138.635 23.1529V17.5176H135.271V24.376C135.271 26.9753 136.713 28.7226 139.29 28.7226Z" fill="#535D79"/>
<path d="M151.352 28.4386V22.4757C151.352 20.6409 152.335 20.1167 153.296 20.1167C154.366 20.1167 155.065 20.772 155.065 22.1262V28.4386H158.385V22.4757C158.385 20.6191 159.346 20.0949 160.307 20.0949C161.377 20.0949 162.098 20.7501 162.098 22.1262V28.4386H165.375V21.2962C165.375 18.8062 164.064 17.1462 161.246 17.1462C159.674 17.1462 158.385 17.9107 157.817 19.0901C157.162 17.9107 156.026 17.1462 154.213 17.1462C153.012 17.1462 151.898 17.6922 151.243 18.5659L151.112 17.5175H147.966V28.4386H151.352Z" fill="#535D79"/>
<path fill-rule="evenodd" clip-rule="evenodd" d="M34.7595 5.98669C33.4429 4.67072 31.3089 4.67116 29.9929 5.98767L19.0101 16.975L19.0008 16.9722L18.9661 16.9759C18.9804 16.9828 18.9944 16.9896 19.0082 16.9965C17.0815 17.1983 16.2641 17.7773 16.2549 18.5208C16.2581 18.7973 16.3716 19.096 16.58 19.4061L16.57 19.4161C18.3215 22.0578 26.9983 25.5426 33.1369 23.1815C28.5362 25.4818 17.7015 25.9378 14.5192 21.4714C13.8281 22.2191 13.5389 23.2016 13.6478 24.1458C14.4885 28.7794 23.8874 30.0435 33.2864 23.33L35.3203 25.3639C32.7894 27.9641 29.051 43.0673 34.6058 40.7614C34.7376 40.6719 34.8494 40.5919 35.0016 40.4768L35.2491 40.243C35.2349 40.2466 35.2207 40.2499 35.2066 40.2533L50.0837 26.2083C51.4651 24.9042 51.4964 22.7168 50.1528 21.3737L34.7595 5.98669ZM33.1394 10.5638L33.6478 8.52992L34.1563 10.5638L35.6817 11.0723L34.1563 11.5808L33.6478 13.6147L33.1394 11.5808L31.6139 11.0723L33.1394 10.5638ZM26.8457 17.2033L27.1847 15.8474L27.5237 17.2033L28.5407 17.5423L27.5237 17.8813L27.1847 19.2372L26.8457 17.8813L25.8288 17.5423L26.8457 17.2033ZM38.6519 28.6405L38.313 29.9964L37.2961 30.3354L38.313 30.6744L38.6519 32.0303L38.9909 30.6744L40.0079 30.3354L38.9909 29.9964L38.6519 28.6405Z" fill="#535D79"/>
<path fill-rule="evenodd" clip-rule="evenodd" d="M51.2293 7.33264C48.0488 7.33264 45.0325 8.74537 42.9963 11.1887L35.7525 19.8814L39.9354 13.607L32.9921 16.5827C32.1103 16.9606 31.8891 18.1095 32.5674 18.7878L34.8018 21.0221L33.661 22.3911L36.1708 24.9009L37.5397 23.76L39.7741 25.9944C40.4524 26.6727 41.6013 26.4515 41.9792 25.5698L44.9549 18.6265L38.6805 22.8094L47.3732 15.5655C49.8166 13.5294 51.2293 10.5132 51.2293 7.33264ZM44.3275 14.2346C45.0205 14.9276 46.1442 14.9276 46.8372 14.2346C47.5303 13.5415 47.5303 12.4179 46.8372 11.7249C46.1442 11.0318 45.0205 11.0318 44.3275 11.7249C43.6344 12.4179 43.6344 13.5415 44.3275 14.2346Z" fill="#535D79"/>
<path opacity="0.6" d="M14.4385 21.3546C16.1002 27.048 26.2033 26.7511 33.135 23.1824C28.4934 25.5018 17.5135 25.9448 14.4385 21.3546Z" fill="#535D79"/>
<path opacity="0.6" d="M34.606 40.7614C29.9253 42.7044 31.8432 32.2865 34.0769 27.4038C32.4486 31.7438 31.0588 41.3109 35.2493 40.243L35.0017 40.4768C34.8496 40.5919 34.7378 40.6719 34.606 40.7614Z" fill="#535D79"/>
</svg>
