<svg width="176" height="44" viewBox="0 0 176 44" fill="none" xmlns="http://www.w3.org/2000/svg">
<g clip-path="url(#clip0_531_1444)">
<path d="M55.9484 19.9843H47.248C47.1402 19.9844 47.0368 20.0272 46.9606 20.1035C46.8843 20.1797 46.8415 20.2831 46.8414 20.3909V24.6448C46.8415 24.7527 46.8843 24.8561 46.9605 24.9325C47.0367 25.0088 47.1401 25.0518 47.248 25.052H50.6421V30.3368C50.6421 30.3368 49.88 30.5968 47.773 30.5968C45.2872 30.5968 41.8147 29.6883 41.8147 22.0525C41.8147 14.4152 45.4306 13.4101 48.8253 13.4101C51.7638 13.4101 53.0298 13.9277 53.8352 14.1767C54.0883 14.2543 54.3224 14.0025 54.3224 13.7776L55.293 9.66782C55.293 9.56283 55.2575 9.43606 55.1376 9.35004C54.8105 9.11677 52.8148 8 47.773 8C41.9647 8 36.0068 10.4713 36.0068 22.3502C36.0068 34.23 42.8282 36 48.5763 36C53.3357 36 56.2229 33.9661 56.2229 33.9661C56.3419 33.9001 56.3548 33.7339 56.3548 33.6576V20.3907C56.3548 20.1665 56.1729 19.9843 55.9484 19.9843ZM100.787 9.42334C100.787 9.36995 100.777 9.317 100.757 9.26752C100.737 9.21805 100.708 9.17302 100.67 9.13504C100.633 9.09706 100.588 9.06686 100.539 9.04619C100.489 9.02552 100.437 9.01477 100.383 9.01458H95.4841C95.4306 9.01478 95.3777 9.02551 95.3284 9.04616C95.279 9.0668 95.2343 9.09697 95.1966 9.13492C95.1589 9.17288 95.1291 9.21789 95.1088 9.26738C95.0885 9.31686 95.0782 9.36986 95.0784 9.42334L95.0797 18.8906H87.4436V9.42334C87.444 9.36993 87.4339 9.31696 87.4137 9.26749C87.3936 9.21801 87.3639 9.17299 87.3264 9.13502C87.2888 9.09704 87.2441 9.06685 87.1949 9.04618C87.1456 9.02551 87.0928 9.01477 87.0394 9.01458H82.1407C82.0328 9.01515 81.9296 9.05852 81.8537 9.13518C81.7779 9.21183 81.7355 9.31548 81.736 9.42334V35.0581C81.736 35.284 81.9178 35.4679 82.1407 35.4679H87.0394C87.2634 35.4679 87.4436 35.2838 87.4436 35.0581V24.0931H95.0797L95.0663 35.0581C95.0663 35.284 95.2483 35.4679 95.4723 35.4679H100.383C100.607 35.4679 100.787 35.2838 100.787 35.0581V9.42334ZM65.1928 12.7874C65.1928 11.0232 63.7785 9.59775 62.0337 9.59775C60.2907 9.59775 58.8753 11.0232 58.8753 12.7874C58.8753 14.5495 60.2907 15.9786 62.0337 15.9786C63.7785 15.9786 65.1928 14.5495 65.1928 12.7874ZM64.8425 29.6506V17.8176C64.8428 17.7097 64.8002 17.6062 64.7243 17.5296C64.6483 17.453 64.545 17.4096 64.4372 17.4091H59.5538C59.3298 17.4091 59.1293 17.6402 59.1293 17.8651V34.8179C59.1293 35.3164 59.4397 35.4643 59.8416 35.4643H64.2414C64.7241 35.4643 64.8425 35.2271 64.8425 34.8102V29.6506ZM119.405 17.4477H114.543C114.32 17.4477 114.139 17.6314 114.139 17.8575V30.427C114.139 30.427 112.904 31.3307 111.151 31.3307C109.398 31.3307 108.933 30.5354 108.933 28.8191V17.8575C108.933 17.6314 108.752 17.4477 108.529 17.4477H103.595C103.372 17.4477 103.19 17.6314 103.19 17.8575V29.6489C103.19 34.7468 106.031 35.994 109.94 35.994C113.146 35.994 115.732 34.2227 115.732 34.2227C115.732 34.2227 115.855 35.156 115.91 35.2668C115.966 35.3772 116.111 35.4886 116.268 35.4886L119.407 35.4748C119.63 35.4748 119.812 35.2907 119.812 35.0656L119.81 17.8577C119.81 17.6314 119.629 17.4477 119.405 17.4477ZM130.774 31.3152C129.088 31.2639 127.944 30.4985 127.944 30.4985V22.3808C127.944 22.3808 129.072 21.6892 130.457 21.5655C132.207 21.4087 133.894 21.9376 133.894 26.1134C133.894 30.5171 133.133 31.3861 130.774 31.3152ZM132.691 16.872C129.93 16.872 128.052 18.1039 128.052 18.1039V9.42355C128.052 9.19718 127.871 9.01458 127.648 9.01458H122.735C122.682 9.01483 122.629 9.02561 122.58 9.04631C122.53 9.067 122.486 9.0972 122.448 9.13518C122.411 9.17316 122.381 9.21817 122.361 9.26766C122.34 9.31714 122.33 9.37011 122.33 9.42355V35.0581C122.33 35.284 122.512 35.4679 122.736 35.4679H126.145C126.298 35.4679 126.414 35.3888 126.5 35.2504C126.585 35.1126 126.707 34.0685 126.707 34.0685C126.707 34.0685 128.716 35.9722 132.519 35.9722C136.983 35.9722 139.544 33.7076 139.544 25.8062C139.544 17.9045 135.454 16.872 132.691 16.872ZM78.9221 17.4069H75.2474L75.2418 12.552C75.2418 12.3683 75.1471 12.2765 74.9348 12.2765H69.927C69.7323 12.2765 69.6277 12.3623 69.6277 12.5492V17.5662C69.6277 17.5662 67.1183 18.1718 66.9486 18.221C66.8639 18.2455 66.7896 18.2969 66.7367 18.3673C66.6837 18.4378 66.6551 18.5235 66.6552 18.6117V21.7643C66.6552 21.9911 66.8363 22.1734 67.0603 22.1734H69.6277V29.7575C69.6277 35.391 73.5791 35.9444 76.2456 35.9444C77.4639 35.9444 78.9213 35.5533 79.1619 35.464C79.3074 35.4106 79.3919 35.2599 79.3919 35.0965L79.396 31.6284C79.396 31.4021 79.205 31.2195 78.9898 31.2195C78.7757 31.2195 78.2279 31.3066 77.6639 31.3066C75.859 31.3066 75.2474 30.4673 75.2474 29.3809L75.2471 22.1732H78.9221C79.1461 22.1732 79.3274 21.9906 79.3274 21.764V17.815C79.3277 17.7616 79.3174 17.7087 79.2972 17.6592C79.2769 17.6098 79.2471 17.5648 79.2095 17.5269C79.1718 17.489 79.1271 17.4589 79.0777 17.4383C79.0284 17.4177 78.9756 17.407 78.9221 17.4069Z" fill="#535D79"/>
</g>
<defs>
<clipPath id="clip0_531_1444">
<rect width="103.55" height="28" fill="white" transform="translate(36 8)"/>
</clipPath>
</defs>
</svg>
