<svg width="820" height="355" viewBox="0 0 820 355" fill="none" xmlns="http://www.w3.org/2000/svg">
<g opacity="0.2">
<path opacity="0.010101" d="M611.099 -154.516C616.211 -154.472 621.32 -152.057 625.199 -147.853L1412.44 705.358C1420.61 714.208 1420.95 728.08 1413.18 735.387L869.91 1246.45C865.04 1251.03 857.973 1251.98 851.5 1248.92L-285.919 711.441C-292.392 708.382 -297.23 701.808 -298.521 694.315L-442.543 -141.527C-444.603 -153.478 -437.132 -163.658 -426.37 -163.564L611.099 -154.516Z" stroke="white"/>
<path opacity="0.020202" d="M627.929 -153.382C633.053 -153.261 638.108 -150.808 641.893 -146.606L1412.97 709.516C1421 718.434 1420.98 732.29 1412.92 739.46L853.583 1236.85C848.556 1241.33 841.427 1242.17 835.001 1239.05L-296.48 689.988C-302.907 686.869 -307.601 680.29 -308.717 672.838L-432.865 -156.223C-434.655 -168.172 -426.83 -178.244 -415.955 -177.987L627.929 -153.382Z" stroke="white"/>
<path opacity="0.030303" d="M644.627 -152.091C649.764 -151.895 654.77 -149.402 658.462 -145.2L1413.2 713.556C1421.1 722.539 1420.7 736.36 1412.35 743.382L837.182 1227.02C831.999 1231.38 824.808 1232.11 818.427 1228.94L-306.775 668.514C-313.156 665.336 -317.708 658.753 -318.648 651.345L-422.97 -170.725C-424.485 -182.661 -416.308 -192.606 -405.326 -192.187L644.627 -152.091Z" stroke="white"/>
<path opacity="0.040404" d="M661.196 -150.644C666.348 -150.373 671.307 -147.84 674.91 -143.637L1413.14 717.48C1420.89 726.521 1420.13 740.29 1411.49 747.155L820.719 1216.96C815.383 1221.2 808.128 1221.83 801.792 1218.59L-316.792 647.027C-323.129 643.789 -327.541 637.202 -328.305 629.841L-412.852 -185.031C-414.087 -196.939 -405.563 -206.742 -394.48 -206.16L661.196 -150.644Z" stroke="white"/>
<path opacity="0.050505" d="M677.624 -149.047C682.794 -148.702 687.709 -146.126 691.225 -141.92L1412.78 721.284C1420.38 730.377 1419.25 744.075 1410.34 750.774L804.195 1206.66C798.706 1210.79 791.388 1211.31 785.094 1208.01L-326.537 625.529C-332.831 622.231 -337.104 615.642 -337.691 608.33L-402.521 -199.141C-403.473 -211.007 -394.605 -220.652 -383.428 -219.906L677.624 -149.047Z" stroke="white"/>
<path opacity="0.0606061" d="M693.913 -147.301C699.103 -146.882 703.978 -144.263 707.409 -140.052L1412.13 724.965C1419.58 734.105 1418.07 747.713 1408.9 754.239L787.62 1196.14C781.981 1200.15 774.6 1200.56 768.347 1197.2L-335.999 604.028C-342.252 600.669 -346.387 594.078 -346.798 586.819L-391.971 -213.052C-392.638 -224.863 -383.432 -234.333 -372.167 -233.423L693.913 -147.301Z" stroke="white"/>
<path opacity="0.0707071" d="M710.055 -145.409C715.267 -144.916 720.106 -142.253 723.454 -138.034L1411.19 728.523C1418.48 737.704 1416.61 751.205 1407.18 757.548L770.997 1185.39C765.211 1189.29 757.765 1189.58 751.552 1186.16L-345.181 582.529C-351.394 579.109 -355.393 572.516 -355.626 565.312L-381.21 -226.761C-381.589 -238.505 -372.053 -247.784 -360.707 -246.71L710.055 -145.409Z" stroke="white"/>
<path opacity="0.0808081" d="M726.038 -143.384C731.276 -142.817 736.082 -140.107 739.349 -135.88L1409.95 731.945C1417.07 741.162 1414.85 754.538 1405.17 760.691L754.326 1174.41C748.394 1178.19 740.882 1178.37 734.708 1174.88L-354.087 561.027C-360.261 557.546 -364.126 550.953 -364.182 543.806L-370.245 -240.276C-370.335 -251.939 -360.478 -261.011 -349.059 -259.775L726.038 -143.384Z" stroke="white"/>
<path opacity="0.0909091" d="M741.871 -141.218C747.136 -140.577 751.912 -137.819 755.1 -133.58L1408.43 735.242C1415.38 744.489 1412.8 757.722 1402.88 763.678L737.623 1163.22C731.547 1166.87 723.97 1166.93 717.833 1163.39L-362.703 539.541C-368.841 535.997 -372.573 529.403 -372.45 522.317L-359.069 -253.585C-358.869 -265.153 -348.7 -274.004 -337.215 -272.606L741.871 -141.218Z" stroke="white"/>
<path opacity="0.10101" d="M757.543 -138.924C762.837 -138.209 767.587 -135.402 770.697 -131.15L1406.62 738.399C1413.4 747.669 1410.47 760.743 1400.32 766.496L720.888 1151.79C714.671 1155.32 707.028 1155.27 700.926 1151.66L-371.034 518.062C-377.136 514.455 -380.736 507.86 -380.436 500.837L-347.688 -266.696C-347.199 -278.156 -336.729 -286.772 -325.185 -285.212L757.543 -138.924Z" stroke="white"/>
<path opacity="0.111111" d="M773.042 -136.502C778.37 -135.712 783.096 -132.853 786.129 -128.585L1404.51 741.419C1411.11 750.708 1407.85 763.606 1397.49 769.149L704.12 1140.15C697.765 1143.55 690.055 1143.38 683.988 1139.71L-379.084 496.602C-385.152 492.931 -388.621 486.336 -388.144 479.379L-336.113 -279.601C-335.336 -290.941 -324.576 -299.308 -312.981 -297.588L773.042 -136.502Z" stroke="white"/>
<path opacity="0.121212" d="M788.381 -133.956C793.744 -133.09 798.449 -130.177 801.407 -125.892L1402.13 744.3C1408.55 753.601 1404.95 766.308 1394.39 771.637L687.34 1128.29C680.848 1131.57 673.072 1131.28 667.038 1127.54L-386.837 475.165C-392.872 471.429 -396.212 464.834 -395.558 457.946L-324.33 -292.3C-323.266 -303.508 -312.232 -311.612 -300.593 -309.733L788.381 -133.956Z" stroke="white"/>
<path opacity="0.131313" d="M803.537 -131.294C808.937 -130.352 813.626 -127.383 816.51 -123.078L1399.45 747.034C1405.69 756.341 1401.77 768.843 1391.02 773.951L670.536 1116.21C663.911 1119.36 656.067 1118.95 650.065 1115.15L-394.309 453.75C-400.311 449.948 -403.524 443.353 -402.693 436.535L-312.361 -304.796C-311.012 -315.86 -299.717 -323.69 -288.041 -321.654L803.537 -131.294Z" stroke="white"/>
<path opacity="0.141414" d="M818.518 -128.514C823.959 -127.495 828.632 -124.468 831.443 -120.141L1396.5 749.623C1402.54 758.93 1398.32 771.214 1387.39 776.098L653.726 1103.92C646.969 1106.94 639.058 1106.41 633.086 1102.54L-401.486 432.368C-407.458 428.499 -410.543 421.904 -409.536 415.16L-300.194 -317.079C-298.565 -327.988 -287.023 -335.534 -275.319 -333.343L818.518 -128.514Z" stroke="white"/>
<path opacity="0.151515" d="M833.314 -125.625C838.798 -124.528 843.46 -121.439 846.198 -117.089L1393.26 752.061C1399.11 761.362 1394.58 773.416 1383.49 778.072L636.908 1091.41C630.023 1094.3 622.045 1093.65 616.102 1089.71L-408.373 411.018C-414.315 407.082 -417.275 400.487 -416.093 393.819L-287.84 -329.155C-285.935 -339.898 -274.162 -347.15 -262.436 -344.804L833.314 -125.625Z" stroke="white"/>
<path opacity="0.161616" d="M847.924 -122.629C853.455 -121.452 858.107 -118.301 860.773 -113.924L1389.73 754.347C1395.39 763.636 1390.58 775.448 1379.34 779.873L620.092 1078.7C613.08 1081.46 605.035 1080.68 599.121 1076.67L-414.966 389.708C-420.88 385.702 -423.716 379.107 -422.358 372.518L-275.299 -341.017C-273.121 -351.584 -261.134 -358.534 -249.394 -356.037L847.924 -122.629Z" stroke="white"/>
<path opacity="0.171717" d="M862.34 -119.533C867.92 -118.276 872.566 -115.058 875.16 -110.654L1385.93 756.473C1391.39 765.746 1386.31 777.306 1374.93 781.498L603.278 1065.77C596.143 1068.4 588.031 1067.5 582.145 1063.42L-421.27 368.438C-427.155 364.361 -429.868 357.766 -428.335 351.258L-262.578 -352.669C-260.133 -363.05 -247.949 -369.69 -236.202 -367.043L862.34 -119.533Z" stroke="white"/>
<path opacity="0.181818" d="M876.565 -116.334C882.197 -114.994 886.838 -111.708 889.361 -107.273L1381.85 758.446C1387.11 767.696 1381.78 778.996 1370.27 782.953L586.478 1052.64C579.224 1055.14 571.045 1054.11 565.187 1049.96L-427.274 347.219C-433.133 343.071 -435.722 336.476 -434.016 330.051L-249.673 -364.099C-246.968 -374.286 -234.604 -380.611 -222.857 -377.817L876.565 -116.334Z" stroke="white"/>
<path opacity="0.191919" d="M890.59 -113.046C896.276 -111.623 900.915 -108.265 903.366 -103.798L1377.5 760.252C1382.56 769.474 1376.97 780.505 1365.36 784.227L569.693 1039.31C562.321 1041.67 554.075 1040.51 548.244 1036.29L-432.987 326.046C-438.818 321.825 -441.287 315.23 -439.408 308.891L-236.595 -375.317C-233.636 -385.301 -221.109 -391.306 -209.37 -388.367L890.59 -113.046Z" stroke="white"/>
<path opacity="0.20202" d="M904.414 -109.663C910.157 -108.155 914.796 -104.722 917.175 -100.222L1372.87 761.898C1377.72 771.086 1371.91 781.842 1360.21 785.328L552.931 1025.78C545.445 1028.01 537.133 1026.71 531.328 1022.42L-438.402 304.932C-444.207 300.637 -446.555 294.042 -444.504 287.792L-223.343 -386.311C-220.137 -396.085 -207.465 -401.766 -195.74 -398.686L904.414 -109.663Z" stroke="white"/>
<path opacity="0.212121" d="M918.029 -106.197C923.832 -104.601 928.472 -101.092 930.779 -96.5553L1367.96 763.374C1372.61 772.524 1366.58 782.999 1354.8 786.25L536.191 1012.04C528.594 1014.14 520.218 1012.71 514.439 1008.34L-443.525 283.876C-449.304 279.506 -451.532 272.911 -449.31 266.75L-209.927 -397.086C-206.48 -406.643 -193.682 -411.998 -181.978 -408.778L918.029 -106.197Z" stroke="white"/>
<path opacity="0.222222" d="M931.438 -102.649C937.303 -100.963 941.947 -97.3738 944.18 -92.8L1362.79 764.68C1367.23 773.786 1361 783.976 1349.15 786.993L519.487 998.115C511.782 1000.08 503.341 998.516 497.588 994.069L-448.348 262.883C-454.101 258.436 -456.21 251.841 -453.819 245.773L-196.343 -407.637C-192.665 -416.972 -179.756 -421.999 -168.081 -418.643L931.438 -102.649Z" stroke="white"/>
<path opacity="0.232323" d="M944.632 -99.0276C950.561 -97.2507 955.211 -93.5775 957.369 -88.9646L1357.34 765.809C1361.58 774.866 1355.17 784.768 1343.26 787.551L502.817 983.99C495.008 985.815 486.504 984.119 480.777 979.594L-452.878 241.952C-458.604 237.428 -460.595 230.832 -458.035 224.86L-182.602 -417.968C-178.7 -427.075 -165.699 -431.774 -154.058 -428.286L944.632 -99.0276Z" stroke="white"/>
<path opacity="0.242424" d="M957.61 -95.3301C963.606 -93.4597 968.262 -89.7 970.345 -85.0464L1351.63 766.765C1355.66 775.768 1349.07 785.381 1337.13 787.932L486.188 969.676C478.278 971.366 469.712 969.532 464.011 964.928L-457.111 221.096C-462.812 216.492 -464.684 209.897 -461.958 204.021L-168.706 -428.07C-164.589 -436.945 -151.514 -441.317 -139.913 -437.698L957.61 -95.3301Z" stroke="white"/>
<path opacity="0.252525" d="M970.369 -91.564C976.434 -89.5978 981.098 -85.7481 983.104 -81.0524L1345.65 767.542C1349.48 776.487 1342.73 785.808 1330.76 788.131L469.608 955.175C461.6 956.728 452.973 954.754 447.299 950.071L-461.047 200.314C-466.721 195.63 -468.476 189.034 -465.585 183.258L-154.659 -437.945C-150.335 -446.583 -137.202 -450.631 -125.649 -446.885L970.369 -91.564Z" stroke="white"/>
<path opacity="0.262626" d="M982.908 -87.7338C989.044 -85.6695 993.717 -81.7266 995.645 -76.9873L1339.42 768.137C1343.03 777.02 1336.14 786.049 1324.15 788.146L453.082 940.488C444.98 941.904 436.293 939.789 430.646 935.024L-464.685 179.609C-470.332 174.844 -471.97 168.248 -468.915 162.573L-140.464 -447.591C-135.943 -455.991 -122.767 -459.716 -111.268 -455.847L982.908 -87.7338Z" stroke="white"/>
<path opacity="0.272727" d="M995.216 -83.8444C1001.42 -81.6797 1006.11 -77.6401 1007.96 -72.8562L1332.92 768.548C1336.32 777.363 1329.3 786.101 1317.31 787.976L436.608 925.616C428.415 926.897 419.671 924.639 414.051 919.791L-468.032 158.986C-473.652 154.138 -475.173 147.542 -471.956 141.97L-126.135 -457.01C-121.425 -465.167 -108.223 -468.575 -96.7822 -464.586L995.216 -83.8444Z" stroke="white"/>
<path opacity="0.282828" d="M1007.3 -79.8987C1013.58 -77.631 1018.28 -73.4915 1020.04 -68.6616L1326.17 768.772C1329.36 777.516 1322.22 785.965 1310.24 787.62L420.199 910.566C411.919 911.709 403.119 909.307 397.527 904.376L-471.079 138.448C-476.671 133.517 -478.076 126.921 -474.698 121.454L-111.666 -466.197C-106.776 -474.112 -93.5639 -477.205 -82.1875 -473.099L1007.3 -79.8987Z" stroke="white"/>
<path opacity="0.292929" d="M1019.14 -75.9033C1025.51 -73.53 1030.21 -69.2871 1031.89 -64.4103L1319.15 768.805C1322.14 777.475 1314.9 785.635 1302.93 787.076L403.852 895.336C395.488 896.343 386.635 893.795 381.072 888.779L-473.837 117.998C-479.4 112.982 -480.688 106.386 -477.153 101.026L-97.0715 -475.156C-92.0121 -482.826 -78.8036 -485.611 -67.4971 -481.392L1019.14 -75.9033Z" stroke="white"/>
<path opacity="0.30303" d="M1030.76 -71.8569C1037.2 -69.3755 1041.92 -65.0255 1043.52 -60.101L1311.9 768.651C1314.68 777.242 1307.34 785.117 1295.4 786.348L387.584 879.935C379.14 880.806 370.235 878.11 364.702 873.009L-476.292 97.6439C-481.825 92.5429 -482.998 85.9468 -479.306 80.6955L-82.3455 -483.879C-77.125 -491.304 -63.9346 -493.786 -52.7032 -489.457L1030.76 -71.8569Z" stroke="white"/>
<path opacity="0.313131" d="M1042.14 -67.7738C1048.66 -65.1816 1053.39 -60.7211 1054.89 -55.7479L1304.38 768.297C1306.96 776.805 1299.53 784.398 1287.63 785.423L371.385 864.357C362.864 865.091 353.91 862.247 348.408 857.059L-478.462 77.3798C-483.964 72.1921 -485.02 65.5962 -481.174 60.4554L-67.5084 -492.377C-62.1361 -499.557 -48.9771 -501.743 -37.8258 -497.308L1042.14 -67.7738Z" stroke="white"/>
<path opacity="0.323232" d="M1053.28 -63.647C1059.88 -60.9411 1064.62 -56.3665 1066.04 -51.344L1296.63 767.752C1299 776.175 1291.5 783.489 1279.65 784.313L355.277 848.615C346.684 849.213 337.683 846.219 332.213 840.943L-480.328 57.2206C-485.798 51.9453 -486.738 45.3497 -482.739 40.3209L-52.5474 -500.638C-47.0323 -507.573 -33.9174 -509.469 -22.8511 -504.932L1053.28 -63.647Z" stroke="white"/>
<path opacity="0.333333" d="M1064.18 -59.4862C1070.86 -56.6641 1075.61 -51.9716 1076.93 -46.8994L1288.63 767.008C1290.8 775.342 1283.24 782.382 1271.45 783.011L339.249 832.707C330.587 833.169 321.541 830.024 316.106 824.66L-481.908 37.1638C-487.344 31.8 -488.169 25.2048 -484.019 20.2895L-37.4842 -508.668C-31.8353 -515.359 -18.7766 -516.973 -7.79975 -512.336L1064.18 -59.4862Z" stroke="white"/>
<path opacity="0.343434" d="M1074.83 -55.2958C1081.59 -52.3546 1086.36 -47.5405 1087.58 -42.4182L1280.39 766.065C1282.36 774.307 1274.75 781.077 1263.02 781.515L323.312 816.636C314.584 816.963 305.498 813.665 300.097 808.212L-483.197 17.213C-488.597 11.7598 -489.306 5.16511 -485.009 0.364778L-22.3192 -516.466C-16.5454 -522.916 -3.55421 -524.255 7.32868 -519.522L1074.83 -55.2958Z" stroke="white"/>
<path opacity="0.353535" d="M1085.23 -51.0803C1092.08 -48.0172 1096.86 -43.078 1097.98 -37.9053L1271.92 764.918C1273.69 773.065 1266.03 779.57 1254.38 779.824L307.474 800.405C298.684 800.596 289.559 797.145 284.196 791.602L-484.192 -2.62923C-489.555 -8.17261 -490.148 -14.7666 -485.705 -19.4506L-7.05457 -524.034C-1.16452 -530.243 11.7486 -531.315 22.5333 -526.491L1085.23 -51.0803Z" stroke="white"/>
<path opacity="0.363636" d="M1095.39 -46.8418C1102.32 -43.6538 1107.11 -38.5856 1108.13 -33.3623L1263.22 763.569C1264.78 771.618 1257.09 777.864 1245.52 777.938L291.736 784.019C282.887 784.075 273.727 780.47 268.403 774.836L-484.897 -22.3567C-490.222 -27.991 -490.698 -34.5843 -486.112 -39.1506L8.30152 -531.369C14.2993 -537.34 27.1243 -538.154 37.8068 -533.241L1095.39 -46.8418Z" stroke="white"/>
<path opacity="0.373737" d="M1105.29 -42.5879C1112.31 -39.2723 1117.11 -34.0712 1118.02 -28.7975L1254.28 762.012C1255.65 769.962 1247.93 775.953 1236.45 775.853L276.099 767.478C267.196 767.4 258.003 763.639 252.72 757.913L-485.318 -41.9701C-490.602 -47.6963 -490.962 -54.2886 -486.234 -58.7361L23.7388 -538.476C29.8359 -544.212 42.5635 -544.775 53.14 -539.777L1105.29 -42.5879Z" stroke="white"/>
<path opacity="0.383838" d="M1114.94 -38.3189C1122.04 -34.8727 1126.85 -29.5351 1127.65 -24.2111L1245.12 760.251C1246.29 768.097 1238.56 773.84 1227.17 773.572L260.576 750.789C251.622 750.578 242.401 746.66 237.16 740.842L-485.448 -61.4624C-490.689 -67.2809 -490.932 -73.8721 -486.065 -78.1998L39.2593 -545.351C45.4476 -550.854 58.0694 -551.176 68.5362 -546.097L1114.94 -38.3189Z" stroke="white"/>
<path opacity="0.393939" d="M1124.34 -34.0408C1131.53 -30.4612 1136.34 -24.983 1137.02 -19.6091L1235.74 758.281C1236.72 766.022 1228.97 771.522 1217.68 771.091L245.17 733.953C236.167 733.609 226.921 729.535 221.725 723.623L-485.29 -80.8319C-490.485 -86.7435 -490.611 -93.3334 -485.608 -97.5401L54.8556 -551.998C61.1272 -557.272 73.635 -557.359 83.9887 -552.203L1124.34 -34.0408Z" stroke="white"/>
<path opacity="0.40404" d="M1133.48 -29.7552C1140.75 -26.0392 1145.57 -20.4168 1146.14 -14.9935L1226.14 756.103C1226.93 763.738 1219.18 769 1208 768.413L229.884 716.976C220.837 716.5 211.569 712.268 206.421 706.263L-484.845 -100.073C-489.993 -106.078 -490.001 -112.667 -484.864 -116.752L70.5213 -558.414C76.8686 -563.462 89.2551 -563.325 99.4922 -558.094L1133.48 -29.7552Z" stroke="white"/>
<path opacity="0.414141" d="M1142.36 -25.4716C1149.72 -21.6165 1154.54 -15.8458 1154.98 -10.3737L1216.33 753.712C1216.93 761.237 1209.18 766.268 1198.11 765.529L214.718 699.857C205.631 699.25 196.344 694.86 191.245 688.76L-484.121 -119.189C-489.219 -125.288 -489.108 -131.875 -483.84 -135.837L86.2455 -564.606C92.661 -569.432 104.92 -569.079 115.037 -563.777L1142.36 -25.4716Z" stroke="white"/>
<path opacity="0.424242" d="M1150.98 -21.1939C1158.42 -17.1967 1163.25 -11.274 1163.56 -5.75385L1206.3 751.106C1206.72 758.519 1198.97 763.325 1188.02 762.441L199.677 682.599C190.552 681.861 181.251 677.312 176.205 671.118L-483.118 -138.175C-488.164 -144.368 -487.934 -150.954 -482.537 -154.792L102.023 -570.576C108.499 -575.183 120.624 -574.622 130.619 -569.253L1150.98 -21.1939Z" stroke="white"/>
<path opacity="0.434343" d="M1159.34 -16.9176C1166.87 -12.7756 1171.69 -6.69691 1171.87 -1.12982L1196.08 748.291C1196.31 755.592 1188.57 760.179 1177.74 759.154L184.775 665.213C175.616 664.347 166.304 659.638 161.313 653.349L-481.828 -157.02C-486.819 -163.309 -486.469 -169.892 -480.946 -173.606L117.857 -576.316C124.388 -580.708 136.373 -579.948 146.242 -574.516L1159.34 -16.9176Z" stroke="white"/>
<path opacity="0.444444" d="M1167.43 -12.6582C1175.04 -8.36838 1179.86 -2.12989 1179.9 3.48307L1185.64 745.257C1185.7 752.443 1177.97 756.816 1167.26 755.657L170.003 647.693C160.814 646.698 151.496 641.829 146.562 635.445L-480.266 -175.734C-485.199 -182.118 -484.729 -188.699 -479.082 -192.288L133.73 -581.838C140.309 -586.02 152.149 -585.069 161.89 -579.577L1167.43 -12.6582Z" stroke="white"/>
<path opacity="0.454545" d="M1175.26 -8.41321C1182.95 -3.97279 1187.77 2.42936 1187.67 8.08695L1175.01 742.009C1174.89 749.079 1167.18 753.243 1156.6 751.956L155.376 630.047C146.159 628.925 136.839 623.896 131.966 617.416L-478.424 -194.305C-483.297 -200.785 -482.705 -207.364 -476.937 -210.828L149.645 -587.139C156.265 -591.114 167.955 -589.981 177.566 -584.432L1175.26 -8.41321Z" stroke="white"/>
<path opacity="0.464646" d="M1182.83 -4.18526C1190.6 0.408272 1195.4 6.97803 1195.16 12.6787L1164.19 738.546C1163.89 745.499 1156.21 749.461 1145.76 748.05L140.895 612.282C131.655 611.034 122.336 605.844 117.527 599.268L-476.306 -212.732C-481.115 -219.308 -480.401 -225.883 -474.515 -229.221L165.595 -592.218C172.25 -595.992 183.787 -594.684 193.265 -589.082L1182.83 -4.18526Z" stroke="white"/>
<path opacity="0.474747" d="M1190.12 0.019571C1197.97 4.76895 1202.77 11.5102 1202.37 17.2523L1153.18 734.867C1152.71 741.7 1145.05 745.467 1134.74 743.937L126.565 594.398C117.303 593.025 107.99 587.674 103.248 581.002L-473.915 -231.012C-478.658 -237.684 -477.82 -244.256 -471.817 -247.468L181.573 -597.079C188.256 -600.655 199.637 -599.181 208.979 -593.53L1190.12 0.019571Z" stroke="white"/>
<path opacity="0.484848" d="M1197.15 4.19673C1205.08 9.10463 1209.86 16.0211 1209.31 21.8029L1141.98 730.97C1141.34 737.683 1133.72 741.258 1123.54 739.616L112.387 576.399C103.107 574.902 93.8047 569.39 89.1325 562.622L-471.255 -249.144C-475.927 -255.912 -474.965 -262.481 -468.849 -265.566L197.571 -601.726C204.277 -605.109 215.498 -603.476 224.703 -597.778L1197.15 4.19673Z" stroke="white"/>
<path opacity="0.494949" d="M1203.91 8.34096C1211.92 13.4099 1216.67 20.5052 1215.96 26.3248L1130.6 726.853C1129.8 733.444 1122.21 736.834 1112.17 735.084L98.3658 558.287C89.0714 556.666 79.784 550.994 75.1853 544.129L-468.326 -267.126C-472.925 -273.99 -471.837 -280.556 -465.61 -283.514L213.585 -606.161C220.309 -609.355 231.367 -607.572 240.433 -601.831L1203.91 8.34096Z" stroke="white"/>
<path opacity="0.50505" d="M1210.4 12.4492C1218.48 17.6816 1223.21 24.9596 1222.34 30.8147L1119.05 722.515C1118.08 728.985 1110.53 732.195 1100.63 730.341L84.5059 540.065C75.1997 538.323 65.9319 532.49 61.41 525.529L-465.131 -284.955C-469.653 -291.916 -468.438 -298.478 -462.103 -301.309L229.608 -610.385C236.346 -613.396 247.238 -611.469 256.163 -605.688L1210.4 12.4492Z" stroke="white"/>
<path opacity="0.515152" d="M1216.62 16.5187C1224.77 21.917 1229.47 29.3812 1228.43 35.2696L1107.32 717.959C1106.19 724.305 1098.68 727.341 1088.92 725.389L70.8121 521.74C61.497 519.877 52.2535 513.883 47.8121 506.827L-461.672 -302.628C-466.113 -309.685 -464.77 -316.243 -458.329 -318.946L245.637 -614.4C252.383 -617.231 263.108 -615.168 271.89 -609.35L1216.62 16.5187Z" stroke="white"/>
<path opacity="0.525253" d="M1222.57 20.5448C1230.79 26.1111 1235.45 33.7652 1234.23 39.6843L1095.43 713.183C1094.14 719.405 1086.67 722.271 1077.06 720.226L57.2875 503.313C47.9663 501.331 38.7517 495.177 34.3945 488.025L-457.951 -320.144C-462.309 -327.296 -460.835 -333.849 -454.291 -336.425L261.665 -618.209C268.414 -620.865 278.971 -618.673 287.608 -612.822L1222.57 20.5448Z" stroke="white"/>
<path opacity="0.535354" d="M1228.25 24.5264C1236.53 30.263 1241.16 38.1105 1239.76 44.0575L1083.37 708.188C1081.93 714.286 1074.5 716.987 1065.03 714.854L43.9358 484.792C34.6112 482.691 25.4305 476.378 21.1613 469.13L-453.972 -337.496C-458.241 -344.744 -456.636 -351.292 -449.991 -353.74L277.686 -621.811C284.434 -624.297 294.821 -621.983 303.313 -616.101L1228.25 24.5264Z" stroke="white"/>
<path opacity="0.545455" d="M1233.65 28.4536C1242 34.3625 1246.58 42.4066 1244.99 48.3787L1071.15 702.97C1069.57 708.942 1062.18 711.484 1052.85 709.266L30.7585 466.174C21.4334 463.956 12.2918 457.483 8.1145 450.14L-449.738 -354.69C-453.915 -362.033 -452.178 -368.575 -445.434 -370.895L293.693 -625.216C300.436 -627.536 310.652 -625.107 318.997 -619.198L1233.65 28.4536Z" stroke="white"/>
<path opacity="0.555556" d="M1238.79 32.3309C1247.2 38.4139 1251.72 46.6579 1249.94 52.6521L1058.79 697.535C1057.05 703.381 1049.71 705.768 1040.53 703.47L17.7668 447.47C8.44395 445.137 -0.653978 438.505 -4.73515 431.067L-445.245 -371.714C-449.326 -379.152 -447.454 -385.688 -440.615 -387.88L309.687 -628.417C316.422 -630.576 326.466 -628.037 334.663 -622.104L1238.79 32.3309Z" stroke="white"/>
<path opacity="0.565657" d="M1243.65 36.1465C1252.11 42.4055 1256.57 50.8523 1254.6 56.8654L1046.27 691.875C1044.39 697.596 1037.1 699.832 1028.06 697.459L4.9527 428.677C-4.36541 426.229 -13.4142 419.439 -17.3952 411.907L-440.507 -388.575C-444.488 -396.107 -442.479 -402.636 -435.546 -404.701L325.653 -631.425C332.375 -633.427 342.246 -630.786 350.294 -624.831L1243.65 36.1465Z" stroke="white"/>
<path opacity="0.575758" d="M1248.24 39.9039C1256.75 46.3404 1261.15 54.9929 1258.98 61.0214L1033.61 685.998C1031.59 691.592 1024.35 693.683 1015.46 691.238L-7.66687 409.805C-16.9775 407.244 -25.9721 400.297 -29.8486 392.672L-435.513 -405.264C-439.389 -412.889 -437.243 -419.411 -430.219 -421.349L341.597 -634.236C348.303 -636.086 358.003 -633.347 365.9 -627.375L1248.24 39.9039Z" stroke="white"/>
<path opacity="0.585859" d="M1252.56 43.5967C1261.12 50.2123 1265.44 59.0732 1263.06 65.1135L1020.8 679.901C1018.65 685.369 1011.46 687.319 1002.71 684.806L-20.1027 390.856C-29.4035 388.182 -38.3384 381.078 -42.106 373.361L-430.281 -421.782C-434.048 -429.5 -431.761 -436.014 -424.649 -437.824L357.501 -636.855C364.188 -638.557 373.715 -635.727 381.461 -629.74L1252.56 43.5967Z" stroke="white"/>
<path opacity="0.59596" d="M1256.6 47.219C1265.2 54.0148 1269.45 63.0866 1266.86 69.1349L1007.87 673.582C1005.58 678.923 998.436 680.735 989.837 678.158L-32.3428 371.829C-41.631 369.046 -50.5009 361.786 -54.1551 353.977L-424.804 -438.13C-428.458 -445.939 -426.029 -452.444 -418.83 -454.126L373.367 -639.288C380.032 -640.846 389.387 -637.931 396.982 -631.931L1256.6 47.219Z" stroke="white"/>
<path opacity="0.606061" d="M1260.38 50.7706C1269.02 57.7477 1273.17 67.0325 1270.36 73.0848L994.803 667.044C992.384 672.257 985.292 673.937 976.837 671.3L-44.3841 352.734C-53.6576 349.841 -62.457 342.427 -65.993 334.527L-419.086 -454.302C-422.622 -462.201 -420.049 -468.696 -412.766 -470.252L389.191 -641.534C395.83 -642.953 405.015 -639.958 412.457 -633.948L1260.38 50.7706Z" stroke="white"/>
<path opacity="0.616162" d="M1263.88 54.2476C1272.55 61.4068 1276.61 70.9065 1273.58 76.9586L981.614 660.286C979.068 665.373 972.029 666.924 963.717 664.23L-56.2241 333.572C-65.4804 330.571 -74.2037 323.004 -77.6169 315.015L-413.131 -470.297C-416.544 -478.286 -413.824 -484.77 -406.46 -486.199L404.966 -643.597C411.578 -644.88 420.592 -641.81 427.882 -635.793L1263.88 54.2476Z" stroke="white"/>
<path opacity="0.626263" d="M1267.11 57.6436C1275.81 64.9856 1279.76 74.702 1276.51 80.7495L968.301 653.307C965.631 658.267 958.644 659.693 950.476 656.945L-67.8647 314.344C-77.1014 311.237 -85.7429 303.518 -89.0284 295.441L-406.946 -486.117C-410.232 -494.194 -407.362 -500.666 -399.919 -501.968L420.682 -645.483C427.264 -646.634 436.109 -643.494 443.246 -637.473L1267.11 57.6436Z" stroke="white"/>
<path opacity="0.636364" d="M1270.07 60.9614C1278.79 68.4867 1282.63 78.4208 1279.14 84.4593L954.874 646.112C952.084 650.945 945.149 652.25 937.123 649.452L-79.298 295.061C-88.5128 291.848 -97.0667 283.98 -100.22 275.817L-400.53 -501.755C-403.683 -509.918 -400.663 -516.377 -393.143 -517.552L436.34 -647.188C442.89 -648.212 451.566 -645.007 458.55 -638.983L1270.07 60.9614Z" stroke="white"/>
<path opacity="0.646465" d="M1272.76 64.1931C1281.5 71.9018 1285.22 82.0545 1281.49 88.0792L941.338 638.697C938.43 643.404 931.549 644.591 923.664 641.745L-90.5205 275.721C-99.711 272.405 -108.172 264.388 -111.187 256.14L-393.886 -517.213C-396.901 -525.461 -393.727 -531.906 -386.132 -532.955L451.934 -648.721C458.45 -649.621 466.959 -646.355 473.789 -640.332L1272.76 64.1931Z" stroke="white"/>
<path opacity="0.656566" d="M1275.18 67.3372C1283.94 75.2293 1287.51 85.6011 1283.55 91.6071L927.695 631.065C924.673 635.646 917.845 636.719 910.099 633.829L-101.533 256.331C-110.698 252.911 -119.059 244.748 -121.931 236.417L-387.02 -532.49C-389.893 -540.821 -386.562 -547.249 -378.895 -548.172L467.456 -650.083C473.936 -650.864 482.279 -647.541 488.956 -641.521L1275.18 67.3372Z" stroke="white"/>
<path opacity="0.666667" d="M1277.34 70.3938C1286.1 78.4688 1289.53 89.0597 1285.32 95.0419L913.956 623.219C910.822 627.675 904.047 628.636 896.44 625.704L-112.327 236.895C-121.462 233.374 -129.718 225.067 -132.442 216.656L-379.93 -547.58C-382.654 -555.992 -379.164 -562.402 -371.427 -563.2L482.907 -651.275C489.35 -651.939 497.529 -648.564 504.054 -642.549L1277.34 70.3938Z" stroke="white"/>
<path opacity="0.676768" d="M1279.23 73.3541C1287.99 81.6114 1291.26 92.4208 1286.81 98.3741L900.118 615.153C896.877 619.485 890.155 620.338 882.685 617.367L-122.906 217.414C-132.01 213.792 -140.155 205.344 -142.725 196.854L-372.625 -562.489C-375.196 -570.979 -371.544 -577.37 -363.74 -578.043L498.276 -652.304C504.68 -652.856 512.697 -649.432 519.069 -643.424L1279.23 73.3541Z" stroke="white"/>
<path opacity="0.686869" d="M1280.86 76.2184C1289.61 84.6571 1292.71 95.6839 1288 101.603L886.193 606.873C882.847 611.08 876.178 611.829 868.843 608.821L-133.262 197.893C-142.334 194.173 -150.361 185.585 -152.772 177.019L-365.105 -577.212C-367.517 -585.778 -363.701 -592.148 -355.831 -592.695L513.563 -653.172C519.927 -653.615 527.784 -650.146 534.003 -644.148L1280.86 76.2184Z" stroke="white"/>
<path opacity="0.69697" d="M1282.22 78.9839C1290.95 87.6027 1293.88 98.8452 1288.91 104.724L872.182 598.378C868.735 602.462 862.117 603.109 854.915 600.067L-143.397 178.336C-152.434 174.518 -160.337 165.794 -162.584 157.155L-357.376 -591.749C-359.623 -600.388 -355.64 -606.735 -347.706 -607.158L528.759 -653.882C535.082 -654.22 542.781 -650.709 548.848 -644.722L1282.22 78.9839Z" stroke="white"/>
<path opacity="0.707071" d="M1283.31 81.6491C1292.02 90.4465 1294.76 101.902 1289.53 107.736L858.084 589.671C854.538 593.632 847.972 594.181 840.902 591.106L-153.314 158.749C-162.313 154.835 -170.087 145.976 -172.163 137.268L-349.447 -606.097C-351.524 -614.806 -347.371 -621.127 -339.376 -621.426L543.854 -654.437C550.135 -654.671 557.678 -651.122 563.594 -645.148L1283.31 81.6491Z" stroke="white"/>
<path opacity="0.717172" d="M1284.15 84.2113C1292.83 93.1853 1295.36 104.852 1289.88 110.634L843.92 580.753C840.278 584.592 833.764 585.044 826.823 581.939L-162.994 139.134C-171.954 135.125 -179.591 126.136 -181.493 117.361L-341.306 -620.257C-343.208 -629.032 -338.882 -635.326 -330.828 -635.501L558.86 -654.838C565.098 -654.974 572.488 -651.389 578.253 -645.43L1284.15 84.2113Z" stroke="white"/>
<path opacity="0.727273" d="M1284.73 86.6655C1293.37 95.8139 1295.68 107.687 1289.93 113.412L829.682 571.621C825.947 575.339 819.482 575.698 812.669 572.565L-172.45 119.493C-181.369 115.391 -188.863 106.275 -190.583 97.4362L-332.971 -634.229C-334.691 -643.068 -330.19 -649.33 -322.079 -649.382L573.757 -655.094C579.953 -655.133 587.191 -651.515 592.806 -645.573L1284.73 86.6655Z" stroke="white"/>
<path opacity="0.737374" d="M1285.05 89.0092C1293.65 98.3293 1295.73 110.404 1289.71 116.066L815.377 562.277C811.552 565.876 805.137 566.143 798.45 562.983L-181.674 99.8298C-190.55 95.6357 -197.896 86.3962 -199.429 77.4981L-324.441 -648.014C-325.974 -656.912 -321.294 -663.141 -313.128 -663.07L588.546 -655.206C594.698 -655.153 601.787 -651.505 607.253 -645.581L1285.05 89.0092Z" stroke="white"/>
<path opacity="0.747475" d="M1285.11 91.2436C1293.65 100.732 1295.49 113.004 1289.2 118.596L801.012 552.726C797.099 556.205 790.733 556.384 784.169 553.199L-190.667 80.1515C-199.498 75.8664 -206.689 66.5075 -208.029 57.5541L-315.721 -661.608C-317.061 -670.561 -312.2 -676.754 -303.982 -676.56L603.22 -655.176C609.328 -655.033 616.272 -651.357 621.59 -645.452L1285.11 91.2436Z" stroke="white"/>
<path opacity="0.757576" d="M1284.95 93.3856C1293.43 103.04 1295.01 115.502 1288.45 121.018L786.625 542.988C782.627 546.349 776.308 546.442 769.866 543.233L-199.391 60.4809C-208.175 56.1061 -215.204 46.6318 -216.347 37.6278L-306.779 -674.991C-307.921 -683.995 -302.875 -690.148 -294.607 -689.832L617.81 -654.988C623.875 -654.757 630.675 -651.056 635.846 -645.172L1284.95 93.3856Z" stroke="white"/>
<path opacity="0.767677" d="M1284.5 95.3958C1292.92 105.212 1294.23 117.857 1287.4 123.291L772.159 533.026C768.079 536.271 761.806 536.279 755.482 533.048L-207.908 40.7843C-216.642 36.3212 -223.504 26.736 -224.443 17.686L-297.682 -688.201C-298.621 -697.251 -293.388 -703.36 -285.071 -702.923L632.249 -654.683C638.27 -654.367 644.93 -650.642 649.956 -644.78L1284.5 95.3958Z" stroke="white"/>
<path opacity="0.777778" d="M1283.8 97.2856C1292.14 107.259 1293.17 120.08 1286.06 125.425L757.645 522.856C753.484 525.986 747.256 525.911 741.049 522.659L-216.189 21.0785C-224.872 16.5285 -231.56 6.83724 -232.29 -2.25368L-288.408 -701.224C-289.138 -710.315 -283.715 -716.377 -275.352 -715.818L646.558 -654.251C652.536 -653.852 659.059 -650.105 663.94 -644.267L1283.8 97.2856Z" stroke="white"/>
<path opacity="0.787879" d="M1282.86 99.0564C1291.11 109.182 1291.84 122.17 1284.46 127.42L743.09 512.483C738.851 515.498 732.667 515.343 726.573 512.07L-224.23 1.37076C-232.861 -3.26486 -239.369 -13.0573 -239.884 -22.1837L-278.958 -714.056C-279.474 -723.183 -273.858 -729.193 -265.451 -728.514L660.736 -653.693C666.672 -653.213 673.06 -649.446 677.797 -643.631L1282.86 99.0564Z" stroke="white"/>
<path opacity="0.79798" d="M1281.67 100.712C1289.82 110.986 1290.25 124.129 1282.59 129.278L728.507 501.912C724.192 504.814 718.05 504.581 712.068 501.288L-232.024 -18.3298C-240.599 -23.0497 -246.921 -32.9378 -247.217 -42.0939L-269.329 -726.693C-269.625 -735.849 -263.815 -741.804 -255.366 -741.004L674.785 -653.006C680.679 -652.448 686.936 -648.662 691.531 -642.872L1281.67 100.712Z" stroke="white"/>
<path opacity="0.808081" d="M1280.23 102.245C1288.28 112.661 1288.38 125.95 1280.45 130.99L713.89 491.141C709.501 493.931 703.4 493.621 697.526 490.309L-239.579 -38.0253C-248.098 -42.8281 -254.227 -52.8062 -254.298 -61.9859L-259.535 -739.139C-259.606 -748.319 -253.599 -754.214 -245.11 -753.295L688.69 -652.201C694.543 -651.567 700.672 -647.763 705.127 -641.998L1280.23 102.245Z" stroke="white"/>
<path opacity="0.818182" d="M1278.56 103.655C1286.49 114.208 1286.26 127.63 1278.06 132.555L699.255 480.172C694.794 482.851 688.732 482.466 682.964 479.136L-246.882 -57.711C-255.342 -62.5955 -261.274 -72.6578 -261.115 -81.8545L-249.568 -751.395C-249.41 -760.592 -243.203 -766.422 -234.677 -765.384L702.459 -651.279C708.272 -650.571 714.276 -646.75 718.592 -641.011L1278.56 103.655Z" stroke="white"/>
<path opacity="0.828283" d="M1276.64 104.939C1284.45 115.621 1283.87 129.163 1275.4 133.968L684.595 469.004C680.063 471.574 674.038 471.114 668.373 467.766L-253.945 -77.3856C-262.345 -82.3503 -268.074 -92.4904 -267.681 -101.698L-239.446 -763.462C-239.053 -772.669 -232.646 -778.429 -224.084 -777.273L716.075 -650.248C721.849 -649.468 727.73 -645.63 731.909 -639.917L1276.64 104.939Z" stroke="white"/>
<path opacity="0.838384" d="M1274.49 106.101C1282.17 116.907 1281.23 130.555 1272.49 135.233L669.927 457.646C665.326 460.108 659.336 459.576 653.772 456.21L-260.754 -97.0381C-269.092 -102.082 -274.612 -112.293 -273.981 -121.504L-229.158 -775.334C-228.527 -784.544 -221.916 -790.229 -213.321 -788.954L729.546 -649.103C735.282 -648.252 741.045 -644.399 745.087 -638.711L1274.49 106.101Z" stroke="white"/>
<path opacity="0.848485" d="M1272.09 107.134C1279.63 118.056 1278.33 131.794 1269.32 136.338L655.245 446.093C650.575 448.449 644.619 447.844 639.152 444.46L-267.322 -116.673C-275.595 -121.794 -280.901 -132.07 -280.027 -141.276L-218.721 -787.018C-217.847 -796.224 -211.033 -801.828 -202.406 -800.436L742.855 -647.856C748.556 -646.936 754.203 -643.068 758.111 -637.406L1272.09 107.134Z" stroke="white"/>
<path opacity="0.858586" d="M1269.47 108.042C1276.86 119.074 1275.17 132.886 1265.9 137.29L640.563 434.353C635.827 436.603 629.901 435.928 624.529 432.526L-273.635 -136.28C-281.841 -141.477 -286.93 -151.811 -285.809 -161.005L-208.128 -798.509C-207.008 -807.703 -199.988 -813.221 -191.332 -811.711L756.011 -646.504C761.677 -645.516 767.212 -641.633 770.987 -635.998L1269.47 108.042Z" stroke="white"/>
<path opacity="0.868687" d="M1266.61 108.819C1273.84 119.951 1271.77 133.82 1262.24 138.079L625.883 422.422C621.081 424.568 615.184 423.823 609.905 420.403L-279.696 -155.861C-287.835 -161.133 -292.7 -171.517 -291.33 -180.691L-197.386 -809.812C-196.016 -818.986 -188.79 -824.411 -180.107 -822.785L769.005 -645.057C774.638 -644.002 780.064 -640.105 783.708 -634.495L1266.61 108.819Z" stroke="white"/>
<path opacity="0.878788" d="M1263.52 109.466C1270.59 120.692 1268.12 134.6 1258.33 138.707L611.205 410.306C606.338 412.349 600.468 411.535 595.277 408.096L-285.511 -175.41C-293.58 -180.756 -298.218 -191.181 -296.595 -200.327L-186.504 -820.925C-184.882 -830.071 -177.449 -835.397 -168.741 -833.655L781.828 -643.516C787.43 -642.396 792.751 -638.483 796.265 -632.899L1263.52 109.466Z" stroke="white"/>
<path opacity="0.888889" d="M1260.21 109.982C1267.1 121.293 1264.23 135.22 1254.19 139.17L596.541 398.006C591.608 399.947 585.762 399.064 580.658 395.607L-291.072 -194.923C-299.069 -200.341 -303.476 -210.801 -301.599 -219.91L-175.479 -831.849C-173.602 -840.957 -165.963 -846.179 -157.231 -844.322L794.483 -641.885C800.056 -640.7 805.274 -636.771 808.661 -631.212L1260.21 109.982Z" stroke="white"/>
<path opacity="0.89899" d="M1256.66 110.366C1263.37 121.752 1260.09 135.68 1249.81 139.467L581.893 385.524C576.896 387.365 571.072 386.413 566.051 382.936L-296.379 -214.398C-304.303 -219.887 -308.476 -230.374 -306.341 -239.437L-164.316 -842.584C-162.181 -851.647 -154.336 -856.758 -145.584 -854.786L806.966 -640.168C812.512 -638.919 817.631 -634.975 820.891 -629.44L1256.66 110.366Z" stroke="white"/>
<path opacity="0.909091" d="M1252.9 110.616C1259.41 122.068 1255.72 135.976 1245.2 139.595L567.263 372.861C562.203 374.603 556.398 373.583 551.458 370.085L-301.436 -233.832C-309.284 -239.389 -313.219 -249.895 -310.827 -258.904L-153.02 -853.132C-150.628 -862.14 -142.577 -867.133 -133.806 -865.047L819.269 -638.371C824.79 -637.058 829.814 -633.097 832.949 -627.586L1252.9 110.616Z" stroke="white"/>
<path opacity="0.919192" d="M1248.92 110.735C1255.23 122.244 1251.12 136.111 1240.37 139.557L552.668 360.026C547.543 361.668 541.754 360.581 536.892 357.061L-306.232 -253.216C-314.003 -258.841 -317.698 -269.357 -315.047 -278.302L-141.587 -863.487C-138.935 -872.433 -130.68 -877.301 -121.893 -875.101L831.4 -636.491C836.897 -635.115 841.829 -631.137 844.84 -625.649L1248.92 110.735Z" stroke="white"/>
<path opacity="0.929293" d="M1244.71 110.716C1250.82 122.273 1246.29 136.078 1235.32 139.346L538.098 347.012C532.909 348.558 527.135 347.403 522.347 343.861L-310.777 -272.554C-318.47 -278.245 -321.923 -288.762 -319.012 -297.635L-130.03 -873.658C-127.119 -882.53 -118.661 -887.268 -109.86 -884.955L843.342 -634.539C848.819 -633.1 853.662 -629.103 856.551 -623.638L1244.71 110.716Z" stroke="white"/>
<path opacity="0.939394" d="M1240.29 110.565C1246.18 122.158 1241.23 135.88 1230.05 138.965L523.568 333.83C518.314 335.279 512.551 334.056 507.836 330.49L-315.066 -291.836C-322.678 -297.592 -325.887 -308.103 -322.717 -316.893L-118.345 -883.638C-115.176 -892.429 -106.518 -897.028 -97.7041 -894.604L855.101 -632.514C860.56 -631.012 865.317 -626.996 868.085 -621.552L1240.29 110.565Z" stroke="white"/>
<path opacity="0.949495" d="M1235.64 110.271C1241.31 121.891 1235.95 135.508 1224.55 138.408L509.071 320.475C503.753 321.828 497.997 320.536 493.352 316.945L-319.107 -311.066C-326.636 -316.886 -329.601 -327.381 -326.173 -336.08L-106.547 -893.436C-103.119 -902.135 -94.2634 -906.59 -85.4399 -904.054L866.663 -630.426C872.107 -628.862 876.781 -624.825 879.429 -619.401L1235.64 110.271Z" stroke="white"/>
<path opacity="0.959596" d="M1230.79 109.846C1236.24 121.483 1230.46 134.973 1218.86 137.683L494.63 306.959C489.246 308.218 483.496 306.856 478.918 303.239L-322.883 -330.23C-330.328 -336.112 -333.047 -346.583 -329.363 -355.182L-94.6211 -903.04C-90.9367 -911.639 -81.8868 -915.943 -73.0554 -913.296L878.043 -628.269C883.473 -626.641 888.068 -622.582 890.597 -617.178L1230.79 109.846Z" stroke="white"/>
<path opacity="0.969697" d="M1225.72 109.275C1230.93 120.919 1224.74 134.26 1212.96 136.777L480.234 293.274C474.783 294.438 469.036 293.007 464.522 289.362L-326.409 -349.337C-333.768 -355.28 -336.242 -365.718 -332.303 -374.208L-82.5856 -912.463C-78.647 -920.952 -69.4067 -925.099 -60.5694 -922.342L889.222 -626.058C894.642 -624.367 899.159 -620.285 901.57 -614.898L1225.72 109.275Z" stroke="white"/>
<path opacity="0.979798" d="M1220.45 108.569C1225.42 120.208 1218.83 133.38 1206.87 135.7L465.901 279.432C460.384 280.502 454.636 279.001 450.184 275.326L-329.671 -368.373C-336.942 -374.375 -339.171 -384.773 -334.981 -393.144L-70.4302 -921.694C-66.2402 -930.065 -56.8135 -934.048 -47.9728 -931.182L900.211 -623.787C905.623 -622.032 910.067 -617.925 912.361 -612.555L1220.45 108.569Z" stroke="white"/>
<path opacity="0.989899" d="M1214.96 107.716C1219.69 119.34 1212.7 132.323 1200.57 134.444L451.619 265.428C446.033 266.405 440.281 264.832 435.89 261.127L-332.688 -387.344C-339.87 -393.403 -341.855 -403.752 -337.417 -411.996L-58.1767 -930.743C-53.7389 -938.987 -44.1308 -942.8 -35.2886 -939.825L910.989 -621.468C916.396 -619.649 920.769 -615.514 922.946 -610.161L1214.96 107.716Z" stroke="white"/>
<path d="M1209.27 106.722C1213.74 118.321 1206.37 131.094 1194.09 133.013L437.405 251.271C431.75 252.155 425.992 250.51 421.658 246.772L-335.446 -406.239C-342.536 -412.354 -344.279 -422.646 -339.597 -430.755L-45.8139 -939.602C-41.1322 -947.711 -31.3479 -951.348 -22.5064 -948.265L921.569 -619.099C926.973 -617.215 931.277 -613.051 933.339 -607.712L1209.27 106.722Z" stroke="white"/>
</g>
</svg>
