<svg width="102" height="32" viewBox="0 0 102 32" fill="none" xmlns="http://www.w3.org/2000/svg">
<g clip-path="url(#clip0_531_1742)">
<path d="M20.344 13.5328C20.0024 13.8759 19.7408 14.2901 19.5778 14.7457C19.4148 15.2014 19.3545 15.6873 19.4011 16.1689L19.3849 16.1527C19.4328 16.7196 19.3562 17.2901 19.1605 17.8244C18.9648 18.3586 18.6547 18.8438 18.2518 19.2462C17.8489 19.6484 17.3629 19.9581 16.8277 20.1534C16.2926 20.3488 15.7212 20.4253 15.1535 20.3774L15.1697 20.3936C14.4905 20.3305 13.8084 20.478 13.2163 20.8161C12.6242 21.1543 12.1509 21.6665 11.8611 22.283C11.5713 22.8995 11.4789 23.5902 11.5966 24.261C11.7144 24.9318 12.0365 25.55 12.5191 26.0314C13.0016 26.5127 13.6211 26.8337 14.293 26.9506C14.9651 27.0676 15.6568 26.9747 16.274 26.6849C16.8912 26.3949 17.4038 25.922 17.7419 25.3305C18.08 24.739 18.2272 24.0579 18.1634 23.3798L18.1805 23.396C18.1326 22.8292 18.2091 22.2587 18.4048 21.7243C18.6005 21.1901 18.9107 20.7049 19.3136 20.3026C19.7165 19.9004 20.2025 19.5907 20.7376 19.3954C21.2728 19.2 21.8441 19.1235 22.4119 19.1714L22.3948 19.1552C22.9496 19.2049 23.508 19.1141 24.0183 18.8911C24.5285 18.6681 24.9742 18.32 25.3139 17.8793C25.6535 17.4386 25.8764 16.9193 25.9615 16.3697C26.0467 15.8201 25.9915 15.2579 25.8011 14.7352C25.6107 14.2126 25.2912 13.7463 24.8723 13.3798C24.4534 13.0132 23.9486 12.7581 23.4047 12.6383C22.8608 12.5184 22.2953 12.5374 21.7607 12.6938C21.2262 12.8502 20.7398 13.1387 20.3467 13.5328H20.344Z" fill="#4A6CFD"/>
<path d="M13.6942 18.2712L13.677 18.255C14.1596 18.3035 14.6469 18.2444 15.1038 18.0818C15.5607 17.9193 15.9757 17.6575 16.3188 17.3152C16.6618 16.9729 16.9245 16.5587 17.0876 16.1027C17.2507 15.6466 17.3103 15.1602 17.2621 14.6783L17.2792 14.6945C17.2313 14.1276 17.3079 13.5572 17.5035 13.0228C17.6992 12.4886 18.0094 12.0034 18.4122 11.6011C18.8152 11.1989 19.3012 10.8892 19.8363 10.6939C20.3715 10.4984 20.9428 10.422 21.5106 10.4699L21.4935 10.4537C22.1727 10.5174 22.855 10.3703 23.4475 10.0325C24.04 9.6948 24.5136 9.18281 24.8039 8.56642C25.0941 7.95003 25.1869 7.25925 25.0695 6.58828C24.9522 5.91731 24.6303 5.29884 24.1479 4.8172C23.6655 4.33558 23.0461 4.01424 22.374 3.89704C21.702 3.77983 21.0101 3.87245 20.3927 4.16227C19.7753 4.45209 19.2626 4.925 18.9243 5.5165C18.586 6.10799 18.4387 6.78927 18.5025 7.46741L18.4863 7.45031C18.5343 8.01722 18.4579 8.58777 18.2622 9.12213C18.0666 9.65649 17.7564 10.1418 17.3536 10.5441C16.9506 10.9463 16.4646 11.256 15.9294 11.4513C15.3941 11.6466 14.8227 11.7229 14.2549 11.675L14.2711 11.6921C13.7885 11.6436 13.3011 11.7027 12.8443 11.8652C12.3874 12.0277 11.9724 12.2896 11.6293 12.6319C11.2862 12.9741 11.0236 13.3883 10.8605 13.8444C10.6974 14.3004 10.6378 14.7869 10.686 15.2687L10.6698 15.2525C10.7176 15.8194 10.6409 16.3898 10.4452 16.924C10.2494 17.4582 9.93927 17.9434 9.53641 18.3456C9.13352 18.7478 8.6476 19.0574 8.11254 19.2529C7.57748 19.4483 7.00615 19.5249 6.43841 19.4772L6.45463 19.4934C5.77541 19.4297 5.09304 19.5767 4.5006 19.9145C3.90817 20.2523 3.4345 20.7642 3.14423 21.3806C2.85394 21.997 2.76117 22.6878 2.87856 23.3588C2.99596 24.0297 3.31781 24.6482 3.8002 25.1298C4.2826 25.6115 4.90206 25.9328 5.5741 26.05C6.24614 26.1672 6.93802 26.0746 7.5554 25.7848C8.17277 25.495 8.68557 25.0221 9.02385 24.4306C9.36216 23.839 9.50946 23.1578 9.44564 22.4796L9.46276 22.4958C9.41481 21.9289 9.49143 21.3585 9.68713 20.8242C9.88275 20.2899 10.1929 19.8047 10.5958 19.4024C10.9987 19.0002 11.4847 18.6905 12.0198 18.4952C12.555 18.2998 13.1263 18.2233 13.6942 18.2712Z" fill="#4A6CFD"/>
<path d="M7.65199 16.4651C7.99366 16.122 8.25524 15.7078 8.41808 15.2521C8.58091 14.7964 8.64099 14.3104 8.594 13.8289L8.61112 13.8451C8.56316 13.2781 8.63975 12.7074 8.83555 12.173C9.03136 11.6386 9.34166 11.1533 9.74479 10.751C10.1479 10.3487 10.6341 10.0391 11.1694 9.84384C11.7048 9.64857 12.2764 9.57234 12.8443 9.62047L12.8272 9.60427C13.5062 9.66779 14.1883 9.52064 14.7805 9.18292C15.3726 8.84521 15.846 8.33335 16.1361 7.71715C16.4262 7.10095 16.5189 6.41041 16.4015 5.7397C16.2842 5.06898 15.9623 4.45074 15.4802 3.96929C14.998 3.48783 14.3787 3.1666 13.7069 3.0494C13.0352 2.93219 12.3435 3.02473 11.7264 3.31438C11.1091 3.60402 10.5965 4.07668 10.2583 4.6679C9.91994 5.25912 9.77255 5.94012 9.8362 6.61803L9.81997 6.60183C9.86793 7.1687 9.79131 7.73919 9.5956 8.27348C9.3999 8.80776 9.08982 9.29297 8.6869 9.69524C8.284 10.0975 7.79801 10.4071 7.26288 10.6025C6.72774 10.7979 6.15635 10.8744 5.58857 10.8265L5.6048 10.8427C5.05002 10.793 4.49166 10.884 3.98145 11.1071C3.47125 11.3302 3.02571 11.6784 2.68613 12.1192C2.34654 12.5599 2.1239 13.0792 2.03882 13.6288C1.95375 14.1784 2.009 14.7406 2.19945 15.2631C2.3899 15.7857 2.7094 16.2519 3.12833 16.6183C3.54726 16.9849 4.05207 17.2399 4.59599 17.3598C5.1399 17.4796 5.70531 17.4604 6.23984 17.3041C6.77437 17.1476 7.2607 16.8591 7.65378 16.4651H7.65199Z" fill="#4A6CFD"/>
<path d="M43.1548 11.6378C43.098 11.0649 42.8542 10.6198 42.4233 10.3026C41.9924 9.98532 41.4077 9.8267 40.669 9.8267C40.1671 9.8267 39.7434 9.89773 39.3977 10.0398C39.0521 10.1771 38.7869 10.3688 38.6023 10.6151C38.4223 10.8613 38.3324 11.1406 38.3324 11.4531C38.3229 11.7135 38.3774 11.9408 38.4957 12.1349C38.6188 12.3291 38.7869 12.4972 39 12.6392C39.2131 12.7765 39.4593 12.8973 39.7386 13.0014C40.018 13.1009 40.3163 13.1861 40.6335 13.2571L41.9403 13.5696C42.5748 13.7116 43.1572 13.901 43.6875 14.1378C44.2178 14.3745 44.6771 14.6657 45.0653 15.0114C45.4536 15.357 45.7543 15.7642 45.9673 16.233C46.1851 16.7017 46.2964 17.2391 46.3011 17.8452C46.2964 18.7353 46.0691 19.5071 45.6193 20.1605C45.1742 20.8092 44.5303 21.3134 43.6875 21.6733C42.8494 22.0284 41.8385 22.206 40.6548 22.206C39.4806 22.206 38.4579 22.026 37.5866 21.6662C36.7202 21.3063 36.0431 20.7737 35.5554 20.0682C35.0724 19.358 34.8191 18.4796 34.7955 17.4332H37.7713C37.8045 17.9209 37.9441 18.3281 38.1903 18.6548C38.4413 18.9768 38.7751 19.2206 39.1918 19.3864C39.6132 19.5473 40.089 19.6278 40.6193 19.6278C41.1402 19.6278 41.5923 19.5521 41.9759 19.4006C42.3641 19.2491 42.6648 19.0384 42.8778 18.7685C43.0909 18.4986 43.1974 18.1884 43.1974 17.8381C43.1974 17.5114 43.1004 17.2367 42.9062 17.0142C42.7169 16.7917 42.4375 16.6023 42.0682 16.446C41.7036 16.2898 41.2562 16.1477 40.7259 16.0199L39.142 15.6222C37.9157 15.3239 36.9474 14.8575 36.2372 14.223C35.527 13.5885 35.1742 12.7339 35.179 11.6591C35.1742 10.7784 35.4086 10.009 35.8821 9.35085C36.3603 8.69271 37.0161 8.17898 37.8494 7.80966C38.6828 7.44034 39.6297 7.25568 40.6903 7.25568C41.7699 7.25568 42.7121 7.44034 43.517 7.80966C44.3267 8.17898 44.9564 8.69271 45.4062 9.35085C45.8561 10.009 46.0881 10.7713 46.1023 11.6378H43.1548ZM51.3384 15.6932V22H48.3129V11.0909H51.1964V13.0156H51.3242C51.5657 12.3812 51.9705 11.8793 52.5387 11.5099C53.1069 11.1359 53.7958 10.9489 54.6055 10.9489C55.363 10.9489 56.0236 11.1146 56.587 11.446C57.1505 11.7775 57.5884 12.2509 57.9009 12.8665C58.2134 13.4773 58.3697 14.2064 58.3697 15.054V22H55.3441V15.5938C55.3488 14.9261 55.1784 14.4053 54.8327 14.0312C54.4871 13.6525 54.0112 13.4631 53.4052 13.4631C52.998 13.4631 52.6381 13.5507 52.3256 13.7259C52.0179 13.901 51.7764 14.1567 51.6012 14.4929C51.4308 14.8243 51.3432 15.2244 51.3384 15.6932ZM63.8651 22.206C63.169 22.206 62.5488 22.0852 62.0043 21.8438C61.4598 21.5975 61.0289 21.2353 60.7116 20.7571C60.3991 20.2741 60.2429 19.6728 60.2429 18.9531C60.2429 18.3471 60.3542 17.8381 60.5767 17.4261C60.7992 17.0142 61.1023 16.6828 61.4858 16.4318C61.8693 16.1809 62.3049 15.9915 62.7926 15.8636C63.285 15.7358 63.8011 15.6458 64.3409 15.5938C64.9754 15.5275 65.4867 15.4659 65.875 15.4091C66.2633 15.3475 66.545 15.2576 66.7202 15.1392C66.8954 15.0208 66.983 14.8456 66.983 14.6136V14.571C66.983 14.1212 66.8409 13.7732 66.5568 13.527C66.2775 13.2808 65.8797 13.1577 65.3636 13.1577C64.8191 13.1577 64.3859 13.2784 64.0639 13.5199C63.742 13.7566 63.5289 14.0549 63.4247 14.4148L60.6264 14.1875C60.7685 13.5246 61.0478 12.9517 61.4645 12.4688C61.8812 11.9811 62.4186 11.607 63.0767 11.3466C63.7396 11.0814 64.5066 10.9489 65.3778 10.9489C65.9839 10.9489 66.5639 11.0199 67.1179 11.1619C67.6766 11.304 68.1714 11.5241 68.6023 11.8224C69.0379 12.1207 69.3812 12.5043 69.6321 12.973C69.883 13.437 70.0085 13.9934 70.0085 14.642V22H67.1392V20.4872H67.054C66.8788 20.8281 66.6444 21.1288 66.3509 21.3892C66.0573 21.6449 65.7045 21.8461 65.2926 21.9929C64.8807 22.1349 64.4048 22.206 63.8651 22.206ZM64.7315 20.1179C65.1766 20.1179 65.5696 20.0303 65.9105 19.8551C66.2514 19.6752 66.5189 19.4337 66.7131 19.1307C66.9072 18.8277 67.0043 18.4844 67.0043 18.1009V16.9432C66.9096 17.0047 66.7794 17.0616 66.6136 17.1136C66.4527 17.161 66.2704 17.206 66.0668 17.2486C65.8632 17.2865 65.6596 17.322 65.456 17.3551C65.2524 17.3835 65.0677 17.4096 64.902 17.4332C64.5469 17.4853 64.2367 17.5682 63.9716 17.6818C63.7064 17.7955 63.5005 17.9493 63.3537 18.1435C63.2069 18.3329 63.1335 18.5696 63.1335 18.8537C63.1335 19.2656 63.2827 19.5805 63.581 19.7983C63.884 20.0114 64.2675 20.1179 64.7315 20.1179ZM72.3558 22V11.0909H75.2891V12.9943H75.4027C75.6016 12.3172 75.9354 11.8059 76.4041 11.4602C76.8729 11.1098 77.4126 10.9347 78.0234 10.9347C78.175 10.9347 78.3383 10.9441 78.5135 10.9631C78.6887 10.982 78.8426 11.008 78.9751 11.0412V13.7259C78.8331 13.6832 78.6366 13.6454 78.3857 13.6122C78.1347 13.5791 77.9051 13.5625 77.6967 13.5625C77.2517 13.5625 76.8539 13.6596 76.5036 13.8537C76.1579 14.0431 75.8833 14.3082 75.6797 14.6491C75.4808 14.9901 75.3814 15.383 75.3814 15.8281V22H72.3558ZM85.0032 22.2131C83.881 22.2131 82.9151 21.9858 82.1055 21.5312C81.3005 21.072 80.6803 20.4233 80.2447 19.5852C79.8091 18.7424 79.5913 17.7457 79.5913 16.5952C79.5913 15.473 79.8091 14.4882 80.2447 13.6406C80.6803 12.7931 81.2934 12.1326 82.0842 11.6591C82.8796 11.1856 83.8124 10.9489 84.8825 10.9489C85.6022 10.9489 86.2721 11.0649 86.8924 11.2969C87.5174 11.5241 88.0619 11.8674 88.5259 12.3267C88.9947 12.786 89.3593 13.3636 89.6197 14.0597C89.8801 14.7509 90.0103 15.5606 90.0103 16.4886V17.3196H80.7987V15.4446H87.1623C87.1623 15.009 87.0676 14.6231 86.8782 14.2869C86.6888 13.9508 86.426 13.688 86.0898 13.4986C85.7584 13.3045 85.3725 13.2074 84.9322 13.2074C84.4729 13.2074 84.0657 13.3139 83.7106 13.527C83.3602 13.7353 83.0856 14.017 82.8867 14.3722C82.6879 14.7225 82.5861 15.1132 82.5813 15.544V17.3267C82.5813 17.8665 82.6808 18.3329 82.8796 18.7259C83.0832 19.1188 83.3697 19.4219 83.739 19.6349C84.1083 19.848 84.5463 19.9545 85.0529 19.9545C85.3891 19.9545 85.6969 19.9072 85.9762 19.8125C86.2556 19.7178 86.4947 19.5758 86.6935 19.3864C86.8924 19.197 87.0439 18.965 87.1481 18.6903L89.9464 18.875C89.8043 19.5473 89.5131 20.1345 89.0728 20.6364C88.6372 21.1335 88.0737 21.5218 87.3825 21.8011C86.6959 22.0758 85.9028 22.2131 85.0032 22.2131ZM96.0046 22.1776C95.176 22.1776 94.4255 21.9645 93.7532 21.5384C93.0856 21.1075 92.5553 20.4754 92.1623 19.642C91.774 18.804 91.5799 17.7765 91.5799 16.5597C91.5799 15.3097 91.7811 14.2704 92.1836 13.4418C92.5861 12.6084 93.1211 11.9858 93.7887 11.5739C94.4611 11.1572 95.1973 10.9489 95.9975 10.9489C96.6083 10.9489 97.1173 11.053 97.5245 11.2614C97.9364 11.465 98.2679 11.7206 98.5188 12.0284C98.7745 12.3314 98.9686 12.6297 99.1012 12.9233H99.1935V7.45455H102.212V22H99.229V20.2528H99.1012C98.9592 20.5559 98.7579 20.8565 98.4975 21.1548C98.2418 21.4484 97.908 21.6922 97.4961 21.8864C97.0889 22.0805 96.5917 22.1776 96.0046 22.1776ZM96.9634 19.7699C97.4511 19.7699 97.863 19.6373 98.1992 19.3722C98.5401 19.1023 98.8005 18.7259 98.9805 18.2429C99.1651 17.7599 99.2575 17.1941 99.2575 16.5455C99.2575 15.8968 99.1675 15.3333 98.9876 14.8551C98.8076 14.3769 98.5472 14.0076 98.2063 13.7472C97.8654 13.4867 97.4511 13.3565 96.9634 13.3565C96.4663 13.3565 96.0472 13.4915 95.7063 13.7614C95.3654 14.0312 95.1074 14.4053 94.9322 14.8835C94.757 15.3617 94.6694 15.9157 94.6694 16.5455C94.6694 17.1799 94.757 17.741 94.9322 18.2287C95.1121 18.7116 95.3701 19.0904 95.7063 19.3651C96.0472 19.6349 96.4663 19.7699 96.9634 19.7699Z" fill="white"/>
</g>
<defs>
<clipPath id="clip0_531_1742">
<rect width="102" height="32" fill="white"/>
</clipPath>
</defs>
</svg>
