<svg width="40" height="272" viewBox="0 0 40 272" fill="none" xmlns="http://www.w3.org/2000/svg">
<rect width="40" height="272" rx="20" fill="#212530"/>
<rect x="8.75" y="8.75" width="22.5" height="22.5" rx="11.25" fill="#EE446D" stroke="#111318" stroke-width="1.5"/>
<path d="M21.5687 15.2727V24H19.7235V17.0241H19.6724L17.6738 18.277V16.6406L19.8343 15.2727H21.5687Z" fill="white"/>
<rect x="8.75" y="104.75" width="22.5" height="22.5" rx="11.25" fill="#F4C622" stroke="#111318" stroke-width="1.5"/>
<path d="M16.9281 120V118.67L20.0346 115.794C20.2988 115.538 20.5204 115.308 20.6994 115.104C20.8812 114.899 21.019 114.699 21.1127 114.503C21.2065 114.304 21.2534 114.089 21.2534 113.859C21.2534 113.604 21.1951 113.384 21.0787 113.199C20.9622 113.011 20.8031 112.868 20.6014 112.768C20.3997 112.666 20.171 112.615 19.9153 112.615C19.6483 112.615 19.4153 112.669 19.2164 112.777C19.0176 112.885 18.8642 113.04 18.7562 113.241C18.6483 113.443 18.5943 113.683 18.5943 113.962H16.8429C16.8429 113.391 16.9721 112.895 17.2306 112.474C17.4892 112.054 17.8514 111.729 18.3173 111.499C18.7832 111.268 19.3201 111.153 19.9281 111.153C20.5531 111.153 21.0971 111.264 21.5602 111.486C22.0261 111.705 22.3883 112.009 22.6468 112.398C22.9054 112.787 23.0346 113.233 23.0346 113.736C23.0346 114.065 22.9693 114.391 22.8386 114.712C22.7108 115.033 22.4821 115.389 22.1525 115.781C21.823 116.17 21.3585 116.638 20.7591 117.183L19.4849 118.432V118.491H23.1497V120H16.9281Z" fill="white"/>
<rect x="8.75" y="200.75" width="22.5" height="22.5" rx="11.25" fill="#11BB69" stroke="#111318" stroke-width="1.5"/>
<path d="M19.9782 217.119C19.3418 217.119 18.775 217.01 18.2779 216.791C17.7836 216.57 17.3929 216.266 17.106 215.879C16.8219 215.49 16.6756 215.041 16.6671 214.533H18.525C18.5364 214.746 18.606 214.933 18.7338 215.095C18.8645 215.254 19.0378 215.378 19.2537 215.466C19.4696 215.554 19.7125 215.598 19.9824 215.598C20.2637 215.598 20.5123 215.548 20.7282 215.449C20.9441 215.349 21.1131 215.212 21.2353 215.036C21.3574 214.859 21.4185 214.656 21.4185 214.426C21.4185 214.193 21.3532 213.987 21.2225 213.808C21.0946 213.626 20.91 213.484 20.6685 213.382C20.4299 213.28 20.1458 213.229 19.8162 213.229H19.0023V211.874H19.8162C20.0946 211.874 20.3404 211.825 20.5534 211.729C20.7694 211.632 20.937 211.499 21.0563 211.328C21.1756 211.155 21.2353 210.953 21.2353 210.723C21.2353 210.504 21.1827 210.312 21.0776 210.148C20.9753 209.98 20.8304 209.849 20.6429 209.756C20.4583 209.662 20.2424 209.615 19.9952 209.615C19.7452 209.615 19.5165 209.661 19.3091 209.751C19.1017 209.839 18.9355 209.966 18.8105 210.131C18.6855 210.295 18.6188 210.489 18.6103 210.71H16.8418C16.8503 210.207 16.9938 209.764 17.2722 209.381C17.5506 208.997 17.9256 208.697 18.3972 208.482C18.8716 208.263 19.4071 208.153 20.0037 208.153C20.606 208.153 21.133 208.263 21.5847 208.482C22.0364 208.7 22.3873 208.996 22.6373 209.368C22.8901 209.737 23.0151 210.152 23.0123 210.612C23.0151 211.101 22.8631 211.509 22.5563 211.835C22.2523 212.162 21.856 212.369 21.3674 212.457V212.526C22.0094 212.608 22.498 212.831 22.8333 213.195C23.1713 213.555 23.339 214.007 23.3361 214.55C23.339 215.047 23.1955 215.489 22.9057 215.875C22.6188 216.261 22.2225 216.565 21.7168 216.787C21.2111 217.009 20.6316 217.119 19.9782 217.119Z" fill="white"/>
</svg>
