<svg width="30" height="28" viewBox="0 0 30 28" fill="none" xmlns="http://www.w3.org/2000/svg">
<rect x="1" width="28" height="28" rx="6" fill="#F47715"/>
<path d="M12.9823 19.9826C11.7307 19.9839 10.5068 19.6069 9.46619 18.8993C8.90016 18.5143 8.39792 18.0402 7.97832 17.4946C7.04273 16.2738 6.56938 14.7516 6.64451 13.2054C6.71963 11.6592 7.33823 10.1919 8.3876 9.07089C9.43698 7.94985 10.8473 7.24967 12.3616 7.09792C13.8758 6.94616 15.3933 7.35293 16.6375 8.24411L17.1272 6.11868C15.4234 5.13028 13.4327 4.78158 11.5021 5.13335C9.57157 5.48513 7.82357 6.51507 6.56287 8.04363C5.30216 9.57219 4.60873 11.5024 4.60343 13.4978C4.59814 15.4932 5.28134 17.4272 6.53392 18.9627L4.29705 21.2385C4.10685 21.432 4 21.6944 4 21.9681C4 22.2417 4.10685 22.5042 4.29705 22.6977C4.48724 22.8912 4.7452 22.9999 5.01418 22.9999C5.28315 22.9999 5.54111 22.8912 5.73131 22.6977L8.00875 20.3791C9.68172 21.6378 11.7558 22.2167 13.8259 22.0027C15.896 21.7888 17.8133 20.7973 19.2033 19.2221L18.6991 16.3287C18.1794 17.4223 17.3676 18.345 16.3566 18.9911C15.3456 19.6373 14.1762 19.9809 12.9823 19.9826Z" fill="white"/>
<path d="M11.333 14.2651H17.0566L18.7218 7.71941C18.7751 7.50978 19.077 7.52226 19.1129 7.73557L20.7967 17.7557C20.8281 17.9424 21.0772 17.9851 21.1689 17.8195L23.1379 14.2651H25.9997" stroke="white" stroke-width="1.5" stroke-linecap="round"/>
</svg>
