<svg width="360" height="822" viewBox="0 0 360 822" fill="none" xmlns="http://www.w3.org/2000/svg">
<mask id="mask0_1011_6182" style="mask-type:alpha" maskUnits="userSpaceOnUse" x="0" y="0" width="360" height="822">
<rect width="360" height="822" fill="white"/>
</mask>
<g mask="url(#mask0_1011_6182)">
<g filter="url(#filter0_f_1011_6182)">
<path d="M323.93 112.871L635.115 -89.6209L724.72 299.707L1006.5 439.987L470 752.987L-86 439.987L-287.001 112.87L323.93 112.871Z" fill="url(#paint0_angular_1011_6182)" fill-opacity="0.4"/>
</g>
<g opacity="0.1">
<path opacity="0.010101" d="M348.67 1276.85L-159.562 1006.62C-166.83 1002.76 -170.783 994.653 -169.353 986.547L-69.4 419.683C-67.9706 411.577 -61.4841 405.313 -53.333 404.167L516.674 324.058C524.825 322.912 532.787 327.146 536.396 334.544L788.726 851.898C792.334 859.296 790.768 868.176 784.847 873.894L370.789 1273.75C364.868 1279.46 355.938 1280.72 348.67 1276.85Z" stroke="white" stroke-width="2"/>
<path opacity="0.020202" d="M341.668 1282.51L-160.805 1003.99C-168.005 999.995 -171.816 991.823 -170.245 983.743L-60.6242 419.793C-59.0536 411.713 -52.4588 405.563 -44.2888 404.56L525.934 334.545C534.104 333.542 541.991 337.914 545.47 345.374L788.266 866.053C791.745 873.513 790.024 882.364 784.004 887.978L363.838 1279.79C357.818 1285.4 348.868 1286.5 341.668 1282.51Z" stroke="white" stroke-width="2"/>
<path opacity="0.030303" d="M334.685 1288.01L-161.895 1001.31C-169.024 997.195 -172.691 988.957 -170.98 980.905L-51.7631 420.034C-50.0517 411.982 -43.3505 405.948 -35.1644 405.088L535.096 345.151C543.283 344.291 551.092 348.799 554.44 356.319L787.663 880.148C791.011 887.668 789.137 896.488 783.02 901.996L356.899 1285.68C350.782 1291.18 341.814 1292.13 334.685 1288.01Z" stroke="white" stroke-width="2"/>
<path opacity="0.040404" d="M327.721 1293.36L-162.834 998.601C-169.89 994.362 -173.413 986.061 -171.561 978.041L-42.8224 420.41C-40.9707 412.39 -34.1652 406.474 -25.9653 405.757L544.156 355.877C552.355 355.16 560.085 359.804 563.301 367.381L786.916 894.185C790.132 901.762 788.104 910.548 781.891 915.948L349.972 1291.41C343.76 1296.81 334.777 1297.6 327.721 1293.36Z" stroke="white" stroke-width="2"/>
<path opacity="0.050505" d="M320.781 1298.54L-163.62 995.857C-170.6 991.495 -173.978 983.135 -171.987 975.148L-33.8022 420.92C-31.8109 412.933 -24.9032 407.137 -16.692 406.562L553.112 366.718C561.323 366.144 568.97 370.922 572.054 378.554L786.027 908.157C789.111 915.789 786.929 924.538 780.624 929.829L343.063 1296.99C336.757 1302.28 327.762 1302.91 320.781 1298.54Z" stroke="white" stroke-width="2"/>
<path opacity="0.0606061" d="M313.865 1303.58L-164.255 993.085C-171.158 988.602 -174.389 980.184 -172.259 972.233L-24.7083 421.567C-22.5779 413.616 -15.5701 407.941 -7.35012 407.51L561.96 377.674C570.18 377.243 577.743 382.154 580.693 389.839L784.995 922.065C787.945 929.75 785.611 938.46 779.214 943.64L336.17 1302.41C329.773 1307.59 320.768 1308.06 313.865 1303.58Z" stroke="white" stroke-width="2"/>
<path opacity="0.0707071" d="M306.975 1308.46L-164.737 990.284C-171.561 985.681 -174.645 977.207 -172.377 969.295L-15.5421 422.348C-13.2732 414.436 -6.16749 408.884 2.05876 408.597L570.701 388.74C578.927 388.452 586.402 393.495 589.218 401.23L783.823 935.904C786.639 943.639 784.153 952.307 777.667 957.374L329.298 1307.68C322.811 1312.75 313.8 1313.06 306.975 1308.46Z" stroke="white" stroke-width="2"/>
<path opacity="0.0808081" d="M300.121 1313.19L-165.063 987.46C-171.806 982.738 -174.742 974.212 -172.335 966.341L-6.30151 423.27C-3.89495 415.398 3.30661 409.971 11.5366 409.828L579.335 399.917C587.565 399.773 594.952 404.945 597.631 412.728L782.517 949.674C785.197 957.457 782.56 966.08 775.986 971.034L322.453 1312.8C315.879 1317.75 306.864 1317.91 300.121 1313.19Z" stroke="white" stroke-width="2"/>
<path opacity="0.0909091" d="M293.296 1317.76L-165.24 984.612C-171.899 979.774 -174.686 971.198 -172.142 963.37L3.00299 424.328C5.54657 416.5 12.8417 411.2 21.073 411.2L587.855 411.2C596.086 411.2 603.381 416.5 605.925 424.329L781.07 963.37C783.613 971.198 780.827 979.774 774.168 984.612L315.632 1317.76C308.972 1322.6 299.955 1322.6 293.296 1317.76Z" stroke="white" stroke-width="2"/>
<path opacity="0.10101" d="M286.508 1322.18L-165.263 981.748C-171.837 976.794 -174.473 968.171 -171.793 960.388L12.3736 425.529C15.0535 417.746 22.44 412.574 30.67 412.718L596.262 422.59C604.492 422.734 611.694 428.161 614.1 436.032L779.488 976.993C781.895 984.865 778.959 993.391 772.217 998.112L308.84 1322.57C302.098 1327.29 293.082 1327.14 286.508 1322.18Z" stroke="white" stroke-width="2"/>
<path opacity="0.111111" d="M279.761 1326.45L-165.13 978.866C-171.616 973.798 -174.102 965.13 -171.286 957.396L21.8096 426.869C24.6249 419.134 32.1006 414.092 40.3269 414.379L604.558 434.082C612.784 434.37 619.89 439.921 622.158 447.834L777.776 990.538C780.045 998.45 776.961 1006.92 770.137 1011.53L302.083 1327.23C295.259 1331.84 286.248 1331.52 279.761 1326.45Z" stroke="white" stroke-width="2"/>
<path opacity="0.121212" d="M273.051 1330.58L-164.848 975.972C-171.245 970.792 -173.579 962.082 -170.629 954.397L31.3012 428.352C34.251 420.667 41.8135 415.756 50.0335 416.187L612.733 445.676C620.953 446.107 627.96 451.782 630.091 459.733L775.928 1004C778.058 1011.96 774.827 1020.37 767.923 1024.86L295.357 1331.74C288.453 1336.23 279.448 1335.76 273.051 1330.58Z" stroke="white" stroke-width="2"/>
<path opacity="0.131313" d="M266.39 1334.55L-164.409 973.066C-170.714 967.775 -172.896 959.026 -169.812 951.394L40.8543 429.975C43.9378 422.343 51.5849 417.565 59.7961 418.139L620.794 457.368C629.005 457.942 635.913 463.738 637.904 471.725L773.954 1017.39C775.945 1025.38 772.567 1033.74 765.586 1038.1L288.671 1336.11C281.691 1340.47 272.695 1339.84 266.39 1334.55Z" stroke="white" stroke-width="2"/>
<path opacity="0.141414" d="M259.773 1338.38L-163.819 970.153C-170.031 964.753 -172.06 955.967 -168.843 948.39L50.4602 431.743C53.6765 424.166 61.4058 419.522 69.6058 420.239L628.735 469.157C636.934 469.874 643.74 475.79 645.592 483.81L771.849 1030.69C773.7 1038.71 770.177 1047.01 763.121 1051.25L282.024 1340.32C274.968 1344.56 265.985 1343.78 259.773 1338.38Z" stroke="white" stroke-width="2"/>
<path opacity="0.151515" d="M253.206 1342.06L-163.075 967.235C-169.192 961.727 -171.067 952.907 -167.719 945.387L60.1194 433.655C63.4674 426.135 71.2767 421.626 79.4628 422.487L636.555 481.04C644.741 481.9 651.443 487.934 653.154 495.985L769.618 1043.91C771.329 1051.96 767.662 1060.19 760.533 1064.31L275.42 1344.39C268.291 1348.51 259.323 1347.56 253.206 1342.06Z" stroke="white" stroke-width="2"/>
<path opacity="0.161616" d="M246.69 1345.59L-162.179 964.314C-168.199 958.7 -169.919 949.849 -166.441 942.389L69.8274 435.711C73.3061 428.25 81.1928 423.879 89.3627 424.882L644.253 493.014C652.423 494.017 659.018 500.167 660.589 508.247L767.262 1057.03C768.832 1065.11 765.022 1073.29 757.822 1077.28L268.859 1348.31C261.66 1352.3 252.71 1351.2 246.69 1345.59Z" stroke="white" stroke-width="2"/>
<path opacity="0.171717" d="M240.23 1348.98L-161.129 961.394C-167.05 955.676 -168.616 946.795 -165.008 939.397L79.5835 437.911C83.1919 430.513 91.1537 426.28 99.3049 427.425L651.829 505.077C659.98 506.223 666.467 512.487 667.896 520.593L764.784 1070.07C766.213 1078.18 762.26 1086.28 754.993 1090.15L262.348 1352.09C255.08 1355.95 246.151 1354.7 240.23 1348.98Z" stroke="white" stroke-width="2"/>
<path opacity="0.181818" d="M233.824 1352.23L-159.929 958.476C-165.75 952.655 -167.16 943.749 -163.423 936.415L89.3816 440.257C93.1185 432.923 101.153 428.829 109.283 430.117L659.278 517.228C667.408 518.515 673.784 524.892 675.072 533.021L762.182 1083.02C763.47 1091.15 759.376 1099.18 752.042 1102.92L255.885 1355.72C248.55 1359.46 239.644 1358.05 233.824 1352.23Z" stroke="white" stroke-width="2"/>
<path opacity="0.191919" d="M227.478 1355.34L-158.576 955.564C-164.294 949.643 -165.549 940.714 -161.685 933.446L99.2229 442.75C103.087 435.482 111.192 431.529 119.298 432.959L666.603 529.463C674.709 530.892 680.973 537.379 682.118 545.53L759.463 1095.87C760.609 1104.02 756.376 1111.98 748.977 1115.59L249.475 1359.21C242.077 1362.82 233.196 1361.26 227.478 1355.34Z" stroke="white" stroke-width="2"/>
<path opacity="0.20202" d="M221.193 1358.3L-157.074 952.66C-162.687 946.64 -163.786 937.69 -159.796 930.491L109.101 445.388C113.092 438.189 121.264 434.378 129.344 435.949L673.798 541.78C681.878 543.35 688.028 549.945 689.031 558.115L756.625 1108.62C757.628 1116.79 753.256 1124.68 745.796 1128.16L243.118 1362.56C235.658 1366.04 226.806 1364.32 221.193 1358.3Z" stroke="white" stroke-width="2"/>
<path opacity="0.212121" d="M214.973 1361.13L-155.418 949.767C-160.926 943.65 -161.869 934.682 -157.753 927.554L119.017 448.173C123.133 441.045 131.371 437.377 139.422 439.089L680.867 554.176C688.918 555.887 694.952 562.589 695.812 570.775L753.673 1121.28C754.533 1129.47 750.025 1137.28 742.505 1140.63L236.82 1365.77C229.301 1369.12 220.48 1367.24 214.973 1361.13Z" stroke="white" stroke-width="2"/>
<path opacity="0.222222" d="M208.817 1363.82L-153.614 946.889C-159.014 940.677 -159.8 931.694 -155.561 924.638L128.965 451.107C133.205 444.052 141.505 440.528 149.526 442.38L687.804 566.651C695.824 568.503 701.74 575.308 702.458 583.508L750.606 1133.84C751.323 1142.04 746.679 1149.77 739.102 1152.99L230.581 1368.84C223.004 1372.06 214.218 1370.03 208.817 1363.82Z" stroke="white" stroke-width="2"/>
<path opacity="0.232323" d="M202.732 1366.37L-151.659 944.028C-156.95 937.722 -157.579 928.727 -153.217 921.746L138.946 454.189C143.308 447.208 151.668 443.83 159.655 445.821L694.612 579.201C702.599 581.193 708.395 588.1 708.969 596.311L747.428 1146.3C748.002 1154.51 743.224 1162.16 735.592 1165.24L224.404 1371.78C216.772 1374.86 208.023 1372.68 202.732 1366.37Z" stroke="white" stroke-width="2"/>
<path opacity="0.242424" d="M196.717 1368.79L-149.554 941.183C-154.735 934.786 -155.207 925.781 -150.723 918.878L148.953 457.416C153.437 450.513 161.855 447.281 169.806 449.411L701.287 591.822C709.238 593.952 714.913 600.96 715.344 609.18L744.141 1158.66C744.571 1166.88 739.66 1174.44 731.976 1177.39L218.291 1374.57C210.607 1377.52 201.897 1375.19 196.717 1368.79Z" stroke="white" stroke-width="2"/>
<path opacity="0.252525" d="M190.774 1371.08L-147.302 938.361C-152.37 931.875 -152.685 922.863 -148.082 916.039L158.986 460.792C163.589 453.968 172.063 450.884 179.975 453.153L707.83 604.513C715.742 606.782 721.294 613.887 721.581 622.114L740.745 1170.91C741.032 1179.13 735.99 1186.61 728.255 1189.42L212.245 1377.24C204.51 1380.05 195.842 1377.57 190.774 1371.08Z" stroke="white" stroke-width="2"/>
<path opacity="0.262626" d="M184.905 1373.24L-144.903 935.564C-149.857 928.991 -150.014 919.975 -145.293 913.232L169.04 464.317C173.762 457.575 182.288 454.639 190.159 457.046L714.237 617.272C722.108 619.679 727.535 626.88 727.679 635.11L737.243 1183.05C737.387 1191.28 732.215 1198.67 724.432 1201.35L206.265 1379.77C198.482 1382.45 189.859 1379.81 184.905 1373.24Z" stroke="white" stroke-width="2"/>
<path opacity="0.272727" d="M179.117 1375.26L-142.355 932.793C-147.193 926.134 -147.193 917.116 -142.355 910.457L179.117 467.989C183.955 461.33 192.531 458.544 200.36 461.087L720.512 630.095C728.34 632.638 733.64 639.934 733.64 648.165L733.64 1195.09C733.64 1203.32 728.34 1210.61 720.512 1213.16L200.36 1382.16C192.531 1384.71 183.955 1381.92 179.117 1375.26Z" stroke="white" stroke-width="2"/>
<path opacity="0.282828" d="M173.406 1377.16L-139.661 930.052C-144.383 923.309 -144.225 914.293 -139.272 907.719L189.209 471.811C194.163 465.237 202.786 462.6 210.569 465.28L726.649 642.981C734.432 645.661 739.604 653.047 739.46 661.277L729.934 1207.01C729.791 1215.24 724.364 1222.44 716.492 1224.85L194.525 1384.43C186.653 1386.84 178.127 1383.9 173.406 1377.16Z" stroke="white" stroke-width="2"/>
<path opacity="0.292929" d="M167.78 1378.93L-136.82 927.342C-141.423 920.518 -141.108 911.506 -136.04 905.02L199.319 475.78C204.386 469.294 213.054 466.808 220.789 469.624L732.652 655.927C740.387 658.742 745.43 666.217 745.142 674.444L726.132 1218.83C725.845 1227.05 720.293 1234.16 712.381 1236.43L188.769 1386.57C180.856 1388.84 172.383 1385.75 167.78 1378.93Z" stroke="white" stroke-width="2"/>
<path opacity="0.30303" d="M162.234 1380.58L-133.838 924.667C-138.321 917.764 -137.849 908.759 -132.669 902.362L209.436 479.898C214.616 473.501 223.326 471.167 231.011 474.117L738.515 668.929C746.199 671.879 751.11 679.442 750.68 687.662L722.229 1230.53C721.798 1238.75 716.124 1245.75 708.173 1247.88L183.086 1388.58C175.135 1390.71 166.717 1387.48 162.234 1380.58Z" stroke="white" stroke-width="2"/>
<path opacity="0.313131" d="M156.778 1382.1L-130.706 922.029C-135.068 915.048 -134.439 906.053 -129.148 899.748L219.568 484.164C224.859 477.858 233.608 475.677 241.24 478.76L744.244 681.986C751.876 685.07 756.654 692.717 756.08 700.928L718.236 1242.11C717.662 1250.32 711.866 1257.23 703.879 1259.22L177.488 1390.47C169.501 1392.46 161.14 1389.08 156.778 1382.1Z" stroke="white" stroke-width="2"/>
<path opacity="0.323232" d="M151.405 1383.5L-127.438 919.431C-131.678 912.376 -130.892 903.393 -125.491 897.18L229.701 488.578C235.101 482.366 243.887 480.338 251.464 483.554L749.828 695.097C757.405 698.313 762.049 706.042 761.332 714.242L714.146 1253.59C713.428 1261.79 707.512 1268.59 699.492 1270.44L171.965 1392.23C163.945 1394.08 155.644 1390.56 151.405 1383.5Z" stroke="white" stroke-width="2"/>
<path opacity="0.333333" d="M146.125 1384.79L-124.025 916.874C-128.141 909.746 -127.198 900.778 -121.69 894.661L239.841 493.14C245.349 487.023 254.169 485.148 261.688 488.496L755.277 708.256C762.796 711.604 767.305 719.413 766.445 727.599L709.968 1264.94C709.107 1273.13 703.074 1279.83 695.022 1281.54L166.53 1393.87C158.478 1395.58 150.24 1391.92 146.125 1384.79Z" stroke="white" stroke-width="2"/>
<path opacity="0.343434" d="M140.937 1385.95L-120.471 914.361C-124.461 907.162 -123.363 898.212 -117.749 892.192L249.982 497.849C255.596 491.829 264.447 490.108 271.908 493.587L760.585 721.461C768.045 724.94 772.417 732.826 771.414 740.996L705.702 1276.17C704.699 1284.34 698.55 1290.94 690.469 1292.51L161.18 1395.39C153.1 1396.96 144.927 1393.15 140.937 1385.95Z" stroke="white" stroke-width="2"/>
<path opacity="0.353535" d="M135.842 1387L-116.777 911.895C-120.642 904.628 -119.387 895.698 -113.669 889.777L260.122 502.705C265.84 496.784 274.72 495.219 282.118 498.827L765.753 734.711C773.151 738.32 777.384 746.281 776.239 754.433L701.351 1287.29C700.205 1295.44 693.941 1301.93 685.835 1303.36L155.917 1396.79C147.811 1398.22 139.706 1394.27 135.842 1387Z" stroke="white" stroke-width="2"/>
<path opacity="0.363636" d="M130.842 1387.94L-112.946 909.48C-116.683 902.145 -115.272 893.239 -109.452 887.419L270.257 507.71C276.077 501.89 284.984 500.479 292.318 504.216L770.779 748.004C778.113 751.741 782.207 759.775 780.919 767.905L696.915 1298.28C695.628 1306.41 689.252 1312.79 681.122 1314.08L150.744 1398.08C142.614 1399.37 134.579 1395.27 130.842 1387.94Z" stroke="white" stroke-width="2"/>
<path opacity="0.373737" d="M125.942 1388.76L-108.975 907.114C-112.583 899.716 -111.017 890.835 -105.096 885.117L280.388 512.86C286.309 507.142 295.239 505.887 302.506 509.751L775.666 761.334C782.934 765.199 786.886 773.303 785.457 781.41L692.401 1309.15C690.972 1317.26 684.486 1323.52 676.334 1324.67L145.664 1399.25C137.512 1400.4 129.551 1396.16 125.942 1388.76Z" stroke="white" stroke-width="2"/>
<path opacity="0.383838" d="M121.14 1389.48L-104.869 904.802C-108.348 897.342 -106.628 888.491 -100.608 882.877L290.508 518.156C296.528 512.542 305.478 511.443 312.677 515.434L780.408 774.702C787.608 778.692 791.419 786.865 789.848 794.945L687.807 1319.9C686.236 1327.98 679.641 1334.13 671.471 1335.14L140.675 1400.31C132.505 1401.31 124.618 1396.94 121.14 1389.48Z" stroke="white" stroke-width="2"/>
<path opacity="0.393939" d="M116.438 1390.09L-100.629 902.548C-103.977 895.028 -102.103 886.208 -95.9855 880.7L300.615 523.599C306.732 518.091 315.7 517.149 322.829 521.264L785.009 788.104C792.137 792.219 795.805 800.457 794.093 808.509L683.135 1330.53C681.424 1338.58 674.723 1344.61 666.537 1345.47L135.781 1401.26C127.595 1402.12 119.786 1397.61 116.438 1390.09Z" stroke="white" stroke-width="2"/>
<path opacity="0.40404" d="M111.837 1390.59L-96.2567 900.351C-99.473 892.774 -97.4445 883.988 -91.2322 878.587L310.708 529.186C316.92 523.786 325.903 523 332.959 527.24L789.465 801.536C796.521 805.776 800.044 814.076 798.192 822.097L678.389 1341.02C676.537 1349.04 669.732 1354.96 661.532 1355.68L130.983 1402.09C122.783 1402.81 115.053 1398.17 111.837 1390.59Z" stroke="white" stroke-width="2"/>
<path opacity="0.414141" d="M107.343 1390.99L-91.7498 898.214C-94.8334 890.582 -92.6519 881.833 -86.3463 876.542L320.785 534.918C327.091 529.627 336.086 528.998 343.067 533.36L793.781 814.998C800.761 819.359 804.139 827.72 802.148 835.707L673.573 1351.39C671.582 1359.38 664.674 1365.18 656.463 1365.75L126.285 1402.82C118.074 1403.4 110.427 1398.62 107.343 1390.99Z" stroke="white" stroke-width="2"/>
<path opacity="0.424242" d="M102.957 1391.28L-87.1099 896.142C-90.0597 888.457 -87.7258 879.747 -81.3289 874.567L330.845 540.795C337.242 535.615 346.247 535.143 353.15 539.626L797.955 828.485C804.859 832.969 808.09 841.387 805.96 849.338L668.69 1361.63C666.56 1369.59 659.552 1375.26 651.332 1375.69L121.69 1403.45C113.47 1403.88 105.907 1398.97 102.957 1391.28Z" stroke="white" stroke-width="2"/>
<path opacity="0.434343" d="M98.6757 1391.48L-82.3438 894.133C-85.159 886.398 -82.6735 877.73 -76.1871 872.663L340.88 546.814C347.366 541.746 356.378 541.432 363.202 546.035L801.983 841.996C808.807 846.599 811.891 855.073 809.622 862.985L663.737 1371.75C661.468 1379.66 654.362 1385.21 646.136 1385.5L117.193 1403.97C108.967 1404.26 101.491 1399.21 98.6757 1391.48Z" stroke="white" stroke-width="2"/>
<path opacity="0.444444" d="M94.5066 1391.58L-77.4462 892.193C-80.126 884.41 -77.4896 875.787 -70.9158 870.833L350.893 552.977C357.467 548.023 366.483 547.866 373.226 552.587L805.871 855.529C812.613 860.25 815.549 868.776 813.143 876.648L658.723 1381.73C656.316 1389.6 649.115 1395.03 640.885 1395.17L112.803 1404.39C104.573 1404.53 97.1864 1399.36 94.5066 1391.58Z" stroke="white" stroke-width="2"/>
<path opacity="0.454545" d="M90.447 1391.58L-72.4231 890.322C-74.9667 882.494 -72.1802 873.918 -65.5209 869.08L360.878 559.282C367.538 554.444 376.555 554.444 383.214 559.282L809.614 869.079C816.273 873.918 819.059 882.494 816.516 890.322L653.646 1391.58C651.102 1399.41 643.807 1404.71 635.576 1404.71L108.517 1404.71C100.286 1404.71 92.9906 1399.41 90.447 1391.58Z" stroke="white" stroke-width="2"/>
<path opacity="0.464646" d="M86.4983 1391.5L-67.2762 888.522C-69.6827 880.651 -66.747 872.125 -60.0043 867.403L370.833 565.728C377.576 561.006 386.592 561.164 393.165 566.118L813.212 882.645C819.786 887.599 822.422 896.222 819.742 904.005L648.508 1401.31C645.828 1409.09 638.442 1414.26 630.212 1414.12L104.336 1404.94C96.1064 1404.79 88.9049 1399.37 86.4983 1391.5Z" stroke="white" stroke-width="2"/>
<path opacity="0.474747" d="M82.6634 1391.32L-62.0054 886.796C-64.2742 878.884 -61.1901 870.41 -54.366 865.807L380.756 572.314C387.58 567.711 396.592 568.026 403.078 573.093L816.667 896.224C823.153 901.292 825.639 909.96 822.824 917.695L643.314 1410.89C640.498 1418.63 633.023 1423.67 624.796 1423.38L100.264 1405.07C92.038 1404.78 84.9323 1399.23 82.6634 1391.32Z" stroke="white" stroke-width="2"/>
<path opacity="0.484848" d="M78.9438 1391.05L-56.6123 885.146C-58.7427 877.195 -55.5112 868.776 -48.6079 864.293L390.645 579.039C397.548 574.556 406.553 575.028 412.95 580.208L819.979 909.814C826.376 914.994 828.71 923.704 825.76 931.389L638.065 1420.35C635.115 1428.03 627.553 1432.95 619.333 1432.52L96.302 1405.1C88.082 1404.67 81.0742 1399 78.9438 1391.05Z" stroke="white" stroke-width="2"/>
<path opacity="0.494949" d="M75.3413 1390.69L-51.098 883.573C-53.0893 875.586 -49.7114 867.226 -42.7308 862.864L400.497 585.904C407.478 581.542 416.473 582.171 422.779 587.462L823.148 923.412C829.454 928.703 831.635 937.452 828.552 945.084L632.765 1429.67C629.682 1437.3 622.035 1442.08 613.823 1441.51L92.4515 1405.05C84.2402 1404.48 77.3326 1398.68 75.3413 1390.69Z" stroke="white" stroke-width="2"/>
<path opacity="0.50505" d="M71.8572 1390.26L-45.4642 882.081C-47.3158 874.061 -43.7925 865.76 -36.7368 861.521L410.312 592.907C417.367 588.668 426.35 589.453 432.562 594.854L826.175 937.016C832.387 942.416 834.416 951.202 831.199 958.779L627.417 1438.86C624.201 1446.44 616.471 1451.08 608.271 1450.36L88.7143 1404.91C80.5143 1404.19 73.7088 1398.28 71.8572 1390.26Z" stroke="white" stroke-width="2"/>
<path opacity="0.515152" d="M68.4913 1389.74L-39.7139 880.671C-41.4252 872.619 -37.7576 864.382 -30.629 860.266L420.084 600.047C427.212 595.931 436.18 596.874 442.297 602.382L829.058 950.623C835.175 956.131 837.05 964.951 833.702 972.47L622.021 1447.91C618.673 1455.43 610.863 1459.94 602.677 1459.08L85.09 1404.68C76.9038 1403.82 70.2027 1397.79 68.4913 1389.74Z" stroke="white" stroke-width="2"/>
<path opacity="0.525253" d="M65.246 1389.14L-33.8478 879.343C-35.4184 871.263 -31.6075 863.091 -24.4082 859.1L429.812 607.322C437.011 603.331 445.962 604.43 451.982 610.044L831.799 964.229C837.819 969.843 839.539 978.695 836.061 986.155L616.58 1456.83C613.102 1464.29 605.215 1468.66 597.045 1467.66L81.5814 1404.37C73.4114 1403.37 66.8166 1397.22 65.246 1389.14Z" stroke="white" stroke-width="2"/>
<path opacity="0.535354" d="M62.1219 1388.46L-27.868 878.101C-29.2974 869.995 -25.3444 861.89 -18.0766 858.026L439.494 614.731C446.762 610.866 455.692 612.121 461.613 617.839L834.397 977.833C840.318 983.551 841.884 992.431 838.276 999.83L611.098 1465.61C607.49 1473.01 599.528 1477.24 591.377 1476.1L78.1889 1403.97C70.0377 1402.83 63.5512 1396.57 62.1219 1388.46Z" stroke="white" stroke-width="2"/>
<path opacity="0.545455" d="M59.1214 1387.71L-21.7753 876.946C-23.063 868.816 -18.9692 860.781 -11.635 857.044L449.129 622.273C456.464 618.536 465.37 619.947 471.19 625.767L836.855 991.432C842.675 997.252 844.086 1006.16 840.349 1013.49L605.578 1474.26C601.841 1481.59 593.806 1485.69 585.676 1484.4L74.9152 1403.5C66.7852 1402.21 60.409 1395.84 59.1214 1387.71Z" stroke="white" stroke-width="2"/>
<path opacity="0.555556" d="M56.2422 1386.88L-15.5745 875.881C-16.7201 867.73 -12.4868 859.768 -5.0885 856.159L458.711 629.949C466.109 626.341 474.99 627.907 480.708 633.828L839.169 1005.02C844.886 1010.95 846.141 1019.88 842.277 1027.14L600.018 1482.77C596.154 1490.03 588.049 1493.99 579.943 1492.56L71.758 1402.95C63.6517 1401.52 57.3878 1395.03 56.2422 1386.88Z" stroke="white" stroke-width="2"/>
<path opacity="0.565657" d="M53.4907 1385.99L-9.26244 874.906C-10.2656 866.736 -5.89392 858.849 1.56619 855.37L468.243 637.755C475.703 634.276 484.555 635.997 490.169 642.017L841.344 1018.61C846.958 1024.63 848.057 1033.58 844.066 1040.78L594.427 1491.14C590.437 1498.34 582.264 1502.15 574.184 1500.58L68.7236 1402.32C60.6436 1400.75 54.4938 1394.16 53.4907 1385.99Z" stroke="white" stroke-width="2"/>
<path opacity="0.575758" d="M50.8613 1385.03L-2.84729 874.024C-3.70773 865.838 0.800939 858.029 8.32062 854.681L477.716 645.692C485.236 642.344 494.056 644.219 499.564 650.336L843.375 1032.18C848.883 1038.29 849.826 1047.26 845.71 1054.39L588.801 1499.37C584.685 1506.5 576.448 1510.17 568.396 1508.45L65.8068 1401.63C57.7554 1399.91 51.7217 1393.21 50.8613 1385.03Z" stroke="white" stroke-width="2"/>
<path opacity="0.585859" d="M48.3614 1384L3.67536 873.235C2.95792 865.035 7.60219 857.306 15.1792 854.089L487.135 653.756C494.712 650.54 503.498 652.568 508.898 658.78L845.269 1045.73C850.67 1051.94 851.455 1060.93 847.216 1067.98L583.149 1507.46C578.909 1514.52 570.609 1518.04 562.588 1516.19L63.015 1400.86C54.9947 1399 49.0788 1392.2 48.3614 1384Z" stroke="white" stroke-width="2"/>
<path opacity="0.59596" d="M45.9886 1382.91L10.3004 872.543C9.72615 864.332 14.5046 856.685 22.1366 853.602L496.494 661.949C504.126 658.865 512.875 661.047 518.166 667.352L847.023 1059.27C852.314 1065.57 852.943 1074.57 848.581 1081.55L577.469 1515.42C573.107 1522.4 564.746 1525.78 556.759 1523.79L60.3457 1400.02C52.3589 1398.03 46.5627 1391.12 45.9886 1382.91Z" stroke="white" stroke-width="2"/>
<path opacity="0.606061" d="M43.7432 1381.76L17.0253 871.949C16.5945 863.729 21.5056 856.167 29.1902 853.217L505.79 670.267C513.475 667.318 522.185 669.651 527.365 676.048L848.637 1072.79C853.817 1079.18 854.289 1088.19 849.806 1095.09L571.764 1523.24C567.281 1530.14 558.863 1533.37 550.912 1531.24L57.7995 1399.12C49.8487 1396.98 44.1739 1389.98 43.7432 1381.76Z" stroke="white" stroke-width="2"/>
<path opacity="0.616162" d="M41.6266 1380.55L23.8486 871.455C23.5613 863.228 28.6037 855.753 36.3387 852.938L515.022 678.711C522.757 675.896 531.425 678.381 536.492 684.868L850.113 1086.28C855.181 1092.77 855.495 1101.78 850.892 1108.61L566.037 1530.92C561.434 1537.74 552.961 1540.83 545.048 1538.56L55.3778 1398.15C47.4654 1395.88 41.9138 1388.77 41.6266 1380.55Z" stroke="white" stroke-width="2"/>
<path opacity="0.626263" d="M39.6423 1379.28L30.7712 871.061C30.6275 862.831 35.7996 855.444 43.5825 852.765L524.19 687.278C531.973 684.598 540.596 687.235 545.55 693.808L851.453 1099.76C856.407 1106.33 856.564 1115.35 851.843 1122.09L560.293 1538.46C555.572 1545.21 547.046 1548.14 539.174 1545.74L53.0843 1397.12C45.2127 1394.72 39.7859 1387.51 39.6423 1379.28Z" stroke="white" stroke-width="2"/>
<path opacity="0.636364" d="M37.7876 1377.97L37.7876 870.768C37.7876 862.537 43.0878 855.242 50.9162 852.698L533.289 695.966C541.118 693.422 549.694 696.209 554.532 702.868L852.655 1113.2C857.493 1119.86 857.493 1128.88 852.655 1135.53L554.532 1545.87C549.694 1552.53 541.118 1555.31 533.289 1552.77L50.9162 1396.04C43.0878 1393.49 37.7876 1386.2 37.7876 1377.97Z" stroke="white" stroke-width="2"/>
<path opacity="0.646465" d="M36.064 1376.6L44.8965 870.581C45.0402 862.351 50.4669 855.149 58.3386 852.743L542.318 704.775C550.19 702.369 558.716 705.304 563.437 712.047L853.721 1126.61C858.442 1133.36 858.285 1142.37 853.331 1148.95L548.756 1553.13C543.802 1559.71 535.179 1562.34 527.396 1559.66L48.8752 1394.89C41.0924 1392.21 35.9203 1384.83 36.064 1376.6Z" stroke="white" stroke-width="2"/>
<path opacity="0.656566" d="M34.4727 1375.18L52.0965 870.497C52.3838 862.271 57.9354 855.165 65.8479 852.896L551.276 713.702C559.188 711.433 567.662 714.517 572.265 721.341L854.652 1140C859.255 1146.82 858.94 1155.83 853.872 1162.32L542.969 1560.26C537.901 1566.74 529.233 1569.23 521.498 1566.41L46.9627 1393.7C39.2278 1390.88 34.1854 1383.41 34.4727 1375.18Z" stroke="white" stroke-width="2"/>
<path opacity="0.666667" d="M33.0123 1373.72L59.3837 870.521C59.8145 862.301 65.4892 855.293 73.4401 853.163L560.157 722.747C568.108 720.617 576.527 723.848 581.01 730.752L855.446 1153.35C859.929 1160.25 859.457 1169.25 854.277 1175.65L537.171 1567.25C531.991 1573.64 523.281 1575.98 515.596 1573.03L45.1772 1392.45C37.4927 1389.5 32.5815 1381.94 33.0123 1373.72Z" stroke="white" stroke-width="2"/>
<path opacity="0.676768" d="M31.687 1372.21L66.7594 870.653C67.3336 862.442 73.1298 855.534 81.1166 853.543L568.965 731.908C576.952 729.917 585.313 733.295 589.675 740.276L856.109 1166.66C860.471 1173.64 859.842 1182.64 854.551 1188.94L531.368 1574.1C526.077 1580.4 517.328 1582.58 509.696 1579.5L43.5231 1391.15C35.8912 1388.07 31.1128 1380.42 31.687 1372.21Z" stroke="white" stroke-width="2"/>
<path opacity="0.686869" d="M30.4932 1370.67L74.2175 870.894C74.9349 862.694 80.8508 855.889 88.8711 854.037L577.693 741.184C585.713 739.332 594.014 742.855 598.253 749.911L856.638 1179.93C860.877 1186.99 860.091 1195.97 854.691 1202.19L525.559 1580.81C520.159 1587.02 511.373 1589.05 503.796 1585.83L41.997 1389.81C34.42 1386.59 29.7758 1378.87 30.4932 1370.67Z" stroke="white" stroke-width="2"/>
<path opacity="0.69697" d="M29.4342 1369.08L81.7587 871.246C82.6191 863.059 88.6529 856.358 96.7043 854.647L586.342 750.571C594.394 748.86 602.631 752.527 606.747 759.656L857.035 1193.17C861.151 1200.3 860.208 1209.26 854.701 1215.38L519.749 1587.38C514.242 1593.5 505.421 1595.37 497.902 1592.03L40.6021 1388.42C33.0824 1385.08 28.5738 1377.27 29.4342 1369.08Z" stroke="white" stroke-width="2"/>
<path opacity="0.707071" d="M28.5124 1367.46L89.3828 871.707C90.386 863.537 96.5357 856.943 104.616 855.372L594.912 760.068C602.992 758.497 611.165 762.308 615.155 769.508L857.305 1206.36C861.296 1213.56 860.197 1222.51 854.583 1228.53L513.943 1593.82C508.329 1599.84 499.478 1601.56 492.018 1598.08L39.341 1386.99C31.8809 1383.51 27.5092 1375.63 28.5124 1367.46Z" stroke="white" stroke-width="2"/>
<path opacity="0.717172" d="M27.7212 1365.8L97.0808 872.284C98.2264 864.133 104.49 857.646 112.597 856.217L603.395 769.676C611.501 768.246 619.606 772.199 623.47 779.467L857.441 1219.5C861.305 1226.77 860.05 1235.7 854.332 1241.62L508.136 1600.12C502.418 1606.04 493.537 1607.6 486.139 1604L38.2072 1385.53C30.809 1381.92 26.5756 1373.95 27.7212 1365.8Z" stroke="white" stroke-width="2"/>
<path opacity="0.727273" d="M27.0679 1364.12L104.857 872.974C106.145 864.844 112.521 858.468 120.651 857.18L611.796 779.39C619.926 778.103 627.96 782.196 631.697 789.531L857.451 1232.6C861.188 1239.93 859.778 1248.84 853.957 1254.66L502.337 1606.28C496.516 1612.1 487.61 1613.51 480.276 1609.77L37.2081 1384.02C29.874 1380.28 25.7802 1372.25 27.0679 1364.12Z" stroke="white" stroke-width="2"/>
<path opacity="0.737374" d="M26.5498 1362.41L112.708 873.78C114.137 865.674 120.623 859.41 128.775 858.264L620.109 789.212C628.26 788.066 636.222 792.3 639.83 799.698L857.334 1245.65C860.942 1253.04 859.376 1261.92 853.455 1267.64L496.546 1612.31C490.624 1618.02 481.695 1619.28 474.427 1615.41L36.3411 1382.48C29.0733 1378.62 25.1204 1370.51 26.5498 1362.41Z" stroke="white" stroke-width="2"/>
<path opacity="0.747475" d="M26.1682 1360.67L120.63 874.701C122.201 866.621 128.796 860.471 136.965 859.468L628.335 799.136C636.505 798.133 644.392 802.504 647.87 809.964L857.092 1258.64C860.57 1266.1 858.85 1274.95 852.83 1280.57L490.766 1618.2C484.746 1623.81 475.796 1624.91 468.597 1620.92L35.6078 1380.91C28.4085 1376.92 24.5976 1368.75 26.1682 1360.67Z" stroke="white" stroke-width="2"/>
<path opacity="0.757576" d="M25.8963 1358.9L128.595 875.74C130.307 867.688 137.008 861.654 145.194 860.794L636.444 809.162C644.631 808.301 652.44 812.81 655.788 820.329L856.698 1271.58C860.046 1279.1 858.171 1287.92 852.054 1293.43L484.973 1623.95C478.856 1629.46 469.888 1630.4 462.76 1626.28L34.9811 1379.31C27.8526 1375.19 24.1849 1366.95 25.8963 1358.9Z" stroke="white" stroke-width="2"/>
<path opacity="0.767677" d="M25.7841 1357.12L136.652 876.896C138.503 868.876 145.309 862.96 153.509 862.243L644.486 819.288C652.686 818.57 660.416 823.215 663.632 830.792L856.205 1284.46C859.421 1292.04 857.392 1300.83 851.18 1306.23L479.219 1629.57C473.007 1634.97 464.024 1635.76 456.969 1631.52L34.5113 1377.68C27.4557 1373.44 23.9324 1365.14 25.7841 1357.12Z" stroke="white" stroke-width="2"/>
<path opacity="0.777778" d="M25.8104 1355.32L144.775 878.173C146.767 870.186 153.674 864.39 161.886 863.816L652.437 829.513C660.648 828.939 668.295 833.717 671.379 841.349L855.592 1297.29C858.675 1304.92 856.494 1313.67 850.188 1318.96L473.486 1635.05C467.181 1640.35 458.185 1640.97 451.205 1636.61L34.1776 1376.02C27.197 1371.66 23.8191 1363.3 25.8104 1355.32Z" stroke="white" stroke-width="2"/>
<path opacity="0.787879" d="M25.9727 1353.5L152.961 879.569C155.092 871.618 162.099 865.943 170.319 865.513L660.293 839.834C668.513 839.403 676.076 844.315 679.025 851.999L854.857 1310.06C857.807 1317.74 855.473 1326.45 849.076 1331.63L467.773 1640.41C461.376 1645.59 452.371 1646.06 445.468 1641.57L33.9772 1374.35C27.0738 1369.87 23.8423 1361.45 25.9727 1353.5Z" stroke="white" stroke-width="2"/>
<path opacity="0.79798" d="M26.2685 1351.67L161.205 881.087C163.474 873.175 170.579 867.623 178.806 867.336L668.05 850.251C676.276 849.964 683.752 855.006 686.567 862.741L854.001 1322.76C856.816 1330.5 854.33 1339.16 847.844 1344.23L462.079 1645.62C455.593 1650.69 446.581 1651.01 439.757 1646.4L33.9078 1372.65C27.0838 1368.05 23.9997 1359.58 26.2685 1351.67Z" stroke="white" stroke-width="2"/>
<path opacity="0.808081" d="M26.7019 1349.82L169.508 882.725C171.914 874.853 179.116 869.426 187.346 869.283L675.711 860.758C683.941 860.615 691.327 865.787 694.007 873.57L853.027 1335.4C855.707 1343.18 853.071 1351.8 846.497 1356.76L456.412 1650.71C449.838 1655.66 440.822 1655.82 434.08 1651.1L33.9738 1370.94C27.2311 1366.22 24.2953 1357.69 26.7019 1349.82Z" stroke="white" stroke-width="2"/>
<path opacity="0.818182" d="M27.2685 1347.97L177.864 884.487C180.407 876.659 187.702 871.358 195.934 871.358L683.269 871.358C691.501 871.358 698.796 876.659 701.339 884.487L851.935 1347.97C854.478 1355.8 851.692 1364.38 845.032 1369.21L450.769 1655.66C444.11 1660.5 435.093 1660.5 428.434 1655.66L34.1707 1369.21C27.5114 1364.38 24.7249 1355.8 27.2685 1347.97Z" stroke="white" stroke-width="2"/>
<path opacity="0.828283" d="M27.9745 1346.11L186.276 886.371C188.956 878.589 196.343 873.417 204.573 873.56L690.731 882.046C698.961 882.19 706.163 887.617 708.569 895.488L850.73 1360.47C853.136 1368.35 850.201 1376.87 843.458 1381.59L445.16 1660.48C438.417 1665.21 429.401 1665.05 422.827 1660.1L34.5049 1367.47C27.9311 1362.52 25.2947 1353.9 27.9745 1346.11Z" stroke="white" stroke-width="2"/>
<path opacity="0.838384" d="M28.8125 1344.25L194.736 888.38C197.552 880.645 205.027 875.603 213.254 875.89L698.087 892.821C706.313 893.108 713.419 898.66 715.688 906.572L849.408 1372.91C851.676 1380.82 848.592 1389.29 841.768 1393.9L439.578 1665.18C432.754 1669.78 423.742 1669.47 417.256 1664.4L34.9691 1365.72C28.4827 1360.66 25.9972 1351.99 28.8125 1344.25Z" stroke="white" stroke-width="2"/>
<path opacity="0.848485" d="M29.7886 1342.39L203.248 890.513C206.198 882.829 213.76 877.918 221.98 878.348L705.342 903.68C713.563 904.111 720.57 909.786 722.701 917.737L847.976 1385.27C850.106 1393.22 846.875 1401.64 839.971 1406.12L434.033 1669.74C427.13 1674.22 418.125 1673.75 411.728 1668.57L35.5696 1363.96C29.1726 1358.78 26.8388 1350.07 29.7886 1342.39Z" stroke="white" stroke-width="2"/>
<path opacity="0.858586" d="M30.8975 1340.53L211.803 892.771C214.887 885.139 222.534 880.36 230.745 880.934L712.491 914.621C720.702 915.196 727.61 920.992 729.601 928.979L846.431 1397.56C848.422 1405.54 845.044 1413.9 838.063 1418.27L428.522 1674.17C421.542 1678.54 412.546 1677.91 406.241 1672.62L36.301 1362.2C29.9955 1356.91 27.814 1348.16 30.8975 1340.53Z" stroke="white" stroke-width="2"/>
<path opacity="0.868687" d="M32.1415 1338.67L220.403 895.156C223.619 887.579 231.349 882.935 239.549 883.652L719.534 925.645C727.734 926.363 734.539 932.279 736.391 940.299L844.776 1409.77C846.628 1417.79 843.105 1426.09 836.049 1430.33L423.05 1678.48C415.994 1682.72 407.011 1681.94 400.799 1676.54L37.166 1360.44C30.9537 1355.04 28.9253 1346.25 32.1415 1338.67Z" stroke="white" stroke-width="2"/>
<path opacity="0.878788" d="M33.5219 1336.82L229.046 897.664C232.394 890.145 240.204 885.636 248.39 886.497L726.472 936.745C734.658 937.605 741.359 943.639 743.07 951.691L843.017 1421.9C844.728 1429.95 841.06 1438.19 833.932 1442.31L417.62 1682.66C410.492 1686.78 401.524 1685.84 395.407 1680.33L38.1658 1358.67C32.0488 1353.16 30.174 1344.34 33.5219 1336.82Z" stroke="white" stroke-width="2"/>
<path opacity="0.888889" d="M35.0353 1334.98L237.728 900.301C241.207 892.841 249.094 888.469 257.263 889.473L733.3 947.922C741.47 948.926 748.065 955.075 749.636 963.155L841.15 1433.96C842.721 1442.04 838.91 1450.21 831.711 1454.2L412.232 1686.72C405.033 1690.71 396.083 1689.61 390.063 1684L39.2972 1356.9C33.2772 1351.29 31.5566 1342.44 35.0353 1334.98Z" stroke="white" stroke-width="2"/>
<path opacity="0.89899" d="M36.6822 1333.15L246.446 903.065C250.055 895.666 258.017 891.433 266.168 892.579L740.019 959.174C748.171 960.32 754.657 966.584 756.087 974.69L839.179 1445.93C840.608 1454.04 836.655 1462.14 829.387 1466L406.889 1690.65C399.622 1694.51 390.692 1693.26 384.771 1687.54L40.5607 1355.14C34.6396 1349.42 33.0738 1340.54 36.6822 1333.15Z" stroke="white" stroke-width="2"/>
<path opacity="0.909091" d="M38.4639 1331.33L255.201 905.956C258.938 898.621 266.973 894.528 275.103 895.815L746.63 970.498C754.76 971.785 761.136 978.162 762.424 986.292L837.106 1457.82C838.394 1465.95 834.3 1473.98 826.966 1477.72L401.595 1694.46C394.261 1698.19 385.355 1696.78 379.534 1690.96L41.958 1353.39C36.1375 1347.57 34.7269 1338.66 38.4639 1331.33Z" stroke="white" stroke-width="2"/>
</g>
</g>
<defs>
<filter id="filter0_f_1011_6182" x="-487" y="-289.621" width="1693.5" height="1242.61" filterUnits="userSpaceOnUse" color-interpolation-filters="sRGB">
<feFlood flood-opacity="0" result="BackgroundImageFix"/>
<feBlend mode="normal" in="SourceGraphic" in2="BackgroundImageFix" result="shape"/>
<feGaussianBlur stdDeviation="100" result="effect1_foregroundBlur_1011_6182"/>
</filter>
<radialGradient id="paint0_angular_1011_6182" cx="0" cy="0" r="1" gradientUnits="userSpaceOnUse" gradientTransform="translate(135.5 216.002) rotate(-147.274) scale(362.548 362.548)">
<stop offset="0.111639" stop-color="#FAC69E" stop-opacity="0"/>
<stop offset="0.447787" stop-color="#111318"/>
<stop offset="0.897517" stop-color="#F79C55"/>
</radialGradient>
</defs>
</svg>
