<svg width="1440" height="850" viewBox="0 0 1440 850" fill="none" xmlns="http://www.w3.org/2000/svg">
<mask id="mask0_1011_2404" style="mask-type:alpha" maskUnits="userSpaceOnUse" x="0" y="0" width="1440" height="850">
<rect width="1440" height="850" fill="white"/>
</mask>
<g mask="url(#mask0_1011_2404)">
<g filter="url(#filter0_f_1011_2404)">
<path d="M856.93 176.87L1168.11 -25.6214L1257.72 363.706L1539.5 503.986L1003 816.986L447 503.986L245.999 176.869L856.93 176.87Z" fill="url(#paint0_angular_1011_2404)" fill-opacity="0.4"/>
</g>
<g opacity="0.1">
<path opacity="0.010101" d="M1055.47 2197.95C1049.71 2203.51 1041.01 2204.74 1033.94 2200.97L-8.18867 1646.87C-15.2653 1643.1 -19.1142 1635.21 -17.7225 1627.32L187.231 464.97C188.623 457.077 194.938 450.978 202.875 449.863L1371.67 285.6C1379.6 284.484 1387.36 288.606 1390.87 295.81L1908.27 1356.64C1911.78 1363.84 1910.26 1372.49 1904.49 1378.06L1055.47 2197.95Z" stroke="white" stroke-width="3"/>
<path opacity="0.020202" d="M1041.39 2209.86C1035.53 2215.32 1026.81 2216.39 1019.8 2212.51L-10.5622 1641.37C-17.5721 1637.48 -21.2827 1629.52 -19.7534 1621.66L205.033 465.227C206.563 457.36 212.984 451.372 220.939 450.395L1390.23 306.824C1398.19 305.848 1405.86 310.104 1409.25 317.368L1907.13 1385.06C1910.51 1392.33 1908.84 1400.95 1902.98 1406.41L1041.39 2209.86Z" stroke="white" stroke-width="3"/>
<path opacity="0.030303" d="M1027.33 2221.45C1021.38 2226.81 1012.65 2227.73 1005.7 2223.72L-12.6245 1635.79C-19.5656 1631.78 -23.1367 1623.76 -21.4703 1615.92L223.006 465.751C224.672 457.911 231.197 452.036 239.168 451.199L1408.59 328.287C1416.56 327.449 1424.17 331.839 1427.43 339.161L1905.69 1413.37C1908.95 1420.69 1907.13 1429.28 1901.17 1434.64L1027.33 2221.45Z" stroke="white" stroke-width="3"/>
<path opacity="0.040404" d="M1013.31 2232.73C1007.26 2237.99 998.511 2238.75 991.641 2234.63L-14.3812 1630.15C-21.2512 1626.02 -24.6818 1617.94 -22.8789 1610.13L241.137 466.55C242.94 458.741 249.566 452.981 257.55 452.282L1426.74 349.991C1434.73 349.293 1442.25 353.815 1445.38 361.192L1903.97 1441.55C1907.1 1448.93 1905.13 1457.48 1899.08 1462.74L1013.31 2232.73Z" stroke="white" stroke-width="3"/>
<path opacity="0.050505" d="M999.316 2243.7C993.176 2248.85 984.417 2249.46 977.621 2245.21L-15.8269 1624.44C-22.6239 1620.19 -25.9129 1612.05 -23.974 1604.28L259.426 467.62C261.365 459.844 268.091 454.2 276.086 453.641L1444.68 371.924C1452.68 371.365 1460.13 376.018 1463.13 383.449L1901.96 1469.6C1904.96 1477.03 1902.84 1485.55 1896.7 1490.7L999.316 2243.7Z" stroke="white" stroke-width="3"/>
<path opacity="0.0606061" d="M985.362 2254.36C979.133 2259.4 970.365 2259.86 963.644 2255.49L-16.9679 1618.68C-23.6897 1614.31 -26.8361 1606.11 -24.7618 1598.37L277.861 468.969C279.936 461.228 286.759 455.702 294.763 455.283L1462.41 394.089C1470.41 393.67 1477.77 398.452 1480.64 405.934L1899.66 1497.52C1902.54 1505 1900.26 1513.48 1894.04 1518.53L985.362 2254.36Z" stroke="white" stroke-width="3"/>
<path opacity="0.0707071" d="M971.453 2264.7C965.137 2269.63 956.362 2269.94 949.718 2265.46L-17.8006 1612.86C-24.4452 1608.38 -27.4481 1600.13 -25.2389 1592.42L296.441 470.592C298.65 462.888 305.568 457.482 313.578 457.202L1479.91 416.473C1487.92 416.194 1495.19 421.103 1497.94 428.635L1897.09 1525.29C1899.83 1532.82 1897.41 1541.26 1891.09 1546.2L971.453 2264.7Z" stroke="white" stroke-width="3"/>
<path opacity="0.0808081" d="M957.603 2274.74C951.202 2279.56 942.423 2279.71 935.858 2275.12L-18.3161 1607C-24.8815 1602.4 -27.74 1594.1 -25.3967 1586.43L315.167 472.498C317.511 464.834 324.523 459.55 332.536 459.41L1497.19 439.081C1505.2 438.941 1512.4 443.977 1515 451.555L1894.24 1552.92C1896.85 1560.5 1894.28 1568.9 1887.88 1573.72L957.603 2274.74Z" stroke="white" stroke-width="3"/>
<path opacity="0.0909091" d="M943.802 2284.46C937.318 2289.17 928.538 2289.17 922.054 2284.46L-18.5295 1601.09C-25.0137 1596.38 -27.7268 1588.03 -25.2501 1580.41L334.021 474.684C336.497 467.062 343.6 461.901 351.615 461.901L1514.24 461.901C1522.25 461.901 1529.36 467.062 1531.83 474.684L1891.11 1580.41C1893.58 1588.03 1890.87 1596.38 1884.38 1601.09L943.802 2284.46Z" stroke="white" stroke-width="3"/>
<path opacity="0.10101" d="M930.064 2293.89C923.499 2298.49 914.72 2298.33 908.32 2293.51L-18.4312 1595.15C-24.8322 1590.33 -27.3992 1581.93 -24.7898 1574.35L353.005 477.157C355.615 469.579 362.807 464.543 370.82 464.683L1531.06 484.935C1539.07 485.075 1546.09 490.359 1548.43 498.024L1887.7 1607.74C1890.05 1615.4 1887.19 1623.7 1880.62 1628.3L930.064 2293.89Z" stroke="white" stroke-width="3"/>
<path opacity="0.111111" d="M916.4 2303.01C909.755 2307.49 900.981 2307.18 894.665 2302.25L-18.0175 1589.18C-24.3333 1584.25 -26.7534 1575.81 -24.0122 1568.28L372.119 479.913C374.861 472.382 382.14 467.472 390.149 467.752L1547.65 508.173C1555.66 508.453 1562.58 513.858 1564.79 521.562L1884.04 1634.91C1886.25 1642.61 1883.24 1650.86 1876.6 1655.34L916.4 2303.01Z" stroke="white" stroke-width="3"/>
<path opacity="0.121212" d="M902.799 2311.82C896.077 2316.19 887.309 2315.73 881.081 2310.69L-17.3029 1583.19C-23.5316 1578.15 -25.804 1569.66 -22.9318 1562.18L391.343 482.959C394.215 475.477 401.579 470.695 409.582 471.114L1564 531.615C1572.01 532.034 1578.83 537.56 1580.9 545.302L1880.1 1661.92C1882.17 1669.66 1879.03 1677.85 1872.31 1682.22L902.799 2311.82Z" stroke="white" stroke-width="3"/>
<path opacity="0.131313" d="M889.285 2320.34C882.488 2324.59 873.729 2323.97 867.59 2318.82L-16.2705 1577.18C-22.4102 1572.02 -24.5342 1563.5 -21.5319 1556.07L410.688 486.291C413.691 478.86 421.137 474.208 429.132 474.767L1580.12 555.252C1588.11 555.811 1594.84 561.454 1596.78 569.231L1875.91 1688.76C1877.85 1696.53 1874.56 1704.67 1867.76 1708.92L889.285 2320.34Z" stroke="white" stroke-width="3"/>
<path opacity="0.141414" d="M875.85 2328.56C868.98 2332.69 860.233 2331.92 854.184 2326.66L-14.9321 1571.15C-20.981 1565.89 -22.956 1557.34 -19.8244 1549.96L430.138 489.916C433.269 482.538 440.795 478.016 448.78 478.715L1595.99 579.082C1603.97 579.781 1610.6 585.541 1612.4 593.35L1871.45 1715.43C1873.26 1723.24 1869.83 1731.32 1862.96 1735.45L875.85 2328.56Z" stroke="white" stroke-width="3"/>
<path opacity="0.151515" d="M862.505 2336.48C855.564 2340.49 846.832 2339.57 840.876 2334.21L-13.2824 1565.12C-19.2386 1559.76 -21.064 1551.17 -17.8041 1543.85L449.692 493.832C452.952 486.511 460.556 482.121 468.527 482.958L1611.61 603.102C1619.58 603.939 1626.11 609.814 1627.78 617.654L1866.75 1741.92C1868.41 1749.76 1864.84 1757.78 1857.9 1761.79L862.505 2336.48Z" stroke="white" stroke-width="3"/>
<path opacity="0.161616" d="M849.253 2344.11C842.243 2347.99 833.528 2346.92 827.667 2341.46L-11.3254 1559.09C-17.1871 1553.62 -18.8623 1545 -15.4752 1537.74L469.343 498.041C472.73 490.777 480.409 486.521 488.364 487.498L1626.99 627.303C1634.94 628.28 1641.37 634.268 1642.9 642.135L1861.79 1768.24C1863.32 1776.1 1859.61 1784.06 1852.6 1787.95L849.253 2344.11Z" stroke="white" stroke-width="3"/>
<path opacity="0.171717" d="M836.101 2351.44C829.025 2355.21 820.33 2353.98 814.565 2348.42L-9.05776 1553.05C-14.8232 1547.49 -16.3477 1538.84 -12.8343 1531.64L489.088 502.544C492.601 495.341 500.353 491.219 508.29 492.334L1642.12 651.683C1650.05 652.799 1656.37 658.898 1657.76 666.791L1856.58 1794.37C1857.98 1802.26 1854.13 1810.15 1847.05 1813.91L836.101 2351.44Z" stroke="white" stroke-width="3"/>
<path opacity="0.181818" d="M823.049 2358.49C815.908 2362.13 807.236 2360.75 801.569 2355.09L-6.48697 1547.03C-12.1543 1541.36 -13.5278 1532.69 -9.88918 1525.55L508.915 507.342C512.553 500.2 520.376 496.214 528.292 497.468L1656.99 676.236C1664.9 677.489 1671.11 683.698 1672.36 691.614L1851.13 1820.31C1852.39 1828.22 1848.4 1836.05 1841.26 1839.69L823.049 2358.49Z" stroke="white" stroke-width="3"/>
<path opacity="0.191919" d="M810.109 2365.25C802.905 2368.76 794.259 2367.24 788.691 2361.47L-3.60593 1541.02C-9.17351 1535.26 -10.3954 1526.56 -6.63272 1519.49L528.826 512.436C532.589 505.36 540.48 501.511 548.373 502.902L1671.6 700.958C1679.49 702.35 1685.59 708.666 1686.71 716.602L1845.44 1846.06C1846.56 1854 1842.44 1861.75 1835.23 1865.26L810.109 2365.25Z" stroke="white" stroke-width="3"/>
<path opacity="0.20202" d="M797.278 2371.72C790.014 2375.11 781.396 2373.43 775.93 2367.57L-0.423061 1535.04C-5.88917 1529.17 -6.95913 1520.46 -3.07353 1513.45L548.809 517.826C552.695 510.816 560.652 507.106 568.52 508.635L1685.95 725.842C1693.82 727.371 1699.81 733.793 1700.79 741.748L1839.52 1871.61C1840.49 1879.57 1836.24 1887.25 1828.97 1890.63L797.278 2371.72Z" stroke="white" stroke-width="3"/>
<path opacity="0.212121" d="M784.57 2377.91C777.248 2381.17 768.66 2379.35 763.297 2373.39L3.06893 1529.07C-2.29406 1523.12 -3.21176 1514.38 0.795584 1507.44L568.867 523.514C572.874 516.573 580.895 513.002 588.735 514.668L1700.05 750.885C1707.89 752.552 1713.76 759.076 1714.6 767.047L1833.36 1896.97C1834.2 1904.94 1829.81 1912.54 1822.49 1915.8L784.57 2377.91Z" stroke="white" stroke-width="3"/>
<path opacity="0.222222" d="M771.981 2383.83C764.604 2386.96 756.049 2384.98 750.79 2378.93L6.86162 1523.14C1.60339 1517.09 0.838226 1508.35 4.96609 1501.48L588.986 529.502C593.114 522.632 601.196 519.202 609.006 521.005L1713.88 776.085C1721.69 777.888 1727.45 784.514 1728.15 792.498L1826.98 1922.12C1827.67 1930.1 1823.15 1937.63 1815.77 1940.76L771.981 2383.83Z" stroke="white" stroke-width="3"/>
<path opacity="0.232323" d="M759.523 2389.46C752.092 2392.46 743.573 2390.34 738.421 2384.2L10.9596 1517.25C5.80775 1511.11 5.19535 1502.35 9.44249 1495.55L609.168 535.79C613.415 528.994 621.555 525.705 629.332 527.643L1727.44 801.433C1735.22 803.372 1740.86 810.098 1741.42 818.093L1820.37 1947.07C1820.93 1955.06 1816.28 1962.51 1808.84 1965.51L759.523 2389.46Z" stroke="white" stroke-width="3"/>
<path opacity="0.242424" d="M747.196 2394.82C739.714 2397.69 731.233 2395.42 726.189 2389.19L15.3579 1511.39C10.314 1505.16 9.85454 1496.39 14.2197 1489.67L629.402 542.374C633.767 535.652 641.963 532.506 649.705 534.58L1740.74 826.922C1748.48 828.996 1754.01 835.82 1754.43 843.823L1813.54 1971.8C1813.96 1979.8 1809.18 1987.16 1801.7 1990.04L747.196 2394.82Z" stroke="white" stroke-width="3"/>
<path opacity="0.252525" d="M735.006 2399.91C727.474 2402.65 719.035 2400.23 714.1 2393.92L20.0556 1505.58C15.1212 1499.27 14.8148 1490.49 19.2966 1483.85L649.683 549.259C654.165 542.615 662.416 539.612 670.12 541.821L1753.77 852.551C1761.47 854.76 1766.87 861.679 1767.15 869.689L1806.5 1996.32C1806.78 2004.33 1801.87 2011.61 1794.34 2014.35L735.006 2399.91Z" stroke="white" stroke-width="3"/>
<path opacity="0.262626" d="M722.954 2404.74C715.376 2407.35 706.98 2404.78 702.157 2398.38L25.0492 1499.83C20.2257 1493.43 20.0726 1484.65 24.6696 1478.08L670.006 556.446C674.603 549.881 682.904 547.022 690.569 549.366L1766.52 878.316C1774.18 880.659 1779.46 887.671 1779.6 895.684L1799.24 2020.62C1799.38 2028.64 1794.34 2035.83 1786.77 2038.44L722.954 2404.74Z" stroke="white" stroke-width="3"/>
<path opacity="0.272727" d="M711.054 2409.29C703.432 2411.77 695.082 2409.06 690.371 2402.57L30.3454 1494.12C25.6344 1487.64 25.6344 1478.86 30.3454 1472.38L690.371 563.93C695.082 557.446 703.432 554.733 711.054 557.21L1779 904.205C1786.62 906.682 1791.78 913.785 1791.78 921.8L1791.78 2044.7C1791.78 2052.72 1786.62 2059.82 1779 2062.3L711.054 2409.29Z" stroke="white" stroke-width="3"/>
<path opacity="0.282828" d="M699.301 2413.59C691.636 2415.93 683.334 2413.07 678.737 2406.51L35.9331 1488.49C31.336 1481.92 31.4893 1473.14 36.3126 1466.74L710.764 571.717C715.587 565.316 723.984 562.749 731.562 565.358L1791.2 930.221C1798.78 932.83 1803.81 940.022 1803.67 948.036L1784.11 2068.56C1783.97 2076.57 1778.69 2083.59 1771.03 2085.93L699.301 2413.59Z" stroke="white" stroke-width="3"/>
<path opacity="0.292929" d="M687.708 2417.63C680.003 2419.83 671.753 2416.83 667.271 2410.19L41.8204 1482.92C37.3385 1476.27 37.645 1467.5 42.5794 1461.18L731.19 579.803C736.124 573.487 744.564 571.067 752.095 573.808L1803.13 956.354C1810.66 959.095 1815.57 966.374 1815.29 974.384L1776.26 2092.19C1775.98 2100.2 1770.57 2107.12 1762.87 2109.33L687.708 2417.63Z" stroke="white" stroke-width="3"/>
<path opacity="0.30303" d="M676.266 2421.41C668.524 2423.48 660.327 2420.34 655.962 2413.61L47.9915 1477.42C43.6263 1470.7 44.0859 1461.93 49.1297 1455.7L751.628 588.189C756.672 581.961 765.153 579.688 772.635 582.561L1814.77 982.6C1822.26 985.472 1827.04 992.836 1826.62 1000.84L1768.2 2115.59C1767.78 2123.59 1762.25 2130.42 1754.51 2132.49L676.266 2421.41Z" stroke="white" stroke-width="3"/>
<path opacity="0.313131" d="M664.997 2424.94C657.22 2426.88 649.08 2423.59 644.833 2416.79L54.4629 1472C50.2157 1465.2 50.8282 1456.45 55.98 1450.31L772.093 596.875C777.245 590.736 785.764 588.612 793.195 591.614L1826.15 1008.95C1833.58 1011.96 1838.23 1019.4 1837.67 1027.4L1759.96 2138.76C1759.4 2146.75 1753.76 2153.48 1745.98 2155.42L664.997 2424.94Z" stroke="white" stroke-width="3"/>
<path opacity="0.323232" d="M653.885 2428.22C646.075 2430.02 637.993 2426.59 633.865 2419.72L61.2112 1466.67C57.0832 1459.8 57.8485 1451.05 63.1066 1445L792.557 605.863C797.815 599.814 806.37 597.839 813.748 600.971L1837.23 1035.41C1844.61 1038.54 1849.13 1046.07 1848.43 1054.05L1751.52 2161.69C1750.82 2169.67 1745.06 2176.3 1737.26 2178.1L653.885 2428.22Z" stroke="white" stroke-width="3"/>
<path opacity="0.333333" d="M642.95 2431.26C635.11 2432.92 627.089 2429.35 623.082 2422.41L68.2518 1461.42C64.2444 1454.47 65.1622 1445.74 70.5251 1439.79L813.033 615.148C818.396 609.192 826.984 607.366 834.306 610.626L1848.03 1061.97C1855.35 1065.23 1859.74 1072.83 1858.91 1080.8L1742.91 2184.38C1742.08 2192.35 1736.2 2198.88 1728.36 2200.54L642.95 2431.26Z" stroke="white" stroke-width="3"/>
<path opacity="0.343434" d="M632.191 2434.05C624.324 2435.58 616.366 2431.87 612.481 2424.86L75.5763 1456.26C71.6906 1449.25 72.7607 1440.53 78.2267 1434.67L833.508 624.73C838.975 618.868 847.593 617.193 854.857 620.58L1858.55 1088.61C1865.82 1092 1870.07 1099.68 1869.1 1107.63L1734.13 2206.83C1733.15 2214.79 1727.17 2221.21 1719.3 2222.74L632.191 2434.05Z" stroke="white" stroke-width="3"/>
<path opacity="0.353535" d="M621.611 2436.61C613.718 2438 605.827 2434.15 602.064 2427.07L83.182 1451.2C79.4192 1444.12 80.6412 1435.43 86.2087 1429.66L853.978 634.612C859.545 628.847 868.192 627.322 875.396 630.836L1868.79 1115.34C1875.99 1118.86 1880.11 1126.61 1879 1134.55L1725.17 2229.04C1724.06 2236.97 1717.96 2243.29 1710.07 2244.68L621.611 2436.61Z" stroke="white" stroke-width="3"/>
<path opacity="0.363636" d="M611.213 2438.93C603.297 2440.18 595.474 2436.2 591.836 2429.06L91.0658 1446.24C87.4271 1439.1 88.8007 1430.43 94.4679 1424.76L874.435 644.793C880.102 639.125 888.774 637.752 895.916 641.39L1878.73 1142.16C1885.87 1145.8 1889.86 1153.62 1888.6 1161.54L1716.05 2251C1714.8 2258.91 1708.59 2265.12 1700.67 2266.38L611.213 2438.93Z" stroke="white" stroke-width="3"/>
<path opacity="0.373737" d="M601.008 2441.02C593.071 2442.14 585.319 2438.01 581.805 2430.81L99.2315 1441.39C95.718 1434.18 97.2427 1425.54 103.008 1419.97L894.881 655.267C900.647 649.699 909.341 648.477 916.418 652.24L1888.4 1169.05C1895.47 1172.81 1899.32 1180.7 1897.93 1188.6L1706.77 2272.71C1705.38 2280.6 1699.06 2286.7 1691.13 2287.81L601.008 2441.02Z" stroke="white" stroke-width="3"/>
<path opacity="0.383838" d="M590.988 2442.89C583.033 2443.86 575.354 2439.61 571.967 2432.34L107.667 1436.65C104.28 1429.38 105.955 1420.77 111.817 1415.3L915.301 666.038C921.163 660.572 929.878 659.502 936.888 663.387L1897.77 1196.01C1904.78 1199.9 1908.49 1207.85 1906.96 1215.72L1697.33 2294.16C1695.8 2302.03 1689.38 2308.02 1681.43 2309L590.988 2442.89Z" stroke="white" stroke-width="3"/>
<path opacity="0.393939" d="M581.163 2444.53C573.192 2445.37 565.588 2440.98 562.329 2433.65L116.374 1432.03C113.114 1424.7 114.94 1416.12 120.896 1410.75L935.695 677.104C941.651 671.741 950.383 670.824 957.324 674.831L1906.85 1223.04C1913.79 1227.05 1917.36 1235.07 1915.7 1242.91L1687.74 2315.37C1686.07 2323.21 1679.55 2329.08 1671.58 2329.92L581.163 2444.53Z" stroke="white" stroke-width="3"/>
<path opacity="0.40404" d="M571.534 2445.95C563.549 2446.65 556.023 2442.13 552.892 2434.75L125.349 1427.52C122.217 1420.14 124.192 1411.59 130.241 1406.33L956.054 688.463C962.103 683.205 970.849 682.44 977.719 686.568L1915.64 1250.13C1922.51 1254.26 1925.94 1262.34 1924.14 1270.15L1678 2336.32C1676.19 2344.13 1669.57 2349.89 1661.58 2350.58L571.534 2445.95Z" stroke="white" stroke-width="3"/>
<path opacity="0.414141" d="M562.11 2447.16C554.114 2447.72 546.669 2443.07 543.666 2435.63L134.593 1423.14C131.591 1415.71 133.715 1407.19 139.855 1402.04L976.38 700.114C982.52 694.962 991.278 694.35 998.075 698.597L1924.15 1277.27C1930.95 1281.52 1934.24 1289.66 1932.3 1297.44L1668.12 2357.01C1666.18 2364.78 1659.45 2370.43 1651.46 2370.99L562.11 2447.16Z" stroke="white" stroke-width="3"/>
<path opacity="0.424242" d="M552.895 2448.16C544.891 2448.58 537.528 2443.8 534.655 2436.31L144.106 1418.9C141.234 1411.42 143.506 1402.93 149.735 1397.89L996.669 712.057C1002.9 707.014 1011.67 706.554 1018.39 710.919L1932.37 1304.47C1939.09 1308.83 1942.24 1317.03 1940.16 1324.77L1658.1 2377.44C1656.03 2385.18 1649.2 2390.7 1641.2 2391.12L552.895 2448.16Z" stroke="white" stroke-width="3"/>
<path opacity="0.434343" d="M543.881 2448.95C535.872 2449.23 528.593 2444.32 525.851 2436.79L153.873 1414.78C151.132 1407.25 153.552 1398.81 159.867 1393.88L1016.9 724.289C1023.22 719.355 1031.99 719.048 1038.64 723.53L1940.29 1331.7C1946.94 1336.19 1949.94 1344.44 1947.73 1352.14L1647.95 2397.6C1645.74 2405.31 1638.82 2410.71 1630.81 2410.99L543.881 2448.95Z" stroke="white" stroke-width="3"/>
<path opacity="0.444444" d="M535.086 2449.54C527.073 2449.68 519.881 2444.64 517.271 2437.06L163.904 1410.81C161.295 1403.23 163.862 1394.84 170.263 1390.01L1037.09 736.811C1043.49 731.988 1052.27 731.834 1058.84 736.431L1947.93 1358.98C1954.5 1363.58 1957.35 1371.88 1955.01 1379.55L1637.68 2417.51C1635.33 2425.17 1628.32 2430.45 1620.31 2430.59L535.086 2449.54Z" stroke="white" stroke-width="3"/>
<path opacity="0.454545" d="M526.503 2449.93C518.489 2449.93 511.385 2444.77 508.909 2437.14L174.188 1406.98C171.711 1399.36 174.425 1391.01 180.909 1386.3L1057.22 749.62C1063.7 744.909 1072.48 744.909 1078.97 749.62L1955.28 1386.3C1961.76 1391.01 1964.47 1399.36 1962 1406.98L1627.28 2437.14C1624.8 2444.77 1617.7 2449.93 1609.68 2449.93L526.503 2449.93Z" stroke="white" stroke-width="3"/>
<path opacity="0.464646" d="M518.136 2450.12C510.122 2449.98 503.11 2444.7 500.767 2437.03L184.721 1403.3C182.378 1395.63 185.236 1387.33 191.802 1382.73L1077.28 762.712C1083.85 758.115 1092.63 758.269 1099.03 763.092L1962.33 1413.64C1968.73 1418.46 1971.3 1426.86 1968.69 1434.44L1616.76 2456.51C1614.15 2464.09 1606.96 2469.13 1598.94 2468.99L518.136 2450.12Z" stroke="white" stroke-width="3"/>
<path opacity="0.474747" d="M509.989 2450.13C501.979 2449.85 495.061 2444.44 492.851 2436.74L195.503 1399.76C193.294 1392.06 196.297 1383.81 202.942 1379.33L1097.28 776.089C1103.92 771.607 1112.7 771.913 1119.01 776.848L1969.09 1441C1975.41 1445.94 1977.83 1454.38 1975.09 1461.91L1606.13 2475.62C1603.39 2483.15 1596.11 2488.06 1588.1 2487.78L509.989 2450.13Z" stroke="white" stroke-width="3"/>
<path opacity="0.484848" d="M502.067 2449.95C494.063 2449.53 487.24 2444 485.166 2436.26L206.532 1396.39C204.457 1388.64 207.604 1380.45 214.325 1376.08L1117.2 789.746C1123.93 785.381 1132.69 785.841 1138.92 790.885L1975.57 1468.38C1981.79 1473.43 1984.07 1481.91 1981.19 1489.39L1595.39 2494.45C1592.52 2501.93 1585.15 2506.71 1577.15 2506.29L502.067 2449.95Z" stroke="white" stroke-width="3"/>
<path opacity="0.494949" d="M494.373 2449.59C486.378 2449.03 479.652 2443.38 477.713 2435.61L217.804 1393.17C215.865 1385.39 219.154 1377.25 225.95 1373L1137.05 803.685C1143.85 799.438 1152.61 800.05 1158.75 805.202L1981.75 1495.78C1987.89 1500.93 1990.01 1509.45 1987.01 1516.88L1584.55 2513.01C1581.55 2520.44 1574.1 2525.09 1566.11 2524.53L494.373 2449.59Z" stroke="white" stroke-width="3"/>
<path opacity="0.50505" d="M486.909 2449.05C478.925 2448.35 472.299 2442.59 470.496 2434.78L229.316 1390.12C227.513 1382.31 230.944 1374.23 237.813 1370.1L1156.82 817.902C1163.69 813.775 1172.44 814.54 1178.49 819.798L1987.64 1523.19C1993.69 1528.45 1995.67 1537 1992.54 1544.38L1573.62 2531.29C1570.48 2538.67 1562.96 2543.19 1554.97 2542.49L486.909 2449.05Z" stroke="white" stroke-width="3"/>
<path opacity="0.515152" d="M479.677 2448.34C471.706 2447.5 465.181 2441.63 463.515 2433.79L241.062 1387.23C239.396 1379.39 242.967 1371.37 249.908 1367.37L1176.5 832.396C1183.44 828.389 1192.17 829.307 1198.13 834.67L1993.25 1550.6C1999.21 1555.96 2001.03 1564.55 1997.77 1571.87L1562.59 2549.31C1559.33 2556.63 1551.72 2561.02 1543.75 2560.18L479.677 2448.34Z" stroke="white" stroke-width="3"/>
<path opacity="0.525253" d="M472.679 2447.47C464.724 2446.49 458.303 2440.5 456.774 2432.63L253.041 1384.52C251.512 1376.65 255.222 1368.69 262.232 1364.81L1196.09 847.163C1203.1 843.277 1211.82 844.347 1217.68 849.813L1998.57 1578C2004.43 1583.47 2006.1 1592.09 2002.72 1599.35L1551.47 2567.05C1548.09 2574.31 1540.41 2578.57 1532.45 2577.59L472.679 2447.47Z" stroke="white" stroke-width="3"/>
<path opacity="0.535354" d="M465.919 2446.42C457.982 2445.31 451.666 2439.21 450.275 2431.32L265.248 1381.98C263.857 1374.09 267.706 1366.2 274.782 1362.43L1215.58 862.199C1222.66 858.437 1231.36 859.659 1237.12 865.226L2003.59 1605.4C2009.36 1610.97 2010.88 1619.62 2007.37 1626.82L1540.28 2584.51C1536.76 2591.71 1529.01 2595.83 1521.07 2594.72L465.919 2446.42Z" stroke="white" stroke-width="3"/>
<path opacity="0.545455" d="M459.4 2445.22C451.484 2443.97 445.276 2437.76 444.022 2429.85L277.683 1379.62C276.429 1371.7 280.415 1363.88 287.556 1360.24L1234.98 877.505C1242.12 873.866 1250.79 875.24 1256.46 880.907L2008.34 1632.79C2014.01 1638.45 2015.38 1647.13 2011.74 1654.27L1529 2601.69C1525.37 2608.83 1517.54 2612.82 1509.63 2611.56L459.4 2445.22Z" stroke="white" stroke-width="3"/>
<path opacity="0.555556" d="M453.119 2443.87C445.226 2442.48 439.127 2436.16 438.012 2428.23L290.333 1377.44C289.218 1369.51 293.34 1361.75 300.544 1358.24L1254.26 893.08C1261.47 889.567 1270.11 891.091 1275.68 896.856L2012.79 1660.16C2018.36 1665.92 2019.58 1674.62 2015.82 1681.69L1517.66 2618.6C1513.89 2625.67 1506 2629.52 1498.11 2628.13L453.119 2443.87Z" stroke="white" stroke-width="3"/>
<path opacity="0.565657" d="M447.088 2442.37C439.221 2440.84 433.233 2434.42 432.256 2426.46L303.208 1375.45C302.231 1367.5 306.488 1359.82 313.752 1356.43L1273.44 908.917C1280.71 905.53 1289.33 907.205 1294.79 913.067L2016.96 1687.5C2022.43 1693.36 2023.5 1702.08 2019.61 1709.09L1506.25 2635.22C1502.36 2642.23 1494.4 2645.94 1486.54 2644.42L447.088 2442.37Z" stroke="white" stroke-width="3"/>
<path opacity="0.575758" d="M441.296 2440.72C433.457 2439.05 427.582 2432.53 426.744 2424.56L316.289 1373.65C315.451 1365.68 319.842 1358.08 327.163 1354.82L1292.5 925.019C1299.83 921.759 1308.41 923.584 1313.78 929.54L2020.85 1714.82C2026.21 1720.78 2027.13 1729.51 2023.12 1736.45L1494.77 2651.57C1490.76 2658.52 1482.74 2662.09 1474.9 2660.42L441.296 2440.72Z" stroke="white" stroke-width="3"/>
<path opacity="0.585859" d="M435.759 2438.93C427.95 2437.13 422.19 2430.5 421.491 2422.52L329.586 1372.04C328.888 1364.05 333.41 1356.53 340.787 1353.4L1311.45 941.375C1318.83 938.243 1327.38 940.218 1332.64 946.267L2024.45 1742.1C2029.71 1748.15 2030.47 1756.9 2026.34 1763.77L1483.24 2667.64C1479.11 2674.51 1471.03 2677.94 1463.22 2676.14L435.759 2438.93Z" stroke="white" stroke-width="3"/>
<path opacity="0.59596" d="M430.471 2437.01C422.695 2435.07 417.051 2428.34 416.492 2420.35L343.088 1370.63C342.529 1362.63 347.182 1355.19 354.613 1352.18L1330.27 957.992C1337.7 954.989 1346.22 957.113 1351.38 963.253L2027.77 1769.35C2032.92 1775.49 2033.53 1784.25 2029.29 1791.04L1471.66 2683.43C1467.41 2690.23 1459.27 2693.52 1451.5 2691.58L430.471 2437.01Z" stroke="white" stroke-width="3"/>
<path opacity="0.606061" d="M425.434 2434.95C417.692 2432.88 412.167 2426.06 411.747 2418.05L356.791 1369.41C356.371 1361.41 361.153 1354.05 368.636 1351.18L1348.97 974.862C1356.45 971.99 1364.93 974.262 1369.97 980.491L2030.81 1796.55C2035.85 1802.78 2036.31 1811.55 2031.95 1818.27L1460.03 2698.94C1455.67 2705.66 1447.47 2708.81 1439.73 2706.73L425.434 2434.95Z" stroke="white" stroke-width="3"/>
<path opacity="0.616162" d="M420.65 2432.78C412.946 2430.57 407.54 2423.65 407.261 2415.64L370.69 1368.41C370.411 1360.4 375.32 1353.12 382.852 1350.38L1367.53 991.983C1375.06 989.242 1383.5 991.662 1388.43 997.978L2033.57 1823.71C2038.5 1830.03 2038.81 1838.8 2034.32 1845.45L1448.36 2714.17C1443.88 2720.81 1435.63 2723.82 1427.93 2721.61L420.65 2432.78Z" stroke="white" stroke-width="3"/>
<path opacity="0.626263" d="M416.127 2430.48C408.462 2428.13 403.178 2421.12 403.038 2413.11L384.789 1367.6C384.649 1359.59 389.685 1352.4 397.263 1349.79L1385.96 1009.35C1393.53 1006.74 1401.93 1009.31 1406.75 1015.71L2036.05 1850.82C2040.87 1857.22 2041.03 1866 2036.43 1872.56L1436.66 2729.12C1432.06 2735.68 1423.76 2738.54 1416.1 2736.2L416.127 2430.48Z" stroke="white" stroke-width="3"/>
<path opacity="0.636364" d="M411.858 2428.06C404.236 2425.58 399.075 2418.48 399.075 2410.46L399.075 1367.01C399.075 1358.99 404.236 1351.89 411.858 1349.41L1404.24 1026.97C1411.87 1024.49 1420.22 1027.2 1424.93 1033.69L2038.26 1877.86C2042.97 1884.34 2042.97 1893.12 2038.26 1899.61L1424.93 2743.78C1420.22 2750.27 1411.87 2752.98 1404.24 2750.5L411.858 2428.06Z" stroke="white" stroke-width="3"/>
<path opacity="0.646465" d="M407.849 2425.53C400.271 2422.92 395.234 2415.73 395.374 2407.72L413.547 1366.63C413.686 1358.61 418.971 1351.6 426.635 1349.26L1422.39 1044.83C1430.05 1042.48 1438.35 1045.34 1442.95 1051.91L2040.19 1904.85C2044.78 1911.41 2044.63 1920.19 2039.81 1926.59L1413.17 2758.17C1408.34 2764.57 1399.95 2767.14 1392.37 2764.53L407.849 2425.53Z" stroke="white" stroke-width="3"/>
<path opacity="0.656566" d="M404.1 2422.9C396.569 2420.15 391.659 2412.88 391.939 2404.87L428.201 1366.46C428.481 1358.45 433.886 1351.53 441.59 1349.32L1440.38 1062.92C1448.09 1060.71 1456.34 1063.71 1460.82 1070.36L2041.84 1931.76C2046.33 1938.41 2046.02 1947.18 2041.08 1953.5L1401.39 2772.27C1396.45 2778.59 1388.01 2781.01 1380.48 2778.27L404.1 2422.9Z" stroke="white" stroke-width="3"/>
<path opacity="0.666667" d="M400.61 2420.16C393.128 2417.29 388.346 2409.92 388.765 2401.92L443.029 1366.51C443.448 1358.5 448.974 1351.68 456.716 1349.6L1458.22 1081.25C1465.96 1079.18 1474.16 1082.32 1478.53 1089.05L2043.23 1958.61C2047.59 1965.33 2047.13 1974.1 2042.09 1980.33L1389.59 2786.1C1384.54 2792.33 1376.06 2794.6 1368.58 2791.73L400.61 2420.16Z" stroke="white" stroke-width="3"/>
<path opacity="0.676768" d="M397.386 2417.33C389.955 2414.33 385.302 2406.88 385.861 2398.88L458.033 1366.78C458.592 1358.78 464.236 1352.06 472.012 1350.12L1475.91 1099.82C1483.68 1097.88 1491.83 1101.17 1496.07 1107.96L2044.34 1985.38C2048.59 1992.18 2047.98 2000.93 2042.83 2007.07L1377.78 2799.65C1372.63 2805.79 1364.11 2807.91 1356.68 2804.91L397.386 2417.33Z" stroke="white" stroke-width="3"/>
<path opacity="0.686869" d="M394.423 2414.41C387.045 2411.27 382.523 2403.75 383.222 2395.76L473.203 1367.27C473.902 1359.29 479.662 1352.66 487.471 1350.86L1493.43 1118.61C1501.24 1116.81 1509.32 1120.24 1513.45 1127.11L2045.19 2012.07C2049.32 2018.94 2048.55 2027.68 2043.29 2033.73L1365.96 2812.91C1360.7 2818.96 1352.15 2820.94 1344.77 2817.8L394.423 2414.41Z" stroke="white" stroke-width="3"/>
</g>
</g>
<defs>
<filter id="filter0_f_1011_2404" x="45.999" y="-225.622" width="1693.5" height="1242.61" filterUnits="userSpaceOnUse" color-interpolation-filters="sRGB">
<feFlood flood-opacity="0" result="BackgroundImageFix"/>
<feBlend mode="normal" in="SourceGraphic" in2="BackgroundImageFix" result="shape"/>
<feGaussianBlur stdDeviation="100" result="effect1_foregroundBlur_1011_2404"/>
</filter>
<radialGradient id="paint0_angular_1011_2404" cx="0" cy="0" r="1" gradientUnits="userSpaceOnUse" gradientTransform="translate(668.5 280.001) rotate(-147.274) scale(362.548 362.548)">
<stop offset="0.111639" stop-color="#FAC69E" stop-opacity="0"/>
<stop offset="0.447787" stop-color="#111318"/>
<stop offset="0.897517" stop-color="#F79C55"/>
</radialGradient>
</defs>
</svg>
