<svg width="1440" height="1700" viewBox="0 0 1440 1700" fill="none" xmlns="http://www.w3.org/2000/svg">
<mask id="mask0_2_3" style="mask-type:alpha" maskUnits="userSpaceOnUse" x="0" y="0" width="1440" height="850">
<rect width="1440" height="850" fill="white"/>
</mask>
<g mask="url(#mask0_2_3)">
<g filter="url(#filter0_f_2_3)">
<path d="M856.93 176.87L1168.12 -25.6216L1257.72 363.706L1539.5 503.986L1003 816.986L447 503.986L246 176.869L856.93 176.87Z" fill="url(#paint0_angular_2_3)" fill-opacity="0.4"/>
</g>
<g opacity="0.1">
<path opacity="0.010101" d="M1055.47 2197.95C1049.71 2203.51 1041.01 2204.74 1033.94 2200.97L-8.18843 1646.87C-15.2651 1643.1 -19.114 1635.21 -17.7222 1627.32L187.231 464.97C188.623 457.077 194.939 450.978 202.875 449.863L1371.67 285.599C1379.61 284.484 1387.36 288.606 1390.87 295.809L1908.27 1356.64C1911.78 1363.84 1910.26 1372.49 1904.49 1378.06L1055.47 2197.95Z" stroke="white" stroke-width="3"/>
<path opacity="0.020202" d="M1041.39 2209.86C1035.53 2215.32 1026.81 2216.39 1019.8 2212.51L-10.5619 1641.37C-17.5719 1637.48 -21.2824 1629.52 -19.7531 1621.66L205.034 465.227C206.563 457.36 212.984 451.372 220.939 450.395L1390.23 306.824C1398.19 305.847 1405.86 310.104 1409.25 317.368L1907.13 1385.06C1910.51 1392.33 1908.84 1400.95 1902.98 1406.41L1041.39 2209.86Z" stroke="white" stroke-width="3"/>
<path opacity="0.030303" d="M1027.33 2221.45C1021.38 2226.81 1012.65 2227.73 1005.7 2223.72L-12.6245 1635.79C-19.5656 1631.78 -23.1367 1623.76 -21.4703 1615.92L223.006 465.751C224.672 457.911 231.197 452.036 239.168 451.198L1408.59 328.287C1416.56 327.449 1424.17 331.839 1427.43 339.161L1905.69 1413.37C1908.95 1420.69 1907.13 1429.28 1901.17 1434.64L1027.33 2221.45Z" stroke="white" stroke-width="3"/>
<path opacity="0.040404" d="M1013.31 2232.73C1007.26 2237.99 998.511 2238.75 991.641 2234.63L-14.3807 1630.15C-21.2507 1626.02 -24.6813 1617.94 -22.8784 1610.13L241.137 466.55C242.94 458.741 249.567 452.981 257.551 452.282L1426.74 349.991C1434.73 349.293 1442.25 353.815 1445.39 361.192L1903.97 1441.55C1907.1 1448.93 1905.13 1457.48 1899.08 1462.74L1013.31 2232.73Z" stroke="white" stroke-width="3"/>
<path opacity="0.050505" d="M999.316 2243.7C993.176 2248.85 984.418 2249.46 977.621 2245.21L-15.8267 1624.44C-22.6236 1620.19 -25.9127 1612.05 -23.9737 1604.27L259.426 467.62C261.365 459.843 268.091 454.2 276.086 453.641L1444.68 371.924C1452.68 371.365 1460.13 376.018 1463.13 383.449L1901.96 1469.6C1904.96 1477.03 1902.84 1485.55 1896.7 1490.7L999.316 2243.7Z" stroke="white" stroke-width="3"/>
<path opacity="0.0606061" d="M985.362 2254.36C979.134 2259.4 970.366 2259.86 963.644 2255.49L-16.9677 1618.68C-23.6895 1614.31 -26.8359 1606.11 -24.7615 1598.37L277.862 468.969C279.936 461.227 286.759 455.702 294.763 455.282L1462.41 394.089C1470.41 393.669 1477.77 398.451 1480.65 405.934L1899.67 1497.52C1902.54 1505 1900.26 1513.48 1894.04 1518.53L985.362 2254.36Z" stroke="white" stroke-width="3"/>
<path opacity="0.0707071" d="M971.453 2264.7C965.137 2269.63 956.363 2269.94 949.718 2265.46L-17.8004 1612.86C-24.4449 1608.38 -27.4479 1600.13 -25.2387 1592.42L296.441 470.592C298.65 462.887 305.569 457.482 313.578 457.202L1479.91 416.473C1487.92 416.193 1495.19 421.103 1497.94 428.634L1897.09 1525.29C1899.83 1532.82 1897.41 1541.26 1891.09 1546.2L971.453 2264.7Z" stroke="white" stroke-width="3"/>
<path opacity="0.0808081" d="M957.603 2274.74C951.202 2279.56 942.423 2279.71 935.858 2275.11L-18.3159 1607C-24.8813 1602.4 -27.7397 1594.1 -25.3964 1586.43L315.167 472.498C317.511 464.834 324.523 459.55 332.536 459.41L1497.19 439.081C1505.2 438.941 1512.4 443.977 1515.01 451.555L1894.24 1552.92C1896.85 1560.5 1894.28 1568.9 1887.88 1573.72L957.603 2274.74Z" stroke="white" stroke-width="3"/>
<path opacity="0.0909091" d="M943.802 2284.46C937.318 2289.17 928.538 2289.17 922.054 2284.46L-18.5293 1601.09C-25.0134 1596.38 -27.7266 1588.03 -25.2499 1580.41L334.021 474.684C336.498 467.061 343.601 461.901 351.615 461.901L1514.24 461.901C1522.25 461.901 1529.36 467.061 1531.83 474.684L1891.11 1580.41C1893.58 1588.03 1890.87 1596.38 1884.39 1601.09L943.802 2284.46Z" stroke="white" stroke-width="3"/>
<path opacity="0.10101" d="M930.065 2293.89C923.499 2298.48 914.721 2298.33 908.32 2293.51L-18.431 1595.15C-24.8319 1590.33 -27.3989 1581.93 -24.7896 1574.35L353.006 477.157C355.615 469.579 362.807 464.543 370.82 464.683L1531.06 484.935C1539.07 485.075 1546.09 490.359 1548.43 498.023L1887.7 1607.74C1890.05 1615.4 1887.19 1623.7 1880.62 1628.3L930.065 2293.89Z" stroke="white" stroke-width="3"/>
<path opacity="0.111111" d="M916.4 2303.01C909.756 2307.49 900.981 2307.18 894.665 2302.25L-18.0173 1589.18C-24.3331 1584.25 -26.7531 1575.81 -24.0119 1568.28L372.12 479.913C374.861 472.382 382.14 467.472 390.15 467.752L1547.65 508.173C1555.66 508.453 1562.58 513.858 1564.79 521.562L1884.04 1634.91C1886.25 1642.61 1883.25 1650.86 1876.6 1655.34L916.4 2303.01Z" stroke="white" stroke-width="3"/>
<path opacity="0.121212" d="M902.799 2311.82C896.078 2316.19 887.31 2315.73 881.081 2310.69L-17.3027 1583.19C-23.5314 1578.14 -25.8038 1569.66 -22.9316 1562.18L391.343 482.959C394.215 475.477 401.579 470.695 409.583 471.114L1564 531.615C1572.01 532.034 1578.83 537.56 1580.9 545.301L1880.1 1661.92C1882.17 1669.66 1879.03 1677.85 1872.31 1682.22L902.799 2311.82Z" stroke="white" stroke-width="3"/>
<path opacity="0.131313" d="M889.285 2320.34C882.488 2324.59 873.729 2323.97 867.59 2318.82L-16.2705 1577.18C-22.4102 1572.02 -24.5342 1563.5 -21.5319 1556.07L410.688 486.291C413.691 478.86 421.137 474.207 429.132 474.766L1580.12 555.251C1588.11 555.81 1594.84 561.454 1596.78 569.231L1875.91 1688.76C1877.85 1696.53 1874.56 1704.67 1867.76 1708.92L889.285 2320.34Z" stroke="white" stroke-width="3"/>
<path opacity="0.141414" d="M875.85 2328.56C868.98 2332.69 860.233 2331.92 854.185 2326.66L-14.9319 1571.15C-20.9808 1565.89 -22.9558 1557.34 -19.8242 1549.96L430.138 489.916C433.27 482.538 440.796 478.016 448.78 478.714L1595.99 579.082C1603.97 579.781 1610.6 585.541 1612.4 593.35L1871.45 1715.43C1873.26 1723.23 1869.83 1731.32 1862.96 1735.44L875.85 2328.56Z" stroke="white" stroke-width="3"/>
<path opacity="0.151515" d="M862.505 2336.48C855.564 2340.49 846.832 2339.57 840.876 2334.21L-13.2821 1565.12C-19.2383 1559.76 -21.0637 1551.17 -17.8039 1543.85L449.693 493.832C452.953 486.51 460.556 482.12 468.527 482.958L1611.61 603.101C1619.58 603.939 1626.11 609.814 1627.78 617.654L1866.75 1741.92C1868.41 1749.76 1864.84 1757.78 1857.9 1761.79L862.505 2336.48Z" stroke="white" stroke-width="3"/>
<path opacity="0.161616" d="M849.253 2344.11C842.243 2347.99 833.528 2346.92 827.667 2341.46L-11.3254 1559.08C-17.1871 1553.62 -18.8623 1545 -15.4752 1537.74L469.343 498.041C472.73 490.777 480.409 486.521 488.364 487.497L1626.99 627.303C1634.94 628.28 1641.37 634.268 1642.9 642.135L1861.79 1768.24C1863.32 1776.1 1859.61 1784.06 1852.6 1787.95L849.253 2344.11Z" stroke="white" stroke-width="3"/>
<path opacity="0.171717" d="M836.102 2351.44C829.025 2355.21 820.331 2353.98 814.565 2348.42L-9.05727 1553.05C-14.8227 1547.49 -16.3473 1538.84 -12.8338 1531.64L489.088 502.544C492.602 495.34 500.354 491.218 508.29 492.334L1642.12 651.683C1650.05 652.798 1656.37 658.897 1657.76 666.79L1856.58 1794.37C1857.98 1802.26 1854.13 1810.15 1847.05 1813.91L836.102 2351.44Z" stroke="white" stroke-width="3"/>
<path opacity="0.181818" d="M823.049 2358.49C815.908 2362.13 807.236 2360.75 801.569 2355.09L-6.48673 1547.03C-12.1541 1541.36 -13.5275 1532.69 -9.88893 1525.55L508.915 507.341C512.553 500.2 520.376 496.214 528.292 497.468L1656.99 676.235C1664.9 677.489 1671.11 683.698 1672.36 691.614L1851.13 1820.31C1852.39 1828.22 1848.4 1836.05 1841.26 1839.69L823.049 2358.49Z" stroke="white" stroke-width="3"/>
<path opacity="0.191919" d="M810.109 2365.25C802.905 2368.76 794.259 2367.24 788.691 2361.47L-3.60569 1541.02C-9.17326 1535.26 -10.3951 1526.56 -6.63248 1519.49L528.826 512.436C532.589 505.359 540.48 501.51 548.373 502.902L1671.6 700.958C1679.5 702.35 1685.59 708.665 1686.71 716.602L1845.44 1846.06C1846.56 1854 1842.44 1861.75 1835.23 1865.26L810.109 2365.25Z" stroke="white" stroke-width="3"/>
<path opacity="0.20202" d="M797.279 2371.72C790.015 2375.11 781.396 2373.43 775.93 2367.57L-0.422573 1535.03C-5.88868 1529.17 -6.95864 1520.46 -3.07304 1513.45L548.81 517.826C552.695 510.816 560.653 507.105 568.52 508.635L1685.96 725.842C1693.82 727.371 1699.81 733.793 1700.79 741.747L1839.52 1871.61C1840.49 1879.57 1836.24 1887.25 1828.97 1890.63L797.279 2371.72Z" stroke="white" stroke-width="3"/>
<path opacity="0.212121" d="M784.57 2377.91C777.248 2381.17 768.66 2379.35 763.297 2373.39L3.06893 1529.07C-2.29406 1523.11 -3.21176 1514.38 0.795584 1507.44L568.867 523.513C572.874 516.572 580.895 513.001 588.735 514.668L1700.05 750.885C1707.89 752.551 1713.76 759.076 1714.6 767.047L1833.36 1896.97C1834.2 1904.94 1829.81 1912.54 1822.49 1915.8L784.57 2377.91Z" stroke="white" stroke-width="3"/>
<path opacity="0.222222" d="M771.981 2383.82C764.604 2386.96 756.049 2384.98 750.791 2378.93L6.86186 1523.14C1.60364 1517.09 0.83847 1508.34 4.96634 1501.47L588.987 529.502C593.115 522.632 601.197 519.202 609.006 521.004L1713.88 776.085C1721.69 777.887 1727.45 784.514 1728.15 792.498L1826.98 1922.12C1827.67 1930.1 1823.15 1937.63 1815.77 1940.76L771.981 2383.82Z" stroke="white" stroke-width="3"/>
<path opacity="0.232323" d="M759.523 2389.46C752.092 2392.46 743.573 2390.34 738.421 2384.2L10.9596 1517.25C5.80775 1511.11 5.19535 1502.35 9.44249 1495.55L609.168 535.79C613.415 528.993 621.555 525.704 629.332 527.643L1727.44 801.433C1735.22 803.372 1740.86 810.098 1741.42 818.093L1820.37 1947.07C1820.93 1955.06 1816.28 1962.51 1808.84 1965.51L759.523 2389.46Z" stroke="white" stroke-width="3"/>
<path opacity="0.242424" d="M747.196 2394.82C739.714 2397.69 731.233 2395.42 726.189 2389.19L15.3581 1511.39C10.3142 1505.16 9.85479 1496.39 14.2199 1489.67L629.402 542.374C633.767 535.652 641.964 532.505 649.705 534.58L1740.74 826.922C1748.48 828.996 1754.01 835.819 1754.43 843.823L1813.54 1971.8C1813.96 1979.8 1809.18 1987.16 1801.7 1990.04L747.196 2394.82Z" stroke="white" stroke-width="3"/>
<path opacity="0.252525" d="M735.006 2399.91C727.475 2402.65 719.035 2400.23 714.101 2393.92L20.0561 1505.58C15.1217 1499.27 14.8153 1490.49 19.2971 1483.85L649.684 549.259C654.166 542.615 662.416 539.612 670.12 541.821L1753.77 852.551C1761.47 854.76 1766.88 861.679 1767.15 869.689L1806.5 1996.32C1806.78 2004.33 1801.87 2011.61 1794.34 2014.35L735.006 2399.91Z" stroke="white" stroke-width="3"/>
<path opacity="0.262626" d="M722.954 2404.74C715.376 2407.35 706.98 2404.78 702.157 2398.38L25.0492 1499.83C20.2257 1493.42 20.0726 1484.65 24.6696 1478.08L670.006 556.446C674.603 549.881 682.904 547.022 690.569 549.365L1766.52 878.315C1774.18 880.659 1779.46 887.671 1779.6 895.684L1799.24 2020.62C1799.38 2028.63 1794.34 2035.83 1786.77 2038.44L722.954 2404.74Z" stroke="white" stroke-width="3"/>
<path opacity="0.272727" d="M711.055 2409.29C703.432 2411.77 695.082 2409.06 690.371 2402.57L30.3456 1494.12C25.6346 1487.64 25.6347 1478.86 30.3456 1472.38L690.371 563.93C695.082 557.446 703.432 554.733 711.054 557.209L1779 904.205C1786.62 906.682 1791.78 913.785 1791.78 921.8L1791.78 2044.7C1791.78 2052.72 1786.62 2059.82 1779 2062.3L711.055 2409.29Z" stroke="white" stroke-width="3"/>
<path opacity="0.282828" d="M699.301 2413.59C691.636 2415.93 683.334 2413.07 678.737 2406.51L35.9331 1488.49C31.336 1481.92 31.4893 1473.14 36.3126 1466.74L710.764 571.716C715.587 565.316 723.984 562.749 731.562 565.358L1791.2 930.22C1798.78 932.83 1803.81 940.022 1803.67 948.035L1784.11 2068.56C1783.97 2076.57 1778.69 2083.59 1771.03 2085.93L699.301 2413.59Z" stroke="white" stroke-width="3"/>
<path opacity="0.292929" d="M687.708 2417.63C680.004 2419.83 671.753 2416.83 667.271 2410.19L41.8209 1482.92C37.339 1476.27 37.6455 1467.5 42.5798 1461.18L731.19 579.803C736.124 573.487 744.564 571.067 752.096 573.808L1803.13 956.354C1810.66 959.095 1815.57 966.374 1815.29 974.384L1776.26 2092.19C1775.98 2100.2 1770.57 2107.12 1762.87 2109.33L687.708 2417.63Z" stroke="white" stroke-width="3"/>
<path opacity="0.30303" d="M676.266 2421.41C668.524 2423.48 660.327 2420.34 655.962 2413.61L47.9915 1477.42C43.6263 1470.7 44.0859 1461.93 49.1297 1455.7L751.628 588.189C756.672 581.961 765.153 579.688 772.635 582.56L1814.77 982.6C1822.26 985.472 1827.04 992.836 1826.62 1000.84L1768.2 2115.59C1767.78 2123.59 1762.25 2130.42 1754.51 2132.49L676.266 2421.41Z" stroke="white" stroke-width="3"/>
<path opacity="0.313131" d="M664.997 2424.94C657.221 2426.88 649.08 2423.59 644.833 2416.79L54.4632 1472C50.216 1465.2 50.8285 1456.45 55.9802 1450.31L772.094 596.875C777.245 590.736 785.764 588.612 793.196 591.614L1826.15 1008.95C1833.58 1011.96 1838.23 1019.4 1837.67 1027.4L1759.96 2138.76C1759.4 2146.75 1753.76 2153.48 1745.98 2155.42L664.997 2424.94Z" stroke="white" stroke-width="3"/>
<path opacity="0.323232" d="M653.885 2428.22C646.075 2430.02 637.993 2426.59 633.865 2419.72L61.2112 1466.67C57.0832 1459.8 57.8485 1451.05 63.1066 1445L792.557 605.863C797.815 599.814 806.37 597.839 813.748 600.971L1837.23 1035.41C1844.61 1038.54 1849.13 1046.07 1848.43 1054.05L1751.52 2161.69C1750.82 2169.67 1745.06 2176.3 1737.26 2178.1L653.885 2428.22Z" stroke="white" stroke-width="3"/>
<path opacity="0.333333" d="M642.95 2431.26C635.11 2432.92 627.089 2429.35 623.082 2422.41L68.2518 1461.42C64.2444 1454.47 65.1622 1445.74 70.5251 1439.79L813.033 615.148C818.396 609.192 826.984 607.366 834.306 610.626L1848.03 1061.97C1855.35 1065.23 1859.74 1072.83 1858.91 1080.8L1742.91 2184.38C1742.08 2192.35 1736.2 2198.88 1728.36 2200.54L642.95 2431.26Z" stroke="white" stroke-width="3"/>
<path opacity="0.343434" d="M632.191 2434.05C624.324 2435.58 616.366 2431.87 612.481 2424.86L75.5763 1456.26C71.6906 1449.25 72.7607 1440.53 78.2267 1434.67L833.508 624.73C838.975 618.868 847.593 617.193 854.857 620.58L1858.55 1088.61C1865.82 1092 1870.07 1099.68 1869.1 1107.63L1734.13 2206.83C1733.15 2214.79 1727.17 2221.21 1719.3 2222.74L632.191 2434.05Z" stroke="white" stroke-width="3"/>
<path opacity="0.353535" d="M621.611 2436.61C613.718 2438 605.827 2434.15 602.064 2427.07L83.1822 1451.2C79.4194 1444.12 80.6415 1435.43 86.2089 1429.66L853.978 634.612C859.546 628.847 868.192 627.322 875.396 630.835L1868.79 1115.34C1875.99 1118.86 1880.11 1126.61 1879 1134.55L1725.17 2229.04C1724.06 2236.97 1717.96 2243.29 1710.07 2244.68L621.611 2436.61Z" stroke="white" stroke-width="3"/>
<path opacity="0.363636" d="M611.214 2438.93C603.298 2440.18 595.474 2436.2 591.836 2429.06L91.066 1446.24C87.4273 1439.1 88.8009 1430.43 94.4681 1424.76L874.436 644.792C880.103 639.125 888.775 637.752 895.916 641.39L1878.73 1142.16C1885.87 1145.8 1889.86 1153.62 1888.61 1161.54L1716.05 2251C1714.8 2258.91 1708.59 2265.12 1700.67 2266.38L611.214 2438.93Z" stroke="white" stroke-width="3"/>
<path opacity="0.373737" d="M601.008 2441.02C593.071 2442.14 585.319 2438.01 581.805 2430.81L99.2318 1441.39C95.7183 1434.18 97.243 1425.54 103.008 1419.97L894.882 655.266C900.647 649.699 909.341 648.477 916.418 652.24L1888.4 1169.05C1895.47 1172.81 1899.32 1180.7 1897.93 1188.6L1706.77 2272.71C1705.38 2280.6 1699.06 2286.7 1691.13 2287.81L601.008 2441.02Z" stroke="white" stroke-width="3"/>
<path opacity="0.383838" d="M590.989 2442.89C583.034 2443.86 575.355 2439.61 571.967 2432.34L107.668 1436.65C104.28 1429.38 105.956 1420.77 111.817 1415.3L915.302 666.037C921.164 660.571 929.878 659.501 936.888 663.387L1897.77 1196.01C1904.78 1199.9 1908.49 1207.85 1906.96 1215.72L1697.33 2294.16C1695.8 2302.03 1689.38 2308.02 1681.43 2309L590.989 2442.89Z" stroke="white" stroke-width="3"/>
<path opacity="0.393939" d="M581.163 2444.53C573.193 2445.37 565.589 2440.98 562.329 2433.65L116.375 1432.03C113.115 1424.7 114.94 1416.11 120.896 1410.75L935.695 677.104C941.651 671.741 950.383 670.823 957.324 674.831L1906.85 1223.04C1913.79 1227.05 1917.36 1235.07 1915.7 1242.91L1687.74 2315.37C1686.07 2323.21 1679.55 2329.08 1671.58 2329.92L581.163 2444.53Z" stroke="white" stroke-width="3"/>
<path opacity="0.40404" d="M571.534 2445.95C563.549 2446.65 556.023 2442.13 552.892 2434.75L125.349 1427.52C122.217 1420.14 124.192 1411.59 130.241 1406.33L956.054 688.463C962.103 683.205 970.849 682.44 977.719 686.567L1915.64 1250.13C1922.51 1254.26 1925.94 1262.34 1924.14 1270.15L1678 2336.32C1676.19 2344.13 1669.57 2349.89 1661.58 2350.58L571.534 2445.95Z" stroke="white" stroke-width="3"/>
<path opacity="0.414141" d="M562.11 2447.16C554.115 2447.72 546.669 2443.07 543.666 2435.63L134.594 1423.14C131.591 1415.71 133.715 1407.19 139.855 1402.04L976.38 700.114C982.52 694.962 991.279 694.349 998.075 698.597L1924.15 1277.27C1930.95 1281.52 1934.24 1289.66 1932.3 1297.44L1668.12 2357.01C1666.18 2364.78 1659.45 2370.43 1651.46 2370.98L562.11 2447.16Z" stroke="white" stroke-width="3"/>
<path opacity="0.424242" d="M552.895 2448.16C544.891 2448.58 537.528 2443.8 534.656 2436.31L144.106 1418.9C141.234 1411.41 143.507 1402.93 149.735 1397.89L996.669 712.057C1002.9 707.013 1011.67 706.554 1018.39 710.919L1932.37 1304.47C1939.09 1308.83 1942.24 1317.03 1940.16 1324.77L1658.1 2377.44C1656.03 2385.18 1649.2 2390.7 1641.2 2391.12L552.895 2448.16Z" stroke="white" stroke-width="3"/>
<path opacity="0.434343" d="M543.882 2448.95C535.872 2449.23 528.593 2444.32 525.852 2436.79L153.873 1414.78C151.132 1407.25 153.552 1398.81 159.868 1393.88L1016.9 724.289C1023.22 719.355 1031.99 719.048 1038.64 723.53L1940.29 1331.7C1946.94 1336.19 1949.94 1344.44 1947.73 1352.14L1647.95 2397.6C1645.74 2405.31 1638.82 2410.71 1630.81 2410.99L543.882 2448.95Z" stroke="white" stroke-width="3"/>
<path opacity="0.444444" d="M535.086 2449.54C527.073 2449.68 519.881 2444.64 517.271 2437.06L163.904 1410.81C161.295 1403.23 163.862 1394.84 170.263 1390.01L1037.09 736.811C1043.49 731.987 1052.27 731.834 1058.84 736.431L1947.93 1358.98C1954.5 1363.58 1957.36 1371.88 1955.01 1379.55L1637.68 2417.51C1635.33 2425.17 1628.32 2430.45 1620.31 2430.59L535.086 2449.54Z" stroke="white" stroke-width="3"/>
<path opacity="0.454545" d="M526.504 2449.93C518.489 2449.93 511.386 2444.77 508.909 2437.14L174.188 1406.98C171.712 1399.36 174.425 1391.01 180.909 1386.3L1057.22 749.62C1063.7 744.909 1072.48 744.909 1078.97 749.62L1955.28 1386.3C1961.76 1391.01 1964.47 1399.36 1962 1406.98L1627.28 2437.14C1624.8 2444.77 1617.7 2449.93 1609.68 2449.93L526.504 2449.93Z" stroke="white" stroke-width="3"/>
<path opacity="0.464646" d="M518.136 2450.12C510.122 2449.98 503.11 2444.7 500.767 2437.03L184.721 1403.3C182.378 1395.63 185.237 1387.33 191.802 1382.73L1077.28 762.712C1083.85 758.115 1092.63 758.268 1099.03 763.092L1962.33 1413.64C1968.73 1418.46 1971.3 1426.86 1968.69 1434.43L1616.76 2456.51C1614.15 2464.09 1606.96 2469.13 1598.94 2468.99L518.136 2450.12Z" stroke="white" stroke-width="3"/>
<path opacity="0.474747" d="M509.989 2450.13C501.98 2449.85 495.061 2444.44 492.852 2436.74L195.504 1399.76C193.294 1392.06 196.297 1383.81 202.942 1379.33L1097.28 776.089C1103.92 771.607 1112.7 771.913 1119.01 776.847L1969.09 1441C1975.41 1445.94 1977.83 1454.38 1975.09 1461.91L1606.13 2475.62C1603.39 2483.15 1596.11 2488.06 1588.1 2487.78L509.989 2450.13Z" stroke="white" stroke-width="3"/>
<path opacity="0.484848" d="M502.067 2449.95C494.063 2449.53 487.24 2444 485.166 2436.26L206.532 1396.39C204.457 1388.64 207.604 1380.45 214.326 1376.08L1117.2 789.746C1123.93 785.381 1132.69 785.841 1138.92 790.884L1975.57 1468.38C1981.79 1473.43 1984.07 1481.91 1981.19 1489.39L1595.39 2494.45C1592.52 2501.93 1585.15 2506.71 1577.15 2506.29L502.067 2449.95Z" stroke="white" stroke-width="3"/>
<path opacity="0.494949" d="M494.373 2449.59C486.378 2449.03 479.652 2443.38 477.713 2435.61L217.804 1393.17C215.865 1385.39 219.154 1377.25 225.951 1373L1137.05 803.685C1143.85 799.438 1152.61 800.05 1158.75 805.202L1981.75 1495.78C1987.89 1500.93 1990.01 1509.45 1987.01 1516.88L1584.55 2513.01C1581.55 2520.44 1574.1 2525.09 1566.11 2524.53L494.373 2449.59Z" stroke="white" stroke-width="3"/>
<path opacity="0.50505" d="M486.91 2449.05C478.925 2448.35 472.299 2442.59 470.496 2434.78L229.316 1390.12C227.513 1382.31 230.944 1374.23 237.814 1370.1L1156.82 817.902C1163.69 813.774 1172.44 814.54 1178.49 819.798L1987.64 1523.19C1993.69 1528.45 1995.67 1537 1992.54 1544.38L1573.62 2531.29C1570.48 2538.67 1562.96 2543.19 1554.97 2542.49L486.91 2449.05Z" stroke="white" stroke-width="3"/>
<path opacity="0.515152" d="M479.677 2448.34C471.706 2447.5 465.181 2441.63 463.515 2433.79L241.062 1387.23C239.396 1379.39 242.967 1371.37 249.908 1367.36L1176.5 832.396C1183.44 828.389 1192.17 829.306 1198.13 834.669L1993.25 1550.6C1999.21 1555.96 2001.03 1564.55 1997.77 1571.87L1562.59 2549.31C1559.33 2556.63 1551.72 2561.02 1543.75 2560.18L479.677 2448.34Z" stroke="white" stroke-width="3"/>
<path opacity="0.525253" d="M472.68 2447.47C464.725 2446.49 458.303 2440.5 456.774 2432.63L253.041 1384.52C251.512 1376.65 255.223 1368.69 262.232 1364.81L1196.09 847.163C1203.1 843.277 1211.82 844.347 1217.68 849.813L1998.57 1578C2004.43 1583.47 2006.1 1592.09 2002.72 1599.35L1551.47 2567.05C1548.09 2574.31 1540.41 2578.57 1532.45 2577.59L472.68 2447.47Z" stroke="white" stroke-width="3"/>
<path opacity="0.535354" d="M465.919 2446.42C457.982 2445.31 451.667 2439.21 450.275 2431.32L265.249 1381.98C263.857 1374.09 267.706 1366.2 274.782 1362.43L1215.58 862.199C1222.66 858.437 1231.36 859.658 1237.12 865.226L2003.59 1605.4C2009.36 1610.97 2010.88 1619.62 2007.37 1626.82L1540.28 2584.51C1536.76 2591.71 1529.01 2595.83 1521.07 2594.72L465.919 2446.42Z" stroke="white" stroke-width="3"/>
<path opacity="0.545455" d="M459.401 2445.22C451.484 2443.97 445.276 2437.76 444.022 2429.84L277.683 1379.62C276.429 1371.7 280.415 1363.88 287.556 1360.24L1234.98 877.505C1242.12 873.866 1250.79 875.24 1256.46 880.907L2008.34 1632.79C2014.01 1638.45 2015.38 1647.13 2011.74 1654.27L1529 2601.69C1525.37 2608.83 1517.54 2612.82 1509.63 2611.56L459.401 2445.22Z" stroke="white" stroke-width="3"/>
<path opacity="0.555556" d="M453.119 2443.87C445.226 2442.48 439.127 2436.16 438.012 2428.23L290.334 1377.44C289.218 1369.51 293.34 1361.75 300.544 1358.24L1254.26 893.08C1261.47 889.566 1270.11 891.091 1275.68 896.856L2012.79 1660.16C2018.36 1665.92 2019.58 1674.62 2015.82 1681.69L1517.66 2618.6C1513.89 2625.67 1506 2629.52 1498.11 2628.13L453.119 2443.87Z" stroke="white" stroke-width="3"/>
<path opacity="0.565657" d="M447.088 2442.37C439.221 2440.84 433.233 2434.42 432.256 2426.46L303.208 1375.45C302.231 1367.5 306.488 1359.82 313.752 1356.43L1273.44 908.917C1280.71 905.53 1289.33 907.205 1294.79 913.067L2016.96 1687.5C2022.43 1693.36 2023.5 1702.08 2019.61 1709.09L1506.25 2635.22C1502.36 2642.23 1494.4 2645.94 1486.54 2644.41L447.088 2442.37Z" stroke="white" stroke-width="3"/>
<path opacity="0.575758" d="M441.297 2440.72C433.457 2439.05 427.582 2432.53 426.744 2424.56L316.29 1373.65C315.452 1365.68 319.842 1358.08 327.164 1354.82L1292.5 925.018C1299.83 921.758 1308.41 923.584 1313.78 929.54L2020.85 1714.82C2026.21 1720.77 2027.13 1729.51 2023.12 1736.45L1494.77 2651.57C1490.76 2658.52 1482.74 2662.09 1474.9 2660.42L441.297 2440.72Z" stroke="white" stroke-width="3"/>
<path opacity="0.585859" d="M435.759 2438.93C427.95 2437.13 422.19 2430.5 421.491 2422.52L329.586 1372.04C328.888 1364.05 333.41 1356.53 340.787 1353.4L1311.45 941.375C1318.83 938.243 1327.38 940.218 1332.64 946.267L2024.45 1742.1C2029.71 1748.15 2030.47 1756.9 2026.34 1763.77L1483.24 2667.64C1479.11 2674.51 1471.03 2677.94 1463.22 2676.14L435.759 2438.93Z" stroke="white" stroke-width="3"/>
<path opacity="0.59596" d="M430.472 2437.01C422.695 2435.07 417.051 2428.34 416.492 2420.35L343.089 1370.63C342.529 1362.63 347.182 1355.19 354.613 1352.18L1330.27 957.991C1337.7 954.989 1346.22 957.113 1351.38 963.253L2027.77 1769.35C2032.92 1775.49 2033.53 1784.25 2029.29 1791.04L1471.66 2683.43C1467.41 2690.23 1459.27 2693.52 1451.5 2691.58L430.472 2437.01Z" stroke="white" stroke-width="3"/>
<path opacity="0.606061" d="M425.434 2434.95C417.693 2432.88 412.167 2426.06 411.748 2418.05L356.791 1369.41C356.371 1361.41 361.153 1354.05 368.636 1351.18L1348.97 974.861C1356.45 971.989 1364.93 974.262 1369.97 980.49L2030.81 1796.55C2035.85 1802.78 2036.31 1811.55 2031.95 1818.27L1460.03 2698.94C1455.67 2705.66 1447.47 2708.81 1439.73 2706.73L425.434 2434.95Z" stroke="white" stroke-width="3"/>
<path opacity="0.616162" d="M420.65 2432.77C412.946 2430.57 407.54 2423.65 407.261 2415.64L370.691 1368.41C370.411 1360.4 375.321 1353.12 382.852 1350.38L1367.53 991.983C1375.06 989.242 1383.5 991.662 1388.43 997.978L2033.57 1823.71C2038.5 1830.03 2038.81 1838.8 2034.33 1845.45L1448.36 2714.17C1443.88 2720.81 1435.63 2723.82 1427.93 2721.61L420.65 2432.77Z" stroke="white" stroke-width="3"/>
<path opacity="0.626263" d="M416.127 2430.48C408.462 2428.13 403.178 2421.12 403.038 2413.11L384.789 1367.6C384.649 1359.59 389.685 1352.4 397.263 1349.79L1385.96 1009.35C1393.53 1006.74 1401.93 1009.31 1406.75 1015.71L2036.05 1850.82C2040.87 1857.22 2041.03 1865.99 2036.43 1872.56L1436.66 2729.12C1432.07 2735.68 1423.76 2738.54 1416.1 2736.2L416.127 2430.48Z" stroke="white" stroke-width="3"/>
<path opacity="0.636364" d="M411.859 2428.06C404.236 2425.58 399.075 2418.48 399.075 2410.46L399.075 1367.01C399.075 1358.99 404.236 1351.89 411.859 1349.41L1404.24 1026.97C1411.87 1024.49 1420.22 1027.2 1424.93 1033.69L2038.26 1877.86C2042.97 1884.34 2042.97 1893.12 2038.26 1899.61L1424.93 2743.78C1420.22 2750.27 1411.87 2752.98 1404.24 2750.5L411.859 2428.06Z" stroke="white" stroke-width="3"/>
<path opacity="0.646465" d="M407.849 2425.53C400.271 2422.92 395.235 2415.73 395.375 2407.72L413.547 1366.63C413.687 1358.61 418.971 1351.6 426.635 1349.26L1422.39 1044.82C1430.05 1042.48 1438.35 1045.34 1442.95 1051.91L2040.19 1904.85C2044.78 1911.41 2044.63 1920.19 2039.81 1926.59L1413.17 2758.17C1408.34 2764.57 1399.95 2767.14 1392.37 2764.53L407.849 2425.53Z" stroke="white" stroke-width="3"/>
<path opacity="0.656566" d="M404.101 2422.9C396.569 2420.15 391.659 2412.87 391.939 2404.87L428.201 1366.46C428.481 1358.45 433.886 1351.53 441.591 1349.32L1440.38 1062.92C1448.09 1060.71 1456.34 1063.71 1460.82 1070.36L2041.84 1931.76C2046.33 1938.41 2046.02 1947.18 2041.08 1953.5L1401.39 2772.27C1396.45 2778.59 1388.01 2781.01 1380.48 2778.27L404.101 2422.9Z" stroke="white" stroke-width="3"/>
<path opacity="0.666667" d="M400.61 2420.16C393.128 2417.29 388.346 2409.92 388.765 2401.92L443.029 1366.51C443.449 1358.5 448.974 1351.68 456.716 1349.6L1458.22 1081.25C1465.96 1079.18 1474.16 1082.32 1478.53 1089.04L2043.23 1958.61C2047.59 1965.33 2047.13 1974.1 2042.09 1980.33L1389.59 2786.1C1384.54 2792.33 1376.06 2794.6 1368.58 2791.73L400.61 2420.16Z" stroke="white" stroke-width="3"/>
<path opacity="0.676768" d="M397.386 2417.33C389.955 2414.33 385.302 2406.88 385.861 2398.88L458.033 1366.78C458.593 1358.78 464.236 1352.06 472.013 1350.12L1475.91 1099.82C1483.69 1097.88 1491.83 1101.17 1496.07 1107.96L2044.34 1985.38C2048.59 1992.18 2047.98 2000.93 2042.83 2007.07L1377.78 2799.65C1372.63 2805.79 1364.11 2807.91 1356.68 2804.91L397.386 2417.33Z" stroke="white" stroke-width="3"/>
<path opacity="0.686869" d="M394.423 2414.4C387.046 2411.27 382.524 2403.75 383.222 2395.76L473.204 1367.27C473.902 1359.29 479.662 1352.66 487.472 1350.86L1493.43 1118.61C1501.24 1116.81 1509.32 1120.24 1513.45 1127.11L2045.19 2012.07C2049.32 2018.94 2048.55 2027.68 2043.29 2033.73L1365.96 2812.91C1360.7 2818.96 1352.15 2820.94 1344.77 2817.8L394.423 2414.4Z" stroke="white" stroke-width="3"/>
</g>
</g>
<mask id="mask1_2_3" style="mask-type:alpha" maskUnits="userSpaceOnUse" x="0" y="850" width="1440" height="850">
<rect y="850" width="1440" height="850" fill="white"/>
</mask>
<g mask="url(#mask1_2_3)">
<g filter="url(#filter1_f_2_3)">
<path d="M856.93 176.87L1168.12 -25.6216L1257.72 363.706L1539.5 503.986L1003 816.986L447 503.986L246 176.869L856.93 176.87Z" fill="url(#paint1_angular_2_3)" fill-opacity="0.4"/>
</g>
<g opacity="0.1">
<path opacity="0.010101" d="M1055.47 2197.95C1049.71 2203.51 1041.01 2204.74 1033.94 2200.97L-8.18843 1646.87C-15.2651 1643.1 -19.114 1635.21 -17.7222 1627.32L187.231 464.97C188.623 457.077 194.939 450.978 202.875 449.863L1371.67 285.599C1379.61 284.484 1387.36 288.606 1390.87 295.809L1908.27 1356.64C1911.78 1363.84 1910.26 1372.49 1904.49 1378.06L1055.47 2197.95Z" stroke="white" stroke-width="3"/>
<path opacity="0.020202" d="M1041.39 2209.86C1035.53 2215.32 1026.81 2216.39 1019.8 2212.51L-10.5619 1641.37C-17.5719 1637.48 -21.2824 1629.52 -19.7531 1621.66L205.034 465.227C206.563 457.36 212.984 451.372 220.939 450.395L1390.23 306.824C1398.19 305.847 1405.86 310.104 1409.25 317.368L1907.13 1385.06C1910.51 1392.33 1908.84 1400.95 1902.98 1406.41L1041.39 2209.86Z" stroke="white" stroke-width="3"/>
<path opacity="0.030303" d="M1027.33 2221.45C1021.38 2226.81 1012.65 2227.73 1005.7 2223.72L-12.6245 1635.79C-19.5656 1631.78 -23.1367 1623.76 -21.4703 1615.92L223.006 465.751C224.672 457.911 231.197 452.036 239.168 451.198L1408.59 328.287C1416.56 327.449 1424.17 331.839 1427.43 339.161L1905.69 1413.37C1908.95 1420.69 1907.13 1429.28 1901.17 1434.64L1027.33 2221.45Z" stroke="white" stroke-width="3"/>
<path opacity="0.040404" d="M1013.31 2232.73C1007.26 2237.99 998.511 2238.75 991.641 2234.63L-14.3807 1630.15C-21.2507 1626.02 -24.6813 1617.94 -22.8784 1610.13L241.137 466.55C242.94 458.741 249.567 452.981 257.551 452.282L1426.74 349.991C1434.73 349.293 1442.25 353.815 1445.39 361.192L1903.97 1441.55C1907.1 1448.93 1905.13 1457.48 1899.08 1462.74L1013.31 2232.73Z" stroke="white" stroke-width="3"/>
<path opacity="0.050505" d="M999.316 2243.7C993.176 2248.85 984.418 2249.46 977.621 2245.21L-15.8267 1624.44C-22.6236 1620.19 -25.9127 1612.05 -23.9737 1604.27L259.426 467.62C261.365 459.843 268.091 454.2 276.086 453.641L1444.68 371.924C1452.68 371.365 1460.13 376.018 1463.13 383.449L1901.96 1469.6C1904.96 1477.03 1902.84 1485.55 1896.7 1490.7L999.316 2243.7Z" stroke="white" stroke-width="3"/>
<path opacity="0.0606061" d="M985.362 2254.36C979.134 2259.4 970.366 2259.86 963.644 2255.49L-16.9677 1618.68C-23.6895 1614.31 -26.8359 1606.11 -24.7615 1598.37L277.862 468.969C279.936 461.227 286.759 455.702 294.763 455.282L1462.41 394.089C1470.41 393.669 1477.77 398.451 1480.65 405.934L1899.67 1497.52C1902.54 1505 1900.26 1513.48 1894.04 1518.53L985.362 2254.36Z" stroke="white" stroke-width="3"/>
<path opacity="0.0707071" d="M971.453 2264.7C965.137 2269.63 956.363 2269.94 949.718 2265.46L-17.8004 1612.86C-24.4449 1608.38 -27.4479 1600.13 -25.2387 1592.42L296.441 470.592C298.65 462.887 305.569 457.482 313.578 457.202L1479.91 416.473C1487.92 416.193 1495.19 421.103 1497.94 428.634L1897.09 1525.29C1899.83 1532.82 1897.41 1541.26 1891.09 1546.2L971.453 2264.7Z" stroke="white" stroke-width="3"/>
<path opacity="0.0808081" d="M957.603 2274.74C951.202 2279.56 942.423 2279.71 935.858 2275.11L-18.3159 1607C-24.8813 1602.4 -27.7397 1594.1 -25.3964 1586.43L315.167 472.498C317.511 464.834 324.523 459.55 332.536 459.41L1497.19 439.081C1505.2 438.941 1512.4 443.977 1515.01 451.555L1894.24 1552.92C1896.85 1560.5 1894.28 1568.9 1887.88 1573.72L957.603 2274.74Z" stroke="white" stroke-width="3"/>
<path opacity="0.0909091" d="M943.802 2284.46C937.318 2289.17 928.538 2289.17 922.054 2284.46L-18.5293 1601.09C-25.0134 1596.38 -27.7266 1588.03 -25.2499 1580.41L334.021 474.684C336.498 467.061 343.601 461.901 351.615 461.901L1514.24 461.901C1522.25 461.901 1529.36 467.061 1531.83 474.684L1891.11 1580.41C1893.58 1588.03 1890.87 1596.38 1884.39 1601.09L943.802 2284.46Z" stroke="white" stroke-width="3"/>
<path opacity="0.10101" d="M930.065 2293.89C923.499 2298.48 914.721 2298.33 908.32 2293.51L-18.431 1595.15C-24.8319 1590.33 -27.3989 1581.93 -24.7896 1574.35L353.006 477.157C355.615 469.579 362.807 464.543 370.82 464.683L1531.06 484.935C1539.07 485.075 1546.09 490.359 1548.43 498.023L1887.7 1607.74C1890.05 1615.4 1887.19 1623.7 1880.62 1628.3L930.065 2293.89Z" stroke="white" stroke-width="3"/>
<path opacity="0.111111" d="M916.4 2303.01C909.756 2307.49 900.981 2307.18 894.665 2302.25L-18.0173 1589.18C-24.3331 1584.25 -26.7531 1575.81 -24.0119 1568.28L372.12 479.913C374.861 472.382 382.14 467.472 390.15 467.752L1547.65 508.173C1555.66 508.453 1562.58 513.858 1564.79 521.562L1884.04 1634.91C1886.25 1642.61 1883.25 1650.86 1876.6 1655.34L916.4 2303.01Z" stroke="white" stroke-width="3"/>
<path opacity="0.121212" d="M902.799 2311.82C896.078 2316.19 887.31 2315.73 881.081 2310.69L-17.3027 1583.19C-23.5314 1578.14 -25.8038 1569.66 -22.9316 1562.18L391.343 482.959C394.215 475.477 401.579 470.695 409.583 471.114L1564 531.615C1572.01 532.034 1578.83 537.56 1580.9 545.301L1880.1 1661.92C1882.17 1669.66 1879.03 1677.85 1872.31 1682.22L902.799 2311.82Z" stroke="white" stroke-width="3"/>
<path opacity="0.131313" d="M889.285 2320.34C882.488 2324.59 873.729 2323.97 867.59 2318.82L-16.2705 1577.18C-22.4102 1572.02 -24.5342 1563.5 -21.5319 1556.07L410.688 486.291C413.691 478.86 421.137 474.207 429.132 474.766L1580.12 555.251C1588.11 555.81 1594.84 561.454 1596.78 569.231L1875.91 1688.76C1877.85 1696.53 1874.56 1704.67 1867.76 1708.92L889.285 2320.34Z" stroke="white" stroke-width="3"/>
<path opacity="0.141414" d="M875.85 2328.56C868.98 2332.69 860.233 2331.92 854.185 2326.66L-14.9319 1571.15C-20.9808 1565.89 -22.9558 1557.34 -19.8242 1549.96L430.138 489.916C433.27 482.538 440.796 478.016 448.78 478.714L1595.99 579.082C1603.97 579.781 1610.6 585.541 1612.4 593.35L1871.45 1715.43C1873.26 1723.23 1869.83 1731.32 1862.96 1735.44L875.85 2328.56Z" stroke="white" stroke-width="3"/>
<path opacity="0.151515" d="M862.505 2336.48C855.564 2340.49 846.832 2339.57 840.876 2334.21L-13.2821 1565.12C-19.2383 1559.76 -21.0637 1551.17 -17.8039 1543.85L449.693 493.832C452.953 486.51 460.556 482.12 468.527 482.958L1611.61 603.101C1619.58 603.939 1626.11 609.814 1627.78 617.654L1866.75 1741.92C1868.41 1749.76 1864.84 1757.78 1857.9 1761.79L862.505 2336.48Z" stroke="white" stroke-width="3"/>
<path opacity="0.161616" d="M849.253 2344.11C842.243 2347.99 833.528 2346.92 827.667 2341.46L-11.3254 1559.08C-17.1871 1553.62 -18.8623 1545 -15.4752 1537.74L469.343 498.041C472.73 490.777 480.409 486.521 488.364 487.497L1626.99 627.303C1634.94 628.28 1641.37 634.268 1642.9 642.135L1861.79 1768.24C1863.32 1776.1 1859.61 1784.06 1852.6 1787.95L849.253 2344.11Z" stroke="white" stroke-width="3"/>
<path opacity="0.171717" d="M836.102 2351.44C829.025 2355.21 820.331 2353.98 814.565 2348.42L-9.05727 1553.05C-14.8227 1547.49 -16.3473 1538.84 -12.8338 1531.64L489.088 502.544C492.602 495.34 500.354 491.218 508.29 492.334L1642.12 651.683C1650.05 652.798 1656.37 658.897 1657.76 666.79L1856.58 1794.37C1857.98 1802.26 1854.13 1810.15 1847.05 1813.91L836.102 2351.44Z" stroke="white" stroke-width="3"/>
<path opacity="0.181818" d="M823.049 2358.49C815.908 2362.13 807.236 2360.75 801.569 2355.09L-6.48673 1547.03C-12.1541 1541.36 -13.5275 1532.69 -9.88893 1525.55L508.915 507.341C512.553 500.2 520.376 496.214 528.292 497.468L1656.99 676.235C1664.9 677.489 1671.11 683.698 1672.36 691.614L1851.13 1820.31C1852.39 1828.22 1848.4 1836.05 1841.26 1839.69L823.049 2358.49Z" stroke="white" stroke-width="3"/>
<path opacity="0.191919" d="M810.109 2365.25C802.905 2368.76 794.259 2367.24 788.691 2361.47L-3.60569 1541.02C-9.17326 1535.26 -10.3951 1526.56 -6.63248 1519.49L528.826 512.436C532.589 505.359 540.48 501.51 548.373 502.902L1671.6 700.958C1679.5 702.35 1685.59 708.665 1686.71 716.602L1845.44 1846.06C1846.56 1854 1842.44 1861.75 1835.23 1865.26L810.109 2365.25Z" stroke="white" stroke-width="3"/>
<path opacity="0.20202" d="M797.279 2371.72C790.015 2375.11 781.396 2373.43 775.93 2367.57L-0.422573 1535.03C-5.88868 1529.17 -6.95864 1520.46 -3.07304 1513.45L548.81 517.826C552.695 510.816 560.653 507.105 568.52 508.635L1685.96 725.842C1693.82 727.371 1699.81 733.793 1700.79 741.747L1839.52 1871.61C1840.49 1879.57 1836.24 1887.25 1828.97 1890.63L797.279 2371.72Z" stroke="white" stroke-width="3"/>
<path opacity="0.212121" d="M784.57 2377.91C777.248 2381.17 768.66 2379.35 763.297 2373.39L3.06893 1529.07C-2.29406 1523.11 -3.21176 1514.38 0.795584 1507.44L568.867 523.513C572.874 516.572 580.895 513.001 588.735 514.668L1700.05 750.885C1707.89 752.551 1713.76 759.076 1714.6 767.047L1833.36 1896.97C1834.2 1904.94 1829.81 1912.54 1822.49 1915.8L784.57 2377.91Z" stroke="white" stroke-width="3"/>
<path opacity="0.222222" d="M771.981 2383.82C764.604 2386.96 756.049 2384.98 750.791 2378.93L6.86186 1523.14C1.60364 1517.09 0.83847 1508.34 4.96634 1501.47L588.987 529.502C593.115 522.632 601.197 519.202 609.006 521.004L1713.88 776.085C1721.69 777.887 1727.45 784.514 1728.15 792.498L1826.98 1922.12C1827.67 1930.1 1823.15 1937.63 1815.77 1940.76L771.981 2383.82Z" stroke="white" stroke-width="3"/>
<path opacity="0.232323" d="M759.523 2389.46C752.092 2392.46 743.573 2390.34 738.421 2384.2L10.9596 1517.25C5.80775 1511.11 5.19535 1502.35 9.44249 1495.55L609.168 535.79C613.415 528.993 621.555 525.704 629.332 527.643L1727.44 801.433C1735.22 803.372 1740.86 810.098 1741.42 818.093L1820.37 1947.07C1820.93 1955.06 1816.28 1962.51 1808.84 1965.51L759.523 2389.46Z" stroke="white" stroke-width="3"/>
<path opacity="0.242424" d="M747.196 2394.82C739.714 2397.69 731.233 2395.42 726.189 2389.19L15.3581 1511.39C10.3142 1505.16 9.85479 1496.39 14.2199 1489.67L629.402 542.374C633.767 535.652 641.964 532.505 649.705 534.58L1740.74 826.922C1748.48 828.996 1754.01 835.819 1754.43 843.823L1813.54 1971.8C1813.96 1979.8 1809.18 1987.16 1801.7 1990.04L747.196 2394.82Z" stroke="white" stroke-width="3"/>
<path opacity="0.252525" d="M735.006 2399.91C727.475 2402.65 719.035 2400.23 714.101 2393.92L20.0561 1505.58C15.1217 1499.27 14.8153 1490.49 19.2971 1483.85L649.684 549.259C654.166 542.615 662.416 539.612 670.12 541.821L1753.77 852.551C1761.47 854.76 1766.88 861.679 1767.15 869.689L1806.5 1996.32C1806.78 2004.33 1801.87 2011.61 1794.34 2014.35L735.006 2399.91Z" stroke="white" stroke-width="3"/>
<path opacity="0.262626" d="M722.954 2404.74C715.376 2407.35 706.98 2404.78 702.157 2398.38L25.0492 1499.83C20.2257 1493.42 20.0726 1484.65 24.6696 1478.08L670.006 556.446C674.603 549.881 682.904 547.022 690.569 549.365L1766.52 878.315C1774.18 880.659 1779.46 887.671 1779.6 895.684L1799.24 2020.62C1799.38 2028.63 1794.34 2035.83 1786.77 2038.44L722.954 2404.74Z" stroke="white" stroke-width="3"/>
<path opacity="0.272727" d="M711.055 2409.29C703.432 2411.77 695.082 2409.06 690.371 2402.57L30.3456 1494.12C25.6346 1487.64 25.6347 1478.86 30.3456 1472.38L690.371 563.93C695.082 557.446 703.432 554.733 711.054 557.209L1779 904.205C1786.62 906.682 1791.78 913.785 1791.78 921.8L1791.78 2044.7C1791.78 2052.72 1786.62 2059.82 1779 2062.3L711.055 2409.29Z" stroke="white" stroke-width="3"/>
<path opacity="0.282828" d="M699.301 2413.59C691.636 2415.93 683.334 2413.07 678.737 2406.51L35.9331 1488.49C31.336 1481.92 31.4893 1473.14 36.3126 1466.74L710.764 571.716C715.587 565.316 723.984 562.749 731.562 565.358L1791.2 930.22C1798.78 932.83 1803.81 940.022 1803.67 948.035L1784.11 2068.56C1783.97 2076.57 1778.69 2083.59 1771.03 2085.93L699.301 2413.59Z" stroke="white" stroke-width="3"/>
<path opacity="0.292929" d="M687.708 2417.63C680.004 2419.83 671.753 2416.83 667.271 2410.19L41.8209 1482.92C37.339 1476.27 37.6455 1467.5 42.5798 1461.18L731.19 579.803C736.124 573.487 744.564 571.067 752.096 573.808L1803.13 956.354C1810.66 959.095 1815.57 966.374 1815.29 974.384L1776.26 2092.19C1775.98 2100.2 1770.57 2107.12 1762.87 2109.33L687.708 2417.63Z" stroke="white" stroke-width="3"/>
<path opacity="0.30303" d="M676.266 2421.41C668.524 2423.48 660.327 2420.34 655.962 2413.61L47.9915 1477.42C43.6263 1470.7 44.0859 1461.93 49.1297 1455.7L751.628 588.189C756.672 581.961 765.153 579.688 772.635 582.56L1814.77 982.6C1822.26 985.472 1827.04 992.836 1826.62 1000.84L1768.2 2115.59C1767.78 2123.59 1762.25 2130.42 1754.51 2132.49L676.266 2421.41Z" stroke="white" stroke-width="3"/>
<path opacity="0.313131" d="M664.997 2424.94C657.221 2426.88 649.08 2423.59 644.833 2416.79L54.4632 1472C50.216 1465.2 50.8285 1456.45 55.9802 1450.31L772.094 596.875C777.245 590.736 785.764 588.612 793.196 591.614L1826.15 1008.95C1833.58 1011.96 1838.23 1019.4 1837.67 1027.4L1759.96 2138.76C1759.4 2146.75 1753.76 2153.48 1745.98 2155.42L664.997 2424.94Z" stroke="white" stroke-width="3"/>
<path opacity="0.323232" d="M653.885 2428.22C646.075 2430.02 637.993 2426.59 633.865 2419.72L61.2112 1466.67C57.0832 1459.8 57.8485 1451.05 63.1066 1445L792.557 605.863C797.815 599.814 806.37 597.839 813.748 600.971L1837.23 1035.41C1844.61 1038.54 1849.13 1046.07 1848.43 1054.05L1751.52 2161.69C1750.82 2169.67 1745.06 2176.3 1737.26 2178.1L653.885 2428.22Z" stroke="white" stroke-width="3"/>
<path opacity="0.333333" d="M642.95 2431.26C635.11 2432.92 627.089 2429.35 623.082 2422.41L68.2518 1461.42C64.2444 1454.47 65.1622 1445.74 70.5251 1439.79L813.033 615.148C818.396 609.192 826.984 607.366 834.306 610.626L1848.03 1061.97C1855.35 1065.23 1859.74 1072.83 1858.91 1080.8L1742.91 2184.38C1742.08 2192.35 1736.2 2198.88 1728.36 2200.54L642.95 2431.26Z" stroke="white" stroke-width="3"/>
<path opacity="0.343434" d="M632.191 2434.05C624.324 2435.58 616.366 2431.87 612.481 2424.86L75.5763 1456.26C71.6906 1449.25 72.7607 1440.53 78.2267 1434.67L833.508 624.73C838.975 618.868 847.593 617.193 854.857 620.58L1858.55 1088.61C1865.82 1092 1870.07 1099.68 1869.1 1107.63L1734.13 2206.83C1733.15 2214.79 1727.17 2221.21 1719.3 2222.74L632.191 2434.05Z" stroke="white" stroke-width="3"/>
<path opacity="0.353535" d="M621.611 2436.61C613.718 2438 605.827 2434.15 602.064 2427.07L83.1822 1451.2C79.4194 1444.12 80.6415 1435.43 86.2089 1429.66L853.978 634.612C859.546 628.847 868.192 627.322 875.396 630.835L1868.79 1115.34C1875.99 1118.86 1880.11 1126.61 1879 1134.55L1725.17 2229.04C1724.06 2236.97 1717.96 2243.29 1710.07 2244.68L621.611 2436.61Z" stroke="white" stroke-width="3"/>
<path opacity="0.363636" d="M611.214 2438.93C603.298 2440.18 595.474 2436.2 591.836 2429.06L91.066 1446.24C87.4273 1439.1 88.8009 1430.43 94.4681 1424.76L874.436 644.792C880.103 639.125 888.775 637.752 895.916 641.39L1878.73 1142.16C1885.87 1145.8 1889.86 1153.62 1888.61 1161.54L1716.05 2251C1714.8 2258.91 1708.59 2265.12 1700.67 2266.38L611.214 2438.93Z" stroke="white" stroke-width="3"/>
<path opacity="0.373737" d="M601.008 2441.02C593.071 2442.14 585.319 2438.01 581.805 2430.81L99.2318 1441.39C95.7183 1434.18 97.243 1425.54 103.008 1419.97L894.882 655.266C900.647 649.699 909.341 648.477 916.418 652.24L1888.4 1169.05C1895.47 1172.81 1899.32 1180.7 1897.93 1188.6L1706.77 2272.71C1705.38 2280.6 1699.06 2286.7 1691.13 2287.81L601.008 2441.02Z" stroke="white" stroke-width="3"/>
<path opacity="0.383838" d="M590.989 2442.89C583.034 2443.86 575.355 2439.61 571.967 2432.34L107.668 1436.65C104.28 1429.38 105.956 1420.77 111.817 1415.3L915.302 666.037C921.164 660.571 929.878 659.501 936.888 663.387L1897.77 1196.01C1904.78 1199.9 1908.49 1207.85 1906.96 1215.72L1697.33 2294.16C1695.8 2302.03 1689.38 2308.02 1681.43 2309L590.989 2442.89Z" stroke="white" stroke-width="3"/>
<path opacity="0.393939" d="M581.163 2444.53C573.193 2445.37 565.589 2440.98 562.329 2433.65L116.375 1432.03C113.115 1424.7 114.94 1416.11 120.896 1410.75L935.695 677.104C941.651 671.741 950.383 670.823 957.324 674.831L1906.85 1223.04C1913.79 1227.05 1917.36 1235.07 1915.7 1242.91L1687.74 2315.37C1686.07 2323.21 1679.55 2329.08 1671.58 2329.92L581.163 2444.53Z" stroke="white" stroke-width="3"/>
<path opacity="0.40404" d="M571.534 2445.95C563.549 2446.65 556.023 2442.13 552.892 2434.75L125.349 1427.52C122.217 1420.14 124.192 1411.59 130.241 1406.33L956.054 688.463C962.103 683.205 970.849 682.44 977.719 686.567L1915.64 1250.13C1922.51 1254.26 1925.94 1262.34 1924.14 1270.15L1678 2336.32C1676.19 2344.13 1669.57 2349.89 1661.58 2350.58L571.534 2445.95Z" stroke="white" stroke-width="3"/>
<path opacity="0.414141" d="M562.11 2447.16C554.115 2447.72 546.669 2443.07 543.666 2435.63L134.594 1423.14C131.591 1415.71 133.715 1407.19 139.855 1402.04L976.38 700.114C982.52 694.962 991.279 694.349 998.075 698.597L1924.15 1277.27C1930.95 1281.52 1934.24 1289.66 1932.3 1297.44L1668.12 2357.01C1666.18 2364.78 1659.45 2370.43 1651.46 2370.98L562.11 2447.16Z" stroke="white" stroke-width="3"/>
<path opacity="0.424242" d="M552.895 2448.16C544.891 2448.58 537.528 2443.8 534.656 2436.31L144.106 1418.9C141.234 1411.41 143.507 1402.93 149.735 1397.89L996.669 712.057C1002.9 707.013 1011.67 706.554 1018.39 710.919L1932.37 1304.47C1939.09 1308.83 1942.24 1317.03 1940.16 1324.77L1658.1 2377.44C1656.03 2385.18 1649.2 2390.7 1641.2 2391.12L552.895 2448.16Z" stroke="white" stroke-width="3"/>
<path opacity="0.434343" d="M543.882 2448.95C535.872 2449.23 528.593 2444.32 525.852 2436.79L153.873 1414.78C151.132 1407.25 153.552 1398.81 159.868 1393.88L1016.9 724.289C1023.22 719.355 1031.99 719.048 1038.64 723.53L1940.29 1331.7C1946.94 1336.19 1949.94 1344.44 1947.73 1352.14L1647.95 2397.6C1645.74 2405.31 1638.82 2410.71 1630.81 2410.99L543.882 2448.95Z" stroke="white" stroke-width="3"/>
<path opacity="0.444444" d="M535.086 2449.54C527.073 2449.68 519.881 2444.64 517.271 2437.06L163.904 1410.81C161.295 1403.23 163.862 1394.84 170.263 1390.01L1037.09 736.811C1043.49 731.987 1052.27 731.834 1058.84 736.431L1947.93 1358.98C1954.5 1363.58 1957.36 1371.88 1955.01 1379.55L1637.68 2417.51C1635.33 2425.17 1628.32 2430.45 1620.31 2430.59L535.086 2449.54Z" stroke="white" stroke-width="3"/>
<path opacity="0.454545" d="M526.504 2449.93C518.489 2449.93 511.386 2444.77 508.909 2437.14L174.188 1406.98C171.712 1399.36 174.425 1391.01 180.909 1386.3L1057.22 749.62C1063.7 744.909 1072.48 744.909 1078.97 749.62L1955.28 1386.3C1961.76 1391.01 1964.47 1399.36 1962 1406.98L1627.28 2437.14C1624.8 2444.77 1617.7 2449.93 1609.68 2449.93L526.504 2449.93Z" stroke="white" stroke-width="3"/>
<path opacity="0.464646" d="M518.136 2450.12C510.122 2449.98 503.11 2444.7 500.767 2437.03L184.721 1403.3C182.378 1395.63 185.237 1387.33 191.802 1382.73L1077.28 762.712C1083.85 758.115 1092.63 758.268 1099.03 763.092L1962.33 1413.64C1968.73 1418.46 1971.3 1426.86 1968.69 1434.43L1616.76 2456.51C1614.15 2464.09 1606.96 2469.13 1598.94 2468.99L518.136 2450.12Z" stroke="white" stroke-width="3"/>
<path opacity="0.474747" d="M509.989 2450.13C501.98 2449.85 495.061 2444.44 492.852 2436.74L195.504 1399.76C193.294 1392.06 196.297 1383.81 202.942 1379.33L1097.28 776.089C1103.92 771.607 1112.7 771.913 1119.01 776.847L1969.09 1441C1975.41 1445.94 1977.83 1454.38 1975.09 1461.91L1606.13 2475.62C1603.39 2483.15 1596.11 2488.06 1588.1 2487.78L509.989 2450.13Z" stroke="white" stroke-width="3"/>
<path opacity="0.484848" d="M502.067 2449.95C494.063 2449.53 487.24 2444 485.166 2436.26L206.532 1396.39C204.457 1388.64 207.604 1380.45 214.326 1376.08L1117.2 789.746C1123.93 785.381 1132.69 785.841 1138.92 790.884L1975.57 1468.38C1981.79 1473.43 1984.07 1481.91 1981.19 1489.39L1595.39 2494.45C1592.52 2501.93 1585.15 2506.71 1577.15 2506.29L502.067 2449.95Z" stroke="white" stroke-width="3"/>
<path opacity="0.494949" d="M494.373 2449.59C486.378 2449.03 479.652 2443.38 477.713 2435.61L217.804 1393.17C215.865 1385.39 219.154 1377.25 225.951 1373L1137.05 803.685C1143.85 799.438 1152.61 800.05 1158.75 805.202L1981.75 1495.78C1987.89 1500.93 1990.01 1509.45 1987.01 1516.88L1584.55 2513.01C1581.55 2520.44 1574.1 2525.09 1566.11 2524.53L494.373 2449.59Z" stroke="white" stroke-width="3"/>
<path opacity="0.50505" d="M486.91 2449.05C478.925 2448.35 472.299 2442.59 470.496 2434.78L229.316 1390.12C227.513 1382.31 230.944 1374.23 237.814 1370.1L1156.82 817.902C1163.69 813.774 1172.44 814.54 1178.49 819.798L1987.64 1523.19C1993.69 1528.45 1995.67 1537 1992.54 1544.38L1573.62 2531.29C1570.48 2538.67 1562.96 2543.19 1554.97 2542.49L486.91 2449.05Z" stroke="white" stroke-width="3"/>
<path opacity="0.515152" d="M479.677 2448.34C471.706 2447.5 465.181 2441.63 463.515 2433.79L241.062 1387.23C239.396 1379.39 242.967 1371.37 249.908 1367.36L1176.5 832.396C1183.44 828.389 1192.17 829.306 1198.13 834.669L1993.25 1550.6C1999.21 1555.96 2001.03 1564.55 1997.77 1571.87L1562.59 2549.31C1559.33 2556.63 1551.72 2561.02 1543.75 2560.18L479.677 2448.34Z" stroke="white" stroke-width="3"/>
<path opacity="0.525253" d="M472.68 2447.47C464.725 2446.49 458.303 2440.5 456.774 2432.63L253.041 1384.52C251.512 1376.65 255.223 1368.69 262.232 1364.81L1196.09 847.163C1203.1 843.277 1211.82 844.347 1217.68 849.813L1998.57 1578C2004.43 1583.47 2006.1 1592.09 2002.72 1599.35L1551.47 2567.05C1548.09 2574.31 1540.41 2578.57 1532.45 2577.59L472.68 2447.47Z" stroke="white" stroke-width="3"/>
<path opacity="0.535354" d="M465.919 2446.42C457.982 2445.31 451.667 2439.21 450.275 2431.32L265.249 1381.98C263.857 1374.09 267.706 1366.2 274.782 1362.43L1215.58 862.199C1222.66 858.437 1231.36 859.658 1237.12 865.226L2003.59 1605.4C2009.36 1610.97 2010.88 1619.62 2007.37 1626.82L1540.28 2584.51C1536.76 2591.71 1529.01 2595.83 1521.07 2594.72L465.919 2446.42Z" stroke="white" stroke-width="3"/>
<path opacity="0.545455" d="M459.401 2445.22C451.484 2443.97 445.276 2437.76 444.022 2429.84L277.683 1379.62C276.429 1371.7 280.415 1363.88 287.556 1360.24L1234.98 877.505C1242.12 873.866 1250.79 875.24 1256.46 880.907L2008.34 1632.79C2014.01 1638.45 2015.38 1647.13 2011.74 1654.27L1529 2601.69C1525.37 2608.83 1517.54 2612.82 1509.63 2611.56L459.401 2445.22Z" stroke="white" stroke-width="3"/>
<path opacity="0.555556" d="M453.119 2443.87C445.226 2442.48 439.127 2436.16 438.012 2428.23L290.334 1377.44C289.218 1369.51 293.34 1361.75 300.544 1358.24L1254.26 893.08C1261.47 889.566 1270.11 891.091 1275.68 896.856L2012.79 1660.16C2018.36 1665.92 2019.58 1674.62 2015.82 1681.69L1517.66 2618.6C1513.89 2625.67 1506 2629.52 1498.11 2628.13L453.119 2443.87Z" stroke="white" stroke-width="3"/>
<path opacity="0.565657" d="M447.088 2442.37C439.221 2440.84 433.233 2434.42 432.256 2426.46L303.208 1375.45C302.231 1367.5 306.488 1359.82 313.752 1356.43L1273.44 908.917C1280.71 905.53 1289.33 907.205 1294.79 913.067L2016.96 1687.5C2022.43 1693.36 2023.5 1702.08 2019.61 1709.09L1506.25 2635.22C1502.36 2642.23 1494.4 2645.94 1486.54 2644.41L447.088 2442.37Z" stroke="white" stroke-width="3"/>
<path opacity="0.575758" d="M441.297 2440.72C433.457 2439.05 427.582 2432.53 426.744 2424.56L316.29 1373.65C315.452 1365.68 319.842 1358.08 327.164 1354.82L1292.5 925.018C1299.83 921.758 1308.41 923.584 1313.78 929.54L2020.85 1714.82C2026.21 1720.77 2027.13 1729.51 2023.12 1736.45L1494.77 2651.57C1490.76 2658.52 1482.74 2662.09 1474.9 2660.42L441.297 2440.72Z" stroke="white" stroke-width="3"/>
<path opacity="0.585859" d="M435.759 2438.93C427.95 2437.13 422.19 2430.5 421.491 2422.52L329.586 1372.04C328.888 1364.05 333.41 1356.53 340.787 1353.4L1311.45 941.375C1318.83 938.243 1327.38 940.218 1332.64 946.267L2024.45 1742.1C2029.71 1748.15 2030.47 1756.9 2026.34 1763.77L1483.24 2667.64C1479.11 2674.51 1471.03 2677.94 1463.22 2676.14L435.759 2438.93Z" stroke="white" stroke-width="3"/>
<path opacity="0.59596" d="M430.472 2437.01C422.695 2435.07 417.051 2428.34 416.492 2420.35L343.089 1370.63C342.529 1362.63 347.182 1355.19 354.613 1352.18L1330.27 957.991C1337.7 954.989 1346.22 957.113 1351.38 963.253L2027.77 1769.35C2032.92 1775.49 2033.53 1784.25 2029.29 1791.04L1471.66 2683.43C1467.41 2690.23 1459.27 2693.52 1451.5 2691.58L430.472 2437.01Z" stroke="white" stroke-width="3"/>
<path opacity="0.606061" d="M425.434 2434.95C417.693 2432.88 412.167 2426.06 411.748 2418.05L356.791 1369.41C356.371 1361.41 361.153 1354.05 368.636 1351.18L1348.97 974.861C1356.45 971.989 1364.93 974.262 1369.97 980.49L2030.81 1796.55C2035.85 1802.78 2036.31 1811.55 2031.95 1818.27L1460.03 2698.94C1455.67 2705.66 1447.47 2708.81 1439.73 2706.73L425.434 2434.95Z" stroke="white" stroke-width="3"/>
<path opacity="0.616162" d="M420.65 2432.77C412.946 2430.57 407.54 2423.65 407.261 2415.64L370.691 1368.41C370.411 1360.4 375.321 1353.12 382.852 1350.38L1367.53 991.983C1375.06 989.242 1383.5 991.662 1388.43 997.978L2033.57 1823.71C2038.5 1830.03 2038.81 1838.8 2034.33 1845.45L1448.36 2714.17C1443.88 2720.81 1435.63 2723.82 1427.93 2721.61L420.65 2432.77Z" stroke="white" stroke-width="3"/>
<path opacity="0.626263" d="M416.127 2430.48C408.462 2428.13 403.178 2421.12 403.038 2413.11L384.789 1367.6C384.649 1359.59 389.685 1352.4 397.263 1349.79L1385.96 1009.35C1393.53 1006.74 1401.93 1009.31 1406.75 1015.71L2036.05 1850.82C2040.87 1857.22 2041.03 1865.99 2036.43 1872.56L1436.66 2729.12C1432.07 2735.68 1423.76 2738.54 1416.1 2736.2L416.127 2430.48Z" stroke="white" stroke-width="3"/>
<path opacity="0.636364" d="M411.859 2428.06C404.236 2425.58 399.075 2418.48 399.075 2410.46L399.075 1367.01C399.075 1358.99 404.236 1351.89 411.859 1349.41L1404.24 1026.97C1411.87 1024.49 1420.22 1027.2 1424.93 1033.69L2038.26 1877.86C2042.97 1884.34 2042.97 1893.12 2038.26 1899.61L1424.93 2743.78C1420.22 2750.27 1411.87 2752.98 1404.24 2750.5L411.859 2428.06Z" stroke="white" stroke-width="3"/>
<path opacity="0.646465" d="M407.849 2425.53C400.271 2422.92 395.235 2415.73 395.375 2407.72L413.547 1366.63C413.687 1358.61 418.971 1351.6 426.635 1349.26L1422.39 1044.82C1430.05 1042.48 1438.35 1045.34 1442.95 1051.91L2040.19 1904.85C2044.78 1911.41 2044.63 1920.19 2039.81 1926.59L1413.17 2758.17C1408.34 2764.57 1399.95 2767.14 1392.37 2764.53L407.849 2425.53Z" stroke="white" stroke-width="3"/>
<path opacity="0.656566" d="M404.101 2422.9C396.569 2420.15 391.659 2412.87 391.939 2404.87L428.201 1366.46C428.481 1358.45 433.886 1351.53 441.591 1349.32L1440.38 1062.92C1448.09 1060.71 1456.34 1063.71 1460.82 1070.36L2041.84 1931.76C2046.33 1938.41 2046.02 1947.18 2041.08 1953.5L1401.39 2772.27C1396.45 2778.59 1388.01 2781.01 1380.48 2778.27L404.101 2422.9Z" stroke="white" stroke-width="3"/>
<path opacity="0.666667" d="M400.61 2420.16C393.128 2417.29 388.346 2409.92 388.765 2401.92L443.029 1366.51C443.449 1358.5 448.974 1351.68 456.716 1349.6L1458.22 1081.25C1465.96 1079.18 1474.16 1082.32 1478.53 1089.04L2043.23 1958.61C2047.59 1965.33 2047.13 1974.1 2042.09 1980.33L1389.59 2786.1C1384.54 2792.33 1376.06 2794.6 1368.58 2791.73L400.61 2420.16Z" stroke="white" stroke-width="3"/>
<path opacity="0.676768" d="M397.386 2417.33C389.955 2414.33 385.302 2406.88 385.861 2398.88L458.033 1366.78C458.593 1358.78 464.236 1352.06 472.013 1350.12L1475.91 1099.82C1483.69 1097.88 1491.83 1101.17 1496.07 1107.96L2044.34 1985.38C2048.59 1992.18 2047.98 2000.93 2042.83 2007.07L1377.78 2799.65C1372.63 2805.79 1364.11 2807.91 1356.68 2804.91L397.386 2417.33Z" stroke="white" stroke-width="3"/>
<path opacity="0.686869" d="M394.423 2414.4C387.046 2411.27 382.524 2403.75 383.222 2395.76L473.204 1367.27C473.902 1359.29 479.662 1352.66 487.472 1350.86L1493.43 1118.61C1501.24 1116.81 1509.32 1120.24 1513.45 1127.11L2045.19 2012.07C2049.32 2018.94 2048.55 2027.68 2043.29 2033.73L1365.96 2812.91C1360.7 2818.96 1352.15 2820.94 1344.77 2817.8L394.423 2414.4Z" stroke="white" stroke-width="3"/>
<path opacity="0.69697" d="M391.727 2411.39C384.405 2408.13 380.015 2400.53 380.853 2392.56L488.539 1367.99C489.377 1360.02 495.252 1353.49 503.092 1351.83L1510.79 1137.63C1518.63 1135.97 1526.65 1139.54 1530.66 1146.48L2045.77 2038.67C2049.78 2045.61 2048.86 2054.34 2043.5 2060.3L1354.15 2825.9C1348.78 2831.85 1340.2 2833.68 1332.87 2830.42L391.727 2411.39Z" stroke="white" stroke-width="3"/>
<path opacity="0.707071" d="M389.302 2408.3C382.038 2404.91 377.781 2397.23 378.758 2389.28L504.04 1368.93C505.017 1360.98 511.005 1354.56 518.873 1353.03L1527.99 1156.87C1535.86 1155.34 1543.82 1159.05 1547.7 1166.06L2046.09 2065.18C2049.98 2072.19 2048.91 2080.91 2043.44 2086.77L1342.34 2838.6C1336.88 2844.47 1328.26 2846.14 1320.99 2842.75L389.302 2408.3Z" stroke="white" stroke-width="3"/>
<path opacity="0.717172" d="M387.135 2405.13C379.932 2401.62 375.81 2393.86 376.925 2385.93L519.689 1370.11C520.804 1362.17 526.904 1355.86 534.797 1354.47L1545.01 1176.34C1552.91 1174.94 1560.8 1178.79 1564.56 1185.87L2046.15 2091.6C2049.91 2098.68 2048.69 2107.37 2043.12 2113.14L1330.54 2851.04C1324.97 2856.8 1316.32 2858.33 1309.12 2854.81L387.135 2405.13Z" stroke="white" stroke-width="3"/>
<path opacity="0.727273" d="M385.242 2401.89C378.101 2398.25 374.115 2390.43 375.369 2382.51L535.494 1371.52C536.748 1363.6 542.957 1357.39 550.873 1356.14L1561.87 1196.01C1569.78 1194.76 1577.6 1198.75 1581.24 1205.89L2045.94 2117.92C2049.58 2125.06 2048.21 2133.73 2042.54 2139.4L1318.75 2863.19C1313.08 2868.86 1304.41 2870.23 1297.27 2866.59L385.242 2401.89Z" stroke="white" stroke-width="3"/>
<path opacity="0.737374" d="M383.618 2398.58C376.541 2394.82 372.692 2386.93 374.084 2379.03L551.446 1373.16C552.838 1365.27 559.154 1359.17 567.09 1358.06L1578.54 1215.91C1586.47 1214.79 1594.23 1218.91 1597.74 1226.12L2045.49 2144.13C2049 2151.34 2047.48 2159.98 2041.71 2165.55L1306.99 2875.07C1301.22 2880.63 1292.53 2881.86 1285.45 2878.09L383.618 2398.58Z" stroke="white" stroke-width="3"/>
<path opacity="0.747475" d="M382.264 2395.21C375.255 2391.32 371.544 2383.37 373.073 2375.5L567.542 1375.04C569.071 1367.18 575.493 1361.19 583.448 1360.21L1595.03 1236.01C1602.99 1235.03 1610.67 1239.28 1614.05 1246.55L2044.78 2170.24C2048.16 2177.5 2046.49 2186.12 2040.63 2191.59L1295.25 2886.67C1289.38 2892.13 1280.67 2893.2 1273.66 2889.32L382.264 2395.21Z" stroke="white" stroke-width="3"/>
<path opacity="0.757576" d="M381.128 2391.78C374.187 2387.77 370.616 2379.75 372.282 2371.91L583.723 1377.16C585.389 1369.32 591.914 1363.45 599.885 1362.61L1611.29 1256.31C1619.26 1255.47 1626.86 1259.86 1630.12 1267.18L2043.76 2196.23C2047.02 2203.56 2045.2 2212.14 2039.24 2217.51L1283.48 2898C1277.53 2903.36 1268.79 2904.28 1261.85 2900.27L381.128 2391.78Z" stroke="white" stroke-width="3"/>
<path opacity="0.767677" d="M380.309 2388.3C373.439 2384.17 370.009 2376.09 371.812 2368.28L600.085 1379.52C601.887 1371.71 608.514 1365.95 616.498 1365.25L1627.4 1276.81C1635.39 1276.11 1642.91 1280.64 1646.05 1288.01L2042.55 2222.11C2045.68 2229.49 2043.7 2238.04 2037.65 2243.3L1271.8 2909.05C1265.75 2914.31 1257 2915.07 1250.13 2910.94L380.309 2388.3Z" stroke="white" stroke-width="3"/>
<path opacity="0.777778" d="M379.767 2384.77C372.97 2380.53 369.681 2372.39 371.62 2364.61L616.58 1382.13C618.519 1374.35 625.245 1368.71 633.24 1368.15L1643.33 1297.51C1651.33 1296.96 1658.78 1301.61 1661.78 1309.04L2041.09 2247.87C2044.09 2255.3 2041.97 2263.82 2035.83 2268.97L1260.16 2919.83C1254.02 2924.98 1245.26 2925.6 1238.47 2921.35L379.767 2384.77Z" stroke="white" stroke-width="3"/>
<path opacity="0.787879" d="M379.495 2381.2C372.773 2376.84 369.627 2368.64 371.701 2360.9L633.2 1384.97C635.274 1377.23 642.098 1371.71 650.101 1371.29L1659.07 1318.41C1667.07 1317.99 1674.44 1322.77 1677.31 1330.25L2039.39 2273.5C2042.26 2280.98 2039.99 2289.46 2033.76 2294.51L1248.57 2930.34C1242.34 2935.39 1233.57 2935.85 1226.85 2931.48L379.495 2381.2Z" stroke="white" stroke-width="3"/>
<path opacity="0.79798" d="M379.489 2377.6C372.844 2373.12 369.842 2364.87 372.051 2357.16L649.934 1388.07C652.143 1380.36 659.061 1374.96 667.071 1374.68L1674.6 1339.5C1682.61 1339.22 1689.89 1344.13 1692.63 1351.66L2037.44 2299.01C2040.18 2306.54 2037.76 2314.98 2031.45 2319.91L1237.02 2940.59C1230.7 2945.52 1221.92 2945.83 1215.28 2941.35L379.489 2377.6Z" stroke="white" stroke-width="3"/>
<path opacity="0.808081" d="M379.757 2373.96C373.192 2369.36 370.334 2361.06 372.677 2353.39L666.785 1391.41C669.128 1383.74 676.141 1378.46 684.154 1378.32L1689.94 1360.76C1697.95 1360.62 1705.15 1365.66 1707.76 1373.24L2035.26 2324.37C2037.87 2331.95 2035.3 2340.35 2028.9 2345.17L1225.52 2950.56C1219.12 2955.38 1210.34 2955.54 1203.78 2950.94L379.757 2373.96Z" stroke="white" stroke-width="3"/>
<path opacity="0.818182" d="M380.291 2370.29C373.807 2365.58 371.094 2357.23 373.571 2349.61L683.741 1395C686.218 1387.38 693.321 1382.22 701.336 1382.22L1705.07 1382.22C1713.08 1382.22 1720.19 1387.38 1722.66 1395L2032.83 2349.61C2035.31 2357.23 2032.6 2365.58 2026.11 2370.29L1214.08 2960.27C1207.59 2964.98 1198.81 2964.98 1192.33 2960.27L380.291 2370.29Z" stroke="white" stroke-width="3"/>
<path opacity="0.828283" d="M381.104 2366.6C374.703 2361.78 372.136 2353.38 374.745 2345.8L700.81 1398.84C703.42 1391.26 710.612 1386.23 718.625 1386.37L1720 1403.85C1728.01 1403.99 1735.02 1409.27 1737.37 1416.93L2030.19 2374.7C2032.53 2382.36 2029.67 2390.67 2023.11 2395.26L1202.7 2969.71C1196.14 2974.31 1187.36 2974.16 1180.96 2969.34L381.104 2366.6Z" stroke="white" stroke-width="3"/>
<path opacity="0.838384" d="M382.179 2362.89C375.864 2357.96 373.444 2349.52 376.185 2341.99L717.972 1402.94C720.713 1395.4 727.992 1390.49 736.002 1390.77L1734.71 1425.65C1742.72 1425.93 1749.64 1431.34 1751.85 1439.04L2027.3 2399.65C2029.51 2407.35 2026.51 2415.6 2019.86 2420.08L1191.39 2978.9C1184.74 2983.38 1175.97 2983.07 1169.65 2978.14L382.179 2362.89Z" stroke="white" stroke-width="3"/>
<path opacity="0.848485" d="M383.531 2359.17C377.303 2354.13 375.03 2345.65 377.903 2338.17L735.236 1407.28C738.108 1399.8 745.472 1395.02 753.475 1395.44L1749.22 1447.62C1757.23 1448.04 1764.05 1453.57 1766.12 1461.31L2024.19 2424.45C2026.27 2432.19 2023.12 2440.38 2016.4 2444.75L1180.15 2987.82C1173.43 2992.18 1164.66 2991.72 1158.43 2986.68L383.531 2359.17Z" stroke="white" stroke-width="3"/>
<path opacity="0.858586" d="M385.149 2355.44C379.009 2350.29 376.885 2341.77 379.888 2334.34L752.586 1411.88C755.588 1404.45 763.034 1399.8 771.029 1400.36L1763.51 1469.76C1771.51 1470.32 1778.23 1475.96 1780.17 1483.74L2020.86 2449.09C2022.8 2456.87 2019.51 2465.01 2012.71 2469.26L1168.99 2996.47C1162.19 3000.72 1153.43 3000.11 1147.29 2994.96L385.149 2355.44Z" stroke="white" stroke-width="3"/>
<path opacity="0.868687" d="M387.037 2351.72C380.988 2346.46 379.013 2337.9 382.145 2330.53L770.023 1416.74C773.155 1409.36 780.681 1404.84 788.665 1405.54L1777.59 1492.06C1785.57 1492.76 1792.2 1498.52 1794 1506.33L2017.31 2473.58C2019.11 2481.39 2015.68 2489.48 2008.81 2493.6L1157.9 3004.88C1151.03 3009.01 1142.28 3008.24 1136.24 3002.99L387.037 2351.72Z" stroke="white" stroke-width="3"/>
<path opacity="0.878788" d="M389.198 2347.98C383.242 2342.62 381.417 2334.03 384.676 2326.71L787.546 1421.85C790.806 1414.53 798.409 1410.14 806.38 1410.98L1791.45 1514.51C1799.42 1515.35 1805.94 1521.22 1807.61 1529.06L2013.54 2497.91C2015.21 2505.75 2011.64 2513.77 2004.7 2517.78L1146.91 3013.03C1139.97 3017.03 1131.23 3016.12 1125.28 3010.75L389.198 2347.98Z" stroke="white" stroke-width="3"/>
<path opacity="0.888889" d="M391.626 2344.26C385.764 2338.8 384.089 2330.18 387.476 2322.91L805.144 1427.22C808.531 1419.96 816.21 1415.7 824.165 1416.68L1805.08 1537.12C1813.04 1538.1 1819.46 1544.08 1820.99 1551.95L2009.56 2522.08C2011.09 2529.95 2007.38 2537.91 2000.37 2541.79L1136 3020.92C1128.99 3024.81 1120.27 3023.74 1114.41 3018.27L391.626 2344.26Z" stroke="white" stroke-width="3"/>
<path opacity="0.89899" d="M394.321 2340.55C388.556 2334.98 387.031 2326.34 390.545 2319.13L822.813 1432.85C826.326 1425.65 834.079 1421.53 842.015 1422.64L1818.5 1559.88C1826.43 1560.99 1832.75 1567.09 1834.14 1574.98L2005.37 2546.08C2006.76 2553.97 2002.92 2561.87 1995.84 2565.63L1125.18 3028.56C1118.11 3032.33 1109.41 3031.11 1103.65 3025.54L394.321 2340.55Z" stroke="white" stroke-width="3"/>
<path opacity="0.909091" d="M397.287 2336.85C391.62 2331.19 390.246 2322.52 393.885 2315.37L840.553 1438.74C844.192 1431.6 852.015 1427.61 859.931 1428.86L1831.69 1582.78C1839.61 1584.03 1845.81 1590.24 1847.07 1598.15L2000.98 2569.91C2002.23 2577.83 1998.25 2585.65 1991.11 2589.29L1114.47 3035.96C1107.33 3039.6 1098.66 3038.22 1092.99 3032.56L397.287 2336.85Z" stroke="white" stroke-width="3"/>
<path opacity="0.919192" d="M400.511 2333.18C394.943 2327.41 393.722 2318.72 397.484 2311.64L858.348 1444.88C862.111 1437.81 870.002 1433.96 877.895 1435.35L1844.65 1605.81C1852.54 1607.21 1858.64 1613.52 1859.75 1621.46L1996.38 2593.57C1997.49 2601.51 1993.37 2609.26 1986.17 2612.77L1103.85 3043.11C1096.65 3046.62 1088 3045.09 1082.43 3039.33L400.511 2333.18Z" stroke="white" stroke-width="3"/>
<path opacity="0.929293" d="M404.006 2329.53C398.54 2323.67 397.47 2314.96 401.355 2307.95L876.206 1451.29C880.092 1444.28 888.049 1440.57 895.917 1442.1L1857.38 1628.99C1865.25 1630.52 1871.23 1636.94 1872.21 1644.9L1991.58 2617.05C1992.55 2625.01 1988.3 2632.69 1981.03 2636.07L1093.34 3050.01C1086.08 3053.4 1077.46 3051.72 1071.99 3045.86L404.006 2329.53Z" stroke="white" stroke-width="3"/>
<path opacity="0.939394" d="M407.761 2325.91C402.398 2319.96 401.48 2311.22 405.488 2304.28L894.113 1457.96C898.121 1451.02 906.142 1447.45 913.981 1449.11L1869.88 1652.29C1877.72 1653.96 1883.59 1660.49 1884.43 1668.46L1986.58 2640.35C1987.42 2648.32 1983.03 2655.93 1975.71 2659.19L1082.94 3056.67C1075.62 3059.93 1067.03 3058.11 1061.67 3052.15L407.761 2325.91Z" stroke="white" stroke-width="3"/>
<path opacity="0.949495" d="M411.788 2322.33C406.529 2316.28 405.764 2307.53 409.892 2300.66L912.077 1464.89C916.205 1458.02 924.287 1454.59 932.096 1456.39L1882.15 1675.73C1889.96 1677.53 1895.72 1684.16 1896.42 1692.14L1981.4 2663.47C1982.1 2671.46 1977.58 2678.98 1970.2 2682.12L1072.66 3063.1C1065.29 3066.23 1056.73 3064.25 1051.47 3058.2L411.788 2322.33Z" stroke="white" stroke-width="3"/>
<path opacity="0.959596" d="M416.065 2318.78C410.913 2312.64 410.301 2303.88 414.548 2297.09L930.074 1472.07C934.321 1465.28 942.461 1461.99 950.238 1463.93L1894.18 1699.28C1901.95 1701.22 1907.6 1707.94 1908.16 1715.94L1976.02 2686.41C1976.58 2694.4 1971.93 2701.85 1964.49 2704.85L1062.5 3069.28C1055.06 3072.28 1046.54 3070.16 1041.39 3064.02L416.065 2318.78Z" stroke="white" stroke-width="3"/>
<path opacity="0.969697" d="M420.61 2315.28C415.567 2309.06 415.107 2300.29 419.472 2293.57L948.116 1479.53C952.481 1472.8 960.678 1469.66 968.419 1471.73L1905.98 1722.95C1913.72 1725.02 1919.24 1731.85 1919.66 1739.85L1970.46 2709.15C1970.88 2717.16 1966.1 2724.52 1958.62 2727.39L1052.46 3075.23C1044.97 3078.11 1036.49 3075.83 1031.45 3069.61L420.61 2315.28Z" stroke="white" stroke-width="3"/>
<path opacity="0.979798" d="M425.406 2311.83C420.471 2305.52 420.165 2296.74 424.647 2290.1L966.182 1487.24C970.664 1480.59 978.915 1477.59 986.619 1479.8L1917.53 1746.73C1925.23 1748.94 1930.64 1755.86 1930.92 1763.87L1964.71 2731.71C1964.99 2739.72 1960.08 2746.99 1952.55 2749.74L1042.53 3080.96C1035 3083.7 1026.56 3081.28 1021.63 3074.96L425.406 2311.83Z" stroke="white" stroke-width="3"/>
<path opacity="0.989899" d="M430.467 2308.43C425.644 2302.03 425.491 2293.25 430.088 2286.69L984.287 1495.21C988.884 1488.64 997.186 1485.79 1004.85 1488.13L1928.85 1770.62C1936.51 1772.97 1941.8 1779.98 1941.94 1787.99L1958.8 2754.06C1958.94 2762.08 1953.9 2769.27 1946.33 2771.88L1032.75 3086.45C1025.17 3089.06 1016.77 3086.49 1011.95 3080.09L430.467 2308.43Z" stroke="white" stroke-width="3"/>
<path d="M435.781 2305.09C431.07 2298.61 431.07 2289.83 435.781 2283.34L1002.41 1503.44C1007.12 1496.96 1015.47 1494.25 1023.1 1496.72L1939.92 1794.62C1947.55 1797.09 1952.71 1804.2 1952.71 1812.21L1952.71 2776.22C1952.71 2784.24 1947.55 2791.34 1939.92 2793.82L1023.1 3091.71C1015.47 3094.19 1007.12 3091.48 1002.41 3084.99L435.781 2305.09Z" stroke="white" stroke-width="3"/>
</g>
</g>
<rect y="850" width="1440" height="850" fill="url(#paint2_linear_2_3)"/>
<defs>
<filter id="filter0_f_2_3" x="45.9999" y="-225.622" width="1693.5" height="1242.61" filterUnits="userSpaceOnUse" color-interpolation-filters="sRGB">
<feFlood flood-opacity="0" result="BackgroundImageFix"/>
<feBlend mode="normal" in="SourceGraphic" in2="BackgroundImageFix" result="shape"/>
<feGaussianBlur stdDeviation="100" result="effect1_foregroundBlur_2_3"/>
</filter>
<filter id="filter1_f_2_3" x="45.9999" y="-225.622" width="1693.5" height="1242.61" filterUnits="userSpaceOnUse" color-interpolation-filters="sRGB">
<feFlood flood-opacity="0" result="BackgroundImageFix"/>
<feBlend mode="normal" in="SourceGraphic" in2="BackgroundImageFix" result="shape"/>
<feGaussianBlur stdDeviation="100" result="effect1_foregroundBlur_2_3"/>
</filter>
<radialGradient id="paint0_angular_2_3" cx="0" cy="0" r="1" gradientUnits="userSpaceOnUse" gradientTransform="translate(668.501 280.001) rotate(-147.274) scale(362.548 362.548)">
<stop offset="0.111639" stop-color="#FAC69E" stop-opacity="0"/>
<stop offset="0.447787" stop-color="#111318"/>
<stop offset="0.897517" stop-color="#F79C55"/>
</radialGradient>
<radialGradient id="paint1_angular_2_3" cx="0" cy="0" r="1" gradientUnits="userSpaceOnUse" gradientTransform="translate(668.501 280.001) rotate(-147.274) scale(362.548 362.548)">
<stop offset="0.111639" stop-color="#FAC69E" stop-opacity="0"/>
<stop offset="0.447787" stop-color="#111318"/>
<stop offset="0.897517" stop-color="#F79C55"/>
</radialGradient>
<linearGradient id="paint2_linear_2_3" x1="720" y1="850" x2="720" y2="1700" gradientUnits="userSpaceOnUse">
<stop stop-color="#111318" stop-opacity="0"/>
<stop offset="1" stop-color="#111318"/>
</linearGradient>
</defs>
</svg>
