<svg width="592" height="526" viewBox="0 0 592 526" fill="none" xmlns="http://www.w3.org/2000/svg">
<g clip-path="url(#clip0_1011_2848)">
<rect width="592" height="526" rx="16" fill="#191C24"/>
<path d="M42.2727 66H34.0227V42.7273H42.3409C44.6818 42.7273 46.697 43.1932 48.3864 44.125C50.0758 45.0492 51.375 46.3788 52.2841 48.1136C53.2008 49.8485 53.6591 51.9242 53.6591 54.3409C53.6591 56.7652 53.2008 58.8485 52.2841 60.5909C51.375 62.3333 50.0682 63.6705 48.3636 64.6023C46.6667 65.5341 44.6364 66 42.2727 66ZM38.9432 61.7841H42.0682C43.5227 61.7841 44.7462 61.5265 45.7386 61.0114C46.7386 60.4886 47.4886 59.6818 47.9886 58.5909C48.4962 57.4924 48.75 56.0758 48.75 54.3409C48.75 52.6212 48.4962 51.2159 47.9886 50.125C47.4886 49.0341 46.7424 48.2311 45.75 47.7159C44.7576 47.2008 43.5341 46.9432 42.0795 46.9432H38.9432V61.7841ZM61.8703 66.3295C60.7567 66.3295 59.7643 66.1364 58.8931 65.75C58.0219 65.3561 57.3325 64.7765 56.8249 64.0114C56.3249 63.2386 56.0749 62.2765 56.0749 61.125C56.0749 60.1553 56.2529 59.3409 56.609 58.6818C56.965 58.0227 57.4499 57.4924 58.0635 57.0909C58.6772 56.6894 59.3741 56.3864 60.1544 56.1818C60.9423 55.9773 61.7681 55.8333 62.6317 55.75C63.6469 55.6439 64.465 55.5455 65.0863 55.4545C65.7075 55.3561 66.1582 55.2121 66.4385 55.0227C66.7188 54.8333 66.859 54.553 66.859 54.1818V54.1136C66.859 53.3939 66.6317 52.8371 66.1772 52.4432C65.7302 52.0492 65.0938 51.8523 64.2681 51.8523C63.3969 51.8523 62.7037 52.0455 62.1885 52.4318C61.6734 52.8106 61.3325 53.2879 61.1658 53.8636L56.6885 53.5C56.9158 52.4394 57.3628 51.5227 58.0294 50.75C58.6961 49.9697 59.5559 49.3712 60.609 48.9545C61.6696 48.5303 62.8969 48.3182 64.2908 48.3182C65.2605 48.3182 66.1885 48.4318 67.0749 48.6591C67.9688 48.8864 68.7605 49.2386 69.4499 49.7159C70.1469 50.1932 70.6961 50.8068 71.0976 51.5568C71.4991 52.2992 71.6999 53.1894 71.6999 54.2273V66H67.109V63.5795H66.9726C66.6923 64.125 66.3173 64.6061 65.8476 65.0227C65.3779 65.4318 64.8135 65.7538 64.1544 65.9886C63.4953 66.2159 62.734 66.3295 61.8703 66.3295ZM63.2567 62.9886C63.9688 62.9886 64.5976 62.8485 65.1431 62.5682C65.6885 62.2803 66.1166 61.8939 66.4272 61.4091C66.7378 60.9242 66.8931 60.375 66.8931 59.7614V57.9091C66.7416 58.0076 66.5332 58.0985 66.2681 58.1818C66.0105 58.2576 65.7188 58.3295 65.3931 58.3977C65.0673 58.4583 64.7416 58.5152 64.4158 58.5682C64.09 58.6136 63.7946 58.6553 63.5294 58.6932C62.9613 58.7765 62.465 58.9091 62.0408 59.0909C61.6166 59.2727 61.287 59.5189 61.0522 59.8295C60.8173 60.1326 60.6999 60.5114 60.6999 60.9659C60.6999 61.625 60.9385 62.1288 61.4158 62.4773C61.9006 62.8182 62.5143 62.9886 63.2567 62.9886ZM89.6583 53.5227L85.2265 53.7955C85.1507 53.4167 84.9878 53.0758 84.7378 52.7727C84.4878 52.4621 84.1583 52.2159 83.7492 52.0341C83.3477 51.8447 82.8666 51.75 82.306 51.75C81.556 51.75 80.9234 51.9091 80.4083 52.2273C79.8931 52.5379 79.6356 52.9545 79.6356 53.4773C79.6356 53.8939 79.8022 54.2462 80.1356 54.5341C80.4689 54.822 81.0409 55.053 81.8515 55.2273L85.0106 55.8636C86.7075 56.2121 87.9727 56.7727 88.806 57.5455C89.6394 58.3182 90.056 59.3333 90.056 60.5909C90.056 61.7348 89.7189 62.7386 89.0447 63.6023C88.378 64.4659 87.4613 65.1402 86.2947 65.625C85.1356 66.1023 83.7984 66.3409 82.2833 66.3409C79.9727 66.3409 78.1318 65.8598 76.7606 64.8977C75.3969 63.928 74.5977 62.6098 74.3628 60.9432L79.1242 60.6932C79.2681 61.3977 79.6166 61.9356 80.1697 62.3068C80.7227 62.6705 81.431 62.8523 82.2947 62.8523C83.1431 62.8523 83.825 62.6894 84.3401 62.3636C84.8628 62.0303 85.128 61.6023 85.1356 61.0795C85.128 60.6402 84.9424 60.2803 84.5788 60C84.2151 59.7121 83.6545 59.4924 82.8969 59.3409L79.8742 58.7386C78.1697 58.3977 76.9007 57.8068 76.0674 56.9659C75.2416 56.125 74.8288 55.053 74.8288 53.75C74.8288 52.6288 75.1318 51.6629 75.7378 50.8523C76.3515 50.0417 77.2113 49.4167 78.3174 48.9773C79.431 48.5379 80.7341 48.3182 82.2265 48.3182C84.431 48.3182 86.1659 48.7841 87.431 49.7159C88.7038 50.6477 89.4462 51.9167 89.6583 53.5227ZM97.6252 55.9091V66H92.7843V42.7273H97.4889V51.625H97.6934C98.0873 50.5947 98.7237 49.7879 99.6025 49.2045C100.481 48.6136 101.584 48.3182 102.909 48.3182C104.121 48.3182 105.178 48.5833 106.08 49.1136C106.989 49.6364 107.693 50.3902 108.193 51.375C108.701 52.3523 108.951 53.5227 108.943 54.8864V66H104.103V55.75C104.11 54.6742 103.837 53.8371 103.284 53.2386C102.739 52.6402 101.974 52.3409 100.989 52.3409C100.33 52.3409 99.7464 52.4811 99.2389 52.7614C98.7389 53.0417 98.3449 53.4508 98.057 53.9886C97.7767 54.5189 97.6328 55.1591 97.6252 55.9091ZM112.524 66V42.7273H117.365V51.4773H117.513C117.725 51.0076 118.032 50.5303 118.433 50.0455C118.842 49.553 119.372 49.1439 120.024 48.8182C120.683 48.4848 121.501 48.3182 122.479 48.3182C123.751 48.3182 124.925 48.6515 126.001 49.3182C127.077 49.9773 127.937 50.9735 128.581 52.3068C129.225 53.6326 129.547 55.2955 129.547 57.2955C129.547 59.2424 129.232 60.8864 128.604 62.2273C127.982 63.5606 127.134 64.572 126.058 65.2614C124.99 65.9432 123.793 66.2841 122.467 66.2841C121.528 66.2841 120.729 66.1288 120.069 65.8182C119.418 65.5076 118.884 65.1174 118.467 64.6477C118.05 64.1705 117.732 63.6894 117.513 63.2045H117.297V66H112.524ZM117.263 57.2727C117.263 58.3106 117.407 59.2159 117.694 59.9886C117.982 60.7614 118.399 61.3636 118.944 61.7955C119.49 62.2197 120.153 62.4318 120.933 62.4318C121.721 62.4318 122.388 62.2159 122.933 61.7841C123.479 61.3447 123.891 60.7386 124.172 59.9659C124.46 59.1856 124.604 58.2879 124.604 57.2727C124.604 56.2652 124.463 55.3788 124.183 54.6136C123.903 53.8485 123.49 53.25 122.944 52.8182C122.399 52.3864 121.729 52.1705 120.933 52.1705C120.145 52.1705 119.479 52.3788 118.933 52.7955C118.395 53.2121 117.982 53.803 117.694 54.5682C117.407 55.3333 117.263 56.2348 117.263 57.2727ZM140.343 66.3409C138.578 66.3409 137.052 65.9659 135.764 65.2159C134.483 64.4583 133.495 63.4053 132.798 62.0568C132.101 60.7008 131.752 59.1288 131.752 57.3409C131.752 55.5379 132.101 53.9621 132.798 52.6136C133.495 51.2576 134.483 50.2045 135.764 49.4545C137.052 48.697 138.578 48.3182 140.343 48.3182C142.108 48.3182 143.631 48.697 144.911 49.4545C146.199 50.2045 147.192 51.2576 147.889 52.6136C148.586 53.9621 148.934 55.5379 148.934 57.3409C148.934 59.1288 148.586 60.7008 147.889 62.0568C147.192 63.4053 146.199 64.4583 144.911 65.2159C143.631 65.9659 142.108 66.3409 140.343 66.3409ZM140.366 62.5909C141.169 62.5909 141.839 62.3636 142.377 61.9091C142.915 61.447 143.32 60.8182 143.593 60.0227C143.873 59.2273 144.014 58.322 144.014 57.3068C144.014 56.2917 143.873 55.3864 143.593 54.5909C143.32 53.7955 142.915 53.1667 142.377 52.7045C141.839 52.2424 141.169 52.0114 140.366 52.0114C139.555 52.0114 138.873 52.2424 138.32 52.7045C137.775 53.1667 137.362 53.7955 137.082 54.5909C136.809 55.3864 136.673 56.2917 136.673 57.3068C136.673 58.322 136.809 59.2273 137.082 60.0227C137.362 60.8182 137.775 61.447 138.32 61.9091C138.873 62.3636 139.555 62.5909 140.366 62.5909ZM156.739 66.3295C155.625 66.3295 154.633 66.1364 153.762 65.75C152.891 65.3561 152.201 64.7765 151.694 64.0114C151.194 63.2386 150.944 62.2765 150.944 61.125C150.944 60.1553 151.122 59.3409 151.478 58.6818C151.834 58.0227 152.319 57.4924 152.932 57.0909C153.546 56.6894 154.243 56.3864 155.023 56.1818C155.811 55.9773 156.637 55.8333 157.5 55.75C158.516 55.6439 159.334 55.5455 159.955 55.4545C160.576 55.3561 161.027 55.2121 161.307 55.0227C161.588 54.8333 161.728 54.553 161.728 54.1818V54.1136C161.728 53.3939 161.5 52.8371 161.046 52.4432C160.599 52.0492 159.963 51.8523 159.137 51.8523C158.266 51.8523 157.572 52.0455 157.057 52.4318C156.542 52.8106 156.201 53.2879 156.035 53.8636L151.557 53.5C151.785 52.4394 152.232 51.5227 152.898 50.75C153.565 49.9697 154.425 49.3712 155.478 48.9545C156.538 48.5303 157.766 48.3182 159.16 48.3182C160.129 48.3182 161.057 48.4318 161.944 48.6591C162.838 48.8864 163.629 49.2386 164.319 49.7159C165.016 50.1932 165.565 50.8068 165.966 51.5568C166.368 52.2992 166.569 53.1894 166.569 54.2273V66H161.978V63.5795H161.841C161.561 64.125 161.186 64.6061 160.716 65.0227C160.247 65.4318 159.682 65.7538 159.023 65.9886C158.364 66.2159 157.603 66.3295 156.739 66.3295ZM158.125 62.9886C158.838 62.9886 159.466 62.8485 160.012 62.5682C160.557 62.2803 160.985 61.8939 161.296 61.4091C161.607 60.9242 161.762 60.375 161.762 59.7614V57.9091C161.61 58.0076 161.402 58.0985 161.137 58.1818C160.879 58.2576 160.588 58.3295 160.262 58.3977C159.936 58.4583 159.61 58.5152 159.285 58.5682C158.959 58.6136 158.663 58.6553 158.398 58.6932C157.83 58.7765 157.334 58.9091 156.91 59.0909C156.485 59.2727 156.156 59.5189 155.921 59.8295C155.686 60.1326 155.569 60.5114 155.569 60.9659C155.569 61.625 155.807 62.1288 156.285 62.4773C156.769 62.8182 157.383 62.9886 158.125 62.9886ZM170.004 66V48.5455H174.697V51.5909H174.879C175.197 50.5076 175.732 49.6894 176.482 49.1364C177.232 48.5758 178.095 48.2955 179.072 48.2955C179.315 48.2955 179.576 48.3106 179.857 48.3409C180.137 48.3712 180.383 48.4129 180.595 48.4659V52.7614C180.368 52.6932 180.054 52.6326 179.652 52.5795C179.251 52.5265 178.883 52.5 178.55 52.5C177.838 52.5 177.201 52.6553 176.641 52.9659C176.088 53.2689 175.648 53.6932 175.322 54.2386C175.004 54.7841 174.845 55.4129 174.845 56.125V66H170.004ZM188.397 66.2841C187.072 66.2841 185.871 65.9432 184.795 65.2614C183.727 64.572 182.878 63.5606 182.25 62.2273C181.628 60.8864 181.318 59.2424 181.318 57.2955C181.318 55.2955 181.64 53.6326 182.284 52.3068C182.928 50.9735 183.784 49.9773 184.852 49.3182C185.928 48.6515 187.106 48.3182 188.386 48.3182C189.363 48.3182 190.178 48.4848 190.829 48.8182C191.488 49.1439 192.019 49.553 192.42 50.0455C192.829 50.5303 193.14 51.0076 193.352 51.4773H193.5V42.7273H198.329V66H193.556V63.2045H193.352C193.125 63.6894 192.803 64.1705 192.386 64.6477C191.977 65.1174 191.443 65.5076 190.784 65.8182C190.132 66.1288 189.337 66.2841 188.397 66.2841ZM189.931 62.4318C190.712 62.4318 191.371 62.2197 191.909 61.7955C192.454 61.3636 192.871 60.7614 193.159 59.9886C193.454 59.2159 193.602 58.3106 193.602 57.2727C193.602 56.2348 193.458 55.3333 193.17 54.5682C192.882 53.803 192.466 53.2121 191.92 52.7955C191.375 52.3788 190.712 52.1705 189.931 52.1705C189.136 52.1705 188.466 52.3864 187.92 52.8182C187.375 53.25 186.962 53.8485 186.681 54.6136C186.401 55.3788 186.261 56.2652 186.261 57.2727C186.261 58.2879 186.401 59.1856 186.681 59.9659C186.969 60.7386 187.382 61.3447 187.92 61.7841C188.466 62.2159 189.136 62.4318 189.931 62.4318Z" fill="white"/>
<rect x="24.5" y="109.5" width="259" height="333" rx="15.5" fill="#212530" stroke="#333948"/>
<path d="M88.0114 175.727V199H83.0909V180.398H82.9545L77.625 183.739V179.375L83.3864 175.727H88.0114ZM94.1431 199L103.791 179.909V179.75H92.5522V175.727H108.882V179.807L99.2226 199H94.1431ZM113.241 195.818L113.116 197.068C113.017 198.068 112.828 199.064 112.548 200.057C112.275 201.057 111.987 201.962 111.684 202.773C111.388 203.583 111.15 204.22 110.968 204.682H107.832C107.945 204.235 108.101 203.61 108.298 202.807C108.494 202.011 108.68 201.117 108.854 200.125C109.029 199.133 109.138 198.121 109.184 197.091L109.241 195.818H113.241ZM116.949 194.909V191.034L126.665 175.727H130.006V181.091H128.029L121.904 190.784V190.966H135.71V194.909H116.949ZM128.12 199V193.727L128.21 192.011V175.727H132.824V199H128.12ZM139.589 199L149.237 179.909V179.75H137.998V175.727H154.328V179.807L144.669 199H139.589ZM165.488 175.409C166.685 175.409 167.837 175.61 168.943 176.011C170.056 176.413 171.049 177.053 171.92 177.932C172.799 178.811 173.492 179.977 173.999 181.432C174.515 182.879 174.776 184.655 174.784 186.761C174.784 188.739 174.56 190.504 174.113 192.057C173.674 193.602 173.041 194.917 172.215 196C171.39 197.083 170.393 197.909 169.227 198.477C168.06 199.038 166.757 199.318 165.318 199.318C163.765 199.318 162.393 199.019 161.204 198.42C160.015 197.814 159.056 196.992 158.329 195.955C157.609 194.909 157.174 193.735 157.022 192.432H161.874C162.064 193.28 162.462 193.939 163.068 194.409C163.674 194.871 164.424 195.102 165.318 195.102C166.833 195.102 167.984 194.443 168.772 193.125C169.56 191.799 169.958 189.985 169.965 187.682H169.806C169.458 188.364 168.988 188.951 168.397 189.443C167.806 189.928 167.128 190.303 166.363 190.568C165.605 190.833 164.799 190.966 163.943 190.966C162.571 190.966 161.348 190.644 160.272 190C159.196 189.356 158.348 188.47 157.727 187.341C157.105 186.212 156.795 184.924 156.795 183.477C156.787 181.917 157.147 180.527 157.874 179.307C158.602 178.087 159.617 177.133 160.92 176.443C162.23 175.746 163.753 175.402 165.488 175.409ZM165.522 179.273C164.757 179.273 164.075 179.455 163.477 179.818C162.886 180.182 162.416 180.67 162.068 181.284C161.727 181.898 161.56 182.583 161.568 183.341C161.568 184.106 161.734 184.795 162.068 185.409C162.409 186.015 162.871 186.5 163.454 186.864C164.045 187.22 164.719 187.398 165.477 187.398C166.045 187.398 166.571 187.292 167.056 187.08C167.541 186.867 167.962 186.576 168.318 186.205C168.681 185.826 168.965 185.39 169.17 184.898C169.374 184.405 169.477 183.883 169.477 183.33C169.469 182.595 169.295 181.92 168.954 181.307C168.613 180.693 168.143 180.201 167.545 179.83C166.946 179.458 166.272 179.273 165.522 179.273Z" fill="white"/>
<circle cx="54" cy="145" r="6" fill="#57CBEF"/>
<path d="M76.6364 141.131V139.364H85.9205V141.131H82.3239V151H80.233V141.131H76.6364ZM90.0005 151.17C89.1482 151.17 88.4096 150.983 87.7846 150.608C87.1596 150.233 86.6748 149.708 86.3301 149.034C85.9891 148.36 85.8187 147.572 85.8187 146.67C85.8187 145.769 85.9891 144.979 86.3301 144.301C86.6748 143.623 87.1596 143.097 87.7846 142.722C88.4096 142.347 89.1482 142.159 90.0005 142.159C90.8528 142.159 91.5914 142.347 92.2164 142.722C92.8414 143.097 93.3244 143.623 93.6653 144.301C94.01 144.979 94.1823 145.769 94.1823 146.67C94.1823 147.572 94.01 148.36 93.6653 149.034C93.3244 149.708 92.8414 150.233 92.2164 150.608C91.5914 150.983 90.8528 151.17 90.0005 151.17ZM90.0119 149.523C90.474 149.523 90.8604 149.396 91.171 149.142C91.4816 148.884 91.7126 148.54 91.8641 148.108C92.0195 147.676 92.0971 147.195 92.0971 146.665C92.0971 146.131 92.0195 145.648 91.8641 145.216C91.7126 144.78 91.4816 144.434 91.171 144.176C90.8604 143.919 90.474 143.79 90.0119 143.79C89.5384 143.79 89.1445 143.919 88.8301 144.176C88.5195 144.434 88.2865 144.78 88.1312 145.216C87.9797 145.648 87.9039 146.131 87.9039 146.665C87.9039 147.195 87.9797 147.676 88.1312 148.108C88.2865 148.54 88.5195 148.884 88.8301 149.142C89.1445 149.396 89.5384 149.523 90.0119 149.523ZM100.126 142.273V143.864H95.109V142.273H100.126ZM96.3476 140.182H98.4044V148.375C98.4044 148.652 98.4461 148.864 98.5294 149.011C98.6166 149.155 98.7302 149.254 98.8703 149.307C99.0105 149.36 99.1658 149.386 99.3363 149.386C99.465 149.386 99.5825 149.377 99.6885 149.358C99.7984 149.339 99.8817 149.322 99.9385 149.307L100.285 150.915C100.175 150.953 100.018 150.994 99.8135 151.04C99.6128 151.085 99.3666 151.112 99.0749 151.119C98.5597 151.134 98.0957 151.057 97.6828 150.886C97.27 150.712 96.9423 150.443 96.6999 150.08C96.4613 149.716 96.3438 149.261 96.3476 148.716V140.182ZM104.198 151.176C103.645 151.176 103.146 151.078 102.703 150.881C102.264 150.68 101.915 150.384 101.658 149.994C101.404 149.604 101.277 149.123 101.277 148.551C101.277 148.059 101.368 147.652 101.55 147.33C101.732 147.008 101.98 146.75 102.294 146.557C102.609 146.364 102.963 146.218 103.357 146.119C103.754 146.017 104.165 145.943 104.59 145.898C105.101 145.845 105.516 145.797 105.834 145.756C106.152 145.71 106.383 145.642 106.527 145.551C106.675 145.456 106.749 145.311 106.749 145.114V145.08C106.749 144.652 106.622 144.32 106.368 144.085C106.114 143.85 105.749 143.733 105.271 143.733C104.768 143.733 104.368 143.843 104.073 144.062C103.781 144.282 103.584 144.542 103.482 144.841L101.561 144.568C101.713 144.038 101.963 143.595 102.311 143.239C102.66 142.879 103.086 142.61 103.59 142.432C104.093 142.25 104.65 142.159 105.26 142.159C105.681 142.159 106.099 142.208 106.516 142.307C106.932 142.405 107.313 142.568 107.658 142.795C108.002 143.019 108.279 143.324 108.487 143.71C108.699 144.097 108.806 144.58 108.806 145.159V151H106.828V149.801H106.76C106.635 150.044 106.459 150.271 106.232 150.483C106.008 150.691 105.726 150.86 105.385 150.989C105.048 151.114 104.652 151.176 104.198 151.176ZM104.732 149.665C105.145 149.665 105.502 149.583 105.806 149.42C106.109 149.254 106.341 149.034 106.504 148.761C106.671 148.489 106.754 148.191 106.754 147.869V146.841C106.69 146.894 106.58 146.943 106.425 146.989C106.273 147.034 106.103 147.074 105.913 147.108C105.724 147.142 105.537 147.172 105.351 147.199C105.165 147.225 105.004 147.248 104.868 147.267C104.561 147.309 104.287 147.377 104.044 147.472C103.802 147.566 103.61 147.699 103.47 147.869C103.33 148.036 103.26 148.252 103.26 148.517C103.26 148.896 103.398 149.182 103.675 149.375C103.951 149.568 104.304 149.665 104.732 149.665ZM112.771 139.364V151H110.714V139.364H112.771ZM120.733 139.364V151H118.625V139.364H120.733ZM124.822 145.886V151H122.765V142.273H124.731V143.756H124.833C125.034 143.267 125.354 142.879 125.793 142.591C126.237 142.303 126.784 142.159 127.435 142.159C128.038 142.159 128.562 142.288 129.009 142.545C129.46 142.803 129.809 143.176 130.055 143.665C130.305 144.153 130.428 144.746 130.424 145.443V151H128.367V145.761C128.367 145.178 128.216 144.722 127.913 144.392C127.613 144.062 127.199 143.898 126.668 143.898C126.309 143.898 125.988 143.977 125.708 144.136C125.432 144.292 125.214 144.517 125.055 144.812C124.899 145.108 124.822 145.466 124.822 145.886ZM139.838 142.273L136.73 151H134.457L131.349 142.273H133.542L135.548 148.756H135.639L137.65 142.273H139.838ZM144.611 151.17C143.759 151.17 143.02 150.983 142.395 150.608C141.77 150.233 141.285 149.708 140.941 149.034C140.6 148.36 140.429 147.572 140.429 146.67C140.429 145.769 140.6 144.979 140.941 144.301C141.285 143.623 141.77 143.097 142.395 142.722C143.02 142.347 143.759 142.159 144.611 142.159C145.463 142.159 146.202 142.347 146.827 142.722C147.452 143.097 147.935 143.623 148.276 144.301C148.621 144.979 148.793 145.769 148.793 146.67C148.793 147.572 148.621 148.36 148.276 149.034C147.935 149.708 147.452 150.233 146.827 150.608C146.202 150.983 145.463 151.17 144.611 151.17ZM144.623 149.523C145.085 149.523 145.471 149.396 145.782 149.142C146.092 148.884 146.323 148.54 146.475 148.108C146.63 147.676 146.708 147.195 146.708 146.665C146.708 146.131 146.63 145.648 146.475 145.216C146.323 144.78 146.092 144.434 145.782 144.176C145.471 143.919 145.085 143.79 144.623 143.79C144.149 143.79 143.755 143.919 143.441 144.176C143.13 144.434 142.897 144.78 142.742 145.216C142.59 145.648 142.515 146.131 142.515 146.665C142.515 147.195 142.59 147.676 142.742 148.108C142.897 148.54 143.13 148.884 143.441 149.142C143.755 149.396 144.149 149.523 144.623 149.523ZM154.186 151.17C153.314 151.17 152.566 150.979 151.941 150.597C151.32 150.214 150.841 149.686 150.504 149.011C150.17 148.333 150.004 147.553 150.004 146.67C150.004 145.784 150.174 145.002 150.515 144.324C150.856 143.642 151.337 143.112 151.958 142.733C152.583 142.35 153.322 142.159 154.174 142.159C154.882 142.159 155.509 142.29 156.055 142.551C156.604 142.809 157.042 143.174 157.367 143.648C157.693 144.117 157.879 144.667 157.924 145.295H155.958C155.879 144.875 155.689 144.525 155.39 144.244C155.095 143.96 154.699 143.818 154.203 143.818C153.782 143.818 153.413 143.932 153.095 144.159C152.776 144.383 152.528 144.705 152.35 145.125C152.176 145.545 152.089 146.049 152.089 146.636C152.089 147.231 152.176 147.742 152.35 148.17C152.525 148.595 152.769 148.922 153.083 149.153C153.401 149.381 153.775 149.494 154.203 149.494C154.506 149.494 154.776 149.437 155.015 149.324C155.257 149.206 155.46 149.038 155.623 148.818C155.786 148.598 155.898 148.331 155.958 148.017H157.924C157.875 148.634 157.693 149.182 157.379 149.659C157.064 150.133 156.636 150.504 156.095 150.773C155.553 151.038 154.917 151.17 154.186 151.17ZM161.964 151.176C161.411 151.176 160.913 151.078 160.47 150.881C160.031 150.68 159.682 150.384 159.425 149.994C159.171 149.604 159.044 149.123 159.044 148.551C159.044 148.059 159.135 147.652 159.317 147.33C159.499 147.008 159.747 146.75 160.061 146.557C160.375 146.364 160.73 146.218 161.124 146.119C161.521 146.017 161.932 145.943 162.356 145.898C162.868 145.845 163.283 145.797 163.601 145.756C163.919 145.71 164.15 145.642 164.294 145.551C164.442 145.456 164.516 145.311 164.516 145.114V145.08C164.516 144.652 164.389 144.32 164.135 144.085C163.881 143.85 163.516 143.733 163.038 143.733C162.535 143.733 162.135 143.843 161.839 144.062C161.548 144.282 161.351 144.542 161.249 144.841L159.328 144.568C159.48 144.038 159.73 143.595 160.078 143.239C160.427 142.879 160.853 142.61 161.356 142.432C161.86 142.25 162.417 142.159 163.027 142.159C163.447 142.159 163.866 142.208 164.283 142.307C164.699 142.405 165.08 142.568 165.425 142.795C165.769 143.019 166.046 143.324 166.254 143.71C166.466 144.097 166.572 144.58 166.572 145.159V151H164.595V149.801H164.527C164.402 150.044 164.226 150.271 163.999 150.483C163.775 150.691 163.493 150.86 163.152 150.989C162.815 151.114 162.419 151.176 161.964 151.176ZM162.499 149.665C162.911 149.665 163.269 149.583 163.572 149.42C163.875 149.254 164.108 149.034 164.271 148.761C164.438 148.489 164.521 148.191 164.521 147.869V146.841C164.457 146.894 164.347 146.943 164.192 146.989C164.04 147.034 163.87 147.074 163.68 147.108C163.491 147.142 163.303 147.172 163.118 147.199C162.932 147.225 162.771 147.248 162.635 147.267C162.328 147.309 162.053 147.377 161.811 147.472C161.569 147.566 161.377 147.699 161.237 147.869C161.097 148.036 161.027 148.252 161.027 148.517C161.027 148.896 161.165 149.182 161.442 149.375C161.718 149.568 162.07 149.665 162.499 149.665ZM172.839 142.273V143.864H167.821V142.273H172.839ZM169.06 140.182H171.117V148.375C171.117 148.652 171.159 148.864 171.242 149.011C171.329 149.155 171.443 149.254 171.583 149.307C171.723 149.36 171.878 149.386 172.049 149.386C172.178 149.386 172.295 149.377 172.401 149.358C172.511 149.339 172.594 149.322 172.651 149.307L172.998 150.915C172.888 150.953 172.731 150.994 172.526 151.04C172.325 151.085 172.079 151.112 171.787 151.119C171.272 151.134 170.808 151.057 170.395 150.886C169.982 150.712 169.655 150.443 169.412 150.08C169.174 149.716 169.056 149.261 169.06 148.716V140.182ZM174.399 151V142.273H176.456V151H174.399ZM175.433 141.034C175.107 141.034 174.827 140.926 174.592 140.71C174.357 140.491 174.24 140.227 174.24 139.92C174.24 139.61 174.357 139.347 174.592 139.131C174.827 138.911 175.107 138.801 175.433 138.801C175.762 138.801 176.043 138.911 176.274 139.131C176.509 139.347 176.626 139.61 176.626 139.92C176.626 140.227 176.509 140.491 176.274 140.71C176.043 140.926 175.762 141.034 175.433 141.034ZM182.217 151.17C181.365 151.17 180.626 150.983 180.001 150.608C179.376 150.233 178.892 149.708 178.547 149.034C178.206 148.36 178.036 147.572 178.036 146.67C178.036 145.769 178.206 144.979 178.547 144.301C178.892 143.623 179.376 143.097 180.001 142.722C180.626 142.347 181.365 142.159 182.217 142.159C183.07 142.159 183.808 142.347 184.433 142.722C185.058 143.097 185.541 143.623 185.882 144.301C186.227 144.979 186.399 145.769 186.399 146.67C186.399 147.572 186.227 148.36 185.882 149.034C185.541 149.708 185.058 150.233 184.433 150.608C183.808 150.983 183.07 151.17 182.217 151.17ZM182.229 149.523C182.691 149.523 183.077 149.396 183.388 149.142C183.698 148.884 183.93 148.54 184.081 148.108C184.236 147.676 184.314 147.195 184.314 146.665C184.314 146.131 184.236 145.648 184.081 145.216C183.93 144.78 183.698 144.434 183.388 144.176C183.077 143.919 182.691 143.79 182.229 143.79C181.755 143.79 181.361 143.919 181.047 144.176C180.736 144.434 180.503 144.78 180.348 145.216C180.197 145.648 180.121 146.131 180.121 146.665C180.121 147.195 180.197 147.676 180.348 148.108C180.503 148.54 180.736 148.884 181.047 149.142C181.361 149.396 181.755 149.523 182.229 149.523ZM190.042 145.886V151H187.985V142.273H189.951V143.756H190.053C190.254 143.267 190.574 142.879 191.013 142.591C191.457 142.303 192.004 142.159 192.655 142.159C193.258 142.159 193.782 142.288 194.229 142.545C194.68 142.803 195.029 143.176 195.275 143.665C195.525 144.153 195.648 144.746 195.644 145.443V151H193.587V145.761C193.587 145.178 193.436 144.722 193.133 144.392C192.833 144.062 192.419 143.898 191.888 143.898C191.529 143.898 191.208 143.977 190.928 144.136C190.652 144.292 190.434 144.517 190.275 144.812C190.119 145.108 190.042 145.466 190.042 145.886ZM204.473 144.58L202.598 144.784C202.545 144.595 202.452 144.417 202.319 144.25C202.19 144.083 202.016 143.949 201.797 143.847C201.577 143.744 201.308 143.693 200.99 143.693C200.562 143.693 200.202 143.786 199.91 143.972C199.622 144.157 199.48 144.398 199.484 144.693C199.48 144.947 199.573 145.153 199.762 145.312C199.956 145.472 200.274 145.602 200.717 145.705L202.206 146.023C203.031 146.201 203.645 146.483 204.047 146.869C204.452 147.256 204.656 147.761 204.66 148.386C204.656 148.936 204.495 149.42 204.177 149.841C203.863 150.258 203.425 150.583 202.865 150.818C202.304 151.053 201.66 151.17 200.933 151.17C199.865 151.17 199.005 150.947 198.353 150.5C197.702 150.049 197.314 149.422 197.189 148.619L199.194 148.426C199.285 148.82 199.478 149.117 199.774 149.318C200.069 149.519 200.454 149.619 200.927 149.619C201.416 149.619 201.808 149.519 202.103 149.318C202.403 149.117 202.552 148.869 202.552 148.574C202.552 148.324 202.456 148.117 202.262 147.955C202.073 147.792 201.778 147.667 201.376 147.58L199.887 147.267C199.05 147.093 198.431 146.799 198.029 146.386C197.628 145.97 197.429 145.443 197.433 144.807C197.429 144.269 197.575 143.803 197.87 143.409C198.17 143.011 198.584 142.705 199.115 142.489C199.649 142.269 200.264 142.159 200.961 142.159C201.984 142.159 202.789 142.377 203.376 142.812C203.967 143.248 204.333 143.837 204.473 144.58Z" fill="white"/>
<path d="M38 327.581H26C24.8954 327.581 24 328.476 24 329.581V441C24 442.105 24.8954 443 26 443H282C283.105 443 284 442.105 284 441V325.257C284 324.199 283.177 323.325 282.122 323.26L266.302 322.293C265.46 322.241 264.741 321.667 264.505 320.858L245.268 255.046C244.698 253.097 241.922 253.14 241.412 255.106L218.054 345.197C217.591 346.984 215.16 347.243 214.331 345.593L199.027 315.132C198.688 314.456 197.996 314.03 197.24 314.03H162.422C161.571 314.03 160.813 313.49 160.533 312.686L134.78 238.563C134.122 236.667 131.392 236.815 130.942 238.771L101.897 365.013C101.452 366.947 98.7679 367.123 98.0743 365.264L84.4964 328.881C84.2045 328.099 83.4575 327.581 82.6226 327.581H38Z" fill="url(#paint0_linear_1011_2848)"/>
<path d="M24.5 329.431H54H82.6118C83.452 329.431 84.2026 329.957 84.4906 330.746L98.0658 367.943C98.7504 369.819 101.459 369.643 101.896 367.695L130.523 240.082C130.959 238.139 133.656 237.957 134.35 239.823L162.016 314.271C162.307 315.054 163.055 315.574 163.89 315.574H197.213C197.983 315.574 198.685 316.017 199.017 316.712L214.472 349.04C215.279 350.729 217.758 350.482 218.215 348.666L241.409 256.575C241.909 254.59 244.713 254.548 245.272 256.517L264.344 323.677C264.588 324.537 265.374 325.131 266.268 325.131H284" stroke="#57CBEF" stroke-width="3"/>
<rect x="308.5" y="109.5" width="259" height="333" rx="15.5" fill="#212530" stroke="#333948"/>
<path d="M363 322.5L308 338V441.5H568V296L526.446 256L481.5 305.5L437.619 256L395.683 242L363 322.5Z" fill="url(#paint1_linear_1011_2848)"/>
<path d="M308 338L362.058 322.766C362.652 322.598 363.136 322.165 363.368 321.593L394.977 243.739C395.374 242.761 396.463 242.26 397.464 242.594L437.111 255.83C437.444 255.942 437.741 256.138 437.974 256.401L480.021 303.832C480.811 304.722 482.198 304.731 482.999 303.85L525.062 257.524C525.819 256.69 527.117 256.646 527.929 257.428L568 296" stroke="#EE446D" stroke-width="3"/>
<path d="M372.011 175.727V199H367.091V180.398H366.955L361.625 183.739V179.375L367.386 175.727H372.011ZM385.904 199.318C384.154 199.318 382.598 199.034 381.234 198.466C379.878 197.89 378.814 197.106 378.041 196.114C377.268 195.121 376.882 193.996 376.882 192.739C376.882 191.769 377.101 190.879 377.541 190.068C377.988 189.25 378.594 188.572 379.359 188.034C380.124 187.489 380.98 187.14 381.927 186.989V186.83C380.685 186.58 379.677 185.977 378.904 185.023C378.132 184.061 377.745 182.943 377.745 181.67C377.745 180.466 378.098 179.394 378.802 178.455C379.507 177.508 380.473 176.765 381.7 176.227C382.935 175.682 384.336 175.409 385.904 175.409C387.473 175.409 388.87 175.682 390.098 176.227C391.332 176.773 392.302 177.519 393.007 178.466C393.711 179.405 394.067 180.473 394.075 181.67C394.067 182.951 393.673 184.068 392.893 185.023C392.113 185.977 391.113 186.58 389.893 186.83V186.989C390.825 187.14 391.67 187.489 392.427 188.034C393.192 188.572 393.798 189.25 394.245 190.068C394.7 190.879 394.931 191.769 394.939 192.739C394.931 193.996 394.541 195.121 393.768 196.114C392.995 197.106 391.927 197.89 390.564 198.466C389.207 199.034 387.654 199.318 385.904 199.318ZM385.904 195.705C386.685 195.705 387.367 195.564 387.95 195.284C388.533 194.996 388.988 194.602 389.314 194.102C389.647 193.595 389.814 193.011 389.814 192.352C389.814 191.678 389.643 191.083 389.302 190.568C388.961 190.045 388.499 189.636 387.916 189.341C387.332 189.038 386.662 188.886 385.904 188.886C385.154 188.886 384.484 189.038 383.893 189.341C383.302 189.636 382.836 190.045 382.495 190.568C382.162 191.083 381.995 191.678 381.995 192.352C381.995 193.011 382.158 193.595 382.484 194.102C382.81 194.602 383.268 194.996 383.859 195.284C384.45 195.564 385.132 195.705 385.904 195.705ZM385.904 185.307C386.556 185.307 387.135 185.174 387.643 184.909C388.151 184.644 388.548 184.277 388.836 183.807C389.124 183.337 389.268 182.795 389.268 182.182C389.268 181.576 389.124 181.045 388.836 180.591C388.548 180.129 388.154 179.769 387.654 179.511C387.154 179.246 386.571 179.114 385.904 179.114C385.245 179.114 384.662 179.246 384.154 179.511C383.647 179.769 383.249 180.129 382.961 180.591C382.681 181.045 382.541 181.576 382.541 182.182C382.541 182.795 382.685 183.337 382.973 183.807C383.26 184.277 383.658 184.644 384.166 184.909C384.673 185.174 385.253 185.307 385.904 185.307ZM406.661 199.318C404.964 199.318 403.453 199.027 402.127 198.443C400.809 197.852 399.767 197.042 399.002 196.011C398.244 194.973 397.854 193.777 397.832 192.42H402.786C402.816 192.989 403.002 193.489 403.343 193.92C403.691 194.345 404.154 194.674 404.729 194.909C405.305 195.144 405.953 195.261 406.673 195.261C407.423 195.261 408.085 195.129 408.661 194.864C409.237 194.598 409.688 194.231 410.013 193.761C410.339 193.292 410.502 192.75 410.502 192.136C410.502 191.515 410.328 190.966 409.979 190.489C409.638 190.004 409.146 189.625 408.502 189.352C407.866 189.08 407.108 188.943 406.229 188.943H404.059V185.33H406.229C406.972 185.33 407.627 185.201 408.195 184.943C408.771 184.686 409.218 184.33 409.536 183.875C409.854 183.413 410.013 182.875 410.013 182.261C410.013 181.678 409.873 181.167 409.593 180.727C409.32 180.28 408.934 179.932 408.434 179.682C407.941 179.432 407.366 179.307 406.707 179.307C406.04 179.307 405.43 179.428 404.877 179.67C404.324 179.905 403.881 180.242 403.548 180.682C403.214 181.121 403.036 181.636 403.013 182.227H398.298C398.32 180.886 398.703 179.705 399.445 178.682C400.188 177.659 401.188 176.86 402.445 176.284C403.71 175.701 405.138 175.409 406.729 175.409C408.335 175.409 409.741 175.701 410.945 176.284C412.15 176.867 413.085 177.655 413.752 178.648C414.426 179.633 414.76 180.739 414.752 181.966C414.76 183.269 414.354 184.356 413.536 185.227C412.726 186.098 411.669 186.652 410.366 186.886V187.068C412.078 187.288 413.381 187.883 414.275 188.852C415.176 189.814 415.623 191.019 415.616 192.466C415.623 193.792 415.241 194.97 414.468 196C413.703 197.03 412.646 197.841 411.298 198.432C409.949 199.023 408.404 199.318 406.661 199.318Z" fill="white"/>
<circle cx="338" cy="145" r="6" fill="#EE446D"/>
<path d="M360.636 141.131V139.364H369.92V141.131H366.324V151H364.233V141.131H360.636ZM374.001 151.17C373.148 151.17 372.41 150.983 371.785 150.608C371.16 150.233 370.675 149.708 370.33 149.034C369.989 148.36 369.819 147.572 369.819 146.67C369.819 145.769 369.989 144.979 370.33 144.301C370.675 143.623 371.16 143.097 371.785 142.722C372.41 142.347 373.148 142.159 374.001 142.159C374.853 142.159 375.591 142.347 376.216 142.722C376.841 143.097 377.324 143.623 377.665 144.301C378.01 144.979 378.182 145.769 378.182 146.67C378.182 147.572 378.01 148.36 377.665 149.034C377.324 149.708 376.841 150.233 376.216 150.608C375.591 150.983 374.853 151.17 374.001 151.17ZM374.012 149.523C374.474 149.523 374.86 149.396 375.171 149.142C375.482 148.884 375.713 148.54 375.864 148.108C376.019 147.676 376.097 147.195 376.097 146.665C376.097 146.131 376.019 145.648 375.864 145.216C375.713 144.78 375.482 144.434 375.171 144.176C374.86 143.919 374.474 143.79 374.012 143.79C373.538 143.79 373.144 143.919 372.83 144.176C372.519 144.434 372.286 144.78 372.131 145.216C371.98 145.648 371.904 146.131 371.904 146.665C371.904 147.195 371.98 147.676 372.131 148.108C372.286 148.54 372.519 148.884 372.83 149.142C373.144 149.396 373.538 149.523 374.012 149.523ZM384.126 142.273V143.864H379.109V142.273H384.126ZM380.348 140.182H382.404V148.375C382.404 148.652 382.446 148.864 382.529 149.011C382.617 149.155 382.73 149.254 382.87 149.307C383.01 149.36 383.166 149.386 383.336 149.386C383.465 149.386 383.582 149.377 383.689 149.358C383.798 149.339 383.882 149.322 383.939 149.307L384.285 150.915C384.175 150.953 384.018 150.994 383.814 151.04C383.613 151.085 383.367 151.112 383.075 151.119C382.56 151.134 382.096 151.057 381.683 150.886C381.27 150.712 380.942 150.443 380.7 150.08C380.461 149.716 380.344 149.261 380.348 148.716V140.182ZM388.198 151.176C387.645 151.176 387.146 151.078 386.703 150.881C386.264 150.68 385.915 150.384 385.658 149.994C385.404 149.604 385.277 149.123 385.277 148.551C385.277 148.059 385.368 147.652 385.55 147.33C385.732 147.008 385.98 146.75 386.294 146.557C386.609 146.364 386.963 146.218 387.357 146.119C387.754 146.017 388.165 145.943 388.59 145.898C389.101 145.845 389.516 145.797 389.834 145.756C390.152 145.71 390.383 145.642 390.527 145.551C390.675 145.456 390.749 145.311 390.749 145.114V145.08C390.749 144.652 390.622 144.32 390.368 144.085C390.114 143.85 389.749 143.733 389.271 143.733C388.768 143.733 388.368 143.843 388.073 144.062C387.781 144.282 387.584 144.542 387.482 144.841L385.561 144.568C385.713 144.038 385.963 143.595 386.311 143.239C386.66 142.879 387.086 142.61 387.59 142.432C388.093 142.25 388.65 142.159 389.26 142.159C389.681 142.159 390.099 142.208 390.516 142.307C390.932 142.405 391.313 142.568 391.658 142.795C392.002 143.019 392.279 143.324 392.487 143.71C392.699 144.097 392.806 144.58 392.806 145.159V151H390.828V149.801H390.76C390.635 150.044 390.459 150.271 390.232 150.483C390.008 150.691 389.726 150.86 389.385 150.989C389.048 151.114 388.652 151.176 388.198 151.176ZM388.732 149.665C389.145 149.665 389.502 149.583 389.806 149.42C390.109 149.254 390.341 149.034 390.504 148.761C390.671 148.489 390.754 148.191 390.754 147.869V146.841C390.69 146.894 390.58 146.943 390.425 146.989C390.273 147.034 390.103 147.074 389.913 147.108C389.724 147.142 389.537 147.172 389.351 147.199C389.165 147.225 389.004 147.248 388.868 147.267C388.561 147.309 388.287 147.377 388.044 147.472C387.802 147.566 387.61 147.699 387.47 147.869C387.33 148.036 387.26 148.252 387.26 148.517C387.26 148.896 387.398 149.182 387.675 149.375C387.951 149.568 388.304 149.665 388.732 149.665ZM396.771 139.364V151H394.714V139.364H396.771ZM402.625 151V139.364H410.193V141.131H404.733V144.29H409.801V146.057H404.733V149.233H410.239V151H402.625ZM412.093 151V142.273H414.087V143.727H414.178C414.337 143.223 414.61 142.835 414.996 142.562C415.387 142.286 415.832 142.148 416.332 142.148C416.445 142.148 416.572 142.153 416.712 142.165C416.856 142.172 416.976 142.186 417.07 142.205V144.097C416.983 144.066 416.845 144.04 416.656 144.017C416.47 143.991 416.29 143.977 416.116 143.977C415.741 143.977 415.404 144.059 415.104 144.222C414.809 144.381 414.576 144.602 414.406 144.886C414.235 145.17 414.15 145.498 414.15 145.869V151H412.093ZM418.277 151V142.273H420.271V143.727H420.362C420.521 143.223 420.794 142.835 421.18 142.562C421.57 142.286 422.015 142.148 422.515 142.148C422.629 142.148 422.756 142.153 422.896 142.165C423.04 142.172 423.159 142.186 423.254 142.205V144.097C423.167 144.066 423.029 144.04 422.839 144.017C422.654 143.991 422.474 143.977 422.3 143.977C421.925 143.977 421.587 144.059 421.288 144.222C420.993 144.381 420.76 144.602 420.589 144.886C420.419 145.17 420.334 145.498 420.334 145.869V151H418.277ZM427.908 151.17C427.056 151.17 426.317 150.983 425.692 150.608C425.067 150.233 424.582 149.708 424.238 149.034C423.897 148.36 423.726 147.572 423.726 146.67C423.726 145.769 423.897 144.979 424.238 144.301C424.582 143.623 425.067 143.097 425.692 142.722C426.317 142.347 427.056 142.159 427.908 142.159C428.76 142.159 429.499 142.347 430.124 142.722C430.749 143.097 431.232 143.623 431.573 144.301C431.917 144.979 432.09 145.769 432.09 146.67C432.09 147.572 431.917 148.36 431.573 149.034C431.232 149.708 430.749 150.233 430.124 150.608C429.499 150.983 428.76 151.17 427.908 151.17ZM427.919 149.523C428.381 149.523 428.768 149.396 429.078 149.142C429.389 148.884 429.62 148.54 429.772 148.108C429.927 147.676 430.005 147.195 430.005 146.665C430.005 146.131 429.927 145.648 429.772 145.216C429.62 144.78 429.389 144.434 429.078 144.176C428.768 143.919 428.381 143.79 427.919 143.79C427.446 143.79 427.052 143.919 426.738 144.176C426.427 144.434 426.194 144.78 426.039 145.216C425.887 145.648 425.811 146.131 425.811 146.665C425.811 147.195 425.887 147.676 426.039 148.108C426.194 148.54 426.427 148.884 426.738 149.142C427.052 149.396 427.446 149.523 427.919 149.523ZM433.676 151V142.273H435.67V143.727H435.761C435.92 143.223 436.193 142.835 436.579 142.562C436.969 142.286 437.414 142.148 437.914 142.148C438.028 142.148 438.155 142.153 438.295 142.165C438.439 142.172 438.558 142.186 438.653 142.205V144.097C438.566 144.066 438.427 144.04 438.238 144.017C438.052 143.991 437.873 143.977 437.698 143.977C437.323 143.977 436.986 144.059 436.687 144.222C436.391 144.381 436.159 144.602 435.988 144.886C435.818 145.17 435.732 145.498 435.732 145.869V151H433.676ZM446.757 144.58L444.882 144.784C444.829 144.595 444.736 144.417 444.604 144.25C444.475 144.083 444.301 143.949 444.081 143.847C443.861 143.744 443.592 143.693 443.274 143.693C442.846 143.693 442.486 143.786 442.195 143.972C441.907 144.157 441.765 144.398 441.768 144.693C441.765 144.947 441.857 145.153 442.047 145.312C442.24 145.472 442.558 145.602 443.001 145.705L444.49 146.023C445.316 146.201 445.929 146.483 446.331 146.869C446.736 147.256 446.941 147.761 446.945 148.386C446.941 148.936 446.78 149.42 446.462 149.841C446.147 150.258 445.71 150.583 445.149 150.818C444.588 151.053 443.945 151.17 443.217 151.17C442.149 151.17 441.289 150.947 440.638 150.5C439.986 150.049 439.598 149.422 439.473 148.619L441.479 148.426C441.57 148.82 441.763 149.117 442.058 149.318C442.354 149.519 442.738 149.619 443.212 149.619C443.7 149.619 444.092 149.519 444.388 149.318C444.687 149.117 444.837 148.869 444.837 148.574C444.837 148.324 444.74 148.117 444.547 147.955C444.357 147.792 444.062 147.667 443.66 147.58L442.172 147.267C441.335 147.093 440.715 146.799 440.314 146.386C439.912 145.97 439.713 145.443 439.717 144.807C439.713 144.269 439.859 143.803 440.155 143.409C440.454 143.011 440.869 142.705 441.399 142.489C441.933 142.269 442.549 142.159 443.246 142.159C444.268 142.159 445.073 142.377 445.66 142.812C446.251 143.248 446.617 143.837 446.757 144.58Z" fill="white"/>
<rect x="24.5" y="475.5" width="207" height="87" rx="11.5" fill="#212530" stroke="#333948"/>
<path d="M41.1186 506V495.818H44.7479C45.5367 495.818 46.1913 495.954 46.7116 496.226C47.2353 496.498 47.6264 496.874 47.8849 497.354C48.1435 497.832 48.2727 498.384 48.2727 499.01C48.2727 499.633 48.1418 500.182 47.88 500.656C47.6214 501.126 47.2304 501.492 46.7067 501.754C46.1863 502.016 45.5317 502.147 44.7429 502.147H41.9936V500.825H44.6037C45.1009 500.825 45.5052 500.753 45.8168 500.611C46.1316 500.468 46.362 500.261 46.5078 499.989C46.6536 499.718 46.7266 499.391 46.7266 499.01C46.7266 498.625 46.652 498.292 46.5028 498.011C46.357 497.729 46.1267 497.513 45.8118 497.364C45.5002 497.212 45.0909 497.136 44.5838 497.136H42.6548V506H41.1186ZM46.1449 501.406L48.6605 506H46.9105L44.4446 501.406H46.1449ZM53.0782 506.154C52.3258 506.154 51.6779 505.993 51.1343 505.672C50.5941 505.347 50.1765 504.891 49.8815 504.305C49.5898 503.715 49.444 503.024 49.444 502.232C49.444 501.449 49.5898 500.76 49.8815 500.163C50.1765 499.567 50.5874 499.101 51.1144 498.766C51.6447 498.432 52.2645 498.264 52.9738 498.264C53.4047 498.264 53.8223 498.335 54.2267 498.478C54.631 498.621 54.9939 498.844 55.3154 499.149C55.6369 499.454 55.8905 499.85 56.0761 500.337C56.2617 500.821 56.3545 501.41 56.3545 502.102V502.629H50.2842V501.516H54.8978C54.8978 501.125 54.8183 500.778 54.6592 500.477C54.5001 500.172 54.2764 499.931 53.988 499.756C53.703 499.58 53.3682 499.492 52.9838 499.492C52.5661 499.492 52.2016 499.595 51.89 499.8C51.5818 500.003 51.3431 500.268 51.1741 500.596C51.0084 500.921 50.9255 501.274 50.9255 501.655V502.525C50.9255 503.035 51.015 503.469 51.194 503.827C51.3763 504.185 51.6298 504.459 51.9546 504.648C52.2794 504.833 52.6589 504.926 53.0931 504.926C53.3749 504.926 53.6317 504.886 53.8637 504.807C54.0957 504.724 54.2963 504.601 54.4653 504.439C54.6343 504.277 54.7636 504.076 54.8531 503.837L56.26 504.091C56.1473 504.505 55.9452 504.868 55.6535 505.18C55.3651 505.488 55.0022 505.728 54.5647 505.901C54.1305 506.07 53.635 506.154 53.0782 506.154ZM63.5861 500.228L62.2388 500.467C62.1825 500.294 62.093 500.13 61.9704 499.974C61.851 499.819 61.6886 499.691 61.4831 499.592C61.2776 499.492 61.0208 499.442 60.7125 499.442C60.2916 499.442 59.9403 499.537 59.6586 499.726C59.3768 499.911 59.236 500.152 59.236 500.447C59.236 500.702 59.3304 500.907 59.5194 501.063C59.7083 501.219 60.0132 501.347 60.4341 501.446L61.6472 501.724C62.3499 501.887 62.8735 502.137 63.2182 502.475C63.5629 502.813 63.7353 503.252 63.7353 503.793C63.7353 504.25 63.6027 504.658 63.3375 505.016C63.0757 505.37 62.7095 505.649 62.2388 505.851C61.7715 506.053 61.2296 506.154 60.6131 506.154C59.758 506.154 59.0603 505.972 58.5201 505.607C57.9798 505.239 57.6484 504.717 57.5258 504.041L58.9625 503.822C59.052 504.197 59.236 504.48 59.5144 504.673C59.7928 504.862 60.1557 504.956 60.6032 504.956C61.0904 504.956 61.4798 504.855 61.7715 504.653C62.0632 504.447 62.209 504.197 62.209 503.902C62.209 503.663 62.1195 503.463 61.9405 503.3C61.7649 503.138 61.4947 503.015 61.1302 502.933L59.8375 502.649C59.1249 502.487 58.598 502.228 58.2566 501.874C57.9185 501.519 57.7495 501.07 57.7495 500.526C57.7495 500.076 57.8754 499.681 58.1273 499.343C58.3792 499.005 58.7272 498.741 59.1713 498.553C59.6155 498.36 60.1242 498.264 60.6976 498.264C61.5229 498.264 62.1725 498.443 62.6465 498.801C63.1204 499.156 63.4337 499.631 63.5861 500.228ZM68.4463 506.154C67.7304 506.154 67.1056 505.99 66.572 505.662C66.0384 505.334 65.6241 504.875 65.3291 504.285C65.0341 503.695 64.8866 503.005 64.8866 502.217C64.8866 501.424 65.0341 500.732 65.3291 500.138C65.6241 499.545 66.0384 499.085 66.572 498.756C67.1056 498.428 67.7304 498.264 68.4463 498.264C69.1622 498.264 69.787 498.428 70.3206 498.756C70.8542 499.085 71.2685 499.545 71.5635 500.138C71.8585 500.732 72.006 501.424 72.006 502.217C72.006 503.005 71.8585 503.695 71.5635 504.285C71.2685 504.875 70.8542 505.334 70.3206 505.662C69.787 505.99 69.1622 506.154 68.4463 506.154ZM68.4513 504.906C68.9153 504.906 69.2998 504.784 69.6047 504.538C69.9096 504.293 70.135 503.967 70.2808 503.559C70.43 503.151 70.5045 502.702 70.5045 502.212C70.5045 501.724 70.43 501.277 70.2808 500.869C70.135 500.458 69.9096 500.129 69.6047 499.88C69.2998 499.631 68.9153 499.507 68.4513 499.507C67.9839 499.507 67.5962 499.631 67.2879 499.88C66.983 500.129 66.756 500.458 66.6068 500.869C66.461 501.277 66.3881 501.724 66.3881 502.212C66.3881 502.702 66.461 503.151 66.6068 503.559C66.756 503.967 66.983 504.293 67.2879 504.538C67.5962 504.784 67.9839 504.906 68.4513 504.906ZM78.3626 502.833V498.364H79.8541V506H78.3924V504.678H78.3129C78.1372 505.085 77.8555 505.425 77.4677 505.697C77.0832 505.965 76.6043 506.099 76.0309 506.099C75.5404 506.099 75.1062 505.992 74.7284 505.776C74.3538 505.558 74.0588 505.234 73.8434 504.807C73.6313 504.379 73.5252 503.851 73.5252 503.221V498.364H75.0117V503.042C75.0117 503.562 75.1559 503.977 75.4443 504.285C75.7326 504.593 76.1071 504.747 76.5678 504.747C76.8462 504.747 77.123 504.678 77.3981 504.538C77.6765 504.399 77.9069 504.189 78.0891 503.907C78.2748 503.625 78.3659 503.267 78.3626 502.833ZM81.7114 506V498.364H83.1482V499.577H83.2277C83.3669 499.166 83.6122 498.843 83.9635 498.607C84.3182 498.369 84.7192 498.249 85.1667 498.249C85.2595 498.249 85.3688 498.253 85.4948 498.259C85.624 498.266 85.7251 498.274 85.798 498.284V499.706C85.7384 499.689 85.6323 499.671 85.4799 499.651C85.3274 499.628 85.1749 499.616 85.0225 499.616C84.6712 499.616 84.3579 499.691 84.0828 499.84C83.8111 499.986 83.5956 500.19 83.4365 500.452C83.2774 500.71 83.1979 501.005 83.1979 501.337V506H81.7114ZM89.8876 506.154C89.1485 506.154 88.5122 505.987 87.9785 505.652C87.4482 505.314 87.0406 504.848 86.7555 504.255C86.4705 503.662 86.328 502.982 86.328 502.217C86.328 501.441 86.4738 500.757 86.7655 500.163C87.0571 499.567 87.4681 499.101 87.9984 498.766C88.5287 498.432 89.1535 498.264 89.8727 498.264C90.4527 498.264 90.9698 498.372 91.4238 498.587C91.8779 498.799 92.2442 499.098 92.5226 499.482C92.8043 499.867 92.9717 500.316 93.0247 500.83H91.578C91.4984 500.472 91.3161 500.163 91.0311 499.905C90.7494 499.646 90.3715 499.517 89.8976 499.517C89.4833 499.517 89.1203 499.626 88.8088 499.845C88.5006 500.061 88.2603 500.369 88.0879 500.77C87.9156 501.168 87.8294 501.638 87.8294 502.182C87.8294 502.739 87.9139 503.219 88.0829 503.624C88.252 504.028 88.4906 504.341 88.7988 504.563C89.1104 504.785 89.4766 504.896 89.8976 504.896C90.1793 504.896 90.4345 504.845 90.6632 504.742C90.8952 504.636 91.0891 504.485 91.2449 504.29C91.404 504.094 91.515 503.859 91.578 503.584H93.0247C92.9717 504.078 92.8109 504.518 92.5425 504.906C92.274 505.294 91.9144 505.599 91.4636 505.821C91.0162 506.043 90.4908 506.154 89.8876 506.154ZM97.7656 506.154C97.0132 506.154 96.3652 505.993 95.8217 505.672C95.2814 505.347 94.8638 504.891 94.5688 504.305C94.2772 503.715 94.1313 503.024 94.1313 502.232C94.1313 501.449 94.2772 500.76 94.5688 500.163C94.8638 499.567 95.2748 499.101 95.8018 498.766C96.3321 498.432 96.9519 498.264 97.6612 498.264C98.092 498.264 98.5096 498.335 98.914 498.478C99.3184 498.621 99.6813 498.844 100.003 499.149C100.324 499.454 100.578 499.85 100.763 500.337C100.949 500.821 101.042 501.41 101.042 502.102V502.629H94.9715V501.516H99.5852C99.5852 501.125 99.5056 500.778 99.3465 500.477C99.1874 500.172 98.9637 499.931 98.6754 499.756C98.3903 499.58 98.0556 499.492 97.6711 499.492C97.2535 499.492 96.8889 499.595 96.5774 499.8C96.2691 500.003 96.0305 500.268 95.8614 500.596C95.6957 500.921 95.6129 501.274 95.6129 501.655V502.525C95.6129 503.035 95.7024 503.469 95.8813 503.827C96.0636 504.185 96.3172 504.459 96.642 504.648C96.9668 504.833 97.3463 504.926 97.7805 504.926C98.0622 504.926 98.3191 504.886 98.5511 504.807C98.7831 504.724 98.9836 504.601 99.1526 504.439C99.3217 504.277 99.4509 504.076 99.5404 503.837L100.947 504.091C100.835 504.505 100.633 504.868 100.341 505.18C100.052 505.488 99.6896 505.728 99.2521 505.901C98.8179 506.07 98.3224 506.154 97.7656 506.154ZM108.273 500.228L106.926 500.467C106.87 500.294 106.78 500.13 106.658 499.974C106.538 499.819 106.376 499.691 106.17 499.592C105.965 499.492 105.708 499.442 105.4 499.442C104.979 499.442 104.628 499.537 104.346 499.726C104.064 499.911 103.923 500.152 103.923 500.447C103.923 500.702 104.018 500.907 104.207 501.063C104.396 501.219 104.701 501.347 105.121 501.446L106.335 501.724C107.037 501.887 107.561 502.137 107.906 502.475C108.25 502.813 108.423 503.252 108.423 503.793C108.423 504.25 108.29 504.658 108.025 505.016C107.763 505.37 107.397 505.649 106.926 505.851C106.459 506.053 105.917 506.154 105.3 506.154C104.445 506.154 103.748 505.972 103.207 505.607C102.667 505.239 102.336 504.717 102.213 504.041L103.65 503.822C103.739 504.197 103.923 504.48 104.202 504.673C104.48 504.862 104.843 504.956 105.291 504.956C105.778 504.956 106.167 504.855 106.459 504.653C106.751 504.447 106.896 504.197 106.896 503.902C106.896 503.663 106.807 503.463 106.628 503.3C106.452 503.138 106.182 503.015 105.818 502.933L104.525 502.649C103.812 502.487 103.285 502.228 102.944 501.874C102.606 501.519 102.437 501.07 102.437 500.526C102.437 500.076 102.563 499.681 102.815 499.343C103.067 499.005 103.415 498.741 103.859 498.553C104.303 498.36 104.812 498.264 105.385 498.264C106.21 498.264 106.86 498.443 107.334 498.801C107.808 499.156 108.121 499.631 108.273 500.228ZM115.704 506.169C115.221 506.169 114.783 506.08 114.392 505.901C114.001 505.718 113.691 505.455 113.462 505.11C113.237 504.765 113.124 504.343 113.124 503.842C113.124 503.411 113.207 503.057 113.373 502.778C113.538 502.5 113.762 502.28 114.044 502.117C114.326 501.955 114.64 501.832 114.988 501.749C115.337 501.666 115.691 501.603 116.052 501.56C116.51 501.507 116.881 501.464 117.166 501.431C117.451 501.395 117.658 501.337 117.787 501.257C117.917 501.178 117.981 501.048 117.981 500.869V500.835C117.981 500.4 117.859 500.064 117.613 499.825C117.372 499.587 117.01 499.467 116.53 499.467C116.029 499.467 115.635 499.578 115.346 499.8C115.061 500.019 114.864 500.263 114.755 500.531L113.358 500.213C113.524 499.749 113.765 499.375 114.084 499.089C114.405 498.801 114.775 498.592 115.192 498.463C115.61 498.33 116.049 498.264 116.51 498.264C116.815 498.264 117.138 498.301 117.479 498.374C117.824 498.443 118.145 498.572 118.444 498.761C118.745 498.95 118.992 499.22 119.185 499.572C119.377 499.92 119.473 500.372 119.473 500.929V506H118.021V504.956H117.962C117.865 505.148 117.721 505.337 117.529 505.523C117.337 505.708 117.09 505.862 116.788 505.985C116.487 506.108 116.125 506.169 115.704 506.169ZM116.028 504.976C116.439 504.976 116.79 504.895 117.082 504.732C117.377 504.57 117.6 504.358 117.753 504.096C117.908 503.831 117.986 503.547 117.986 503.246V502.261C117.933 502.314 117.831 502.364 117.678 502.411C117.529 502.454 117.358 502.492 117.166 502.525C116.974 502.555 116.787 502.583 116.604 502.609C116.422 502.633 116.27 502.652 116.147 502.669C115.859 502.705 115.595 502.767 115.356 502.853C115.121 502.939 114.932 503.063 114.79 503.226C114.65 503.385 114.581 503.597 114.581 503.862C114.581 504.23 114.717 504.509 114.988 504.697C115.26 504.883 115.607 504.976 116.028 504.976ZM122.799 501.466V506H121.313V498.364H122.74V499.607H122.834C123.01 499.202 123.285 498.877 123.659 498.632C124.037 498.387 124.513 498.264 125.086 498.264C125.607 498.264 126.062 498.374 126.453 498.592C126.845 498.808 127.148 499.129 127.363 499.557C127.579 499.984 127.686 500.513 127.686 501.143V506H126.2V501.322C126.2 500.768 126.056 500.336 125.767 500.024C125.479 499.709 125.083 499.552 124.579 499.552C124.234 499.552 123.928 499.626 123.659 499.776C123.394 499.925 123.184 500.143 123.028 500.432C122.876 500.717 122.799 501.062 122.799 501.466ZM131.762 506.169C131.278 506.169 130.841 506.08 130.45 505.901C130.059 505.718 129.749 505.455 129.52 505.11C129.295 504.765 129.182 504.343 129.182 503.842C129.182 503.411 129.265 503.057 129.431 502.778C129.596 502.5 129.82 502.28 130.102 502.117C130.384 501.955 130.698 501.832 131.046 501.749C131.394 501.666 131.749 501.603 132.11 501.56C132.568 501.507 132.939 501.464 133.224 501.431C133.509 501.395 133.716 501.337 133.845 501.257C133.975 501.178 134.039 501.048 134.039 500.869V500.835C134.039 500.4 133.917 500.064 133.671 499.825C133.429 499.587 133.068 499.467 132.588 499.467C132.087 499.467 131.693 499.578 131.404 499.8C131.119 500.019 130.922 500.263 130.813 500.531L129.416 500.213C129.581 499.749 129.823 499.375 130.142 499.089C130.463 498.801 130.833 498.592 131.25 498.463C131.668 498.33 132.107 498.264 132.568 498.264C132.873 498.264 133.196 498.301 133.537 498.374C133.882 498.443 134.203 498.572 134.502 498.761C134.803 498.95 135.05 499.22 135.242 499.572C135.435 499.92 135.531 500.372 135.531 500.929V506H134.079V504.956H134.019C133.923 505.148 133.779 505.337 133.587 505.523C133.395 505.708 133.148 505.862 132.846 505.985C132.544 506.108 132.183 506.169 131.762 506.169ZM132.085 504.976C132.496 504.976 132.848 504.895 133.139 504.732C133.434 504.57 133.658 504.358 133.811 504.096C133.966 503.831 134.044 503.547 134.044 503.246V502.261C133.991 502.314 133.888 502.364 133.736 502.411C133.587 502.454 133.416 502.492 133.224 502.525C133.032 502.555 132.844 502.583 132.662 502.609C132.48 502.633 132.327 502.652 132.205 502.669C131.916 502.705 131.653 502.767 131.414 502.853C131.179 502.939 130.99 503.063 130.848 503.226C130.708 503.385 130.639 503.597 130.639 503.862C130.639 504.23 130.775 504.509 131.046 504.697C131.318 504.883 131.665 504.976 132.085 504.976ZM138.857 495.818V506H137.371V495.818H138.857ZM141.657 508.864C141.435 508.864 141.232 508.845 141.05 508.809C140.868 508.776 140.732 508.739 140.642 508.7L141 507.482C141.272 507.554 141.514 507.586 141.726 507.576C141.938 507.566 142.126 507.487 142.288 507.337C142.454 507.188 142.6 506.945 142.726 506.607L142.909 506.099L140.115 498.364H141.706L143.64 504.29H143.72L145.654 498.364H147.25L144.103 507.019C143.957 507.417 143.771 507.753 143.546 508.028C143.32 508.307 143.052 508.516 142.74 508.655C142.429 508.794 142.068 508.864 141.657 508.864ZM148.348 506V504.981L152.484 499.726V499.656H148.482V498.364H154.338V499.447L150.361 504.638V504.707H154.478V506H148.348ZM159.164 506.154C158.411 506.154 157.763 505.993 157.22 505.672C156.68 505.347 156.262 504.891 155.967 504.305C155.675 503.715 155.53 503.024 155.53 502.232C155.53 501.449 155.675 500.76 155.967 500.163C156.262 499.567 156.673 499.101 157.2 498.766C157.73 498.432 158.35 498.264 159.059 498.264C159.49 498.264 159.908 498.335 160.312 498.478C160.717 498.621 161.079 498.844 161.401 499.149C161.722 499.454 161.976 499.85 162.162 500.337C162.347 500.821 162.44 501.41 162.44 502.102V502.629H156.37V501.516H160.983C160.983 501.125 160.904 500.778 160.745 500.477C160.586 500.172 160.362 499.931 160.074 499.756C159.789 499.58 159.454 499.492 159.069 499.492C158.652 499.492 158.287 499.595 157.976 499.8C157.667 500.003 157.429 500.268 157.26 500.596C157.094 500.921 157.011 501.274 157.011 501.655V502.525C157.011 503.035 157.101 503.469 157.28 503.827C157.462 504.185 157.715 504.459 158.04 504.648C158.365 504.833 158.744 504.926 159.179 504.926C159.46 504.926 159.717 504.886 159.949 504.807C160.181 504.724 160.382 504.601 160.551 504.439C160.72 504.277 160.849 504.076 160.939 503.837L162.346 504.091C162.233 504.505 162.031 504.868 161.739 505.18C161.451 505.488 161.088 505.728 160.65 505.901C160.216 506.07 159.721 506.154 159.164 506.154ZM166.808 506.149C166.192 506.149 165.641 505.992 165.157 505.677C164.677 505.359 164.299 504.906 164.024 504.32C163.752 503.73 163.616 503.022 163.616 502.197C163.616 501.371 163.754 500.665 164.029 500.079C164.307 499.492 164.688 499.043 165.172 498.732C165.656 498.42 166.205 498.264 166.818 498.264C167.292 498.264 167.673 498.344 167.961 498.503C168.253 498.659 168.478 498.841 168.638 499.05C168.8 499.259 168.926 499.442 169.015 499.602H169.105V495.818H170.591V506H169.14V504.812H169.015C168.926 504.974 168.797 505.16 168.628 505.369C168.462 505.577 168.233 505.76 167.942 505.915C167.65 506.071 167.272 506.149 166.808 506.149ZM167.136 504.881C167.564 504.881 167.925 504.769 168.22 504.543C168.518 504.315 168.744 503.998 168.896 503.594C169.052 503.189 169.13 502.719 169.13 502.182C169.13 501.652 169.054 501.187 168.901 500.79C168.749 500.392 168.525 500.082 168.23 499.86C167.935 499.638 167.57 499.527 167.136 499.527C166.689 499.527 166.316 499.643 166.018 499.875C165.719 500.107 165.494 500.424 165.341 500.825C165.192 501.226 165.118 501.678 165.118 502.182C165.118 502.692 165.194 503.151 165.346 503.559C165.499 503.967 165.724 504.29 166.023 504.528C166.324 504.764 166.695 504.881 167.136 504.881Z" fill="white"/>
<rect x="248.5" y="475.5" width="207" height="87" rx="11.5" fill="#212530" stroke="#333948"/>
<path d="M266.655 495.818V506H265.119V495.818H266.655ZM268.633 506V498.364H270.06V499.607H270.154C270.313 499.186 270.573 498.857 270.935 498.622C271.296 498.384 271.728 498.264 272.232 498.264C272.743 498.264 273.17 498.384 273.515 498.622C273.863 498.861 274.12 499.189 274.285 499.607H274.365C274.547 499.199 274.837 498.874 275.235 498.632C275.633 498.387 276.107 498.264 276.657 498.264C277.35 498.264 277.915 498.481 278.352 498.915C278.793 499.35 279.013 500.004 279.013 500.879V506H277.527V501.018C277.527 500.501 277.386 500.127 277.104 499.895C276.823 499.663 276.486 499.547 276.095 499.547C275.611 499.547 275.235 499.696 274.967 499.994C274.698 500.289 274.564 500.669 274.564 501.133V506H273.082V500.924C273.082 500.51 272.953 500.177 272.695 499.925C272.436 499.673 272.1 499.547 271.685 499.547C271.404 499.547 271.143 499.621 270.905 499.771C270.669 499.916 270.479 500.12 270.333 500.382C270.19 500.644 270.119 500.947 270.119 501.292V506H268.633ZM280.866 508.864V498.364H282.317V499.602H282.442C282.528 499.442 282.652 499.259 282.815 499.05C282.977 498.841 283.202 498.659 283.491 498.503C283.779 498.344 284.16 498.264 284.634 498.264C285.251 498.264 285.801 498.42 286.285 498.732C286.769 499.043 287.148 499.492 287.423 500.079C287.702 500.665 287.841 501.371 287.841 502.197C287.841 503.022 287.703 503.73 287.428 504.32C287.153 504.906 286.775 505.359 286.295 505.677C285.814 505.992 285.266 506.149 284.649 506.149C284.185 506.149 283.806 506.071 283.511 505.915C283.219 505.76 282.99 505.577 282.825 505.369C282.659 505.16 282.531 504.974 282.442 504.812H282.352V508.864H280.866ZM282.322 502.182C282.322 502.719 282.4 503.189 282.556 503.594C282.712 503.998 282.937 504.315 283.232 504.543C283.527 504.769 283.889 504.881 284.316 504.881C284.76 504.881 285.131 504.764 285.43 504.528C285.728 504.29 285.953 503.967 286.106 503.559C286.262 503.151 286.339 502.692 286.339 502.182C286.339 501.678 286.263 501.226 286.111 500.825C285.962 500.424 285.736 500.107 285.435 499.875C285.136 499.643 284.764 499.527 284.316 499.527C283.885 499.527 283.521 499.638 283.222 499.86C282.927 500.082 282.704 500.392 282.551 500.79C282.399 501.187 282.322 501.652 282.322 502.182ZM291.589 506.169C291.105 506.169 290.667 506.08 290.276 505.901C289.885 505.718 289.575 505.455 289.347 505.11C289.121 504.765 289.008 504.343 289.008 503.842C289.008 503.411 289.091 503.057 289.257 502.778C289.423 502.5 289.646 502.28 289.928 502.117C290.21 501.955 290.525 501.832 290.873 501.749C291.221 501.666 291.575 501.603 291.937 501.56C292.394 501.507 292.765 501.464 293.05 501.431C293.335 501.395 293.543 501.337 293.672 501.257C293.801 501.178 293.866 501.048 293.866 500.869V500.835C293.866 500.4 293.743 500.064 293.498 499.825C293.256 499.587 292.895 499.467 292.414 499.467C291.914 499.467 291.519 499.578 291.231 499.8C290.946 500.019 290.749 500.263 290.639 500.531L289.242 500.213C289.408 499.749 289.65 499.375 289.968 499.089C290.289 498.801 290.659 498.592 291.077 498.463C291.494 498.33 291.933 498.264 292.394 498.264C292.699 498.264 293.022 498.301 293.364 498.374C293.708 498.443 294.03 498.572 294.328 498.761C294.63 498.95 294.877 499.22 295.069 499.572C295.261 499.92 295.357 500.372 295.357 500.929V506H293.905V504.956H293.846C293.75 505.148 293.606 505.337 293.413 505.523C293.221 505.708 292.974 505.862 292.673 505.985C292.371 506.108 292.01 506.169 291.589 506.169ZM291.912 504.976C292.323 504.976 292.674 504.895 292.966 504.732C293.261 504.57 293.485 504.358 293.637 504.096C293.793 503.831 293.871 503.547 293.871 503.246V502.261C293.818 502.314 293.715 502.364 293.562 502.411C293.413 502.454 293.243 502.492 293.05 502.525C292.858 502.555 292.671 502.583 292.489 502.609C292.306 502.633 292.154 502.652 292.031 502.669C291.743 502.705 291.479 502.767 291.241 502.853C291.005 502.939 290.816 503.063 290.674 503.226C290.535 503.385 290.465 503.597 290.465 503.862C290.465 504.23 290.601 504.509 290.873 504.697C291.145 504.883 291.491 504.976 291.912 504.976ZM300.414 506.154C299.675 506.154 299.038 505.987 298.505 505.652C297.974 505.314 297.567 504.848 297.282 504.255C296.997 503.662 296.854 502.982 296.854 502.217C296.854 501.441 297 500.757 297.292 500.163C297.583 499.567 297.994 499.101 298.525 498.766C299.055 498.432 299.68 498.264 300.399 498.264C300.979 498.264 301.496 498.372 301.95 498.587C302.404 498.799 302.77 499.098 303.049 499.482C303.33 499.867 303.498 500.316 303.551 500.83H302.104C302.025 500.472 301.842 500.163 301.557 499.905C301.275 499.646 300.898 499.517 300.424 499.517C300.009 499.517 299.646 499.626 299.335 499.845C299.027 500.061 298.786 500.369 298.614 500.77C298.442 501.168 298.355 501.638 298.355 502.182C298.355 502.739 298.44 503.219 298.609 503.624C298.778 504.028 299.017 504.341 299.325 504.563C299.636 504.785 300.003 504.896 300.424 504.896C300.705 504.896 300.961 504.845 301.189 504.742C301.421 504.636 301.615 504.485 301.771 504.29C301.93 504.094 302.041 503.859 302.104 503.584H303.551C303.498 504.078 303.337 504.518 303.069 504.906C302.8 505.294 302.44 505.599 301.99 505.821C301.542 506.043 301.017 506.154 300.414 506.154ZM308.565 498.364V499.557H304.394V498.364H308.565ZM305.513 496.534H306.999V503.758C306.999 504.046 307.042 504.263 307.128 504.409C307.214 504.552 307.326 504.649 307.461 504.702C307.601 504.752 307.751 504.777 307.914 504.777C308.033 504.777 308.138 504.769 308.227 504.752C308.317 504.736 308.386 504.722 308.436 504.712L308.704 505.94C308.618 505.973 308.495 506.007 308.336 506.04C308.177 506.076 307.978 506.096 307.74 506.099C307.349 506.106 306.984 506.036 306.646 505.891C306.308 505.745 306.035 505.519 305.826 505.214C305.617 504.91 305.513 504.527 305.513 504.066V496.534ZM313.279 506.154C312.526 506.154 311.878 505.993 311.335 505.672C310.794 505.347 310.377 504.891 310.082 504.305C309.79 503.715 309.644 503.024 309.644 502.232C309.644 501.449 309.79 500.76 310.082 500.163C310.377 499.567 310.788 499.101 311.315 498.766C311.845 498.432 312.465 498.264 313.174 498.264C313.605 498.264 314.023 498.335 314.427 498.478C314.831 498.621 315.194 498.844 315.516 499.149C315.837 499.454 316.091 499.85 316.276 500.337C316.462 500.821 316.555 501.41 316.555 502.102V502.629H310.485V501.516H315.098C315.098 501.125 315.019 500.778 314.86 500.477C314.7 500.172 314.477 499.931 314.188 499.756C313.903 499.58 313.569 499.492 313.184 499.492C312.767 499.492 312.402 499.595 312.09 499.8C311.782 500.003 311.544 500.268 311.374 500.596C311.209 500.921 311.126 501.274 311.126 501.655V502.525C311.126 503.035 311.215 503.469 311.394 503.827C311.577 504.185 311.83 504.459 312.155 504.648C312.48 504.833 312.859 504.926 313.294 504.926C313.575 504.926 313.832 504.886 314.064 504.807C314.296 504.724 314.497 504.601 314.666 504.439C314.835 504.277 314.964 504.076 315.053 503.837L316.46 504.091C316.348 504.505 316.146 504.868 315.854 505.18C315.566 505.488 315.203 505.728 314.765 505.901C314.331 506.07 313.835 506.154 313.279 506.154ZM320.923 506.149C320.306 506.149 319.756 505.992 319.272 505.677C318.792 505.359 318.414 504.906 318.139 504.32C317.867 503.73 317.731 503.022 317.731 502.197C317.731 501.371 317.869 500.665 318.144 500.079C318.422 499.492 318.803 499.043 319.287 498.732C319.771 498.42 320.32 498.264 320.933 498.264C321.407 498.264 321.788 498.344 322.076 498.503C322.368 498.659 322.593 498.841 322.752 499.05C322.915 499.259 323.041 499.442 323.13 499.602H323.22V495.818H324.706V506H323.255V504.812H323.13C323.041 504.974 322.912 505.16 322.742 505.369C322.577 505.577 322.348 505.76 322.056 505.915C321.765 506.071 321.387 506.149 320.923 506.149ZM321.251 504.881C321.679 504.881 322.04 504.769 322.335 504.543C322.633 504.315 322.858 503.998 323.011 503.594C323.167 503.189 323.245 502.719 323.245 502.182C323.245 501.652 323.168 501.187 323.016 500.79C322.863 500.392 322.64 500.082 322.345 499.86C322.05 499.638 321.685 499.527 321.251 499.527C320.804 499.527 320.431 499.643 320.132 499.875C319.834 500.107 319.609 500.424 319.456 500.825C319.307 501.226 319.233 501.678 319.233 502.182C319.233 502.692 319.309 503.151 319.461 503.559C319.614 503.967 319.839 504.29 320.137 504.528C320.439 504.764 320.81 504.881 321.251 504.881ZM335.975 500.228L334.628 500.467C334.572 500.294 334.482 500.13 334.359 499.974C334.24 499.819 334.078 499.691 333.872 499.592C333.667 499.492 333.41 499.442 333.102 499.442C332.681 499.442 332.329 499.537 332.048 499.726C331.766 499.911 331.625 500.152 331.625 500.447C331.625 500.702 331.72 500.907 331.908 501.063C332.097 501.219 332.402 501.347 332.823 501.446L334.036 501.724C334.739 501.887 335.263 502.137 335.607 502.475C335.952 502.813 336.124 503.252 336.124 503.793C336.124 504.25 335.992 504.658 335.727 505.016C335.465 505.37 335.099 505.649 334.628 505.851C334.161 506.053 333.619 506.154 333.002 506.154C332.147 506.154 331.449 505.972 330.909 505.607C330.369 505.239 330.038 504.717 329.915 504.041L331.352 503.822C331.441 504.197 331.625 504.48 331.904 504.673C332.182 504.862 332.545 504.956 332.992 504.956C333.48 504.956 333.869 504.855 334.161 504.653C334.452 504.447 334.598 504.197 334.598 503.902C334.598 503.663 334.509 503.463 334.33 503.3C334.154 503.138 333.884 503.015 333.519 502.933L332.227 502.649C331.514 502.487 330.987 502.228 330.646 501.874C330.308 501.519 330.139 501.07 330.139 500.526C330.139 500.076 330.265 499.681 330.516 499.343C330.768 499.005 331.116 498.741 331.56 498.553C332.005 498.36 332.513 498.264 333.087 498.264C333.912 498.264 334.562 498.443 335.036 498.801C335.51 499.156 335.823 499.631 335.975 500.228ZM341.183 498.364V499.557H337.012V498.364H341.183ZM338.131 496.534H339.617V503.758C339.617 504.046 339.66 504.263 339.747 504.409C339.833 504.552 339.944 504.649 340.08 504.702C340.219 504.752 340.37 504.777 340.532 504.777C340.651 504.777 340.756 504.769 340.845 504.752C340.935 504.736 341.004 504.722 341.054 504.712L341.323 505.94C341.236 505.973 341.114 506.007 340.955 506.04C340.796 506.076 340.597 506.096 340.358 506.099C339.967 506.106 339.602 506.036 339.264 505.891C338.926 505.745 338.653 505.519 338.444 505.214C338.235 504.91 338.131 504.527 338.131 504.066V496.534ZM344.91 506.169C344.426 506.169 343.989 506.08 343.598 505.901C343.207 505.718 342.897 505.455 342.668 505.11C342.443 504.765 342.33 504.343 342.33 503.842C342.33 503.411 342.413 503.057 342.578 502.778C342.744 502.5 342.968 502.28 343.25 502.117C343.531 501.955 343.846 501.832 344.194 501.749C344.542 501.666 344.897 501.603 345.258 501.56C345.716 501.507 346.087 501.464 346.372 501.431C346.657 501.395 346.864 501.337 346.993 501.257C347.122 501.178 347.187 501.048 347.187 500.869V500.835C347.187 500.4 347.064 500.064 346.819 499.825C346.577 499.587 346.216 499.467 345.735 499.467C345.235 499.467 344.841 499.578 344.552 499.8C344.267 500.019 344.07 500.263 343.961 500.531L342.564 500.213C342.729 499.749 342.971 499.375 343.289 499.089C343.611 498.801 343.98 498.592 344.398 498.463C344.816 498.33 345.255 498.264 345.716 498.264C346.02 498.264 346.344 498.301 346.685 498.374C347.03 498.443 347.351 498.572 347.649 498.761C347.951 498.95 348.198 499.22 348.39 499.572C348.582 499.92 348.679 500.372 348.679 500.929V506H347.227V504.956H347.167C347.071 505.148 346.927 505.337 346.735 505.523C346.542 505.708 346.296 505.862 345.994 505.985C345.692 506.108 345.331 506.169 344.91 506.169ZM345.233 504.976C345.644 504.976 345.996 504.895 346.287 504.732C346.582 504.57 346.806 504.358 346.958 504.096C347.114 503.831 347.192 503.547 347.192 503.246V502.261C347.139 502.314 347.036 502.364 346.884 502.411C346.735 502.454 346.564 502.492 346.372 502.525C346.18 502.555 345.992 502.583 345.81 502.609C345.628 502.633 345.475 502.652 345.353 502.669C345.064 502.705 344.801 502.767 344.562 502.853C344.327 502.939 344.138 503.063 343.995 503.226C343.856 503.385 343.787 503.597 343.787 503.862C343.787 504.23 343.922 504.509 344.194 504.697C344.466 504.883 344.812 504.976 345.233 504.976ZM353.735 506.154C352.996 506.154 352.36 505.987 351.826 505.652C351.296 505.314 350.888 504.848 350.603 504.255C350.318 503.662 350.175 502.982 350.175 502.217C350.175 501.441 350.321 500.757 350.613 500.163C350.905 499.567 351.316 499.101 351.846 498.766C352.376 498.432 353.001 498.264 353.72 498.264C354.3 498.264 354.817 498.372 355.271 498.587C355.725 498.799 356.092 499.098 356.37 499.482C356.652 499.867 356.819 500.316 356.872 500.83H355.425C355.346 500.472 355.164 500.163 354.879 499.905C354.597 499.646 354.219 499.517 353.745 499.517C353.331 499.517 352.968 499.626 352.656 499.845C352.348 500.061 352.108 500.369 351.935 500.77C351.763 501.168 351.677 501.638 351.677 502.182C351.677 502.739 351.761 503.219 351.93 503.624C352.099 504.028 352.338 504.341 352.646 504.563C352.958 504.785 353.324 504.896 353.745 504.896C354.027 504.896 354.282 504.845 354.511 504.742C354.743 504.636 354.937 504.485 355.092 504.29C355.251 504.094 355.362 503.859 355.425 503.584H356.872C356.819 504.078 356.658 504.518 356.39 504.906C356.121 505.294 355.762 505.599 355.311 505.821C354.864 506.043 354.338 506.154 353.735 506.154ZM359.689 503.41L359.679 501.595H359.938L362.98 498.364H364.76L361.29 502.043H361.056L359.689 503.41ZM358.322 506V495.818H359.808V506H358.322ZM363.144 506L360.41 502.371L361.434 501.332L364.969 506H363.144ZM371.697 500.228L370.35 500.467C370.293 500.294 370.204 500.13 370.081 499.974C369.962 499.819 369.8 499.691 369.594 499.592C369.389 499.492 369.132 499.442 368.824 499.442C368.403 499.442 368.051 499.537 367.77 499.726C367.488 499.911 367.347 500.152 367.347 500.447C367.347 500.702 367.441 500.907 367.63 501.063C367.819 501.219 368.124 501.347 368.545 501.446L369.758 501.724C370.461 501.887 370.985 502.137 371.329 502.475C371.674 502.813 371.846 503.252 371.846 503.793C371.846 504.25 371.714 504.658 371.449 505.016C371.187 505.37 370.82 505.649 370.35 505.851C369.883 506.053 369.341 506.154 368.724 506.154C367.869 506.154 367.171 505.972 366.631 505.607C366.091 505.239 365.759 504.717 365.637 504.041L367.074 503.822C367.163 504.197 367.347 504.48 367.625 504.673C367.904 504.862 368.267 504.956 368.714 504.956C369.201 504.956 369.591 504.855 369.883 504.653C370.174 504.447 370.32 504.197 370.32 503.902C370.32 503.663 370.231 503.463 370.052 503.3C369.876 503.138 369.606 503.015 369.241 502.933L367.949 502.649C367.236 502.487 366.709 502.228 366.368 501.874C366.03 501.519 365.86 501.07 365.86 500.526C365.86 500.076 365.986 499.681 366.238 499.343C366.49 499.005 366.838 498.741 367.282 498.553C367.726 498.36 368.235 498.264 368.809 498.264C369.634 498.264 370.284 498.443 370.758 498.801C371.231 499.156 371.545 499.631 371.697 500.228Z" fill="white"/>
<rect x="472.5" y="475.5" width="207" height="87" rx="11.5" fill="#212530" stroke="#333948"/>
<path d="M497.963 500.909C497.963 501.996 497.764 502.931 497.366 503.713C496.969 504.492 496.424 505.092 495.731 505.513C495.041 505.93 494.258 506.139 493.379 506.139C492.498 506.139 491.71 505.93 491.018 505.513C490.328 505.092 489.785 504.49 489.387 503.708C488.989 502.926 488.79 501.993 488.79 500.909C488.79 499.822 488.989 498.889 489.387 498.11C489.785 497.328 490.328 496.728 491.018 496.31C491.71 495.889 492.498 495.679 493.379 495.679C494.258 495.679 495.041 495.889 495.731 496.31C496.424 496.728 496.969 497.328 497.366 498.11C497.764 498.889 497.963 499.822 497.963 500.909ZM496.442 500.909C496.442 500.08 496.308 499.383 496.039 498.816C495.774 498.246 495.409 497.815 494.945 497.523C494.485 497.228 493.963 497.081 493.379 497.081C492.793 497.081 492.269 497.228 491.808 497.523C491.348 497.815 490.983 498.246 490.714 498.816C490.449 499.383 490.317 500.08 490.317 500.909C490.317 501.738 490.449 502.437 490.714 503.007C490.983 503.574 491.348 504.005 491.808 504.3C492.269 504.591 492.793 504.737 493.379 504.737C493.963 504.737 494.485 504.591 494.945 504.3C495.409 504.005 495.774 503.574 496.039 503.007C496.308 502.437 496.442 501.738 496.442 500.909ZM501.106 501.466V506H499.619V498.364H501.046V499.607H501.14C501.316 499.202 501.591 498.877 501.966 498.632C502.343 498.387 502.819 498.264 503.392 498.264C503.913 498.264 504.369 498.374 504.76 498.592C505.151 498.808 505.454 499.129 505.669 499.557C505.885 499.984 505.993 500.513 505.993 501.143V506H504.506V501.322C504.506 500.768 504.362 500.336 504.074 500.024C503.785 499.709 503.389 499.552 502.885 499.552C502.541 499.552 502.234 499.626 501.966 499.776C501.7 499.925 501.49 500.143 501.334 500.432C501.182 500.717 501.106 501.062 501.106 501.466ZM511.048 509.023C510.441 509.023 509.919 508.943 509.482 508.784C509.048 508.625 508.693 508.415 508.418 508.153C508.143 507.891 507.937 507.604 507.801 507.293L509.079 506.766C509.169 506.911 509.288 507.066 509.437 507.228C509.59 507.394 509.795 507.535 510.054 507.651C510.315 507.767 510.652 507.825 511.063 507.825C511.626 507.825 512.092 507.687 512.46 507.412C512.828 507.14 513.012 506.706 513.012 506.109V504.608H512.917C512.828 504.77 512.699 504.951 512.529 505.15C512.364 505.349 512.135 505.521 511.843 505.667C511.552 505.813 511.172 505.886 510.705 505.886C510.102 505.886 509.558 505.745 509.074 505.463C508.594 505.178 508.212 504.759 507.931 504.205C507.652 503.648 507.513 502.964 507.513 502.152C507.513 501.34 507.651 500.644 507.926 500.064C508.204 499.484 508.585 499.04 509.069 498.732C509.553 498.42 510.102 498.264 510.715 498.264C511.189 498.264 511.572 498.344 511.863 498.503C512.155 498.659 512.382 498.841 512.544 499.05C512.71 499.259 512.838 499.442 512.927 499.602H513.037V498.364H514.493V506.169C514.493 506.825 514.341 507.364 514.036 507.785C513.731 508.206 513.318 508.517 512.798 508.719C512.281 508.922 511.698 509.023 511.048 509.023ZM511.033 504.653C511.461 504.653 511.822 504.553 512.117 504.354C512.415 504.152 512.641 503.864 512.793 503.489C512.949 503.112 513.027 502.659 513.027 502.132C513.027 501.618 512.95 501.166 512.798 500.775C512.645 500.384 512.422 500.079 512.127 499.86C511.832 499.638 511.467 499.527 511.033 499.527C510.586 499.527 510.213 499.643 509.914 499.875C509.616 500.104 509.391 500.415 509.238 500.81C509.089 501.204 509.015 501.645 509.015 502.132C509.015 502.633 509.091 503.072 509.243 503.45C509.396 503.827 509.621 504.122 509.919 504.335C510.221 504.547 510.592 504.653 511.033 504.653ZM519.563 506.154C518.848 506.154 518.223 505.99 517.689 505.662C517.156 505.334 516.741 504.875 516.446 504.285C516.151 503.695 516.004 503.005 516.004 502.217C516.004 501.424 516.151 500.732 516.446 500.138C516.741 499.545 517.156 499.085 517.689 498.756C518.223 498.428 518.848 498.264 519.563 498.264C520.279 498.264 520.904 498.428 521.438 498.756C521.971 499.085 522.386 499.545 522.681 500.138C522.976 500.732 523.123 501.424 523.123 502.217C523.123 503.005 522.976 503.695 522.681 504.285C522.386 504.875 521.971 505.334 521.438 505.662C520.904 505.99 520.279 506.154 519.563 506.154ZM519.568 504.906C520.032 504.906 520.417 504.784 520.722 504.538C521.027 504.293 521.252 503.967 521.398 503.559C521.547 503.151 521.622 502.702 521.622 502.212C521.622 501.724 521.547 501.277 521.398 500.869C521.252 500.458 521.027 500.129 520.722 499.88C520.417 499.631 520.032 499.507 519.568 499.507C519.101 499.507 518.713 499.631 518.405 499.88C518.1 500.129 517.873 500.458 517.724 500.869C517.578 501.277 517.505 501.724 517.505 502.212C517.505 502.702 517.578 503.151 517.724 503.559C517.873 503.967 518.1 504.293 518.405 504.538C518.713 504.784 519.101 504.906 519.568 504.906ZM524.642 506V498.364H526.129V506H524.642ZM525.393 497.185C525.135 497.185 524.913 497.099 524.727 496.927C524.545 496.751 524.453 496.542 524.453 496.3C524.453 496.055 524.545 495.846 524.727 495.674C524.913 495.498 525.135 495.411 525.393 495.411C525.652 495.411 525.872 495.498 526.054 495.674C526.24 495.846 526.333 496.055 526.333 496.3C526.333 496.542 526.24 496.751 526.054 496.927C525.872 497.099 525.652 497.185 525.393 497.185ZM529.475 501.466V506H527.989V498.364H529.416V499.607H529.51C529.686 499.202 529.961 498.877 530.335 498.632C530.713 498.387 531.189 498.264 531.762 498.264C532.283 498.264 532.738 498.374 533.129 498.592C533.52 498.808 533.824 499.129 534.039 499.557C534.255 499.984 534.362 500.513 534.362 501.143V506H532.876V501.322C532.876 500.768 532.732 500.336 532.443 500.024C532.155 499.709 531.759 499.552 531.255 499.552C530.91 499.552 530.604 499.626 530.335 499.776C530.07 499.925 529.86 500.143 529.704 500.432C529.551 500.717 529.475 501.062 529.475 501.466ZM539.418 509.023C538.811 509.023 538.289 508.943 537.852 508.784C537.417 508.625 537.063 508.415 536.788 508.153C536.513 507.891 536.307 507.604 536.171 507.293L537.449 506.766C537.538 506.911 537.658 507.066 537.807 507.228C537.959 507.394 538.165 507.535 538.423 507.651C538.685 507.767 539.022 507.825 539.433 507.825C539.996 507.825 540.462 507.687 540.83 507.412C541.197 507.14 541.381 506.706 541.381 506.109V504.608H541.287C541.197 504.77 541.068 504.951 540.899 505.15C540.733 505.349 540.505 505.521 540.213 505.667C539.921 505.813 539.542 505.886 539.075 505.886C538.471 505.886 537.928 505.745 537.444 505.463C536.963 505.178 536.582 504.759 536.3 504.205C536.022 503.648 535.883 502.964 535.883 502.152C535.883 501.34 536.02 500.644 536.295 500.064C536.574 499.484 536.955 499.04 537.439 498.732C537.923 498.42 538.471 498.264 539.085 498.264C539.558 498.264 539.941 498.344 540.233 498.503C540.525 498.659 540.752 498.841 540.914 499.05C541.08 499.259 541.207 499.442 541.297 499.602H541.406V498.364H542.863V506.169C542.863 506.825 542.71 507.364 542.406 507.785C542.101 508.206 541.688 508.517 541.168 508.719C540.651 508.922 540.067 509.023 539.418 509.023ZM539.403 504.653C539.83 504.653 540.192 504.553 540.487 504.354C540.785 504.152 541.01 503.864 541.163 503.489C541.318 503.112 541.396 502.659 541.396 502.132C541.396 501.618 541.32 501.166 541.168 500.775C541.015 500.384 540.791 500.079 540.496 499.86C540.201 499.638 539.837 499.527 539.403 499.527C538.955 499.527 538.582 499.643 538.284 499.875C537.986 500.104 537.76 500.415 537.608 500.81C537.459 501.204 537.384 501.645 537.384 502.132C537.384 502.633 537.46 503.072 537.613 503.45C537.765 503.827 537.991 504.122 538.289 504.335C538.591 504.547 538.962 504.653 539.403 504.653ZM548.282 506V498.364H549.718V499.577H549.798C549.937 499.166 550.182 498.843 550.534 498.607C550.888 498.369 551.289 498.249 551.737 498.249C551.83 498.249 551.939 498.253 552.065 498.259C552.194 498.266 552.295 498.274 552.368 498.284V499.706C552.309 499.689 552.203 499.671 552.05 499.651C551.898 499.628 551.745 499.616 551.593 499.616C551.241 499.616 550.928 499.691 550.653 499.84C550.381 499.986 550.166 500.19 550.007 500.452C549.848 500.71 549.768 501.005 549.768 501.337V506H548.282ZM556.532 506.154C555.78 506.154 555.132 505.993 554.589 505.672C554.048 505.347 553.631 504.891 553.336 504.305C553.044 503.715 552.898 503.024 552.898 502.232C552.898 501.449 553.044 500.76 553.336 500.163C553.631 499.567 554.042 499.101 554.569 498.766C555.099 498.432 555.719 498.264 556.428 498.264C556.859 498.264 557.277 498.335 557.681 498.478C558.085 498.621 558.448 498.844 558.77 499.149C559.091 499.454 559.345 499.85 559.53 500.337C559.716 500.821 559.809 501.41 559.809 502.102V502.629H553.738V501.516H558.352C558.352 501.125 558.272 500.778 558.113 500.477C557.954 500.172 557.731 499.931 557.442 499.756C557.157 499.58 556.822 499.492 556.438 499.492C556.02 499.492 555.656 499.595 555.344 499.8C555.036 500.003 554.797 500.268 554.628 500.596C554.463 500.921 554.38 501.274 554.38 501.655V502.525C554.38 503.035 554.469 503.469 554.648 503.827C554.83 504.185 555.084 504.459 555.409 504.648C555.734 504.833 556.113 504.926 556.547 504.926C556.829 504.926 557.086 504.886 557.318 504.807C557.55 504.724 557.75 504.601 557.92 504.439C558.089 504.277 558.218 504.076 558.307 503.837L559.714 504.091C559.602 504.505 559.399 504.868 559.108 505.18C558.819 505.488 558.456 505.728 558.019 505.901C557.585 506.07 557.089 506.154 556.532 506.154ZM563.54 506.169C563.056 506.169 562.619 506.08 562.228 505.901C561.837 505.718 561.527 505.455 561.298 505.11C561.073 504.765 560.96 504.343 560.96 503.842C560.96 503.411 561.043 503.057 561.209 502.778C561.374 502.5 561.598 502.28 561.88 502.117C562.162 501.955 562.476 501.832 562.824 501.749C563.172 501.666 563.527 501.603 563.888 501.56C564.346 501.507 564.717 501.464 565.002 501.431C565.287 501.395 565.494 501.337 565.623 501.257C565.753 501.178 565.817 501.048 565.817 500.869V500.835C565.817 500.4 565.695 500.064 565.449 499.825C565.207 499.587 564.846 499.467 564.366 499.467C563.865 499.467 563.471 499.578 563.182 499.8C562.897 500.019 562.7 500.263 562.591 500.531L561.194 500.213C561.359 499.749 561.601 499.375 561.92 499.089C562.241 498.801 562.611 498.592 563.028 498.463C563.446 498.33 563.885 498.264 564.346 498.264C564.651 498.264 564.974 498.301 565.315 498.374C565.66 498.443 565.981 498.572 566.28 498.761C566.581 498.95 566.828 499.22 567.02 499.572C567.213 499.92 567.309 500.372 567.309 500.929V506H565.857V504.956H565.797C565.701 505.148 565.557 505.337 565.365 505.523C565.173 505.708 564.926 505.862 564.624 505.985C564.323 506.108 563.961 506.169 563.54 506.169ZM563.863 504.976C564.274 504.976 564.626 504.895 564.917 504.732C565.212 504.57 565.436 504.358 565.589 504.096C565.744 503.831 565.822 503.547 565.822 503.246V502.261C565.769 502.314 565.667 502.364 565.514 502.411C565.365 502.454 565.194 502.492 565.002 502.525C564.81 502.555 564.622 502.583 564.44 502.609C564.258 502.633 564.105 502.652 563.983 502.669C563.694 502.705 563.431 502.767 563.192 502.853C562.957 502.939 562.768 503.063 562.626 503.226C562.486 503.385 562.417 503.597 562.417 503.862C562.417 504.23 562.553 504.509 562.824 504.697C563.096 504.883 563.443 504.976 563.863 504.976ZM572.365 506.154C571.626 506.154 570.99 505.987 570.456 505.652C569.926 505.314 569.518 504.848 569.233 504.255C568.948 503.662 568.806 502.982 568.806 502.217C568.806 501.441 568.952 500.757 569.243 500.163C569.535 499.567 569.946 499.101 570.476 498.766C571.006 498.432 571.631 498.264 572.35 498.264C572.93 498.264 573.448 498.372 573.902 498.587C574.356 498.799 574.722 499.098 575 499.482C575.282 499.867 575.449 500.316 575.502 500.83H574.056C573.976 500.472 573.794 500.163 573.509 499.905C573.227 499.646 572.849 499.517 572.375 499.517C571.961 499.517 571.598 499.626 571.287 499.845C570.978 500.061 570.738 500.369 570.566 500.77C570.393 501.168 570.307 501.638 570.307 502.182C570.307 502.739 570.392 503.219 570.561 503.624C570.73 504.028 570.968 504.341 571.277 504.563C571.588 504.785 571.954 504.896 572.375 504.896C572.657 504.896 572.912 504.845 573.141 504.742C573.373 504.636 573.567 504.485 573.723 504.29C573.882 504.094 573.993 503.859 574.056 503.584H575.502C575.449 504.078 575.289 504.518 575.02 504.906C574.752 505.294 574.392 505.599 573.941 505.821C573.494 506.043 572.969 506.154 572.365 506.154ZM580.517 498.364V499.557H576.346V498.364H580.517ZM577.464 496.534H578.951V503.758C578.951 504.046 578.994 504.263 579.08 504.409C579.166 504.552 579.277 504.649 579.413 504.702C579.552 504.752 579.703 504.777 579.865 504.777C579.985 504.777 580.089 504.769 580.179 504.752C580.268 504.736 580.338 504.722 580.387 504.712L580.656 505.94C580.57 505.973 580.447 506.007 580.288 506.04C580.129 506.076 579.93 506.096 579.691 506.099C579.3 506.106 578.936 506.036 578.598 505.891C578.26 505.745 577.986 505.519 577.777 505.214C577.569 504.91 577.464 504.527 577.464 504.066V496.534ZM582.021 506V498.364H583.508V506H582.021ZM582.772 497.185C582.513 497.185 582.291 497.099 582.106 496.927C581.923 496.751 581.832 496.542 581.832 496.3C581.832 496.055 581.923 495.846 582.106 495.674C582.291 495.498 582.513 495.411 582.772 495.411C583.03 495.411 583.251 495.498 583.433 495.674C583.619 495.846 583.711 496.055 583.711 496.3C583.711 496.542 583.619 496.751 583.433 496.927C583.251 497.099 583.03 497.185 582.772 497.185ZM591.9 498.364L589.131 506H587.54L584.766 498.364H586.362L588.296 504.24H588.375L590.304 498.364H591.9ZM596.189 506.154C595.436 506.154 594.788 505.993 594.245 505.672C593.704 505.347 593.287 504.891 592.992 504.305C592.7 503.715 592.554 503.024 592.554 502.232C592.554 501.449 592.7 500.76 592.992 500.163C593.287 499.567 593.698 499.101 594.225 498.766C594.755 498.432 595.375 498.264 596.084 498.264C596.515 498.264 596.933 498.335 597.337 498.478C597.741 498.621 598.104 498.844 598.426 499.149C598.747 499.454 599.001 499.85 599.186 500.337C599.372 500.821 599.465 501.41 599.465 502.102V502.629H593.394V501.516H598.008C598.008 501.125 597.929 500.778 597.769 500.477C597.61 500.172 597.387 499.931 597.098 499.756C596.813 499.58 596.479 499.492 596.094 499.492C595.676 499.492 595.312 499.595 595 499.8C594.692 500.003 594.453 500.268 594.284 500.596C594.119 500.921 594.036 501.274 594.036 501.655V502.525C594.036 503.035 594.125 503.469 594.304 503.827C594.487 504.185 594.74 504.459 595.065 504.648C595.39 504.833 595.769 504.926 596.203 504.926C596.485 504.926 596.742 504.886 596.974 504.807C597.206 504.724 597.407 504.601 597.576 504.439C597.745 504.277 597.874 504.076 597.963 503.837L599.37 504.091C599.258 504.505 599.055 504.868 598.764 505.18C598.475 505.488 598.113 505.728 597.675 505.901C597.241 506.07 596.745 506.154 596.189 506.154ZM604.539 506V498.364H606.026V506H604.539ZM605.29 497.185C605.031 497.185 604.809 497.099 604.624 496.927C604.441 496.751 604.35 496.542 604.35 496.3C604.35 496.055 604.441 495.846 604.624 495.674C604.809 495.498 605.031 495.411 605.29 495.411C605.548 495.411 605.769 495.498 605.951 495.674C606.137 495.846 606.23 496.055 606.23 496.3C606.23 496.542 606.137 496.751 605.951 496.927C605.769 497.099 605.548 497.185 605.29 497.185ZM609.372 501.466V506H607.886V498.364H609.312V499.607H609.407C609.583 499.202 609.858 498.877 610.232 498.632C610.61 498.387 611.086 498.264 611.659 498.264C612.179 498.264 612.635 498.374 613.026 498.592C613.417 498.808 613.721 499.129 613.936 499.557C614.151 499.984 614.259 500.513 614.259 501.143V506H612.773V501.322C612.773 500.768 612.628 500.336 612.34 500.024C612.052 499.709 611.656 499.552 611.152 499.552C610.807 499.552 610.501 499.626 610.232 499.776C609.967 499.925 609.757 500.143 609.601 500.432C609.448 500.717 609.372 501.062 609.372 501.466ZM621.835 500.228L620.488 500.467C620.431 500.294 620.342 500.13 620.219 499.974C620.1 499.819 619.938 499.691 619.732 499.592C619.527 499.492 619.27 499.442 618.961 499.442C618.541 499.442 618.189 499.537 617.907 499.726C617.626 499.911 617.485 500.152 617.485 500.447C617.485 500.702 617.579 500.907 617.768 501.063C617.957 501.219 618.262 501.347 618.683 501.446L619.896 501.724C620.599 501.887 621.122 502.137 621.467 502.475C621.812 502.813 621.984 503.252 621.984 503.793C621.984 504.25 621.852 504.658 621.586 505.016C621.325 505.37 620.958 505.649 620.488 505.851C620.02 506.053 619.478 506.154 618.862 506.154C618.007 506.154 617.309 505.972 616.769 505.607C616.229 505.239 615.897 504.717 615.775 504.041L617.211 503.822C617.301 504.197 617.485 504.48 617.763 504.673C618.042 504.862 618.405 504.956 618.852 504.956C619.339 504.956 619.729 504.855 620.02 504.653C620.312 504.447 620.458 504.197 620.458 503.902C620.458 503.663 620.368 503.463 620.189 503.3C620.014 503.138 619.744 503.015 619.379 502.933L618.086 502.649C617.374 502.487 616.847 502.228 616.505 501.874C616.167 501.519 615.998 501.07 615.998 500.526C615.998 500.076 616.124 499.681 616.376 499.343C616.628 499.005 616.976 498.741 617.42 498.553C617.864 498.36 618.373 498.264 618.947 498.264C619.772 498.264 620.421 498.443 620.895 498.801C621.369 499.156 621.683 499.631 621.835 500.228ZM623.479 506V498.364H624.965V506H623.479ZM624.229 497.185C623.971 497.185 623.749 497.099 623.563 496.927C623.381 496.751 623.29 496.542 623.29 496.3C623.29 496.055 623.381 495.846 623.563 495.674C623.749 495.498 623.971 495.411 624.229 495.411C624.488 495.411 624.708 495.498 624.891 495.674C625.076 495.846 625.169 496.055 625.169 496.3C625.169 496.542 625.076 496.751 624.891 496.927C624.708 497.099 624.488 497.185 624.229 497.185ZM630.027 509.023C629.42 509.023 628.898 508.943 628.461 508.784C628.026 508.625 627.672 508.415 627.397 508.153C627.122 507.891 626.916 507.604 626.78 507.293L628.058 506.766C628.147 506.911 628.267 507.066 628.416 507.228C628.568 507.394 628.774 507.535 629.032 507.651C629.294 507.767 629.631 507.825 630.042 507.825C630.605 507.825 631.071 507.687 631.439 507.412C631.806 507.14 631.99 506.706 631.99 506.109V504.608H631.896C631.806 504.77 631.677 504.951 631.508 505.15C631.342 505.349 631.114 505.521 630.822 505.667C630.53 505.813 630.151 505.886 629.684 505.886C629.08 505.886 628.537 505.745 628.053 505.463C627.572 505.178 627.191 504.759 626.909 504.205C626.631 503.648 626.492 502.964 626.492 502.152C626.492 501.34 626.629 500.644 626.904 500.064C627.183 499.484 627.564 499.04 628.048 498.732C628.532 498.42 629.08 498.264 629.694 498.264C630.167 498.264 630.55 498.344 630.842 498.503C631.134 498.659 631.361 498.841 631.523 499.05C631.689 499.259 631.816 499.442 631.906 499.602H632.015V498.364H633.472V506.169C633.472 506.825 633.319 507.364 633.015 507.785C632.71 508.206 632.297 508.517 631.777 508.719C631.26 508.922 630.676 509.023 630.027 509.023ZM630.012 504.653C630.439 504.653 630.801 504.553 631.096 504.354C631.394 504.152 631.619 503.864 631.772 503.489C631.927 503.112 632.005 502.659 632.005 502.132C632.005 501.618 631.929 501.166 631.777 500.775C631.624 500.384 631.4 500.079 631.105 499.86C630.81 499.638 630.446 499.527 630.012 499.527C629.564 499.527 629.191 499.643 628.893 499.875C628.595 500.104 628.369 500.415 628.217 500.81C628.068 501.204 627.993 501.645 627.993 502.132C627.993 502.633 628.069 503.072 628.222 503.45C628.374 503.827 628.6 504.122 628.898 504.335C629.2 504.547 629.571 504.653 630.012 504.653ZM636.812 501.466V506H635.326V495.818H636.792V499.607H636.887C637.066 499.196 637.339 498.869 637.707 498.627C638.075 498.385 638.555 498.264 639.149 498.264C639.672 498.264 640.13 498.372 640.521 498.587C640.915 498.803 641.22 499.124 641.436 499.552C641.654 499.976 641.764 500.506 641.764 501.143V506H640.277V501.322C640.277 500.762 640.133 500.327 639.845 500.019C639.556 499.708 639.155 499.552 638.642 499.552C638.29 499.552 637.975 499.626 637.697 499.776C637.422 499.925 637.205 500.143 637.046 500.432C636.89 500.717 636.812 501.062 636.812 501.466ZM647.172 498.364V499.557H643.001V498.364H647.172ZM644.119 496.534H645.606V503.758C645.606 504.046 645.649 504.263 645.735 504.409C645.821 504.552 645.932 504.649 646.068 504.702C646.208 504.752 646.358 504.777 646.521 504.777C646.64 504.777 646.744 504.769 646.834 504.752C646.923 504.736 646.993 504.722 647.043 504.712L647.311 505.94C647.225 505.973 647.102 506.007 646.943 506.04C646.784 506.076 646.585 506.096 646.347 506.099C645.956 506.106 645.591 506.036 645.253 505.891C644.915 505.745 644.642 505.519 644.433 505.214C644.224 504.91 644.119 504.527 644.119 504.066V496.534ZM654.276 500.228L652.928 500.467C652.872 500.294 652.783 500.13 652.66 499.974C652.541 499.819 652.378 499.691 652.173 499.592C651.967 499.492 651.71 499.442 651.402 499.442C650.981 499.442 650.63 499.537 650.348 499.726C650.066 499.911 649.926 500.152 649.926 500.447C649.926 500.702 650.02 500.907 650.209 501.063C650.398 501.219 650.703 501.347 651.124 501.446L652.337 501.724C653.039 501.887 653.563 502.137 653.908 502.475C654.252 502.813 654.425 503.252 654.425 503.793C654.425 504.25 654.292 504.658 654.027 505.016C653.765 505.37 653.399 505.649 652.928 505.851C652.461 506.053 651.919 506.154 651.303 506.154C650.448 506.154 649.75 505.972 649.21 505.607C648.669 505.239 648.338 504.717 648.215 504.041L649.652 503.822C649.742 504.197 649.926 504.48 650.204 504.673C650.482 504.862 650.845 504.956 651.293 504.956C651.78 504.956 652.169 504.855 652.461 504.653C652.753 504.447 652.899 504.197 652.899 503.902C652.899 503.663 652.809 503.463 652.63 503.3C652.454 503.138 652.184 503.015 651.82 502.933L650.527 502.649C649.814 502.487 649.287 502.228 648.946 501.874C648.608 501.519 648.439 501.07 648.439 500.526C648.439 500.076 648.565 499.681 648.817 499.343C649.069 499.005 649.417 498.741 649.861 498.553C650.305 498.36 650.814 498.264 651.387 498.264C652.212 498.264 652.862 498.443 653.336 498.801C653.81 499.156 654.123 499.631 654.276 500.228Z" fill="white"/>
</g>
<defs>
<linearGradient id="paint0_linear_1011_2848" x1="154" y1="179.452" x2="154" y2="443" gradientUnits="userSpaceOnUse">
<stop stop-color="#57CBEF" stop-opacity="0.3"/>
<stop offset="1" stop-color="#57CBEF" stop-opacity="0"/>
</linearGradient>
<linearGradient id="paint1_linear_1011_2848" x1="438" y1="242" x2="438" y2="441.5" gradientUnits="userSpaceOnUse">
<stop stop-color="#EE446D" stop-opacity="0.3"/>
<stop offset="1" stop-color="#EE446D" stop-opacity="0"/>
</linearGradient>
<clipPath id="clip0_1011_2848">
<rect width="592" height="526" rx="16" fill="white"/>
</clipPath>
</defs>
</svg>
