<svg width="380" height="352" viewBox="0 0 380 352" fill="none" xmlns="http://www.w3.org/2000/svg">
<path d="M138 124H110C103.373 124 98 118.627 98 112V0" stroke="#323849" stroke-width="2"/>
<path d="M138 220H110C103.373 220 98 214.627 98 208V172C98 165.373 92.6274 160 86 160H48" stroke="#323849" stroke-width="2"/>
<rect x="138.75" y="184.75" width="248.5" height="70.5" rx="11.25" fill="#212530" stroke="#323849" stroke-width="1.5"/>
<circle cx="305" cy="219.125" r="7" fill="#424A61"/>
<circle cx="331" cy="219.125" r="7" fill="#323849"/>
<circle cx="357" cy="219.125" r="7" fill="#323849"/>
<rect x="162" y="206.5" width="112" height="6.75" rx="2" fill="#323849"/>
<rect x="162" y="226.75" width="112" height="6.75" rx="2" fill="#323849"/>
<rect x="138.75" y="88.75" width="248.5" height="70.5" rx="11.25" fill="#212530" stroke="#323849" stroke-width="1.5"/>
<circle cx="305" cy="123.125" r="7" fill="#424A61"/>
<circle cx="331" cy="123.125" r="7" fill="#323849"/>
<circle cx="357" cy="123.125" r="7" fill="#323849"/>
<rect x="162" y="110.5" width="112" height="6.75" rx="2" fill="#323849"/>
<rect x="162" y="130.75" width="112" height="6.75" rx="2" fill="#323849"/>
<rect x="138.75" y="280.75" width="248.5" height="70.5" rx="11.25" fill="#212530" stroke="#323849" stroke-width="1.5"/>
<circle cx="305" cy="315.125" r="7" fill="#323849"/>
<circle cx="331" cy="315.125" r="7" fill="#323849"/>
<circle cx="357" cy="315.125" r="7" fill="#424A61"/>
<rect x="162" y="302.5" width="112" height="6.75" rx="2" fill="#323849"/>
<rect x="162" y="322.75" width="112" height="6.75" rx="2" fill="#323849"/>
<rect x="0.75" y="136.75" width="46.5" height="46.5" rx="11.25" fill="#212530" stroke="#323849" stroke-width="1.5"/>
<g clip-path="url(#clip0_1011_2923)">
<path d="M33.8824 155.783L33.563 155.778L23.9481 152.931L23.9424 152.8V148L33.8831 152.971L33.8824 155.783Z" fill="#9999B3"/>
<path d="M23.9417 153.087L23.9428 148L14.0013 152.969L14 167.029L14.005 167.031V167.031L23.9407 172L23.9737 171.954L23.9609 167.226L23.9414 167.2L23.3204 166.757L15.6311 164.466L15.6699 155.573L23.9417 153.087Z" fill="#646486"/>
<path d="M25.428 163.169L15.2695 164.598L15.2702 155.4L25.4287 156.831L25.428 163.169Z" fill="#9999B3"/>
<path d="M20.2803 162.588L23.941 163.054L23.9416 156.944L20.281 157.41L20.2803 162.588Z" fill="#646486"/>
<path d="M16.5928 162.118L18.9685 162.42L18.9692 157.576L16.5928 157.879V162.118Z" fill="#646486"/>
<path d="M15.2705 155.401L23.9426 152.8L33.8826 155.783L25.4352 156.832L15.2705 155.401Z" fill="#4A4A63"/>
<path d="M33.8778 161.777L23.9414 163.031L23.942 156.944L33.8778 158.21V161.777Z" fill="#9999B3"/>
<path d="M33.8768 164.22L33.663 164.229L23.9717 167.163L23.9411 167.2L23.9404 172L33.8768 167.033V164.22Z" fill="#9999B3"/>
<path d="M15.2695 164.598L23.941 167.2L33.8767 164.22L25.428 163.169L15.2695 164.598Z" fill="#ADADC2"/>
</g>
<defs>
<clipPath id="clip0_1011_2923">
<rect width="19.8835" height="24" fill="white" transform="translate(14 148)"/>
</clipPath>
</defs>
</svg>
