<svg width="1440" height="726" viewBox="0 0 1440 726" fill="none" xmlns="http://www.w3.org/2000/svg">
<mask id="mask0_1011_2582" style="mask-type:alpha" maskUnits="userSpaceOnUse" x="0" y="0" width="1440" height="850">
<rect width="1440" height="850" fill="white"/>
</mask>
<g mask="url(#mask0_1011_2582)">
<g filter="url(#filter0_f_1011_2582)">
<path d="M856.93 -673.13L1168.11 -875.621L1257.72 -486.294L1539.5 -346.014L1003 -33.0136L447 -346.014L245.999 -673.131L856.93 -673.13Z" fill="url(#paint0_angular_1011_2582)" fill-opacity="0.4"/>
</g>
<g opacity="0.1">
<path opacity="0.010101" d="M1055.47 1347.95C1049.71 1353.51 1041.01 1354.74 1033.94 1350.97L-8.18867 796.866C-15.2653 793.103 -19.1142 785.211 -17.7225 777.319L187.231 -385.03C188.623 -392.923 194.938 -399.022 202.875 -400.137L1371.67 -564.4C1379.6 -565.516 1387.36 -561.394 1390.87 -554.19L1908.27 506.638C1911.78 513.841 1910.26 522.488 1904.49 528.055L1055.47 1347.95Z" stroke="white" stroke-width="3"/>
<path opacity="0.020202" d="M1041.39 1359.86C1035.53 1365.32 1026.81 1366.39 1019.8 1362.51L-10.5622 791.366C-17.5721 787.48 -21.2827 779.523 -19.7534 771.655L205.033 -384.773C206.563 -392.64 212.984 -398.628 220.939 -399.605L1390.23 -543.176C1398.19 -544.152 1405.86 -539.896 1409.25 -532.632L1907.13 535.064C1910.51 542.328 1908.84 550.947 1902.98 556.413L1041.39 1359.86Z" stroke="white" stroke-width="3"/>
<path opacity="0.030303" d="M1027.33 1371.45C1021.38 1376.81 1012.65 1377.73 1005.7 1373.72L-12.6245 785.789C-19.5656 781.782 -23.1367 773.761 -21.4703 765.921L223.006 -384.249C224.672 -392.089 231.197 -397.964 239.168 -398.801L1408.59 -521.713C1416.56 -522.551 1424.17 -518.161 1427.43 -510.839L1905.69 563.368C1908.95 570.69 1907.13 579.278 1901.17 584.641L1027.33 1371.45Z" stroke="white" stroke-width="3"/>
<path opacity="0.040404" d="M1013.31 1382.73C1007.26 1387.99 998.511 1388.75 991.641 1384.63L-14.3812 780.148C-21.2512 776.02 -24.6818 767.938 -22.8789 760.128L241.137 -383.45C242.94 -391.259 249.566 -397.019 257.55 -397.718L1426.74 -500.009C1434.73 -500.707 1442.25 -496.185 1445.38 -488.808L1903.97 591.551C1907.1 598.929 1905.13 607.484 1899.08 612.742L1013.31 1382.73Z" stroke="white" stroke-width="3"/>
<path opacity="0.050505" d="M999.316 1393.7C993.176 1398.85 984.417 1399.46 977.621 1395.21L-15.8269 774.44C-22.6239 770.192 -25.9129 762.052 -23.974 754.275L259.426 -382.38C261.365 -390.156 268.091 -395.8 276.086 -396.359L1444.68 -478.076C1452.68 -478.635 1460.13 -473.982 1463.13 -466.551L1901.96 619.6C1904.96 627.032 1902.84 635.551 1896.7 640.703L999.316 1393.7Z" stroke="white" stroke-width="3"/>
<path opacity="0.0606061" d="M985.362 1404.36C979.133 1409.4 970.365 1409.86 963.644 1405.49L-16.9679 768.677C-23.6897 764.312 -26.8361 756.115 -24.7618 748.373L277.861 -381.031C279.936 -388.772 286.759 -394.298 294.763 -394.717L1462.41 -455.911C1470.41 -456.33 1477.77 -451.548 1480.64 -444.066L1899.66 647.518C1902.54 655.001 1900.26 663.482 1894.04 668.525L985.362 1404.36Z" stroke="white" stroke-width="3"/>
<path opacity="0.0707071" d="M971.453 1414.7C965.137 1419.63 956.362 1419.94 949.718 1415.46L-17.8006 762.858C-24.4452 758.376 -27.4481 750.125 -25.2389 742.421L296.441 -379.408C298.65 -387.112 305.568 -392.518 313.578 -392.798L1479.91 -433.527C1487.92 -433.806 1495.19 -428.897 1497.94 -421.365L1897.09 675.292C1899.83 682.823 1897.41 691.263 1891.09 696.198L971.453 1414.7Z" stroke="white" stroke-width="3"/>
<path opacity="0.0808081" d="M957.603 1424.74C951.202 1429.56 942.423 1429.71 935.858 1425.12L-18.3161 756.995C-24.8815 752.398 -27.74 744.097 -25.3967 736.432L315.167 -377.502C317.511 -385.166 324.523 -390.45 332.536 -390.59L1497.19 -410.919C1505.2 -411.059 1512.4 -406.023 1515 -398.445L1894.24 702.925C1896.85 710.503 1894.28 718.899 1887.88 723.723L957.603 1424.74Z" stroke="white" stroke-width="3"/>
<path opacity="0.0909091" d="M943.802 1434.46C937.318 1439.17 928.538 1439.17 922.054 1434.46L-18.5295 751.09C-25.0137 746.379 -27.7268 738.028 -25.2501 730.406L334.021 -375.316C336.497 -382.938 343.6 -388.099 351.615 -388.099L1514.24 -388.099C1522.25 -388.099 1529.36 -382.938 1531.83 -375.316L1891.11 730.406C1893.58 738.028 1890.87 746.379 1884.38 751.089L943.802 1434.46Z" stroke="white" stroke-width="3"/>
<path opacity="0.10101" d="M930.064 1443.89C923.499 1448.49 914.72 1448.33 908.32 1443.51L-18.4312 745.152C-24.8322 740.328 -27.3992 731.932 -24.7898 724.354L353.005 -372.843C355.615 -380.421 362.807 -385.457 370.82 -385.317L1531.06 -365.065C1539.07 -364.925 1546.09 -359.641 1548.43 -351.976L1887.7 757.737C1890.05 765.401 1887.19 773.703 1880.62 778.3L930.064 1443.89Z" stroke="white" stroke-width="3"/>
<path opacity="0.111111" d="M916.4 1453.01C909.755 1457.49 900.981 1457.18 894.665 1452.25L-18.0175 739.181C-24.3333 734.247 -26.7534 725.807 -24.0122 718.276L372.119 -370.087C374.861 -377.618 382.14 -382.528 390.149 -382.248L1547.65 -341.827C1555.66 -341.547 1562.58 -336.142 1564.79 -328.438L1884.04 784.906C1886.25 792.61 1883.24 800.861 1876.6 805.343L916.4 1453.01Z" stroke="white" stroke-width="3"/>
<path opacity="0.121212" d="M902.799 1461.82C896.077 1466.19 887.309 1465.73 881.081 1460.69L-17.3029 733.189C-23.5316 728.145 -25.804 719.664 -22.9318 712.182L391.343 -367.041C394.215 -374.523 401.579 -379.305 409.582 -378.886L1564 -318.385C1572.01 -317.966 1578.83 -312.44 1580.9 -304.698L1880.1 811.916C1882.17 819.657 1879.03 827.854 1872.31 832.219L902.799 1461.82Z" stroke="white" stroke-width="3"/>
<path opacity="0.131313" d="M889.285 1470.34C882.488 1474.59 873.729 1473.97 867.59 1468.82L-16.2705 727.176C-22.4102 722.024 -24.5342 713.505 -21.5319 706.074L410.688 -363.709C413.691 -371.14 421.137 -375.792 429.132 -375.233L1580.12 -294.748C1588.11 -294.189 1594.84 -288.546 1596.78 -280.769L1875.91 838.756C1877.85 846.532 1874.56 854.673 1867.76 858.92L889.285 1470.34Z" stroke="white" stroke-width="3"/>
<path opacity="0.141414" d="M875.85 1478.56C868.98 1482.69 860.233 1481.92 854.184 1476.66L-14.9321 721.151C-20.981 715.893 -22.956 707.338 -19.8244 699.961L430.138 -360.084C433.269 -367.462 440.795 -371.984 448.78 -371.285L1595.99 -270.918C1603.97 -270.219 1610.6 -264.459 1612.4 -256.65L1871.45 865.426C1873.26 873.235 1869.83 881.317 1862.96 885.445L875.85 1478.56Z" stroke="white" stroke-width="3"/>
<path opacity="0.151515" d="M862.505 1486.48C855.564 1490.49 846.832 1489.57 840.876 1484.21L-13.2824 715.119C-19.2386 709.757 -21.064 701.168 -17.8041 693.847L449.692 -356.168C452.952 -363.489 460.556 -367.879 468.527 -367.042L1611.61 -246.898C1619.58 -246.061 1626.11 -240.186 1627.78 -232.346L1866.75 891.921C1868.41 899.76 1864.84 907.781 1857.9 911.789L862.505 1486.48Z" stroke="white" stroke-width="3"/>
<path opacity="0.161616" d="M849.253 1494.11C842.243 1497.99 833.528 1496.92 827.667 1491.46L-11.3254 709.085C-17.1871 703.619 -18.8623 695 -15.4752 687.737L469.343 -351.959C472.73 -359.223 480.409 -363.479 488.364 -362.502L1626.99 -222.697C1634.94 -221.72 1641.37 -215.732 1642.9 -207.865L1861.79 918.235C1863.32 926.103 1859.61 934.06 1852.6 937.946L849.253 1494.11Z" stroke="white" stroke-width="3"/>
<path opacity="0.171717" d="M836.101 1501.44C829.025 1505.21 820.33 1503.98 814.565 1498.42L-9.05776 703.054C-14.8232 697.487 -16.3477 688.84 -12.8343 681.636L489.088 -347.456C492.601 -354.659 500.353 -358.781 508.29 -357.666L1642.12 -198.317C1650.05 -197.201 1656.37 -191.102 1657.76 -183.209L1856.58 944.366C1857.98 952.259 1854.13 960.15 1847.05 963.913L836.101 1501.44Z" stroke="white" stroke-width="3"/>
<path opacity="0.181818" d="M823.049 1508.49C815.908 1512.13 807.236 1510.75 801.569 1505.09L-6.48697 697.031C-12.1543 691.364 -13.5278 682.692 -9.88918 675.551L508.915 -342.658C512.553 -349.8 520.376 -353.786 528.292 -352.532L1656.99 -173.764C1664.9 -172.511 1671.11 -166.302 1672.36 -158.386L1851.13 970.308C1852.39 978.224 1848.4 986.047 1841.26 989.685L823.049 1508.49Z" stroke="white" stroke-width="3"/>
<path opacity="0.191919" d="M810.109 1515.25C802.905 1518.76 794.259 1517.24 788.691 1511.47L-3.60593 691.024C-9.17351 685.259 -10.3954 676.564 -6.63272 669.488L528.826 -337.564C532.589 -344.64 540.48 -348.489 548.373 -347.098L1671.6 -149.042C1679.49 -147.65 1685.59 -141.334 1686.71 -133.398L1845.44 996.059C1846.56 1004 1842.44 1011.75 1835.23 1015.26L810.109 1515.25Z" stroke="white" stroke-width="3"/>
<path opacity="0.20202" d="M797.278 1521.72C790.014 1525.11 781.396 1523.43 775.93 1517.57L-0.423061 685.035C-5.88917 679.173 -6.95913 670.459 -3.07353 663.449L548.809 -332.174C552.695 -339.184 560.652 -342.894 568.52 -341.365L1685.95 -124.158C1693.82 -122.629 1699.81 -116.207 1700.79 -108.252L1839.52 1021.61C1840.49 1029.57 1836.24 1037.25 1828.97 1040.63L797.278 1521.72Z" stroke="white" stroke-width="3"/>
<path opacity="0.212121" d="M784.57 1527.91C777.248 1531.17 768.66 1529.35 763.297 1523.39L3.06893 679.071C-2.29406 673.115 -3.21176 664.383 0.795584 657.442L568.867 -326.486C572.874 -333.427 580.895 -336.998 588.735 -335.332L1700.05 -99.1148C1707.89 -97.4484 1713.76 -90.9236 1714.6 -82.9528L1833.36 1046.97C1834.2 1054.94 1829.81 1062.54 1822.49 1065.8L784.57 1527.91Z" stroke="white" stroke-width="3"/>
<path opacity="0.222222" d="M771.981 1533.83C764.604 1536.96 756.049 1534.98 750.79 1528.93L6.86162 673.141C1.60339 667.092 0.838226 658.345 4.96609 651.475L588.986 -320.498C593.114 -327.368 601.196 -330.798 609.006 -328.995L1713.88 -73.9152C1721.69 -72.1123 1727.45 -65.4859 1728.15 -57.5017L1826.98 1072.12C1827.67 1080.1 1823.15 1087.63 1815.77 1090.76L771.981 1533.83Z" stroke="white" stroke-width="3"/>
<path opacity="0.232323" d="M759.523 1539.46C752.092 1542.46 743.573 1540.34 738.421 1534.2L10.9596 667.246C5.80775 661.107 5.19535 652.348 9.44249 645.551L609.168 -314.21C613.415 -321.006 621.555 -324.295 629.332 -322.357L1727.44 -48.5665C1735.22 -46.6276 1740.86 -39.9017 1741.42 -31.9065L1820.37 1097.07C1820.93 1105.06 1816.28 1112.51 1808.84 1115.51L759.523 1539.46Z" stroke="white" stroke-width="3"/>
<path opacity="0.242424" d="M747.196 1544.82C739.714 1547.69 731.233 1545.42 726.189 1539.19L15.3579 661.389C10.314 655.161 9.85454 646.393 14.2197 639.671L629.402 -307.626C633.767 -314.348 641.963 -317.494 649.705 -315.42L1740.74 -23.0781C1748.48 -21.0037 1754.01 -14.1803 1754.43 -6.17663L1813.54 1121.8C1813.96 1129.8 1809.18 1137.16 1801.7 1140.04L747.196 1544.82Z" stroke="white" stroke-width="3"/>
<path opacity="0.252525" d="M735.006 1549.91C727.474 1552.65 719.035 1550.23 714.1 1543.92L20.0556 655.581C15.1212 649.265 14.8148 640.491 19.2966 633.846L649.683 -300.741C654.165 -307.385 662.416 -310.388 670.12 -308.179L1753.77 2.55132C1761.47 4.76047 1766.87 11.6792 1767.15 19.689L1806.5 1146.32C1806.78 1154.33 1801.87 1161.61 1794.34 1164.35L735.006 1549.91Z" stroke="white" stroke-width="3"/>
<path opacity="0.262626" d="M722.954 1554.74C715.376 1557.35 706.98 1554.78 702.157 1548.38L25.0492 649.826C20.2257 643.425 20.0726 634.646 24.6696 628.081L670.006 -293.554C674.603 -300.119 682.904 -302.978 690.569 -300.634L1766.52 28.3155C1774.18 30.6588 1779.46 37.6708 1779.6 45.6843L1799.24 1170.62C1799.38 1178.64 1794.34 1185.83 1786.77 1188.44L722.954 1554.74Z" stroke="white" stroke-width="3"/>
<path opacity="0.272727" d="M711.054 1559.29C703.432 1561.77 695.082 1559.06 690.371 1552.57L30.3454 644.125C25.6344 637.641 25.6344 628.861 30.3454 622.377L690.371 -286.07C695.082 -292.554 703.432 -295.267 711.054 -292.79L1779 54.2053C1786.62 56.682 1791.78 63.7852 1791.78 71.7999L1791.78 1194.7C1791.78 1202.72 1786.62 1209.82 1779 1212.3L711.054 1559.29Z" stroke="white" stroke-width="3"/>
<path opacity="0.282828" d="M699.301 1563.59C691.636 1565.93 683.334 1563.07 678.737 1556.51L35.9331 638.488C31.336 631.923 31.4893 623.144 36.3126 616.743L710.764 -278.283C715.587 -284.684 723.984 -287.251 731.562 -284.642L1791.2 80.2207C1798.78 82.83 1803.81 90.0222 1803.67 98.0357L1784.11 1218.56C1783.97 1226.57 1778.69 1233.59 1771.03 1235.93L699.301 1563.59Z" stroke="white" stroke-width="3"/>
<path opacity="0.292929" d="M687.708 1567.63C680.003 1569.83 671.753 1566.83 667.271 1560.19L41.8204 632.919C37.3385 626.274 37.645 617.499 42.5794 611.184L731.19 -270.197C736.124 -276.513 744.564 -278.933 752.095 -276.192L1803.13 106.354C1810.66 109.095 1815.57 116.374 1815.29 124.384L1776.26 1242.19C1775.98 1250.2 1770.57 1257.12 1762.87 1259.33L687.708 1567.63Z" stroke="white" stroke-width="3"/>
<path opacity="0.30303" d="M676.266 1571.41C668.524 1573.48 660.327 1570.34 655.962 1563.61L47.9915 627.421C43.6263 620.7 44.0859 611.931 49.1297 605.703L751.628 -261.811C756.672 -268.039 765.153 -270.312 772.635 -267.439L1814.77 132.6C1822.26 135.472 1827.04 142.836 1826.62 150.84L1768.2 1265.59C1767.78 1273.59 1762.25 1280.42 1754.51 1282.49L676.266 1571.41Z" stroke="white" stroke-width="3"/>
<path opacity="0.313131" d="M664.997 1574.94C657.22 1576.88 649.08 1573.59 644.833 1566.79L54.4629 622.001C50.2157 615.204 50.8282 606.446 55.98 600.306L772.093 -253.125C777.245 -259.264 785.764 -261.388 793.195 -258.386L1826.15 158.954C1833.58 161.956 1838.23 169.402 1837.67 177.397L1759.96 1288.76C1759.4 1296.75 1753.76 1303.48 1745.98 1305.42L664.997 1574.94Z" stroke="white" stroke-width="3"/>
<path opacity="0.323232" d="M653.885 1578.22C646.075 1580.02 637.993 1576.59 633.865 1569.72L61.2112 616.666C57.0832 609.796 57.8485 601.049 63.1066 595L792.557 -244.137C797.815 -250.186 806.37 -252.161 813.748 -249.029L1837.23 185.412C1844.61 188.544 1849.13 196.07 1848.43 204.054L1751.52 1311.69C1750.82 1319.67 1745.06 1326.3 1737.26 1328.1L653.885 1578.22Z" stroke="white" stroke-width="3"/>
<path opacity="0.333333" d="M642.95 1581.26C635.11 1582.92 627.089 1579.35 623.082 1572.41L68.2518 611.416C64.2444 604.475 65.1622 595.743 70.5251 589.787L813.033 -234.852C818.396 -240.808 826.984 -242.634 834.306 -239.374L1848.03 211.966C1855.35 215.226 1859.74 222.829 1858.91 230.8L1742.91 1334.38C1742.08 1342.35 1736.2 1348.88 1728.36 1350.54L642.95 1581.26Z" stroke="white" stroke-width="3"/>
<path opacity="0.343434" d="M632.191 1584.05C624.324 1585.58 616.366 1581.87 612.481 1574.86L75.5763 606.257C71.6906 599.247 72.7607 590.532 78.2267 584.671L833.508 -225.27C838.975 -231.132 847.593 -232.807 854.857 -229.42L1858.55 238.61C1865.82 241.998 1870.07 249.677 1869.1 257.632L1734.13 1356.83C1733.15 1364.79 1727.17 1371.21 1719.3 1372.74L632.191 1584.05Z" stroke="white" stroke-width="3"/>
<path opacity="0.353535" d="M621.611 1586.61C613.718 1588 605.827 1584.15 602.064 1577.07L83.182 601.197C79.4192 594.12 80.6412 585.426 86.2087 579.66L853.978 -215.388C859.545 -221.153 868.192 -222.678 875.396 -219.164L1868.79 265.344C1875.99 268.857 1880.11 276.61 1879 284.546L1725.17 1379.04C1724.06 1386.97 1717.96 1393.29 1710.07 1394.68L621.611 1586.61Z" stroke="white" stroke-width="3"/>
<path opacity="0.363636" d="M611.213 1588.93C603.297 1590.18 595.474 1586.2 591.836 1579.06L91.0658 596.24C87.4271 589.099 88.8007 580.427 94.4679 574.76L874.435 -205.207C880.102 -210.875 888.774 -212.248 895.916 -208.61L1878.73 292.16C1885.87 295.799 1889.86 303.622 1888.6 311.538L1716.05 1401C1714.8 1408.91 1708.59 1415.12 1700.67 1416.38L611.213 1588.93Z" stroke="white" stroke-width="3"/>
<path opacity="0.373737" d="M601.008 1591.02C593.071 1592.14 585.319 1588.01 581.805 1580.81L99.2315 591.388C95.718 584.184 97.2427 575.537 103.008 569.97L894.881 -194.733C900.647 -200.301 909.341 -201.523 916.418 -197.76L1888.4 319.05C1895.47 322.813 1899.32 330.704 1897.93 338.597L1706.77 1422.71C1705.38 1430.6 1699.06 1436.7 1691.13 1437.81L601.008 1591.02Z" stroke="white" stroke-width="3"/>
<path opacity="0.383838" d="M590.988 1592.89C583.033 1593.86 575.354 1589.61 571.967 1582.34L107.667 586.648C104.28 579.384 105.955 570.765 111.817 565.299L915.301 -183.962C921.163 -189.428 929.878 -190.498 936.888 -186.613L1897.77 346.012C1904.78 349.897 1908.49 357.855 1906.96 365.722L1697.33 1444.16C1695.8 1452.03 1689.38 1458.02 1681.43 1459L590.988 1592.89Z" stroke="white" stroke-width="3"/>
<path opacity="0.393939" d="M581.163 1594.53C573.192 1595.37 565.588 1590.98 562.329 1583.65L116.374 582.025C113.114 574.703 114.94 566.115 120.896 560.752L935.695 -172.896C941.651 -178.259 950.383 -179.176 957.324 -175.169L1906.85 373.041C1913.79 377.048 1917.36 385.069 1915.7 392.909L1687.74 1465.37C1686.07 1473.21 1679.55 1479.08 1671.58 1479.92L581.163 1594.53Z" stroke="white" stroke-width="3"/>
<path opacity="0.40404" d="M571.534 1595.95C563.549 1596.65 556.023 1592.13 552.892 1584.75L125.349 577.522C122.217 570.145 124.192 561.59 130.241 556.331L956.054 -161.537C962.103 -166.795 970.849 -167.56 977.719 -163.432L1915.64 400.129C1922.51 404.257 1925.94 412.339 1924.14 420.148L1678 1486.32C1676.19 1494.13 1669.57 1499.89 1661.58 1500.58L571.534 1595.95Z" stroke="white" stroke-width="3"/>
<path opacity="0.414141" d="M562.11 1597.16C554.114 1597.72 546.669 1593.07 543.666 1585.63L134.593 573.144C131.591 565.713 133.715 557.194 139.855 552.042L976.38 -149.886C982.52 -155.038 991.278 -155.65 998.075 -151.403L1924.15 427.272C1930.95 431.519 1934.24 439.66 1932.3 447.437L1668.12 1507.01C1666.18 1514.78 1659.45 1520.43 1651.46 1520.99L562.11 1597.16Z" stroke="white" stroke-width="3"/>
<path opacity="0.424242" d="M552.895 1598.16C544.891 1598.58 537.528 1593.8 534.655 1586.31L144.106 568.898C141.234 561.415 143.506 552.934 149.735 547.89L996.669 -137.943C1002.9 -142.986 1011.67 -143.446 1018.39 -139.081L1932.37 454.467C1939.09 458.832 1942.24 467.029 1940.16 474.77L1658.1 1527.44C1656.03 1535.18 1649.2 1540.7 1641.2 1541.12L552.895 1598.16Z" stroke="white" stroke-width="3"/>
<path opacity="0.434343" d="M543.881 1598.95C535.872 1599.23 528.593 1594.32 525.851 1586.79L153.873 564.784C151.132 557.252 153.552 548.813 159.867 543.878L1016.9 -125.711C1023.22 -130.645 1031.99 -130.952 1038.64 -126.47L1940.29 481.704C1946.94 486.186 1949.94 494.437 1947.73 502.141L1647.95 1547.6C1645.74 1555.31 1638.82 1560.71 1630.81 1560.99L543.881 1598.95Z" stroke="white" stroke-width="3"/>
<path opacity="0.444444" d="M535.086 1599.54C527.073 1599.68 519.881 1594.64 517.271 1587.06L163.904 560.81C161.295 553.232 163.862 544.836 170.263 540.012L1037.09 -113.189C1043.49 -118.012 1052.27 -118.166 1058.84 -113.569L1947.93 508.983C1954.5 513.58 1957.35 521.882 1955.01 529.546L1637.68 1567.51C1635.33 1575.17 1628.32 1580.45 1620.31 1580.59L535.086 1599.54Z" stroke="white" stroke-width="3"/>
<path opacity="0.454545" d="M526.503 1599.93C518.489 1599.93 511.385 1594.77 508.909 1587.14L174.188 556.98C171.711 549.358 174.425 541.007 180.909 536.297L1057.22 -100.38C1063.7 -105.091 1072.48 -105.091 1078.97 -100.38L1955.28 536.296C1961.76 541.007 1964.47 549.358 1962 556.98L1627.28 1587.14C1624.8 1594.77 1617.7 1599.93 1609.68 1599.93L526.503 1599.93Z" stroke="white" stroke-width="3"/>
<path opacity="0.464646" d="M518.136 1600.12C510.122 1599.98 503.11 1594.7 500.767 1587.03L184.721 553.296C182.378 545.631 185.236 537.33 191.802 532.733L1077.28 -87.2876C1083.85 -91.8847 1092.63 -91.7315 1099.03 -86.9081L1962.33 563.637C1968.73 568.461 1971.3 576.857 1968.69 584.435L1616.76 1606.51C1614.15 1614.09 1606.96 1619.13 1598.94 1618.99L518.136 1600.12Z" stroke="white" stroke-width="3"/>
<path opacity="0.474747" d="M509.989 1600.13C501.979 1599.85 495.061 1594.44 492.851 1586.74L195.503 549.763C193.294 542.059 196.297 533.808 202.942 529.327L1097.28 -73.9112C1103.92 -78.393 1112.7 -78.0866 1119.01 -73.1523L1969.09 591.002C1975.41 595.936 1977.83 604.376 1975.09 611.908L1606.13 1625.62C1603.39 1633.15 1596.11 1638.06 1588.1 1637.78L509.989 1600.13Z" stroke="white" stroke-width="3"/>
<path opacity="0.484848" d="M502.067 1599.95C494.063 1599.53 487.24 1594 485.166 1586.26L206.532 546.386C204.457 538.644 207.604 530.447 214.325 526.082L1117.2 -60.2535C1123.93 -64.6187 1132.69 -64.1592 1138.92 -59.1154L1975.57 618.385C1981.79 623.429 1984.07 631.91 1981.19 639.392L1595.39 1644.45C1592.52 1651.93 1585.15 1656.71 1577.15 1656.29L502.067 1599.95Z" stroke="white" stroke-width="3"/>
<path opacity="0.494949" d="M494.373 1599.59C486.378 1599.03 479.652 1593.38 477.713 1585.61L217.804 543.169C215.865 535.393 219.154 527.252 225.95 523.005L1137.05 -46.3149C1143.85 -50.5621 1152.61 -49.9496 1158.75 -44.7978L1981.75 645.782C1987.89 650.934 1990.01 659.453 1987.01 666.884L1584.55 1663.01C1581.55 1670.44 1574.1 1675.09 1566.11 1674.53L494.373 1599.59Z" stroke="white" stroke-width="3"/>
<path opacity="0.50505" d="M486.909 1599.05C478.925 1598.35 472.299 1592.59 470.496 1584.78L229.316 540.117C227.513 532.308 230.944 524.226 237.813 520.098L1156.82 -32.0975C1163.69 -36.2254 1172.44 -35.4602 1178.49 -30.2021L1987.64 673.188C1993.69 678.446 1995.67 687.001 1992.54 694.379L1573.62 1681.29C1570.48 1688.67 1562.96 1693.19 1554.97 1692.49L486.909 1599.05Z" stroke="white" stroke-width="3"/>
<path opacity="0.515152" d="M479.677 1598.34C471.706 1597.5 465.181 1591.63 463.515 1583.79L241.062 537.233C239.396 529.394 242.967 521.373 249.908 517.365L1176.5 -17.6037C1183.44 -21.6111 1192.17 -20.6933 1198.13 -15.3305L1993.25 700.598C1999.21 705.961 2001.03 714.549 1997.77 721.871L1562.59 1699.31C1559.33 1706.63 1551.72 1711.02 1543.75 1710.18L479.677 1598.34Z" stroke="white" stroke-width="3"/>
<path opacity="0.525253" d="M472.679 1597.47C464.724 1596.49 458.303 1590.5 456.774 1582.63L253.041 534.52C251.512 526.652 255.222 518.695 262.232 514.809L1196.09 -2.83715C1203.1 -6.72275 1211.82 -5.65276 1217.68 -0.186785L1998.57 728.004C2004.43 733.47 2006.1 742.089 2002.72 749.353L1551.47 1717.05C1548.09 1724.31 1540.41 1728.57 1532.45 1727.59L472.679 1597.47Z" stroke="white" stroke-width="3"/>
<path opacity="0.535354" d="M465.919 1596.42C457.982 1595.31 451.666 1589.21 450.275 1581.32L265.248 531.98C263.857 524.087 267.706 516.195 274.782 512.433L1215.58 12.1995C1222.66 8.43679 1231.36 9.65871 1237.12 15.2262L2003.59 755.401C2009.36 760.969 2010.88 769.616 2007.37 776.819L1540.28 1734.51C1536.76 1741.71 1529.01 1745.83 1521.07 1744.72L465.919 1596.42Z" stroke="white" stroke-width="3"/>
<path opacity="0.545455" d="M459.4 1595.22C451.484 1593.97 445.276 1587.76 444.022 1579.85L277.683 529.619C276.429 521.703 280.415 513.88 287.556 510.241L1234.98 27.505C1242.12 23.8664 1250.79 25.2399 1256.46 30.9071L2008.34 782.786C2014.01 788.453 2015.38 797.125 2011.74 804.267L1529 1751.69C1525.37 1758.83 1517.54 1762.82 1509.63 1761.56L459.4 1595.22Z" stroke="white" stroke-width="3"/>
<path opacity="0.555556" d="M453.119 1593.87C445.226 1592.48 439.127 1586.16 438.012 1578.23L290.333 527.443C289.218 519.506 293.34 511.754 300.544 508.24L1254.26 43.08C1261.47 39.5666 1270.11 41.0912 1275.68 46.8565L2012.79 810.156C2018.36 815.921 2019.58 824.616 2015.82 831.692L1517.66 1768.6C1513.89 1775.67 1506 1779.52 1498.11 1778.13L453.119 1593.87Z" stroke="white" stroke-width="3"/>
<path opacity="0.565657" d="M447.088 1592.37C439.221 1590.84 433.233 1584.42 432.256 1576.46L303.208 525.451C302.231 517.496 306.488 509.816 313.752 506.429L1273.44 58.9172C1280.71 55.53 1289.33 57.2053 1294.79 63.0669L2016.96 837.5C2022.43 843.362 2023.5 852.076 2019.61 859.086L1506.25 1785.22C1502.36 1792.23 1494.4 1795.94 1486.54 1794.42L447.088 1592.37Z" stroke="white" stroke-width="3"/>
<path opacity="0.575758" d="M441.296 1590.72C433.457 1589.05 427.582 1582.53 426.744 1574.56L316.289 523.65C315.451 515.68 319.842 508.076 327.163 504.816L1292.5 75.0186C1299.83 71.7587 1308.41 73.5841 1313.78 79.5402L2020.85 864.819C2026.21 870.775 2027.13 879.507 2023.12 886.448L1494.77 1801.57C1490.76 1808.52 1482.74 1812.09 1474.9 1810.42L441.296 1590.72Z" stroke="white" stroke-width="3"/>
<path opacity="0.585859" d="M435.759 1588.93C427.95 1587.13 422.19 1580.5 421.491 1572.52L329.586 522.039C328.888 514.055 333.41 506.529 340.787 503.397L1311.45 91.375C1318.83 88.2434 1327.38 90.2185 1332.64 96.2673L2024.45 892.101C2029.71 898.15 2030.47 906.897 2026.34 913.766L1483.24 1817.64C1479.11 1824.51 1471.03 1827.94 1463.22 1826.14L435.759 1588.93Z" stroke="white" stroke-width="3"/>
<path opacity="0.59596" d="M430.471 1587.01C422.695 1585.07 417.051 1578.34 416.492 1570.35L343.088 520.627C342.529 512.632 347.182 505.186 354.613 502.184L1330.27 107.992C1337.7 104.989 1346.22 107.113 1351.38 113.253L2027.77 919.349C2032.92 925.488 2033.53 934.247 2029.29 941.044L1471.66 1833.43C1467.41 1840.23 1459.27 1843.52 1451.5 1841.58L430.471 1587.01Z" stroke="white" stroke-width="3"/>
<path opacity="0.606061" d="M425.434 1584.95C417.692 1582.88 412.167 1576.06 411.747 1568.05L356.791 519.415C356.371 511.411 361.153 504.048 368.636 501.175L1348.97 124.862C1356.45 121.99 1364.93 124.262 1369.97 130.491L2030.81 946.553C2035.85 952.782 2036.31 961.55 2031.95 968.271L1460.03 1848.94C1455.67 1855.66 1447.47 1858.81 1439.73 1856.73L425.434 1584.95Z" stroke="white" stroke-width="3"/>
<path opacity="0.616162" d="M420.65 1582.78C412.946 1580.57 407.54 1573.65 407.261 1565.64L370.69 518.406C370.411 510.396 375.32 503.117 382.852 500.376L1367.53 141.983C1375.06 139.242 1383.5 141.662 1388.43 147.978L2033.57 973.711C2038.5 980.026 2038.81 988.801 2034.32 995.445L1448.36 1864.17C1443.88 1870.81 1435.63 1873.82 1427.93 1871.61L420.65 1582.78Z" stroke="white" stroke-width="3"/>
<path opacity="0.626263" d="M416.127 1580.48C408.462 1578.13 403.178 1571.12 403.038 1563.11L384.789 517.603C384.649 509.59 389.685 502.397 397.263 499.788L1385.96 159.354C1393.53 156.744 1401.93 159.311 1406.75 165.712L2036.05 1000.82C2040.87 1007.22 2041.03 1016 2036.43 1022.56L1436.66 1879.12C1432.06 1885.68 1423.76 1888.54 1416.1 1886.2L416.127 1580.48Z" stroke="white" stroke-width="3"/>
<path opacity="0.636364" d="M411.858 1578.06C404.236 1575.58 399.075 1568.48 399.075 1560.46L399.075 517.007C399.075 508.992 404.236 501.889 411.858 499.412L1404.24 176.967C1411.87 174.49 1420.22 177.203 1424.93 183.687L2038.26 1027.86C2042.97 1034.34 2042.97 1043.12 2038.26 1049.61L1424.93 1893.78C1420.22 1900.27 1411.87 1902.98 1404.24 1900.5L411.858 1578.06Z" stroke="white" stroke-width="3"/>
<path opacity="0.646465" d="M407.849 1575.53C400.271 1572.92 395.234 1565.73 395.374 1557.72L413.547 516.626C413.686 508.612 418.971 501.6 426.635 499.257L1422.39 194.825C1430.05 192.482 1438.35 195.34 1442.95 201.905L2040.19 1054.85C2044.78 1061.41 2044.63 1070.19 2039.81 1076.59L1413.17 1908.17C1408.34 1914.57 1399.95 1917.14 1392.37 1914.53L407.849 1575.53Z" stroke="white" stroke-width="3"/>
<path opacity="0.656566" d="M404.1 1572.9C396.569 1570.15 391.659 1562.88 391.939 1554.87L428.201 516.456C428.481 508.446 433.886 501.527 441.59 499.318L1440.38 212.919C1448.09 210.71 1456.34 213.713 1460.82 220.357L2041.84 1081.76C2046.33 1088.41 2046.02 1097.18 2041.08 1103.5L1401.39 1922.27C1396.45 1928.59 1388.01 1931.01 1380.48 1928.27L404.1 1572.9Z" stroke="white" stroke-width="3"/>
<path opacity="0.666667" d="M400.61 1570.16C393.128 1567.29 388.346 1559.92 388.765 1551.92L443.029 516.506C443.448 508.502 448.974 501.678 456.716 499.604L1458.22 231.251C1465.96 229.177 1474.16 232.324 1478.53 239.045L2043.23 1108.61C2047.59 1115.33 2047.13 1124.1 2042.09 1130.33L1389.59 1936.1C1384.54 1942.33 1376.06 1944.6 1368.58 1941.73L400.61 1570.16Z" stroke="white" stroke-width="3"/>
<path opacity="0.676768" d="M397.386 1567.33C389.955 1564.33 385.302 1556.88 385.861 1548.88L458.033 516.777C458.592 508.781 464.236 502.056 472.012 500.117L1475.91 249.817C1483.68 247.878 1491.83 251.167 1496.07 257.964L2044.34 1135.38C2048.59 1142.18 2047.98 1150.93 2042.83 1157.07L1377.78 1949.65C1372.63 1955.79 1364.11 1957.91 1356.68 1954.91L397.386 1567.33Z" stroke="white" stroke-width="3"/>
<path opacity="0.686869" d="M394.423 1564.41C387.045 1561.27 382.523 1553.75 383.222 1545.76L473.203 517.27C473.902 509.286 479.662 502.66 487.471 500.857L1493.43 268.613C1501.24 266.81 1509.32 270.24 1513.45 277.11L2045.19 1162.07C2049.32 1168.94 2048.55 1177.68 2043.29 1183.73L1365.96 1962.91C1360.7 1968.96 1352.15 1970.94 1344.77 1967.8L394.423 1564.41Z" stroke="white" stroke-width="3"/>
<path opacity="0.69697" d="M391.726 1561.39C384.405 1558.13 380.015 1550.53 380.852 1542.56L488.539 517.989C489.377 510.018 495.252 503.493 503.091 501.827L1510.79 287.633C1518.63 285.967 1526.65 289.538 1530.66 296.479L2045.77 1188.67C2049.78 1195.61 2048.86 1204.34 2043.5 1210.3L1354.15 1975.9C1348.78 1981.86 1340.2 1983.68 1332.87 1980.42L391.726 1561.39Z" stroke="white" stroke-width="3"/>
<path opacity="0.707071" d="M389.301 1558.3C382.038 1554.91 377.781 1547.23 378.758 1539.28L504.04 518.932C505.017 510.977 511.005 504.556 518.872 503.027L1527.99 306.874C1535.86 305.344 1543.82 309.055 1547.7 316.065L2046.09 1215.18C2049.98 1222.19 2048.91 1230.91 2043.44 1236.77L1342.34 1988.6C1336.88 1994.47 1328.26 1996.14 1320.99 1992.75L389.301 1558.3Z" stroke="white" stroke-width="3"/>
<path opacity="0.717172" d="M387.135 1555.13C379.932 1551.62 375.809 1543.86 376.925 1535.93L519.689 520.11C520.804 512.173 526.903 505.857 534.796 504.465L1545.01 326.337C1552.91 324.945 1560.8 328.794 1564.56 335.871L2046.15 1241.6C2049.91 1248.68 2048.69 1257.37 2043.12 1263.14L1330.54 2001.04C1324.97 2006.8 1316.32 2008.33 1309.12 2004.81L387.135 1555.13Z" stroke="white" stroke-width="3"/>
<path opacity="0.727273" d="M385.242 1551.89C378.101 1548.25 374.115 1540.43 375.369 1532.51L535.494 521.518C536.748 513.602 542.956 507.394 550.872 506.14L1561.86 346.015C1569.78 344.761 1577.6 348.747 1581.24 355.888L2045.94 1267.92C2049.58 1275.06 2048.21 1283.73 2042.54 1289.4L1318.75 2013.19C1313.08 2018.86 1304.41 2020.23 1297.27 2016.59L385.242 1551.89Z" stroke="white" stroke-width="3"/>
<path opacity="0.737374" d="M383.618 1548.58C376.541 1544.82 372.692 1536.93 374.084 1529.03L551.446 523.164C552.838 515.271 559.154 509.172 567.09 508.057L1578.54 365.907C1586.47 364.792 1594.23 368.914 1597.74 376.117L2045.49 1294.13C2049 1301.34 2047.48 1309.98 2041.71 1315.55L1306.99 2025.07C1301.22 2030.63 1292.53 2031.86 1285.45 2028.09L383.618 1548.58Z" stroke="white" stroke-width="3"/>
<path opacity="0.747475" d="M382.264 1545.21C375.254 1541.33 371.544 1533.37 373.073 1525.5L567.542 525.044C569.071 517.177 575.493 511.189 583.447 510.212L1595.03 386.005C1602.99 385.029 1610.67 389.285 1614.05 396.549L2044.78 1320.24C2048.16 1327.5 2046.49 1336.12 2040.63 1341.59L1295.25 2036.67C1289.38 2042.13 1280.67 2043.2 1273.66 2039.32L382.264 1545.21Z" stroke="white" stroke-width="3"/>
<path opacity="0.757576" d="M381.128 1541.78C374.187 1537.77 370.616 1529.75 372.282 1521.91L583.723 527.163C585.389 519.323 591.914 513.448 599.885 512.611L1611.29 406.308C1619.26 405.47 1626.86 409.86 1630.12 417.182L2043.76 1346.23C2047.02 1353.56 2045.2 1362.14 2039.24 1367.51L1283.48 2048C1277.53 2053.36 1268.79 2054.28 1261.85 2050.27L381.128 1541.78Z" stroke="white" stroke-width="3"/>
<path opacity="0.767677" d="M380.31 1538.3C373.44 1534.17 370.009 1526.09 371.812 1518.28L600.085 529.523C601.888 521.713 608.514 515.953 616.499 515.255L1627.4 426.812C1635.39 426.114 1642.91 430.636 1646.05 438.013L2042.55 1372.11C2045.68 1379.49 2043.7 1388.04 2037.66 1393.3L1271.8 2059.05C1265.75 2064.31 1257.01 2065.07 1250.14 2060.94L380.31 1538.3Z" stroke="white" stroke-width="3"/>
<path opacity="0.777778" d="M379.767 1534.77C372.97 1530.53 369.681 1522.39 371.62 1514.61L616.581 532.127C618.52 524.35 625.246 518.706 633.241 518.147L1643.33 447.515C1651.33 446.956 1658.78 451.608 1661.78 459.039L2041.09 1397.87C2044.09 1405.3 2041.97 1413.82 2035.83 1418.97L1260.16 2069.83C1254.02 2074.98 1245.26 2075.6 1238.47 2071.35L379.767 1534.77Z" stroke="white" stroke-width="3"/>
<path opacity="0.787879" d="M379.495 1531.2C372.774 1526.84 369.627 1518.64 371.702 1510.9L633.2 534.974C635.275 527.232 642.098 521.707 650.102 521.288L1659.07 468.41C1667.07 467.99 1674.44 472.772 1677.31 480.255L2039.39 1423.5C2042.26 1430.98 2039.99 1439.46 2033.76 1444.51L1248.57 2080.34C1242.34 2085.39 1233.57 2085.85 1226.85 2081.48L379.495 1531.2Z" stroke="white" stroke-width="3"/>
<path opacity="0.79798" d="M379.489 1527.6C372.845 1523.12 369.842 1514.87 372.051 1507.16L649.934 538.07C652.143 530.365 659.062 524.96 667.072 524.68L1674.6 489.496C1682.61 489.217 1689.89 494.126 1692.63 501.658L2037.44 1449.01C2040.18 1456.54 2037.76 1464.98 2031.45 1469.91L1237.02 2090.59C1230.7 2095.52 1221.93 2095.83 1215.28 2091.35L379.489 1527.6Z" stroke="white" stroke-width="3"/>
<path opacity="0.808081" d="M379.758 1523.96C373.193 1519.36 370.334 1511.06 372.677 1503.39L666.786 541.409C669.129 533.744 676.141 528.46 684.154 528.32L1689.94 510.764C1697.95 510.624 1705.15 515.66 1707.76 523.238L2035.26 1474.37C2037.87 1481.95 2035.3 1490.35 2028.9 1495.17L1225.52 2100.56C1219.12 2105.38 1210.34 2105.54 1203.78 2100.94L379.758 1523.96Z" stroke="white" stroke-width="3"/>
<path opacity="0.818182" d="M380.292 1520.29C373.808 1515.58 371.095 1507.23 373.571 1499.61L683.742 545.001C686.219 537.378 693.322 532.218 701.336 532.218L1705.07 532.218C1713.08 532.218 1720.19 537.378 1722.66 545.001L2032.83 1499.61C2035.31 1507.23 2032.6 1515.58 2026.11 1520.29L1214.08 2110.27C1207.59 2114.98 1198.81 2114.98 1192.33 2110.27L380.292 1520.29Z" stroke="white" stroke-width="3"/>
<path opacity="0.828283" d="M381.104 1516.6C374.703 1511.78 372.136 1503.38 374.746 1495.8L700.811 548.842C703.42 541.264 710.612 536.228 718.626 536.368L1720 553.847C1728.01 553.987 1735.02 559.271 1737.37 566.935L2030.19 1524.7C2032.53 1532.36 2029.67 1540.67 2023.11 1545.26L1202.7 2119.71C1196.14 2124.31 1187.36 2124.16 1180.96 2119.34L381.104 1516.6Z" stroke="white" stroke-width="3"/>
<path opacity="0.838384" d="M382.18 1512.89C375.864 1507.96 373.444 1499.52 376.185 1491.99L717.973 552.936C720.714 545.405 727.993 540.495 736.003 540.775L1734.71 575.651C1742.72 575.93 1749.64 581.336 1751.85 589.04L2027.3 1549.65C2029.51 1557.35 2026.51 1565.6 2019.86 1570.08L1191.39 2128.9C1184.74 2133.38 1175.97 2133.07 1169.65 2128.14L382.18 1512.89Z" stroke="white" stroke-width="3"/>
<path opacity="0.848485" d="M383.532 1509.17C377.303 1504.13 375.031 1495.65 377.903 1488.17L735.236 557.283C738.109 549.8 745.472 545.018 753.476 545.438L1749.22 597.623C1757.23 598.042 1764.05 603.568 1766.12 611.309L2024.2 1574.45C2026.27 1582.19 2023.12 1590.38 2016.4 1594.75L1180.15 2137.82C1173.43 2142.18 1164.66 2141.72 1158.43 2136.68L383.532 1509.17Z" stroke="white" stroke-width="3"/>
<path opacity="0.858586" d="M385.149 1505.44C379.01 1500.29 376.886 1491.77 379.888 1484.34L752.586 561.882C755.589 554.451 763.035 549.798 771.03 550.357L1763.51 619.759C1771.51 620.318 1778.23 625.961 1780.17 633.738L2020.86 1599.09C2022.8 1606.87 2019.51 1615.01 2012.71 1619.26L1168.99 2146.48C1162.19 2150.72 1153.43 2150.11 1147.29 2144.96L385.149 1505.44Z" stroke="white" stroke-width="3"/>
<path opacity="0.868687" d="M387.037 1501.72C380.989 1496.46 379.013 1487.9 382.145 1480.53L770.023 566.742C773.155 559.364 780.681 554.842 788.665 555.54L1777.59 642.06C1785.57 642.758 1792.2 648.519 1794 656.328L2017.31 1623.58C2019.11 1631.39 2015.68 1639.48 2008.81 1643.6L1157.9 2154.88C1151.03 2159.01 1142.29 2158.24 1136.24 2152.99L387.037 1501.72Z" stroke="white" stroke-width="3"/>
<path opacity="0.878788" d="M389.199 1497.98C383.242 1492.62 381.417 1484.03 384.677 1476.71L787.546 571.852C790.806 564.53 798.41 560.14 806.381 560.978L1791.45 664.513C1799.42 665.35 1805.94 671.225 1807.61 679.065L2013.54 1647.91C2015.21 1655.75 2011.64 1663.77 2004.7 1667.78L1146.91 2163.03C1139.97 2167.03 1131.23 2166.12 1125.28 2160.75L389.199 1497.98Z" stroke="white" stroke-width="3"/>
<path opacity="0.888889" d="M391.626 1494.26C385.765 1488.8 384.089 1480.18 387.476 1472.91L805.144 577.223C808.531 569.959 816.21 565.702 824.165 566.679L1805.08 687.121C1813.04 688.097 1819.46 694.085 1820.99 701.953L2009.56 1672.08C2011.09 1679.95 2007.38 1687.91 2000.37 1691.79L1136 2170.92C1128.99 2174.81 1120.27 2173.74 1114.41 2168.27L391.626 1494.26Z" stroke="white" stroke-width="3"/>
<path opacity="0.89899" d="M394.322 1490.55C388.556 1484.98 387.032 1476.34 390.545 1469.13L822.813 582.851C826.327 575.647 834.079 571.525 842.016 572.641L1818.5 709.877C1826.43 710.992 1832.75 717.091 1834.14 724.984L2005.37 1696.08C2006.76 1703.97 2002.92 1711.87 1995.84 1715.63L1125.18 2178.56C1118.11 2182.33 1109.41 2181.11 1103.65 2175.54L394.322 1490.55Z" stroke="white" stroke-width="3"/>
<path opacity="0.909091" d="M397.287 1486.85C391.62 1481.19 390.247 1472.52 393.885 1465.37L840.554 588.738C844.192 581.597 852.016 577.611 859.931 578.865L1831.69 732.776C1839.61 734.03 1845.81 740.238 1847.07 748.154L2000.98 1719.91C2002.23 1727.83 1998.25 1735.65 1991.11 1739.29L1114.47 2185.96C1107.33 2189.6 1098.66 2188.22 1092.99 2182.56L397.287 1486.85Z" stroke="white" stroke-width="3"/>
<path opacity="0.919192" d="M400.511 1483.18C394.944 1477.41 393.722 1468.72 397.485 1461.64L858.349 594.884C862.111 587.807 870.003 583.958 877.896 585.35L1844.65 755.815C1852.54 757.206 1858.64 763.522 1859.75 771.459L1996.38 1743.57C1997.49 1751.51 1993.37 1759.26 1986.17 1762.77L1103.85 2193.11C1096.65 2196.62 1088 2195.1 1082.43 2189.33L400.511 1483.18Z" stroke="white" stroke-width="3"/>
<path opacity="0.929293" d="M404.006 1479.53C398.54 1473.67 397.47 1464.96 401.356 1457.95L876.207 601.292C880.092 594.282 888.05 590.572 895.917 592.101L1857.38 778.991C1865.25 780.52 1871.23 786.941 1872.21 794.896L1991.58 1767.05C1992.55 1775.01 1988.3 1782.69 1981.03 1786.07L1093.34 2200.01C1086.08 2203.4 1077.46 2201.72 1072 2195.86L404.006 1479.53Z" stroke="white" stroke-width="3"/>
<path opacity="0.939394" d="M407.762 1475.91C402.399 1469.96 401.481 1461.22 405.488 1454.28L894.114 607.958C898.121 601.017 906.142 597.446 913.982 599.113L1869.88 802.295C1877.72 803.961 1883.59 810.486 1884.43 818.457L1986.58 1790.35C1987.42 1798.32 1983.03 1805.93 1975.71 1809.19L1082.94 2206.67C1075.62 2209.93 1067.03 2208.11 1061.67 2202.15L407.762 1475.91Z" stroke="white" stroke-width="3"/>
<path opacity="0.949495" d="M411.788 1472.33C406.53 1466.28 405.765 1457.53 409.893 1450.66L912.078 614.887C916.205 608.017 924.288 604.586 932.097 606.389L1882.15 825.727C1889.96 827.53 1895.72 834.156 1896.42 842.14L1981.4 1813.47C1982.1 1821.46 1977.58 1828.98 1970.2 1832.12L1072.67 2213.1C1065.29 2216.23 1056.73 2214.25 1051.47 2208.2L411.788 1472.33Z" stroke="white" stroke-width="3"/>
<path opacity="0.959596" d="M416.066 1468.78C410.914 1462.64 410.301 1453.88 414.548 1447.09L930.074 622.074C934.321 615.277 942.462 611.988 950.238 613.927L1894.18 849.278C1901.96 851.217 1907.6 857.943 1908.16 865.938L1976.02 1836.41C1976.58 1844.4 1971.93 1851.85 1964.5 1854.85L1062.5 2219.28C1055.06 2222.28 1046.55 2220.16 1041.39 2214.02L416.066 1468.78Z" stroke="white" stroke-width="3"/>
<path opacity="0.969697" d="M420.611 1465.28C415.567 1459.06 415.108 1450.29 419.473 1443.57L948.116 629.526C952.481 622.805 960.678 619.658 968.42 621.732L1905.98 872.95C1913.72 875.025 1919.24 881.848 1919.66 889.852L1970.46 1859.15C1970.88 1867.16 1966.1 1874.52 1958.62 1877.39L1052.46 2225.23C1044.97 2228.11 1036.49 2225.83 1031.45 2219.61L420.611 1465.28Z" stroke="white" stroke-width="3"/>
<path opacity="0.979798" d="M425.406 1461.83C420.472 1455.52 420.165 1446.74 424.647 1440.1L966.183 637.239C970.665 630.595 978.915 627.592 986.619 629.801L1917.53 896.735C1925.23 898.944 1930.64 905.863 1930.92 913.872L1964.72 1881.71C1964.99 1889.72 1960.09 1897 1952.55 1899.74L1042.53 2230.96C1035 2233.7 1026.56 2231.28 1021.63 2224.96L425.406 1461.83Z" stroke="white" stroke-width="3"/>
<path opacity="0.989899" d="M430.468 1458.43C425.644 1452.03 425.491 1443.25 430.088 1436.69L984.288 645.21C988.885 638.645 997.186 635.787 1004.85 638.13L1928.85 920.625C1936.51 922.968 1941.8 929.98 1941.94 937.993L1958.8 1904.06C1958.94 1912.08 1953.9 1919.27 1946.33 1921.88L1032.75 2236.45C1025.17 2239.06 1016.78 2236.49 1011.95 2230.09L430.468 1458.43Z" stroke="white" stroke-width="3"/>
<path d="M435.782 1455.09C431.071 1448.61 431.071 1439.83 435.782 1433.34L1002.41 653.443C1007.12 646.959 1015.47 644.246 1023.1 646.723L1939.92 944.619C1947.55 947.095 1952.71 954.198 1952.71 962.213L1952.71 1926.22C1952.71 1934.24 1947.55 1941.34 1939.92 1943.82L1023.1 2241.71C1015.47 2244.19 1007.12 2241.48 1002.41 2234.99L435.782 1455.09Z" stroke="white" stroke-width="3"/>
</g>
</g>
<rect width="1440" height="726" fill="url(#paint1_linear_1011_2582)"/>
<defs>
<filter id="filter0_f_1011_2582" x="45.999" y="-1075.62" width="1693.5" height="1242.61" filterUnits="userSpaceOnUse" color-interpolation-filters="sRGB">
<feFlood flood-opacity="0" result="BackgroundImageFix"/>
<feBlend mode="normal" in="SourceGraphic" in2="BackgroundImageFix" result="shape"/>
<feGaussianBlur stdDeviation="100" result="effect1_foregroundBlur_1011_2582"/>
</filter>
<radialGradient id="paint0_angular_1011_2582" cx="0" cy="0" r="1" gradientUnits="userSpaceOnUse" gradientTransform="translate(668.5 -569.999) rotate(-147.274) scale(362.548 362.548)">
<stop offset="0.111639" stop-color="#FAC69E" stop-opacity="0"/>
<stop offset="0.447787" stop-color="#111318"/>
<stop offset="0.897517" stop-color="#F79C55"/>
</radialGradient>
<linearGradient id="paint1_linear_1011_2582" x1="720" y1="0" x2="720" y2="726" gradientUnits="userSpaceOnUse">
<stop stop-color="#111318" stop-opacity="0"/>
<stop offset="1" stop-color="#111318"/>
</linearGradient>
</defs>
</svg>
