<svg width="592" height="526" viewBox="0 0 592 526" fill="none" xmlns="http://www.w3.org/2000/svg">
<rect width="592" height="526" rx="16" fill="#212530"/>
<rect x="8" y="140" width="576" height="378" rx="16" fill="#191C24"/>
<line x1="80.5" y1="192" x2="80.5" y2="448" stroke="#3A506A"/>
<line x1="158.5" y1="192" x2="158.5" y2="448" stroke="#3A506A"/>
<line x1="236.5" y1="192" x2="236.5" y2="448" stroke="#3A506A"/>
<line x1="314.5" y1="192" x2="314.5" y2="448" stroke="#3A506A"/>
<line x1="392.5" y1="192" x2="392.5" y2="448" stroke="#3A506A"/>
<line x1="470.5" y1="192" x2="470.5" y2="448" stroke="#3A506A"/>
<line x1="548.5" y1="192" x2="548.5" y2="448" stroke="#3A506A"/>
<path d="M37.2955 186.364V198H35.8864V187.841H35.8182L32.9773 189.727V188.295L35.8864 186.364H37.2955ZM44.2775 198.159C43.4214 198.159 42.6923 197.926 42.09 197.46C41.4877 196.991 41.0275 196.311 40.7093 195.42C40.3911 194.527 40.232 193.447 40.232 192.182C40.232 190.924 40.3911 189.85 40.7093 188.96C41.0313 188.066 41.4934 187.384 42.0957 186.915C42.7017 186.441 43.429 186.205 44.2775 186.205C45.126 186.205 45.8514 186.441 46.4536 186.915C47.0597 187.384 47.5218 188.066 47.84 188.96C48.162 189.85 48.323 190.924 48.323 192.182C48.323 193.447 48.1639 194.527 47.8457 195.42C47.5275 196.311 47.0673 196.991 46.465 197.46C45.8627 197.926 45.1336 198.159 44.2775 198.159ZM44.2775 196.909C45.126 196.909 45.7851 196.5 46.2548 195.682C46.7245 194.864 46.9593 193.697 46.9593 192.182C46.9593 191.174 46.8514 190.316 46.6355 189.608C46.4233 188.9 46.1165 188.36 45.715 187.989C45.3173 187.617 44.8381 187.432 44.2775 187.432C43.4366 187.432 42.7794 187.847 42.3059 188.676C41.8324 189.502 41.5957 190.67 41.5957 192.182C41.5957 193.189 41.7017 194.045 41.9139 194.75C42.126 195.455 42.4309 195.991 42.8286 196.358C43.2302 196.725 43.7131 196.909 44.2775 196.909ZM54.1175 198.159C53.2614 198.159 52.5323 197.926 51.93 197.46C51.3277 196.991 50.8675 196.311 50.5493 195.42C50.2311 194.527 50.072 193.447 50.072 192.182C50.072 190.924 50.2311 189.85 50.5493 188.96C50.8713 188.066 51.3334 187.384 51.9357 186.915C52.5417 186.441 53.269 186.205 54.1175 186.205C54.966 186.205 55.6914 186.441 56.2936 186.915C56.8997 187.384 57.3618 188.066 57.68 188.96C58.002 189.85 58.163 190.924 58.163 192.182C58.163 193.447 58.0039 194.527 57.6857 195.42C57.3675 196.311 56.9073 196.991 56.305 197.46C55.7027 197.926 54.9736 198.159 54.1175 198.159ZM54.1175 196.909C54.966 196.909 55.6251 196.5 56.0948 195.682C56.5645 194.864 56.7993 193.697 56.7993 192.182C56.7993 191.174 56.6914 190.316 56.4755 189.608C56.2633 188.9 55.9565 188.36 55.555 187.989C55.1573 187.617 54.6781 187.432 54.1175 187.432C53.2766 187.432 52.6194 187.847 52.1459 188.676C51.6724 189.502 51.4357 190.67 51.4357 192.182C51.4357 193.189 51.5417 194.045 51.7539 194.75C51.966 195.455 52.2709 195.991 52.6686 196.358C53.0702 196.725 53.5531 196.909 54.1175 196.909ZM66.0939 195.818V195.205C66.0939 194.78 66.181 194.392 66.3552 194.04C66.5333 193.684 66.7908 193.4 67.128 193.188C67.4689 192.972 67.8817 192.864 68.3666 192.864C68.859 192.864 69.2719 192.972 69.6052 193.188C69.9386 193.4 70.1905 193.684 70.3609 194.04C70.5314 194.392 70.6166 194.78 70.6166 195.205V195.818C70.6166 196.242 70.5295 196.633 70.3552 196.989C70.1848 197.341 69.931 197.625 69.5939 197.841C69.2605 198.053 68.8514 198.159 68.3666 198.159C67.8742 198.159 67.4594 198.053 67.1223 197.841C66.7852 197.625 66.5295 197.341 66.3552 196.989C66.181 196.633 66.0939 196.242 66.0939 195.818ZM67.253 195.205V195.818C67.253 196.17 67.3363 196.487 67.503 196.767C67.6696 197.044 67.9575 197.182 68.3666 197.182C68.7643 197.182 69.0446 197.044 69.2075 196.767C69.3742 196.487 69.4575 196.17 69.4575 195.818V195.205C69.4575 194.852 69.378 194.538 69.2189 194.261C69.0598 193.981 68.7757 193.841 68.3666 193.841C67.9689 193.841 67.6829 193.981 67.5086 194.261C67.3382 194.538 67.253 194.852 67.253 195.205ZM60.2984 189.159V188.545C60.2984 188.121 60.3855 187.733 60.5598 187.381C60.7378 187.025 60.9954 186.741 61.3325 186.528C61.6734 186.312 62.0863 186.205 62.5711 186.205C63.0636 186.205 63.4764 186.312 63.8098 186.528C64.1431 186.741 64.395 187.025 64.5655 187.381C64.7359 187.733 64.8211 188.121 64.8211 188.545V189.159C64.8211 189.583 64.734 189.973 64.5598 190.33C64.3893 190.682 64.1355 190.966 63.7984 191.182C63.4651 191.394 63.056 191.5 62.5711 191.5C62.0787 191.5 61.6639 191.394 61.3268 191.182C60.9897 190.966 60.734 190.682 60.5598 190.33C60.3855 189.973 60.2984 189.583 60.2984 189.159ZM61.4575 188.545V189.159C61.4575 189.511 61.5408 189.828 61.7075 190.108C61.8742 190.384 62.162 190.523 62.5711 190.523C62.9689 190.523 63.2492 190.384 63.412 190.108C63.5787 189.828 63.662 189.511 63.662 189.159V188.545C63.662 188.193 63.5825 187.879 63.4234 187.602C63.2643 187.322 62.9802 187.182 62.5711 187.182C62.1734 187.182 61.8874 187.322 61.7132 187.602C61.5427 187.879 61.4575 188.193 61.4575 188.545ZM60.7302 198L68.7302 186.364H70.0257L62.0257 198H60.7302Z" fill="#9999B3"/>
<line x1="80" y1="191.5" x2="548" y2="191.5" stroke="#3A506A"/>
<path d="M33.5682 262L38.7727 251.705V251.614H32.7727V250.364H40.2273V251.682L35.0455 262H33.5682ZM45.6653 262.159C44.9986 262.159 44.3982 262.027 43.8641 261.761C43.3301 261.496 42.902 261.133 42.5801 260.67C42.2581 260.208 42.082 259.682 42.0516 259.091H43.4153C43.4683 259.617 43.707 260.053 44.1312 260.398C44.5592 260.739 45.0706 260.909 45.6653 260.909C46.1426 260.909 46.5668 260.797 46.938 260.574C47.313 260.35 47.6066 260.044 47.8187 259.653C48.0346 259.259 48.1426 258.814 48.1426 258.318C48.1426 257.811 48.0308 257.358 47.8073 256.96C47.5876 256.559 47.2846 256.242 46.8982 256.011C46.5119 255.78 46.0706 255.663 45.5744 255.659C45.2183 255.655 44.8528 255.71 44.4778 255.824C44.1028 255.934 43.7941 256.076 43.5516 256.25L42.2335 256.091L42.938 250.364H48.9835V251.614H44.1198L43.7107 255.045H43.7789C44.0176 254.856 44.3168 254.699 44.6766 254.574C45.0365 254.449 45.4115 254.386 45.8016 254.386C46.5138 254.386 47.1482 254.557 47.7051 254.898C48.2657 255.235 48.7051 255.697 49.0232 256.284C49.3452 256.871 49.5062 257.542 49.5062 258.295C49.5062 259.038 49.3395 259.701 49.0062 260.284C48.6766 260.864 48.2221 261.322 47.6426 261.659C47.063 261.992 46.4039 262.159 45.6653 262.159ZM57.5351 259.818V259.205C57.5351 258.78 57.6222 258.392 57.7965 258.04C57.9745 257.684 58.2321 257.4 58.5692 257.188C58.9101 256.972 59.323 256.864 59.8078 256.864C60.3003 256.864 60.7131 256.972 61.0465 257.188C61.3798 257.4 61.6317 257.684 61.8022 258.04C61.9726 258.392 62.0578 258.78 62.0578 259.205V259.818C62.0578 260.242 61.9707 260.633 61.7965 260.989C61.626 261.341 61.3722 261.625 61.0351 261.841C60.7018 262.053 60.2927 262.159 59.8078 262.159C59.3154 262.159 58.9006 262.053 58.5635 261.841C58.2264 261.625 57.9707 261.341 57.7965 260.989C57.6222 260.633 57.5351 260.242 57.5351 259.818ZM58.6942 259.205V259.818C58.6942 260.17 58.7775 260.487 58.9442 260.767C59.1109 261.044 59.3988 261.182 59.8078 261.182C60.2056 261.182 60.4859 261.044 60.6488 260.767C60.8154 260.487 60.8988 260.17 60.8988 259.818V259.205C60.8988 258.852 60.8192 258.538 60.6601 258.261C60.501 257.981 60.2169 257.841 59.8078 257.841C59.4101 257.841 59.1241 257.981 58.9499 258.261C58.7794 258.538 58.6942 258.852 58.6942 259.205ZM51.7397 253.159V252.545C51.7397 252.121 51.8268 251.733 52.001 251.381C52.1791 251.025 52.4366 250.741 52.7738 250.528C53.1147 250.312 53.5275 250.205 54.0124 250.205C54.5048 250.205 54.9177 250.312 55.251 250.528C55.5844 250.741 55.8363 251.025 56.0067 251.381C56.1772 251.733 56.2624 252.121 56.2624 252.545V253.159C56.2624 253.583 56.1753 253.973 56.001 254.33C55.8306 254.682 55.5768 254.966 55.2397 255.182C54.9063 255.394 54.4972 255.5 54.0124 255.5C53.52 255.5 53.1052 255.394 52.7681 255.182C52.4309 254.966 52.1753 254.682 52.001 254.33C51.8268 253.973 51.7397 253.583 51.7397 253.159ZM52.8988 252.545V253.159C52.8988 253.511 52.9821 253.828 53.1488 254.108C53.3154 254.384 53.6033 254.523 54.0124 254.523C54.4101 254.523 54.6904 254.384 54.8533 254.108C55.02 253.828 55.1033 253.511 55.1033 253.159V252.545C55.1033 252.193 55.0238 251.879 54.8647 251.602C54.7056 251.322 54.4215 251.182 54.0124 251.182C53.6147 251.182 53.3287 251.322 53.1544 251.602C52.984 251.879 52.8988 252.193 52.8988 252.545ZM52.1715 262L60.1715 250.364H61.4669L53.4669 262H52.1715Z" fill="#9999B3"/>
<line x1="80" y1="255.5" x2="548" y2="255.5" stroke="#3A506A"/>
<path d="M36.8409 326.159C36.1742 326.159 35.5739 326.027 35.0398 325.761C34.5057 325.496 34.0777 325.133 33.7557 324.67C33.4337 324.208 33.2576 323.682 33.2273 323.091H34.5909C34.6439 323.617 34.8826 324.053 35.3068 324.398C35.7348 324.739 36.2462 324.909 36.8409 324.909C37.3182 324.909 37.7424 324.797 38.1136 324.574C38.4886 324.35 38.7822 324.044 38.9943 323.653C39.2102 323.259 39.3182 322.814 39.3182 322.318C39.3182 321.811 39.2064 321.358 38.983 320.96C38.7633 320.559 38.4602 320.242 38.0739 320.011C37.6875 319.78 37.2462 319.663 36.75 319.659C36.3939 319.655 36.0284 319.71 35.6534 319.824C35.2784 319.934 34.9697 320.076 34.7273 320.25L33.4091 320.091L34.1136 314.364H40.1591V315.614H35.2955L34.8864 319.045H34.9545C35.1932 318.856 35.4924 318.699 35.8523 318.574C36.2121 318.449 36.5871 318.386 36.9773 318.386C37.6894 318.386 38.3239 318.557 38.8807 318.898C39.4413 319.235 39.8807 319.697 40.1989 320.284C40.5208 320.871 40.6818 321.542 40.6818 322.295C40.6818 323.038 40.5152 323.701 40.1818 324.284C39.8523 324.864 39.3977 325.322 38.8182 325.659C38.2386 325.992 37.5795 326.159 36.8409 326.159ZM46.5744 326.159C45.7183 326.159 44.9891 325.926 44.3869 325.46C43.7846 324.991 43.3244 324.311 43.0062 323.42C42.688 322.527 42.5289 321.447 42.5289 320.182C42.5289 318.924 42.688 317.85 43.0062 316.96C43.3282 316.066 43.7903 315.384 44.3926 314.915C44.9986 314.441 45.7259 314.205 46.5744 314.205C47.4229 314.205 48.1482 314.441 48.7505 314.915C49.3566 315.384 49.8187 316.066 50.1369 316.96C50.4588 317.85 50.6198 318.924 50.6198 320.182C50.6198 321.447 50.4607 322.527 50.1426 323.42C49.8244 324.311 49.3641 324.991 48.7619 325.46C48.1596 325.926 47.4304 326.159 46.5744 326.159ZM46.5744 324.909C47.4229 324.909 48.082 324.5 48.5516 323.682C49.0213 322.864 49.2562 321.697 49.2562 320.182C49.2562 319.174 49.1482 318.316 48.9323 317.608C48.7202 316.9 48.4134 316.36 48.0119 315.989C47.6141 315.617 47.135 315.432 46.5744 315.432C45.7335 315.432 45.0763 315.847 44.6028 316.676C44.1293 317.502 43.8926 318.67 43.8926 320.182C43.8926 321.189 43.9986 322.045 44.2107 322.75C44.4229 323.455 44.7278 323.991 45.1255 324.358C45.527 324.725 46.01 324.909 46.5744 324.909ZM58.5507 323.818V323.205C58.5507 322.78 58.6379 322.392 58.8121 322.04C58.9901 321.684 59.2477 321.4 59.5848 321.188C59.9257 320.972 60.3386 320.864 60.8235 320.864C61.3159 320.864 61.7288 320.972 62.0621 321.188C62.3954 321.4 62.6473 321.684 62.8178 322.04C62.9882 322.392 63.0735 322.78 63.0735 323.205V323.818C63.0735 324.242 62.9863 324.633 62.8121 324.989C62.6416 325.341 62.3879 325.625 62.0507 325.841C61.7174 326.053 61.3083 326.159 60.8235 326.159C60.331 326.159 59.9163 326.053 59.5791 325.841C59.242 325.625 58.9863 325.341 58.8121 324.989C58.6379 324.633 58.5507 324.242 58.5507 323.818ZM59.7098 323.205V323.818C59.7098 324.17 59.7932 324.487 59.9598 324.767C60.1265 325.044 60.4144 325.182 60.8235 325.182C61.2212 325.182 61.5015 325.044 61.6644 324.767C61.831 324.487 61.9144 324.17 61.9144 323.818V323.205C61.9144 322.852 61.8348 322.538 61.6757 322.261C61.5166 321.981 61.2326 321.841 60.8235 321.841C60.4257 321.841 60.1398 321.981 59.9655 322.261C59.7951 322.538 59.7098 322.852 59.7098 323.205ZM52.7553 317.159V316.545C52.7553 316.121 52.8424 315.733 53.0166 315.381C53.1947 315.025 53.4523 314.741 53.7894 314.528C54.1303 314.312 54.5432 314.205 55.028 314.205C55.5204 314.205 55.9333 314.312 56.2666 314.528C56.6 314.741 56.8519 315.025 57.0223 315.381C57.1928 315.733 57.278 316.121 57.278 316.545V317.159C57.278 317.583 57.1909 317.973 57.0166 318.33C56.8462 318.682 56.5924 318.966 56.2553 319.182C55.922 319.394 55.5129 319.5 55.028 319.5C54.5356 319.5 54.1208 319.394 53.7837 319.182C53.4466 318.966 53.1909 318.682 53.0166 318.33C52.8424 317.973 52.7553 317.583 52.7553 317.159ZM53.9144 316.545V317.159C53.9144 317.511 53.9977 317.828 54.1644 318.108C54.331 318.384 54.6189 318.523 55.028 318.523C55.4257 318.523 55.706 318.384 55.8689 318.108C56.0356 317.828 56.1189 317.511 56.1189 317.159V316.545C56.1189 316.193 56.0394 315.879 55.8803 315.602C55.7212 315.322 55.4371 315.182 55.028 315.182C54.6303 315.182 54.3443 315.322 54.1701 315.602C53.9996 315.879 53.9144 316.193 53.9144 316.545ZM53.1871 326L61.1871 314.364H62.4826L54.4826 326H53.1871Z" fill="#9999B3"/>
<line x1="80" y1="319.5" x2="548" y2="319.5" stroke="#3A506A"/>
<path d="M33.2045 390V388.977L37.0455 384.773C37.4962 384.28 37.8674 383.852 38.1591 383.489C38.4508 383.121 38.6667 382.777 38.8068 382.455C38.9508 382.129 39.0227 381.788 39.0227 381.432C39.0227 381.023 38.9242 380.669 38.7273 380.369C38.5341 380.07 38.2689 379.839 37.9318 379.676C37.5947 379.513 37.2159 379.432 36.7955 379.432C36.3485 379.432 35.9583 379.525 35.625 379.71C35.2955 379.892 35.0398 380.148 34.858 380.477C34.6799 380.807 34.5909 381.193 34.5909 381.636H33.25C33.25 380.955 33.4072 380.356 33.7216 379.841C34.036 379.326 34.464 378.924 35.0057 378.636C35.5511 378.348 36.1629 378.205 36.8409 378.205C37.5227 378.205 38.1269 378.348 38.6534 378.636C39.1799 378.924 39.5928 379.312 39.892 379.801C40.1913 380.29 40.3409 380.833 40.3409 381.432C40.3409 381.86 40.2633 382.278 40.108 382.688C39.9564 383.093 39.6913 383.545 39.3125 384.045C38.9375 384.542 38.4167 385.148 37.75 385.864L35.1364 388.659V388.75H40.5455V390H33.2045ZM46.3684 390.159C45.7017 390.159 45.1014 390.027 44.5673 389.761C44.0332 389.496 43.6052 389.133 43.2832 388.67C42.9612 388.208 42.7851 387.682 42.7548 387.091H44.1184C44.1714 387.617 44.4101 388.053 44.8343 388.398C45.2623 388.739 45.7737 388.909 46.3684 388.909C46.8457 388.909 47.2699 388.797 47.6411 388.574C48.0161 388.35 48.3097 388.044 48.5218 387.653C48.7377 387.259 48.8457 386.814 48.8457 386.318C48.8457 385.811 48.7339 385.358 48.5105 384.96C48.2908 384.559 47.9877 384.242 47.6014 384.011C47.215 383.78 46.7737 383.663 46.2775 383.659C45.9214 383.655 45.5559 383.71 45.1809 383.824C44.8059 383.934 44.4972 384.076 44.2548 384.25L42.9366 384.091L43.6411 378.364H49.6866V379.614H44.823L44.4139 383.045H44.482C44.7207 382.856 45.0199 382.699 45.3798 382.574C45.7396 382.449 46.1146 382.386 46.5048 382.386C47.2169 382.386 47.8514 382.557 48.4082 382.898C48.9688 383.235 49.4082 383.697 49.7264 384.284C50.0483 384.871 50.2093 385.542 50.2093 386.295C50.2093 387.038 50.0427 387.701 49.7093 388.284C49.3798 388.864 48.9252 389.322 48.3457 389.659C47.7661 389.992 47.107 390.159 46.3684 390.159ZM58.2382 387.818V387.205C58.2382 386.78 58.3254 386.392 58.4996 386.04C58.6776 385.684 58.9352 385.4 59.2723 385.188C59.6132 384.972 60.0261 384.864 60.511 384.864C61.0034 384.864 61.4163 384.972 61.7496 385.188C62.0829 385.4 62.3348 385.684 62.5053 386.04C62.6757 386.392 62.761 386.78 62.761 387.205V387.818C62.761 388.242 62.6738 388.633 62.4996 388.989C62.3291 389.341 62.0754 389.625 61.7382 389.841C61.4049 390.053 60.9958 390.159 60.511 390.159C60.0185 390.159 59.6038 390.053 59.2666 389.841C58.9295 389.625 58.6738 389.341 58.4996 388.989C58.3254 388.633 58.2382 388.242 58.2382 387.818ZM59.3973 387.205V387.818C59.3973 388.17 59.4807 388.487 59.6473 388.767C59.814 389.044 60.1019 389.182 60.511 389.182C60.9087 389.182 61.189 389.044 61.3519 388.767C61.5185 388.487 61.6019 388.17 61.6019 387.818V387.205C61.6019 386.852 61.5223 386.538 61.3632 386.261C61.2041 385.981 60.9201 385.841 60.511 385.841C60.1132 385.841 59.8273 385.981 59.653 386.261C59.4826 386.538 59.3973 386.852 59.3973 387.205ZM52.4428 381.159V380.545C52.4428 380.121 52.5299 379.733 52.7041 379.381C52.8822 379.025 53.1398 378.741 53.4769 378.528C53.8178 378.312 54.2307 378.205 54.7155 378.205C55.2079 378.205 55.6208 378.312 55.9541 378.528C56.2875 378.741 56.5394 379.025 56.7098 379.381C56.8803 379.733 56.9655 380.121 56.9655 380.545V381.159C56.9655 381.583 56.8784 381.973 56.7041 382.33C56.5337 382.682 56.2799 382.966 55.9428 383.182C55.6095 383.394 55.2004 383.5 54.7155 383.5C54.2231 383.5 53.8083 383.394 53.4712 383.182C53.1341 382.966 52.8784 382.682 52.7041 382.33C52.5299 381.973 52.4428 381.583 52.4428 381.159ZM53.6019 380.545V381.159C53.6019 381.511 53.6852 381.828 53.8519 382.108C54.0185 382.384 54.3064 382.523 54.7155 382.523C55.1132 382.523 55.3935 382.384 55.5564 382.108C55.7231 381.828 55.8064 381.511 55.8064 381.159V380.545C55.8064 380.193 55.7269 379.879 55.5678 379.602C55.4087 379.322 55.1246 379.182 54.7155 379.182C54.3178 379.182 54.0318 379.322 53.8576 379.602C53.6871 379.879 53.6019 380.193 53.6019 380.545ZM52.8746 390L60.8746 378.364H62.1701L54.1701 390H52.8746Z" fill="#9999B3"/>
<line x1="80" y1="383.5" x2="548" y2="383.5" stroke="#3A506A"/>
<path d="M37 454.159C36.1439 454.159 35.4148 453.926 34.8125 453.46C34.2102 452.991 33.75 452.311 33.4318 451.42C33.1136 450.527 32.9545 449.447 32.9545 448.182C32.9545 446.924 33.1136 445.85 33.4318 444.96C33.7538 444.066 34.2159 443.384 34.8182 442.915C35.4242 442.441 36.1515 442.205 37 442.205C37.8485 442.205 38.5739 442.441 39.1761 442.915C39.7822 443.384 40.2443 444.066 40.5625 444.96C40.8845 445.85 41.0455 446.924 41.0455 448.182C41.0455 449.447 40.8864 450.527 40.5682 451.42C40.25 452.311 39.7898 452.991 39.1875 453.46C38.5852 453.926 37.8561 454.159 37 454.159ZM37 452.909C37.8485 452.909 38.5076 452.5 38.9773 451.682C39.447 450.864 39.6818 449.697 39.6818 448.182C39.6818 447.174 39.5739 446.316 39.358 445.608C39.1458 444.9 38.839 444.36 38.4375 443.989C38.0398 443.617 37.5606 443.432 37 443.432C36.1591 443.432 35.5019 443.847 35.0284 444.676C34.5549 445.502 34.3182 446.67 34.3182 448.182C34.3182 449.189 34.4242 450.045 34.6364 450.75C34.8485 451.455 35.1534 451.991 35.5511 452.358C35.9527 452.725 36.4356 452.909 37 452.909ZM48.9764 451.818V451.205C48.9764 450.78 49.0635 450.392 49.2377 450.04C49.4158 449.684 49.6733 449.4 50.0105 449.188C50.3514 448.972 50.7642 448.864 51.2491 448.864C51.7415 448.864 52.1544 448.972 52.4877 449.188C52.8211 449.4 53.073 449.684 53.2434 450.04C53.4139 450.392 53.4991 450.78 53.4991 451.205V451.818C53.4991 452.242 53.412 452.633 53.2377 452.989C53.0673 453.341 52.8135 453.625 52.4764 453.841C52.143 454.053 51.7339 454.159 51.2491 454.159C50.7567 454.159 50.3419 454.053 50.0048 453.841C49.6677 453.625 49.412 453.341 49.2377 452.989C49.0635 452.633 48.9764 452.242 48.9764 451.818ZM50.1355 451.205V451.818C50.1355 452.17 50.2188 452.487 50.3855 452.767C50.5521 453.044 50.84 453.182 51.2491 453.182C51.6468 453.182 51.9271 453.044 52.09 452.767C52.2567 452.487 52.34 452.17 52.34 451.818V451.205C52.34 450.852 52.2605 450.538 52.1014 450.261C51.9423 449.981 51.6582 449.841 51.2491 449.841C50.8514 449.841 50.5654 449.981 50.3911 450.261C50.2207 450.538 50.1355 450.852 50.1355 451.205ZM43.1809 445.159V444.545C43.1809 444.121 43.268 443.733 43.4423 443.381C43.6203 443.025 43.8779 442.741 44.215 442.528C44.5559 442.312 44.9688 442.205 45.4536 442.205C45.9461 442.205 46.3589 442.312 46.6923 442.528C47.0256 442.741 47.2775 443.025 47.448 443.381C47.6184 443.733 47.7036 444.121 47.7036 444.545V445.159C47.7036 445.583 47.6165 445.973 47.4423 446.33C47.2718 446.682 47.018 446.966 46.6809 447.182C46.3476 447.394 45.9385 447.5 45.4536 447.5C44.9612 447.5 44.5464 447.394 44.2093 447.182C43.8722 446.966 43.6165 446.682 43.4423 446.33C43.268 445.973 43.1809 445.583 43.1809 445.159ZM44.34 444.545V445.159C44.34 445.511 44.4233 445.828 44.59 446.108C44.7567 446.384 45.0445 446.523 45.4536 446.523C45.8514 446.523 46.1317 446.384 46.2945 446.108C46.4612 445.828 46.5445 445.511 46.5445 445.159V444.545C46.5445 444.193 46.465 443.879 46.3059 443.602C46.1468 443.322 45.8627 443.182 45.4536 443.182C45.0559 443.182 44.7699 443.322 44.5957 443.602C44.4252 443.879 44.34 444.193 44.34 444.545ZM43.6127 454L51.6127 442.364H52.9082L44.9082 454H43.6127Z" fill="#9999B3"/>
<line x1="80" y1="447.5" x2="548" y2="447.5" stroke="#3A506A"/>
<path d="M145.727 354.805L109.794 417.989C109.438 418.614 108.774 419 108.055 419H546C547.105 419 548 418.105 548 417V353.066C548 352.737 547.919 352.413 547.763 352.123L510.505 282.495C509.707 281.003 507.531 281.115 506.891 282.681L491.583 320.092C491.275 320.843 490.544 321.334 489.732 321.334H461.59C461.111 321.334 460.649 321.163 460.286 320.851L423.002 288.779C422.714 288.532 422.503 288.208 422.393 287.846L409.722 246.289C409.122 244.321 406.3 244.432 405.856 246.441L389.66 319.766C389.457 320.682 388.645 321.334 387.707 321.334H343.248C342.463 321.334 341.751 320.876 341.427 320.161L332.827 301.215C332.097 299.607 329.793 299.665 329.145 301.308L305.18 362.087C304.878 362.851 304.14 363.353 303.319 363.353H287.619C286.694 363.353 285.889 362.718 285.674 361.818L280.387 339.683C279.94 337.812 277.367 337.589 276.605 339.357L255.355 388.669C254.63 390.351 252.213 390.255 251.625 388.52L208.32 260.834C207.714 259.047 205.198 259.016 204.548 260.787L165.691 366.715C165.193 368.073 163.463 368.469 162.424 367.465L148.855 354.356C147.916 353.448 146.372 353.67 145.727 354.805Z" fill="url(#paint0_linear_1011_3199)"/>
<path d="M80 419H108.055C108.774 419 109.438 418.614 109.794 417.989L145.727 354.805C146.372 353.67 147.916 353.448 148.855 354.356L162.424 367.465C163.463 368.47 165.193 368.073 165.691 366.715L204.548 260.787C205.198 259.016 207.714 259.047 208.32 260.834L251.625 388.52C252.213 390.255 254.63 390.351 255.355 388.669L276.605 339.357C277.367 337.589 279.94 337.812 280.387 339.683L285.674 361.818C285.889 362.718 286.694 363.353 287.619 363.353H303.319C304.14 363.353 304.878 362.851 305.18 362.087L329.145 301.308C329.793 299.665 332.097 299.607 332.827 301.215L341.427 320.161C341.751 320.876 342.463 321.334 343.248 321.334H387.707C388.645 321.334 389.457 320.682 389.66 319.766L405.856 246.441C406.3 244.432 409.122 244.321 409.722 246.289L422.393 287.846C422.503 288.208 422.714 288.532 423.002 288.779L460.286 320.851C460.649 321.163 461.111 321.334 461.59 321.334H489.732C490.544 321.334 491.275 320.843 491.583 320.092L506.891 282.681C507.531 281.115 509.707 281.003 510.505 282.495L548 352.565" stroke="#F47A1A" stroke-width="3"/>
<path d="M95.3976 489.139C94.7414 489.139 94.1564 489.027 93.6427 488.801C93.1323 488.576 92.7262 488.263 92.4246 487.862C92.1263 487.457 91.9639 486.988 91.9374 486.455H93.1903C93.2168 486.783 93.3295 487.066 93.5283 487.305C93.7272 487.54 93.9874 487.722 94.3089 487.852C94.6304 487.981 94.9867 488.045 95.3778 488.045C95.8153 488.045 96.203 487.969 96.5411 487.817C96.8792 487.664 97.1443 487.452 97.3366 487.18C97.5288 486.909 97.6249 486.594 97.6249 486.236C97.6249 485.861 97.5321 485.531 97.3465 485.246C97.1609 484.958 96.8891 484.733 96.5312 484.57C96.1732 484.408 95.7357 484.327 95.2187 484.327H94.4033V483.233H95.2187C95.623 483.233 95.9777 483.16 96.2826 483.014C96.5908 482.868 96.8311 482.663 97.0035 482.398C97.1791 482.133 97.267 481.821 97.267 481.463C97.267 481.118 97.1907 480.818 97.0383 480.563C96.8858 480.308 96.6704 480.109 96.392 479.967C96.1169 479.824 95.7921 479.753 95.4175 479.753C95.0662 479.753 94.7348 479.817 94.4232 479.947C94.115 480.073 93.8631 480.257 93.6675 480.499C93.472 480.737 93.3659 481.026 93.3493 481.364H92.1562C92.176 480.83 92.3368 480.363 92.6384 479.962C92.94 479.557 93.3344 479.242 93.8216 479.017C94.3122 478.792 94.8508 478.679 95.4374 478.679C96.0671 478.679 96.6074 478.807 97.0581 479.062C97.5089 479.314 97.8553 479.647 98.0972 480.061C98.3392 480.475 98.4601 480.923 98.4601 481.403C98.4601 481.977 98.3093 482.466 98.0077 482.87C97.7094 483.274 97.3034 483.554 96.7897 483.71V483.79C97.4327 483.896 97.9348 484.169 98.2961 484.61C98.6573 485.048 98.838 485.589 98.838 486.236C98.838 486.789 98.6872 487.286 98.3856 487.727C98.0873 488.165 97.6796 488.509 97.1626 488.761C96.6455 489.013 96.0572 489.139 95.3976 489.139ZM104.988 489V478.818H108.428C109.227 478.818 109.88 478.962 110.387 479.251C110.897 479.536 111.275 479.922 111.521 480.409C111.766 480.896 111.888 481.44 111.888 482.04C111.888 482.64 111.766 483.185 111.521 483.675C111.279 484.166 110.904 484.557 110.397 484.849C109.89 485.137 109.24 485.281 108.448 485.281H105.982V484.188H108.408C108.955 484.188 109.394 484.093 109.726 483.904C110.057 483.715 110.297 483.46 110.447 483.138C110.599 482.814 110.675 482.447 110.675 482.04C110.675 481.632 110.599 481.268 110.447 480.946C110.297 480.625 110.056 480.373 109.721 480.19C109.386 480.005 108.942 479.912 108.388 479.912H106.221V489H104.988ZM113.875 478.818H115.346L118.806 487.27H118.926L122.386 478.818H123.858V489H122.704V481.264H122.605L119.423 489H118.309L115.127 481.264H115.028V489H113.875V478.818Z" fill="#9999B3"/>
<path d="M161.684 486.912V485.898L166.159 478.818H166.895V480.389H166.398L163.017 485.739V485.818H169.042V486.912H161.684ZM166.477 489V486.604V486.131V478.818H167.65V489H166.477ZM175.022 489V478.818H178.462C179.261 478.818 179.914 478.962 180.421 479.251C180.932 479.536 181.309 479.922 181.555 480.409C181.8 480.896 181.923 481.44 181.923 482.04C181.923 482.64 181.8 483.185 181.555 483.675C181.313 484.166 180.938 484.557 180.431 484.849C179.924 485.137 179.274 485.281 178.482 485.281H176.016V484.188H178.442C178.989 484.188 179.429 484.093 179.76 483.904C180.091 483.715 180.332 483.46 180.481 483.138C180.633 482.814 180.71 482.447 180.71 482.04C180.71 481.632 180.633 481.268 180.481 480.946C180.332 480.625 180.09 480.373 179.755 480.19C179.42 480.005 178.976 479.912 178.423 479.912H176.255V489H175.022ZM183.909 478.818H185.38L188.841 487.27H188.96L192.42 478.818H193.892V489H192.738V481.264H192.639L189.457 489H188.343L185.162 481.264H185.062V489H183.909V478.818Z" fill="#9999B3"/>
<path d="M235.337 489.139C234.754 489.139 234.229 489.023 233.761 488.791C233.294 488.559 232.92 488.241 232.638 487.837C232.356 487.432 232.202 486.972 232.175 486.455H233.369C233.415 486.915 233.624 487.296 233.995 487.598C234.37 487.896 234.817 488.045 235.337 488.045C235.755 488.045 236.126 487.948 236.451 487.752C236.779 487.557 237.036 487.288 237.222 486.947C237.411 486.602 237.505 486.213 237.505 485.778C237.505 485.334 237.407 484.938 237.212 484.59C237.019 484.239 236.754 483.962 236.416 483.76C236.078 483.558 235.692 483.455 235.258 483.452C234.946 483.448 234.626 483.496 234.298 483.596C233.97 483.692 233.7 483.816 233.488 483.969L232.335 483.83L232.951 478.818H238.241V479.912H233.985L233.627 482.915H233.687C233.896 482.749 234.157 482.612 234.472 482.502C234.787 482.393 235.115 482.338 235.457 482.338C236.08 482.338 236.635 482.487 237.122 482.786C237.613 483.08 237.997 483.485 238.276 483.999C238.557 484.512 238.698 485.099 238.698 485.759C238.698 486.408 238.552 486.988 238.261 487.499C237.972 488.006 237.575 488.407 237.067 488.702C236.56 488.993 235.984 489.139 235.337 489.139ZM244.79 489V478.818H248.23C249.029 478.818 249.682 478.962 250.189 479.251C250.699 479.536 251.077 479.922 251.322 480.409C251.568 480.896 251.69 481.44 251.69 482.04C251.69 482.64 251.568 483.185 251.322 483.675C251.08 484.166 250.706 484.557 250.199 484.849C249.692 485.137 249.042 485.281 248.25 485.281H245.784V484.188H248.21C248.757 484.188 249.196 484.093 249.528 483.904C249.859 483.715 250.099 483.46 250.248 483.138C250.401 482.814 250.477 482.447 250.477 482.04C250.477 481.632 250.401 481.268 250.248 480.946C250.099 480.625 249.857 480.373 249.523 480.19C249.188 480.005 248.744 479.912 248.19 479.912H246.023V489H244.79ZM253.676 478.818H255.148L258.608 487.27H258.727L262.188 478.818H263.659V489H262.506V481.264H262.406L259.225 489H258.111L254.929 481.264H254.83V489H253.676V478.818Z" fill="#9999B3"/>
<path d="M305.427 489.139C305.009 489.133 304.592 489.053 304.174 488.901C303.756 488.748 303.375 488.491 303.031 488.13C302.686 487.765 302.409 487.273 302.2 486.653C301.991 486.03 301.887 485.248 301.887 484.307C301.887 483.405 301.972 482.607 302.141 481.911C302.31 481.211 302.555 480.623 302.876 480.146C303.198 479.665 303.586 479.3 304.04 479.052C304.497 478.803 305.013 478.679 305.586 478.679C306.156 478.679 306.663 478.793 307.107 479.022C307.555 479.247 307.919 479.562 308.201 479.967C308.483 480.371 308.665 480.837 308.748 481.364H307.535C307.422 480.906 307.203 480.527 306.879 480.225C306.554 479.924 306.123 479.773 305.586 479.773C304.797 479.773 304.176 480.116 303.722 480.802C303.271 481.488 303.044 482.451 303.04 483.69H303.12C303.306 483.409 303.526 483.168 303.781 482.969C304.04 482.767 304.325 482.612 304.636 482.502C304.948 482.393 305.278 482.338 305.626 482.338C306.209 482.338 306.743 482.484 307.227 482.776C307.71 483.064 308.098 483.463 308.39 483.974C308.682 484.481 308.827 485.062 308.827 485.719C308.827 486.348 308.687 486.925 308.405 487.449C308.123 487.969 307.727 488.384 307.217 488.692C306.71 488.997 306.113 489.146 305.427 489.139ZM305.427 488.045C305.844 488.045 306.219 487.941 306.55 487.732C306.885 487.523 307.149 487.243 307.341 486.892C307.536 486.541 307.634 486.15 307.634 485.719C307.634 485.298 307.54 484.915 307.351 484.57C307.165 484.222 306.908 483.946 306.58 483.74C306.255 483.535 305.884 483.432 305.467 483.432C305.152 483.432 304.858 483.495 304.587 483.621C304.315 483.743 304.076 483.912 303.871 484.128C303.669 484.343 303.509 484.59 303.393 484.869C303.277 485.144 303.219 485.434 303.219 485.739C303.219 486.143 303.314 486.521 303.503 486.872C303.695 487.223 303.957 487.507 304.288 487.722C304.623 487.938 305.003 488.045 305.427 488.045ZM314.899 489V478.818H318.339C319.138 478.818 319.791 478.962 320.298 479.251C320.809 479.536 321.186 479.922 321.432 480.409C321.677 480.896 321.8 481.44 321.8 482.04C321.8 482.64 321.677 483.185 321.432 483.675C321.19 484.166 320.815 484.557 320.308 484.849C319.801 485.137 319.151 485.281 318.359 485.281H315.893V484.188H318.319C318.866 484.188 319.305 484.093 319.637 483.904C319.968 483.715 320.209 483.46 320.358 483.138C320.51 482.814 320.586 482.447 320.586 482.04C320.586 481.632 320.51 481.268 320.358 480.946C320.209 480.625 319.967 480.373 319.632 480.19C319.297 480.005 318.853 479.912 318.3 479.912H316.132V489H314.899ZM323.786 478.818H325.257L328.718 487.27H328.837L332.297 478.818H333.769V489H332.615V481.264H332.516L329.334 489H328.22L325.039 481.264H324.939V489H323.786V478.818Z" fill="#9999B3"/>
<path d="M372.733 489L377.287 479.991V479.912H372.037V478.818H378.56V479.972L374.026 489H372.733ZM384.53 489V478.818H387.97C388.769 478.818 389.422 478.962 389.929 479.251C390.439 479.536 390.817 479.922 391.062 480.409C391.308 480.896 391.43 481.44 391.43 482.04C391.43 482.64 391.308 483.185 391.062 483.675C390.821 484.166 390.446 484.557 389.939 484.849C389.432 485.137 388.782 485.281 387.99 485.281H385.524V484.188H387.95C388.497 484.188 388.936 484.093 389.268 483.904C389.599 483.715 389.839 483.46 389.989 483.138C390.141 482.814 390.217 482.447 390.217 482.04C390.217 481.632 390.141 481.268 389.989 480.946C389.839 480.625 389.598 480.373 389.263 480.19C388.928 480.005 388.484 479.912 387.93 479.912H385.763V489H384.53ZM393.417 478.818H394.888L398.348 487.27H398.468L401.928 478.818H403.4V489H402.246V481.264H402.147L398.965 489H397.851L394.669 481.264H394.57V489H393.417V478.818Z" fill="#9999B3"/>
<path d="M445.362 489.139C444.679 489.139 444.076 489.018 443.553 488.776C443.032 488.531 442.626 488.195 442.335 487.767C442.043 487.336 441.899 486.846 441.902 486.295C441.899 485.865 441.983 485.467 442.156 485.102C442.328 484.734 442.563 484.428 442.862 484.183C443.163 483.934 443.5 483.777 443.871 483.71V483.651C443.384 483.525 442.996 483.251 442.707 482.83C442.419 482.406 442.277 481.924 442.28 481.384C442.277 480.866 442.407 480.404 442.673 479.996C442.938 479.589 443.302 479.267 443.766 479.032C444.234 478.797 444.766 478.679 445.362 478.679C445.952 478.679 446.479 478.797 446.943 479.032C447.407 479.267 447.772 479.589 448.037 479.996C448.305 480.404 448.441 480.866 448.445 481.384C448.441 481.924 448.294 482.406 448.002 482.83C447.714 483.251 447.331 483.525 446.854 483.651V483.71C447.222 483.777 447.553 483.934 447.848 484.183C448.143 484.428 448.378 484.734 448.554 485.102C448.73 485.467 448.819 485.865 448.822 486.295C448.819 486.846 448.67 487.336 448.375 487.767C448.083 488.195 447.677 488.531 447.157 488.776C446.64 489.018 446.042 489.139 445.362 489.139ZM445.362 488.045C445.823 488.045 446.221 487.971 446.555 487.822C446.89 487.673 447.149 487.462 447.331 487.19C447.513 486.919 447.606 486.6 447.609 486.236C447.606 485.851 447.507 485.512 447.311 485.217C447.116 484.922 446.849 484.69 446.511 484.521C446.176 484.352 445.793 484.267 445.362 484.267C444.928 484.267 444.54 484.352 444.199 484.521C443.861 484.69 443.594 484.922 443.398 485.217C443.206 485.512 443.112 485.851 443.115 486.236C443.112 486.6 443.2 486.919 443.379 487.19C443.561 487.462 443.821 487.673 444.159 487.822C444.497 487.971 444.898 488.045 445.362 488.045ZM445.362 483.213C445.727 483.213 446.05 483.14 446.332 482.994C446.617 482.848 446.84 482.645 447.003 482.383C447.165 482.121 447.248 481.814 447.251 481.463C447.248 481.118 447.167 480.818 447.008 480.563C446.849 480.305 446.628 480.106 446.347 479.967C446.065 479.824 445.737 479.753 445.362 479.753C444.981 479.753 444.648 479.824 444.363 479.967C444.078 480.106 443.857 480.305 443.702 480.563C443.546 480.818 443.47 481.118 443.473 481.463C443.47 481.814 443.548 482.121 443.707 482.383C443.869 482.645 444.093 482.848 444.378 482.994C444.663 483.14 444.991 483.213 445.362 483.213ZM454.844 489V478.818H458.285C459.083 478.818 459.736 478.962 460.243 479.251C460.754 479.536 461.132 479.922 461.377 480.409C461.622 480.896 461.745 481.44 461.745 482.04C461.745 482.64 461.622 483.185 461.377 483.675C461.135 484.166 460.76 484.557 460.253 484.849C459.746 485.137 459.097 485.281 458.305 485.281H455.839V484.188H458.265C458.812 484.188 459.251 484.093 459.582 483.904C459.914 483.715 460.154 483.46 460.303 483.138C460.456 482.814 460.532 482.447 460.532 482.04C460.532 481.632 460.456 481.268 460.303 480.946C460.154 480.625 459.912 480.373 459.577 480.19C459.242 480.005 458.798 479.912 458.245 479.912H456.077V489H454.844ZM463.731 478.818H465.203L468.663 487.27H468.782L472.242 478.818H473.714V489H472.561V481.264H472.461L469.279 489H468.166L464.984 481.264H464.884V489H463.731V478.818Z" fill="#9999B3"/>
<path d="M515.288 478.679C515.705 478.682 516.123 478.762 516.54 478.918C516.958 479.073 517.339 479.332 517.684 479.693C518.029 480.051 518.305 480.54 518.514 481.16C518.723 481.78 518.827 482.557 518.827 483.491C518.827 484.396 518.741 485.2 518.569 485.903C518.4 486.602 518.155 487.192 517.833 487.673C517.515 488.153 517.127 488.518 516.67 488.766C516.216 489.015 515.702 489.139 515.129 489.139C514.558 489.139 514.05 489.027 513.602 488.801C513.158 488.572 512.794 488.256 512.509 487.852C512.227 487.444 512.046 486.972 511.967 486.435H513.18C513.289 486.902 513.506 487.288 513.831 487.593C514.159 487.895 514.592 488.045 515.129 488.045C515.914 488.045 516.534 487.702 516.988 487.016C517.445 486.33 517.674 485.361 517.674 484.108H517.594C517.409 484.386 517.188 484.627 516.933 484.829C516.678 485.031 516.395 485.187 516.083 485.296C515.772 485.406 515.44 485.46 515.089 485.46C514.505 485.46 513.97 485.316 513.483 485.028C512.999 484.736 512.611 484.337 512.32 483.83C512.031 483.319 511.887 482.736 511.887 482.08C511.887 481.456 512.026 480.886 512.305 480.369C512.586 479.849 512.981 479.435 513.488 479.126C513.998 478.818 514.598 478.669 515.288 478.679ZM515.288 479.773C514.87 479.773 514.494 479.877 514.159 480.086C513.828 480.291 513.564 480.57 513.369 480.921C513.176 481.269 513.08 481.655 513.08 482.08C513.08 482.504 513.173 482.89 513.359 483.238C513.548 483.583 513.804 483.858 514.129 484.063C514.457 484.265 514.83 484.366 515.248 484.366C515.563 484.366 515.856 484.305 516.128 484.183C516.4 484.057 516.637 483.886 516.839 483.67C517.044 483.452 517.205 483.205 517.321 482.93C517.437 482.651 517.495 482.361 517.495 482.06C517.495 481.662 517.399 481.289 517.207 480.941C517.018 480.593 516.756 480.311 516.421 480.096C516.09 479.88 515.712 479.773 515.288 479.773ZM524.899 489V478.818H528.339C529.138 478.818 529.791 478.962 530.298 479.251C530.809 479.536 531.186 479.922 531.432 480.409C531.677 480.896 531.8 481.44 531.8 482.04C531.8 482.64 531.677 483.185 531.432 483.675C531.19 484.166 530.815 484.557 530.308 484.849C529.801 485.137 529.151 485.281 528.359 485.281H525.893V484.188H528.319C528.866 484.188 529.305 484.093 529.637 483.904C529.968 483.715 530.209 483.46 530.358 483.138C530.51 482.814 530.586 482.447 530.586 482.04C530.586 481.632 530.51 481.268 530.358 480.946C530.209 480.625 529.967 480.373 529.632 480.19C529.297 480.005 528.853 479.912 528.3 479.912H526.132V489H524.899ZM533.786 478.818H535.257L538.718 487.27H538.837L542.297 478.818H543.769V489H542.615V481.264H542.516L539.334 489H538.22L535.039 481.264H534.939V489H533.786V478.818Z" fill="#9999B3"/>
<path d="M34.0227 42.7273H40.0909L46.5 58.3636H46.7727L53.1818 42.7273H59.25V66H54.4773V50.8523H54.2841L48.2614 65.8864H45.0114L38.9886 50.7955H38.7955V66H34.0227V42.7273ZM70.8476 66.3409C69.0522 66.3409 67.5067 65.9773 66.2113 65.25C64.9234 64.5152 63.9309 63.4773 63.234 62.1364C62.537 60.7879 62.1885 59.1932 62.1885 57.3523C62.1885 55.5568 62.537 53.9811 63.234 52.625C63.9309 51.2689 64.912 50.2121 66.1772 49.4545C67.4499 48.697 68.9423 48.3182 70.6544 48.3182C71.8059 48.3182 72.8779 48.5038 73.8703 48.875C74.8703 49.2386 75.7416 49.7879 76.484 50.5227C77.234 51.2576 77.8173 52.1818 78.234 53.2955C78.6506 54.4015 78.859 55.697 78.859 57.1818V58.5114H64.1203V55.5114H74.3022C74.3022 54.8144 74.1506 54.197 73.8476 53.6591C73.5446 53.1212 73.1241 52.7008 72.5863 52.3977C72.0559 52.0871 71.4385 51.9318 70.734 51.9318C69.9991 51.9318 69.3476 52.1023 68.7794 52.4432C68.2188 52.7765 67.7794 53.2273 67.4613 53.7955C67.1431 54.3561 66.9802 54.9811 66.9726 55.6705V58.5227C66.9726 59.3864 67.1317 60.1326 67.4499 60.7614C67.7756 61.3902 68.234 61.875 68.8249 62.2159C69.4158 62.5568 70.1166 62.7273 70.9272 62.7273C71.465 62.7273 71.9575 62.6515 72.4044 62.5C72.8514 62.3485 73.234 62.1212 73.5522 61.8182C73.8703 61.5152 74.1128 61.1439 74.2794 60.7045L78.7567 61C78.5294 62.0758 78.0635 63.0152 77.359 63.8182C76.662 64.6136 75.7605 65.2348 74.6544 65.6818C73.5559 66.1212 72.287 66.3409 70.8476 66.3409ZM81.6981 66V48.5455H86.3117V51.625H86.5163C86.8799 50.6023 87.4859 49.7955 88.3344 49.2045C89.1829 48.6136 90.1981 48.3182 91.3799 48.3182C92.5769 48.3182 93.5958 48.6174 94.4367 49.2159C95.2776 49.8068 95.8382 50.6098 96.1185 51.625H96.3003C96.6564 50.625 97.3003 49.8258 98.2322 49.2273C99.1716 48.6212 100.281 48.3182 101.562 48.3182C103.19 48.3182 104.512 48.8371 105.528 49.875C106.55 50.9053 107.062 52.3674 107.062 54.2614V66H102.232V55.2159C102.232 54.2462 101.975 53.5189 101.459 53.0341C100.944 52.5492 100.3 52.3068 99.5276 52.3068C98.6488 52.3068 97.9632 52.5871 97.4708 53.1477C96.9784 53.7008 96.7322 54.4318 96.7322 55.3409V66H92.039V55.1136C92.039 54.2576 91.7928 53.5758 91.3003 53.0682C90.8155 52.5606 90.1753 52.3068 89.3799 52.3068C88.842 52.3068 88.3572 52.4432 87.9253 52.7159C87.5011 52.9811 87.164 53.3561 86.914 53.8409C86.664 54.3182 86.539 54.8788 86.539 55.5227V66H81.6981ZM118.452 66.3409C116.687 66.3409 115.16 65.9659 113.872 65.2159C112.592 64.4583 111.603 63.4053 110.906 62.0568C110.21 60.7008 109.861 59.1288 109.861 57.3409C109.861 55.5379 110.21 53.9621 110.906 52.6136C111.603 51.2576 112.592 50.2045 113.872 49.4545C115.16 48.697 116.687 48.3182 118.452 48.3182C120.217 48.3182 121.74 48.697 123.02 49.4545C124.308 50.2045 125.3 51.2576 125.997 52.6136C126.694 53.9621 127.043 55.5379 127.043 57.3409C127.043 59.1288 126.694 60.7008 125.997 62.0568C125.3 63.4053 124.308 64.4583 123.02 65.2159C121.74 65.9659 120.217 66.3409 118.452 66.3409ZM118.475 62.5909C119.278 62.5909 119.948 62.3636 120.486 61.9091C121.024 61.447 121.429 60.8182 121.702 60.0227C121.982 59.2273 122.122 58.322 122.122 57.3068C122.122 56.2917 121.982 55.3864 121.702 54.5909C121.429 53.7955 121.024 53.1667 120.486 52.7045C119.948 52.2424 119.278 52.0114 118.475 52.0114C117.664 52.0114 116.982 52.2424 116.429 52.7045C115.884 53.1667 115.471 53.7955 115.191 54.5909C114.918 55.3864 114.781 56.2917 114.781 57.3068C114.781 58.322 114.918 59.2273 115.191 60.0227C115.471 60.8182 115.884 61.447 116.429 61.9091C116.982 62.3636 117.664 62.5909 118.475 62.5909ZM129.871 66V48.5455H134.564V51.5909H134.746C135.064 50.5076 135.598 49.6894 136.348 49.1364C137.098 48.5758 137.961 48.2955 138.939 48.2955C139.181 48.2955 139.443 48.3106 139.723 48.3409C140.003 48.3712 140.249 48.4129 140.461 48.4659V52.7614C140.234 52.6932 139.92 52.6326 139.518 52.5795C139.117 52.5265 138.749 52.5 138.416 52.5C137.704 52.5 137.068 52.6553 136.507 52.9659C135.954 53.2689 135.515 53.6932 135.189 54.2386C134.871 54.7841 134.711 55.4129 134.711 56.125V66H129.871ZM146.164 72.5455C145.551 72.5455 144.975 72.4962 144.437 72.3977C143.907 72.3068 143.467 72.1894 143.119 72.0455L144.21 68.4318C144.778 68.6061 145.289 68.7008 145.744 68.7159C146.206 68.7311 146.604 68.625 146.937 68.3977C147.278 68.1705 147.554 67.7841 147.766 67.2386L148.051 66.5L141.789 48.5455H146.88L150.494 61.3636H150.676L154.323 48.5455H159.448L152.664 67.8864C152.338 68.8258 151.895 69.6439 151.335 70.3409C150.782 71.0455 150.081 71.5871 149.232 71.9659C148.384 72.3523 147.361 72.5455 146.164 72.5455ZM183.158 42.7273H188.078V57.8409C188.078 59.5379 187.673 61.0227 186.862 62.2955C186.059 63.5682 184.934 64.5606 183.487 65.2727C182.04 65.9773 180.355 66.3295 178.43 66.3295C176.499 66.3295 174.809 65.9773 173.362 65.2727C171.915 64.5606 170.79 63.5682 169.987 62.2955C169.184 61.0227 168.783 59.5379 168.783 57.8409V42.7273H173.703V57.4205C173.703 58.3068 173.896 59.0947 174.283 59.7841C174.677 60.4735 175.23 61.0152 175.942 61.4091C176.654 61.803 177.483 62 178.43 62C179.385 62 180.215 61.803 180.919 61.4091C181.631 61.0152 182.18 60.4735 182.567 59.7841C182.961 59.0947 183.158 58.3068 183.158 57.4205V42.7273ZM206.238 53.5227L201.806 53.7955C201.731 53.4167 201.568 53.0758 201.318 52.7727C201.068 52.4621 200.738 52.2159 200.329 52.0341C199.928 51.8447 199.447 51.75 198.886 51.75C198.136 51.75 197.503 51.9091 196.988 52.2273C196.473 52.5379 196.216 52.9545 196.216 53.4773C196.216 53.8939 196.382 54.2462 196.716 54.5341C197.049 54.822 197.621 55.053 198.431 55.2273L201.591 55.8636C203.288 56.2121 204.553 56.7727 205.386 57.5455C206.219 58.3182 206.636 59.3333 206.636 60.5909C206.636 61.7348 206.299 62.7386 205.625 63.6023C204.958 64.4659 204.041 65.1402 202.875 65.625C201.716 66.1023 200.378 66.3409 198.863 66.3409C196.553 66.3409 194.712 65.8598 193.341 64.8977C191.977 63.928 191.178 62.6098 190.943 60.9432L195.704 60.6932C195.848 61.3977 196.197 61.9356 196.75 62.3068C197.303 62.6705 198.011 62.8523 198.875 62.8523C199.723 62.8523 200.405 62.6894 200.92 62.3636C201.443 62.0303 201.708 61.6023 201.716 61.0795C201.708 60.6402 201.522 60.2803 201.159 60C200.795 59.7121 200.235 59.4924 199.477 59.3409L196.454 58.7386C194.75 58.3977 193.481 57.8068 192.647 56.9659C191.822 56.125 191.409 55.053 191.409 53.75C191.409 52.6288 191.712 51.6629 192.318 50.8523C192.931 50.0417 193.791 49.4167 194.897 48.9773C196.011 48.5379 197.314 48.3182 198.806 48.3182C201.011 48.3182 202.746 48.7841 204.011 49.7159C205.284 50.6477 206.026 51.9167 206.238 53.5227ZM214.342 66.3295C213.228 66.3295 212.236 66.1364 211.364 65.75C210.493 65.3561 209.804 64.7765 209.296 64.0114C208.796 63.2386 208.546 62.2765 208.546 61.125C208.546 60.1553 208.724 59.3409 209.08 58.6818C209.436 58.0227 209.921 57.4924 210.535 57.0909C211.148 56.6894 211.845 56.3864 212.626 56.1818C213.414 55.9773 214.239 55.8333 215.103 55.75C216.118 55.6439 216.936 55.5455 217.557 55.4545C218.179 55.3561 218.629 55.2121 218.91 55.0227C219.19 54.8333 219.33 54.553 219.33 54.1818V54.1136C219.33 53.3939 219.103 52.8371 218.648 52.4432C218.201 52.0492 217.565 51.8523 216.739 51.8523C215.868 51.8523 215.175 52.0455 214.66 52.4318C214.145 52.8106 213.804 53.2879 213.637 53.8636L209.16 53.5C209.387 52.4394 209.834 51.5227 210.501 50.75C211.167 49.9697 212.027 49.3712 213.08 48.9545C214.141 48.5303 215.368 48.3182 216.762 48.3182C217.732 48.3182 218.66 48.4318 219.546 48.6591C220.44 48.8864 221.232 49.2386 221.921 49.7159C222.618 50.1932 223.167 50.8068 223.569 51.5568C223.97 52.2992 224.171 53.1894 224.171 54.2273V66H219.58V63.5795H219.444C219.164 64.125 218.789 64.6061 218.319 65.0227C217.849 65.4318 217.285 65.7538 216.626 65.9886C215.967 66.2159 215.205 66.3295 214.342 66.3295ZM215.728 62.9886C216.44 62.9886 217.069 62.8485 217.614 62.5682C218.16 62.2803 218.588 61.8939 218.898 61.4091C219.209 60.9242 219.364 60.375 219.364 59.7614V57.9091C219.213 58.0076 219.004 58.0985 218.739 58.1818C218.482 58.2576 218.19 58.3295 217.864 58.3977C217.539 58.4583 217.213 58.5152 216.887 58.5682C216.561 58.6136 216.266 58.6553 216.001 58.6932C215.432 58.7765 214.936 58.9091 214.512 59.0909C214.088 59.2727 213.758 59.5189 213.523 59.8295C213.289 60.1326 213.171 60.5114 213.171 60.9659C213.171 61.625 213.41 62.1288 213.887 62.4773C214.372 62.8182 214.986 62.9886 215.728 62.9886ZM235.47 72.9091C233.902 72.9091 232.558 72.6932 231.436 72.2614C230.323 71.8371 229.436 71.2576 228.777 70.5227C228.118 69.7879 227.69 68.9621 227.493 68.0455L231.97 67.4432C232.107 67.7917 232.323 68.1174 232.618 68.4205C232.914 68.7235 233.304 68.9659 233.789 69.1477C234.281 69.3371 234.88 69.4318 235.584 69.4318C236.637 69.4318 237.505 69.1742 238.186 68.6591C238.876 68.1515 239.22 67.2992 239.22 66.1023V62.9091H239.016C238.804 63.3939 238.486 63.8523 238.061 64.2841C237.637 64.7159 237.092 65.0682 236.425 65.3409C235.758 65.6136 234.963 65.75 234.039 65.75C232.728 65.75 231.535 65.447 230.459 64.8409C229.391 64.2273 228.539 63.2917 227.902 62.0341C227.273 60.7689 226.959 59.1705 226.959 57.2386C226.959 55.2614 227.281 53.6098 227.925 52.2841C228.569 50.9583 229.425 49.9659 230.493 49.3068C231.569 48.6477 232.747 48.3182 234.027 48.3182C235.005 48.3182 235.823 48.4848 236.482 48.8182C237.141 49.1439 237.671 49.553 238.073 50.0455C238.482 50.5303 238.796 51.0076 239.016 51.4773H239.198V48.5455H244.005V66.1705C244.005 67.6553 243.641 68.8977 242.914 69.8977C242.186 70.8977 241.179 71.6477 239.891 72.1477C238.611 72.6553 237.137 72.9091 235.47 72.9091ZM235.573 62.1136C236.353 62.1136 237.012 61.9205 237.55 61.5341C238.095 61.1402 238.512 60.5795 238.8 59.8523C239.095 59.1174 239.243 58.2386 239.243 57.2159C239.243 56.1932 239.099 55.3068 238.811 54.5568C238.523 53.7992 238.107 53.2121 237.561 52.7955C237.016 52.3788 236.353 52.1705 235.573 52.1705C234.777 52.1705 234.107 52.3864 233.561 52.8182C233.016 53.2424 232.603 53.8333 232.323 54.5909C232.042 55.3485 231.902 56.2235 231.902 57.2159C231.902 58.2235 232.042 59.0947 232.323 59.8295C232.611 60.5568 233.023 61.1212 233.561 61.5227C234.107 61.9167 234.777 62.1136 235.573 62.1136ZM255.491 66.3409C253.696 66.3409 252.15 65.9773 250.855 65.25C249.567 64.5152 248.575 63.4773 247.878 62.1364C247.181 60.7879 246.832 59.1932 246.832 57.3523C246.832 55.5568 247.181 53.9811 247.878 52.625C248.575 51.2689 249.556 50.2121 250.821 49.4545C252.094 48.697 253.586 48.3182 255.298 48.3182C256.45 48.3182 257.522 48.5038 258.514 48.875C259.514 49.2386 260.385 49.7879 261.128 50.5227C261.878 51.2576 262.461 52.1818 262.878 53.2955C263.294 54.4015 263.503 55.697 263.503 57.1818V58.5114H248.764V55.5114H258.946C258.946 54.8144 258.794 54.197 258.491 53.6591C258.188 53.1212 257.768 52.7008 257.23 52.3977C256.7 52.0871 256.082 51.9318 255.378 51.9318C254.643 51.9318 253.991 52.1023 253.423 52.4432C252.863 52.7765 252.423 53.2273 252.105 53.7955C251.787 54.3561 251.624 54.9811 251.616 55.6705V58.5227C251.616 59.3864 251.775 60.1326 252.094 60.7614C252.419 61.3902 252.878 61.875 253.469 62.2159C254.06 62.5568 254.76 62.7273 255.571 62.7273C256.109 62.7273 256.601 62.6515 257.048 62.5C257.495 62.3485 257.878 62.1212 258.196 61.8182C258.514 61.5152 258.757 61.1439 258.923 60.7045L263.4 61C263.173 62.0758 262.707 63.0152 262.003 63.8182C261.306 64.6136 260.404 65.2348 259.298 65.6818C258.2 66.1212 256.931 66.3409 255.491 66.3409Z" fill="white"/>
<rect x="32" y="97" width="140" height="8" rx="2" fill="#424A61"/>
<rect x="424" y="208" width="85" height="44" rx="8" fill="#323849"/>
<path d="M440.167 235.833H451.833C452.105 235.832 452.373 235.763 452.612 235.634C452.851 235.505 453.056 235.32 453.207 235.094C453.358 234.868 453.452 234.608 453.48 234.338C453.507 234.067 453.469 233.794 453.367 233.542L447.45 223.333C447.306 223.073 447.095 222.856 446.838 222.705C446.582 222.553 446.289 222.474 445.992 222.474C445.694 222.474 445.402 222.553 445.145 222.705C444.889 222.856 444.677 223.073 444.533 223.333L438.617 233.542C438.517 233.788 438.477 234.055 438.501 234.32C438.525 234.584 438.612 234.839 438.755 235.064C438.897 235.288 439.092 235.475 439.321 235.609C439.551 235.743 439.809 235.82 440.075 235.833" fill="#F47A1A"/>
<path d="M440.167 235.833H451.833C452.105 235.832 452.373 235.763 452.612 235.634C452.851 235.505 453.056 235.32 453.207 235.094C453.358 234.868 453.452 234.608 453.48 234.338C453.507 234.067 453.469 233.794 453.367 233.542L447.45 223.333C447.306 223.073 447.095 222.856 446.838 222.705C446.582 222.553 446.289 222.474 445.992 222.474C445.694 222.474 445.402 222.553 445.145 222.705C444.889 222.856 444.677 223.073 444.533 223.333L438.617 233.542C438.517 233.788 438.477 234.055 438.501 234.32C438.525 234.584 438.612 234.839 438.755 235.064C438.897 235.288 439.092 235.475 439.321 235.609C439.551 235.743 439.809 235.82 440.075 235.833" stroke="#323849" stroke-width="1.5" stroke-linecap="round" stroke-linejoin="round"/>
<path d="M446 232.5V232.508M446 227.5V229.167V227.5Z" stroke="#323849" stroke-width="2" stroke-linecap="round" stroke-linejoin="round"/>
<path d="M465.004 235V224.818H471.626V226.364H466.849V229.129H471.283V230.675H466.849V233.454H471.666V235H465.004ZM473.289 235V227.364H475.034V228.636H475.113C475.252 228.196 475.491 227.856 475.829 227.617C476.17 227.375 476.56 227.254 476.997 227.254C477.097 227.254 477.208 227.259 477.331 227.269C477.456 227.276 477.561 227.287 477.644 227.304V228.96C477.568 228.933 477.447 228.91 477.281 228.89C477.118 228.867 476.961 228.855 476.809 228.855C476.48 228.855 476.185 228.926 475.924 229.069C475.665 229.208 475.461 229.402 475.312 229.651C475.163 229.899 475.088 230.186 475.088 230.511V235H473.289ZM478.699 235V227.364H480.444V228.636H480.524C480.663 228.196 480.902 227.856 481.24 227.617C481.581 227.375 481.971 227.254 482.408 227.254C482.508 227.254 482.619 227.259 482.741 227.269C482.867 227.276 482.972 227.287 483.055 227.304V228.96C482.978 228.933 482.857 228.91 482.692 228.89C482.529 228.867 482.372 228.855 482.219 228.855C481.891 228.855 481.596 228.926 481.334 229.069C481.076 229.208 480.872 229.402 480.723 229.651C480.574 229.899 480.499 230.186 480.499 230.511V235H478.699ZM487.127 235.149C486.381 235.149 485.735 234.985 485.188 234.657C484.641 234.329 484.217 233.87 483.915 233.28C483.617 232.69 483.468 232 483.468 231.212C483.468 230.423 483.617 229.732 483.915 229.138C484.217 228.545 484.641 228.085 485.188 227.756C485.735 227.428 486.381 227.264 487.127 227.264C487.872 227.264 488.519 227.428 489.066 227.756C489.612 228.085 490.035 228.545 490.333 229.138C490.635 229.732 490.786 230.423 490.786 231.212C490.786 232 490.635 232.69 490.333 233.28C490.035 233.87 489.612 234.329 489.066 234.657C488.519 234.985 487.872 235.149 487.127 235.149ZM487.137 233.707C487.541 233.707 487.879 233.596 488.151 233.374C488.423 233.149 488.625 232.847 488.757 232.469C488.893 232.092 488.961 231.671 488.961 231.207C488.961 230.739 488.893 230.317 488.757 229.939C488.625 229.558 488.423 229.254 488.151 229.029C487.879 228.804 487.541 228.691 487.137 228.691C486.722 228.691 486.378 228.804 486.103 229.029C485.831 229.254 485.627 229.558 485.491 229.939C485.358 230.317 485.292 230.739 485.292 231.207C485.292 231.671 485.358 232.092 485.491 232.469C485.627 232.847 485.831 233.149 486.103 233.374C486.378 233.596 486.722 233.707 487.137 233.707ZM492.173 235V227.364H493.918V228.636H493.998C494.137 228.196 494.376 227.856 494.714 227.617C495.055 227.375 495.445 227.254 495.882 227.254C495.982 227.254 496.093 227.259 496.215 227.269C496.341 227.276 496.446 227.287 496.528 227.304V228.96C496.452 228.933 496.331 228.91 496.165 228.89C496.003 228.867 495.846 228.855 495.693 228.855C495.365 228.855 495.07 228.926 494.808 229.069C494.55 229.208 494.346 229.402 494.197 229.651C494.048 229.899 493.973 230.186 493.973 230.511V235H492.173Z" fill="white"/>
<circle cx="408" cy="244" r="6.5" fill="#F47A1A" stroke="white" stroke-width="3"/>
<defs>
<linearGradient id="paint0_linear_1011_3199" x1="314" y1="239" x2="314" y2="419" gradientUnits="userSpaceOnUse">
<stop stop-color="#F47A1A" stop-opacity="0.3"/>
<stop offset="1" stop-color="#F47A1A" stop-opacity="0"/>
</linearGradient>
</defs>
</svg>
