<svg width="488" height="435" viewBox="0 0 488 435" fill="none" xmlns="http://www.w3.org/2000/svg">
<rect width="488" height="435" rx="16" fill="#191C24"/>
<rect x="24.5" y="24.5" width="439" height="386" rx="15.5" fill="#212530" stroke="#333948"/>
<path d="M373 64V80" stroke="#9999B3" stroke-width="2" stroke-linecap="round" stroke-linejoin="round"/>
<path d="M387 64V73" stroke="#9999B3" stroke-width="2" stroke-linecap="round" stroke-linejoin="round"/>
<path d="M373 63.9996C373.935 63.0835 375.191 62.5703 376.5 62.5703C377.809 62.5703 379.065 63.0835 380 63.9996C380.935 64.9157 382.191 65.4289 383.5 65.4289C384.809 65.4289 386.065 64.9157 387 63.9996" stroke="#9999B3" stroke-width="2" stroke-linecap="round" stroke-linejoin="round"/>
<path d="M373 72.9996C373.935 72.0835 375.191 71.5703 376.5 71.5703C377.809 71.5703 379.065 72.0835 380 72.9996C380.935 73.9157 382.191 74.4289 383.5 74.4289C384.809 74.4289 386.065 73.9157 387 72.9996" stroke="#9999B3" stroke-width="2" stroke-linecap="round" stroke-linejoin="round"/>
<path d="M421 72C421.552 72 422 71.5523 422 71C422 70.4477 421.552 70 421 70C420.448 70 420 70.4477 420 71C420 71.5523 420.448 72 421 72Z" stroke="#9999B3" stroke-width="2" stroke-linecap="round" stroke-linejoin="round"/>
<path d="M428 72C428.552 72 429 71.5523 429 71C429 70.4477 428.552 70 428 70C427.448 70 427 70.4477 427 71C427 71.5523 427.448 72 428 72Z" stroke="#9999B3" stroke-width="2" stroke-linecap="round" stroke-linejoin="round"/>
<path d="M435 72C435.552 72 436 71.5523 436 71C436 70.4477 435.552 70 435 70C434.448 70 434 70.4477 434 71C434 71.5523 434.448 72 435 72Z" stroke="#9999B3" stroke-width="2" stroke-linecap="round" stroke-linejoin="round"/>
<line x1="24" y1="116.5" x2="464" y2="116.5" stroke="#333948"/>
<path d="M50.0227 82V58.7273H59.2045C60.9697 58.7273 62.4735 59.0644 63.7159 59.7386C64.9583 60.4053 65.9053 61.3333 66.5568 62.5227C67.2159 63.7045 67.5455 65.0682 67.5455 66.6136C67.5455 68.1591 67.2121 69.5227 66.5455 70.7045C65.8788 71.8864 64.9129 72.8068 63.6477 73.4659C62.3902 74.125 60.8674 74.4545 59.0795 74.4545H53.2273V70.5114H58.2841C59.2311 70.5114 60.0114 70.3485 60.625 70.0227C61.2462 69.6894 61.7083 69.2311 62.0114 68.6477C62.322 68.0568 62.4773 67.3788 62.4773 66.6136C62.4773 65.8409 62.322 65.1667 62.0114 64.5909C61.7083 64.0076 61.2462 63.5568 60.625 63.2386C60.0038 62.9129 59.2159 62.75 58.2614 62.75H54.9432V82H50.0227ZM70.6506 82V64.5455H75.3438V67.5909H75.5256C75.8438 66.5076 76.3778 65.6894 77.1278 65.1364C77.8778 64.5758 78.7415 64.2955 79.7188 64.2955C79.9612 64.2955 80.2225 64.3106 80.5028 64.3409C80.7831 64.3712 81.0294 64.4129 81.2415 64.4659V68.7614C81.0142 68.6932 80.6998 68.6326 80.2983 68.5795C79.8968 68.5265 79.5294 68.5 79.196 68.5C78.4839 68.5 77.8475 68.6553 77.2869 68.9659C76.7339 69.2689 76.2945 69.6932 75.9688 70.2386C75.6506 70.7841 75.4915 71.4129 75.4915 72.125V82H70.6506ZM90.8182 82.3409C89.053 82.3409 87.5265 81.9659 86.2386 81.2159C84.9583 80.4583 83.9697 79.4053 83.2727 78.0568C82.5758 76.7008 82.2273 75.1288 82.2273 73.3409C82.2273 71.5379 82.5758 69.9621 83.2727 68.6136C83.9697 67.2576 84.9583 66.2045 86.2386 65.4545C87.5265 64.697 89.053 64.3182 90.8182 64.3182C92.5833 64.3182 94.1061 64.697 95.3864 65.4545C96.6742 66.2045 97.6667 67.2576 98.3636 68.6136C99.0606 69.9621 99.4091 71.5379 99.4091 73.3409C99.4091 75.1288 99.0606 76.7008 98.3636 78.0568C97.6667 79.4053 96.6742 80.4583 95.3864 81.2159C94.1061 81.9659 92.5833 82.3409 90.8182 82.3409ZM90.8409 78.5909C91.6439 78.5909 92.3144 78.3636 92.8523 77.9091C93.3902 77.447 93.7955 76.8182 94.0682 76.0227C94.3485 75.2273 94.4886 74.322 94.4886 73.3068C94.4886 72.2917 94.3485 71.3864 94.0682 70.5909C93.7955 69.7955 93.3902 69.1667 92.8523 68.7045C92.3144 68.2424 91.6439 68.0114 90.8409 68.0114C90.0303 68.0114 89.3485 68.2424 88.7955 68.7045C88.25 69.1667 87.8371 69.7955 87.5568 70.5909C87.2841 71.3864 87.1477 72.2917 87.1477 73.3068C87.1477 74.322 87.2841 75.2273 87.5568 76.0227C87.8371 76.8182 88.25 77.447 88.7955 77.9091C89.3485 78.3636 90.0303 78.5909 90.8409 78.5909ZM102.557 64.5455H107.398V82.8636C107.398 84.2121 107.133 85.303 106.602 86.1364C106.072 86.9697 105.311 87.5795 104.318 87.9659C103.333 88.3523 102.155 88.5455 100.784 88.5455C100.617 88.5455 100.458 88.5417 100.307 88.5341C100.148 88.5341 99.9811 88.5303 99.8068 88.5227V84.7386C99.9356 84.7462 100.049 84.75 100.148 84.75C100.239 84.7576 100.337 84.7614 100.443 84.7614C101.223 84.7614 101.769 84.5947 102.08 84.2614C102.398 83.9356 102.557 83.4432 102.557 82.7841V64.5455ZM104.966 62.2955C104.254 62.2955 103.64 62.0568 103.125 61.5795C102.61 61.0947 102.352 60.5152 102.352 59.8409C102.352 59.1742 102.61 58.6023 103.125 58.125C103.64 57.6402 104.254 57.3977 104.966 57.3977C105.693 57.3977 106.311 57.6402 106.818 58.125C107.333 58.6023 107.591 59.1742 107.591 59.8409C107.591 60.5152 107.333 61.0947 106.818 61.5795C106.311 62.0568 105.693 62.2955 104.966 62.2955ZM119.23 82.3409C117.435 82.3409 115.889 81.9773 114.594 81.25C113.306 80.5152 112.313 79.4773 111.616 78.1364C110.92 76.7879 110.571 75.1932 110.571 73.3523C110.571 71.5568 110.92 69.9811 111.616 68.625C112.313 67.2689 113.295 66.2121 114.56 65.4545C115.832 64.697 117.325 64.3182 119.037 64.3182C120.188 64.3182 121.26 64.5038 122.253 64.875C123.253 65.2386 124.124 65.7879 124.866 66.5227C125.616 67.2576 126.2 68.1818 126.616 69.2955C127.033 70.4015 127.241 71.697 127.241 73.1818V74.5114H112.503V71.5114H122.685C122.685 70.8144 122.533 70.197 122.23 69.6591C121.927 69.1212 121.507 68.7008 120.969 68.3977C120.438 68.0871 119.821 67.9318 119.116 67.9318C118.382 67.9318 117.73 68.1023 117.162 68.4432C116.601 68.7765 116.162 69.2273 115.844 69.7955C115.526 70.3561 115.363 70.9811 115.355 71.6705V74.5227C115.355 75.3864 115.514 76.1326 115.832 76.7614C116.158 77.3902 116.616 77.875 117.207 78.2159C117.798 78.5568 118.499 78.7273 119.31 78.7273C119.848 78.7273 120.34 78.6515 120.787 78.5C121.234 78.3485 121.616 78.1212 121.935 77.8182C122.253 77.5152 122.495 77.1439 122.662 76.7045L127.139 77C126.912 78.0758 126.446 79.0152 125.741 79.8182C125.045 80.6136 124.143 81.2348 123.037 81.6818C121.938 82.1212 120.67 82.3409 119.23 82.3409ZM138.287 82.3409C136.499 82.3409 134.961 81.9621 133.673 81.2045C132.393 80.4394 131.408 79.3788 130.719 78.0227C130.037 76.6667 129.696 75.1061 129.696 73.3409C129.696 71.553 130.041 69.9848 130.73 68.6364C131.427 67.2803 132.416 66.2235 133.696 65.4659C134.976 64.7008 136.499 64.3182 138.264 64.3182C139.787 64.3182 141.12 64.5947 142.264 65.1477C143.408 65.7008 144.313 66.4773 144.98 67.4773C145.647 68.4773 146.014 69.6515 146.082 71H141.514C141.385 70.1288 141.045 69.428 140.491 68.8977C139.946 68.3598 139.23 68.0909 138.344 68.0909C137.594 68.0909 136.938 68.2955 136.378 68.7045C135.825 69.1061 135.393 69.6932 135.082 70.4659C134.772 71.2386 134.616 72.1742 134.616 73.2727C134.616 74.3864 134.768 75.3333 135.071 76.1136C135.382 76.8939 135.817 77.4886 136.378 77.8977C136.938 78.3068 137.594 78.5114 138.344 78.5114C138.897 78.5114 139.393 78.3977 139.832 78.1705C140.279 77.9432 140.647 77.6136 140.935 77.1818C141.23 76.7424 141.423 76.2159 141.514 75.6023H146.082C146.007 76.9356 145.643 78.1098 144.991 79.125C144.348 80.1326 143.457 80.9205 142.321 81.4886C141.185 82.0568 139.84 82.3409 138.287 82.3409ZM158.466 64.5455V68.1818H147.955V64.5455H158.466ZM150.341 60.3636H155.182V76.6364C155.182 77.0833 155.25 77.4318 155.386 77.6818C155.523 77.9242 155.712 78.0947 155.955 78.1932C156.205 78.2917 156.492 78.3409 156.818 78.3409C157.045 78.3409 157.273 78.322 157.5 78.2841C157.727 78.2386 157.902 78.2045 158.023 78.1818L158.784 81.7841C158.542 81.8598 158.201 81.947 157.761 82.0455C157.322 82.1515 156.788 82.2159 156.159 82.2386C154.992 82.2841 153.97 82.1288 153.091 81.7727C152.22 81.4167 151.542 80.8636 151.057 80.1136C150.572 79.3636 150.333 78.4167 150.341 77.2727V60.3636Z" fill="white"/>
<path d="M54 153L60 159L66 153H54Z" fill="#9999B3" stroke="#9999B3" stroke-width="1.5" stroke-linecap="round" stroke-linejoin="round"/>
<path d="M83.3026 163H80.4901L85.6108 148.455H88.8636L93.9915 163H91.179L87.294 151.438H87.1804L83.3026 163ZM83.3949 157.297H91.0653V159.413H83.3949V157.297ZM97.6012 163L93.4961 148.455H96.3299L98.9506 159.143H99.0856L101.884 148.455H104.462L107.267 159.151H107.395L110.016 148.455H112.85L108.745 163H106.145L103.233 152.794H103.12L100.201 163H97.6012ZM122.484 152.453C122.418 151.833 122.138 151.35 121.646 151.004C121.158 150.659 120.524 150.486 119.743 150.486C119.193 150.486 118.722 150.569 118.329 150.734C117.936 150.9 117.636 151.125 117.427 151.409C117.219 151.693 117.112 152.018 117.108 152.382C117.108 152.685 117.176 152.948 117.314 153.17C117.456 153.393 117.647 153.582 117.889 153.739C118.13 153.89 118.398 154.018 118.691 154.122C118.985 154.226 119.281 154.314 119.579 154.385L120.943 154.726C121.492 154.854 122.02 155.027 122.527 155.244C123.038 155.462 123.495 155.737 123.897 156.068C124.305 156.4 124.627 156.8 124.863 157.268C125.1 157.737 125.218 158.286 125.218 158.916C125.218 159.768 125.001 160.519 124.565 161.168C124.129 161.812 123.5 162.316 122.676 162.68C121.857 163.04 120.865 163.22 119.7 163.22C118.568 163.22 117.586 163.045 116.752 162.695C115.924 162.344 115.275 161.833 114.806 161.161C114.342 160.488 114.092 159.669 114.054 158.703H116.646C116.684 159.21 116.84 159.631 117.115 159.967C117.389 160.304 117.747 160.554 118.187 160.72C118.632 160.886 119.129 160.969 119.679 160.969C120.252 160.969 120.753 160.884 121.184 160.713C121.62 160.538 121.961 160.296 122.207 159.989C122.453 159.676 122.579 159.312 122.583 158.895C122.579 158.516 122.467 158.204 122.25 157.957C122.032 157.706 121.726 157.498 121.333 157.332C120.945 157.162 120.491 157.01 119.97 156.878L118.315 156.452C117.117 156.144 116.17 155.678 115.474 155.053C114.783 154.423 114.437 153.587 114.437 152.545C114.437 151.688 114.669 150.938 115.133 150.294C115.602 149.65 116.239 149.151 117.044 148.795C117.849 148.436 118.76 148.256 119.778 148.256C120.81 148.256 121.715 148.436 122.491 148.795C123.272 149.151 123.886 149.645 124.331 150.28C124.776 150.91 125.005 151.634 125.02 152.453H122.484ZM132.528 163V148.455H137.983C139.1 148.455 140.038 148.649 140.795 149.037C141.558 149.425 142.133 149.97 142.521 150.67C142.914 151.366 143.111 152.179 143.111 153.107C143.111 154.039 142.912 154.849 142.514 155.536C142.121 156.217 141.541 156.745 140.774 157.119C140.007 157.489 139.065 157.673 137.947 157.673H134.062V155.486H137.592C138.246 155.486 138.781 155.396 139.197 155.216C139.614 155.031 139.922 154.764 140.121 154.413C140.324 154.058 140.426 153.623 140.426 153.107C140.426 152.59 140.324 152.15 140.121 151.786C139.917 151.416 139.607 151.137 139.19 150.947C138.774 150.753 138.236 150.656 137.578 150.656H135.163V163H132.528ZM140.043 156.409L143.643 163H140.703L137.166 156.409H140.043ZM150.096 163.213C149.002 163.213 148.058 162.986 147.262 162.531C146.471 162.072 145.863 161.423 145.437 160.585C145.011 159.742 144.798 158.75 144.798 157.609C144.798 156.487 145.011 155.502 145.437 154.655C145.868 153.803 146.469 153.14 147.241 152.666C148.013 152.188 148.919 151.949 149.961 151.949C150.633 151.949 151.268 152.058 151.864 152.276C152.466 152.489 152.996 152.82 153.455 153.27C153.919 153.72 154.284 154.293 154.549 154.989C154.814 155.68 154.947 156.504 154.947 157.46V158.249H146.005V156.516H152.482C152.478 156.023 152.371 155.585 152.163 155.202C151.954 154.813 151.663 154.508 151.289 154.286C150.92 154.063 150.489 153.952 149.996 153.952C149.471 153.952 149.009 154.08 148.612 154.335C148.214 154.586 147.904 154.918 147.681 155.33C147.463 155.737 147.352 156.184 147.347 156.672V158.185C147.347 158.819 147.463 159.364 147.695 159.818C147.927 160.268 148.252 160.614 148.668 160.855C149.085 161.092 149.573 161.21 150.131 161.21C150.505 161.21 150.844 161.158 151.147 161.054C151.45 160.945 151.713 160.786 151.935 160.578C152.158 160.37 152.326 160.112 152.44 159.804L154.84 160.074C154.689 160.708 154.4 161.262 153.974 161.736C153.552 162.205 153.013 162.569 152.354 162.83C151.696 163.085 150.943 163.213 150.096 163.213ZM165.744 154.974L163.4 155.23C163.334 154.993 163.218 154.771 163.052 154.562C162.891 154.354 162.673 154.186 162.399 154.058C162.124 153.93 161.788 153.866 161.39 153.866C160.855 153.866 160.405 153.982 160.041 154.214C159.681 154.446 159.503 154.747 159.508 155.116C159.503 155.434 159.619 155.692 159.856 155.891C160.098 156.089 160.495 156.253 161.049 156.381L162.91 156.778C163.942 157.001 164.709 157.354 165.211 157.837C165.718 158.32 165.974 158.952 165.978 159.733C165.974 160.42 165.772 161.026 165.375 161.551C164.982 162.072 164.435 162.479 163.734 162.773C163.033 163.066 162.228 163.213 161.319 163.213C159.984 163.213 158.909 162.934 158.095 162.375C157.28 161.812 156.795 161.028 156.639 160.024L159.146 159.783C159.26 160.275 159.501 160.647 159.87 160.898C160.24 161.149 160.72 161.274 161.312 161.274C161.923 161.274 162.413 161.149 162.782 160.898C163.156 160.647 163.343 160.337 163.343 159.967C163.343 159.655 163.223 159.397 162.981 159.193C162.744 158.99 162.375 158.833 161.873 158.724L160.012 158.334C158.966 158.116 158.192 157.749 157.69 157.233C157.188 156.712 156.94 156.054 156.944 155.259C156.94 154.586 157.122 154.004 157.491 153.511C157.865 153.014 158.384 152.631 159.047 152.361C159.714 152.086 160.484 151.949 161.355 151.949C162.633 151.949 163.639 152.221 164.373 152.766C165.112 153.31 165.569 154.046 165.744 154.974ZM172.857 163.213C171.792 163.213 170.868 162.979 170.087 162.51C169.306 162.041 168.7 161.385 168.269 160.543C167.843 159.7 167.63 158.715 167.63 157.588C167.63 156.461 167.843 155.474 168.269 154.626C168.7 153.779 169.306 153.121 170.087 152.652C170.868 152.183 171.792 151.949 172.857 151.949C173.922 151.949 174.846 152.183 175.627 152.652C176.408 153.121 177.012 153.779 177.438 154.626C177.869 155.474 178.084 156.461 178.084 157.588C178.084 158.715 177.869 159.7 177.438 160.543C177.012 161.385 176.408 162.041 175.627 162.51C174.846 162.979 173.922 163.213 172.857 163.213ZM172.871 161.153C173.449 161.153 173.932 160.995 174.32 160.678C174.708 160.356 174.997 159.925 175.186 159.385C175.381 158.845 175.478 158.244 175.478 157.581C175.478 156.913 175.381 156.31 175.186 155.77C174.997 155.225 174.708 154.792 174.32 154.47C173.932 154.148 173.449 153.987 172.871 153.987C172.279 153.987 171.787 154.148 171.394 154.47C171.006 154.792 170.714 155.225 170.52 155.77C170.331 156.31 170.236 156.913 170.236 157.581C170.236 158.244 170.331 158.845 170.52 159.385C170.714 159.925 171.006 160.356 171.394 160.678C171.787 160.995 172.279 161.153 172.871 161.153ZM187.219 158.412V152.091H189.79V163H187.298V161.061H187.184C186.938 161.672 186.533 162.171 185.969 162.56C185.411 162.948 184.722 163.142 183.903 163.142C183.188 163.142 182.556 162.983 182.006 162.666C181.462 162.344 181.036 161.878 180.728 161.267C180.42 160.652 180.266 159.908 180.266 159.037V152.091H182.837V158.639C182.837 159.33 183.027 159.88 183.406 160.287C183.784 160.694 184.281 160.898 184.897 160.898C185.276 160.898 185.643 160.805 185.998 160.621C186.353 160.436 186.644 160.161 186.871 159.797C187.103 159.428 187.219 158.966 187.219 158.412ZM192.434 163V152.091H194.927V153.909H195.041C195.24 153.279 195.581 152.794 196.064 152.453C196.551 152.107 197.108 151.935 197.733 151.935C197.875 151.935 198.033 151.942 198.208 151.956C198.388 151.965 198.538 151.982 198.656 152.006V154.371C198.547 154.333 198.374 154.3 198.137 154.271C197.905 154.238 197.681 154.222 197.463 154.222C196.994 154.222 196.573 154.323 196.199 154.527C195.829 154.726 195.538 155.003 195.325 155.358C195.112 155.713 195.005 156.123 195.005 156.587V163H192.434ZM204.673 163.213C203.584 163.213 202.649 162.974 201.868 162.496C201.091 162.018 200.492 161.357 200.071 160.514C199.654 159.667 199.446 158.691 199.446 157.588C199.446 156.48 199.659 155.502 200.085 154.655C200.511 153.803 201.113 153.14 201.889 152.666C202.67 152.188 203.594 151.949 204.659 151.949C205.545 151.949 206.328 152.112 207.01 152.439C207.696 152.761 208.243 153.218 208.651 153.81C209.058 154.397 209.29 155.083 209.347 155.869H206.889C206.79 155.344 206.553 154.906 206.179 154.555C205.81 154.2 205.315 154.023 204.695 154.023C204.169 154.023 203.707 154.165 203.31 154.449C202.912 154.728 202.602 155.131 202.379 155.656C202.161 156.182 202.053 156.812 202.053 157.545C202.053 158.289 202.161 158.928 202.379 159.463C202.597 159.993 202.902 160.403 203.295 160.692C203.693 160.976 204.16 161.118 204.695 161.118C205.073 161.118 205.412 161.047 205.71 160.905C206.013 160.758 206.267 160.547 206.47 160.273C206.674 159.998 206.813 159.664 206.889 159.271H209.347C209.285 160.043 209.058 160.727 208.665 161.324C208.272 161.916 207.737 162.38 207.06 162.716C206.383 163.047 205.587 163.213 204.673 163.213ZM216.287 163.213C215.194 163.213 214.249 162.986 213.453 162.531C212.663 162.072 212.054 161.423 211.628 160.585C211.202 159.742 210.989 158.75 210.989 157.609C210.989 156.487 211.202 155.502 211.628 154.655C212.059 153.803 212.66 153.14 213.432 152.666C214.204 152.188 215.111 151.949 216.152 151.949C216.825 151.949 217.459 152.058 218.056 152.276C218.657 152.489 219.187 152.82 219.647 153.27C220.111 153.72 220.475 154.293 220.74 154.989C221.006 155.68 221.138 156.504 221.138 157.46V158.249H212.196V156.516H218.674C218.669 156.023 218.562 155.585 218.354 155.202C218.146 154.813 217.855 154.508 217.48 154.286C217.111 154.063 216.68 153.952 216.188 153.952C215.662 153.952 215.201 154.08 214.803 154.335C214.405 154.586 214.095 154.918 213.873 155.33C213.655 155.737 213.543 156.184 213.539 156.672V158.185C213.539 158.819 213.655 159.364 213.887 159.818C214.119 160.268 214.443 160.614 214.86 160.855C215.276 161.092 215.764 161.21 216.323 161.21C216.697 161.21 217.035 161.158 217.338 161.054C217.641 160.945 217.904 160.786 218.127 160.578C218.349 160.37 218.517 160.112 218.631 159.804L221.032 160.074C220.88 160.708 220.591 161.262 220.165 161.736C219.744 162.205 219.204 162.569 218.546 162.83C217.888 163.085 217.135 163.213 216.287 163.213ZM231.935 154.974L229.592 155.23C229.525 154.993 229.409 154.771 229.244 154.562C229.083 154.354 228.865 154.186 228.59 154.058C228.316 153.93 227.979 153.866 227.582 153.866C227.047 153.866 226.597 153.982 226.232 154.214C225.872 154.446 225.695 154.747 225.7 155.116C225.695 155.434 225.811 155.692 226.048 155.891C226.289 156.089 226.687 156.253 227.241 156.381L229.102 156.778C230.134 157.001 230.901 157.354 231.403 157.837C231.909 158.32 232.165 158.952 232.17 159.733C232.165 160.42 231.964 161.026 231.566 161.551C231.173 162.072 230.626 162.479 229.925 162.773C229.225 163.066 228.42 163.213 227.511 163.213C226.175 163.213 225.101 162.934 224.286 162.375C223.472 161.812 222.987 161.028 222.83 160.024L225.337 159.783C225.451 160.275 225.692 160.647 226.062 160.898C226.431 161.149 226.912 161.274 227.504 161.274C228.114 161.274 228.604 161.149 228.974 160.898C229.348 160.647 229.535 160.337 229.535 159.967C229.535 159.655 229.414 159.397 229.173 159.193C228.936 158.99 228.567 158.833 228.065 158.724L226.204 158.334C225.157 158.116 224.383 157.749 223.881 157.233C223.379 156.712 223.131 156.054 223.136 155.259C223.131 154.586 223.313 154.004 223.683 153.511C224.057 153.014 224.575 152.631 225.238 152.361C225.906 152.086 226.675 151.949 227.546 151.949C228.825 151.949 229.831 152.221 230.565 152.766C231.303 153.31 231.76 154.046 231.935 154.974ZM249.109 153.099C248.99 152.716 248.827 152.373 248.619 152.07C248.415 151.762 248.169 151.499 247.88 151.281C247.596 151.063 247.269 150.9 246.9 150.791C246.531 150.678 246.128 150.621 245.692 150.621C244.911 150.621 244.215 150.817 243.604 151.21C242.994 151.603 242.513 152.181 242.163 152.943C241.817 153.701 241.644 154.624 241.644 155.713C241.644 156.812 241.817 157.742 242.163 158.504C242.508 159.267 242.989 159.847 243.604 160.244C244.22 160.637 244.935 160.834 245.749 160.834C246.488 160.834 247.127 160.692 247.667 160.408C248.211 160.124 248.63 159.721 248.924 159.2C249.218 158.675 249.364 158.059 249.364 157.354L249.961 157.446H246.012V155.386H251.914V157.134C251.914 158.379 251.649 159.456 251.119 160.365C250.588 161.274 249.859 161.975 248.931 162.467C248.003 162.955 246.938 163.199 245.735 163.199C244.395 163.199 243.219 162.898 242.205 162.297C241.197 161.691 240.408 160.831 239.84 159.719C239.277 158.601 238.995 157.276 238.995 155.741C238.995 154.567 239.161 153.518 239.492 152.595C239.828 151.672 240.297 150.888 240.898 150.244C241.5 149.596 242.205 149.103 243.015 148.767C243.825 148.426 244.705 148.256 245.657 148.256C246.462 148.256 247.212 148.374 247.908 148.611C248.604 148.843 249.222 149.174 249.762 149.605C250.307 150.036 250.754 150.547 251.104 151.139C251.455 151.731 251.684 152.384 251.793 153.099H249.109ZM254.348 163V152.091H256.841V153.909H256.955C257.154 153.279 257.495 152.794 257.978 152.453C258.465 152.107 259.022 151.935 259.647 151.935C259.789 151.935 259.947 151.942 260.123 151.956C260.302 151.965 260.452 151.982 260.57 152.006V154.371C260.461 154.333 260.288 154.3 260.051 154.271C259.819 154.238 259.595 154.222 259.377 154.222C258.908 154.222 258.487 154.323 258.113 154.527C257.743 154.726 257.452 155.003 257.239 155.358C257.026 155.713 256.919 156.123 256.919 156.587V163H254.348ZM266.587 163.213C265.522 163.213 264.599 162.979 263.817 162.51C263.036 162.041 262.43 161.385 261.999 160.543C261.573 159.7 261.36 158.715 261.36 157.588C261.36 156.461 261.573 155.474 261.999 154.626C262.43 153.779 263.036 153.121 263.817 152.652C264.599 152.183 265.522 151.949 266.587 151.949C267.653 151.949 268.576 152.183 269.357 152.652C270.138 153.121 270.742 153.779 271.168 154.626C271.599 155.474 271.815 156.461 271.815 157.588C271.815 158.715 271.599 159.7 271.168 160.543C270.742 161.385 270.138 162.041 269.357 162.51C268.576 162.979 267.653 163.213 266.587 163.213ZM266.602 161.153C267.179 161.153 267.662 160.995 268.05 160.678C268.439 160.356 268.728 159.925 268.917 159.385C269.111 158.845 269.208 158.244 269.208 157.581C269.208 156.913 269.111 156.31 268.917 155.77C268.728 155.225 268.439 154.792 268.05 154.47C267.662 154.148 267.179 153.987 266.602 153.987C266.01 153.987 265.517 154.148 265.124 154.47C264.736 154.792 264.445 155.225 264.251 155.77C264.061 156.31 263.967 156.913 263.967 157.581C263.967 158.244 264.061 158.845 264.251 159.385C264.445 159.925 264.736 160.356 265.124 160.678C265.517 160.995 266.01 161.153 266.602 161.153ZM280.95 158.412V152.091H283.521V163H281.028V161.061H280.914C280.668 161.672 280.263 162.171 279.7 162.56C279.141 162.948 278.452 163.142 277.633 163.142C276.918 163.142 276.286 162.983 275.737 162.666C275.192 162.344 274.766 161.878 274.458 161.267C274.151 160.652 273.997 159.908 273.997 159.037V152.091H276.568V158.639C276.568 159.33 276.757 159.88 277.136 160.287C277.515 160.694 278.012 160.898 278.627 160.898C279.006 160.898 279.373 160.805 279.728 160.621C280.083 160.436 280.375 160.161 280.602 159.797C280.834 159.428 280.95 158.966 280.95 158.412ZM286.165 167.091V152.091H288.693V153.895H288.842C288.975 153.63 289.162 153.348 289.403 153.05C289.645 152.747 289.972 152.489 290.384 152.276C290.795 152.058 291.321 151.949 291.96 151.949C292.803 151.949 293.563 152.164 294.24 152.595C294.922 153.021 295.462 153.653 295.859 154.491C296.262 155.325 296.463 156.348 296.463 157.56C296.463 158.758 296.267 159.776 295.874 160.614C295.481 161.452 294.946 162.091 294.268 162.531C293.591 162.972 292.824 163.192 291.967 163.192C291.342 163.192 290.824 163.088 290.412 162.879C290 162.671 289.669 162.42 289.418 162.126C289.171 161.828 288.98 161.546 288.842 161.281H288.736V167.091H286.165ZM288.686 157.545C288.686 158.251 288.786 158.869 288.984 159.399C289.188 159.929 289.479 160.344 289.858 160.642C290.241 160.936 290.705 161.082 291.25 161.082C291.818 161.082 292.294 160.931 292.678 160.628C293.061 160.32 293.35 159.901 293.544 159.371C293.743 158.836 293.842 158.227 293.842 157.545C293.842 156.868 293.745 156.267 293.551 155.741C293.357 155.216 293.068 154.804 292.685 154.506C292.301 154.207 291.823 154.058 291.25 154.058C290.701 154.058 290.234 154.203 289.851 154.491C289.467 154.78 289.176 155.185 288.977 155.706C288.783 156.227 288.686 156.84 288.686 157.545Z" fill="white"/>
<rect x="48" y="195" width="48" height="48" rx="12" fill="#323849"/>
<path d="M82.2863 210.999C82.2863 212.892 77.6812 214.427 72.0006 214.427C66.3199 214.427 61.7148 212.892 61.7148 210.999M82.2863 210.999C82.2863 209.105 77.6812 207.57 72.0006 207.57C66.3199 207.57 61.7148 209.105 61.7148 210.999M82.2863 210.999V226.999C82.2863 228.896 77.7148 230.427 72.0006 230.427C66.2863 230.427 61.7148 228.896 61.7148 226.999V210.999M82.2863 218.999C82.2863 220.896 77.7148 222.427 72.0006 222.427C66.2863 222.427 61.7148 220.896 61.7148 218.999" stroke="white" stroke-width="3" stroke-linecap="round" stroke-linejoin="round"/>
<path d="M127.625 207.42C127.564 206.883 127.314 206.466 126.875 206.17C126.436 205.871 125.883 205.722 125.216 205.722C124.739 205.722 124.326 205.797 123.977 205.949C123.629 206.097 123.358 206.301 123.165 206.562C122.975 206.82 122.881 207.114 122.881 207.443C122.881 207.72 122.945 207.958 123.074 208.159C123.206 208.36 123.379 208.528 123.591 208.665C123.807 208.797 124.038 208.909 124.284 209C124.53 209.087 124.767 209.159 124.994 209.216L126.131 209.511C126.502 209.602 126.883 209.725 127.273 209.881C127.663 210.036 128.025 210.241 128.358 210.494C128.691 210.748 128.96 211.062 129.165 211.438C129.373 211.812 129.477 212.261 129.477 212.784C129.477 213.443 129.307 214.028 128.966 214.54C128.629 215.051 128.138 215.455 127.494 215.75C126.854 216.045 126.08 216.193 125.17 216.193C124.299 216.193 123.545 216.055 122.909 215.778C122.273 215.502 121.775 215.11 121.415 214.602C121.055 214.091 120.856 213.485 120.818 212.784H122.58C122.614 213.205 122.75 213.555 122.989 213.835C123.231 214.112 123.54 214.318 123.915 214.455C124.294 214.587 124.708 214.653 125.159 214.653C125.655 214.653 126.097 214.576 126.483 214.42C126.873 214.261 127.18 214.042 127.403 213.761C127.627 213.477 127.739 213.146 127.739 212.767C127.739 212.422 127.64 212.14 127.443 211.92C127.25 211.701 126.987 211.519 126.653 211.375C126.324 211.231 125.951 211.104 125.534 210.994L124.159 210.619C123.227 210.366 122.489 209.992 121.943 209.5C121.402 209.008 121.131 208.356 121.131 207.545C121.131 206.875 121.313 206.29 121.676 205.79C122.04 205.29 122.532 204.902 123.153 204.625C123.775 204.345 124.475 204.205 125.256 204.205C126.044 204.205 126.739 204.343 127.341 204.619C127.947 204.896 128.424 205.277 128.773 205.761C129.121 206.242 129.303 206.795 129.318 207.42H127.625ZM135.307 216.159C134.527 216.159 133.83 216.025 133.216 215.756C132.607 215.487 132.124 215.114 131.768 214.636C131.415 214.155 131.226 213.598 131.199 212.966H132.983C133.006 213.311 133.122 213.61 133.33 213.864C133.542 214.114 133.819 214.307 134.16 214.443C134.501 214.58 134.879 214.648 135.296 214.648C135.754 214.648 136.16 214.568 136.512 214.409C136.868 214.25 137.146 214.028 137.347 213.744C137.548 213.456 137.648 213.125 137.648 212.75C137.648 212.36 137.548 212.017 137.347 211.722C137.15 211.422 136.86 211.187 136.478 211.017C136.099 210.847 135.641 210.761 135.103 210.761H134.12V209.33H135.103C135.535 209.33 135.913 209.252 136.239 209.097C136.569 208.941 136.826 208.725 137.012 208.449C137.197 208.169 137.29 207.841 137.29 207.466C137.29 207.106 137.209 206.794 137.046 206.528C136.887 206.259 136.66 206.049 136.364 205.898C136.072 205.746 135.728 205.67 135.33 205.67C134.951 205.67 134.597 205.741 134.268 205.881C133.942 206.017 133.677 206.214 133.472 206.472C133.268 206.725 133.158 207.03 133.143 207.386H131.444C131.463 206.758 131.648 206.205 132.001 205.727C132.357 205.25 132.826 204.877 133.41 204.608C133.993 204.339 134.641 204.205 135.353 204.205C136.099 204.205 136.743 204.35 137.285 204.642C137.83 204.93 138.251 205.314 138.546 205.795C138.845 206.277 138.993 206.803 138.989 207.375C138.993 208.027 138.811 208.58 138.444 209.034C138.08 209.489 137.595 209.794 136.989 209.949V210.04C137.762 210.157 138.36 210.464 138.785 210.96C139.213 211.456 139.425 212.072 139.421 212.807C139.425 213.447 139.247 214.021 138.887 214.528C138.531 215.036 138.044 215.436 137.427 215.727C136.809 216.015 136.103 216.159 135.307 216.159ZM145.642 216V204.364H147.341V208.688H147.443C147.542 208.506 147.684 208.295 147.869 208.057C148.055 207.818 148.313 207.61 148.642 207.432C148.972 207.25 149.407 207.159 149.949 207.159C150.654 207.159 151.282 207.337 151.835 207.693C152.388 208.049 152.822 208.562 153.136 209.233C153.455 209.903 153.614 210.71 153.614 211.653C153.614 212.597 153.457 213.405 153.142 214.08C152.828 214.75 152.396 215.267 151.847 215.631C151.297 215.991 150.671 216.17 149.966 216.17C149.436 216.17 149.002 216.081 148.665 215.903C148.332 215.725 148.07 215.517 147.881 215.278C147.691 215.04 147.546 214.828 147.443 214.642H147.301V216H145.642ZM147.307 211.636C147.307 212.25 147.396 212.788 147.574 213.25C147.752 213.712 148.01 214.074 148.347 214.335C148.684 214.593 149.097 214.722 149.585 214.722C150.093 214.722 150.517 214.587 150.858 214.318C151.199 214.045 151.457 213.676 151.631 213.21C151.809 212.744 151.898 212.22 151.898 211.636C151.898 211.061 151.811 210.544 151.636 210.085C151.466 209.627 151.208 209.265 150.864 209C150.523 208.735 150.097 208.602 149.585 208.602C149.093 208.602 148.676 208.729 148.335 208.983C147.998 209.237 147.743 209.591 147.568 210.045C147.394 210.5 147.307 211.03 147.307 211.636ZM160.89 212.381V207.273H162.594V216H160.924V214.489H160.833C160.632 214.955 160.31 215.343 159.867 215.653C159.428 215.96 158.88 216.114 158.225 216.114C157.664 216.114 157.168 215.991 156.736 215.744C156.308 215.494 155.971 215.125 155.725 214.636C155.483 214.148 155.361 213.544 155.361 212.824V207.273H157.06V212.619C157.06 213.214 157.225 213.687 157.555 214.04C157.884 214.392 158.312 214.568 158.839 214.568C159.157 214.568 159.473 214.489 159.788 214.33C160.106 214.17 160.369 213.93 160.577 213.608C160.789 213.286 160.894 212.877 160.89 212.381ZM168.393 216.176C167.548 216.176 166.821 215.985 166.211 215.602C165.605 215.216 165.139 214.684 164.814 214.006C164.488 213.328 164.325 212.551 164.325 211.676C164.325 210.79 164.492 210.008 164.825 209.33C165.158 208.648 165.628 208.116 166.234 207.733C166.84 207.35 167.554 207.159 168.376 207.159C169.039 207.159 169.63 207.282 170.149 207.528C170.668 207.771 171.086 208.112 171.405 208.551C171.727 208.991 171.918 209.504 171.978 210.091H170.325C170.234 209.682 170.026 209.33 169.7 209.034C169.378 208.739 168.946 208.591 168.405 208.591C167.931 208.591 167.516 208.716 167.16 208.966C166.808 209.212 166.533 209.564 166.336 210.023C166.139 210.477 166.041 211.015 166.041 211.636C166.041 212.273 166.138 212.822 166.331 213.284C166.524 213.746 166.797 214.104 167.149 214.358C167.505 214.612 167.923 214.739 168.405 214.739C168.727 214.739 169.018 214.68 169.28 214.562C169.545 214.441 169.766 214.269 169.944 214.045C170.126 213.822 170.253 213.553 170.325 213.239H171.978C171.918 213.803 171.734 214.307 171.427 214.75C171.12 215.193 170.709 215.542 170.194 215.795C169.683 216.049 169.083 216.176 168.393 216.176ZM175.198 213.04L175.186 210.966H175.482L178.959 207.273H180.993L177.027 211.477H176.76L175.198 213.04ZM173.635 216V204.364H175.334V216H173.635ZM179.147 216L176.022 211.852L177.192 210.665L181.232 216H179.147ZM185.783 216.176C184.924 216.176 184.183 215.992 183.562 215.625C182.944 215.254 182.467 214.733 182.13 214.062C181.797 213.388 181.63 212.598 181.63 211.693C181.63 210.799 181.797 210.011 182.13 209.33C182.467 208.648 182.937 208.116 183.539 207.733C184.145 207.35 184.853 207.159 185.664 207.159C186.157 207.159 186.634 207.241 187.096 207.403C187.558 207.566 187.973 207.822 188.34 208.17C188.708 208.519 188.997 208.972 189.21 209.528C189.422 210.081 189.528 210.754 189.528 211.545V212.148H182.59V210.875H187.863C187.863 210.428 187.772 210.032 187.59 209.688C187.408 209.339 187.153 209.064 186.823 208.864C186.497 208.663 186.115 208.562 185.675 208.562C185.198 208.562 184.782 208.68 184.425 208.915C184.073 209.146 183.8 209.449 183.607 209.824C183.418 210.195 183.323 210.598 183.323 211.034V212.028C183.323 212.612 183.425 213.108 183.63 213.517C183.838 213.926 184.128 214.239 184.499 214.455C184.871 214.667 185.304 214.773 185.8 214.773C186.122 214.773 186.416 214.727 186.681 214.636C186.946 214.542 187.175 214.402 187.369 214.216C187.562 214.03 187.71 213.801 187.812 213.528L189.42 213.818C189.291 214.292 189.06 214.706 188.727 215.062C188.397 215.415 187.982 215.689 187.482 215.886C186.986 216.08 186.42 216.176 185.783 216.176ZM195.327 207.273V208.636H190.559V207.273H195.327ZM191.838 205.182H193.537V213.438C193.537 213.767 193.586 214.015 193.684 214.182C193.783 214.345 193.91 214.456 194.065 214.517C194.224 214.574 194.397 214.602 194.582 214.602C194.719 214.602 194.838 214.593 194.94 214.574C195.042 214.555 195.122 214.54 195.179 214.528L195.486 215.932C195.387 215.97 195.247 216.008 195.065 216.045C194.883 216.087 194.656 216.11 194.383 216.114C193.936 216.121 193.52 216.042 193.133 215.875C192.747 215.708 192.434 215.451 192.196 215.102C191.957 214.754 191.838 214.316 191.838 213.79V205.182Z" fill="white"/>
<rect x="120" y="233" width="124" height="8" rx="2" fill="#424A61"/>
<rect x="256" y="233" width="120" height="8" rx="2" fill="#424A61"/>
<rect x="48" y="267" width="48" height="48" rx="12" fill="white"/>
<path d="M77.7151 296.713L83.4294 290.999L77.7151 285.284M66.2866 285.284L60.5723 290.999L66.2866 296.713M74.2866 280.713L69.7151 301.284" stroke="#111318" stroke-width="3" stroke-linecap="round" stroke-linejoin="round"/>
<path d="M130.943 281.148H129.17C129.102 280.769 128.975 280.436 128.79 280.148C128.604 279.86 128.377 279.616 128.108 279.415C127.839 279.214 127.538 279.062 127.205 278.96C126.875 278.858 126.525 278.807 126.153 278.807C125.483 278.807 124.883 278.975 124.352 279.312C123.826 279.65 123.409 280.144 123.102 280.795C122.799 281.447 122.648 282.242 122.648 283.182C122.648 284.129 122.799 284.928 123.102 285.58C123.409 286.231 123.828 286.723 124.358 287.057C124.888 287.39 125.485 287.557 126.148 287.557C126.515 287.557 126.864 287.508 127.193 287.409C127.527 287.307 127.828 287.157 128.097 286.96C128.366 286.763 128.593 286.523 128.778 286.239C128.968 285.951 129.098 285.621 129.17 285.25L130.943 285.256C130.848 285.828 130.665 286.354 130.392 286.835C130.123 287.312 129.777 287.725 129.352 288.074C128.932 288.419 128.451 288.686 127.909 288.875C127.367 289.064 126.777 289.159 126.136 289.159C125.129 289.159 124.231 288.92 123.443 288.443C122.655 287.962 122.034 287.275 121.58 286.381C121.129 285.487 120.903 284.42 120.903 283.182C120.903 281.939 121.131 280.873 121.585 279.983C122.04 279.089 122.661 278.403 123.449 277.926C124.237 277.445 125.133 277.205 126.136 277.205C126.754 277.205 127.33 277.294 127.864 277.472C128.402 277.646 128.884 277.903 129.312 278.244C129.741 278.581 130.095 278.994 130.375 279.483C130.655 279.968 130.845 280.523 130.943 281.148ZM132.748 277.364H134.447V286.614C134.447 286.989 134.494 287.254 134.589 287.409C134.687 287.564 134.873 287.638 135.145 287.631C135.293 287.627 135.403 287.617 135.475 287.602C135.551 287.587 135.619 287.57 135.679 287.551L135.986 288.909C135.869 288.943 135.719 288.975 135.537 289.006C135.359 289.04 135.157 289.059 134.929 289.062C134.195 289.074 133.647 288.9 133.287 288.54C132.928 288.18 132.748 287.655 132.748 286.966V277.364ZM140.623 289.176C139.805 289.176 139.091 288.989 138.481 288.614C137.871 288.239 137.398 287.714 137.061 287.04C136.724 286.366 136.555 285.578 136.555 284.676C136.555 283.771 136.724 282.979 137.061 282.301C137.398 281.623 137.871 281.097 138.481 280.722C139.091 280.347 139.805 280.159 140.623 280.159C141.441 280.159 142.155 280.347 142.765 280.722C143.375 281.097 143.849 281.623 144.186 282.301C144.523 282.979 144.691 283.771 144.691 284.676C144.691 285.578 144.523 286.366 144.186 287.04C143.849 287.714 143.375 288.239 142.765 288.614C142.155 288.989 141.441 289.176 140.623 289.176ZM140.629 287.75C141.159 287.75 141.599 287.61 141.947 287.33C142.296 287.049 142.553 286.676 142.72 286.21C142.89 285.744 142.975 285.231 142.975 284.67C142.975 284.114 142.89 283.602 142.72 283.136C142.553 282.667 142.296 282.29 141.947 282.006C141.599 281.722 141.159 281.58 140.629 281.58C140.095 281.58 139.652 281.722 139.299 282.006C138.951 282.29 138.691 282.667 138.521 283.136C138.354 283.602 138.271 284.114 138.271 284.67C138.271 285.231 138.354 285.744 138.521 286.21C138.691 286.676 138.951 287.049 139.299 287.33C139.652 287.61 140.095 287.75 140.629 287.75ZM151.956 285.381V280.273H153.661V289H151.99V287.489H151.899C151.699 287.955 151.377 288.343 150.933 288.653C150.494 288.96 149.947 289.114 149.291 289.114C148.731 289.114 148.234 288.991 147.803 288.744C147.375 288.494 147.038 288.125 146.791 287.636C146.549 287.148 146.428 286.544 146.428 285.824V280.273H148.127V285.619C148.127 286.214 148.291 286.687 148.621 287.04C148.95 287.392 149.378 287.568 149.905 287.568C150.223 287.568 150.539 287.489 150.854 287.33C151.172 287.17 151.435 286.93 151.644 286.608C151.856 286.286 151.96 285.877 151.956 285.381ZM159.05 289.17C158.346 289.17 157.717 288.991 157.164 288.631C156.615 288.267 156.183 287.75 155.869 287.08C155.558 286.405 155.403 285.597 155.403 284.653C155.403 283.71 155.56 282.903 155.874 282.233C156.192 281.562 156.628 281.049 157.181 280.693C157.734 280.337 158.361 280.159 159.062 280.159C159.603 280.159 160.039 280.25 160.369 280.432C160.702 280.61 160.959 280.818 161.141 281.057C161.327 281.295 161.471 281.506 161.573 281.688H161.675V277.364H163.374V289H161.715V287.642H161.573C161.471 287.828 161.323 288.04 161.13 288.278C160.94 288.517 160.679 288.725 160.346 288.903C160.012 289.081 159.581 289.17 159.05 289.17ZM159.425 287.722C159.914 287.722 160.327 287.593 160.664 287.335C161.005 287.074 161.262 286.712 161.437 286.25C161.615 285.788 161.704 285.25 161.704 284.636C161.704 284.03 161.617 283.5 161.442 283.045C161.268 282.591 161.012 282.237 160.675 281.983C160.338 281.729 159.922 281.602 159.425 281.602C158.914 281.602 158.488 281.735 158.147 282C157.806 282.265 157.548 282.627 157.374 283.085C157.204 283.544 157.119 284.061 157.119 284.636C157.119 285.22 157.206 285.744 157.38 286.21C157.554 286.676 157.812 287.045 158.153 287.318C158.497 287.587 158.922 287.722 159.425 287.722ZM165.775 289V277.364H172.991V278.875H167.531V282.42H172.474V283.926H167.531V289H165.775ZM177.889 289.176C177.071 289.176 176.357 288.989 175.747 288.614C175.138 288.239 174.664 287.714 174.327 287.04C173.99 286.366 173.821 285.578 173.821 284.676C173.821 283.771 173.99 282.979 174.327 282.301C174.664 281.623 175.138 281.097 175.747 280.722C176.357 280.347 177.071 280.159 177.889 280.159C178.708 280.159 179.422 280.347 180.031 280.722C180.641 281.097 181.115 281.623 181.452 282.301C181.789 282.979 181.958 283.771 181.958 284.676C181.958 285.578 181.789 286.366 181.452 287.04C181.115 287.714 180.641 288.239 180.031 288.614C179.422 288.989 178.708 289.176 177.889 289.176ZM177.895 287.75C178.425 287.75 178.865 287.61 179.213 287.33C179.562 287.049 179.819 286.676 179.986 286.21C180.156 285.744 180.242 285.231 180.242 284.67C180.242 284.114 180.156 283.602 179.986 283.136C179.819 282.667 179.562 282.29 179.213 282.006C178.865 281.722 178.425 281.58 177.895 281.58C177.361 281.58 176.918 281.722 176.566 282.006C176.217 282.29 175.958 282.667 175.787 283.136C175.62 283.602 175.537 284.114 175.537 284.67C175.537 285.231 175.62 285.744 175.787 286.21C175.958 286.676 176.217 287.049 176.566 287.33C176.918 287.61 177.361 287.75 177.895 287.75ZM183.694 289V280.273H185.336V281.659H185.427C185.586 281.189 185.866 280.82 186.268 280.551C186.673 280.278 187.131 280.142 187.643 280.142C187.749 280.142 187.874 280.146 188.018 280.153C188.166 280.161 188.281 280.17 188.364 280.182V281.807C188.296 281.788 188.175 281.767 188.001 281.744C187.826 281.718 187.652 281.705 187.478 281.705C187.076 281.705 186.719 281.79 186.404 281.96C186.094 282.127 185.847 282.36 185.666 282.659C185.484 282.955 185.393 283.292 185.393 283.67V289H183.694ZM189.675 289V280.273H191.305V281.693H191.413C191.595 281.212 191.892 280.837 192.305 280.568C192.718 280.295 193.212 280.159 193.788 280.159C194.372 280.159 194.86 280.295 195.254 280.568C195.652 280.841 195.945 281.216 196.135 281.693H196.226C196.434 281.227 196.765 280.856 197.22 280.58C197.675 280.299 198.216 280.159 198.845 280.159C199.637 280.159 200.283 280.407 200.783 280.903C201.286 281.4 201.538 282.148 201.538 283.148V289H199.839V283.307C199.839 282.716 199.678 282.288 199.356 282.023C199.034 281.758 198.65 281.625 198.203 281.625C197.65 281.625 197.22 281.795 196.913 282.136C196.606 282.473 196.453 282.907 196.453 283.438V289H194.76V283.199C194.76 282.725 194.612 282.345 194.317 282.057C194.021 281.769 193.637 281.625 193.163 281.625C192.841 281.625 192.544 281.71 192.271 281.881C192.002 282.047 191.784 282.28 191.618 282.58C191.455 282.879 191.373 283.225 191.373 283.619V289H189.675ZM206.195 289.193C205.642 289.193 205.142 289.091 204.695 288.886C204.248 288.678 203.894 288.377 203.632 287.983C203.375 287.589 203.246 287.106 203.246 286.534C203.246 286.042 203.341 285.636 203.53 285.318C203.72 285 203.975 284.748 204.297 284.562C204.619 284.377 204.979 284.237 205.377 284.142C205.774 284.047 206.18 283.975 206.593 283.926C207.115 283.866 207.54 283.816 207.865 283.778C208.191 283.737 208.428 283.67 208.576 283.58C208.723 283.489 208.797 283.341 208.797 283.136V283.097C208.797 282.6 208.657 282.216 208.377 281.943C208.1 281.67 207.687 281.534 207.138 281.534C206.566 281.534 206.115 281.661 205.786 281.915C205.46 282.165 205.235 282.443 205.11 282.75L203.513 282.386C203.703 281.856 203.979 281.428 204.343 281.102C204.71 280.773 205.132 280.534 205.61 280.386C206.087 280.235 206.589 280.159 207.115 280.159C207.464 280.159 207.833 280.201 208.223 280.284C208.617 280.364 208.985 280.511 209.326 280.727C209.67 280.943 209.953 281.252 210.172 281.653C210.392 282.051 210.502 282.568 210.502 283.205V289H208.843V287.807H208.774C208.665 288.027 208.5 288.242 208.28 288.455C208.06 288.667 207.778 288.843 207.434 288.983C207.089 289.123 206.676 289.193 206.195 289.193ZM206.564 287.83C207.034 287.83 207.435 287.737 207.769 287.551C208.106 287.366 208.362 287.123 208.536 286.824C208.714 286.521 208.803 286.197 208.803 285.852V284.727C208.742 284.788 208.625 284.845 208.451 284.898C208.28 284.947 208.085 284.991 207.865 285.028C207.646 285.062 207.432 285.095 207.223 285.125C207.015 285.152 206.841 285.174 206.701 285.193C206.371 285.235 206.07 285.305 205.797 285.403C205.528 285.502 205.312 285.644 205.149 285.83C204.99 286.011 204.911 286.254 204.911 286.557C204.911 286.977 205.066 287.295 205.377 287.511C205.687 287.723 206.083 287.83 206.564 287.83ZM216.678 280.273V281.636H211.911V280.273H216.678ZM213.19 278.182H214.889V286.438C214.889 286.767 214.938 287.015 215.036 287.182C215.135 287.345 215.262 287.456 215.417 287.517C215.576 287.574 215.748 287.602 215.934 287.602C216.07 287.602 216.19 287.593 216.292 287.574C216.394 287.555 216.474 287.54 216.531 287.528L216.838 288.932C216.739 288.97 216.599 289.008 216.417 289.045C216.235 289.087 216.008 289.11 215.735 289.114C215.288 289.121 214.872 289.042 214.485 288.875C214.099 288.708 213.786 288.451 213.548 288.102C213.309 287.754 213.19 287.316 213.19 286.79V278.182ZM218.398 289V280.273H220.097V289H218.398ZM219.256 278.926C218.96 278.926 218.706 278.828 218.494 278.631C218.286 278.43 218.182 278.191 218.182 277.915C218.182 277.634 218.286 277.396 218.494 277.199C218.706 276.998 218.96 276.898 219.256 276.898C219.551 276.898 219.803 276.998 220.011 277.199C220.223 277.396 220.329 277.634 220.329 277.915C220.329 278.191 220.223 278.43 220.011 278.631C219.803 278.828 219.551 278.926 219.256 278.926ZM225.898 289.176C225.08 289.176 224.366 288.989 223.756 288.614C223.146 288.239 222.673 287.714 222.336 287.04C221.999 286.366 221.83 285.578 221.83 284.676C221.83 283.771 221.999 282.979 222.336 282.301C222.673 281.623 223.146 281.097 223.756 280.722C224.366 280.347 225.08 280.159 225.898 280.159C226.716 280.159 227.43 280.347 228.04 280.722C228.65 281.097 229.124 281.623 229.461 282.301C229.798 282.979 229.966 283.771 229.966 284.676C229.966 285.578 229.798 286.366 229.461 287.04C229.124 287.714 228.65 288.239 228.04 288.614C227.43 288.989 226.716 289.176 225.898 289.176ZM225.904 287.75C226.434 287.75 226.874 287.61 227.222 287.33C227.571 287.049 227.828 286.676 227.995 286.21C228.165 285.744 228.25 285.231 228.25 284.67C228.25 284.114 228.165 283.602 227.995 283.136C227.828 282.667 227.571 282.29 227.222 282.006C226.874 281.722 226.434 281.58 225.904 281.58C225.37 281.58 224.927 281.722 224.574 282.006C224.226 282.29 223.966 282.667 223.796 283.136C223.629 283.602 223.546 284.114 223.546 284.67C223.546 285.231 223.629 285.744 223.796 286.21C223.966 286.676 224.226 287.049 224.574 287.33C224.927 287.61 225.37 287.75 225.904 287.75ZM233.402 283.818V289H231.703V280.273H233.333V281.693H233.441C233.642 281.231 233.956 280.86 234.384 280.58C234.816 280.299 235.36 280.159 236.015 280.159C236.61 280.159 237.131 280.284 237.578 280.534C238.025 280.78 238.371 281.148 238.617 281.636C238.864 282.125 238.987 282.729 238.987 283.449V289H237.288V283.653C237.288 283.021 237.123 282.527 236.794 282.17C236.464 281.811 236.011 281.631 235.436 281.631C235.042 281.631 234.691 281.716 234.384 281.886C234.081 282.057 233.841 282.307 233.663 282.636C233.489 282.962 233.402 283.356 233.402 283.818ZM251.719 282.403L250.18 282.676C250.115 282.479 250.013 282.292 249.873 282.114C249.736 281.936 249.551 281.79 249.316 281.676C249.081 281.562 248.787 281.506 248.435 281.506C247.954 281.506 247.553 281.614 247.231 281.83C246.909 282.042 246.748 282.316 246.748 282.653C246.748 282.945 246.856 283.18 247.072 283.358C247.287 283.536 247.636 283.682 248.117 283.795L249.503 284.114C250.306 284.299 250.905 284.585 251.299 284.972C251.693 285.358 251.89 285.86 251.89 286.477C251.89 287 251.738 287.466 251.435 287.875C251.136 288.28 250.717 288.598 250.18 288.83C249.645 289.061 249.026 289.176 248.322 289.176C247.344 289.176 246.547 288.968 245.93 288.551C245.312 288.131 244.933 287.534 244.793 286.761L246.435 286.511C246.537 286.939 246.748 287.263 247.066 287.483C247.384 287.699 247.799 287.807 248.31 287.807C248.867 287.807 249.312 287.691 249.645 287.46C249.979 287.225 250.145 286.939 250.145 286.602C250.145 286.33 250.043 286.1 249.839 285.915C249.638 285.729 249.329 285.589 248.912 285.494L247.435 285.17C246.621 284.985 246.019 284.689 245.628 284.284C245.242 283.879 245.049 283.366 245.049 282.744C245.049 282.229 245.193 281.778 245.481 281.392C245.769 281.006 246.166 280.705 246.674 280.489C247.181 280.269 247.763 280.159 248.418 280.159C249.361 280.159 250.104 280.364 250.645 280.773C251.187 281.178 251.545 281.722 251.719 282.403ZM257.672 280.273V281.636H252.904V280.273H257.672ZM254.183 278.182H255.882V286.438C255.882 286.767 255.931 287.015 256.029 287.182C256.128 287.345 256.255 287.456 256.41 287.517C256.569 287.574 256.742 287.602 256.927 287.602C257.064 287.602 257.183 287.593 257.285 287.574C257.387 287.555 257.467 287.54 257.524 287.528L257.831 288.932C257.732 288.97 257.592 289.008 257.41 289.045C257.228 289.087 257.001 289.11 256.728 289.114C256.281 289.121 255.865 289.042 255.478 288.875C255.092 288.708 254.779 288.451 254.541 288.102C254.302 287.754 254.183 287.316 254.183 286.79V278.182ZM261.931 289.193C261.378 289.193 260.878 289.091 260.431 288.886C259.984 288.678 259.629 288.377 259.368 287.983C259.11 287.589 258.982 287.106 258.982 286.534C258.982 286.042 259.076 285.636 259.266 285.318C259.455 285 259.711 284.748 260.033 284.562C260.355 284.377 260.715 284.237 261.112 284.142C261.51 284.047 261.915 283.975 262.328 283.926C262.851 283.866 263.275 283.816 263.601 283.778C263.927 283.737 264.164 283.67 264.311 283.58C264.459 283.489 264.533 283.341 264.533 283.136V283.097C264.533 282.6 264.393 282.216 264.112 281.943C263.836 281.67 263.423 281.534 262.874 281.534C262.302 281.534 261.851 281.661 261.521 281.915C261.196 282.165 260.97 282.443 260.845 282.75L259.249 282.386C259.438 281.856 259.715 281.428 260.078 281.102C260.446 280.773 260.868 280.534 261.345 280.386C261.823 280.235 262.325 280.159 262.851 280.159C263.2 280.159 263.569 280.201 263.959 280.284C264.353 280.364 264.72 280.511 265.061 280.727C265.406 280.943 265.688 281.252 265.908 281.653C266.128 282.051 266.237 282.568 266.237 283.205V289H264.578V287.807H264.51C264.4 288.027 264.235 288.242 264.016 288.455C263.796 288.667 263.514 288.843 263.169 288.983C262.825 289.123 262.412 289.193 261.931 289.193ZM262.3 287.83C262.77 287.83 263.171 287.737 263.504 287.551C263.842 287.366 264.097 287.123 264.271 286.824C264.45 286.521 264.539 286.197 264.539 285.852V284.727C264.478 284.788 264.36 284.845 264.186 284.898C264.016 284.947 263.821 284.991 263.601 285.028C263.381 285.062 263.167 285.095 262.959 285.125C262.751 285.152 262.576 285.174 262.436 285.193C262.107 285.235 261.806 285.305 261.533 285.403C261.264 285.502 261.048 285.644 260.885 285.83C260.726 286.011 260.646 286.254 260.646 286.557C260.646 286.977 260.802 287.295 261.112 287.511C261.423 287.723 261.819 287.83 262.3 287.83ZM272.016 289.176C271.172 289.176 270.444 288.985 269.834 288.602C269.228 288.216 268.763 287.684 268.437 287.006C268.111 286.328 267.948 285.551 267.948 284.676C267.948 283.79 268.115 283.008 268.448 282.33C268.781 281.648 269.251 281.116 269.857 280.733C270.463 280.35 271.177 280.159 271.999 280.159C272.662 280.159 273.253 280.282 273.772 280.528C274.291 280.771 274.709 281.112 275.028 281.551C275.35 281.991 275.541 282.504 275.602 283.091H273.948C273.857 282.682 273.649 282.33 273.323 282.034C273.001 281.739 272.569 281.591 272.028 281.591C271.554 281.591 271.139 281.716 270.783 281.966C270.431 282.212 270.156 282.564 269.959 283.023C269.763 283.477 269.664 284.015 269.664 284.636C269.664 285.273 269.761 285.822 269.954 286.284C270.147 286.746 270.42 287.104 270.772 287.358C271.128 287.612 271.547 287.739 272.028 287.739C272.35 287.739 272.641 287.68 272.903 287.562C273.168 287.441 273.389 287.269 273.567 287.045C273.749 286.822 273.876 286.553 273.948 286.239H275.602C275.541 286.803 275.357 287.307 275.05 287.75C274.744 288.193 274.333 288.542 273.817 288.795C273.306 289.049 272.706 289.176 272.016 289.176ZM278.821 286.04L278.809 283.966H279.105L282.582 280.273H284.616L280.65 284.477H280.383L278.821 286.04ZM277.258 289V277.364H278.957V289H277.258ZM282.77 289L279.645 284.852L280.815 283.665L284.855 289H282.77Z" fill="white"/>
<rect x="120" y="304" width="280" height="8" rx="2" fill="#424A61"/>
<rect x="48" y="339" width="48" height="48" rx="12" fill="#F47715"/>
<path d="M83.4294 369.284L82.6388 357.821C82.5147 356.022 82.4527 355.122 82.0626 354.44C81.7192 353.839 81.2022 353.356 80.5794 353.055C79.8721 352.713 78.9701 352.713 77.1661 352.713H66.8355C65.0316 352.713 64.1296 352.713 63.4223 353.055C62.7995 353.356 62.2825 353.839 61.939 354.44C61.549 355.122 61.4869 356.022 61.3628 357.821L60.5723 369.284M83.4294 369.284C83.4294 371.493 81.6385 373.284 79.4294 373.284H64.5723C62.3631 373.284 60.5723 371.493 60.5723 369.284M83.4294 369.284C83.4294 367.075 81.6385 365.284 79.4294 365.284H64.5723C62.3631 365.284 60.5723 367.075 60.5723 369.284M65.1437 369.284H65.1551M72.0008 369.284H78.858" stroke="white" stroke-width="3" stroke-linecap="round" stroke-linejoin="round"/>
<path d="M121.278 360V348.364H128.574V349.875H123.034V353.42H128.193V354.926H123.034V358.489H128.642V360H121.278ZM140.424 352.148H138.651C138.583 351.769 138.456 351.436 138.27 351.148C138.085 350.86 137.858 350.616 137.589 350.415C137.32 350.214 137.019 350.062 136.685 349.96C136.356 349.858 136.005 349.807 135.634 349.807C134.964 349.807 134.363 349.975 133.833 350.312C133.306 350.65 132.89 351.144 132.583 351.795C132.28 352.447 132.128 353.242 132.128 354.182C132.128 355.129 132.28 355.928 132.583 356.58C132.89 357.231 133.308 357.723 133.839 358.057C134.369 358.39 134.965 358.557 135.628 358.557C135.996 358.557 136.344 358.508 136.674 358.409C137.007 358.307 137.308 358.157 137.577 357.96C137.846 357.763 138.073 357.523 138.259 357.239C138.448 356.951 138.579 356.621 138.651 356.25L140.424 356.256C140.329 356.828 140.145 357.354 139.873 357.835C139.604 358.312 139.257 358.725 138.833 359.074C138.412 359.419 137.931 359.686 137.39 359.875C136.848 360.064 136.257 360.159 135.617 360.159C134.609 360.159 133.712 359.92 132.924 359.443C132.136 358.962 131.515 358.275 131.06 357.381C130.609 356.487 130.384 355.42 130.384 354.182C130.384 352.939 130.611 351.873 131.066 350.983C131.52 350.089 132.142 349.403 132.929 348.926C133.717 348.445 134.613 348.205 135.617 348.205C136.234 348.205 136.81 348.294 137.344 348.472C137.882 348.646 138.365 348.903 138.793 349.244C139.221 349.581 139.575 349.994 139.856 350.483C140.136 350.968 140.325 351.523 140.424 352.148ZM142.206 360V358.727L146.143 354.648C146.564 354.205 146.91 353.816 147.183 353.483C147.459 353.146 147.666 352.826 147.802 352.523C147.939 352.22 148.007 351.898 148.007 351.557C148.007 351.17 147.916 350.837 147.734 350.557C147.552 350.273 147.304 350.055 146.99 349.903C146.675 349.748 146.321 349.67 145.927 349.67C145.51 349.67 145.147 349.756 144.836 349.926C144.526 350.097 144.287 350.337 144.12 350.648C143.954 350.958 143.87 351.322 143.87 351.739H142.194C142.194 351.03 142.357 350.411 142.683 349.881C143.009 349.35 143.456 348.939 144.024 348.648C144.592 348.352 145.238 348.205 145.961 348.205C146.692 348.205 147.336 348.35 147.893 348.642C148.454 348.93 148.891 349.324 149.206 349.824C149.52 350.32 149.677 350.881 149.677 351.506C149.677 351.938 149.596 352.36 149.433 352.773C149.274 353.186 148.995 353.646 148.598 354.153C148.2 354.657 147.647 355.269 146.939 355.989L144.626 358.409V358.494H149.865V360H142.206ZM155.955 360V351.273H157.654V360H155.955ZM156.813 349.926C156.518 349.926 156.264 349.828 156.052 349.631C155.843 349.43 155.739 349.191 155.739 348.915C155.739 348.634 155.843 348.396 156.052 348.199C156.264 347.998 156.518 347.898 156.813 347.898C157.109 347.898 157.36 347.998 157.569 348.199C157.781 348.396 157.887 348.634 157.887 348.915C157.887 349.191 157.781 349.43 157.569 349.631C157.36 349.828 157.109 349.926 156.813 349.926ZM161.478 354.818V360H159.78V351.273H161.41V352.693H161.518C161.719 352.231 162.033 351.86 162.461 351.58C162.893 351.299 163.437 351.159 164.092 351.159C164.687 351.159 165.208 351.284 165.655 351.534C166.102 351.78 166.448 352.148 166.694 352.636C166.941 353.125 167.064 353.729 167.064 354.449V360H165.365V354.653C165.365 354.021 165.2 353.527 164.87 353.17C164.541 352.811 164.088 352.631 163.513 352.631C163.119 352.631 162.768 352.716 162.461 352.886C162.158 353.057 161.918 353.307 161.74 353.636C161.566 353.962 161.478 354.356 161.478 354.818ZM175.722 353.403L174.182 353.676C174.118 353.479 174.015 353.292 173.875 353.114C173.739 352.936 173.553 352.79 173.318 352.676C173.084 352.562 172.79 352.506 172.438 352.506C171.957 352.506 171.555 352.614 171.233 352.83C170.911 353.042 170.75 353.316 170.75 353.653C170.75 353.945 170.858 354.18 171.074 354.358C171.29 354.536 171.638 354.682 172.12 354.795L173.506 355.114C174.309 355.299 174.907 355.585 175.301 355.972C175.695 356.358 175.892 356.86 175.892 357.477C175.892 358 175.741 358.466 175.438 358.875C175.138 359.28 174.72 359.598 174.182 359.83C173.648 360.061 173.029 360.176 172.324 360.176C171.347 360.176 170.549 359.968 169.932 359.551C169.315 359.131 168.936 358.534 168.796 357.761L170.438 357.511C170.54 357.939 170.75 358.263 171.068 358.483C171.387 358.699 171.801 358.807 172.313 358.807C172.87 358.807 173.315 358.691 173.648 358.46C173.981 358.225 174.148 357.939 174.148 357.602C174.148 357.33 174.046 357.1 173.841 356.915C173.64 356.729 173.332 356.589 172.915 356.494L171.438 356.17C170.623 355.985 170.021 355.689 169.631 355.284C169.245 354.879 169.051 354.366 169.051 353.744C169.051 353.229 169.195 352.778 169.483 352.392C169.771 352.006 170.169 351.705 170.676 351.489C171.184 351.269 171.765 351.159 172.421 351.159C173.364 351.159 174.106 351.364 174.648 351.773C175.19 352.178 175.548 352.722 175.722 353.403ZM181.674 351.273V352.636H176.907V351.273H181.674ZM178.185 349.182H179.884V357.438C179.884 357.767 179.934 358.015 180.032 358.182C180.13 358.345 180.257 358.456 180.413 358.517C180.572 358.574 180.744 358.602 180.93 358.602C181.066 358.602 181.185 358.593 181.288 358.574C181.39 358.555 181.469 358.54 181.526 358.528L181.833 359.932C181.735 359.97 181.594 360.008 181.413 360.045C181.231 360.087 181.004 360.11 180.731 360.114C180.284 360.121 179.867 360.042 179.481 359.875C179.094 359.708 178.782 359.451 178.543 359.102C178.305 358.754 178.185 358.316 178.185 357.79V349.182ZM185.933 360.193C185.38 360.193 184.88 360.091 184.433 359.886C183.986 359.678 183.632 359.377 183.371 358.983C183.113 358.589 182.984 358.106 182.984 357.534C182.984 357.042 183.079 356.636 183.268 356.318C183.458 356 183.713 355.748 184.035 355.562C184.357 355.377 184.717 355.237 185.115 355.142C185.513 355.047 185.918 354.975 186.331 354.926C186.854 354.866 187.278 354.816 187.604 354.778C187.929 354.737 188.166 354.67 188.314 354.58C188.461 354.489 188.535 354.341 188.535 354.136V354.097C188.535 353.6 188.395 353.216 188.115 352.943C187.838 352.67 187.425 352.534 186.876 352.534C186.304 352.534 185.854 352.661 185.524 352.915C185.198 353.165 184.973 353.443 184.848 353.75L183.251 353.386C183.441 352.856 183.717 352.428 184.081 352.102C184.448 351.773 184.871 351.534 185.348 351.386C185.825 351.235 186.327 351.159 186.854 351.159C187.202 351.159 187.571 351.201 187.961 351.284C188.355 351.364 188.723 351.511 189.064 351.727C189.408 351.943 189.691 352.252 189.91 352.653C190.13 353.051 190.24 353.568 190.24 354.205V360H188.581V358.807H188.513C188.403 359.027 188.238 359.242 188.018 359.455C187.799 359.667 187.516 359.843 187.172 359.983C186.827 360.123 186.414 360.193 185.933 360.193ZM186.302 358.83C186.772 358.83 187.174 358.737 187.507 358.551C187.844 358.366 188.1 358.123 188.274 357.824C188.452 357.521 188.541 357.197 188.541 356.852V355.727C188.48 355.788 188.363 355.845 188.189 355.898C188.018 355.947 187.823 355.991 187.604 356.028C187.384 356.062 187.17 356.095 186.961 356.125C186.753 356.152 186.579 356.174 186.439 356.193C186.109 356.235 185.808 356.305 185.535 356.403C185.266 356.502 185.05 356.644 184.888 356.83C184.729 357.011 184.649 357.254 184.649 357.557C184.649 357.977 184.804 358.295 185.115 358.511C185.425 358.723 185.821 358.83 186.302 358.83ZM194.042 354.818V360H192.343V351.273H193.973V352.693H194.081C194.282 352.231 194.596 351.86 195.024 351.58C195.456 351.299 196 351.159 196.655 351.159C197.25 351.159 197.771 351.284 198.218 351.534C198.665 351.78 199.011 352.148 199.257 352.636C199.504 353.125 199.627 353.729 199.627 354.449V360H197.928V354.653C197.928 354.021 197.763 353.527 197.434 353.17C197.104 352.811 196.651 352.631 196.076 352.631C195.682 352.631 195.331 352.716 195.024 352.886C194.721 353.057 194.481 353.307 194.303 353.636C194.129 353.962 194.042 354.356 194.042 354.818ZM205.421 360.176C204.577 360.176 203.849 359.985 203.239 359.602C202.633 359.216 202.168 358.684 201.842 358.006C201.516 357.328 201.353 356.551 201.353 355.676C201.353 354.79 201.52 354.008 201.853 353.33C202.186 352.648 202.656 352.116 203.262 351.733C203.868 351.35 204.582 351.159 205.404 351.159C206.067 351.159 206.658 351.282 207.177 351.528C207.696 351.771 208.114 352.112 208.433 352.551C208.755 352.991 208.946 353.504 209.007 354.091H207.353C207.262 353.682 207.054 353.33 206.728 353.034C206.406 352.739 205.974 352.591 205.433 352.591C204.959 352.591 204.544 352.716 204.188 352.966C203.836 353.212 203.561 353.564 203.364 354.023C203.168 354.477 203.069 355.015 203.069 355.636C203.069 356.273 203.166 356.822 203.359 357.284C203.552 357.746 203.825 358.104 204.177 358.358C204.533 358.612 204.952 358.739 205.433 358.739C205.755 358.739 206.046 358.68 206.308 358.562C206.573 358.441 206.794 358.269 206.972 358.045C207.154 357.822 207.281 357.553 207.353 357.239H209.007C208.946 357.803 208.762 358.307 208.455 358.75C208.149 359.193 207.738 359.542 207.222 359.795C206.711 360.049 206.111 360.176 205.421 360.176ZM214.425 360.176C213.565 360.176 212.824 359.992 212.203 359.625C211.586 359.254 211.108 358.733 210.771 358.062C210.438 357.388 210.271 356.598 210.271 355.693C210.271 354.799 210.438 354.011 210.771 353.33C211.108 352.648 211.578 352.116 212.18 351.733C212.786 351.35 213.495 351.159 214.305 351.159C214.798 351.159 215.275 351.241 215.737 351.403C216.199 351.566 216.614 351.822 216.981 352.17C217.349 352.519 217.639 352.972 217.851 353.528C218.063 354.081 218.169 354.754 218.169 355.545V356.148H211.231V354.875H216.504C216.504 354.428 216.413 354.032 216.231 353.688C216.05 353.339 215.794 353.064 215.464 352.864C215.139 352.663 214.756 352.562 214.317 352.562C213.839 352.562 213.423 352.68 213.067 352.915C212.714 353.146 212.442 353.449 212.249 353.824C212.059 354.195 211.964 354.598 211.964 355.034V356.028C211.964 356.612 212.067 357.108 212.271 357.517C212.48 357.926 212.769 358.239 213.141 358.455C213.512 358.667 213.945 358.773 214.442 358.773C214.764 358.773 215.057 358.727 215.322 358.636C215.588 358.542 215.817 358.402 216.01 358.216C216.203 358.03 216.351 357.801 216.453 357.528L218.061 357.818C217.932 358.292 217.701 358.706 217.368 359.062C217.038 359.415 216.624 359.689 216.124 359.886C215.627 360.08 215.061 360.176 214.425 360.176Z" fill="white"/>
<rect x="120" y="377" width="228" height="8" rx="2" fill="#424A61"/>
</svg>
