<svg width="592" height="435" viewBox="0 0 592 435" fill="none" xmlns="http://www.w3.org/2000/svg">
<rect width="592" height="435" rx="16" fill="#191C24"/>
<rect x="24.5" y="109.5" width="259" height="301" rx="15.5" fill="#212530" stroke="#333948"/>
<rect x="48" y="173" width="68" height="8" rx="2" fill="#424A61"/>
<path d="M85.7143 277.325L24 320V411H284V220H234.286L171.429 277.325L148 256.943L124 277.325H85.7143Z" fill="url(#paint0_linear_1011_3534)"/>
<path d="M24 320L85.2009 277.68C85.5352 277.449 85.932 277.325 86.3384 277.325H123.265C123.74 277.325 124.198 277.156 124.56 276.849L146.69 258.055C147.443 257.416 148.551 257.422 149.297 258.071L170.085 276.156C170.851 276.822 171.995 276.809 172.745 276.124L233.713 220.522C234.081 220.186 234.562 220 235.061 220H284" stroke="#F47A1A" stroke-width="3"/>
<path d="M59.108 143.29H56.983C56.9223 142.941 56.8106 142.633 56.6477 142.364C56.4848 142.091 56.2822 141.86 56.0398 141.67C55.7973 141.481 55.5208 141.339 55.2102 141.244C54.9034 141.146 54.572 141.097 54.2159 141.097C53.5833 141.097 53.0227 141.256 52.5341 141.574C52.0455 141.888 51.6629 142.35 51.3864 142.96C51.1098 143.566 50.9716 144.307 50.9716 145.182C50.9716 146.072 51.1098 146.822 51.3864 147.432C51.6667 148.038 52.0492 148.496 52.5341 148.807C53.0227 149.114 53.5814 149.267 54.2102 149.267C54.5587 149.267 54.8845 149.222 55.1875 149.131C55.4943 149.036 55.7689 148.898 56.0114 148.716C56.2576 148.534 56.464 148.311 56.6307 148.045C56.8011 147.78 56.9186 147.477 56.983 147.136L59.108 147.148C59.0284 147.701 58.8561 148.22 58.5909 148.705C58.3295 149.189 57.9867 149.617 57.5625 149.989C57.1383 150.356 56.642 150.644 56.0739 150.852C55.5057 151.057 54.875 151.159 54.1818 151.159C53.1591 151.159 52.2462 150.922 51.4432 150.449C50.6402 149.975 50.0076 149.292 49.5455 148.398C49.0833 147.504 48.8523 146.432 48.8523 145.182C48.8523 143.928 49.0852 142.856 49.5511 141.966C50.017 141.072 50.6515 140.388 51.4545 139.915C52.2576 139.441 53.1667 139.205 54.1818 139.205C54.8295 139.205 55.4318 139.295 55.9886 139.477C56.5455 139.659 57.0417 139.926 57.4773 140.278C57.9129 140.627 58.2708 141.055 58.5511 141.562C58.8352 142.066 59.0208 142.642 59.108 143.29ZM64.5943 151.17C63.742 151.17 63.0034 150.983 62.3784 150.608C61.7534 150.233 61.2685 149.708 60.9238 149.034C60.5829 148.36 60.4124 147.572 60.4124 146.67C60.4124 145.769 60.5829 144.979 60.9238 144.301C61.2685 143.623 61.7534 143.097 62.3784 142.722C63.0034 142.347 63.742 142.159 64.5943 142.159C65.4465 142.159 66.1852 142.347 66.8102 142.722C67.4352 143.097 67.9181 143.623 68.259 144.301C68.6037 144.979 68.7761 145.769 68.7761 146.67C68.7761 147.572 68.6037 148.36 68.259 149.034C67.9181 149.708 67.4352 150.233 66.8102 150.608C66.1852 150.983 65.4465 151.17 64.5943 151.17ZM64.6056 149.523C65.0677 149.523 65.4541 149.396 65.7647 149.142C66.0753 148.884 66.3064 148.54 66.4579 148.108C66.6132 147.676 66.6909 147.195 66.6909 146.665C66.6909 146.131 66.6132 145.648 66.4579 145.216C66.3064 144.78 66.0753 144.434 65.7647 144.176C65.4541 143.919 65.0677 143.79 64.6056 143.79C64.1321 143.79 63.7382 143.919 63.4238 144.176C63.1132 144.434 62.8802 144.78 62.7249 145.216C62.5734 145.648 62.4977 146.131 62.4977 146.665C62.4977 147.195 62.5734 147.676 62.7249 148.108C62.8802 148.54 63.1132 148.884 63.4238 149.142C63.7382 149.396 64.1321 149.523 64.6056 149.523ZM77.2595 144.58L75.3845 144.784C75.3315 144.595 75.2387 144.417 75.1061 144.25C74.9773 144.083 74.8031 143.949 74.5834 143.847C74.3637 143.744 74.0948 143.693 73.7766 143.693C73.3486 143.693 72.9887 143.786 72.697 143.972C72.4092 144.157 72.2671 144.398 72.2709 144.693C72.2671 144.947 72.3599 145.153 72.5493 145.312C72.7425 145.472 73.0607 145.602 73.5039 145.705L74.9925 146.023C75.8183 146.201 76.4319 146.483 76.8334 146.869C77.2387 147.256 77.4433 147.761 77.447 148.386C77.4433 148.936 77.2823 149.42 76.9641 149.841C76.6497 150.258 76.2122 150.583 75.6516 150.818C75.091 151.053 74.447 151.17 73.7198 151.17C72.6516 151.17 71.7917 150.947 71.1402 150.5C70.4887 150.049 70.1005 149.422 69.9755 148.619L71.9811 148.426C72.072 148.82 72.2652 149.117 72.5607 149.318C72.8561 149.519 73.2406 149.619 73.7141 149.619C74.2027 149.619 74.5948 149.519 74.8902 149.318C75.1895 149.117 75.3391 148.869 75.3391 148.574C75.3391 148.324 75.2425 148.117 75.0493 147.955C74.8599 147.792 74.5645 147.667 74.163 147.58L72.6743 147.267C71.8372 147.093 71.2179 146.799 70.8164 146.386C70.4148 145.97 70.216 145.443 70.2198 144.807C70.216 144.269 70.3618 143.803 70.6573 143.409C70.9565 143.011 71.3713 142.705 71.9016 142.489C72.4357 142.269 73.0512 142.159 73.7482 142.159C74.7709 142.159 75.5758 142.377 76.163 142.812C76.7539 143.248 77.1194 143.837 77.2595 144.58ZM83.341 142.273V143.864H78.324V142.273H83.341ZM79.5626 140.182H81.6194V148.375C81.6194 148.652 81.6611 148.864 81.7444 149.011C81.8316 149.155 81.9452 149.254 82.0853 149.307C82.2255 149.36 82.3808 149.386 82.5513 149.386C82.68 149.386 82.7975 149.377 82.9035 149.358C83.0134 149.339 83.0967 149.322 83.1535 149.307L83.5001 150.915C83.3903 150.953 83.2331 150.994 83.0285 151.04C82.8278 151.085 82.5816 151.112 82.2899 151.119C81.7747 151.134 81.3107 151.057 80.8978 150.886C80.485 150.712 80.1573 150.443 79.9149 150.08C79.6763 149.716 79.5588 149.261 79.5626 148.716V140.182ZM88.2895 141.131V139.364H97.5736V141.131H93.977V151H91.8861V141.131H88.2895ZM98.2062 151V142.273H100.201V143.727H100.291C100.451 143.223 100.723 142.835 101.11 142.562C101.5 142.286 101.945 142.148 102.445 142.148C102.558 142.148 102.685 142.153 102.826 142.165C102.969 142.172 103.089 142.186 103.183 142.205V144.097C103.096 144.066 102.958 144.04 102.769 144.017C102.583 143.991 102.403 143.977 102.229 143.977C101.854 143.977 101.517 144.059 101.218 144.222C100.922 144.381 100.689 144.602 100.519 144.886C100.348 145.17 100.263 145.498 100.263 145.869V151H98.2062ZM107.894 151.17C107.019 151.17 106.264 150.989 105.627 150.625C104.995 150.258 104.508 149.739 104.167 149.068C103.826 148.394 103.656 147.6 103.656 146.688C103.656 145.79 103.826 145.002 104.167 144.324C104.512 143.642 104.993 143.112 105.61 142.733C106.228 142.35 106.953 142.159 107.786 142.159C108.324 142.159 108.832 142.246 109.309 142.42C109.79 142.591 110.214 142.856 110.582 143.216C110.953 143.576 111.245 144.034 111.457 144.591C111.669 145.144 111.775 145.803 111.775 146.568V147.199H104.621V145.812H109.803C109.8 145.419 109.714 145.068 109.548 144.761C109.381 144.451 109.148 144.206 108.849 144.028C108.553 143.85 108.209 143.761 107.815 143.761C107.394 143.761 107.025 143.864 106.707 144.068C106.389 144.269 106.14 144.534 105.962 144.864C105.788 145.189 105.699 145.547 105.695 145.938V147.148C105.695 147.655 105.788 148.091 105.974 148.455C106.159 148.814 106.419 149.091 106.752 149.284C107.085 149.473 107.476 149.568 107.923 149.568C108.222 149.568 108.493 149.527 108.735 149.443C108.978 149.356 109.188 149.229 109.366 149.062C109.544 148.896 109.678 148.689 109.769 148.443L111.69 148.659C111.568 149.167 111.337 149.61 110.996 149.989C110.659 150.364 110.228 150.655 109.701 150.864C109.175 151.068 108.572 151.17 107.894 151.17ZM115.412 145.886V151H113.355V142.273H115.321V143.756H115.423C115.624 143.267 115.944 142.879 116.383 142.591C116.827 142.303 117.374 142.159 118.025 142.159C118.628 142.159 119.152 142.288 119.599 142.545C120.05 142.803 120.399 143.176 120.645 143.665C120.895 144.153 121.018 144.746 121.014 145.443V151H118.957V145.761C118.957 145.178 118.806 144.722 118.503 144.392C118.203 144.062 117.789 143.898 117.258 143.898C116.899 143.898 116.578 143.977 116.298 144.136C116.022 144.292 115.804 144.517 115.645 144.812C115.489 145.108 115.412 145.466 115.412 145.886ZM126.184 151.153C125.498 151.153 124.884 150.977 124.343 150.625C123.801 150.273 123.373 149.761 123.059 149.091C122.744 148.42 122.587 147.606 122.587 146.648C122.587 145.678 122.746 144.86 123.064 144.193C123.386 143.523 123.82 143.017 124.365 142.676C124.911 142.331 125.519 142.159 126.189 142.159C126.701 142.159 127.121 142.246 127.451 142.42C127.78 142.591 128.042 142.797 128.235 143.04C128.428 143.278 128.578 143.504 128.684 143.716H128.769V139.364H130.831V151H128.809V149.625H128.684C128.578 149.837 128.424 150.062 128.223 150.301C128.023 150.536 127.757 150.737 127.428 150.903C127.098 151.07 126.684 151.153 126.184 151.153ZM126.757 149.466C127.193 149.466 127.564 149.348 127.871 149.114C128.178 148.875 128.411 148.544 128.57 148.119C128.729 147.695 128.809 147.201 128.809 146.636C128.809 146.072 128.729 145.581 128.57 145.165C128.415 144.748 128.184 144.424 127.877 144.193C127.574 143.962 127.201 143.847 126.757 143.847C126.299 143.847 125.917 143.966 125.61 144.205C125.303 144.443 125.072 144.773 124.917 145.193C124.761 145.614 124.684 146.095 124.684 146.636C124.684 147.182 124.761 147.669 124.917 148.097C125.076 148.521 125.309 148.856 125.615 149.102C125.926 149.345 126.307 149.466 126.757 149.466ZM139.761 144.58L137.886 144.784C137.833 144.595 137.74 144.417 137.607 144.25C137.479 144.083 137.304 143.949 137.085 143.847C136.865 143.744 136.596 143.693 136.278 143.693C135.85 143.693 135.49 143.786 135.198 143.972C134.91 144.157 134.768 144.398 134.772 144.693C134.768 144.947 134.861 145.153 135.051 145.312C135.244 145.472 135.562 145.602 136.005 145.705L137.494 146.023C138.32 146.201 138.933 146.483 139.335 146.869C139.74 147.256 139.945 147.761 139.948 148.386C139.945 148.936 139.784 149.42 139.465 149.841C139.151 150.258 138.713 150.583 138.153 150.818C137.592 151.053 136.948 151.17 136.221 151.17C135.153 151.17 134.293 150.947 133.641 150.5C132.99 150.049 132.602 149.422 132.477 148.619L134.482 148.426C134.573 148.82 134.766 149.117 135.062 149.318C135.357 149.519 135.742 149.619 136.215 149.619C136.704 149.619 137.096 149.519 137.391 149.318C137.691 149.117 137.84 148.869 137.84 148.574C137.84 148.324 137.744 148.117 137.551 147.955C137.361 147.792 137.066 147.667 136.664 147.58L135.176 147.267C134.338 147.093 133.719 146.799 133.318 146.386C132.916 145.97 132.717 145.443 132.721 144.807C132.717 144.269 132.863 143.803 133.159 143.409C133.458 143.011 133.873 142.705 134.403 142.489C134.937 142.269 135.552 142.159 136.249 142.159C137.272 142.159 138.077 142.377 138.664 142.812C139.255 143.248 139.621 143.837 139.761 144.58Z" fill="white"/>
<path d="M57.0085 198.545V216H53.3182V202.048H53.2159L49.2188 204.554V201.281L53.5398 198.545H57.0085ZM67.3687 216.239C66.0959 216.239 64.9624 216.02 63.9681 215.582C62.9795 215.139 62.1982 214.531 61.6243 213.759C61.0562 212.98 60.7636 212.082 60.7465 211.065H64.4624C64.4851 211.491 64.6243 211.866 64.88 212.19C65.1414 212.509 65.488 212.756 65.9198 212.932C66.3516 213.108 66.8374 213.196 67.3772 213.196C67.9397 213.196 68.4368 213.097 68.8687 212.898C69.3005 212.699 69.6386 212.423 69.8829 212.071C70.1272 211.719 70.2493 211.312 70.2493 210.852C70.2493 210.386 70.1187 209.974 69.8573 209.616C69.6016 209.253 69.2323 208.969 68.7493 208.764C68.2721 208.56 67.7039 208.457 67.0448 208.457H65.417V205.747H67.0448C67.6016 205.747 68.0931 205.651 68.5192 205.457C68.9511 205.264 69.2863 204.997 69.5249 204.656C69.7636 204.31 69.8829 203.906 69.8829 203.446C69.8829 203.009 69.7778 202.625 69.5675 202.295C69.363 201.96 69.0732 201.699 68.6982 201.511C68.3289 201.324 67.8971 201.23 67.4028 201.23C66.9028 201.23 66.4454 201.321 66.0306 201.503C65.6158 201.679 65.2834 201.932 65.0334 202.261C64.7834 202.591 64.6499 202.977 64.6329 203.42H61.0959C61.113 202.415 61.3999 201.528 61.9567 200.761C62.5136 199.994 63.2636 199.395 64.2067 198.963C65.1556 198.526 66.2266 198.307 67.4198 198.307C68.6243 198.307 69.6783 198.526 70.5817 198.963C71.4851 199.401 72.1868 199.991 72.6868 200.736C73.1925 201.474 73.4425 202.304 73.4368 203.224C73.4425 204.202 73.1386 205.017 72.5249 205.67C71.917 206.324 71.1243 206.739 70.1471 206.915V207.051C71.4312 207.216 72.4084 207.662 73.0789 208.389C73.755 209.111 74.0903 210.014 74.0846 211.099C74.0903 212.094 73.8033 212.977 73.2238 213.75C72.6499 214.523 71.8573 215.131 70.8459 215.574C69.8346 216.017 68.6755 216.239 67.3687 216.239ZM82.949 216.239C81.6763 216.239 80.5427 216.02 79.5484 215.582C78.5598 215.139 77.7785 214.531 77.2047 213.759C76.6365 212.98 76.3439 212.082 76.3268 211.065H80.0427C80.0655 211.491 80.2047 211.866 80.4603 212.19C80.7217 212.509 81.0683 212.756 81.5001 212.932C81.9319 213.108 82.4177 213.196 82.9575 213.196C83.52 213.196 84.0172 213.097 84.449 212.898C84.8808 212.699 85.2189 212.423 85.4632 212.071C85.7075 211.719 85.8297 211.312 85.8297 210.852C85.8297 210.386 85.699 209.974 85.4376 209.616C85.1819 209.253 84.8126 208.969 84.3297 208.764C83.8524 208.56 83.2842 208.457 82.6251 208.457H80.9973V205.747H82.6251C83.1819 205.747 83.6734 205.651 84.0995 205.457C84.5314 205.264 84.8666 204.997 85.1052 204.656C85.3439 204.31 85.4632 203.906 85.4632 203.446C85.4632 203.009 85.3581 202.625 85.1478 202.295C84.9433 201.96 84.6535 201.699 84.2785 201.511C83.9092 201.324 83.4774 201.23 82.9831 201.23C82.4831 201.23 82.0257 201.321 81.6109 201.503C81.1961 201.679 80.8638 201.932 80.6138 202.261C80.3638 202.591 80.2302 202.977 80.2132 203.42H76.6763C76.6933 202.415 76.9802 201.528 77.537 200.761C78.0939 199.994 78.8439 199.395 79.787 198.963C80.7359 198.526 81.8069 198.307 83.0001 198.307C84.2047 198.307 85.2586 198.526 86.162 198.963C87.0655 199.401 87.7672 199.991 88.2672 200.736C88.7728 201.474 89.0228 202.304 89.0172 203.224C89.0228 204.202 88.7189 205.017 88.1052 205.67C87.4973 206.324 86.7047 206.739 85.7274 206.915V207.051C87.0115 207.216 87.9888 207.662 88.6592 208.389C89.3353 209.111 89.6706 210.014 89.6649 211.099C89.6706 212.094 89.3836 212.977 88.8041 213.75C88.2302 214.523 87.4376 215.131 86.4263 215.574C85.4149 216.017 84.2558 216.239 82.949 216.239ZM92.1799 198.545H96.731L101.538 210.273H101.742L106.549 198.545H111.1V216H107.521V204.639H107.376L102.859 215.915H100.421L95.9043 204.597H95.7594V216H92.1799V198.545Z" fill="white"/>
<rect x="308.5" y="109.5" width="259" height="301" rx="15.5" fill="#212530" stroke="#333948"/>
<path d="M333.148 151V139.364H340.602V141.131H335.256V144.29H340.091V146.057H335.256V151H333.148ZM345.438 151.17C344.586 151.17 343.847 150.983 343.222 150.608C342.597 150.233 342.112 149.708 341.768 149.034C341.427 148.36 341.256 147.572 341.256 146.67C341.256 145.769 341.427 144.979 341.768 144.301C342.112 143.623 342.597 143.097 343.222 142.722C343.847 142.347 344.586 142.159 345.438 142.159C346.29 142.159 347.029 142.347 347.654 142.722C348.279 143.097 348.762 143.623 349.103 144.301C349.447 144.979 349.62 145.769 349.62 146.67C349.62 147.572 349.447 148.36 349.103 149.034C348.762 149.708 348.279 150.233 347.654 150.608C347.029 150.983 346.29 151.17 345.438 151.17ZM345.449 149.523C345.911 149.523 346.298 149.396 346.608 149.142C346.919 148.884 347.15 148.54 347.302 148.108C347.457 147.676 347.535 147.195 347.535 146.665C347.535 146.131 347.457 145.648 347.302 145.216C347.15 144.78 346.919 144.434 346.608 144.176C346.298 143.919 345.911 143.79 345.449 143.79C344.976 143.79 344.582 143.919 344.268 144.176C343.957 144.434 343.724 144.78 343.569 145.216C343.417 145.648 343.341 146.131 343.341 146.665C343.341 147.195 343.417 147.676 343.569 148.108C343.724 148.54 343.957 148.884 344.268 149.142C344.582 149.396 344.976 149.523 345.449 149.523ZM351.206 151V142.273H353.2V143.727H353.291C353.45 143.223 353.723 142.835 354.109 142.562C354.499 142.286 354.944 142.148 355.444 142.148C355.558 142.148 355.685 142.153 355.825 142.165C355.969 142.172 356.088 142.186 356.183 142.205V144.097C356.096 144.066 355.957 144.04 355.768 144.017C355.582 143.991 355.403 143.977 355.228 143.977C354.853 143.977 354.516 144.059 354.217 144.222C353.921 144.381 353.689 144.602 353.518 144.886C353.348 145.17 353.262 145.498 353.262 145.869V151H351.206ZM360.894 151.17C360.019 151.17 359.263 150.989 358.627 150.625C357.994 150.258 357.507 149.739 357.166 149.068C356.825 148.394 356.655 147.6 356.655 146.688C356.655 145.79 356.825 145.002 357.166 144.324C357.511 143.642 357.992 143.112 358.609 142.733C359.227 142.35 359.952 142.159 360.786 142.159C361.324 142.159 361.831 142.246 362.308 142.42C362.789 142.591 363.214 142.856 363.581 143.216C363.952 143.576 364.244 144.034 364.456 144.591C364.668 145.144 364.774 145.803 364.774 146.568V147.199H357.621V145.812H362.803C362.799 145.419 362.714 145.068 362.547 144.761C362.38 144.451 362.147 144.206 361.848 144.028C361.553 143.85 361.208 143.761 360.814 143.761C360.394 143.761 360.024 143.864 359.706 144.068C359.388 144.269 359.14 144.534 358.962 144.864C358.788 145.189 358.699 145.547 358.695 145.938V147.148C358.695 147.655 358.788 148.091 358.973 148.455C359.159 148.814 359.418 149.091 359.752 149.284C360.085 149.473 360.475 149.568 360.922 149.568C361.221 149.568 361.492 149.527 361.734 149.443C361.977 149.356 362.187 149.229 362.365 149.062C362.543 148.896 362.678 148.689 362.769 148.443L364.689 148.659C364.568 149.167 364.337 149.61 363.996 149.989C363.659 150.364 363.227 150.655 362.7 150.864C362.174 151.068 361.572 151.17 360.894 151.17ZM370.161 151.17C369.29 151.17 368.542 150.979 367.917 150.597C367.296 150.214 366.816 149.686 366.479 149.011C366.146 148.333 365.979 147.553 365.979 146.67C365.979 145.784 366.15 145.002 366.491 144.324C366.832 143.642 367.313 143.112 367.934 142.733C368.559 142.35 369.298 142.159 370.15 142.159C370.858 142.159 371.485 142.29 372.03 142.551C372.58 142.809 373.017 143.174 373.343 143.648C373.669 144.117 373.854 144.667 373.9 145.295H371.934C371.854 144.875 371.665 144.525 371.366 144.244C371.07 143.96 370.674 143.818 370.178 143.818C369.758 143.818 369.388 143.932 369.07 144.159C368.752 144.383 368.504 144.705 368.326 145.125C368.152 145.545 368.065 146.049 368.065 146.636C368.065 147.231 368.152 147.742 368.326 148.17C368.5 148.595 368.744 148.922 369.059 149.153C369.377 149.381 369.75 149.494 370.178 149.494C370.481 149.494 370.752 149.437 370.991 149.324C371.233 149.206 371.436 149.038 371.599 148.818C371.762 148.598 371.873 148.331 371.934 148.017H373.9C373.851 148.634 373.669 149.182 373.354 149.659C373.04 150.133 372.612 150.504 372.07 150.773C371.529 151.038 370.892 151.17 370.161 151.17ZM377.94 151.176C377.387 151.176 376.889 151.078 376.446 150.881C376.006 150.68 375.658 150.384 375.4 149.994C375.146 149.604 375.02 149.123 375.02 148.551C375.02 148.059 375.111 147.652 375.292 147.33C375.474 147.008 375.722 146.75 376.037 146.557C376.351 146.364 376.705 146.218 377.099 146.119C377.497 146.017 377.908 145.943 378.332 145.898C378.843 145.845 379.258 145.797 379.576 145.756C379.895 145.71 380.126 145.642 380.27 145.551C380.417 145.456 380.491 145.311 380.491 145.114V145.08C380.491 144.652 380.364 144.32 380.111 144.085C379.857 143.85 379.491 143.733 379.014 143.733C378.51 143.733 378.111 143.843 377.815 144.062C377.523 144.282 377.326 144.542 377.224 144.841L375.304 144.568C375.455 144.038 375.705 143.595 376.054 143.239C376.402 142.879 376.828 142.61 377.332 142.432C377.836 142.25 378.393 142.159 379.003 142.159C379.423 142.159 379.842 142.208 380.258 142.307C380.675 142.405 381.056 142.568 381.4 142.795C381.745 143.019 382.021 143.324 382.23 143.71C382.442 144.097 382.548 144.58 382.548 145.159V151H380.571V149.801H380.503C380.378 150.044 380.201 150.271 379.974 150.483C379.751 150.691 379.468 150.86 379.128 150.989C378.79 151.114 378.395 151.176 377.94 151.176ZM378.474 149.665C378.887 149.665 379.245 149.583 379.548 149.42C379.851 149.254 380.084 149.034 380.247 148.761C380.414 148.489 380.497 148.191 380.497 147.869V146.841C380.432 146.894 380.323 146.943 380.167 146.989C380.016 147.034 379.845 147.074 379.656 147.108C379.467 147.142 379.279 147.172 379.093 147.199C378.908 147.225 378.747 147.248 378.611 147.267C378.304 147.309 378.029 147.377 377.787 147.472C377.544 147.566 377.353 147.699 377.213 147.869C377.073 148.036 377.003 148.252 377.003 148.517C377.003 148.896 377.141 149.182 377.417 149.375C377.694 149.568 378.046 149.665 378.474 149.665ZM391.354 144.58L389.479 144.784C389.426 144.595 389.333 144.417 389.201 144.25C389.072 144.083 388.897 143.949 388.678 143.847C388.458 143.744 388.189 143.693 387.871 143.693C387.443 143.693 387.083 143.786 386.791 143.972C386.504 144.157 386.361 144.398 386.365 144.693C386.361 144.947 386.454 145.153 386.644 145.312C386.837 145.472 387.155 145.602 387.598 145.705L389.087 146.023C389.913 146.201 390.526 146.483 390.928 146.869C391.333 147.256 391.538 147.761 391.541 148.386C391.538 148.936 391.377 149.42 391.058 149.841C390.744 150.258 390.307 150.583 389.746 150.818C389.185 151.053 388.541 151.17 387.814 151.17C386.746 151.17 385.886 150.947 385.235 150.5C384.583 150.049 384.195 149.422 384.07 148.619L386.076 148.426C386.166 148.82 386.36 149.117 386.655 149.318C386.951 149.519 387.335 149.619 387.808 149.619C388.297 149.619 388.689 149.519 388.985 149.318C389.284 149.117 389.433 148.869 389.433 148.574C389.433 148.324 389.337 148.117 389.144 147.955C388.954 147.792 388.659 147.667 388.257 147.58L386.769 147.267C385.932 147.093 385.312 146.799 384.911 146.386C384.509 145.97 384.31 145.443 384.314 144.807C384.31 144.269 384.456 143.803 384.752 143.409C385.051 143.011 385.466 142.705 385.996 142.489C386.53 142.269 387.146 142.159 387.843 142.159C388.865 142.159 389.67 142.377 390.257 142.812C390.848 143.248 391.214 143.837 391.354 144.58ZM397.435 142.273V143.864H392.418V142.273H397.435ZM393.657 140.182H395.714V148.375C395.714 148.652 395.755 148.864 395.839 149.011C395.926 149.155 396.04 149.254 396.18 149.307C396.32 149.36 396.475 149.386 396.646 149.386C396.774 149.386 396.892 149.377 396.998 149.358C397.108 149.339 397.191 149.322 397.248 149.307L397.594 150.915C397.485 150.953 397.327 150.994 397.123 151.04C396.922 151.085 396.676 151.112 396.384 151.119C395.869 151.134 395.405 151.057 394.992 150.886C394.579 150.712 394.252 150.443 394.009 150.08C393.771 149.716 393.653 149.261 393.657 148.716V140.182Z" fill="white"/>
<path d="M333.415 383H332.307L335.511 374.273H336.602L339.807 383H338.699L336.091 375.653H336.023L333.415 383ZM333.824 379.591H338.29V380.528H333.824V379.591ZM340.91 385.455V376.455H341.881V377.494H342.001C342.075 377.381 342.177 377.236 342.308 377.06C342.441 376.881 342.631 376.722 342.879 376.582C343.129 376.44 343.467 376.369 343.893 376.369C344.444 376.369 344.93 376.507 345.35 376.783C345.771 377.058 346.099 377.449 346.335 377.955C346.57 378.46 346.688 379.057 346.688 379.744C346.688 380.438 346.57 381.038 346.335 381.547C346.099 382.053 345.772 382.445 345.354 382.723C344.937 382.999 344.455 383.136 343.91 383.136C343.489 383.136 343.153 383.067 342.9 382.928C342.647 382.786 342.452 382.625 342.316 382.446C342.18 382.264 342.075 382.114 342.001 381.994H341.916V385.455H340.91ZM341.898 379.727C341.898 380.222 341.971 380.658 342.116 381.036C342.261 381.411 342.472 381.705 342.751 381.918C343.029 382.128 343.37 382.233 343.773 382.233C344.194 382.233 344.545 382.122 344.826 381.901C345.11 381.676 345.323 381.375 345.465 380.997C345.61 380.616 345.683 380.193 345.683 379.727C345.683 379.267 345.612 378.852 345.469 378.483C345.33 378.111 345.119 377.817 344.835 377.601C344.553 377.382 344.2 377.273 343.773 377.273C343.364 377.273 343.021 377.376 342.742 377.584C342.464 377.788 342.254 378.075 342.112 378.445C341.969 378.811 341.898 379.239 341.898 379.727ZM348.102 383V376.455H349.074V377.443H349.142C349.261 377.119 349.477 376.857 349.79 376.655C350.102 376.453 350.455 376.352 350.847 376.352C350.921 376.352 351.013 376.354 351.124 376.357C351.234 376.359 351.318 376.364 351.375 376.369V377.392C351.341 377.384 351.263 377.371 351.141 377.354C351.021 377.334 350.895 377.324 350.761 377.324C350.443 377.324 350.159 377.391 349.909 377.524C349.662 377.655 349.466 377.837 349.321 378.07C349.179 378.3 349.108 378.562 349.108 378.858V383H348.102Z" fill="#636F92"/>
<path d="M370.057 374.273H371.318L374.284 381.517H374.386L377.352 374.273H378.614V383H377.625V376.369H377.54L374.812 383H373.858L371.131 376.369H371.045V383H370.057V374.273ZM382.402 383.153C381.988 383.153 381.611 383.075 381.273 382.919C380.935 382.76 380.667 382.531 380.468 382.233C380.269 381.932 380.169 381.568 380.169 381.142C380.169 380.767 380.243 380.463 380.391 380.23C380.539 379.994 380.736 379.81 380.983 379.676C381.23 379.543 381.503 379.443 381.802 379.378C382.103 379.31 382.405 379.256 382.709 379.216C383.107 379.165 383.429 379.126 383.677 379.101C383.927 379.072 384.108 379.026 384.222 378.96C384.338 378.895 384.397 378.781 384.397 378.619V378.585C384.397 378.165 384.282 377.838 384.052 377.605C383.824 377.372 383.479 377.256 383.016 377.256C382.536 377.256 382.159 377.361 381.887 377.571C381.614 377.781 381.422 378.006 381.311 378.244L380.357 377.903C380.527 377.506 380.755 377.196 381.039 376.974C381.326 376.75 381.638 376.594 381.976 376.506C382.317 376.415 382.652 376.369 382.982 376.369C383.192 376.369 383.434 376.395 383.706 376.446C383.982 376.494 384.248 376.595 384.503 376.749C384.762 376.902 384.976 377.134 385.147 377.443C385.317 377.753 385.402 378.168 385.402 378.688V383H384.397V382.114H384.346C384.277 382.256 384.164 382.408 384.005 382.57C383.846 382.732 383.634 382.869 383.37 382.983C383.105 383.097 382.783 383.153 382.402 383.153ZM382.556 382.25C382.954 382.25 383.289 382.172 383.561 382.016C383.837 381.859 384.044 381.658 384.184 381.411C384.326 381.163 384.397 380.903 384.397 380.631V379.71C384.354 379.761 384.26 379.808 384.115 379.851C383.973 379.891 383.809 379.926 383.621 379.957C383.436 379.986 383.256 380.011 383.08 380.034C382.907 380.054 382.766 380.071 382.658 380.085C382.397 380.119 382.152 380.175 381.925 380.251C381.701 380.325 381.519 380.437 381.38 380.588C381.243 380.736 381.175 380.937 381.175 381.193C381.175 381.543 381.304 381.807 381.563 381.986C381.824 382.162 382.155 382.25 382.556 382.25ZM387.531 385.455C387.361 385.455 387.209 385.44 387.075 385.412C386.942 385.386 386.849 385.361 386.798 385.335L387.054 384.449C387.298 384.511 387.514 384.534 387.702 384.517C387.889 384.5 388.055 384.416 388.2 384.266C388.348 384.118 388.483 383.878 388.605 383.545L388.793 383.034L386.372 376.455H387.463L389.27 381.67H389.338L391.145 376.455H392.236L389.457 383.955C389.332 384.293 389.178 384.572 388.993 384.794C388.808 385.018 388.594 385.185 388.349 385.293C388.108 385.401 387.835 385.455 387.531 385.455Z" fill="#636F92"/>
<path d="M414.398 374.273H415.455V380.511C415.455 381.068 415.352 381.541 415.148 381.93C414.943 382.32 414.655 382.615 414.283 382.817C413.911 383.018 413.472 383.119 412.966 383.119C412.489 383.119 412.064 383.033 411.692 382.859C411.32 382.683 411.027 382.433 410.814 382.109C410.601 381.786 410.494 381.401 410.494 380.955H411.534C411.534 381.202 411.595 381.418 411.717 381.602C411.842 381.784 412.013 381.926 412.229 382.028C412.445 382.131 412.69 382.182 412.966 382.182C413.27 382.182 413.528 382.118 413.741 381.99C413.955 381.862 414.116 381.675 414.227 381.428C414.341 381.178 414.398 380.872 414.398 380.511V374.273ZM421.441 380.324V376.455H422.447V383H421.441V381.892H421.373C421.219 382.224 420.981 382.507 420.657 382.74C420.333 382.97 419.924 383.085 419.43 383.085C419.021 383.085 418.657 382.996 418.339 382.817C418.021 382.635 417.771 382.362 417.589 381.999C417.407 381.632 417.316 381.17 417.316 380.614V376.455H418.322V380.545C418.322 381.023 418.455 381.403 418.722 381.688C418.992 381.972 419.336 382.114 419.754 382.114C420.004 382.114 420.258 382.05 420.516 381.922C420.778 381.794 420.996 381.598 421.173 381.334C421.352 381.07 421.441 380.733 421.441 380.324ZM425.174 379.062V383H424.169V376.455H425.14V377.477H425.226C425.379 377.145 425.612 376.878 425.924 376.676C426.237 376.472 426.64 376.369 427.135 376.369C427.578 376.369 427.966 376.46 428.298 376.642C428.63 376.821 428.889 377.094 429.074 377.46C429.258 377.824 429.351 378.284 429.351 378.841V383H428.345V378.909C428.345 378.395 428.211 377.994 427.944 377.707C427.677 377.418 427.311 377.273 426.845 377.273C426.524 377.273 426.237 377.342 425.984 377.482C425.734 377.621 425.537 377.824 425.392 378.091C425.247 378.358 425.174 378.682 425.174 379.062Z" fill="#636F92"/>
<path d="M452.398 374.273H453.455V380.511C453.455 381.068 453.352 381.541 453.148 381.93C452.943 382.32 452.655 382.615 452.283 382.817C451.911 383.018 451.472 383.119 450.966 383.119C450.489 383.119 450.064 383.033 449.692 382.859C449.32 382.683 449.027 382.433 448.814 382.109C448.601 381.786 448.494 381.401 448.494 380.955H449.534C449.534 381.202 449.595 381.418 449.717 381.602C449.842 381.784 450.013 381.926 450.229 382.028C450.445 382.131 450.69 382.182 450.966 382.182C451.27 382.182 451.528 382.118 451.741 381.99C451.955 381.862 452.116 381.675 452.227 381.428C452.341 381.178 452.398 380.872 452.398 380.511V374.273ZM459.441 380.324V376.455H460.447V383H459.441V381.892H459.373C459.219 382.224 458.981 382.507 458.657 382.74C458.333 382.97 457.924 383.085 457.43 383.085C457.021 383.085 456.657 382.996 456.339 382.817C456.021 382.635 455.771 382.362 455.589 381.999C455.407 381.632 455.316 381.17 455.316 380.614V376.455H456.322V380.545C456.322 381.023 456.455 381.403 456.722 381.688C456.992 381.972 457.336 382.114 457.754 382.114C458.004 382.114 458.258 382.05 458.516 381.922C458.778 381.794 458.996 381.598 459.173 381.334C459.352 381.07 459.441 380.733 459.441 380.324ZM463.174 374.273V383H462.169V374.273H463.174Z" fill="#636F92"/>
<path d="M483.415 383H482.307L485.511 374.273H486.602L489.807 383H488.699L486.091 375.653H486.023L483.415 383ZM483.824 379.591H488.29V380.528H483.824V379.591ZM495.035 380.324V376.455H496.041V383H495.035V381.892H494.967C494.813 382.224 494.575 382.507 494.251 382.74C493.927 382.97 493.518 383.085 493.023 383.085C492.614 383.085 492.251 382.996 491.933 382.817C491.614 382.635 491.364 382.362 491.183 381.999C491.001 381.632 490.91 381.17 490.91 380.614V376.455H491.916V380.545C491.916 381.023 492.049 381.403 492.316 381.688C492.586 381.972 492.93 382.114 493.347 382.114C493.597 382.114 493.852 382.05 494.11 381.922C494.371 381.794 494.59 381.598 494.766 381.334C494.945 381.07 495.035 380.733 495.035 380.324ZM500.405 385.591C499.919 385.591 499.501 385.528 499.152 385.403C498.802 385.281 498.511 385.119 498.278 384.918C498.048 384.719 497.865 384.506 497.728 384.278L498.53 383.716C498.62 383.835 498.735 383.972 498.875 384.125C499.014 384.281 499.204 384.416 499.446 384.53C499.69 384.646 500.01 384.705 500.405 384.705C500.933 384.705 501.369 384.577 501.713 384.321C502.057 384.065 502.228 383.665 502.228 383.119V381.79H502.143C502.069 381.909 501.964 382.057 501.828 382.233C501.694 382.406 501.501 382.561 501.248 382.697C500.998 382.831 500.66 382.898 500.234 382.898C499.706 382.898 499.231 382.773 498.811 382.523C498.393 382.273 498.062 381.909 497.818 381.432C497.576 380.955 497.456 380.375 497.456 379.693C497.456 379.023 497.574 378.439 497.809 377.942C498.045 377.442 498.373 377.055 498.794 376.783C499.214 376.507 499.7 376.369 500.251 376.369C500.677 376.369 501.015 376.44 501.265 376.582C501.518 376.722 501.711 376.881 501.845 377.06C501.981 377.236 502.086 377.381 502.16 377.494H502.262V376.455H503.234V383.188C503.234 383.75 503.106 384.207 502.851 384.56C502.598 384.915 502.257 385.175 501.828 385.339C501.402 385.507 500.927 385.591 500.405 385.591ZM500.37 381.994C500.774 381.994 501.115 381.902 501.393 381.717C501.672 381.533 501.883 381.267 502.028 380.92C502.173 380.574 502.245 380.159 502.245 379.676C502.245 379.205 502.174 378.788 502.032 378.428C501.89 378.067 501.68 377.784 501.402 377.58C501.123 377.375 500.78 377.273 500.37 377.273C499.944 377.273 499.589 377.381 499.305 377.597C499.024 377.812 498.812 378.102 498.67 378.466C498.531 378.83 498.461 379.233 498.461 379.676C498.461 380.131 498.532 380.533 498.674 380.882C498.819 381.229 499.032 381.501 499.314 381.7C499.598 381.896 499.95 381.994 500.37 381.994Z" fill="#636F92"/>
<path d="M527.83 376.455C527.778 376.023 527.571 375.688 527.207 375.449C526.844 375.21 526.398 375.091 525.869 375.091C525.483 375.091 525.145 375.153 524.855 375.278C524.568 375.403 524.344 375.575 524.182 375.794C524.023 376.013 523.943 376.261 523.943 376.54C523.943 376.773 523.999 376.973 524.109 377.141C524.223 377.305 524.368 377.443 524.544 377.554C524.72 377.662 524.905 377.751 525.098 377.822C525.291 377.891 525.469 377.946 525.631 377.989L526.517 378.227C526.744 378.287 526.997 378.369 527.276 378.474C527.557 378.58 527.825 378.723 528.081 378.905C528.339 379.084 528.553 379.314 528.72 379.595C528.888 379.876 528.972 380.222 528.972 380.631C528.972 381.102 528.848 381.528 528.601 381.909C528.357 382.29 527.999 382.592 527.527 382.817C527.058 383.041 526.489 383.153 525.818 383.153C525.193 383.153 524.652 383.053 524.195 382.851C523.74 382.649 523.382 382.368 523.121 382.007C522.862 381.646 522.716 381.227 522.682 380.75H523.773C523.801 381.08 523.912 381.352 524.105 381.568C524.301 381.781 524.548 381.94 524.847 382.045C525.148 382.148 525.472 382.199 525.818 382.199C526.222 382.199 526.584 382.134 526.905 382.003C527.226 381.869 527.48 381.685 527.668 381.449C527.855 381.21 527.949 380.932 527.949 380.614C527.949 380.324 527.868 380.088 527.706 379.906C527.544 379.724 527.331 379.577 527.067 379.463C526.803 379.349 526.517 379.25 526.21 379.165L525.136 378.858C524.455 378.662 523.915 378.382 523.517 378.018C523.119 377.655 522.92 377.179 522.92 376.591C522.92 376.102 523.053 375.676 523.317 375.312C523.584 374.946 523.942 374.662 524.391 374.46C524.842 374.256 525.347 374.153 525.903 374.153C526.466 374.153 526.966 374.254 527.403 374.456C527.841 374.655 528.188 374.928 528.443 375.274C528.702 375.621 528.838 376.014 528.852 376.455H527.83ZM533.197 383.136C532.566 383.136 532.022 382.997 531.565 382.719C531.11 382.438 530.76 382.045 530.512 381.543C530.268 381.037 530.146 380.449 530.146 379.778C530.146 379.108 530.268 378.517 530.512 378.006C530.76 377.491 531.103 377.091 531.544 376.804C531.987 376.514 532.504 376.369 533.095 376.369C533.436 376.369 533.772 376.426 534.105 376.54C534.437 376.653 534.74 376.838 535.012 377.094C535.285 377.347 535.503 377.682 535.664 378.099C535.826 378.517 535.907 379.031 535.907 379.642V380.068H530.862V379.199H534.885C534.885 378.83 534.811 378.5 534.663 378.21C534.518 377.92 534.311 377.692 534.041 377.524C533.774 377.357 533.458 377.273 533.095 377.273C532.694 377.273 532.348 377.372 532.055 377.571C531.765 377.767 531.542 378.023 531.386 378.338C531.23 378.653 531.152 378.991 531.152 379.352V379.932C531.152 380.426 531.237 380.845 531.407 381.189C531.581 381.53 531.821 381.79 532.128 381.969C532.434 382.145 532.791 382.233 533.197 382.233C533.461 382.233 533.7 382.196 533.913 382.122C534.129 382.045 534.315 381.932 534.471 381.781C534.628 381.628 534.748 381.437 534.833 381.21L535.805 381.483C535.703 381.812 535.531 382.102 535.289 382.352C535.048 382.599 534.75 382.793 534.395 382.932C534.039 383.068 533.64 383.136 533.197 383.136ZM537.317 385.455V376.455H538.289V377.494H538.408C538.482 377.381 538.584 377.236 538.715 377.06C538.848 376.881 539.039 376.722 539.286 376.582C539.536 376.44 539.874 376.369 540.3 376.369C540.851 376.369 541.337 376.507 541.758 376.783C542.178 377.058 542.506 377.449 542.742 377.955C542.978 378.46 543.096 379.057 543.096 379.744C543.096 380.438 542.978 381.038 542.742 381.547C542.506 382.053 542.179 382.445 541.762 382.723C541.344 382.999 540.863 383.136 540.317 383.136C539.897 383.136 539.56 383.067 539.307 382.928C539.054 382.786 538.86 382.625 538.723 382.446C538.587 382.264 538.482 382.114 538.408 381.994H538.323V385.455H537.317ZM538.306 379.727C538.306 380.222 538.378 380.658 538.523 381.036C538.668 381.411 538.88 381.705 539.158 381.918C539.436 382.128 539.777 382.233 540.181 382.233C540.601 382.233 540.952 382.122 541.233 381.901C541.517 381.676 541.731 381.375 541.873 380.997C542.017 380.616 542.09 380.193 542.09 379.727C542.09 379.267 542.019 378.852 541.877 378.483C541.738 378.111 541.526 377.817 541.242 377.601C540.961 377.382 540.607 377.273 540.181 377.273C539.772 377.273 539.428 377.376 539.15 377.584C538.871 377.788 538.661 378.075 538.519 378.445C538.377 378.811 538.306 379.239 538.306 379.727Z" fill="#636F92"/>
<rect x="332" y="209" width="20" height="146" rx="2" fill="#333948"/>
<rect x="370" y="241" width="20" height="114" rx="2" fill="#333948"/>
<path d="M408 272H428V353C428 354.105 427.105 355 426 355H410C408.895 355 408 354.105 408 353V272Z" fill="#444C60"/>
<path d="M408 191C408 189.895 408.895 189 410 189H426C427.105 189 428 189.895 428 191V272H408V191Z" fill="#333948"/>
<rect x="446" y="265" width="20" height="90" rx="2" fill="#333948"/>
<path d="M484 288H504V353C504 354.105 503.105 355 502 355H486C484.895 355 484 354.105 484 353V288Z" fill="#444C60"/>
<path d="M484 223C484 221.895 484.895 221 486 221H502C503.105 221 504 221.895 504 223V288H484V223Z" fill="#333948"/>
<path d="M522 296H542V353C542 354.105 541.105 355 540 355H524C522.895 355 522 354.105 522 353V296Z" fill="#444C60"/>
<path d="M522 239C522 237.895 522.895 237 524 237H540C541.105 237 542 237.895 542 239V296H522V239Z" fill="#333948"/>
<line x1="198.5" y1="185" x2="198.5" y2="370" stroke="#F47A1A" stroke-width="3"/>
<path d="M34.2727 66H26.0227V42.7273H34.3409C36.6818 42.7273 38.697 43.1932 40.3864 44.125C42.0758 45.0492 43.375 46.3788 44.2841 48.1136C45.2008 49.8485 45.6591 51.9242 45.6591 54.3409C45.6591 56.7652 45.2008 58.8485 44.2841 60.5909C43.375 62.3333 42.0682 63.6705 40.3636 64.6023C38.6667 65.5341 36.6364 66 34.2727 66ZM30.9432 61.7841H34.0682C35.5227 61.7841 36.7462 61.5265 37.7386 61.0114C38.7386 60.4886 39.4886 59.6818 39.9886 58.5909C40.4962 57.4924 40.75 56.0758 40.75 54.3409C40.75 52.6212 40.4962 51.2159 39.9886 50.125C39.4886 49.0341 38.7424 48.2311 37.75 47.7159C36.7576 47.2008 35.5341 46.9432 34.0795 46.9432H30.9432V61.7841ZM54.1903 66.3295C53.0767 66.3295 52.0843 66.1364 51.2131 65.75C50.3419 65.3561 49.6525 64.7765 49.1449 64.0114C48.6449 63.2386 48.3949 62.2765 48.3949 61.125C48.3949 60.1553 48.5729 59.3409 48.929 58.6818C49.285 58.0227 49.7699 57.4924 50.3835 57.0909C50.9972 56.6894 51.6941 56.3864 52.4744 56.1818C53.2623 55.9773 54.0881 55.8333 54.9517 55.75C55.9669 55.6439 56.785 55.5455 57.4062 55.4545C58.0275 55.3561 58.4782 55.2121 58.7585 55.0227C59.0388 54.8333 59.179 54.553 59.179 54.1818V54.1136C59.179 53.3939 58.9517 52.8371 58.4972 52.4432C58.0502 52.0492 57.4138 51.8523 56.5881 51.8523C55.7169 51.8523 55.0237 52.0455 54.5085 52.4318C53.9934 52.8106 53.6525 53.2879 53.4858 53.8636L49.0085 53.5C49.2358 52.4394 49.6828 51.5227 50.3494 50.75C51.0161 49.9697 51.8759 49.3712 52.929 48.9545C53.9896 48.5303 55.2169 48.3182 56.6108 48.3182C57.5805 48.3182 58.5085 48.4318 59.3949 48.6591C60.2888 48.8864 61.0805 49.2386 61.7699 49.7159C62.4669 50.1932 63.0161 50.8068 63.4176 51.5568C63.8191 52.2992 64.0199 53.1894 64.0199 54.2273V66H59.429V63.5795H59.2926C59.0123 64.125 58.6373 64.6061 58.1676 65.0227C57.6979 65.4318 57.1335 65.7538 56.4744 65.9886C55.8153 66.2159 55.054 66.3295 54.1903 66.3295ZM55.5767 62.9886C56.2888 62.9886 56.9176 62.8485 57.4631 62.5682C58.0085 62.2803 58.4366 61.8939 58.7472 61.4091C59.0578 60.9242 59.2131 60.375 59.2131 59.7614V57.9091C59.0616 58.0076 58.8532 58.0985 58.5881 58.1818C58.3305 58.2576 58.0388 58.3295 57.7131 58.3977C57.3873 58.4583 57.0616 58.5152 56.7358 58.5682C56.41 58.6136 56.1146 58.6553 55.8494 58.6932C55.2813 58.7765 54.785 58.9091 54.3608 59.0909C53.9366 59.2727 53.607 59.5189 53.3722 59.8295C53.1373 60.1326 53.0199 60.5114 53.0199 60.9659C53.0199 61.625 53.2585 62.1288 53.7358 62.4773C54.2206 62.8182 54.8343 62.9886 55.5767 62.9886ZM82.2983 53.5227L77.8665 53.7955C77.7907 53.4167 77.6278 53.0758 77.3778 52.7727C77.1278 52.4621 76.7983 52.2159 76.3892 52.0341C75.9877 51.8447 75.5066 51.75 74.946 51.75C74.196 51.75 73.5634 51.9091 73.0483 52.2273C72.5331 52.5379 72.2756 52.9545 72.2756 53.4773C72.2756 53.8939 72.4422 54.2462 72.7756 54.5341C73.1089 54.822 73.6809 55.053 74.4915 55.2273L77.6506 55.8636C79.3475 56.2121 80.6127 56.7727 81.446 57.5455C82.2794 58.3182 82.696 59.3333 82.696 60.5909C82.696 61.7348 82.3589 62.7386 81.6847 63.6023C81.018 64.4659 80.1013 65.1402 78.9347 65.625C77.7756 66.1023 76.4384 66.3409 74.9233 66.3409C72.6127 66.3409 70.7718 65.8598 69.4006 64.8977C68.0369 63.928 67.2377 62.6098 67.0028 60.9432L71.7642 60.6932C71.9081 61.3977 72.2566 61.9356 72.8097 62.3068C73.3627 62.6705 74.071 62.8523 74.9347 62.8523C75.7831 62.8523 76.465 62.6894 76.9801 62.3636C77.5028 62.0303 77.768 61.6023 77.7756 61.0795C77.768 60.6402 77.5824 60.2803 77.2188 60C76.8551 59.7121 76.2945 59.4924 75.5369 59.3409L72.5142 58.7386C70.8097 58.3977 69.5407 57.8068 68.7074 56.9659C67.8816 56.125 67.4688 55.053 67.4688 53.75C67.4688 52.6288 67.7718 51.6629 68.3778 50.8523C68.9915 50.0417 69.8513 49.4167 70.9574 48.9773C72.071 48.5379 73.3741 48.3182 74.8665 48.3182C77.071 48.3182 78.8059 48.7841 80.071 49.7159C81.3438 50.6477 82.0862 51.9167 82.2983 53.5227ZM90.5852 55.9091V66H85.7443V42.7273H90.4489V51.625H90.6534C91.0473 50.5947 91.6837 49.7879 92.5625 49.2045C93.4413 48.6136 94.5436 48.3182 95.8693 48.3182C97.0814 48.3182 98.1383 48.5833 99.0398 49.1136C99.9489 49.6364 100.653 50.3902 101.153 51.375C101.661 52.3523 101.911 53.5227 101.903 54.8864V66H97.0625V55.75C97.0701 54.6742 96.7973 53.8371 96.2443 53.2386C95.6989 52.6402 94.9337 52.3409 93.9489 52.3409C93.2898 52.3409 92.7064 52.4811 92.1989 52.7614C91.6989 53.0417 91.3049 53.4508 91.017 53.9886C90.7367 54.5189 90.5928 55.1591 90.5852 55.9091ZM105.804 66V42.7273H110.645V51.4773H110.793C111.005 51.0076 111.312 50.5303 111.713 50.0455C112.122 49.553 112.652 49.1439 113.304 48.8182C113.963 48.4848 114.781 48.3182 115.759 48.3182C117.031 48.3182 118.205 48.6515 119.281 49.3182C120.357 49.9773 121.217 50.9735 121.861 52.3068C122.505 53.6326 122.827 55.2955 122.827 57.2955C122.827 59.2424 122.512 60.8864 121.884 62.2273C121.262 63.5606 120.414 64.572 119.338 65.2614C118.27 65.9432 117.073 66.2841 115.747 66.2841C114.808 66.2841 114.009 66.1288 113.349 65.8182C112.698 65.5076 112.164 65.1174 111.747 64.6477C111.33 64.1705 111.012 63.6894 110.793 63.2045H110.577V66H105.804ZM110.543 57.2727C110.543 58.3106 110.687 59.2159 110.974 59.9886C111.262 60.7614 111.679 61.3636 112.224 61.7955C112.77 62.2197 113.433 62.4318 114.213 62.4318C115.001 62.4318 115.668 62.2159 116.213 61.7841C116.759 61.3447 117.171 60.7386 117.452 59.9659C117.74 59.1856 117.884 58.2879 117.884 57.2727C117.884 56.2652 117.743 55.3788 117.463 54.6136C117.183 53.8485 116.77 53.25 116.224 52.8182C115.679 52.3864 115.009 52.1705 114.213 52.1705C113.425 52.1705 112.759 52.3788 112.213 52.7955C111.675 53.2121 111.262 53.803 110.974 54.5682C110.687 55.3333 110.543 56.2348 110.543 57.2727ZM133.943 66.3409C132.178 66.3409 130.652 65.9659 129.364 65.2159C128.083 64.4583 127.095 63.4053 126.398 62.0568C125.701 60.7008 125.352 59.1288 125.352 57.3409C125.352 55.5379 125.701 53.9621 126.398 52.6136C127.095 51.2576 128.083 50.2045 129.364 49.4545C130.652 48.697 132.178 48.3182 133.943 48.3182C135.708 48.3182 137.231 48.697 138.511 49.4545C139.799 50.2045 140.792 51.2576 141.489 52.6136C142.186 53.9621 142.534 55.5379 142.534 57.3409C142.534 59.1288 142.186 60.7008 141.489 62.0568C140.792 63.4053 139.799 64.4583 138.511 65.2159C137.231 65.9659 135.708 66.3409 133.943 66.3409ZM133.966 62.5909C134.769 62.5909 135.439 62.3636 135.977 61.9091C136.515 61.447 136.92 60.8182 137.193 60.0227C137.473 59.2273 137.614 58.322 137.614 57.3068C137.614 56.2917 137.473 55.3864 137.193 54.5909C136.92 53.7955 136.515 53.1667 135.977 52.7045C135.439 52.2424 134.769 52.0114 133.966 52.0114C133.155 52.0114 132.473 52.2424 131.92 52.7045C131.375 53.1667 130.962 53.7955 130.682 54.5909C130.409 55.3864 130.273 56.2917 130.273 57.3068C130.273 58.322 130.409 59.2273 130.682 60.0227C130.962 60.8182 131.375 61.447 131.92 61.9091C132.473 62.3636 133.155 62.5909 133.966 62.5909ZM150.659 66.3295C149.545 66.3295 148.553 66.1364 147.682 65.75C146.811 65.3561 146.121 64.7765 145.614 64.0114C145.114 63.2386 144.864 62.2765 144.864 61.125C144.864 60.1553 145.042 59.3409 145.398 58.6818C145.754 58.0227 146.239 57.4924 146.852 57.0909C147.466 56.6894 148.163 56.3864 148.943 56.1818C149.731 55.9773 150.557 55.8333 151.42 55.75C152.436 55.6439 153.254 55.5455 153.875 55.4545C154.496 55.3561 154.947 55.2121 155.227 55.0227C155.508 54.8333 155.648 54.553 155.648 54.1818V54.1136C155.648 53.3939 155.42 52.8371 154.966 52.4432C154.519 52.0492 153.883 51.8523 153.057 51.8523C152.186 51.8523 151.492 52.0455 150.977 52.4318C150.462 52.8106 150.121 53.2879 149.955 53.8636L145.477 53.5C145.705 52.4394 146.152 51.5227 146.818 50.75C147.485 49.9697 148.345 49.3712 149.398 48.9545C150.458 48.5303 151.686 48.3182 153.08 48.3182C154.049 48.3182 154.977 48.4318 155.864 48.6591C156.758 48.8864 157.549 49.2386 158.239 49.7159C158.936 50.1932 159.485 50.8068 159.886 51.5568C160.288 52.2992 160.489 53.1894 160.489 54.2273V66H155.898V63.5795H155.761C155.481 64.125 155.106 64.6061 154.636 65.0227C154.167 65.4318 153.602 65.7538 152.943 65.9886C152.284 66.2159 151.523 66.3295 150.659 66.3295ZM152.045 62.9886C152.758 62.9886 153.386 62.8485 153.932 62.5682C154.477 62.2803 154.905 61.8939 155.216 61.4091C155.527 60.9242 155.682 60.375 155.682 59.7614V57.9091C155.53 58.0076 155.322 58.0985 155.057 58.1818C154.799 58.2576 154.508 58.3295 154.182 58.3977C153.856 58.4583 153.53 58.5152 153.205 58.5682C152.879 58.6136 152.583 58.6553 152.318 58.6932C151.75 58.7765 151.254 58.9091 150.83 59.0909C150.405 59.2727 150.076 59.5189 149.841 59.8295C149.606 60.1326 149.489 60.5114 149.489 60.9659C149.489 61.625 149.727 62.1288 150.205 62.4773C150.689 62.8182 151.303 62.9886 152.045 62.9886ZM164.244 66V48.5455H168.938V51.5909H169.119C169.438 50.5076 169.972 49.6894 170.722 49.1364C171.472 48.5758 172.335 48.2955 173.312 48.2955C173.555 48.2955 173.816 48.3106 174.097 48.3409C174.377 48.3712 174.623 48.4129 174.835 48.4659V52.7614C174.608 52.6932 174.294 52.6326 173.892 52.5795C173.491 52.5265 173.123 52.5 172.79 52.5C172.078 52.5 171.441 52.6553 170.881 52.9659C170.328 53.2689 169.888 53.6932 169.562 54.2386C169.244 54.7841 169.085 55.4129 169.085 56.125V66H164.244ZM182.957 66.2841C181.632 66.2841 180.431 65.9432 179.355 65.2614C178.287 64.572 177.438 63.5606 176.81 62.2273C176.188 60.8864 175.878 59.2424 175.878 57.2955C175.878 55.2955 176.2 53.6326 176.844 52.3068C177.488 50.9735 178.344 49.9773 179.412 49.3182C180.488 48.6515 181.666 48.3182 182.946 48.3182C183.923 48.3182 184.738 48.4848 185.389 48.8182C186.048 49.1439 186.579 49.553 186.98 50.0455C187.389 50.5303 187.7 51.0076 187.912 51.4773H188.06V42.7273H192.889V66H188.116V63.2045H187.912C187.685 63.6894 187.363 64.1705 186.946 64.6477C186.537 65.1174 186.003 65.5076 185.344 65.8182C184.692 66.1288 183.897 66.2841 182.957 66.2841ZM184.491 62.4318C185.272 62.4318 185.931 62.2197 186.469 61.7955C187.014 61.3636 187.431 60.7614 187.719 59.9886C188.014 59.2159 188.162 58.3106 188.162 57.2727C188.162 56.2348 188.018 55.3333 187.73 54.5682C187.442 53.803 187.026 53.2121 186.48 52.7955C185.935 52.3788 185.272 52.1705 184.491 52.1705C183.696 52.1705 183.026 52.3864 182.48 52.8182C181.935 53.25 181.522 53.8485 181.241 54.6136C180.961 55.3788 180.821 56.2652 180.821 57.2727C180.821 58.2879 180.961 59.1856 181.241 59.9659C181.529 60.7386 181.942 61.3447 182.48 61.7841C183.026 62.2159 183.696 62.4318 184.491 62.4318Z" fill="white"/>
<defs>
<linearGradient id="paint0_linear_1011_3534" x1="154" y1="220" x2="154" y2="370" gradientUnits="userSpaceOnUse">
<stop stop-color="#F47A1A" stop-opacity="0.3"/>
<stop offset="1" stop-color="#F47A1A" stop-opacity="0"/>
</linearGradient>
</defs>
</svg>
