<svg width="56" height="56" viewBox="0 0 56 56" fill="none" xmlns="http://www.w3.org/2000/svg">
<g filter="url(#filter0_i_1011_3409)">
<rect width="56" height="56" rx="12" fill="#F47715"/>
</g>
<rect x="1" y="1" width="54" height="54" rx="11" stroke="#F79950" stroke-width="2"/>
<path d="M41.3332 26.667V22.9337C41.3332 21.4402 41.3332 20.6934 41.0425 20.123C40.7869 19.6213 40.3789 19.2133 39.8771 18.9576C39.3067 18.667 38.56 18.667 37.0665 18.667H18.9332C17.4397 18.667 16.693 18.667 16.1225 18.9576C15.6208 19.2133 15.2128 19.6213 14.9572 20.123C14.6665 20.6934 14.6665 21.4402 14.6665 22.9337V27.7337C14.6665 29.2271 14.6665 29.9739 14.9572 30.5443C15.2128 31.0461 15.6208 31.454 16.1225 31.7097C16.693 32.0003 17.4397 32.0003 18.9332 32.0003H26.6665M27.9998 25.3337H28.0065M34.6665 25.3337H34.6732M21.3332 25.3337H21.3398M37.6665 34.667V32.3337C37.6665 31.045 36.6218 30.0003 35.3332 30.0003C34.0445 30.0003 32.9998 31.045 32.9998 32.3337V34.667M28.3332 25.3337C28.3332 25.5178 28.1839 25.667 27.9998 25.667C27.8157 25.667 27.6665 25.5178 27.6665 25.3337C27.6665 25.1496 27.8157 25.0003 27.9998 25.0003C28.1839 25.0003 28.3332 25.1496 28.3332 25.3337ZM34.9998 25.3337C34.9998 25.5178 34.8506 25.667 34.6665 25.667C34.4824 25.667 34.3332 25.5178 34.3332 25.3337C34.3332 25.1496 34.4824 25.0003 34.6665 25.0003C34.8506 25.0003 34.9998 25.1496 34.9998 25.3337ZM21.6665 25.3337C21.6665 25.5178 21.5173 25.667 21.3332 25.667C21.1491 25.667 20.9998 25.5178 20.9998 25.3337C20.9998 25.1496 21.1491 25.0003 21.3332 25.0003C21.5173 25.0003 21.6665 25.1496 21.6665 25.3337ZM32.7998 40.0003H37.8665C38.6132 40.0003 38.9866 40.0003 39.2718 39.855C39.5227 39.7272 39.7267 39.5232 39.8545 39.2723C39.9998 38.9871 39.9998 38.6137 39.9998 37.867V36.8003C39.9998 36.0536 39.9998 35.6802 39.8545 35.395C39.7267 35.1441 39.5227 34.9401 39.2718 34.8123C38.9866 34.667 38.6132 34.667 37.8665 34.667H32.7998C32.0531 34.667 31.6797 34.667 31.3945 34.8123C31.1436 34.9401 30.9397 35.1441 30.8118 35.395C30.6665 35.6802 30.6665 36.0536 30.6665 36.8003V37.867C30.6665 38.6137 30.6665 38.9871 30.8118 39.2723C30.9397 39.5232 31.1436 39.7272 31.3945 39.855C31.6797 40.0003 32.0531 40.0003 32.7998 40.0003Z" stroke="white" stroke-width="3" stroke-linecap="round" stroke-linejoin="round"/>
<defs>
<filter id="filter0_i_1011_3409" x="0" y="0" width="56" height="56" filterUnits="userSpaceOnUse" color-interpolation-filters="sRGB">
<feFlood flood-opacity="0" result="BackgroundImageFix"/>
<feBlend mode="normal" in="SourceGraphic" in2="BackgroundImageFix" result="shape"/>
<feColorMatrix in="SourceAlpha" type="matrix" values="0 0 0 0 0 0 0 0 0 0 0 0 0 0 0 0 0 0 127 0" result="hardAlpha"/>
<feOffset/>
<feGaussianBlur stdDeviation="10"/>
<feComposite in2="hardAlpha" operator="arithmetic" k2="-1" k3="1"/>
<feColorMatrix type="matrix" values="0 0 0 0 0.968627 0 0 0 0 0.6 0 0 0 0 0.313726 0 0 0 1 0"/>
<feBlend mode="normal" in2="shape" result="effect1_innerShadow_1011_3409"/>
</filter>
</defs>
</svg>
