<svg width="384" height="492" viewBox="0 0 384 492" fill="none" xmlns="http://www.w3.org/2000/svg">
<rect width="384" height="492" rx="16" fill="#191C24"/>
<path d="M42.9858 46.5653C42.9176 45.8778 42.625 45.3437 42.108 44.9631C41.5909 44.5824 40.8892 44.392 40.0028 44.392C39.4006 44.392 38.892 44.4773 38.4773 44.6477C38.0625 44.8125 37.7443 45.0426 37.5227 45.3381C37.3068 45.6335 37.1989 45.9688 37.1989 46.3438C37.1875 46.6562 37.2528 46.929 37.3949 47.1619C37.5426 47.3949 37.7443 47.5966 38 47.767C38.2557 47.9318 38.5511 48.0767 38.8864 48.2017C39.2216 48.321 39.5795 48.4233 39.9602 48.5085L41.5284 48.8835C42.2898 49.054 42.9886 49.2812 43.625 49.5653C44.2614 49.8494 44.8125 50.1989 45.2784 50.6136C45.7443 51.0284 46.1051 51.517 46.3608 52.0795C46.6222 52.642 46.7557 53.2869 46.7614 54.0142C46.7557 55.0824 46.483 56.0085 45.9432 56.7926C45.4091 57.571 44.6364 58.1761 43.625 58.608C42.6193 59.0341 41.4063 59.2472 39.9858 59.2472C38.5767 59.2472 37.3494 59.0312 36.304 58.5994C35.2642 58.1676 34.4517 57.5284 33.8665 56.6818C33.2869 55.8295 32.983 54.7756 32.9545 53.5199H36.5256C36.5653 54.1051 36.733 54.5937 37.0284 54.9858C37.3295 55.3722 37.7301 55.6648 38.2301 55.8636C38.7358 56.0568 39.3068 56.1534 39.9432 56.1534C40.5682 56.1534 41.1108 56.0625 41.571 55.8807C42.0369 55.6989 42.3977 55.446 42.6534 55.1222C42.9091 54.7983 43.0369 54.4261 43.0369 54.0057C43.0369 53.6136 42.9205 53.2841 42.6875 53.017C42.4602 52.75 42.125 52.5227 41.6818 52.3352C41.2443 52.1477 40.7074 51.9773 40.071 51.8239L38.1705 51.3466C36.6989 50.9886 35.5369 50.429 34.6847 49.6676C33.8324 48.9062 33.4091 47.8807 33.4148 46.5909C33.4091 45.5341 33.6903 44.6108 34.2585 43.821C34.8324 43.0312 35.6193 42.4148 36.6193 41.9716C37.6193 41.5284 38.7557 41.3068 40.0284 41.3068C41.3239 41.3068 42.4545 41.5284 43.4205 41.9716C44.392 42.4148 45.1477 43.0312 45.6875 43.821C46.2273 44.6108 46.5057 45.5256 46.5227 46.5653H42.9858ZM55.8985 45.9091V48.6364H48.015V45.9091H55.8985ZM49.8047 42.7727H53.4354V54.9773C53.4354 55.3125 53.4866 55.5739 53.5888 55.7614C53.6911 55.9432 53.8332 56.071 54.015 56.1449C54.2025 56.2187 54.4184 56.2557 54.6627 56.2557C54.8332 56.2557 55.0036 56.2415 55.1741 56.2131C55.3445 56.179 55.4752 56.1534 55.5661 56.1364L56.1371 58.8381C55.9553 58.8949 55.6996 58.9602 55.3701 59.0341C55.0405 59.1136 54.64 59.1619 54.1684 59.179C53.2934 59.2131 52.5263 59.0966 51.8672 58.8295C51.2138 58.5625 50.7053 58.1477 50.3417 57.5852C49.978 57.0227 49.7991 56.3125 49.8047 55.4545V42.7727ZM61.7565 59.2472C60.9213 59.2472 60.177 59.1023 59.5236 58.8125C58.8701 58.517 58.3531 58.0824 57.9724 57.5085C57.5974 56.929 57.4099 56.2074 57.4099 55.3438C57.4099 54.6165 57.5434 54.0057 57.8105 53.5114C58.0775 53.017 58.4412 52.6193 58.9014 52.3182C59.3616 52.017 59.8843 51.7898 60.4696 51.6364C61.0605 51.483 61.6798 51.375 62.3275 51.3125C63.0889 51.233 63.7025 51.1591 64.1684 51.0909C64.6343 51.017 64.9724 50.9091 65.1826 50.767C65.3929 50.625 65.498 50.4148 65.498 50.1364V50.0852C65.498 49.5455 65.3275 49.1278 64.9866 48.8324C64.6514 48.5369 64.1741 48.3892 63.5548 48.3892C62.9014 48.3892 62.3815 48.5341 61.9951 48.8239C61.6088 49.108 61.3531 49.4659 61.2281 49.8977L57.8701 49.625C58.0406 48.8295 58.3758 48.142 58.8758 47.5625C59.3758 46.9773 60.0207 46.5284 60.8105 46.2159C61.6059 45.8977 62.5264 45.7386 63.5718 45.7386C64.2991 45.7386 64.9951 45.8239 65.6599 45.9943C66.3304 46.1648 66.9241 46.429 67.4412 46.7869C67.9639 47.1449 68.3758 47.6051 68.677 48.1676C68.9781 48.7244 69.1287 49.392 69.1287 50.1705V59H65.6855V57.1847H65.5832C65.373 57.5938 65.0917 57.9545 64.7395 58.267C64.3872 58.5739 63.9639 58.8153 63.4696 58.9915C62.9753 59.1619 62.4042 59.2472 61.7565 59.2472ZM62.7963 56.7415C63.3304 56.7415 63.802 56.6364 64.2111 56.4261C64.6201 56.2102 64.9412 55.9205 65.1741 55.5568C65.4071 55.1932 65.5236 54.7812 65.5236 54.321V52.9318C65.4099 53.0057 65.2537 53.0739 65.0548 53.1364C64.8616 53.1932 64.6429 53.2472 64.3986 53.2983C64.1542 53.3437 63.9099 53.3864 63.6656 53.4261C63.4213 53.4602 63.1997 53.4915 63.0008 53.5199C62.5747 53.5824 62.2025 53.6818 61.8843 53.8182C61.5662 53.9545 61.319 54.1392 61.1429 54.3722C60.9667 54.5994 60.8787 54.8835 60.8787 55.2244C60.8787 55.7188 61.0576 56.0966 61.4156 56.358C61.7792 56.6136 62.2395 56.7415 62.7963 56.7415ZM71.7054 59V45.9091H75.2253V48.1932H75.3617C75.6003 47.3807 76.0009 46.767 76.5634 46.3523C77.1259 45.9318 77.7736 45.7216 78.5066 45.7216C78.6884 45.7216 78.8844 45.733 79.0946 45.7557C79.3049 45.7784 79.4895 45.8097 79.6486 45.8494V49.071C79.4782 49.0199 79.2424 48.9744 78.9412 48.9347C78.6401 48.8949 78.3645 48.875 78.1145 48.875C77.5804 48.875 77.1032 48.9915 76.6827 49.2244C76.2679 49.4517 75.9384 49.7699 75.6941 50.179C75.4554 50.5881 75.3361 51.0597 75.3361 51.5938V59H71.7054ZM88.9051 45.9091V48.6364H81.0215V45.9091H88.9051ZM82.8113 42.7727H86.442V54.9773C86.442 55.3125 86.4931 55.5739 86.5954 55.7614C86.6977 55.9432 86.8397 56.071 87.0215 56.1449C87.209 56.2187 87.4249 56.2557 87.6693 56.2557C87.8397 56.2557 88.0102 56.2415 88.1806 56.2131C88.3511 56.179 88.4818 56.1534 88.5727 56.1364L89.1437 58.8381C88.9619 58.8949 88.7062 58.9602 88.3766 59.0341C88.0471 59.1136 87.6465 59.1619 87.1749 59.179C86.2999 59.2131 85.5329 59.0966 84.8738 58.8295C84.2204 58.5625 83.7119 58.1477 83.3482 57.5852C82.9846 57.0227 82.8056 56.3125 82.8113 55.4545V42.7727ZM96.8554 59.2557C95.5088 59.2557 94.3497 58.983 93.3781 58.4375C92.4122 57.8864 91.6679 57.108 91.1452 56.1023C90.6224 55.0909 90.3611 53.8949 90.3611 52.5142C90.3611 51.1676 90.6224 49.9858 91.1452 48.9688C91.6679 47.9517 92.4037 47.1591 93.3526 46.5909C94.3071 46.0227 95.4264 45.7386 96.7105 45.7386C97.5741 45.7386 98.3781 45.8778 99.1224 46.1562C99.8724 46.429 100.526 46.8409 101.083 47.392C101.645 47.9432 102.083 48.6364 102.395 49.4716C102.708 50.3011 102.864 51.2727 102.864 52.3864V53.3835H91.8099V51.1335H99.4463C99.4463 50.6108 99.3327 50.1477 99.1054 49.7443C98.8781 49.3409 98.5628 49.0256 98.1594 48.7983C97.7616 48.5653 97.2986 48.4489 96.7702 48.4489C96.219 48.4489 95.7304 48.5767 95.3043 48.8324C94.8838 49.0824 94.5543 49.4205 94.3156 49.8466C94.077 50.267 93.9548 50.7358 93.9491 51.2528V53.392C93.9491 54.0398 94.0685 54.5994 94.3071 55.071C94.5514 55.5426 94.8952 55.9062 95.3384 56.1619C95.7815 56.4176 96.3071 56.5455 96.9151 56.5455C97.3185 56.5455 97.6878 56.4886 98.023 56.375C98.3582 56.2614 98.6452 56.0909 98.8838 55.8636C99.1224 55.6364 99.3043 55.358 99.4293 55.0284L102.787 55.25C102.617 56.0568 102.267 56.7614 101.739 57.3636C101.216 57.9602 100.54 58.4261 99.7105 58.7614C98.8866 59.0909 97.9349 59.2557 96.8554 59.2557ZM104.993 59V45.9091H108.513V48.1932H108.649C108.888 47.3807 109.289 46.767 109.851 46.3523C110.414 45.9318 111.061 45.7216 111.794 45.7216C111.976 45.7216 112.172 45.733 112.382 45.7557C112.593 45.7784 112.777 45.8097 112.936 45.8494V49.071C112.766 49.0199 112.53 48.9744 112.229 48.9347C111.928 48.8949 111.652 48.875 111.402 48.875C110.868 48.875 110.391 48.9915 109.971 49.2244C109.556 49.4517 109.226 49.7699 108.982 50.179C108.743 50.5881 108.624 51.0597 108.624 51.5938V59H104.993Z" fill="white"/>
<path d="M33.8864 94H32.4091L36.6818 82.3636H38.1364L42.4091 94H40.9318L37.4545 84.2045H37.3636L33.8864 94ZM34.4318 89.4545H40.3864V90.7045H34.4318V89.4545ZM43.8798 82.3636H45.2207V91.7273C45.2207 92.1515 45.268 92.4489 45.3627 92.6193C45.4574 92.7898 45.6525 92.8712 45.948 92.8636C46.107 92.8561 46.2245 92.8447 46.3002 92.8295C46.3798 92.8106 46.4517 92.7917 46.5161 92.7727L46.7889 93.9318C46.6714 93.9659 46.5237 93.9962 46.3457 94.0227C46.1677 94.053 45.982 94.0682 45.7889 94.0682C45.1525 94.0682 44.6752 93.8939 44.357 93.5455C44.0389 93.197 43.8798 92.7121 43.8798 92.0909V82.3636ZM48.0948 82.3636H49.4357V91.7273C49.4357 92.1515 49.483 92.4489 49.5777 92.6193C49.6724 92.7898 49.8675 92.8712 50.163 92.8636C50.322 92.8561 50.4395 92.8447 50.5152 92.8295C50.5948 92.8106 50.6667 92.7917 50.7311 92.7727L51.0039 93.9318C50.8864 93.9659 50.7387 93.9962 50.5607 94.0227C50.3827 94.053 50.197 94.0682 50.0039 94.0682C49.3675 94.0682 48.8902 93.8939 48.572 93.5455C48.2539 93.197 48.0948 92.7121 48.0948 92.0909V82.3636ZM60.2109 85.2727V86.4091H55.6881V85.2727H60.2109ZM57.0063 83.1818H58.3472V91.5C58.3472 91.8788 58.4021 92.1629 58.512 92.3523C58.6256 92.5379 58.7696 92.6629 58.9438 92.7273C59.1218 92.7879 59.3093 92.8182 59.5063 92.8182C59.654 92.8182 59.7752 92.8106 59.8699 92.7955C59.9646 92.7765 60.0404 92.7614 60.0972 92.75L60.3699 93.9545C60.279 93.9886 60.1521 94.0227 59.9893 94.0568C59.8264 94.0947 59.6199 94.1136 59.3699 94.1136C58.9912 94.1136 58.6199 94.0322 58.2563 93.8693C57.8965 93.7064 57.5972 93.4583 57.3586 93.125C57.1237 92.7917 57.0063 92.3712 57.0063 91.8636V83.1818ZM63.5963 88.75V94H62.2554V82.3636H63.5963V86.6364H63.7099C63.9145 86.1856 64.2213 85.8277 64.6304 85.5625C65.0433 85.2936 65.5925 85.1591 66.2781 85.1591C66.8728 85.1591 67.3937 85.2784 67.8406 85.517C68.2876 85.7519 68.6342 86.1136 68.8804 86.6023C69.1304 87.0871 69.2554 87.7045 69.2554 88.4545V94H67.9145V88.5455C67.9145 87.8523 67.7346 87.3163 67.3747 86.9375C67.0187 86.5549 66.5243 86.3636 65.8918 86.3636C65.4524 86.3636 65.0584 86.4564 64.7099 86.642C64.3652 86.8277 64.0925 87.0985 63.8918 87.4545C63.6948 87.8106 63.5963 88.2424 63.5963 88.75ZM75.2076 94.1818C74.3667 94.1818 73.6413 93.9962 73.0315 93.625C72.4254 93.25 71.9576 92.7273 71.6281 92.0568C71.3023 91.3826 71.1394 90.5985 71.1394 89.7045C71.1394 88.8106 71.3023 88.0227 71.6281 87.3409C71.9576 86.6553 72.4159 86.1212 73.0031 85.7386C73.594 85.3523 74.2834 85.1591 75.0713 85.1591C75.5258 85.1591 75.9747 85.2348 76.4178 85.3864C76.861 85.5379 77.2644 85.7841 77.6281 86.125C77.9917 86.4621 78.2815 86.9091 78.4974 87.4659C78.7133 88.0227 78.8213 88.7083 78.8213 89.5227V90.0909H72.094V88.9318H77.4576C77.4576 88.4394 77.3591 88 77.1622 87.6136C76.969 87.2273 76.6925 86.9223 76.3326 86.6989C75.9766 86.4754 75.5561 86.3636 75.0713 86.3636C74.5372 86.3636 74.075 86.4962 73.6849 86.7614C73.2985 87.0227 73.0012 87.3636 72.7928 87.7841C72.5845 88.2045 72.4803 88.6553 72.4803 89.1364V89.9091C72.4803 90.5682 72.594 91.1269 72.8213 91.5852C73.0523 92.0398 73.3724 92.3864 73.7815 92.625C74.1906 92.8598 74.6659 92.9773 75.2076 92.9773C75.5599 92.9773 75.8781 92.928 76.1622 92.8295C76.45 92.7273 76.6981 92.5758 76.9065 92.375C77.1148 92.1705 77.2758 91.9167 77.3894 91.6136L78.6849 91.9773C78.5485 92.4167 78.3194 92.803 77.9974 93.1364C77.6754 93.4659 77.2777 93.7235 76.8042 93.9091C76.3307 94.0909 75.7985 94.1818 75.2076 94.1818ZM85.2228 94V82.3636H86.5638V86.6591H86.6774C86.7759 86.5076 86.9122 86.3144 87.0865 86.0795C87.2645 85.8409 87.5183 85.6288 87.8478 85.4432C88.1812 85.2538 88.6319 85.1591 89.2001 85.1591C89.935 85.1591 90.5827 85.3428 91.1433 85.7102C91.7039 86.0777 92.1414 86.5985 92.4558 87.2727C92.7702 87.947 92.9274 88.7424 92.9274 89.6591C92.9274 90.5833 92.7702 91.3845 92.4558 92.0625C92.1414 92.7367 91.7058 93.2595 91.149 93.6307C90.5922 93.9981 89.9501 94.1818 89.2228 94.1818C88.6622 94.1818 88.2134 94.089 87.8763 93.9034C87.5391 93.714 87.2797 93.5 87.0978 93.2614C86.916 93.0189 86.7759 92.8182 86.6774 92.6591H86.5183V94H85.2228ZM86.541 89.6364C86.541 90.2955 86.6376 90.8769 86.8308 91.3807C87.024 91.8807 87.3062 92.2727 87.6774 92.5568C88.0486 92.8371 88.5031 92.9773 89.041 92.9773C89.6016 92.9773 90.0694 92.8295 90.4444 92.5341C90.8232 92.2348 91.1073 91.8333 91.2967 91.3295C91.4899 90.822 91.5865 90.2576 91.5865 89.6364C91.5865 89.0227 91.4918 88.4697 91.3024 87.9773C91.1168 87.4811 90.8346 87.089 90.4558 86.8011C90.0808 86.5095 89.6092 86.3636 89.041 86.3636C88.4956 86.3636 88.0372 86.5019 87.666 86.7784C87.2948 87.0511 87.0145 87.4337 86.8251 87.9261C86.6357 88.4148 86.541 88.9848 86.541 89.6364ZM97.3867 94.2045C96.8337 94.2045 96.3318 94.1004 95.881 93.892C95.4303 93.6799 95.0723 93.375 94.8072 92.9773C94.542 92.5758 94.4094 92.0909 94.4094 91.5227C94.4094 91.0227 94.5079 90.6174 94.7049 90.3068C94.9019 89.9924 95.1651 89.7462 95.4947 89.5682C95.8242 89.3902 96.1878 89.2576 96.5856 89.1705C96.9871 89.0795 97.3905 89.0076 97.7958 88.9545C98.3261 88.8864 98.756 88.8352 99.0856 88.8011C99.4189 88.7633 99.6613 88.7008 99.8128 88.6136C99.9681 88.5265 100.046 88.375 100.046 88.1591V88.1136C100.046 87.553 99.8924 87.1174 99.5856 86.8068C99.2825 86.4962 98.8223 86.3409 98.2049 86.3409C97.5647 86.3409 97.0628 86.4811 96.6992 86.7614C96.3356 87.0417 96.0799 87.3409 95.9322 87.6591L94.6594 87.2045C94.8867 86.6742 95.1897 86.2614 95.5685 85.9659C95.9511 85.6667 96.3678 85.4583 96.8185 85.3409C97.2731 85.2197 97.72 85.1591 98.1594 85.1591C98.4397 85.1591 98.7617 85.1932 99.1253 85.2614C99.4928 85.3258 99.8469 85.4602 100.188 85.6648C100.533 85.8693 100.819 86.178 101.046 86.5909C101.273 87.0038 101.387 87.5568 101.387 88.25V94H100.046V92.8182H99.9776C99.8867 93.0076 99.7352 93.2102 99.5231 93.4261C99.3109 93.642 99.0288 93.8258 98.6765 93.9773C98.3242 94.1288 97.8943 94.2045 97.3867 94.2045ZM97.5913 93C98.1216 93 98.5685 92.8958 98.9322 92.6875C99.2996 92.4792 99.5761 92.2102 99.7617 91.8807C99.9511 91.5511 100.046 91.2045 100.046 90.8409V89.6136C99.989 89.6818 99.864 89.7443 99.6708 89.8011C99.4814 89.8542 99.2617 89.9015 99.0117 89.9432C98.7655 89.9811 98.525 90.0152 98.2901 90.0455C98.0591 90.072 97.8716 90.0947 97.7276 90.1136C97.3791 90.1591 97.0534 90.233 96.7503 90.3352C96.4511 90.4337 96.2087 90.5833 96.0231 90.7841C95.8413 90.9811 95.7503 91.25 95.7503 91.5909C95.7503 92.0568 95.9227 92.4091 96.2674 92.6477C96.6159 92.8826 97.0572 93 97.5913 93ZM109.856 87.2273L108.651 87.5682C108.576 87.3674 108.464 87.1723 108.316 86.983C108.172 86.7898 107.975 86.6307 107.725 86.5057C107.475 86.3807 107.155 86.3182 106.765 86.3182C106.231 86.3182 105.786 86.4413 105.43 86.6875C105.078 86.9299 104.901 87.2386 104.901 87.6136C104.901 87.947 105.023 88.2102 105.265 88.4034C105.507 88.5966 105.886 88.7576 106.401 88.8864L107.697 89.2045C108.477 89.3939 109.059 89.6837 109.441 90.0739C109.824 90.4602 110.015 90.9583 110.015 91.5682C110.015 92.0682 109.871 92.5152 109.583 92.9091C109.299 93.303 108.901 93.6136 108.39 93.8409C107.879 94.0682 107.284 94.1818 106.606 94.1818C105.716 94.1818 104.979 93.9886 104.396 93.6023C103.812 93.2159 103.443 92.6515 103.288 91.9091L104.561 91.5909C104.682 92.0606 104.911 92.4129 105.248 92.6477C105.589 92.8826 106.034 93 106.583 93C107.208 93 107.704 92.8674 108.072 92.6023C108.443 92.3333 108.629 92.0114 108.629 91.6364C108.629 91.3333 108.523 91.0795 108.311 90.875C108.098 90.6667 107.773 90.5114 107.333 90.4091L105.879 90.0682C105.079 89.8788 104.492 89.5852 104.117 89.1875C103.746 88.786 103.561 88.2841 103.561 87.6818C103.561 87.1894 103.699 86.7538 103.975 86.375C104.256 85.9962 104.636 85.6989 105.117 85.483C105.602 85.267 106.151 85.1591 106.765 85.1591C107.629 85.1591 108.307 85.3485 108.799 85.7273C109.295 86.1061 109.648 86.6061 109.856 87.2273ZM111.874 94V85.2727H113.214V94H111.874ZM112.555 83.8182C112.294 83.8182 112.069 83.7292 111.879 83.5511C111.694 83.3731 111.601 83.1591 111.601 82.9091C111.601 82.6591 111.694 82.4451 111.879 82.267C112.069 82.089 112.294 82 112.555 82C112.817 82 113.04 82.089 113.226 82.267C113.415 82.4451 113.51 82.6591 113.51 82.9091C113.51 83.1591 113.415 83.3731 113.226 83.5511C113.04 83.7292 112.817 83.8182 112.555 83.8182ZM119.056 94.1818C118.238 94.1818 117.533 93.9886 116.942 93.6023C116.351 93.2159 115.897 92.6837 115.579 92.0057C115.26 91.3277 115.101 90.553 115.101 89.6818C115.101 88.7955 115.264 88.0133 115.59 87.3352C115.919 86.6534 116.378 86.1212 116.965 85.7386C117.556 85.3523 118.245 85.1591 119.033 85.1591C119.647 85.1591 120.2 85.2727 120.692 85.5C121.185 85.7273 121.588 86.0455 121.902 86.4545C122.217 86.8636 122.412 87.3409 122.488 87.8864H121.147C121.044 87.4886 120.817 87.1364 120.465 86.8295C120.116 86.5189 119.647 86.3636 119.056 86.3636C118.533 86.3636 118.075 86.5 117.681 86.7727C117.291 87.0417 116.986 87.4223 116.766 87.9148C116.55 88.4034 116.442 88.9773 116.442 89.6364C116.442 90.3106 116.548 90.8977 116.76 91.3977C116.976 91.8977 117.279 92.286 117.669 92.5625C118.063 92.839 118.526 92.9773 119.056 92.9773C119.404 92.9773 119.721 92.9167 120.005 92.7955C120.289 92.6742 120.529 92.5 120.726 92.2727C120.923 92.0455 121.063 91.7727 121.147 91.4545H122.488C122.412 91.9697 122.224 92.4337 121.925 92.8466C121.63 93.2557 121.238 93.5814 120.749 93.8239C120.264 94.0625 119.7 94.1818 119.056 94.1818ZM132.514 85.2727V86.4091H127.81V85.2727H132.514ZM129.219 94V84.0682C129.219 83.5682 129.336 83.1515 129.571 82.8182C129.806 82.4848 130.111 82.2348 130.486 82.0682C130.861 81.9015 131.257 81.8182 131.673 81.8182C132.003 81.8182 132.272 81.8447 132.48 81.8977C132.689 81.9508 132.844 82 132.946 82.0455L132.56 83.2045C132.492 83.1818 132.397 83.1534 132.276 83.1193C132.158 83.0852 132.003 83.0682 131.81 83.0682C131.367 83.0682 131.046 83.1799 130.849 83.4034C130.656 83.6269 130.56 83.9545 130.56 84.3864V94H129.219ZM137.533 94.1818C136.692 94.1818 135.967 93.9962 135.357 93.625C134.751 93.25 134.283 92.7273 133.954 92.0568C133.628 91.3826 133.465 90.5985 133.465 89.7045C133.465 88.8106 133.628 88.0227 133.954 87.3409C134.283 86.6553 134.742 86.1212 135.329 85.7386C135.92 85.3523 136.609 85.1591 137.397 85.1591C137.851 85.1591 138.3 85.2348 138.743 85.3864C139.187 85.5379 139.59 85.7841 139.954 86.125C140.317 86.4621 140.607 86.9091 140.823 87.4659C141.039 88.0227 141.147 88.7083 141.147 89.5227V90.0909H134.42V88.9318H139.783C139.783 88.4394 139.685 88 139.488 87.6136C139.295 87.2273 139.018 86.9223 138.658 86.6989C138.302 86.4754 137.882 86.3636 137.397 86.3636C136.863 86.3636 136.401 86.4962 136.011 86.7614C135.624 87.0227 135.327 87.3636 135.118 87.7841C134.91 88.2045 134.806 88.6553 134.806 89.1364V89.9091C134.806 90.5682 134.92 91.1269 135.147 91.5852C135.378 92.0398 135.698 92.3864 136.107 92.625C136.516 92.8598 136.992 92.9773 137.533 92.9773C137.886 92.9773 138.204 92.928 138.488 92.8295C138.776 92.7273 139.024 92.5758 139.232 92.375C139.44 92.1705 139.601 91.9167 139.715 91.6136L141.011 91.9773C140.874 92.4167 140.645 92.803 140.323 93.1364C140.001 93.4659 139.603 93.7235 139.13 93.9091C138.656 94.0909 138.124 94.1818 137.533 94.1818ZM145.595 94.2045C145.042 94.2045 144.54 94.1004 144.089 93.892C143.638 93.6799 143.28 93.375 143.015 92.9773C142.75 92.5758 142.618 92.0909 142.618 91.5227C142.618 91.0227 142.716 90.6174 142.913 90.3068C143.11 89.9924 143.373 89.7462 143.703 89.5682C144.032 89.3902 144.396 89.2576 144.794 89.1705C145.195 89.0795 145.599 89.0076 146.004 88.9545C146.534 88.8864 146.964 88.8352 147.294 88.8011C147.627 88.7633 147.869 88.7008 148.021 88.6136C148.176 88.5265 148.254 88.375 148.254 88.1591V88.1136C148.254 87.553 148.101 87.1174 147.794 86.8068C147.491 86.4962 147.03 86.3409 146.413 86.3409C145.773 86.3409 145.271 86.4811 144.907 86.7614C144.544 87.0417 144.288 87.3409 144.14 87.6591L142.868 87.2045C143.095 86.6742 143.398 86.2614 143.777 85.9659C144.159 85.6667 144.576 85.4583 145.027 85.3409C145.481 85.2197 145.928 85.1591 146.368 85.1591C146.648 85.1591 146.97 85.1932 147.333 85.2614C147.701 85.3258 148.055 85.4602 148.396 85.6648C148.741 85.8693 149.027 86.178 149.254 86.5909C149.481 87.0038 149.595 87.5568 149.595 88.25V94H148.254V92.8182H148.186C148.095 93.0076 147.943 93.2102 147.731 93.4261C147.519 93.642 147.237 93.8258 146.885 93.9773C146.532 94.1288 146.102 94.2045 145.595 94.2045ZM145.799 93C146.33 93 146.777 92.8958 147.14 92.6875C147.508 92.4792 147.784 92.2102 147.97 91.8807C148.159 91.5511 148.254 91.2045 148.254 90.8409V89.6136C148.197 89.6818 148.072 89.7443 147.879 89.8011C147.69 89.8542 147.47 89.9015 147.22 89.9432C146.974 89.9811 146.733 90.0152 146.498 90.0455C146.267 90.072 146.08 90.0947 145.936 90.1136C145.587 90.1591 145.261 90.233 144.958 90.3352C144.659 90.4337 144.417 90.5833 144.231 90.7841C144.049 90.9811 143.958 91.25 143.958 91.5909C143.958 92.0568 144.131 92.4091 144.476 92.6477C144.824 92.8826 145.265 93 145.799 93ZM155.678 85.2727V86.4091H151.155V85.2727H155.678ZM152.473 83.1818H153.814V91.5C153.814 91.8788 153.869 92.1629 153.979 92.3523C154.092 92.5379 154.236 92.6629 154.411 92.7273C154.589 92.7879 154.776 92.8182 154.973 92.8182C155.121 92.8182 155.242 92.8106 155.337 92.7955C155.432 92.7765 155.507 92.7614 155.564 92.75L155.837 93.9545C155.746 93.9886 155.619 94.0227 155.456 94.0568C155.293 94.0947 155.087 94.1136 154.837 94.1136C154.458 94.1136 154.087 94.0322 153.723 93.8693C153.363 93.7064 153.064 93.4583 152.825 93.125C152.591 92.7917 152.473 92.3712 152.473 91.8636V83.1818ZM163.035 90.4318V85.2727H164.376V94H163.035V92.5227H162.944C162.739 92.9659 162.421 93.3428 161.989 93.6534C161.558 93.9602 161.012 94.1136 160.353 94.1136C159.808 94.1136 159.323 93.9943 158.898 93.7557C158.474 93.5133 158.141 93.1496 157.898 92.6648C157.656 92.1761 157.535 91.5606 157.535 90.8182V85.2727H158.876V90.7273C158.876 91.3636 159.054 91.8712 159.41 92.25C159.77 92.6288 160.228 92.8182 160.785 92.8182C161.118 92.8182 161.457 92.733 161.802 92.5625C162.15 92.392 162.442 92.1307 162.677 91.7784C162.915 91.4261 163.035 90.9773 163.035 90.4318ZM166.672 94V85.2727H167.967V86.5909H168.058C168.217 86.1591 168.505 85.8087 168.922 85.5398C169.338 85.2708 169.808 85.1364 170.331 85.1364C170.429 85.1364 170.552 85.1383 170.7 85.142C170.848 85.1458 170.96 85.1515 171.035 85.1591V86.5227C170.99 86.5114 170.886 86.4943 170.723 86.4716C170.564 86.4451 170.395 86.4318 170.217 86.4318C169.793 86.4318 169.414 86.5208 169.081 86.6989C168.751 86.8731 168.49 87.1155 168.297 87.4261C168.107 87.733 168.013 88.0833 168.013 88.4773V94H166.672ZM175.858 94.1818C175.017 94.1818 174.292 93.9962 173.682 93.625C173.076 93.25 172.608 92.7273 172.279 92.0568C171.953 91.3826 171.79 90.5985 171.79 89.7045C171.79 88.8106 171.953 88.0227 172.279 87.3409C172.608 86.6553 173.067 86.1212 173.654 85.7386C174.245 85.3523 174.934 85.1591 175.722 85.1591C176.176 85.1591 176.625 85.2348 177.068 85.3864C177.512 85.5379 177.915 85.7841 178.279 86.125C178.642 86.4621 178.932 86.9091 179.148 87.4659C179.364 88.0227 179.472 88.7083 179.472 89.5227V90.0909H172.745V88.9318H178.108C178.108 88.4394 178.01 88 177.813 87.6136C177.62 87.2273 177.343 86.9223 176.983 86.6989C176.627 86.4754 176.207 86.3636 175.722 86.3636C175.188 86.3636 174.726 86.4962 174.336 86.7614C173.949 87.0227 173.652 87.3636 173.443 87.7841C173.235 88.2045 173.131 88.6553 173.131 89.1364V89.9091C173.131 90.5682 173.245 91.1269 173.472 91.5852C173.703 92.0398 174.023 92.3864 174.432 92.625C174.841 92.8598 175.317 92.9773 175.858 92.9773C176.211 92.9773 176.529 92.928 176.813 92.8295C177.101 92.7273 177.349 92.5758 177.557 92.375C177.765 92.1705 177.926 91.9167 178.04 91.6136L179.336 91.9773C179.199 92.4167 178.97 92.803 178.648 93.1364C178.326 93.4659 177.928 93.7235 177.455 93.9091C176.981 94.0909 176.449 94.1818 175.858 94.1818ZM187.533 87.2273L186.329 87.5682C186.253 87.3674 186.141 87.1723 185.994 86.983C185.85 86.7898 185.653 86.6307 185.403 86.5057C185.153 86.3807 184.833 86.3182 184.443 86.3182C183.908 86.3182 183.463 86.4413 183.107 86.6875C182.755 86.9299 182.579 87.2386 182.579 87.6136C182.579 87.947 182.7 88.2102 182.943 88.4034C183.185 88.5966 183.564 88.7576 184.079 88.8864L185.374 89.2045C186.155 89.3939 186.736 89.6837 187.119 90.0739C187.501 90.4602 187.693 90.9583 187.693 91.5682C187.693 92.0682 187.549 92.5152 187.261 92.9091C186.977 93.303 186.579 93.6136 186.068 93.8409C185.556 94.0682 184.961 94.1818 184.283 94.1818C183.393 94.1818 182.657 93.9886 182.073 93.6023C181.49 93.2159 181.121 92.6515 180.965 91.9091L182.238 91.5909C182.359 92.0606 182.588 92.4129 182.926 92.6477C183.266 92.8826 183.711 93 184.261 93C184.886 93 185.382 92.8674 185.749 92.6023C186.121 92.3333 186.306 92.0114 186.306 91.6364C186.306 91.3333 186.2 91.0795 185.988 90.875C185.776 90.6667 185.45 90.5114 185.011 90.4091L183.556 90.0682C182.757 89.8788 182.17 89.5852 181.795 89.1875C181.424 88.786 181.238 88.2841 181.238 87.6818C181.238 87.1894 181.376 86.7538 181.653 86.375C181.933 85.9962 182.314 85.6989 182.795 85.483C183.28 85.267 183.829 85.1591 184.443 85.1591C185.306 85.1591 185.984 85.3485 186.477 85.7273C186.973 86.1061 187.325 86.6061 187.533 87.2273ZM190.528 94.0909C190.248 94.0909 190.007 93.9905 189.807 93.7898C189.606 93.589 189.506 93.3485 189.506 93.0682C189.506 92.7879 189.606 92.5473 189.807 92.3466C190.007 92.1458 190.248 92.0455 190.528 92.0455C190.809 92.0455 191.049 92.1458 191.25 92.3466C191.451 92.5473 191.551 92.7879 191.551 93.0682C191.551 93.2538 191.504 93.4242 191.409 93.5795C191.318 93.7348 191.195 93.8598 191.04 93.9545C190.888 94.0455 190.718 94.0909 190.528 94.0909ZM204.683 85.2727C204.615 84.697 204.338 84.25 203.853 83.9318C203.368 83.6136 202.774 83.4545 202.069 83.4545C201.554 83.4545 201.103 83.5379 200.717 83.7045C200.334 83.8712 200.035 84.1004 199.819 84.392C199.607 84.6837 199.501 85.0152 199.501 85.3864C199.501 85.697 199.575 85.964 199.723 86.1875C199.874 86.4072 200.067 86.5909 200.302 86.7386C200.537 86.8826 200.783 87.0019 201.041 87.0966C201.298 87.1875 201.535 87.2614 201.751 87.3182L202.933 87.6364C203.236 87.7159 203.573 87.8258 203.944 87.9659C204.319 88.1061 204.677 88.2973 205.018 88.5398C205.363 88.7784 205.647 89.0852 205.87 89.4602C206.094 89.8352 206.205 90.2955 206.205 90.8409C206.205 91.4697 206.041 92.0379 205.711 92.5455C205.385 93.053 204.908 93.4564 204.279 93.7557C203.654 94.0549 202.895 94.2045 202.001 94.2045C201.168 94.2045 200.446 94.0701 199.836 93.8011C199.23 93.5322 198.753 93.1572 198.404 92.6761C198.06 92.1951 197.865 91.6364 197.819 91H199.274C199.312 91.4394 199.459 91.803 199.717 92.0909C199.978 92.375 200.308 92.5871 200.705 92.7273C201.107 92.8636 201.539 92.9318 202.001 92.9318C202.539 92.9318 203.022 92.8447 203.45 92.6705C203.878 92.4924 204.217 92.2462 204.467 91.9318C204.717 91.6136 204.842 91.2424 204.842 90.8182C204.842 90.4318 204.734 90.1174 204.518 89.875C204.302 89.6326 204.018 89.4356 203.666 89.2841C203.313 89.1326 202.933 89 202.524 88.8864L201.092 88.4773C200.183 88.2159 199.463 87.8428 198.933 87.358C198.402 86.8731 198.137 86.2386 198.137 85.4545C198.137 84.803 198.313 84.2348 198.666 83.75C199.022 83.2614 199.499 82.8826 200.098 82.6136C200.7 82.3409 201.372 82.2045 202.115 82.2045C202.865 82.2045 203.531 82.339 204.115 82.608C204.698 82.8731 205.16 83.2367 205.501 83.6989C205.846 84.161 206.027 84.6856 206.046 85.2727H204.683ZM211.976 85.2727V86.4091H207.453V85.2727H211.976ZM208.771 83.1818H210.112V91.5C210.112 91.8788 210.167 92.1629 210.277 92.3523C210.391 92.5379 210.535 92.6629 210.709 92.7273C210.887 92.7879 211.074 92.8182 211.271 92.8182C211.419 92.8182 211.54 92.8106 211.635 92.7955C211.73 92.7765 211.805 92.7614 211.862 92.75L212.135 93.9545C212.044 93.9886 211.917 94.0227 211.754 94.0568C211.591 94.0947 211.385 94.1136 211.135 94.1136C210.756 94.1136 210.385 94.0322 210.021 93.8693C209.661 93.7064 209.362 93.4583 209.124 93.125C208.889 92.7917 208.771 92.3712 208.771 91.8636V83.1818ZM216.401 94.2045C215.848 94.2045 215.346 94.1004 214.895 93.892C214.445 93.6799 214.087 93.375 213.822 92.9773C213.556 92.5758 213.424 92.0909 213.424 91.5227C213.424 91.0227 213.522 90.6174 213.719 90.3068C213.916 89.9924 214.179 89.7462 214.509 89.5682C214.839 89.3902 215.202 89.2576 215.6 89.1705C216.001 89.0795 216.405 89.0076 216.81 88.9545C217.34 88.8864 217.77 88.8352 218.1 88.8011C218.433 88.7633 218.676 88.7008 218.827 88.6136C218.983 88.5265 219.06 88.375 219.06 88.1591V88.1136C219.06 87.553 218.907 87.1174 218.6 86.8068C218.297 86.4962 217.837 86.3409 217.219 86.3409C216.579 86.3409 216.077 86.4811 215.714 86.7614C215.35 87.0417 215.094 87.3409 214.947 87.6591L213.674 87.2045C213.901 86.6742 214.204 86.2614 214.583 85.9659C214.965 85.6667 215.382 85.4583 215.833 85.3409C216.287 85.2197 216.734 85.1591 217.174 85.1591C217.454 85.1591 217.776 85.1932 218.14 85.2614C218.507 85.3258 218.861 85.4602 219.202 85.6648C219.547 85.8693 219.833 86.178 220.06 86.5909C220.287 87.0038 220.401 87.5568 220.401 88.25V94H219.06V92.8182H218.992C218.901 93.0076 218.75 93.2102 218.537 93.4261C218.325 93.642 218.043 93.8258 217.691 93.9773C217.339 94.1288 216.909 94.2045 216.401 94.2045ZM216.606 93C217.136 93 217.583 92.8958 217.947 92.6875C218.314 92.4792 218.59 92.2102 218.776 91.8807C218.965 91.5511 219.06 91.2045 219.06 90.8409V89.6136C219.003 89.6818 218.878 89.7443 218.685 89.8011C218.496 89.8542 218.276 89.9015 218.026 89.9432C217.78 89.9811 217.539 90.0152 217.304 90.0455C217.073 90.072 216.886 90.0947 216.742 90.1136C216.394 90.1591 216.068 90.233 215.765 90.3352C215.465 90.4337 215.223 90.5833 215.037 90.7841C214.856 90.9811 214.765 91.25 214.765 91.5909C214.765 92.0568 214.937 92.4091 215.282 92.6477C215.63 92.8826 216.072 93 216.606 93ZM222.689 94V85.2727H223.984V86.5909H224.075C224.234 86.1591 224.522 85.8087 224.939 85.5398C225.355 85.2708 225.825 85.1364 226.348 85.1364C226.446 85.1364 226.569 85.1383 226.717 85.142C226.865 85.1458 226.976 85.1515 227.052 85.1591V86.5227C227.007 86.5114 226.903 86.4943 226.74 86.4716C226.581 86.4451 226.412 86.4318 226.234 86.4318C225.81 86.4318 225.431 86.5208 225.098 86.6989C224.768 86.8731 224.507 87.1155 224.314 87.4261C224.124 87.733 224.029 88.0833 224.029 88.4773V94H222.689ZM232.824 85.2727V86.4091H228.301V85.2727H232.824ZM229.619 83.1818H230.96V91.5C230.96 91.8788 231.015 92.1629 231.125 92.3523C231.239 92.5379 231.383 92.6629 231.557 92.7273C231.735 92.7879 231.922 92.8182 232.119 92.8182C232.267 92.8182 232.388 92.8106 232.483 92.7955C232.578 92.7765 232.654 92.7614 232.71 92.75L232.983 93.9545C232.892 93.9886 232.765 94.0227 232.602 94.0568C232.44 94.0947 232.233 94.1136 231.983 94.1136C231.604 94.1136 231.233 94.0322 230.869 93.8693C230.51 93.7064 230.21 93.4583 229.972 93.125C229.737 92.7917 229.619 92.3712 229.619 91.8636V83.1818ZM242.907 85.2727V86.4091H238.203V85.2727H242.907ZM239.612 94V84.0682C239.612 83.5682 239.729 83.1515 239.964 82.8182C240.199 82.4848 240.504 82.2348 240.879 82.0682C241.254 81.9015 241.65 81.8182 242.066 81.8182C242.396 81.8182 242.665 81.8447 242.873 81.8977C243.082 81.9508 243.237 82 243.339 82.0455L242.953 83.2045C242.885 83.1818 242.79 83.1534 242.669 83.1193C242.551 83.0852 242.396 83.0682 242.203 83.0682C241.76 83.0682 241.44 83.1799 241.243 83.4034C241.049 83.6269 240.953 83.9545 240.953 84.3864V94H239.612ZM247.813 94.1818C247.025 94.1818 246.334 93.9943 245.739 93.6193C245.148 93.2443 244.686 92.7197 244.352 92.0455C244.023 91.3712 243.858 90.5833 243.858 89.6818C243.858 88.7727 244.023 87.9792 244.352 87.3011C244.686 86.6231 245.148 86.0966 245.739 85.7216C246.334 85.3466 247.025 85.1591 247.813 85.1591C248.601 85.1591 249.29 85.3466 249.881 85.7216C250.476 86.0966 250.938 86.6231 251.267 87.3011C251.601 87.9792 251.767 88.7727 251.767 89.6818C251.767 90.5833 251.601 91.3712 251.267 92.0455C250.938 92.7197 250.476 93.2443 249.881 93.6193C249.29 93.9943 248.601 94.1818 247.813 94.1818ZM247.813 92.9773C248.411 92.9773 248.904 92.8239 249.29 92.517C249.676 92.2102 249.962 91.8068 250.148 91.3068C250.334 90.8068 250.426 90.2652 250.426 89.6818C250.426 89.0985 250.334 88.5549 250.148 88.0511C249.962 87.5473 249.676 87.1402 249.29 86.8295C248.904 86.5189 248.411 86.3636 247.813 86.3636C247.214 86.3636 246.722 86.5189 246.335 86.8295C245.949 87.1402 245.663 87.5473 245.477 88.0511C245.292 88.5549 245.199 89.0985 245.199 89.6818C245.199 90.2652 245.292 90.8068 245.477 91.3068C245.663 91.8068 245.949 92.2102 246.335 92.517C246.722 92.8239 247.214 92.9773 247.813 92.9773ZM253.654 94V85.2727H254.95V86.5909H255.041C255.2 86.1591 255.487 85.8087 255.904 85.5398C256.321 85.2708 256.791 85.1364 257.313 85.1364C257.412 85.1364 257.535 85.1383 257.683 85.142C257.83 85.1458 257.942 85.1515 258.018 85.1591V86.5227C257.972 86.5114 257.868 86.4943 257.705 86.4716C257.546 86.4451 257.378 86.4318 257.2 86.4318C256.775 86.4318 256.397 86.5208 256.063 86.6989C255.734 86.8731 255.472 87.1155 255.279 87.4261C255.09 87.733 254.995 88.0833 254.995 88.4773V94H253.654ZM267.674 85.2727V86.4091H262.969V85.2727H267.674ZM264.378 94V84.0682C264.378 83.5682 264.496 83.1515 264.73 82.8182C264.965 82.4848 265.27 82.2348 265.645 82.0682C266.02 81.9015 266.416 81.8182 266.833 81.8182C267.162 81.8182 267.431 81.8447 267.64 81.8977C267.848 81.9508 268.003 82 268.105 82.0455L267.719 83.2045C267.651 83.1818 267.556 83.1534 267.435 83.1193C267.318 83.0852 267.162 83.0682 266.969 83.0682C266.526 83.0682 266.206 83.1799 266.009 83.4034C265.816 83.6269 265.719 83.9545 265.719 84.3864V94H264.378ZM269.393 94V85.2727H270.688V86.5909H270.779C270.938 86.1591 271.226 85.8087 271.643 85.5398C272.06 85.2708 272.529 85.1364 273.052 85.1364C273.15 85.1364 273.274 85.1383 273.421 85.142C273.569 85.1458 273.681 85.1515 273.757 85.1591V86.5227C273.711 86.5114 273.607 86.4943 273.444 86.4716C273.285 86.4451 273.116 86.4318 272.938 86.4318C272.514 86.4318 272.135 86.5208 271.802 86.6989C271.472 86.8731 271.211 87.1155 271.018 87.4261C270.828 87.733 270.734 88.0833 270.734 88.4773V94H269.393ZM278.579 94.1818C277.739 94.1818 277.013 93.9962 276.403 93.625C275.797 93.25 275.329 92.7273 275 92.0568C274.674 91.3826 274.511 90.5985 274.511 89.7045C274.511 88.8106 274.674 88.0227 275 87.3409C275.329 86.6553 275.788 86.1212 276.375 85.7386C276.966 85.3523 277.655 85.1591 278.443 85.1591C278.898 85.1591 279.347 85.2348 279.79 85.3864C280.233 85.5379 280.636 85.7841 281 86.125C281.364 86.4621 281.653 86.9091 281.869 87.4659C282.085 88.0227 282.193 88.7083 282.193 89.5227V90.0909H275.466V88.9318H280.829C280.829 88.4394 280.731 88 280.534 87.6136C280.341 87.2273 280.064 86.9223 279.704 86.6989C279.348 86.4754 278.928 86.3636 278.443 86.3636C277.909 86.3636 277.447 86.4962 277.057 86.7614C276.67 87.0227 276.373 87.3636 276.165 87.7841C275.956 88.2045 275.852 88.6553 275.852 89.1364V89.9091C275.852 90.5682 275.966 91.1269 276.193 91.5852C276.424 92.0398 276.744 92.3864 277.153 92.625C277.562 92.8598 278.038 92.9773 278.579 92.9773C278.932 92.9773 279.25 92.928 279.534 92.8295C279.822 92.7273 280.07 92.5758 280.278 92.375C280.487 92.1705 280.648 91.9167 280.761 91.6136L282.057 91.9773C281.92 92.4167 281.691 92.803 281.369 93.1364C281.047 93.4659 280.65 93.7235 280.176 93.9091C279.703 94.0909 279.17 94.1818 278.579 94.1818ZM287.732 94.1818C286.891 94.1818 286.166 93.9962 285.556 93.625C284.95 93.25 284.482 92.7273 284.152 92.0568C283.827 91.3826 283.664 90.5985 283.664 89.7045C283.664 88.8106 283.827 88.0227 284.152 87.3409C284.482 86.6553 284.94 86.1212 285.527 85.7386C286.118 85.3523 286.808 85.1591 287.596 85.1591C288.05 85.1591 288.499 85.2348 288.942 85.3864C289.385 85.5379 289.789 85.7841 290.152 86.125C290.516 86.4621 290.806 86.9091 291.022 87.4659C291.238 88.0227 291.346 88.7083 291.346 89.5227V90.0909H284.618V88.9318H289.982C289.982 88.4394 289.884 88 289.687 87.6136C289.493 87.2273 289.217 86.9223 288.857 86.6989C288.501 86.4754 288.08 86.3636 287.596 86.3636C287.062 86.3636 286.599 86.4962 286.209 86.7614C285.823 87.0227 285.526 87.3636 285.317 87.7841C285.109 88.2045 285.005 88.6553 285.005 89.1364V89.9091C285.005 90.5682 285.118 91.1269 285.346 91.5852C285.577 92.0398 285.897 92.3864 286.306 92.625C286.715 92.8598 287.19 92.9773 287.732 92.9773C288.084 92.9773 288.402 92.928 288.687 92.8295C288.974 92.7273 289.223 92.5758 289.431 92.375C289.639 92.1705 289.8 91.9167 289.914 91.6136L291.209 91.9773C291.073 92.4167 290.844 92.803 290.522 93.1364C290.2 93.4659 289.802 93.7235 289.329 93.9091C288.855 94.0909 288.323 94.1818 287.732 94.1818ZM294.203 94.0909C293.922 94.0909 293.682 93.9905 293.481 93.7898C293.28 93.589 293.18 93.3485 293.18 93.0682C293.18 92.7879 293.28 92.5473 293.481 92.3466C293.682 92.1458 293.922 92.0455 294.203 92.0455C294.483 92.0455 294.724 92.1458 294.924 92.3466C295.125 92.5473 295.225 92.7879 295.225 93.0682C295.225 93.2538 295.178 93.4242 295.083 93.5795C294.992 93.7348 294.869 93.8598 294.714 93.9545C294.563 94.0455 294.392 94.0909 294.203 94.0909Z" fill="#929AB5"/>
<path d="M44.1307 170.636V134.273H46.4602V170.636H44.1307ZM50.3097 146.276C50.196 145.13 49.7083 144.24 48.8466 143.605C47.9848 142.971 46.8153 142.653 45.3381 142.653C44.3343 142.653 43.4867 142.795 42.7955 143.08C42.1042 143.354 41.5739 143.738 41.2045 144.23C40.8447 144.723 40.6648 145.281 40.6648 145.906C40.6458 146.427 40.7547 146.882 40.9915 147.27C41.2377 147.658 41.5739 147.994 42 148.278C42.4261 148.553 42.9186 148.795 43.4773 149.003C44.036 149.202 44.6326 149.372 45.267 149.514L47.8807 150.139C49.1496 150.423 50.3144 150.802 51.375 151.276C52.4356 151.749 53.3542 152.331 54.1307 153.023C54.9072 153.714 55.5085 154.528 55.9347 155.466C56.3703 156.403 56.5928 157.478 56.6023 158.69C56.5928 160.471 56.1383 162.014 55.2386 163.321C54.3485 164.618 53.0606 165.627 51.375 166.347C49.6989 167.057 47.6771 167.412 45.3097 167.412C42.9612 167.412 40.9157 167.052 39.1733 166.332C37.4403 165.613 36.0862 164.547 35.1108 163.136C34.1449 161.716 33.6383 159.959 33.5909 157.866H39.5426C39.6089 158.842 39.8883 159.656 40.3807 160.31C40.8826 160.954 41.5502 161.441 42.3835 161.773C43.2263 162.095 44.178 162.256 45.2386 162.256C46.2803 162.256 47.1847 162.104 47.9517 161.801C48.7282 161.498 49.3295 161.077 49.7557 160.537C50.1818 159.997 50.3949 159.377 50.3949 158.676C50.3949 158.023 50.2008 157.473 49.8125 157.028C49.4337 156.583 48.875 156.205 48.1364 155.892C47.4072 155.58 46.5123 155.295 45.4517 155.04L42.2841 154.244C39.8314 153.648 37.8949 152.715 36.4744 151.446C35.054 150.177 34.3485 148.468 34.358 146.318C34.3485 144.557 34.8172 143.018 35.7642 141.702C36.7206 140.385 38.0322 139.358 39.6989 138.619C41.3655 137.881 43.2595 137.511 45.3807 137.511C47.5398 137.511 49.4242 137.881 51.0341 138.619C52.6534 139.358 53.9129 140.385 54.8125 141.702C55.7121 143.018 56.1761 144.543 56.2045 146.276H50.3097ZM71.9751 167.639C69.532 167.63 67.4297 167.028 65.6683 165.835C63.9164 164.642 62.567 162.914 61.62 160.651C60.6825 158.387 60.2185 155.665 60.228 152.483C60.228 149.311 60.6967 146.607 61.6342 144.372C62.5812 142.137 63.9306 140.437 65.6825 139.273C67.4439 138.098 69.5414 137.511 71.9751 137.511C74.4089 137.511 76.5017 138.098 78.2536 139.273C80.0149 140.447 81.3691 142.152 82.3161 144.386C83.263 146.612 83.7318 149.311 83.7223 152.483C83.7223 155.674 83.2488 158.402 82.3018 160.665C81.3643 162.928 80.0197 164.656 78.2678 165.849C76.5159 167.043 74.4183 167.639 71.9751 167.639ZM71.9751 162.54C73.6418 162.54 74.9723 161.702 75.9666 160.026C76.9609 158.349 77.4534 155.835 77.4439 152.483C77.4439 150.277 77.2166 148.439 76.7621 146.972C76.317 145.504 75.6825 144.401 74.8587 143.662C74.0443 142.923 73.0831 142.554 71.9751 142.554C70.3179 142.554 68.9922 143.383 67.9979 145.04C67.0036 146.697 66.5017 149.178 66.4922 152.483C66.4922 154.718 66.7147 156.583 67.1598 158.08C67.6143 159.566 68.2536 160.684 69.0774 161.432C69.9013 162.17 70.8672 162.54 71.9751 162.54Z" fill="white"/>
<path d="M92.7173 151.773L88.0298 169.188H86.1335L90.821 151.773H92.7173ZM94.5213 167V156.091H96.5597V157.866H96.6946C96.9219 157.265 97.2936 156.796 97.8097 156.46C98.3258 156.119 98.9437 155.949 99.6634 155.949C100.393 155.949 101.003 156.119 101.496 156.46C101.993 156.801 102.36 157.27 102.597 157.866H102.71C102.971 157.284 103.385 156.82 103.953 156.474C104.521 156.124 105.198 155.949 105.984 155.949C106.974 155.949 107.781 156.259 108.406 156.879C109.036 157.5 109.351 158.435 109.351 159.685V167H107.227V159.884C107.227 159.145 107.026 158.61 106.624 158.278C106.221 157.947 105.741 157.781 105.182 157.781C104.491 157.781 103.953 157.994 103.57 158.42C103.186 158.842 102.994 159.384 102.994 160.047V167H100.878V159.749C100.878 159.157 100.693 158.681 100.324 158.321C99.9545 157.961 99.474 157.781 98.8821 157.781C98.4796 157.781 98.108 157.888 97.767 158.101C97.4309 158.309 97.1586 158.6 96.9503 158.974C96.7467 159.348 96.6449 159.782 96.6449 160.274V167H94.5213ZM116.792 167.22C115.77 167.22 114.877 166.986 114.115 166.517C113.352 166.048 112.761 165.393 112.339 164.55C111.918 163.707 111.707 162.722 111.707 161.595C111.707 160.464 111.918 159.474 112.339 158.626C112.761 157.779 113.352 157.121 114.115 156.652C114.877 156.183 115.77 155.949 116.792 155.949C117.815 155.949 118.708 156.183 119.47 156.652C120.232 157.121 120.824 157.779 121.245 158.626C121.667 159.474 121.877 160.464 121.877 161.595C121.877 162.722 121.667 163.707 121.245 164.55C120.824 165.393 120.232 166.048 119.47 166.517C118.708 166.986 117.815 167.22 116.792 167.22ZM116.799 165.438C117.462 165.438 118.011 165.262 118.447 164.912C118.883 164.562 119.205 164.095 119.413 163.513C119.626 162.93 119.733 162.289 119.733 161.588C119.733 160.892 119.626 160.253 119.413 159.67C119.205 159.083 118.883 158.612 118.447 158.257C118.011 157.902 117.462 157.724 116.799 157.724C116.132 157.724 115.578 157.902 115.137 158.257C114.702 158.612 114.377 159.083 114.164 159.67C113.956 160.253 113.852 160.892 113.852 161.588C113.852 162.289 113.956 162.93 114.164 163.513C114.377 164.095 114.702 164.562 115.137 164.912C115.578 165.262 116.132 165.438 116.799 165.438ZM126.371 160.523V167H124.248V156.091H126.286V157.866H126.421C126.672 157.289 127.065 156.825 127.6 156.474C128.14 156.124 128.819 155.949 129.638 155.949C130.382 155.949 131.033 156.105 131.592 156.418C132.15 156.725 132.584 157.185 132.891 157.795C133.199 158.406 133.353 159.161 133.353 160.061V167H131.229V160.317C131.229 159.526 131.023 158.908 130.612 158.463C130.2 158.013 129.634 157.788 128.914 157.788C128.422 157.788 127.984 157.895 127.6 158.108C127.221 158.321 126.921 158.634 126.698 159.045C126.48 159.453 126.371 159.945 126.371 160.523ZM141.293 156.091V157.795H135.335V156.091H141.293ZM136.933 153.477H139.056V163.797C139.056 164.209 139.118 164.519 139.241 164.727C139.364 164.931 139.522 165.071 139.717 165.146C139.915 165.217 140.131 165.253 140.363 165.253C140.533 165.253 140.683 165.241 140.81 165.217C140.938 165.194 141.038 165.175 141.109 165.161L141.492 166.915C141.369 166.962 141.194 167.009 140.967 167.057C140.739 167.109 140.455 167.137 140.114 167.142C139.556 167.152 139.035 167.052 138.552 166.844C138.069 166.635 137.678 166.313 137.38 165.878C137.082 165.442 136.933 164.895 136.933 164.237V153.477ZM146 160.523V167H143.877V152.455H145.972V157.866H146.107C146.363 157.279 146.753 156.813 147.279 156.467C147.804 156.122 148.491 155.949 149.338 155.949C150.087 155.949 150.74 156.103 151.299 156.411C151.862 156.718 152.298 157.178 152.605 157.788C152.918 158.394 153.074 159.152 153.074 160.061V167H150.951V160.317C150.951 159.517 150.745 158.896 150.333 158.456C149.921 158.011 149.348 157.788 148.614 157.788C148.112 157.788 147.662 157.895 147.265 158.108C146.872 158.321 146.561 158.634 146.334 159.045C146.112 159.453 146 159.945 146 160.523Z" fill="#74828B"/>
<rect x="32" y="204" width="320" height="56" rx="28" fill="#212530"/>
<path d="M146.125 229.71C146.08 229.252 145.885 228.896 145.54 228.642C145.196 228.388 144.728 228.261 144.137 228.261C143.735 228.261 143.396 228.318 143.12 228.432C142.843 228.542 142.631 228.695 142.483 228.892C142.339 229.089 142.267 229.312 142.267 229.562C142.26 229.771 142.303 229.953 142.398 230.108C142.497 230.263 142.631 230.398 142.802 230.511C142.972 230.621 143.169 230.718 143.392 230.801C143.616 230.881 143.855 230.949 144.108 231.006L145.154 231.256C145.661 231.369 146.127 231.521 146.552 231.71C146.976 231.9 147.343 232.133 147.654 232.409C147.964 232.686 148.205 233.011 148.375 233.386C148.55 233.761 148.639 234.191 148.642 234.676C148.639 235.388 148.457 236.006 148.097 236.528C147.741 237.047 147.226 237.451 146.552 237.739C145.881 238.023 145.072 238.165 144.125 238.165C143.186 238.165 142.368 238.021 141.671 237.733C140.978 237.445 140.436 237.019 140.046 236.455C139.66 235.886 139.457 235.184 139.438 234.347H141.819C141.845 234.737 141.957 235.062 142.154 235.324C142.355 235.581 142.622 235.777 142.955 235.909C143.292 236.038 143.673 236.102 144.097 236.102C144.514 236.102 144.875 236.042 145.182 235.92C145.493 235.799 145.733 235.631 145.904 235.415C146.074 235.199 146.16 234.951 146.16 234.67C146.16 234.409 146.082 234.189 145.927 234.011C145.775 233.833 145.552 233.682 145.256 233.557C144.964 233.432 144.606 233.318 144.182 233.216L142.915 232.898C141.934 232.659 141.16 232.286 140.591 231.778C140.023 231.271 139.741 230.587 139.745 229.727C139.741 229.023 139.928 228.407 140.307 227.881C140.69 227.354 141.214 226.943 141.881 226.648C142.548 226.352 143.305 226.205 144.154 226.205C145.017 226.205 145.771 226.352 146.415 226.648C147.063 226.943 147.567 227.354 147.927 227.881C148.286 228.407 148.472 229.017 148.483 229.71H146.125ZM154.734 229.273V231.091H149.478V229.273H154.734ZM150.671 227.182H153.092V235.318C153.092 235.542 153.126 235.716 153.194 235.841C153.262 235.962 153.357 236.047 153.478 236.097C153.603 236.146 153.747 236.17 153.91 236.17C154.024 236.17 154.137 236.161 154.251 236.142C154.365 236.119 154.452 236.102 154.512 236.091L154.893 237.892C154.772 237.93 154.601 237.973 154.382 238.023C154.162 238.076 153.895 238.108 153.58 238.119C152.997 238.142 152.486 238.064 152.046 237.886C151.611 237.708 151.272 237.432 151.029 237.057C150.787 236.682 150.668 236.208 150.671 235.636V227.182ZM158.639 238.165C158.082 238.165 157.586 238.068 157.151 237.875C156.715 237.678 156.37 237.388 156.117 237.006C155.867 236.619 155.742 236.138 155.742 235.562C155.742 235.078 155.831 234.67 156.009 234.341C156.187 234.011 156.429 233.746 156.736 233.545C157.043 233.345 157.391 233.193 157.781 233.091C158.175 232.989 158.588 232.917 159.02 232.875C159.527 232.822 159.937 232.773 160.247 232.727C160.558 232.678 160.783 232.606 160.923 232.511C161.063 232.417 161.134 232.277 161.134 232.091V232.057C161.134 231.697 161.02 231.419 160.793 231.222C160.569 231.025 160.251 230.926 159.838 230.926C159.402 230.926 159.056 231.023 158.798 231.216C158.541 231.405 158.37 231.644 158.287 231.932L156.048 231.75C156.162 231.22 156.385 230.761 156.719 230.375C157.052 229.985 157.482 229.686 158.009 229.477C158.539 229.265 159.152 229.159 159.849 229.159C160.334 229.159 160.798 229.216 161.242 229.33C161.688 229.443 162.084 229.619 162.429 229.858C162.777 230.097 163.052 230.403 163.253 230.778C163.454 231.15 163.554 231.595 163.554 232.114V238H161.259V236.79H161.19C161.05 237.062 160.863 237.303 160.628 237.511C160.393 237.716 160.111 237.877 159.781 237.994C159.452 238.108 159.071 238.165 158.639 238.165ZM159.332 236.494C159.688 236.494 160.003 236.424 160.276 236.284C160.548 236.14 160.762 235.947 160.918 235.705C161.073 235.462 161.151 235.187 161.151 234.881V233.955C161.075 234.004 160.971 234.049 160.838 234.091C160.709 234.129 160.563 234.165 160.401 234.199C160.238 234.229 160.075 234.258 159.912 234.284C159.749 234.307 159.601 234.328 159.469 234.347C159.185 234.388 158.937 234.455 158.724 234.545C158.512 234.636 158.348 234.759 158.23 234.915C158.113 235.066 158.054 235.256 158.054 235.483C158.054 235.812 158.173 236.064 158.412 236.239C158.654 236.409 158.961 236.494 159.332 236.494ZM165.272 238V229.273H167.618V230.795H167.709C167.868 230.254 168.135 229.845 168.51 229.568C168.885 229.288 169.317 229.148 169.806 229.148C169.927 229.148 170.058 229.155 170.198 229.17C170.338 229.186 170.461 229.206 170.567 229.233V231.381C170.454 231.347 170.296 231.316 170.096 231.29C169.895 231.263 169.711 231.25 169.545 231.25C169.189 231.25 168.87 231.328 168.59 231.483C168.314 231.634 168.094 231.847 167.931 232.119C167.772 232.392 167.692 232.706 167.692 233.062V238H165.272ZM176.738 229.273V231.091H171.483V229.273H176.738ZM172.676 227.182H175.096V235.318C175.096 235.542 175.13 235.716 175.198 235.841C175.267 235.962 175.361 236.047 175.483 236.097C175.608 236.146 175.752 236.17 175.914 236.17C176.028 236.17 176.142 236.161 176.255 236.142C176.369 236.119 176.456 236.102 176.517 236.091L176.897 237.892C176.776 237.93 176.606 237.973 176.386 238.023C176.166 238.076 175.899 238.108 175.585 238.119C175.002 238.142 174.49 238.064 174.051 237.886C173.615 237.708 173.276 237.432 173.034 237.057C172.791 236.682 172.672 236.208 172.676 235.636V227.182ZM186.391 229.273V231.091H181.005V229.273H186.391ZM182.238 238V228.642C182.238 228.009 182.361 227.485 182.607 227.068C182.857 226.652 183.198 226.339 183.63 226.131C184.062 225.922 184.552 225.818 185.102 225.818C185.473 225.818 185.812 225.847 186.119 225.903C186.429 225.96 186.66 226.011 186.812 226.057L186.38 227.875C186.285 227.845 186.168 227.816 186.028 227.79C185.891 227.763 185.751 227.75 185.607 227.75C185.251 227.75 185.003 227.833 184.863 228C184.723 228.163 184.653 228.392 184.653 228.688V238H182.238ZM187.71 238V229.273H190.057V230.795H190.147C190.307 230.254 190.574 229.845 190.949 229.568C191.324 229.288 191.755 229.148 192.244 229.148C192.365 229.148 192.496 229.155 192.636 229.17C192.776 229.186 192.899 229.206 193.005 229.233V231.381C192.892 231.347 192.735 231.316 192.534 231.29C192.333 231.263 192.149 231.25 191.983 231.25C191.627 231.25 191.308 231.328 191.028 231.483C190.752 231.634 190.532 231.847 190.369 232.119C190.21 232.392 190.13 232.706 190.13 233.062V238H187.71ZM197.668 238.17C196.77 238.17 195.997 237.989 195.35 237.625C194.706 237.258 194.21 236.739 193.861 236.068C193.513 235.394 193.338 234.597 193.338 233.676C193.338 232.778 193.513 231.991 193.861 231.312C194.21 230.634 194.7 230.106 195.333 229.727C195.969 229.348 196.715 229.159 197.571 229.159C198.147 229.159 198.683 229.252 199.179 229.438C199.679 229.619 200.115 229.894 200.486 230.261C200.861 230.629 201.153 231.091 201.361 231.648C201.569 232.201 201.674 232.848 201.674 233.591V234.256H194.304V232.756H199.395C199.395 232.407 199.319 232.098 199.168 231.83C199.016 231.561 198.806 231.35 198.537 231.199C198.272 231.044 197.963 230.966 197.611 230.966C197.244 230.966 196.918 231.051 196.634 231.222C196.353 231.388 196.134 231.614 195.975 231.898C195.816 232.178 195.734 232.491 195.73 232.835V234.261C195.73 234.693 195.81 235.066 195.969 235.381C196.132 235.695 196.361 235.938 196.657 236.108C196.952 236.278 197.302 236.364 197.708 236.364C197.977 236.364 198.223 236.326 198.446 236.25C198.67 236.174 198.861 236.061 199.02 235.909C199.179 235.758 199.3 235.572 199.384 235.352L201.622 235.5C201.509 236.038 201.276 236.508 200.924 236.909C200.575 237.307 200.124 237.617 199.571 237.841C199.022 238.061 198.388 238.17 197.668 238.17ZM207.07 238.17C206.173 238.17 205.4 237.989 204.752 237.625C204.108 237.258 203.612 236.739 203.264 236.068C202.915 235.394 202.741 234.597 202.741 233.676C202.741 232.778 202.915 231.991 203.264 231.312C203.612 230.634 204.103 230.106 204.735 229.727C205.372 229.348 206.118 229.159 206.974 229.159C207.55 229.159 208.086 229.252 208.582 229.438C209.082 229.619 209.517 229.894 209.889 230.261C210.264 230.629 210.555 231.091 210.764 231.648C210.972 232.201 211.076 232.848 211.076 233.591V234.256H203.707V232.756H208.798C208.798 232.407 208.722 232.098 208.57 231.83C208.419 231.561 208.209 231.35 207.94 231.199C207.675 231.044 207.366 230.966 207.014 230.966C206.646 230.966 206.32 231.051 206.036 231.222C205.756 231.388 205.536 231.614 205.377 231.898C205.218 232.178 205.137 232.491 205.133 232.835V234.261C205.133 234.693 205.212 235.066 205.372 235.381C205.534 235.695 205.764 235.938 206.059 236.108C206.354 236.278 206.705 236.364 207.11 236.364C207.379 236.364 207.625 236.326 207.849 236.25C208.072 236.174 208.264 236.061 208.423 235.909C208.582 235.758 208.703 235.572 208.786 235.352L211.025 235.5C210.911 236.038 210.678 236.508 210.326 236.909C209.978 237.307 209.527 237.617 208.974 237.841C208.425 238.061 207.79 238.17 207.07 238.17ZM220.681 229.273V231.091H215.425V229.273H220.681ZM216.618 227.182H219.039V235.318C219.039 235.542 219.073 235.716 219.141 235.841C219.209 235.962 219.304 236.047 219.425 236.097C219.55 236.146 219.694 236.17 219.857 236.17C219.971 236.17 220.084 236.161 220.198 236.142C220.311 236.119 220.399 236.102 220.459 236.091L220.84 237.892C220.719 237.93 220.548 237.973 220.328 238.023C220.109 238.076 219.842 238.108 219.527 238.119C218.944 238.142 218.433 238.064 217.993 237.886C217.558 237.708 217.219 237.432 216.976 237.057C216.734 236.682 216.614 236.208 216.618 235.636V227.182ZM222.097 238V229.273H224.444V230.795H224.535C224.694 230.254 224.961 229.845 225.336 229.568C225.711 229.288 226.143 229.148 226.632 229.148C226.753 229.148 226.883 229.155 227.024 229.17C227.164 229.186 227.287 229.206 227.393 229.233V231.381C227.279 231.347 227.122 231.316 226.921 231.29C226.721 231.263 226.537 231.25 226.37 231.25C226.014 231.25 225.696 231.328 225.416 231.483C225.139 231.634 224.919 231.847 224.757 232.119C224.597 232.392 224.518 232.706 224.518 233.062V238H222.097ZM228.484 238V229.273H230.905V238H228.484ZM229.7 228.148C229.34 228.148 229.032 228.028 228.774 227.79C228.52 227.547 228.393 227.258 228.393 226.92C228.393 226.587 228.52 226.301 228.774 226.062C229.032 225.82 229.34 225.699 229.7 225.699C230.06 225.699 230.367 225.82 230.621 226.062C230.878 226.301 231.007 226.587 231.007 226.92C231.007 227.258 230.878 227.547 230.621 227.79C230.367 228.028 230.06 228.148 229.7 228.148ZM235.172 238.165C234.616 238.165 234.119 238.068 233.684 237.875C233.248 237.678 232.903 237.388 232.65 237.006C232.4 236.619 232.275 236.138 232.275 235.562C232.275 235.078 232.364 234.67 232.542 234.341C232.72 234.011 232.962 233.746 233.269 233.545C233.576 233.345 233.924 233.193 234.314 233.091C234.708 232.989 235.121 232.917 235.553 232.875C236.061 232.822 236.47 232.773 236.78 232.727C237.091 232.678 237.316 232.606 237.456 232.511C237.597 232.417 237.667 232.277 237.667 232.091V232.057C237.667 231.697 237.553 231.419 237.326 231.222C237.102 231.025 236.784 230.926 236.371 230.926C235.936 230.926 235.589 231.023 235.331 231.216C235.074 231.405 234.903 231.644 234.82 231.932L232.581 231.75C232.695 231.22 232.919 230.761 233.252 230.375C233.585 229.985 234.015 229.686 234.542 229.477C235.072 229.265 235.686 229.159 236.383 229.159C236.867 229.159 237.331 229.216 237.775 229.33C238.222 229.443 238.617 229.619 238.962 229.858C239.311 230.097 239.585 230.403 239.786 230.778C239.987 231.15 240.087 231.595 240.087 232.114V238H237.792V236.79H237.724C237.583 237.062 237.396 237.303 237.161 237.511C236.926 237.716 236.644 237.877 236.314 237.994C235.985 238.108 235.604 238.165 235.172 238.165ZM235.866 236.494C236.222 236.494 236.536 236.424 236.809 236.284C237.081 236.14 237.295 235.947 237.451 235.705C237.606 235.462 237.684 235.187 237.684 234.881V233.955C237.608 234.004 237.504 234.049 237.371 234.091C237.242 234.129 237.097 234.165 236.934 234.199C236.771 234.229 236.608 234.258 236.445 234.284C236.282 234.307 236.134 234.328 236.002 234.347C235.718 234.388 235.47 234.455 235.258 234.545C235.045 234.636 234.881 234.759 234.763 234.915C234.646 235.066 234.587 235.256 234.587 235.483C234.587 235.812 234.706 236.064 234.945 236.239C235.188 236.409 235.494 236.494 235.866 236.494ZM244.225 226.364V238H241.805V226.364H244.225Z" fill="#F8A563"/>
<path d="M33.8864 302H32.4091L36.6818 290.364H38.1364L42.4091 302H40.9318L37.4545 292.205H37.3636L33.8864 302ZM34.4318 297.455H40.3864V298.705H34.4318V297.455ZM45.269 302L42.0872 290.364H43.519L45.9508 299.841H46.0644L48.5417 290.364H50.1326L52.6099 299.841H52.7235L55.1553 290.364H56.5872L53.4053 302H51.9508L49.3826 292.727H49.2917L46.7235 302H45.269ZM64.5465 293.273C64.4783 292.697 64.2018 292.25 63.7169 291.932C63.2321 291.614 62.6374 291.455 61.9328 291.455C61.4177 291.455 60.9669 291.538 60.5806 291.705C60.198 291.871 59.8988 292.1 59.6828 292.392C59.4707 292.684 59.3647 293.015 59.3647 293.386C59.3647 293.697 59.4385 293.964 59.5863 294.188C59.7378 294.407 59.9309 294.591 60.1658 294.739C60.4006 294.883 60.6469 295.002 60.9044 295.097C61.162 295.187 61.3988 295.261 61.6147 295.318L62.7965 295.636C63.0995 295.716 63.4366 295.826 63.8078 295.966C64.1828 296.106 64.5408 296.297 64.8817 296.54C65.2264 296.778 65.5105 297.085 65.734 297.46C65.9575 297.835 66.0692 298.295 66.0692 298.841C66.0692 299.47 65.9044 300.038 65.5749 300.545C65.2491 301.053 64.7719 301.456 64.1431 301.756C63.5181 302.055 62.7586 302.205 61.8647 302.205C61.0313 302.205 60.3097 302.07 59.6999 301.801C59.0938 301.532 58.6166 301.157 58.2681 300.676C57.9234 300.195 57.7283 299.636 57.6828 299H59.1374C59.1753 299.439 59.323 299.803 59.5806 300.091C59.8419 300.375 60.1715 300.587 60.5692 300.727C60.9707 300.864 61.4025 300.932 61.8647 300.932C62.4025 300.932 62.8855 300.845 63.3135 300.67C63.7416 300.492 64.0806 300.246 64.3306 299.932C64.5806 299.614 64.7056 299.242 64.7056 298.818C64.7056 298.432 64.5976 298.117 64.3817 297.875C64.1658 297.633 63.8817 297.436 63.5294 297.284C63.1772 297.133 62.7965 297 62.3874 296.886L60.9556 296.477C60.0465 296.216 59.3268 295.843 58.7965 295.358C58.2662 294.873 58.001 294.239 58.001 293.455C58.001 292.803 58.1772 292.235 58.5294 291.75C58.8855 291.261 59.3628 290.883 59.9613 290.614C60.5635 290.341 61.2359 290.205 61.9783 290.205C62.7283 290.205 63.395 290.339 63.9783 290.608C64.5616 290.873 65.0238 291.237 65.3647 291.699C65.7094 292.161 65.8912 292.686 65.9101 293.273H64.5465ZM78.9296 293.273C78.8614 292.697 78.5849 292.25 78.1001 291.932C77.6152 291.614 77.0205 291.455 76.316 291.455C75.8008 291.455 75.3501 291.538 74.9637 291.705C74.5811 291.871 74.2819 292.1 74.066 292.392C73.8538 292.684 73.7478 293.015 73.7478 293.386C73.7478 293.697 73.8216 293.964 73.9694 294.188C74.1209 294.407 74.3141 294.591 74.5489 294.739C74.7838 294.883 75.03 295.002 75.2876 295.097C75.5451 295.187 75.7819 295.261 75.9978 295.318L77.1796 295.636C77.4826 295.716 77.8198 295.826 78.191 295.966C78.566 296.106 78.9239 296.297 79.2648 296.54C79.6095 296.778 79.8936 297.085 80.1171 297.46C80.3406 297.835 80.4523 298.295 80.4523 298.841C80.4523 299.47 80.2876 300.038 79.958 300.545C79.6323 301.053 79.155 301.456 78.5262 301.756C77.9012 302.055 77.1417 302.205 76.2478 302.205C75.4145 302.205 74.6929 302.07 74.083 301.801C73.477 301.532 72.9997 301.157 72.6512 300.676C72.3065 300.195 72.1114 299.636 72.066 299H73.5205C73.5584 299.439 73.7061 299.803 73.9637 300.091C74.2251 300.375 74.5546 300.587 74.9523 300.727C75.3538 300.864 75.7857 300.932 76.2478 300.932C76.7857 300.932 77.2686 300.845 77.6966 300.67C78.1247 300.492 78.4637 300.246 78.7137 299.932C78.9637 299.614 79.0887 299.242 79.0887 298.818C79.0887 298.432 78.9807 298.117 78.7648 297.875C78.5489 297.633 78.2648 297.436 77.9126 297.284C77.5603 297.133 77.1796 297 76.7705 296.886L75.3387 296.477C74.4296 296.216 73.7099 295.843 73.1796 295.358C72.6493 294.873 72.3841 294.239 72.3841 293.455C72.3841 292.803 72.5603 292.235 72.9126 291.75C73.2686 291.261 73.7459 290.883 74.3444 290.614C74.9466 290.341 75.619 290.205 76.3614 290.205C77.1114 290.205 77.7781 290.339 78.3614 290.608C78.9448 290.873 79.4069 291.237 79.7478 291.699C80.0925 292.161 80.2743 292.686 80.2932 293.273H78.9296ZM87.9273 298.432V293.273H89.2682V302H87.9273V300.523H87.8364C87.6318 300.966 87.3136 301.343 86.8818 301.653C86.45 301.96 85.9045 302.114 85.2455 302.114C84.7 302.114 84.2152 301.994 83.7909 301.756C83.3667 301.513 83.0333 301.15 82.7909 300.665C82.5485 300.176 82.4273 299.561 82.4273 298.818V293.273H83.7682V298.727C83.7682 299.364 83.9462 299.871 84.3023 300.25C84.6621 300.629 85.1205 300.818 85.6773 300.818C86.0106 300.818 86.3496 300.733 86.6943 300.562C87.0428 300.392 87.3345 300.131 87.5693 299.778C87.808 299.426 87.9273 298.977 87.9273 298.432ZM91.5641 305.273V293.273H92.8596V294.659H93.0187C93.1172 294.508 93.2535 294.314 93.4278 294.08C93.6058 293.841 93.8596 293.629 94.1891 293.443C94.5225 293.254 94.9732 293.159 95.5414 293.159C96.2763 293.159 96.924 293.343 97.4846 293.71C98.0452 294.078 98.4827 294.598 98.7971 295.273C99.1115 295.947 99.2687 296.742 99.2687 297.659C99.2687 298.583 99.1115 299.384 98.7971 300.062C98.4827 300.737 98.0471 301.259 97.4903 301.631C96.9335 301.998 96.2914 302.182 95.5641 302.182C95.0035 302.182 94.5547 302.089 94.2176 301.903C93.8804 301.714 93.621 301.5 93.4391 301.261C93.2573 301.019 93.1172 300.818 93.0187 300.659H92.9051V305.273H91.5641ZM92.8823 297.636C92.8823 298.295 92.9789 298.877 93.1721 299.381C93.3653 299.881 93.6475 300.273 94.0187 300.557C94.3899 300.837 94.8445 300.977 95.3823 300.977C95.9429 300.977 96.4107 300.83 96.7857 300.534C97.1645 300.235 97.4486 299.833 97.638 299.33C97.8312 298.822 97.9278 298.258 97.9278 297.636C97.9278 297.023 97.8331 296.47 97.6437 295.977C97.4581 295.481 97.1759 295.089 96.7971 294.801C96.4221 294.509 95.9505 294.364 95.3823 294.364C94.8369 294.364 94.3785 294.502 94.0073 294.778C93.6361 295.051 93.3558 295.434 93.1664 295.926C92.977 296.415 92.8823 296.985 92.8823 297.636ZM101.154 305.273V293.273H102.45V294.659H102.609C102.707 294.508 102.844 294.314 103.018 294.08C103.196 293.841 103.45 293.629 103.779 293.443C104.112 293.254 104.563 293.159 105.131 293.159C105.866 293.159 106.514 293.343 107.075 293.71C107.635 294.078 108.073 294.598 108.387 295.273C108.701 295.947 108.859 296.742 108.859 297.659C108.859 298.583 108.701 299.384 108.387 300.062C108.073 300.737 107.637 301.259 107.08 301.631C106.523 301.998 105.881 302.182 105.154 302.182C104.594 302.182 104.145 302.089 103.808 301.903C103.47 301.714 103.211 301.5 103.029 301.261C102.847 301.019 102.707 300.818 102.609 300.659H102.495V305.273H101.154ZM102.472 297.636C102.472 298.295 102.569 298.877 102.762 299.381C102.955 299.881 103.237 300.273 103.609 300.557C103.98 300.837 104.434 300.977 104.972 300.977C105.533 300.977 106.001 300.83 106.376 300.534C106.755 300.235 107.039 299.833 107.228 299.33C107.421 298.822 107.518 298.258 107.518 297.636C107.518 297.023 107.423 296.47 107.234 295.977C107.048 295.481 106.766 295.089 106.387 294.801C106.012 294.509 105.541 294.364 104.972 294.364C104.427 294.364 103.969 294.502 103.597 294.778C103.226 295.051 102.946 295.434 102.756 295.926C102.567 296.415 102.472 296.985 102.472 297.636ZM114.29 302.182C113.502 302.182 112.81 301.994 112.216 301.619C111.625 301.244 111.163 300.72 110.829 300.045C110.5 299.371 110.335 298.583 110.335 297.682C110.335 296.773 110.5 295.979 110.829 295.301C111.163 294.623 111.625 294.097 112.216 293.722C112.81 293.347 113.502 293.159 114.29 293.159C115.077 293.159 115.767 293.347 116.358 293.722C116.952 294.097 117.415 294.623 117.744 295.301C118.077 295.979 118.244 296.773 118.244 297.682C118.244 298.583 118.077 299.371 117.744 300.045C117.415 300.72 116.952 301.244 116.358 301.619C115.767 301.994 115.077 302.182 114.29 302.182ZM114.29 300.977C114.888 300.977 115.381 300.824 115.767 300.517C116.153 300.21 116.439 299.807 116.625 299.307C116.81 298.807 116.903 298.265 116.903 297.682C116.903 297.098 116.81 296.555 116.625 296.051C116.439 295.547 116.153 295.14 115.767 294.83C115.381 294.519 114.888 294.364 114.29 294.364C113.691 294.364 113.199 294.519 112.812 294.83C112.426 295.14 112.14 295.547 111.954 296.051C111.769 296.555 111.676 297.098 111.676 297.682C111.676 298.265 111.769 298.807 111.954 299.307C112.14 299.807 112.426 300.21 112.812 300.517C113.199 300.824 113.691 300.977 114.29 300.977ZM120.131 302V293.273H121.426V294.591H121.517C121.676 294.159 121.964 293.809 122.381 293.54C122.798 293.271 123.267 293.136 123.79 293.136C123.889 293.136 124.012 293.138 124.159 293.142C124.307 293.146 124.419 293.152 124.495 293.159V294.523C124.449 294.511 124.345 294.494 124.182 294.472C124.023 294.445 123.855 294.432 123.676 294.432C123.252 294.432 122.873 294.521 122.54 294.699C122.211 294.873 121.949 295.116 121.756 295.426C121.567 295.733 121.472 296.083 121.472 296.477V302H120.131ZM130.266 293.273V294.409H125.744V293.273H130.266ZM127.062 291.182H128.403V299.5C128.403 299.879 128.458 300.163 128.568 300.352C128.681 300.538 128.825 300.663 128.999 300.727C129.177 300.788 129.365 300.818 129.562 300.818C129.71 300.818 129.831 300.811 129.926 300.795C130.02 300.777 130.096 300.761 130.153 300.75L130.426 301.955C130.335 301.989 130.208 302.023 130.045 302.057C129.882 302.095 129.676 302.114 129.426 302.114C129.047 302.114 128.676 302.032 128.312 301.869C127.952 301.706 127.653 301.458 127.414 301.125C127.179 300.792 127.062 300.371 127.062 299.864V291.182Z" fill="#74828B"/>
<path d="M340 286C334.486 286 330 290.486 330 296C330 301.514 334.486 306 340 306C345.514 306 350 301.514 350 296C350 290.486 345.514 286 340 286ZM338.001 300.413L334.288 296.708L335.7 295.292L337.999 297.587L343.293 292.293L344.707 293.707L338.001 300.413Z" fill="#F8A563"/>
<path d="M41.3636 334C41.2386 333.617 41.0739 333.275 40.8693 332.972C40.6686 332.665 40.428 332.403 40.1477 332.188C39.8712 331.972 39.5568 331.807 39.2045 331.693C38.8523 331.58 38.4659 331.523 38.0455 331.523C37.3561 331.523 36.7292 331.701 36.1648 332.057C35.6004 332.413 35.1515 332.938 34.8182 333.631C34.4848 334.324 34.3182 335.174 34.3182 336.182C34.3182 337.189 34.4867 338.04 34.8239 338.733C35.161 339.426 35.6174 339.951 36.1932 340.307C36.7689 340.663 37.4167 340.841 38.1364 340.841C38.803 340.841 39.3902 340.699 39.8977 340.415C40.4091 340.127 40.8068 339.722 41.0909 339.199C41.3788 338.672 41.5227 338.053 41.5227 337.341L41.9545 337.432H38.4545V336.182H42.8864V337.432C42.8864 338.39 42.6818 339.223 42.2727 339.932C41.8674 340.64 41.3068 341.189 40.5909 341.58C39.8788 341.966 39.0606 342.159 38.1364 342.159C37.1061 342.159 36.2008 341.917 35.4205 341.432C34.6439 340.947 34.0379 340.258 33.6023 339.364C33.1705 338.47 32.9545 337.409 32.9545 336.182C32.9545 335.261 33.0777 334.434 33.3239 333.699C33.5739 332.96 33.9261 332.331 34.3807 331.812C34.8352 331.294 35.3731 330.896 35.9943 330.619C36.6155 330.343 37.2992 330.205 38.0455 330.205C38.6591 330.205 39.2311 330.297 39.7614 330.483C40.2955 330.665 40.7708 330.924 41.1875 331.261C41.608 331.595 41.9583 331.994 42.2386 332.46C42.5189 332.922 42.7121 333.436 42.8182 334H41.3636ZM54.5034 334H53.0943C53.0109 333.595 52.8651 333.239 52.6568 332.932C52.4522 332.625 52.2022 332.367 51.9068 332.159C51.6151 331.947 51.2912 331.788 50.9352 331.682C50.5791 331.576 50.2079 331.523 49.8215 331.523C49.117 331.523 48.4787 331.701 47.9068 332.057C47.3386 332.413 46.8859 332.938 46.5488 333.631C46.2155 334.324 46.0488 335.174 46.0488 336.182C46.0488 337.189 46.2155 338.04 46.5488 338.733C46.8859 339.426 47.3386 339.951 47.9068 340.307C48.4787 340.663 49.117 340.841 49.8215 340.841C50.2079 340.841 50.5791 340.788 50.9352 340.682C51.2912 340.576 51.6151 340.419 51.9068 340.21C52.2022 339.998 52.4522 339.739 52.6568 339.432C52.8651 339.121 53.0109 338.765 53.0943 338.364H54.5034C54.3973 338.958 54.2041 339.491 53.9238 339.96C53.6435 340.43 53.295 340.83 52.8784 341.159C52.4617 341.485 51.9939 341.733 51.4749 341.903C50.9598 342.074 50.4087 342.159 49.8215 342.159C48.8291 342.159 47.9465 341.917 47.1738 341.432C46.4011 340.947 45.7931 340.258 45.3499 339.364C44.9068 338.47 44.6852 337.409 44.6852 336.182C44.6852 334.955 44.9068 333.894 45.3499 333C45.7931 332.106 46.4011 331.417 47.1738 330.932C47.9465 330.447 48.8291 330.205 49.8215 330.205C50.4087 330.205 50.9598 330.29 51.4749 330.46C51.9939 330.631 52.4617 330.881 52.8784 331.21C53.295 331.536 53.6435 331.934 53.9238 332.403C54.2041 332.869 54.3973 333.402 54.5034 334ZM56.6203 342V330.364H60.5522C61.465 330.364 62.2113 330.528 62.7908 330.858C63.3741 331.184 63.8059 331.625 64.0863 332.182C64.3666 332.739 64.5067 333.36 64.5067 334.045C64.5067 334.731 64.3666 335.354 64.0863 335.915C63.8097 336.475 63.3817 336.922 62.8022 337.256C62.2226 337.585 61.4802 337.75 60.5749 337.75H57.7567V336.5H60.5294C61.1544 336.5 61.6563 336.392 62.0351 336.176C62.4139 335.96 62.6885 335.669 62.859 335.301C63.0332 334.93 63.1203 334.511 63.1203 334.045C63.1203 333.58 63.0332 333.163 62.859 332.795C62.6885 332.428 62.412 332.14 62.0294 331.932C61.6469 331.72 61.1393 331.614 60.5067 331.614H58.0294V342H56.6203ZM77.3202 333.273C77.252 332.697 76.9755 332.25 76.4907 331.932C76.0058 331.614 75.4111 331.455 74.7066 331.455C74.1914 331.455 73.7407 331.538 73.3543 331.705C72.9717 331.871 72.6725 332.1 72.4566 332.392C72.2445 332.684 72.1384 333.015 72.1384 333.386C72.1384 333.697 72.2123 333.964 72.36 334.188C72.5115 334.407 72.7047 334.591 72.9395 334.739C73.1744 334.883 73.4206 335.002 73.6782 335.097C73.9358 335.187 74.1725 335.261 74.3884 335.318L75.5702 335.636C75.8733 335.716 76.2104 335.826 76.5816 335.966C76.9566 336.106 77.3145 336.297 77.6555 336.54C78.0002 336.778 78.2842 337.085 78.5077 337.46C78.7312 337.835 78.843 338.295 78.843 338.841C78.843 339.47 78.6782 340.038 78.3486 340.545C78.0229 341.053 77.5456 341.456 76.9168 341.756C76.2918 342.055 75.5323 342.205 74.6384 342.205C73.8051 342.205 73.0835 342.07 72.4736 341.801C71.8676 341.532 71.3903 341.157 71.0418 340.676C70.6971 340.195 70.502 339.636 70.4566 339H71.9111C71.949 339.439 72.0967 339.803 72.3543 340.091C72.6157 340.375 72.9452 340.587 73.343 340.727C73.7445 340.864 74.1763 340.932 74.6384 340.932C75.1763 340.932 75.6592 340.845 76.0873 340.67C76.5153 340.492 76.8543 340.246 77.1043 339.932C77.3543 339.614 77.4793 339.242 77.4793 338.818C77.4793 338.432 77.3714 338.117 77.1555 337.875C76.9395 337.633 76.6555 337.436 76.3032 337.284C75.9509 337.133 75.5702 337 75.1611 336.886L73.7293 336.477C72.8202 336.216 72.1005 335.843 71.5702 335.358C71.0399 334.873 70.7748 334.239 70.7748 333.455C70.7748 332.803 70.9509 332.235 71.3032 331.75C71.6592 331.261 72.1365 330.883 72.735 330.614C73.3373 330.341 74.0096 330.205 74.752 330.205C75.502 330.205 76.1687 330.339 76.752 330.608C77.3354 330.873 77.7975 331.237 78.1384 331.699C78.4831 332.161 78.6649 332.686 78.6839 333.273H77.3202ZM86.3179 338.432V333.273H87.6588V342H86.3179V340.523H86.227C86.0224 340.966 85.7043 341.343 85.2724 341.653C84.8406 341.96 84.2952 342.114 83.6361 342.114C83.0906 342.114 82.6058 341.994 82.1815 341.756C81.7573 341.513 81.424 341.15 81.1815 340.665C80.9391 340.176 80.8179 339.561 80.8179 338.818V333.273H82.1588V338.727C82.1588 339.364 82.3368 339.871 82.6929 340.25C83.0527 340.629 83.5111 340.818 84.0679 340.818C84.4012 340.818 84.7402 340.733 85.0849 340.562C85.4334 340.392 85.7251 340.131 85.9599 339.778C86.1986 339.426 86.3179 338.977 86.3179 338.432ZM89.9548 345.273V333.273H91.2502V334.659H91.4093C91.5078 334.508 91.6442 334.314 91.8184 334.08C91.9964 333.841 92.2502 333.629 92.5798 333.443C92.9131 333.254 93.3639 333.159 93.932 333.159C94.6669 333.159 95.3146 333.343 95.8752 333.71C96.4358 334.078 96.8733 334.598 97.1877 335.273C97.5021 335.947 97.6593 336.742 97.6593 337.659C97.6593 338.583 97.5021 339.384 97.1877 340.062C96.8733 340.737 96.4377 341.259 95.8809 341.631C95.3241 341.998 94.682 342.182 93.9548 342.182C93.3942 342.182 92.9453 342.089 92.6082 341.903C92.2711 341.714 92.0116 341.5 91.8298 341.261C91.648 341.019 91.5078 340.818 91.4093 340.659H91.2957V345.273H89.9548ZM91.273 337.636C91.273 338.295 91.3695 338.877 91.5627 339.381C91.7559 339.881 92.0381 340.273 92.4093 340.557C92.7805 340.837 93.2351 340.977 93.773 340.977C94.3336 340.977 94.8014 340.83 95.1764 340.534C95.5552 340.235 95.8392 339.833 96.0286 339.33C96.2218 338.822 96.3184 338.258 96.3184 337.636C96.3184 337.023 96.2237 336.47 96.0343 335.977C95.8487 335.481 95.5665 335.089 95.1877 334.801C94.8127 334.509 94.3411 334.364 93.773 334.364C93.2275 334.364 92.7692 334.502 92.398 334.778C92.0267 335.051 91.7464 335.434 91.557 335.926C91.3677 336.415 91.273 336.985 91.273 337.636ZM99.5448 345.273V333.273H100.84V334.659H100.999C101.098 334.508 101.234 334.314 101.408 334.08C101.586 333.841 101.84 333.629 102.17 333.443C102.503 333.254 102.954 333.159 103.522 333.159C104.257 333.159 104.905 333.343 105.465 333.71C106.026 334.078 106.463 334.598 106.778 335.273C107.092 335.947 107.249 336.742 107.249 337.659C107.249 338.583 107.092 339.384 106.778 340.062C106.463 340.737 106.028 341.259 105.471 341.631C104.914 341.998 104.272 342.182 103.545 342.182C102.984 342.182 102.535 342.089 102.198 341.903C101.861 341.714 101.602 341.5 101.42 341.261C101.238 341.019 101.098 340.818 100.999 340.659H100.886V345.273H99.5448ZM100.863 337.636C100.863 338.295 100.96 338.877 101.153 339.381C101.346 339.881 101.628 340.273 101.999 340.557C102.371 340.837 102.825 340.977 103.363 340.977C103.924 340.977 104.391 340.83 104.766 340.534C105.145 340.235 105.429 339.833 105.619 339.33C105.812 338.822 105.908 338.258 105.908 337.636C105.908 337.023 105.814 336.47 105.624 335.977C105.439 335.481 105.157 335.089 104.778 334.801C104.403 334.509 103.931 334.364 103.363 334.364C102.817 334.364 102.359 334.502 101.988 334.778C101.617 335.051 101.336 335.434 101.147 335.926C100.958 336.415 100.863 336.985 100.863 337.636ZM112.68 342.182C111.892 342.182 111.201 341.994 110.606 341.619C110.015 341.244 109.553 340.72 109.22 340.045C108.89 339.371 108.726 338.583 108.726 337.682C108.726 336.773 108.89 335.979 109.22 335.301C109.553 334.623 110.015 334.097 110.606 333.722C111.201 333.347 111.892 333.159 112.68 333.159C113.468 333.159 114.158 333.347 114.748 333.722C115.343 334.097 115.805 334.623 116.135 335.301C116.468 335.979 116.635 336.773 116.635 337.682C116.635 338.583 116.468 339.371 116.135 340.045C115.805 340.72 115.343 341.244 114.748 341.619C114.158 341.994 113.468 342.182 112.68 342.182ZM112.68 340.977C113.279 340.977 113.771 340.824 114.158 340.517C114.544 340.21 114.83 339.807 115.015 339.307C115.201 338.807 115.294 338.265 115.294 337.682C115.294 337.098 115.201 336.555 115.015 336.051C114.83 335.547 114.544 335.14 114.158 334.83C113.771 334.519 113.279 334.364 112.68 334.364C112.082 334.364 111.589 334.519 111.203 334.83C110.817 335.14 110.531 335.547 110.345 336.051C110.159 336.555 110.067 337.098 110.067 337.682C110.067 338.265 110.159 338.807 110.345 339.307C110.531 339.807 110.817 340.21 111.203 340.517C111.589 340.824 112.082 340.977 112.68 340.977ZM118.522 342V333.273H119.817V334.591H119.908C120.067 334.159 120.355 333.809 120.772 333.54C121.188 333.271 121.658 333.136 122.181 333.136C122.279 333.136 122.402 333.138 122.55 333.142C122.698 333.146 122.81 333.152 122.885 333.159V334.523C122.84 334.511 122.736 334.494 122.573 334.472C122.414 334.445 122.245 334.432 122.067 334.432C121.643 334.432 121.264 334.521 120.931 334.699C120.601 334.873 120.34 335.116 120.147 335.426C119.957 335.733 119.863 336.083 119.863 336.477V342H118.522ZM128.657 333.273V334.409H124.134V333.273H128.657ZM125.453 331.182H126.793V339.5C126.793 339.879 126.848 340.163 126.958 340.352C127.072 340.538 127.216 340.663 127.39 340.727C127.568 340.788 127.756 340.818 127.953 340.818C128.1 340.818 128.221 340.811 128.316 340.795C128.411 340.777 128.487 340.761 128.543 340.75L128.816 341.955C128.725 341.989 128.598 342.023 128.436 342.057C128.273 342.095 128.066 342.114 127.816 342.114C127.437 342.114 127.066 342.032 126.703 341.869C126.343 341.706 126.043 341.458 125.805 341.125C125.57 340.792 125.453 340.371 125.453 339.864V331.182Z" fill="#74828B"/>
<path d="M340 326C334.486 326 330 330.486 330 336C330 341.514 334.486 346 340 346C345.514 346 350 341.514 350 336C350 330.486 345.514 326 340 326ZM338.001 340.413L334.288 336.708L335.7 335.292L337.999 337.587L343.293 332.293L344.707 333.707L338.001 340.413Z" fill="#F8A563"/>
<path d="M33.4091 382V370.364H40.3864V371.614H34.8182V375.545H39.8636V376.795H34.8182V382H33.4091ZM45.0261 382.205C44.473 382.205 43.9712 382.1 43.5204 381.892C43.0696 381.68 42.7117 381.375 42.4465 380.977C42.1814 380.576 42.0488 380.091 42.0488 379.523C42.0488 379.023 42.1473 378.617 42.3443 378.307C42.5412 377.992 42.8045 377.746 43.134 377.568C43.4636 377.39 43.8272 377.258 44.2249 377.17C44.6265 377.08 45.0299 377.008 45.4352 376.955C45.9655 376.886 46.3954 376.835 46.7249 376.801C47.0583 376.763 47.3007 376.701 47.4522 376.614C47.6075 376.527 47.6852 376.375 47.6852 376.159V376.114C47.6852 375.553 47.5318 375.117 47.2249 374.807C46.9219 374.496 46.4617 374.341 45.8443 374.341C45.2041 374.341 44.7022 374.481 44.3386 374.761C43.9749 375.042 43.7193 375.341 43.5715 375.659L42.2988 375.205C42.5261 374.674 42.8291 374.261 43.2079 373.966C43.5905 373.667 44.0071 373.458 44.4579 373.341C44.9124 373.22 45.3594 373.159 45.7988 373.159C46.0791 373.159 46.4011 373.193 46.7647 373.261C47.1321 373.326 47.4863 373.46 47.8272 373.665C48.1719 373.869 48.4579 374.178 48.6852 374.591C48.9124 375.004 49.0261 375.557 49.0261 376.25V382H47.6852V380.818H47.617C47.5261 381.008 47.3746 381.21 47.1624 381.426C46.9503 381.642 46.6681 381.826 46.3159 381.977C45.9636 382.129 45.5337 382.205 45.0261 382.205ZM45.2306 381C45.7609 381 46.2079 380.896 46.5715 380.688C46.939 380.479 47.2155 380.21 47.4011 379.881C47.5905 379.551 47.6852 379.205 47.6852 378.841V377.614C47.6284 377.682 47.5034 377.744 47.3102 377.801C47.1208 377.854 46.9011 377.902 46.6511 377.943C46.4049 377.981 46.1643 378.015 45.9295 378.045C45.6984 378.072 45.5109 378.095 45.367 378.114C45.0185 378.159 44.6927 378.233 44.3897 378.335C44.0905 378.434 43.848 378.583 43.6624 378.784C43.4806 378.981 43.3897 379.25 43.3897 379.591C43.3897 380.057 43.5621 380.409 43.9068 380.648C44.2552 380.883 44.6965 381 45.2306 381ZM57.4953 375.227L56.2908 375.568C56.215 375.367 56.1033 375.172 55.9556 374.983C55.8116 374.79 55.6147 374.631 55.3647 374.506C55.1147 374.381 54.7946 374.318 54.4044 374.318C53.8703 374.318 53.4253 374.441 53.0692 374.688C52.7169 374.93 52.5408 375.239 52.5408 375.614C52.5408 375.947 52.662 376.21 52.9044 376.403C53.1469 376.597 53.5256 376.758 54.0408 376.886L55.3363 377.205C56.1166 377.394 56.698 377.684 57.0806 378.074C57.4631 378.46 57.6544 378.958 57.6544 379.568C57.6544 380.068 57.5105 380.515 57.2226 380.909C56.9385 381.303 56.5408 381.614 56.0294 381.841C55.5181 382.068 54.9234 382.182 54.2453 382.182C53.3552 382.182 52.6184 381.989 52.0351 381.602C51.4518 381.216 51.0825 380.652 50.9272 379.909L52.1999 379.591C52.3211 380.061 52.5503 380.413 52.8874 380.648C53.2283 380.883 53.6734 381 54.2226 381C54.8476 381 55.3438 380.867 55.7113 380.602C56.0825 380.333 56.2681 380.011 56.2681 379.636C56.2681 379.333 56.162 379.08 55.9499 378.875C55.7378 378.667 55.412 378.511 54.9726 378.409L53.5181 378.068C52.7188 377.879 52.1317 377.585 51.7567 377.188C51.3855 376.786 51.1999 376.284 51.1999 375.682C51.1999 375.189 51.3381 374.754 51.6147 374.375C51.895 373.996 52.2756 373.699 52.7567 373.483C53.2416 373.267 53.7908 373.159 54.4044 373.159C55.2681 373.159 55.9461 373.348 56.4385 373.727C56.9347 374.106 57.287 374.606 57.4953 375.227ZM63.3084 373.273V374.409H58.7856V373.273H63.3084ZM60.1038 371.182H61.4447V379.5C61.4447 379.879 61.4996 380.163 61.6095 380.352C61.7231 380.538 61.8671 380.663 62.0413 380.727C62.2193 380.788 62.4068 380.818 62.6038 380.818C62.7515 380.818 62.8727 380.811 62.9674 380.795C63.0621 380.777 63.1379 380.761 63.1947 380.75L63.4674 381.955C63.3765 381.989 63.2496 382.023 63.0868 382.057C62.9239 382.095 62.7174 382.114 62.4674 382.114C62.0887 382.114 61.7174 382.032 61.3538 381.869C60.994 381.706 60.6947 381.458 60.4561 381.125C60.2212 380.792 60.1038 380.371 60.1038 379.864V371.182ZM66.6938 370.364V382H65.3529V370.364H66.6938ZM69.8534 385.273C69.6261 385.273 69.4235 385.254 69.2455 385.216C69.0674 385.182 68.9443 385.148 68.8761 385.114L69.217 383.932C69.5428 384.015 69.8307 384.045 70.0807 384.023C70.3307 384 70.5523 383.888 70.7455 383.688C70.9424 383.491 71.1223 383.17 71.2852 382.727L71.5352 382.045L68.308 373.273H69.7625L72.1716 380.227H72.2625L74.6716 373.273H76.1261L72.4216 383.273C72.2549 383.723 72.0485 384.097 71.8023 384.392C71.5561 384.691 71.2701 384.913 70.9443 385.057C70.6223 385.201 70.2587 385.273 69.8534 385.273ZM88.6215 373.273C88.5533 372.697 88.2768 372.25 87.7919 371.932C87.3071 371.614 86.7124 371.455 86.0078 371.455C85.4927 371.455 85.0419 371.538 84.6556 371.705C84.273 371.871 83.9738 372.1 83.7578 372.392C83.5457 372.684 83.4397 373.015 83.4397 373.386C83.4397 373.697 83.5135 373.964 83.6613 374.188C83.8128 374.407 84.0059 374.591 84.2408 374.739C84.4756 374.883 84.7219 375.002 84.9794 375.097C85.237 375.187 85.4738 375.261 85.6897 375.318L86.8715 375.636C87.1745 375.716 87.5116 375.826 87.8828 375.966C88.2578 376.106 88.6158 376.297 88.9567 376.54C89.3014 376.778 89.5855 377.085 89.809 377.46C90.0325 377.835 90.1442 378.295 90.1442 378.841C90.1442 379.47 89.9794 380.038 89.6499 380.545C89.3241 381.053 88.8469 381.456 88.2181 381.756C87.5931 382.055 86.8336 382.205 85.9397 382.205C85.1063 382.205 84.3847 382.07 83.7749 381.801C83.1688 381.532 82.6916 381.157 82.3431 380.676C81.9984 380.195 81.8033 379.636 81.7578 379H83.2124C83.2503 379.439 83.398 379.803 83.6556 380.091C83.9169 380.375 84.2465 380.587 84.6442 380.727C85.0457 380.864 85.4775 380.932 85.9397 380.932C86.4775 380.932 86.9605 380.845 87.3885 380.67C87.8166 380.492 88.1556 380.246 88.4056 379.932C88.6556 379.614 88.7806 379.242 88.7806 378.818C88.7806 378.432 88.6726 378.117 88.4567 377.875C88.2408 377.633 87.9567 377.436 87.6044 377.284C87.2522 377.133 86.8715 377 86.4624 376.886L85.0306 376.477C84.1215 376.216 83.4018 375.843 82.8715 375.358C82.3412 374.873 82.076 374.239 82.076 373.455C82.076 372.803 82.2522 372.235 82.6044 371.75C82.9605 371.261 83.4378 370.883 84.0363 370.614C84.6385 370.341 85.3109 370.205 86.0533 370.205C86.8033 370.205 87.47 370.339 88.0533 370.608C88.6366 370.873 89.0988 371.237 89.4397 371.699C89.7844 372.161 89.9662 372.686 89.9851 373.273H88.6215ZM97.6191 378.432V373.273H98.9601V382H97.6191V380.523H97.5282C97.3237 380.966 97.0055 381.343 96.5737 381.653C96.1419 381.96 95.5964 382.114 94.9373 382.114C94.3919 382.114 93.907 381.994 93.4828 381.756C93.0585 381.513 92.7252 381.15 92.4828 380.665C92.2404 380.176 92.1191 379.561 92.1191 378.818V373.273H93.4601V378.727C93.4601 379.364 93.6381 379.871 93.9941 380.25C94.354 380.629 94.8123 380.818 95.3691 380.818C95.7025 380.818 96.0415 380.733 96.3862 380.562C96.7347 380.392 97.0263 380.131 97.2612 379.778C97.4998 379.426 97.6191 378.977 97.6191 378.432ZM101.256 385.273V373.273H102.551V374.659H102.711C102.809 374.508 102.945 374.314 103.12 374.08C103.298 373.841 103.551 373.629 103.881 373.443C104.214 373.254 104.665 373.159 105.233 373.159C105.968 373.159 106.616 373.343 107.176 373.71C107.737 374.078 108.175 374.598 108.489 375.273C108.803 375.947 108.961 376.742 108.961 377.659C108.961 378.583 108.803 379.384 108.489 380.062C108.175 380.737 107.739 381.259 107.182 381.631C106.625 381.998 105.983 382.182 105.256 382.182C104.695 382.182 104.247 382.089 103.909 381.903C103.572 381.714 103.313 381.5 103.131 381.261C102.949 381.019 102.809 380.818 102.711 380.659H102.597V385.273H101.256ZM102.574 377.636C102.574 378.295 102.671 378.877 102.864 379.381C103.057 379.881 103.339 380.273 103.711 380.557C104.082 380.837 104.536 380.977 105.074 380.977C105.635 380.977 106.103 380.83 106.478 380.534C106.856 380.235 107.14 379.833 107.33 379.33C107.523 378.822 107.62 378.258 107.62 377.636C107.62 377.023 107.525 376.47 107.336 375.977C107.15 375.481 106.868 375.089 106.489 374.801C106.114 374.509 105.642 374.364 105.074 374.364C104.529 374.364 104.07 374.502 103.699 374.778C103.328 375.051 103.048 375.434 102.858 375.926C102.669 376.415 102.574 376.985 102.574 377.636ZM110.846 385.273V373.273H112.141V374.659H112.301C112.399 374.508 112.535 374.314 112.71 374.08C112.888 373.841 113.141 373.629 113.471 373.443C113.804 373.254 114.255 373.159 114.823 373.159C115.558 373.159 116.206 373.343 116.766 373.71C117.327 374.078 117.765 374.598 118.079 375.273C118.393 375.947 118.551 376.742 118.551 377.659C118.551 378.583 118.393 379.384 118.079 380.062C117.765 380.737 117.329 381.259 116.772 381.631C116.215 381.998 115.573 382.182 114.846 382.182C114.285 382.182 113.837 382.089 113.499 381.903C113.162 381.714 112.903 381.5 112.721 381.261C112.539 381.019 112.399 380.818 112.301 380.659H112.187V385.273H110.846ZM112.164 377.636C112.164 378.295 112.261 378.877 112.454 379.381C112.647 379.881 112.929 380.273 113.301 380.557C113.672 380.837 114.126 380.977 114.664 380.977C115.225 380.977 115.693 380.83 116.068 380.534C116.446 380.235 116.73 379.833 116.92 379.33C117.113 378.822 117.21 378.258 117.21 377.636C117.21 377.023 117.115 376.47 116.926 375.977C116.74 375.481 116.458 375.089 116.079 374.801C115.704 374.509 115.232 374.364 114.664 374.364C114.119 374.364 113.66 374.502 113.289 374.778C112.918 375.051 112.638 375.434 112.448 375.926C112.259 376.415 112.164 376.985 112.164 377.636ZM123.981 382.182C123.194 382.182 122.502 381.994 121.908 381.619C121.317 381.244 120.855 380.72 120.521 380.045C120.192 379.371 120.027 378.583 120.027 377.682C120.027 376.773 120.192 375.979 120.521 375.301C120.855 374.623 121.317 374.097 121.908 373.722C122.502 373.347 123.194 373.159 123.981 373.159C124.769 373.159 125.459 373.347 126.05 373.722C126.644 374.097 127.106 374.623 127.436 375.301C127.769 375.979 127.936 376.773 127.936 377.682C127.936 378.583 127.769 379.371 127.436 380.045C127.106 380.72 126.644 381.244 126.05 381.619C125.459 381.994 124.769 382.182 123.981 382.182ZM123.981 380.977C124.58 380.977 125.072 380.824 125.459 380.517C125.845 380.21 126.131 379.807 126.317 379.307C126.502 378.807 126.595 378.265 126.595 377.682C126.595 377.098 126.502 376.555 126.317 376.051C126.131 375.547 125.845 375.14 125.459 374.83C125.072 374.519 124.58 374.364 123.981 374.364C123.383 374.364 122.891 374.519 122.504 374.83C122.118 375.14 121.832 375.547 121.646 376.051C121.461 376.555 121.368 377.098 121.368 377.682C121.368 378.265 121.461 378.807 121.646 379.307C121.832 379.807 122.118 380.21 122.504 380.517C122.891 380.824 123.383 380.977 123.981 380.977ZM129.823 382V373.273H131.118V374.591H131.209C131.368 374.159 131.656 373.809 132.073 373.54C132.49 373.271 132.959 373.136 133.482 373.136C133.58 373.136 133.704 373.138 133.851 373.142C133.999 373.146 134.111 373.152 134.187 373.159V374.523C134.141 374.511 134.037 374.494 133.874 374.472C133.715 374.445 133.546 374.432 133.368 374.432C132.944 374.432 132.565 374.521 132.232 374.699C131.902 374.873 131.641 375.116 131.448 375.426C131.259 375.733 131.164 376.083 131.164 376.477V382H129.823ZM139.958 373.273V374.409H135.436V373.273H139.958ZM136.754 371.182H138.095V379.5C138.095 379.879 138.15 380.163 138.259 380.352C138.373 380.538 138.517 380.663 138.691 380.727C138.869 380.788 139.057 380.818 139.254 380.818C139.402 380.818 139.523 380.811 139.617 380.795C139.712 380.777 139.788 380.761 139.845 380.75L140.117 381.955C140.027 381.989 139.9 382.023 139.737 382.057C139.574 382.095 139.367 382.114 139.117 382.114C138.739 382.114 138.367 382.032 138.004 381.869C137.644 381.706 137.345 381.458 137.106 381.125C136.871 380.792 136.754 380.371 136.754 379.864V371.182Z" fill="#74828B"/>
<path d="M340 366C334.486 366 330 370.486 330 376C330 381.514 334.486 386 340 386C345.514 386 350 381.514 350 376C350 370.486 345.514 366 340 366ZM338.001 380.413L334.288 376.708L335.7 375.292L337.999 377.587L343.293 372.293L344.707 373.707L338.001 380.413Z" fill="#F8A563"/>
<path d="M33.8864 422H32.4091L36.6818 410.364H38.1364L42.4091 422H40.9318L37.4545 412.205H37.3636L33.8864 422ZM34.4318 417.455H40.3864V418.705H34.4318V417.455ZM49.3798 418.432V413.273H50.7207V422H49.3798V420.523H49.2889C49.0843 420.966 48.7661 421.343 48.3343 421.653C47.9025 421.96 47.357 422.114 46.698 422.114C46.1525 422.114 45.6677 421.994 45.2434 421.756C44.8192 421.513 44.4858 421.15 44.2434 420.665C44.001 420.176 43.8798 419.561 43.8798 418.818V413.273H45.2207V418.727C45.2207 419.364 45.3987 419.871 45.7548 420.25C46.1146 420.629 46.573 420.818 47.1298 420.818C47.4631 420.818 47.8021 420.733 48.1468 420.562C48.4953 420.392 48.787 420.131 49.0218 419.778C49.2605 419.426 49.3798 418.977 49.3798 418.432ZM56.8121 413.273V414.409H52.2894V413.273H56.8121ZM53.6076 411.182H54.9485V419.5C54.9485 419.879 55.0034 420.163 55.1132 420.352C55.2269 420.538 55.3708 420.663 55.5451 420.727C55.7231 420.788 55.9106 420.818 56.1076 420.818C56.2553 420.818 56.3765 420.811 56.4712 420.795C56.5659 420.777 56.6416 420.761 56.6985 420.75L56.9712 421.955C56.8803 421.989 56.7534 422.023 56.5905 422.057C56.4276 422.095 56.2212 422.114 55.9712 422.114C55.5924 422.114 55.2212 422.032 54.8576 421.869C54.4977 421.706 54.1985 421.458 53.9598 421.125C53.725 420.792 53.6076 420.371 53.6076 419.864V411.182ZM62.1209 422.182C61.333 422.182 60.6417 421.994 60.047 421.619C59.4561 421.244 58.994 420.72 58.6606 420.045C58.3311 419.371 58.1663 418.583 58.1663 417.682C58.1663 416.773 58.3311 415.979 58.6606 415.301C58.994 414.623 59.4561 414.097 60.047 413.722C60.6417 413.347 61.333 413.159 62.1209 413.159C62.9087 413.159 63.5981 413.347 64.189 413.722C64.7837 414.097 65.2459 414.623 65.5754 415.301C65.9087 415.979 66.0754 416.773 66.0754 417.682C66.0754 418.583 65.9087 419.371 65.5754 420.045C65.2459 420.72 64.7837 421.244 64.189 421.619C63.5981 421.994 62.9087 422.182 62.1209 422.182ZM62.1209 420.977C62.7193 420.977 63.2118 420.824 63.5981 420.517C63.9845 420.21 64.2705 419.807 64.4561 419.307C64.6417 418.807 64.7345 418.265 64.7345 417.682C64.7345 417.098 64.6417 416.555 64.4561 416.051C64.2705 415.547 63.9845 415.14 63.5981 414.83C63.2118 414.519 62.7193 414.364 62.1209 414.364C61.5224 414.364 61.0299 414.519 60.6436 414.83C60.2572 415.14 59.9712 415.547 59.7856 416.051C59.6 416.555 59.5072 417.098 59.5072 417.682C59.5072 418.265 59.6 418.807 59.7856 419.307C59.9712 419.807 60.2572 420.21 60.6436 420.517C61.0299 420.824 61.5224 420.977 62.1209 420.977ZM67.9623 425.273V413.273H69.2577V414.659H69.4168C69.5153 414.508 69.6517 414.314 69.8259 414.08C70.0039 413.841 70.2577 413.629 70.5873 413.443C70.9206 413.254 71.3714 413.159 71.9395 413.159C72.6744 413.159 73.3221 413.343 73.8827 413.71C74.4433 414.078 74.8808 414.598 75.1952 415.273C75.5096 415.947 75.6668 416.742 75.6668 417.659C75.6668 418.583 75.5096 419.384 75.1952 420.062C74.8808 420.737 74.4452 421.259 73.8884 421.631C73.3316 421.998 72.6895 422.182 71.9623 422.182C71.4017 422.182 70.9528 422.089 70.6157 421.903C70.2786 421.714 70.0191 421.5 69.8373 421.261C69.6555 421.019 69.5153 420.818 69.4168 420.659H69.3032V425.273H67.9623ZM69.2805 417.636C69.2805 418.295 69.377 418.877 69.5702 419.381C69.7634 419.881 70.0456 420.273 70.4168 420.557C70.788 420.837 71.2426 420.977 71.7805 420.977C72.3411 420.977 72.8089 420.83 73.1839 420.534C73.5627 420.235 73.8467 419.833 74.0361 419.33C74.2293 418.822 74.3259 418.258 74.3259 417.636C74.3259 417.023 74.2312 416.47 74.0418 415.977C73.8562 415.481 73.574 415.089 73.1952 414.801C72.8202 414.509 72.3486 414.364 71.7805 414.364C71.235 414.364 70.7767 414.502 70.4055 414.778C70.0342 415.051 69.7539 415.434 69.5645 415.926C69.3752 416.415 69.2805 416.985 69.2805 417.636ZM77.5523 422V413.273H78.8932V422H77.5523ZM78.2341 411.818C77.9727 411.818 77.7473 411.729 77.558 411.551C77.3723 411.373 77.2795 411.159 77.2795 410.909C77.2795 410.659 77.3723 410.445 77.558 410.267C77.7473 410.089 77.9727 410 78.2341 410C78.4955 410 78.7189 410.089 78.9045 410.267C79.0939 410.445 79.1886 410.659 79.1886 410.909C79.1886 411.159 79.0939 411.373 78.9045 411.551C78.7189 411.729 78.4955 411.818 78.2341 411.818ZM82.5301 410.364V422H81.1891V410.364H82.5301ZM88.3715 422.182C87.5836 422.182 86.8923 421.994 86.2976 421.619C85.7067 421.244 85.2446 420.72 84.9113 420.045C84.5817 419.371 84.4169 418.583 84.4169 417.682C84.4169 416.773 84.5817 415.979 84.9113 415.301C85.2446 414.623 85.7067 414.097 86.2976 413.722C86.8923 413.347 87.5836 413.159 88.3715 413.159C89.1594 413.159 89.8488 413.347 90.4397 413.722C91.0344 414.097 91.4965 414.623 91.826 415.301C92.1594 415.979 92.326 416.773 92.326 417.682C92.326 418.583 92.1594 419.371 91.826 420.045C91.4965 420.72 91.0344 421.244 90.4397 421.619C89.8488 421.994 89.1594 422.182 88.3715 422.182ZM88.3715 420.977C88.97 420.977 89.4624 420.824 89.8488 420.517C90.2351 420.21 90.5211 419.807 90.7067 419.307C90.8923 418.807 90.9851 418.265 90.9851 417.682C90.9851 417.098 90.8923 416.555 90.7067 416.051C90.5211 415.547 90.2351 415.14 89.8488 414.83C89.4624 414.519 88.97 414.364 88.3715 414.364C87.773 414.364 87.2806 414.519 86.8942 414.83C86.5078 415.14 86.2219 415.547 86.0363 416.051C85.8506 416.555 85.7578 417.098 85.7578 417.682C85.7578 418.265 85.8506 418.807 86.0363 419.307C86.2219 419.807 86.5078 420.21 86.8942 420.517C87.2806 420.824 87.773 420.977 88.3715 420.977ZM98.0084 413.273V414.409H93.4856V413.273H98.0084ZM94.8038 411.182H96.1447V419.5C96.1447 419.879 96.1996 420.163 96.3095 420.352C96.4231 420.538 96.5671 420.663 96.7413 420.727C96.9193 420.788 97.1068 420.818 97.3038 420.818C97.4515 420.818 97.5727 420.811 97.6674 420.795C97.7621 420.777 97.8379 420.761 97.8947 420.75L98.1674 421.955C98.0765 421.989 97.9496 422.023 97.7868 422.057C97.6239 422.095 97.4174 422.114 97.1674 422.114C96.7887 422.114 96.4174 422.032 96.0538 421.869C95.694 421.706 95.3947 421.458 95.1561 421.125C94.9212 420.792 94.8038 420.371 94.8038 419.864V411.182Z" fill="#74828B"/>
<path d="M340 406C334.486 406 330 410.486 330 416C330 421.514 334.486 426 340 426C345.514 426 350 421.514 350 416C350 410.486 345.514 406 340 406ZM338.001 420.413L334.288 416.708L335.7 415.292L337.999 417.587L343.293 412.293L344.707 413.707L338.001 420.413Z" fill="#F8A563"/>
<line x1="32" y1="435.5" x2="352" y2="435.5" stroke="#191C24"/>
</svg>
