<svg width="1440" height="1180" viewBox="0 0 1440 1180" fill="none" xmlns="http://www.w3.org/2000/svg">
<mask id="mask0_1011_30" style="mask-type:alpha" maskUnits="userSpaceOnUse" x="0" y="0" width="1440" height="1224">
<rect width="1440" height="1224" fill="white"/>
</mask>
<g mask="url(#mask0_1011_30)">
<g filter="url(#filter0_f_1011_30)">
<path d="M1328 788.39C1328 706.426 1312.27 625.265 1281.72 549.541C1251.16 473.817 1206.38 405.012 1149.92 347.055C1093.46 289.098 1026.44 243.124 952.672 211.758C878.906 180.392 799.844 164.248 720 164.248C640.156 164.248 561.094 180.392 487.328 211.758C413.562 243.124 346.537 289.098 290.079 347.055C233.621 405.012 188.836 473.817 158.281 549.541C127.726 625.265 112 706.426 112 788.39L720 788.39H1328Z" fill="url(#paint0_angular_1011_30)" fill-opacity="0.4"/>
</g>
<g opacity="0.1">
<path opacity="0.010101" d="M446.074 -389.6C451.198 -389.555 456.335 -387.063 460.224 -382.736L1247.73 493.418C1255.77 502.365 1256.15 516.247 1248.56 523.579L704.826 1048.66C700.011 1053.31 692.969 1054.26 686.508 1051.12L-450.931 499.36C-457.393 496.226 -462.225 489.52 -463.501 481.915L-607.647 -376.851C-609.66 -388.842 -602.339 -398.987 -591.741 -398.892L446.074 -389.6Z" stroke="white"/>
<path opacity="0.020202" d="M462.902 -388.436C468.039 -388.312 473.123 -385.779 476.918 -381.454L1248.26 497.692C1256.17 506.707 1256.19 520.57 1248.32 527.762L688.496 1038.81C683.525 1043.34 676.422 1044.18 670.006 1040.99L-461.492 477.339C-467.908 474.143 -472.598 467.431 -473.701 459.867L-597.957 -391.943C-599.706 -403.931 -592.042 -413.963 -581.334 -413.703L462.902 -388.436Z" stroke="white"/>
<path opacity="0.030303" d="M479.599 -387.111C484.751 -386.909 489.785 -384.335 493.488 -380.009L1248.48 501.845C1256.26 510.925 1255.93 524.751 1247.77 531.794L672.091 1028.71C666.967 1033.14 659.802 1033.86 653.431 1030.6L-471.786 455.296C-478.156 452.039 -482.706 445.322 -483.636 437.803L-588.049 -406.835C-589.529 -418.806 -581.525 -428.709 -570.711 -428.285L479.599 -387.111Z" stroke="white"/>
<path opacity="0.040404" d="M496.167 -385.627C501.335 -385.348 506.323 -382.731 509.936 -378.404L1248.42 505.877C1256.05 515.015 1255.36 528.787 1246.93 535.671L655.626 1018.38C650.349 1022.69 643.122 1023.3 636.795 1019.98L-481.802 433.238C-488.129 429.919 -492.541 423.198 -493.296 415.726L-577.918 -421.525C-579.125 -433.467 -570.783 -443.225 -559.87 -442.635L496.167 -385.627Z" stroke="white"/>
<path opacity="0.050505" d="M512.593 -383.989C517.779 -383.634 522.725 -380.973 526.251 -376.642L1248.05 509.784C1255.54 518.974 1254.49 532.674 1245.79 539.392L639.098 1007.81C633.671 1012 626.381 1012.5 620.096 1009.12L-491.547 411.168C-497.832 407.788 -502.105 401.064 -502.686 393.642L-567.573 -436.013C-568.504 -447.912 -559.829 -457.509 -548.824 -456.754L512.593 -383.989Z" stroke="white"/>
<path opacity="0.0606061" d="M528.882 -382.196C534.089 -381.765 538.994 -379.06 542.436 -374.723L1247.4 513.567C1254.73 522.805 1253.33 536.414 1244.37 542.957L622.521 997.003C616.946 1001.07 609.592 1001.46 603.348 998.021L-501.008 389.097C-507.252 385.655 -511.389 378.928 -511.795 371.559L-557.009 -450.292C-557.661 -462.135 -548.658 -471.555 -537.568 -470.636L528.882 -382.196Z" stroke="white"/>
<path opacity="0.0707071" d="M545.024 -380.255C550.253 -379.747 555.122 -376.996 558.481 -372.652L1246.46 517.221C1253.63 526.501 1251.87 540.002 1242.66 546.362L605.896 985.968C600.174 989.917 592.757 990.194 586.552 986.688L-510.189 367.028C-516.394 363.522 -520.397 356.793 -520.627 349.481L-546.234 -464.364C-546.604 -476.138 -537.281 -485.367 -526.112 -484.282L545.024 -380.255Z" stroke="white"/>
<path opacity="0.0808081" d="M561.007 -378.176C566.262 -377.592 571.098 -374.793 574.376 -370.439L1245.21 520.738C1252.22 530.053 1250.11 543.429 1240.66 549.598L589.222 974.696C583.356 978.523 575.874 978.684 569.707 975.115L-519.095 344.956C-525.262 341.387 -529.131 334.657 -529.185 327.403L-535.255 -478.235C-535.343 -489.927 -525.708 -498.948 -514.466 -497.699L561.007 -378.176Z" stroke="white"/>
<path opacity="0.0909091" d="M576.84 -375.955C582.122 -375.294 586.928 -372.446 590.126 -368.08L1243.68 524.121C1250.53 533.466 1248.07 546.7 1238.39 552.672L572.516 963.197C566.509 966.9 558.961 966.944 552.831 963.311L-527.712 322.896C-533.842 319.263 -537.578 312.532 -537.458 305.34L-524.064 -491.894C-523.869 -503.492 -513.931 -512.291 -502.625 -510.878L576.84 -375.955Z" stroke="white"/>
<path opacity="0.10101" d="M592.512 -373.598C597.824 -372.861 602.603 -369.961 605.723 -365.582L1241.87 527.365C1248.54 536.734 1245.75 549.81 1235.84 555.578L555.778 951.469C549.631 955.048 542.019 954.973 535.925 951.275L-536.043 300.85C-542.137 297.152 -545.743 290.42 -545.446 283.291L-512.668 -505.345C-512.191 -516.835 -501.961 -525.398 -490.597 -523.822L592.512 -373.598Z" stroke="white"/>
<path opacity="0.111111" d="M608.012 -371.114C613.356 -370.301 618.112 -367.347 621.155 -362.952L1239.75 530.464C1246.25 539.851 1243.13 552.754 1233.01 558.311L539.008 939.513C532.724 942.964 525.046 942.771 518.986 939.007L-544.094 278.817C-550.153 275.054 -553.629 268.321 -553.158 261.26L-501.079 -518.588C-500.319 -529.957 -489.809 -538.273 -478.394 -536.534L608.012 -371.114Z" stroke="white"/>
<path opacity="0.121212" d="M623.351 -368.5C628.73 -367.608 633.465 -364.6 636.433 -360.187L1237.36 533.422C1243.69 542.821 1240.24 555.535 1229.92 560.877L522.226 927.336C515.807 930.66 508.063 930.345 502.036 926.515L-551.847 256.811C-557.874 252.981 -561.221 246.248 -560.574 239.256L-489.282 -531.614C-488.242 -542.852 -477.464 -550.906 -466.005 -549.007L623.351 -368.5Z" stroke="white"/>
<path opacity="0.131313" d="M638.507 -365.766C643.925 -364.796 648.641 -361.729 651.534 -357.297L1234.68 536.228C1240.82 545.635 1237.06 558.146 1226.56 563.268L505.419 914.935C498.868 918.129 491.059 917.692 485.064 913.795L-559.32 234.829C-565.314 230.932 -568.534 224.198 -567.713 217.278L-477.298 -544.43C-475.981 -555.524 -464.948 -563.306 -453.453 -561.248L638.507 -365.766Z" stroke="white"/>
<path opacity="0.141414" d="M653.489 -362.913C658.947 -361.864 663.648 -358.738 666.467 -354.283L1231.72 538.884C1237.67 548.291 1233.61 560.586 1222.93 565.484L488.606 902.313C481.925 905.378 474.049 904.817 468.086 900.851L-566.498 212.877C-572.461 208.912 -575.555 202.179 -574.56 195.334L-465.118 -557.029C-463.527 -567.969 -452.253 -575.468 -440.729 -573.253L653.489 -362.913Z" stroke="white"/>
<path opacity="0.151515" d="M668.286 -359.949C673.787 -358.819 678.475 -355.631 681.221 -351.152L1228.47 541.383C1234.23 550.785 1229.88 562.852 1219.04 567.522L471.786 889.471C464.977 892.405 457.036 891.718 451.103 887.683L-573.386 190.959C-579.319 186.924 -582.288 180.19 -581.119 173.423L-452.751 -569.414C-450.889 -580.189 -439.39 -587.396 -427.844 -585.025L668.286 -359.949Z" stroke="white"/>
<path opacity="0.161616" d="M682.897 -356.872C688.443 -355.661 693.122 -352.407 695.795 -347.902L1224.94 543.728C1230.51 553.118 1225.88 564.947 1214.89 569.387L454.967 876.417C448.034 879.218 440.027 878.404 434.123 874.299L-579.981 169.083C-585.885 164.977 -588.73 158.244 -587.387 151.556L-440.197 -581.576C-438.069 -592.176 -426.361 -599.083 -414.8 -596.559L682.897 -356.872Z" stroke="white"/>
<path opacity="0.171717" d="M697.315 -353.693C702.909 -352.399 707.58 -349.078 710.181 -344.545L1221.13 545.909C1226.51 555.283 1221.61 566.863 1210.49 571.069L438.15 863.146C431.096 865.814 423.023 864.871 417.148 860.694L-586.286 147.248C-592.161 143.07 -594.883 136.337 -593.368 129.731L-427.464 -593.521C-425.075 -603.937 -413.173 -610.537 -401.604 -607.861L697.315 -353.693Z" stroke="white"/>
<path opacity="0.181818" d="M711.542 -350.41C717.187 -349.032 721.852 -345.641 724.38 -341.078L1217.04 547.929C1222.22 557.28 1217.07 568.604 1205.83 572.575L421.349 849.666C414.176 852.2 406.037 851.127 400.19 846.877L-592.292 125.462C-598.139 121.212 -600.74 114.479 -599.053 107.958L-414.549 -605.241C-411.904 -615.464 -399.825 -621.751 -388.255 -618.926L711.542 -350.41Z" stroke="white"/>
<path opacity="0.191919" d="M725.569 -347.033C731.267 -345.568 735.929 -342.105 738.385 -337.51L1212.67 549.78C1217.66 559.104 1212.27 570.162 1200.91 573.898L404.561 835.976C397.273 838.375 389.069 837.17 383.25 832.845L-598.006 103.728C-603.825 99.4035 -606.304 92.6707 -604.446 86.2367L-401.46 -616.739C-398.566 -626.761 -386.326 -632.73 -374.763 -629.759L725.569 -347.033Z" stroke="white"/>
<path opacity="0.20202" d="M739.396 -343.56C745.149 -342.009 749.809 -338.469 752.193 -333.84L1208.04 551.465C1212.82 560.756 1207.2 571.542 1195.75 575.042L387.797 822.082C380.395 824.345 372.128 823.006 366.336 818.607L-603.422 82.0512C-609.214 77.6519 -611.573 70.9195 -609.546 64.5749L-388.198 -628.009C-385.062 -637.822 -372.678 -643.47 -361.128 -640.355L739.396 -343.56Z" stroke="white"/>
<path opacity="0.212121" d="M753.013 -340.002C758.825 -338.361 763.485 -334.743 765.795 -330.079L1203.12 552.974C1207.7 562.227 1201.87 572.737 1190.34 576.001L371.055 807.981C363.544 810.108 355.213 808.634 349.448 804.159L-608.547 60.4332C-614.312 55.9576 -616.552 49.2252 -614.355 42.9724L-374.773 -639.053C-371.402 -648.651 -358.89 -653.976 -347.36 -650.72L753.013 -340.002Z" stroke="white"/>
<path opacity="0.222222" d="M766.424 -336.36C772.296 -334.628 776.959 -330.928 779.195 -326.227L1197.94 554.309C1202.32 563.518 1196.29 573.746 1184.69 576.776L354.348 793.68C346.73 795.67 338.337 794.059 332.599 789.506L-613.373 38.8795C-619.111 34.3263 -621.231 27.5943 -618.867 21.4356L-361.182 -649.868C-357.582 -659.245 -344.961 -664.245 -333.457 -660.851L766.424 -336.36Z" stroke="white"/>
<path opacity="0.232323" d="M779.621 -332.641C785.556 -330.816 790.223 -327.031 792.383 -322.291L1192.49 555.462C1196.66 564.623 1190.44 574.567 1178.79 577.363L337.677 779.177C329.956 781.03 321.501 779.28 315.789 774.648L-617.903 17.392C-623.614 12.7602 -625.617 6.02828 -623.086 -0.0340082L-347.433 -660.454C-343.614 -669.605 -330.898 -674.28 -319.428 -670.751L779.621 -332.641Z" stroke="white"/>
<path opacity="0.242424" d="M792.6 -328.844C798.6 -326.923 803.272 -323.05 805.357 -318.27L1186.77 556.439C1190.74 565.547 1184.34 575.203 1172.65 577.768L321.046 764.482C313.224 766.197 304.709 764.307 299.025 759.596L-622.14 -4.01994C-627.824 -8.73172 -629.708 -15.4633 -627.013 -21.4272L-333.532 -670.806C-329.501 -679.726 -316.709 -684.076 -305.277 -680.415L792.6 -328.844Z" stroke="white"/>
<path opacity="0.252525" d="M805.363 -324.978C811.43 -322.959 816.108 -318.996 818.115 -314.173L1180.78 557.229C1184.55 566.279 1178 575.647 1166.27 577.982L304.463 749.592C296.545 751.168 287.971 749.137 282.314 744.344L-626.078 -25.3577C-631.734 -30.1505 -633.502 -36.8818 -630.643 -42.745L-319.48 -680.926C-315.245 -689.611 -302.392 -693.639 -291.005 -689.85L805.363 -324.978Z" stroke="white"/>
<path opacity="0.262626" d="M817.905 -321.045C824.041 -318.926 828.726 -314.867 830.654 -310.002L1174.54 557.834C1178.1 566.822 1171.4 575.901 1159.65 578.01L287.936 734.513C279.924 735.951 271.292 733.776 265.664 728.901L-629.717 -46.6136C-635.346 -51.4886 -636.996 -58.2194 -633.976 -63.9801L-305.28 -690.81C-300.851 -699.258 -287.953 -702.966 -276.617 -699.051L817.905 -321.045Z" stroke="white"/>
<path opacity="0.272727" d="M830.216 -317.052C836.423 -314.83 841.117 -310.674 842.964 -305.765L1168.03 558.248C1171.39 567.169 1164.56 575.96 1152.8 577.846L271.46 719.243C263.359 720.543 254.671 718.223 249.071 713.264L-633.066 -67.7883C-638.666 -72.7466 -640.2 -79.4771 -637.019 -85.1329L-290.947 -700.462C-286.331 -708.669 -273.403 -712.061 -262.124 -708.024L830.216 -317.052Z" stroke="white"/>
<path opacity="0.282828" d="M842.303 -312.999C848.582 -310.672 853.286 -306.415 855.05 -301.46L1161.27 558.473C1164.42 567.324 1157.47 575.826 1145.72 577.492L255.049 703.791C246.862 704.952 238.12 702.486 232.55 697.443L-636.116 -88.8728C-641.687 -93.9154 -643.104 -100.645 -639.765 -106.195L-276.474 -709.875C-271.681 -717.84 -258.738 -720.919 -247.521 -716.764L842.303 -312.999Z" stroke="white"/>
<path opacity="0.292929" d="M854.153 -308.896C860.507 -306.462 865.22 -302.1 866.9 -297.099L1154.25 558.5C1157.2 567.276 1150.13 575.493 1138.4 576.943L238.702 688.154C230.431 689.176 221.638 686.562 216.097 681.434L-638.875 -109.869C-644.415 -114.997 -645.717 -121.727 -642.221 -127.167L-261.878 -719.055C-256.916 -726.776 -243.972 -729.548 -232.822 -725.277L854.153 -308.896Z" stroke="white"/>
<path opacity="0.30303" d="M865.776 -304.741C872.206 -302.197 876.929 -297.727 878.522 -292.678L1146.98 558.335C1149.73 567.033 1142.57 574.966 1130.85 576.205L222.432 672.342C214.082 673.225 205.239 670.462 199.73 665.248L-641.333 -130.767C-646.842 -135.981 -648.028 -142.71 -644.377 -148.04L-247.15 -727.993C-242.029 -735.471 -229.097 -737.941 -218.02 -733.558L865.776 -304.741Z" stroke="white"/>
<path opacity="0.313131" d="M877.153 -300.547C883.659 -297.89 888.393 -293.308 889.896 -288.212L1139.46 557.965C1142 566.58 1134.75 574.233 1123.08 575.266L206.23 656.348C197.805 657.093 188.914 654.179 183.437 648.877L-643.506 -151.571C-648.983 -156.873 -650.053 -163.601 -646.249 -168.819L-232.313 -736.7C-227.041 -743.933 -214.135 -746.108 -203.136 -741.617L877.153 -300.547Z" stroke="white"/>
<path opacity="0.323232" d="M888.301 -296.307C894.886 -293.535 899.63 -288.838 901.041 -283.693L1131.7 557.399C1134.04 565.93 1126.72 573.305 1115.09 574.136L190.122 640.187C181.624 640.793 172.688 637.728 167.245 632.338L-645.374 -172.268C-650.817 -177.658 -651.772 -184.384 -647.817 -189.489L-217.352 -745.163C-211.937 -752.152 -199.07 -754.038 -188.152 -749.442L888.301 -296.307Z" stroke="white"/>
<path opacity="0.333333" d="M899.201 -292.034C905.865 -289.144 910.619 -284.328 911.935 -279.134L1123.7 556.629C1125.84 565.071 1118.45 572.173 1106.86 572.807L174.093 623.854C165.527 624.322 156.549 621.104 151.14 615.625L-646.955 -192.86C-652.364 -198.34 -653.203 -205.065 -649.099 -210.055L-202.289 -753.39C-196.741 -760.137 -183.924 -761.741 -173.093 -757.044L899.201 -292.034Z" stroke="white"/>
<path opacity="0.343434" d="M909.856 -287.729C916.601 -284.718 921.365 -279.78 922.583 -274.536L1115.45 555.654C1117.39 564.004 1109.95 570.837 1098.42 571.28L158.155 607.355C149.524 607.686 140.506 604.313 135.134 598.744L-648.246 -213.343C-653.618 -218.913 -654.341 -225.637 -650.091 -230.51L-187.125 -761.38C-181.452 -767.885 -168.695 -769.214 -157.956 -764.42L909.856 -287.729Z" stroke="white"/>
<path opacity="0.353535" d="M920.266 -283.401C927.091 -280.267 931.864 -275.202 932.981 -269.909L1106.97 554.468C1108.72 562.723 1101.22 569.292 1089.77 569.548L142.315 590.688C133.622 590.882 124.567 587.353 119.233 581.693L-649.244 -233.718C-654.578 -239.378 -655.185 -246.101 -650.79 -250.856L-171.863 -769.136C-166.073 -775.401 -153.388 -776.464 -142.744 -771.575L920.266 -283.401Z" stroke="white"/>
<path opacity="0.363636" d="M930.427 -279.046C937.334 -275.786 942.116 -270.591 943.129 -265.248L1098.26 553.078C1099.81 561.235 1092.27 567.544 1080.9 567.619L126.576 573.865C117.825 573.922 108.737 570.238 103.442 564.486L-649.951 -253.972C-655.245 -259.724 -655.736 -266.445 -651.199 -271.081L-156.508 -776.651C-150.611 -782.678 -138.007 -783.482 -127.462 -778.503L930.427 -279.046Z" stroke="white"/>
<path opacity="0.373737" d="M940.333 -274.677C947.322 -271.286 952.112 -265.958 953.017 -260.566L1089.32 551.473C1090.67 559.53 1083.1 565.586 1071.81 565.484L110.939 556.882C102.133 556.803 93.0144 552.962 87.7619 547.118L-650.374 -274.11C-655.627 -279.954 -656 -286.673 -651.324 -291.189L-141.074 -783.934C-135.076 -789.725 -122.563 -790.278 -112.121 -785.213L940.333 -274.677Z" stroke="white"/>
<path opacity="0.383838" d="M949.991 -270.29C957.062 -266.767 961.858 -261.301 962.651 -255.86L1080.16 549.66C1081.32 557.614 1073.72 563.421 1062.52 563.149L95.4166 539.749C86.5595 539.534 77.4135 535.535 72.2048 529.598L-650.505 -294.122C-655.713 -300.059 -655.97 -306.776 -651.156 -311.17L-125.555 -790.978C-119.465 -796.536 -107.051 -796.847 -96.7161 -791.698L949.991 -270.29Z" stroke="white"/>
<path opacity="0.393939" d="M959.393 -265.896C966.546 -262.239 971.347 -256.631 972.026 -251.14L1070.77 547.63C1071.74 555.478 1064.13 561.042 1053.02 560.606L80.0081 522.462C71.1036 522.113 61.9335 517.954 56.7708 511.924L-650.349 -314.011C-655.512 -320.041 -655.651 -326.756 -650.703 -331.028L-109.963 -797.79C-103.789 -803.119 -91.4819 -803.195 -81.2568 -797.967L959.393 -265.896Z" stroke="white"/>
<path opacity="0.40404" d="M968.541 -261.493C975.776 -257.698 980.58 -251.945 981.14 -246.406L1061.17 545.388C1061.95 553.129 1054.33 558.455 1043.32 557.861L64.7223 505.032C55.7734 504.549 46.583 500.231 41.4687 494.107L-649.906 -333.767C-655.02 -339.891 -655.042 -346.604 -649.961 -350.752L-94.3001 -804.364C-88.0495 -809.467 -75.8566 -809.317 -65.7449 -804.013L968.541 -261.493Z" stroke="white"/>
<path opacity="0.414141" d="M977.426 -257.09C984.744 -253.154 989.549 -247.252 989.986 -241.666L1051.35 542.929C1051.95 550.561 1044.32 555.654 1033.42 554.907L49.5561 487.458C40.5666 486.842 31.3592 482.364 26.2955 476.145L-649.183 -353.392C-654.247 -359.61 -654.15 -366.321 -648.939 -370.344L-78.5797 -810.708C-72.2595 -815.588 -60.1874 -815.221 -50.1925 -809.844L977.426 -257.09Z" stroke="white"/>
<path opacity="0.424242" d="M986.048 -252.695C993.447 -248.615 998.252 -242.561 998.562 -236.927L1041.32 540.248C1041.73 547.767 1034.11 552.634 1023.32 551.739L34.5145 469.739C25.4877 468.991 16.2672 464.352 11.2567 458.039L-648.182 -372.886C-653.193 -379.2 -652.977 -385.907 -647.638 -389.806L-62.8062 -816.826C-56.4234 -821.487 -44.4785 -820.91 -34.6031 -815.465L986.048 -252.695Z" stroke="white"/>
<path opacity="0.434343" d="M994.415 -248.303C1001.89 -244.077 1006.7 -237.867 1006.87 -232.187L1031.09 537.35C1031.32 544.756 1023.7 549.403 1013.02 548.366L19.6126 451.888C10.5516 451.008 1.32196 446.208 -3.63287 439.799L-646.894 -392.239C-651.848 -398.648 -651.513 -405.352 -646.049 -409.125L-46.9758 -822.711C-40.5372 -827.156 -28.7251 -826.379 -18.9721 -820.868L994.415 -248.303Z" stroke="white"/>
<path opacity="0.444444" d="M1002.51 -243.924C1010.07 -239.549 1014.87 -233.179 1014.91 -227.454L1020.65 534.231C1020.7 541.522 1013.09 545.954 1002.54 544.78L4.84097 433.902C-4.25075 432.891 -13.4858 427.93 -18.382 421.425L-645.333 -411.452C-650.229 -417.956 -649.773 -424.657 -644.187 -428.303L-31.1073 -828.369C-24.6193 -832.603 -12.9451 -831.633 -3.31713 -826.061L1002.51 -243.924Z" stroke="white"/>
<path opacity="0.454545" d="M1010.35 -239.562C1017.98 -235.035 1022.77 -228.5 1022.67 -222.733L1010.01 530.891C1009.89 538.065 1002.3 542.287 991.864 540.983L-9.78651 415.785C-18.9059 414.645 -28.1422 409.522 -32.977 402.922L-643.493 -430.521C-648.328 -437.121 -647.751 -443.819 -642.044 -447.338L-15.197 -833.802C-8.66607 -837.828 2.86576 -836.674 12.3661 -831.044L1010.35 -239.562Z" stroke="white"/>
<path opacity="0.464646" d="M1017.92 -235.217C1025.63 -230.536 1030.41 -223.833 1030.17 -218.023L999.188 527.331C998.895 534.387 991.32 538.405 981.01 536.975L-24.2671 397.546C-33.4108 396.278 -42.6444 390.993 -47.4149 384.297L-641.377 -449.441C-646.147 -456.138 -645.448 -462.831 -639.623 -466.222L0.747831 -839.008C7.31571 -842.831 18.7009 -841.501 28.0713 -835.815L1017.92 -235.217Z" stroke="white"/>
<path opacity="0.474747" d="M1025.22 -230.897C1033.01 -226.058 1037.77 -219.184 1037.38 -213.334L988.173 523.547C987.71 530.483 980.158 534.303 969.976 532.753L-38.5977 379.184C-47.7628 377.788 -56.9892 372.341 -61.6923 365.549L-638.987 -468.213C-643.69 -475.005 -642.867 -481.695 -636.928 -484.957L16.7204 -843.992C23.3195 -847.617 34.5544 -846.118 43.7925 -840.381L1025.22 -230.897Z" stroke="white"/>
<path opacity="0.484848" d="M1032.26 -226.6C1040.12 -221.602 1044.87 -214.553 1044.32 -208.664L976.974 519.543C976.344 526.359 968.818 529.987 958.766 528.321L-52.775 360.708C-61.9583 359.186 -71.1732 353.576 -75.8058 346.688L-636.327 -486.828C-640.96 -493.717 -640.012 -500.402 -633.96 -503.536L32.7142 -848.752C39.3389 -852.182 50.4203 -850.523 59.5241 -844.738L1032.26 -226.6Z" stroke="white"/>
<path opacity="0.494949" d="M1039.03 -222.341C1046.96 -217.18 1051.68 -209.952 1050.98 -204.027L965.592 515.311C964.797 522.004 957.301 525.445 947.382 523.67L-66.7963 342.112C-75.995 340.465 -85.1941 334.693 -89.7526 327.708L-633.4 -505.293C-637.958 -512.278 -636.886 -518.958 -630.723 -521.963L48.7222 -853.298C55.3672 -856.539 66.2923 -854.727 75.2598 -848.897L1039.03 -222.341Z" stroke="white"/>
<path opacity="0.50505" d="M1045.52 -218.119C1053.53 -212.794 1058.22 -205.383 1057.35 -199.424L954.034 510.852C953.078 517.422 945.614 520.681 935.83 518.801L-80.6554 323.403C-89.8665 321.632 -99.0453 315.699 -103.526 308.618L-630.206 -523.602C-634.687 -530.683 -633.488 -537.358 -627.218 -540.234L64.741 -857.63C71.4013 -860.685 82.1675 -858.727 90.997 -852.856L1045.52 -218.119Z" stroke="white"/>
<path opacity="0.515152" d="M1051.75 -213.936C1059.82 -208.444 1064.48 -200.847 1063.45 -194.857L942.305 506.169C941.191 512.615 933.761 515.698 924.113 513.716L-94.349 304.588C-103.569 302.695 -112.723 296.599 -117.123 289.423L-626.747 -541.75C-631.148 -548.927 -629.82 -555.596 -623.445 -558.343L80.7649 -861.746C87.4358 -864.62 98.0411 -862.524 106.731 -856.615L1051.75 -213.936Z" stroke="white"/>
<path opacity="0.525253" d="M1057.71 -209.796C1065.85 -204.135 1070.47 -196.349 1069.26 -190.329L930.409 501.261C929.14 507.582 921.747 510.493 912.237 508.417L-107.873 285.671C-117.1 283.656 -126.224 277.399 -130.54 270.127L-623.027 -559.735C-627.343 -567.008 -625.886 -573.671 -619.408 -576.288L96.7879 -865.65C103.465 -868.348 113.907 -866.121 122.455 -860.176L1057.71 -209.796Z" stroke="white"/>
<path opacity="0.535354" d="M1063.39 -205.702C1071.59 -199.87 1076.17 -191.891 1074.78 -185.845L918.349 496.129C916.928 502.324 909.574 505.069 900.203 502.902L-121.224 266.656C-130.455 264.521 -139.545 258.103 -143.772 250.735L-619.048 -577.554C-623.276 -584.922 -621.688 -591.578 -615.11 -594.066L112.803 -869.343C119.482 -871.869 129.76 -869.518 138.166 -863.541L1063.39 -205.702Z" stroke="white"/>
<path opacity="0.545455" d="M1068.8 -201.66C1077.06 -195.655 1081.59 -187.48 1080.02 -181.411L906.131 490.77C904.561 496.839 897.247 499.422 888.015 497.168L-134.401 247.544C-143.633 245.29 -152.683 238.712 -156.819 231.25L-614.815 -595.207C-618.95 -602.67 -617.23 -609.318 -610.554 -611.677L128.805 -872.831C135.481 -875.189 145.594 -872.72 153.856 -866.715L1068.8 -201.66Z" stroke="white"/>
<path opacity="0.555556" d="M1073.94 -197.674C1082.26 -191.494 1086.74 -183.12 1084.98 -177.031L893.763 485.184C892.047 491.127 884.776 493.553 875.685 491.217L-147.392 228.341C-156.622 225.969 -165.628 219.231 -169.668 211.674L-610.322 -612.691C-614.361 -620.247 -612.507 -626.888 -605.736 -629.117L144.794 -876.114C151.464 -878.309 161.411 -875.728 169.527 -869.698L1073.94 -197.674Z" stroke="white"/>
<path opacity="0.565657" d="M1078.81 -193.749C1087.18 -187.393 1091.59 -178.817 1089.64 -172.71L881.24 479.37C879.382 485.185 872.155 487.459 863.204 485.045L-160.206 209.047C-169.432 206.558 -178.389 199.661 -182.328 192.011L-605.584 -630.005C-609.523 -637.655 -607.533 -644.288 -600.669 -646.387L160.755 -879.198C167.414 -881.234 177.195 -878.549 185.165 -872.495L1078.81 -193.749Z" stroke="white"/>
<path opacity="0.575758" d="M1083.41 -189.882C1091.83 -183.348 1096.18 -174.568 1094.03 -168.447L868.581 473.334C866.583 479.022 859.401 481.148 850.591 478.66L-172.826 189.673C-182.044 187.07 -190.947 180.015 -194.781 172.272L-600.591 -647.142C-604.425 -654.885 -602.298 -661.508 -595.343 -663.477L176.693 -882.078C183.34 -883.96 192.953 -881.176 200.776 -875.103L1083.41 -189.882Z" stroke="white"/>
<path opacity="0.585859" d="M1087.73 -186.085C1096.19 -179.371 1100.47 -170.384 1098.11 -164.254L855.776 467.069C853.642 472.629 846.507 474.611 837.837 472.054L-185.26 170.216C-194.47 167.499 -203.312 160.286 -207.038 152.452L-595.358 -664.107C-599.084 -671.941 -596.816 -678.555 -589.774 -680.394L192.592 -884.766C199.222 -886.498 208.669 -883.62 216.343 -877.531L1087.73 -186.085Z" stroke="white"/>
<path opacity="0.59596" d="M1091.78 -182.356C1100.29 -175.461 1104.48 -166.265 1101.92 -160.129L842.838 460.579C840.571 466.011 833.483 467.855 824.954 465.231L-197.5 150.685C-206.697 147.855 -215.475 140.486 -219.087 132.561L-589.881 -680.893C-593.493 -688.818 -591.084 -695.42 -583.956 -697.131L208.454 -887.259C215.064 -888.845 224.344 -885.88 231.869 -879.776L1091.78 -182.356Z" stroke="white"/>
<path opacity="0.606061" d="M1095.57 -178.701C1104.1 -171.625 1108.2 -162.218 1105.43 -156.079L829.772 453.862C827.375 459.166 820.335 460.875 811.946 458.189L-209.54 131.08C-218.724 128.139 -227.431 120.615 -230.926 112.6L-584.162 -697.501C-587.657 -705.516 -585.105 -712.106 -577.893 -713.687L224.272 -889.563C230.86 -891.007 239.974 -887.959 247.35 -881.845L1095.57 -178.701Z" stroke="white"/>
<path opacity="0.616162" d="M1099.08 -175.122C1107.64 -167.863 1111.65 -158.244 1108.66 -152.108L816.583 446.921C814.059 452.097 807.068 453.675 798.819 450.929L-221.38 111.407C-230.547 108.357 -239.178 100.679 -242.55 92.5757L-578.206 -713.927C-581.579 -722.031 -578.881 -728.608 -571.588 -730.06L240.042 -891.678C246.605 -892.985 255.553 -889.86 262.78 -883.737L1099.08 -175.122Z" stroke="white"/>
<path opacity="0.626263" d="M1102.31 -171.626C1110.91 -164.184 1114.8 -154.35 1111.59 -148.22L803.27 439.753C800.622 444.801 793.681 446.251 785.57 443.45L-233.02 91.6683C-242.167 88.509 -250.717 80.6798 -253.962 72.4893L-572.02 -730.173C-575.266 -738.364 -572.42 -744.926 -565.048 -746.25L255.754 -893.611C262.29 -894.784 271.073 -891.587 278.149 -885.458L1102.31 -171.626Z" stroke="white"/>
<path opacity="0.636364" d="M1105.28 -168.21C1113.89 -160.585 1117.67 -150.536 1114.23 -144.418L789.841 432.362C787.074 437.283 780.182 438.609 772.21 435.756L-244.453 71.8707C-253.579 68.6042 -262.041 60.6246 -265.155 52.349L-565.604 -746.234C-568.717 -754.509 -565.721 -761.057 -558.273 -762.252L271.406 -895.361C277.913 -896.404 286.532 -893.139 293.458 -887.007L1105.28 -168.21Z" stroke="white"/>
<path opacity="0.646465" d="M1107.98 -164.882C1116.61 -157.073 1120.26 -146.809 1116.59 -140.706L776.305 424.747C773.42 429.54 766.578 430.746 758.743 427.843L-255.675 52.0158C-264.778 48.6433 -273.147 40.5153 -276.123 32.1563L-558.958 -762.11C-561.935 -770.469 -558.786 -776.999 -551.263 -778.066L286.995 -896.933C293.47 -897.851 301.927 -894.523 308.702 -888.39L1107.98 -164.882Z" stroke="white"/>
<path opacity="0.656566" d="M1110.41 -161.643C1119.05 -153.651 1122.57 -143.171 1118.66 -137.089L762.662 416.909C759.663 421.575 752.871 422.665 745.172 419.716L-266.686 32.1092C-275.763 28.6321 -284.034 20.3577 -286.868 11.9174L-552.09 -777.798C-554.925 -786.238 -551.62 -792.75 -544.026 -793.689L302.513 -898.329C308.955 -899.125 317.25 -895.738 323.875 -889.607L1110.41 -161.643Z" stroke="white"/>
<path opacity="0.666667" d="M1112.58 -158.494C1121.21 -150.319 1124.59 -139.624 1120.44 -133.568L748.922 408.85C745.813 413.39 739.071 414.366 731.506 411.373L-277.479 12.1557C-286.528 8.5755 -294.694 0.156824 -297.382 -8.36256L-544.998 -793.296C-547.686 -801.816 -544.224 -808.308 -536.56 -809.119L317.959 -899.551C324.366 -900.229 332.502 -896.787 338.976 -890.66L1112.58 -158.494Z" stroke="white"/>
<path opacity="0.676768" d="M1114.47 -155.442C1123.11 -147.086 1126.32 -136.176 1121.93 -130.151L735.084 400.568C731.867 404.982 725.175 405.848 717.744 402.814L-288.058 -7.84384C-297.077 -11.526 -305.132 -20.0865 -307.667 -28.6824L-537.692 -808.607C-540.228 -817.203 -536.605 -823.673 -528.874 -824.357L333.323 -900.606C339.694 -901.169 347.672 -897.677 353.996 -891.555L1114.47 -155.442Z" stroke="white"/>
<path opacity="0.686869" d="M1116.11 -152.49C1124.73 -143.952 1127.78 -132.829 1123.14 -126.84L721.16 392.065C717.838 396.353 711.196 397.112 703.896 394.04L-298.413 -27.8846C-307.4 -31.6674 -315.339 -40.3669 -317.716 -49.037L-530.169 -823.728C-532.547 -832.399 -528.761 -838.844 -520.965 -839.401L348.606 -901.496C354.939 -901.948 362.761 -898.408 368.934 -892.295L1116.11 -152.49Z" stroke="white"/>
<path opacity="0.69697" d="M1117.48 -149.639C1126.08 -140.921 1128.95 -129.587 1124.06 -123.64L707.149 383.341C703.725 387.504 697.133 388.16 689.963 385.051L-308.547 -47.9626C-317.499 -51.8447 -325.316 -60.6805 -327.531 -69.4219L-522.437 -838.659C-524.652 -847.4 -520.701 -853.82 -512.842 -854.25L363.798 -902.225C370.092 -902.569 377.759 -898.985 383.784 -892.882L1117.48 -149.639Z" stroke="white"/>
<path opacity="0.707071" d="M1118.58 -146.889C1127.16 -137.993 1129.84 -126.45 1124.69 -120.551L693.052 374.401C689.53 378.439 682.985 378.994 675.944 375.851L-318.463 -68.0707C-327.379 -72.0508 -335.066 -81.02 -337.113 -89.8293L-514.505 -853.394C-516.551 -862.204 -512.432 -868.595 -504.512 -868.899L378.889 -902.792C385.144 -903.032 392.659 -899.407 398.535 -893.317L1118.58 -146.889Z" stroke="white"/>
<path opacity="0.717172" d="M1119.42 -144.244C1127.97 -135.173 1130.45 -123.424 1125.05 -117.579L678.888 365.243C675.27 369.159 668.774 369.615 661.86 366.44L-328.143 -88.207C-337.02 -92.2836 -344.573 -101.383 -346.446 -110.257L-506.361 -867.936C-508.234 -876.81 -503.944 -883.17 -495.965 -883.348L393.89 -903.203C400.105 -903.342 407.47 -899.68 413.197 -893.603L1119.42 -144.244Z" stroke="white"/>
<path opacity="0.727273" d="M1120.01 -141.713C1128.52 -132.467 1130.78 -120.518 1125.12 -114.732L664.649 355.865C660.938 359.658 654.49 360.019 647.7 356.813L-337.598 -108.372C-346.435 -112.544 -353.847 -121.769 -355.541 -130.704L-498.022 -882.288C-499.716 -891.223 -495.252 -897.549 -487.217 -897.602L408.783 -903.466C414.957 -903.507 422.174 -899.81 427.754 -893.748L1120.01 -141.713Z" stroke="white"/>
<path opacity="0.737374" d="M1120.33 -139.292C1128.79 -129.876 1130.83 -117.73 1124.91 -112.01L650.346 346.271C646.544 349.943 640.143 350.21 633.476 346.976L-346.822 -128.558C-355.616 -132.823 -362.881 -142.172 -364.39 -151.164L-489.488 -896.446C-490.997 -905.438 -486.357 -911.728 -478.267 -911.655L423.568 -903.581C429.701 -903.526 436.773 -899.797 442.205 -893.753L1120.33 -139.292Z" stroke="white"/>
<path opacity="0.747475" d="M1120.4 -136.985C1128.8 -127.401 1130.6 -115.064 1124.42 -109.416L635.982 336.463C632.092 340.014 625.737 340.191 619.191 336.93L-355.814 -148.761C-364.563 -153.119 -371.675 -162.586 -372.995 -171.631L-480.762 -910.409C-482.082 -919.454 -477.263 -925.704 -469.12 -925.507L438.238 -903.551C444.33 -903.404 451.259 -899.645 456.546 -893.619L1120.4 -136.985Z" stroke="white"/>
<path opacity="0.757576" d="M1120.24 -134.772C1128.59 -125.023 1130.13 -112.501 1123.68 -106.932L621.596 326.464C617.62 329.896 611.311 329.984 604.883 326.697L-364.537 -168.954C-373.24 -173.404 -380.193 -182.986 -381.317 -192.079L-471.816 -924.154C-472.94 -933.247 -467.939 -939.454 -459.746 -939.133L452.824 -903.358C458.875 -903.121 465.664 -899.334 470.806 -893.328L1120.24 -134.772Z" stroke="white"/>
<path opacity="0.767677" d="M1119.8 -132.694C1128.08 -122.785 1129.36 -110.086 1122.64 -104.6L607.13 316.236C603.072 319.549 596.806 319.551 590.494 316.24L-373.053 -189.176C-381.708 -193.715 -388.495 -203.407 -389.419 -212.544L-462.714 -937.722C-463.637 -946.859 -458.452 -953.018 -450.211 -952.573L467.259 -903.045C473.269 -902.721 479.92 -898.908 484.919 -892.923L1119.8 -132.694Z" stroke="white"/>
<path opacity="0.777778" d="M1119.11 -130.739C1127.3 -120.674 1128.31 -107.806 1121.32 -102.411L592.617 305.794C588.478 308.99 582.255 308.907 576.057 305.573L-381.334 -209.406C-389.938 -214.034 -396.554 -223.831 -397.271 -233.006L-453.434 -951.097C-454.151 -960.272 -448.779 -966.381 -440.493 -965.813L481.565 -902.602C487.534 -902.193 494.05 -898.356 498.906 -892.393L1119.11 -130.739Z" stroke="white"/>
<path opacity="0.787879" d="M1118.17 -128.905C1126.27 -118.688 1126.99 -105.661 1119.74 -100.363L578.064 295.144C573.846 298.224 567.664 298.059 561.578 294.703L-389.374 -229.637C-397.926 -234.352 -404.365 -244.249 -404.871 -253.457L-443.977 -964.276C-444.484 -973.484 -438.922 -979.538 -430.592 -978.847L495.74 -902.028C501.668 -901.536 508.053 -897.678 512.767 -891.737L1118.17 -128.905Z" stroke="white"/>
<path opacity="0.79798" d="M1116.98 -127.193C1124.99 -116.83 1125.41 -103.652 1117.89 -98.4586L563.482 284.289C559.187 287.254 553.046 287.008 547.068 283.631L-397.167 -249.864C-405.664 -254.665 -411.92 -264.657 -412.211 -273.891L-434.342 -977.257C-434.632 -986.491 -428.879 -992.486 -420.507 -991.673L509.785 -901.325C515.674 -900.753 521.929 -896.874 526.504 -890.957L1116.98 -127.193Z" stroke="white"/>
<path opacity="0.808081" d="M1115.55 -125.603C1123.45 -115.099 1123.56 -101.783 1115.77 -96.6997L548.866 273.231C544.496 276.083 538.394 275.757 532.523 272.36L-404.721 -270.082C-413.162 -274.968 -419.229 -285.049 -419.299 -294.304L-424.54 -990.039C-424.61 -999.295 -418.663 -1005.23 -410.252 -1004.29L523.687 -900.498C529.537 -899.848 535.667 -895.949 540.103 -890.056L1115.55 -125.603Z" stroke="white"/>
<path opacity="0.818182" d="M1113.88 -124.141C1121.67 -113.501 1121.44 -100.059 1113.39 -95.0925L534.233 261.969C529.79 264.708 523.724 264.305 517.958 260.887L-412.023 -290.292C-420.406 -295.26 -426.279 -305.424 -426.124 -314.694L-414.566 -1002.63C-414.41 -1011.9 -408.268 -1017.76 -399.819 -1016.7L537.453 -899.553C543.265 -898.826 549.272 -894.908 553.57 -889.041L1113.88 -124.141Z" stroke="white"/>
<path opacity="0.828283" d="M1111.96 -122.81C1119.63 -112.041 1119.07 -98.4858 1110.74 -93.6419L519.573 250.503C515.059 253.131 509.028 252.651 503.363 249.214L-419.087 -310.49C-427.41 -315.541 -433.083 -325.781 -432.698 -335.058L-404.437 -1015.02C-404.051 -1024.3 -397.711 -1030.09 -389.227 -1028.91L551.065 -898.495C556.84 -897.694 562.727 -893.758 566.889 -887.915L1111.96 -122.81Z" stroke="white"/>
<path opacity="0.838384" d="M1109.81 -121.603C1117.35 -110.712 1116.43 -97.0579 1107.85 -92.3434L504.907 238.841C500.323 241.359 494.326 240.805 488.759 237.348L-425.895 -330.667C-434.156 -335.798 -439.625 -346.108 -439.005 -355.386L-394.14 -1027.21C-393.52 -1036.49 -386.982 -1042.2 -378.464 -1040.9L564.533 -897.321C570.273 -896.447 576.043 -892.494 580.07 -886.677L1109.81 -121.603Z" stroke="white"/>
<path opacity="0.848485" d="M1107.41 -120.527C1114.81 -109.52 1113.54 -95.7824 1104.7 -91.2034L490.226 226.983C485.573 229.392 479.607 228.764 474.137 225.288L-432.461 -350.822C-440.659 -356.031 -445.918 -366.405 -445.06 -375.676L-383.694 -1039.21C-382.837 -1048.48 -376.098 -1054.11 -367.549 -1052.69L577.841 -896.039C583.546 -895.094 589.202 -891.124 593.097 -885.332L1107.41 -120.527Z" stroke="white"/>
<path opacity="0.858586" d="M1104.79 -119.583C1112.04 -108.469 1110.4 -94.6628 1101.3 -90.2254L475.545 214.928C470.824 217.23 464.888 216.529 459.51 213.033L-438.774 -370.952C-446.906 -376.239 -451.951 -386.669 -450.852 -395.925L-373.093 -1051.01C-371.994 -1060.27 -365.054 -1065.81 -356.476 -1064.27L590.993 -894.654C596.665 -893.638 602.211 -889.652 605.975 -883.885L1104.79 -119.583Z" stroke="white"/>
<path opacity="0.868687" d="M1101.93 -118.772C1109.03 -107.558 1107.01 -93.7017 1097.66 -89.4119L460.867 202.68C456.079 204.876 450.17 204.102 444.884 200.586L-444.834 -391.054C-452.899 -396.417 -457.725 -406.896 -456.382 -416.13L-362.341 -1062.62C-360.998 -1071.85 -353.856 -1077.29 -345.251 -1075.64L603.985 -893.169C609.626 -892.085 615.064 -888.082 618.698 -882.341L1101.93 -118.772Z" stroke="white"/>
<path opacity="0.878788" d="M1098.84 -118.095C1105.77 -106.789 1103.37 -92.8998 1093.77 -88.7634L446.19 190.241C441.336 192.332 435.453 191.487 430.254 187.952L-450.648 -411.123C-458.644 -416.561 -463.247 -427.081 -461.657 -436.284L-351.449 -1074.03C-349.859 -1083.23 -342.515 -1088.57 -333.885 -1086.8L616.806 -891.587C622.417 -890.435 627.752 -886.416 631.257 -880.699L1098.84 -118.095Z" stroke="white"/>
<path opacity="0.888889" d="M1095.52 -117.555C1102.28 -106.166 1099.49 -92.2616 1089.64 -88.2843L431.527 177.612C426.607 179.6 420.747 178.684 415.633 175.128L-456.207 -431.157C-464.132 -436.668 -468.509 -447.222 -466.669 -456.385L-340.414 -1085.25C-338.574 -1094.41 -331.028 -1099.64 -322.376 -1097.75L629.46 -889.915C635.043 -888.696 640.277 -884.66 643.655 -878.968L1095.52 -117.555Z" stroke="white"/>
<path opacity="0.89899" d="M1091.98 -117.149C1098.55 -105.686 1095.36 -91.7863 1085.28 -87.9736L416.88 164.799C411.895 166.684 406.055 165.697 401.024 162.12L-461.514 -451.149C-469.367 -456.732 -473.514 -467.312 -471.423 -476.427L-329.241 -1096.27C-327.15 -1105.38 -319.402 -1110.5 -310.729 -1108.5L641.94 -888.153C647.497 -886.868 652.634 -882.814 655.886 -877.146L1091.98 -117.149Z" stroke="white"/>
<path opacity="0.909091" d="M1088.2 -116.883C1094.59 -105.355 1091 -91.4801 1080.69 -87.8371L402.252 151.799C397.202 153.582 391.381 152.525 386.429 148.926L-466.57 -471.101C-474.348 -476.754 -478.262 -487.351 -475.919 -496.409L-317.934 -1107.1C-315.591 -1116.16 -307.642 -1121.15 -298.951 -1119.03L654.243 -886.309C659.776 -884.958 664.818 -880.886 667.946 -875.242L1088.2 -116.883Z" stroke="white"/>
<path opacity="0.919192" d="M1084.22 -116.752C1090.41 -105.167 1086.41 -91.3375 1075.88 -87.8692L387.656 138.622C382.542 140.305 376.736 139.178 371.862 135.556L-471.365 -491C-479.066 -496.723 -482.746 -507.329 -480.149 -516.322L-306.49 -1117.73C-303.894 -1126.72 -295.746 -1131.59 -287.038 -1129.36L666.371 -884.38C671.882 -882.964 676.833 -878.873 679.838 -873.251L1084.22 -116.752Z" stroke="white"/>
<path opacity="0.929293" d="M1080 -116.762C1085.99 -105.131 1081.59 -91.3672 1070.83 -88.0781L373.088 125.263C367.909 126.847 362.115 125.65 357.315 122.004L-475.91 -510.852C-483.533 -516.642 -486.976 -527.249 -484.126 -536.167L-294.923 -1128.17C-292.073 -1137.09 -283.727 -1141.82 -275.005 -1139.47L678.312 -882.376C683.804 -880.895 688.666 -876.784 691.549 -871.185L1080 -116.762Z" stroke="white"/>
<path opacity="0.939394" d="M1075.57 -116.909C1081.35 -105.242 1076.55 -91.5649 1065.58 -88.4595L358.558 111.732C353.314 113.217 347.531 111.95 342.803 108.279L-480.198 -530.645C-487.741 -536.501 -490.945 -547.101 -487.842 -555.935L-283.228 -1138.41C-280.125 -1147.25 -271.584 -1151.84 -262.85 -1149.38L690.07 -880.296C695.544 -878.75 700.321 -874.619 703.084 -869.04L1075.57 -116.909Z" stroke="white"/>
<path opacity="0.949495" d="M1070.92 -117.206C1076.48 -105.513 1071.27 -91.9429 1060.1 -89.0252L344.063 98.0208C338.753 99.4077 332.978 98.0695 328.319 94.3725L-484.236 -550.388C-491.698 -556.309 -494.662 -566.893 -491.306 -575.634L-271.418 -1148.47C-268.063 -1157.21 -259.328 -1161.66 -250.584 -1159.08L701.632 -878.155C707.092 -876.544 711.786 -872.391 714.43 -866.832L1070.92 -117.206Z" stroke="white"/>
<path opacity="0.959596" d="M1066.06 -117.638C1071.4 -105.929 1065.79 -92.4873 1054.42 -89.761L329.621 84.1459C324.246 85.4357 318.476 84.0262 313.883 80.3018L-488.012 -570.062C-495.39 -576.046 -498.114 -586.606 -494.508 -595.245L-259.482 -1158.33C-255.876 -1166.97 -246.952 -1171.26 -238.2 -1168.57L713.01 -875.941C718.458 -874.265 723.073 -870.088 725.598 -864.549L1066.06 -117.638Z" stroke="white"/>
<path opacity="0.969697" d="M1060.98 -118.223C1066.09 -106.508 1060.08 -93.2163 1048.53 -90.6846L315.225 70.0942C309.783 71.2875 304.015 69.8061 299.487 66.0527L-491.537 -589.68C-498.83 -595.726 -501.314 -606.253 -497.459 -614.782L-247.437 -1168C-243.582 -1176.53 -234.472 -1180.66 -225.715 -1177.86L724.188 -873.675C729.626 -871.934 734.164 -867.732 736.572 -862.211L1060.98 -118.223Z" stroke="white"/>
<path opacity="0.979798" d="M1055.7 -118.946C1060.57 -107.236 1054.17 -94.1137 1042.45 -91.7797L300.893 55.8856C295.384 56.9827 289.615 55.4288 285.149 51.6447L-494.798 -609.222C-502.004 -615.328 -504.247 -625.814 -500.147 -634.224L-235.271 -1177.47C-231.17 -1185.88 -221.879 -1189.85 -213.117 -1186.94L735.178 -871.343C740.608 -869.536 745.072 -865.308 747.363 -859.804L1055.7 -118.946Z" stroke="white"/>
<path opacity="0.989899" d="M1050.2 -119.818C1054.83 -108.123 1048.05 -95.1915 1036.16 -93.0576L286.611 41.5121C281.033 42.5134 275.261 40.8859 270.854 37.0695L-497.814 -628.695C-504.931 -634.859 -506.935 -645.297 -502.593 -653.579L-223.007 -1186.76C-218.664 -1195.04 -209.196 -1198.83 -200.433 -1195.81L745.956 -868.961C751.381 -867.088 755.775 -862.831 757.949 -857.343L1050.2 -119.818Z" stroke="white"/>
<path d="M1044.49 -120.841C1048.88 -109.172 1041.72 -96.4492 1029.68 -94.5175L272.396 26.9775C266.749 27.8834 260.971 26.1815 256.622 22.3311L-500.57 -648.094C-507.597 -654.316 -509.364 -664.697 -504.782 -672.843L-210.635 -1195.85C-206.054 -1203.99 -196.413 -1207.61 -187.651 -1204.48L756.535 -866.531C761.958 -864.591 766.283 -860.304 768.342 -854.831L1044.49 -120.841Z" stroke="white"/>
</g>
</g>
<defs>
<filter id="filter0_f_1011_30" x="-88" y="-35.752" width="1616" height="1024.14" filterUnits="userSpaceOnUse" color-interpolation-filters="sRGB">
<feFlood flood-opacity="0" result="BackgroundImageFix"/>
<feBlend mode="normal" in="SourceGraphic" in2="BackgroundImageFix" result="shape"/>
<feGaussianBlur stdDeviation="100" result="effect1_foregroundBlur_1011_30"/>
</filter>
<radialGradient id="paint0_angular_1011_30" cx="0" cy="0" r="1" gradientUnits="userSpaceOnUse" gradientTransform="translate(1156 512.248) rotate(-143.517) scale(320.262 322.831)">
<stop stop-color="#F47A1A"/>
<stop offset="0.881899" stop-color="#EFC454" stop-opacity="0"/>
<stop offset="0.919482" stop-color="#111318"/>
</radialGradient>
</defs>
</svg>
