<svg width="1440" height="427" viewBox="0 0 1440 427" fill="none" xmlns="http://www.w3.org/2000/svg">
<rect width="1440" height="427" fill="#F47A1A"/>
<mask id="mask0_1011_444" style="mask-type:alpha" maskUnits="userSpaceOnUse" x="0" y="0" width="1440" height="427">
<rect width="1440" height="427" fill="#F47A1A"/>
</mask>
<g mask="url(#mask0_1011_444)">
<g opacity="0.2">
<path opacity="0.010101" d="M816.154 -124.709C821.266 -124.665 826.375 -122.25 830.254 -118.046L1779.31 910.533C1787.47 919.383 1787.81 933.255 1780.05 940.563L1123.54 1558.15C1118.67 1562.73 1111.6 1563.68 1105.13 1560.62L-264.085 913.607C-270.558 910.548 -275.396 903.974 -276.687 896.481L-450.729 -113.579C-452.788 -125.531 -445.317 -135.711 -434.556 -135.617L816.154 -124.709Z" stroke="white"/>
<path opacity="0.020202" d="M836.356 -123.324C841.479 -123.203 846.535 -120.75 850.319 -116.548L1779.9 915.554C1787.93 924.473 1787.91 938.329 1779.84 945.498L1103.89 1546.6C1098.86 1551.07 1091.73 1551.91 1085.31 1548.79L-276.746 887.843C-283.172 884.724 -287.866 878.145 -288.982 870.693L-439.015 -131.222C-440.804 -143.172 -432.979 -153.243 -422.104 -152.987L836.356 -123.324Z" stroke="white"/>
<path opacity="0.030303" d="M856.4 -121.75C861.537 -121.554 866.542 -119.061 870.235 -114.859L1780.13 920.432C1788.02 929.415 1787.63 943.236 1779.28 950.258L1084.16 1534.76C1078.97 1539.12 1071.78 1539.85 1065.4 1536.68L-289.086 862.053C-295.467 858.875 -300.019 852.292 -300.96 844.884L-427.037 -148.627C-428.552 -160.563 -420.375 -170.508 -409.393 -170.089L856.4 -121.75Z" stroke="white"/>
<path opacity="0.040404" d="M876.289 -119.99C881.442 -119.719 886.4 -117.185 890.003 -112.983L1780 925.168C1787.75 934.208 1786.99 947.977 1778.35 954.842L1064.35 1522.65C1059.01 1526.89 1051.76 1527.51 1045.42 1524.28L-301.095 836.247C-307.431 833.009 -311.843 826.423 -312.607 819.061L-414.79 -165.79C-416.026 -177.698 -407.501 -187.501 -396.418 -186.919L876.289 -119.99Z" stroke="white"/>
<path opacity="0.050505" d="M896.01 -118.049C901.18 -117.703 906.095 -115.128 909.611 -110.922L1779.52 929.757C1787.12 938.85 1785.98 952.548 1777.08 959.247L1044.47 1510.25C1038.98 1514.38 1031.66 1514.9 1025.37 1511.6L-312.777 810.43C-319.071 807.132 -323.344 800.543 -323.931 793.231L-402.287 -182.711C-403.239 -194.578 -394.371 -204.223 -383.194 -203.476L896.01 -118.049Z" stroke="white"/>
<path opacity="0.0606061" d="M915.565 -115.929C920.755 -115.51 925.631 -112.891 929.062 -108.679L1778.68 934.196C1786.13 943.337 1784.63 956.945 1775.45 963.47L1024.52 1497.59C1018.89 1501.6 1011.5 1502 1005.25 1498.64L-324.121 784.607C-330.373 781.249 -334.509 774.658 -334.919 767.398L-389.519 -199.387C-390.186 -211.199 -380.98 -220.669 -369.715 -219.759L915.565 -115.929Z" stroke="white"/>
<path opacity="0.0707071" d="M934.944 -113.634C940.157 -113.14 944.996 -110.477 948.344 -106.258L1777.49 938.485C1784.78 947.667 1782.92 961.168 1773.48 967.511L1004.53 1484.65C998.74 1488.54 991.294 1488.84 985.081 1485.42L-335.128 758.787C-341.341 755.368 -345.341 748.775 -345.574 741.571L-376.497 -215.815C-376.876 -227.559 -367.34 -236.838 -355.994 -235.765L934.944 -113.634Z" stroke="white"/>
<path opacity="0.0808081" d="M954.136 -111.179C959.373 -110.612 964.179 -107.903 967.446 -103.675L1775.95 942.608C1783.07 951.825 1780.85 965.2 1771.16 971.354L984.471 1471.44C978.539 1475.21 971.028 1475.39 964.853 1471.91L-345.805 732.964C-351.979 729.482 -355.844 722.889 -355.9 715.742L-363.229 -232.006C-363.319 -243.668 -353.461 -252.741 -342.043 -251.505L954.136 -111.179Z" stroke="white"/>
<path opacity="0.0909091" d="M973.148 -108.555C978.413 -107.914 983.189 -105.157 986.376 -100.918L1774.06 946.577C1781.01 955.824 1778.43 969.057 1768.52 975.013L964.379 1457.96C958.304 1461.61 950.727 1461.67 944.59 1458.13L-356.133 707.157C-362.271 703.613 -366.003 697.019 -365.881 689.933L-349.706 -247.942C-349.506 -259.51 -339.336 -268.361 -327.852 -266.963L973.148 -108.555Z" stroke="white"/>
<path opacity="0.10101" d="M991.966 -105.778C997.26 -105.063 1002.01 -102.255 1005.12 -98.0033L1771.82 950.376C1778.6 959.647 1775.67 972.72 1765.53 978.473L944.249 1444.21C938.032 1447.73 930.389 1447.68 924.287 1444.08L-366.122 681.36C-372.223 677.753 -375.823 671.158 -375.524 664.136L-335.939 -263.635C-335.45 -275.095 -324.98 -283.711 -313.436 -282.151L991.966 -105.778Z" stroke="white"/>
<path opacity="0.111111" d="M1010.58 -102.846C1015.91 -102.056 1020.63 -99.1966 1023.67 -94.9291L1769.23 954.009C1775.83 963.298 1772.56 976.196 1762.2 981.739L924.079 1430.2C917.724 1433.6 910.015 1433.43 903.947 1429.76L-375.773 655.585C-381.84 651.915 -385.31 645.32 -384.833 638.363L-321.939 -279.075C-321.161 -290.415 -310.402 -298.781 -298.807 -297.062L1010.58 -102.846Z" stroke="white"/>
<path opacity="0.121212" d="M1029 -99.7637C1034.36 -98.8981 1039.07 -95.9851 1042.03 -91.6999L1766.3 957.472C1772.72 966.773 1769.12 979.48 1758.56 984.808L903.897 1415.92C897.405 1419.2 889.629 1418.91 883.595 1415.18L-385.067 629.838C-391.102 626.103 -394.442 619.508 -393.788 612.619L-307.69 -294.261C-306.626 -305.47 -295.591 -313.574 -283.952 -311.695L1029 -99.7637Z" stroke="white"/>
<path opacity="0.131313" d="M1047.2 -96.5451C1052.6 -95.6033 1057.29 -92.6342 1060.17 -88.3294L1763.02 960.752C1769.26 970.059 1765.34 982.562 1754.58 987.67L883.686 1401.38C877.06 1404.53 869.217 1404.13 863.214 1400.32L-394.026 604.115C-400.029 600.313 -403.241 593.718 -402.411 586.901L-293.219 -309.201C-291.871 -320.265 -280.575 -328.096 -268.899 -326.06L1047.2 -96.5451Z" stroke="white"/>
<path opacity="0.141414" d="M1065.19 -93.1832C1070.64 -92.1643 1075.31 -89.1369 1078.12 -84.8101L1759.4 963.859C1765.45 973.166 1761.22 985.45 1750.29 990.334L863.467 1386.59C856.711 1389.61 848.8 1389.08 842.828 1385.21L-402.631 578.432C-408.603 574.564 -411.688 567.968 -410.682 561.225L-278.513 -323.881C-276.884 -334.789 -265.341 -342.336 -253.637 -340.144L1065.19 -93.1832Z" stroke="white"/>
<path opacity="0.151515" d="M1082.97 -89.6898C1088.45 -88.5927 1093.11 -85.5045 1095.85 -81.1539L1755.44 966.78C1761.29 976.081 1756.77 988.135 1745.67 992.791L843.241 1371.54C836.355 1374.43 828.377 1373.78 822.435 1369.84L-410.889 552.788C-416.832 548.851 -419.791 542.256 -418.609 535.588L-263.584 -338.305C-261.678 -349.048 -249.905 -356.3 -238.179 -353.954L1082.97 -89.6898Z" stroke="white"/>
<path opacity="0.161616" d="M1100.52 -86.0671C1106.05 -84.8906 1110.7 -81.7389 1113.37 -77.3624L1751.14 969.516C1756.8 978.806 1751.99 990.618 1740.74 995.043L823.018 1356.24C816.006 1359 807.961 1358.22 802.048 1354.22L-418.794 527.191C-424.707 523.185 -427.543 516.59 -426.185 510L-248.431 -352.469C-246.254 -363.036 -234.267 -369.985 -222.526 -367.488L1100.52 -86.0671Z" stroke="white"/>
<path opacity="0.171717" d="M1117.83 -82.3247C1123.41 -81.0675 1128.06 -77.8498 1130.65 -73.4452L1746.49 972.059C1751.96 981.331 1746.88 992.892 1735.5 997.084L802.797 1340.68C795.662 1343.31 787.55 1342.41 781.665 1338.33L-426.352 501.64C-432.238 497.564 -434.95 490.969 -433.417 484.461L-233.067 -366.376C-230.622 -376.757 -218.438 -383.397 -206.691 -380.751L1117.83 -82.3247Z" stroke="white"/>
<path opacity="0.181818" d="M1134.92 -78.457C1140.55 -77.1175 1145.2 -73.8313 1147.72 -69.3965L1741.52 974.415C1746.78 983.665 1741.45 994.964 1729.94 998.922L782.595 1324.89C775.341 1327.38 767.162 1326.35 761.303 1322.21L-433.552 476.152C-439.41 472.004 -442 465.409 -440.294 458.984L-217.484 -380.014C-214.779 -390.2 -202.415 -396.525 -190.668 -393.731L1134.92 -78.457Z" stroke="white"/>
<path opacity="0.191919" d="M1151.77 -74.4833C1157.46 -73.06 1162.1 -69.7022 1164.55 -65.2354L1736.22 976.567C1741.28 985.789 1735.7 996.82 1724.08 1000.54L762.412 1308.84C755.041 1311.2 746.795 1310.04 740.964 1305.82L-440.4 450.717C-446.231 446.496 -448.7 439.901 -446.821 433.562L-201.695 -393.394C-198.736 -403.378 -186.209 -409.382 -174.469 -406.444L1151.77 -74.4833Z" stroke="white"/>
<path opacity="0.20202" d="M1168.38 -70.3936C1174.13 -68.8848 1178.77 -65.4528 1181.14 -60.9521L1730.58 978.526C1735.44 987.714 1729.63 998.47 1717.92 1001.96L742.257 1292.56C734.771 1294.79 726.46 1293.5 720.655 1289.2L-446.892 425.354C-452.697 421.059 -455.045 414.464 -452.994 408.213L-185.701 -406.5C-182.495 -416.274 -169.823 -421.955 -158.098 -418.875L1168.38 -70.3936Z" stroke="white"/>
<path opacity="0.212121" d="M1184.74 -66.2054C1190.55 -64.6092 1195.19 -61.0999 1197.49 -56.5635L1724.61 980.277C1729.27 989.426 1723.24 999.902 1711.45 1003.15L722.131 1276.03C714.534 1278.13 706.157 1276.7 700.378 1272.33L-453.034 400.057C-458.813 395.687 -461.04 389.092 -458.819 382.931L-169.514 -419.344C-166.067 -428.901 -153.268 -434.255 -141.565 -431.036L1184.74 -66.2054Z" stroke="white"/>
<path opacity="0.222222" d="M1200.86 -61.9165C1206.72 -60.2309 1211.37 -56.6412 1213.6 -52.0674L1718.33 981.823C1722.77 990.928 1716.54 1001.12 1704.69 1004.14L702.046 1259.28C694.342 1261.24 685.901 1259.68 680.148 1255.23L-458.817 374.837C-464.569 370.391 -466.678 363.795 -464.287 357.728L-153.129 -431.915C-149.451 -441.249 -136.542 -446.276 -124.867 -442.921L1200.86 -61.9165Z" stroke="white"/>
<path opacity="0.232323" d="M1216.71 -57.5397C1222.64 -55.7629 1227.29 -52.0896 1229.45 -47.4768L1711.71 983.153C1715.95 992.21 1709.54 1002.11 1697.63 1004.9L682.006 1242.28C674.197 1244.1 665.693 1242.41 659.966 1237.88L-464.245 349.691C-469.971 345.167 -471.962 338.572 -469.402 332.599L-136.557 -444.22C-132.655 -453.327 -119.655 -458.026 -108.014 -454.537L1216.71 -57.5397Z" stroke="white"/>
<path opacity="0.242424" d="M1232.31 -53.0705C1238.31 -51.2001 1242.96 -47.4404 1245.05 -42.7868L1704.78 984.274C1708.81 993.278 1702.22 1002.89 1690.27 1005.44L662.014 1225.06C654.104 1226.75 645.538 1224.91 639.837 1220.31L-469.32 324.634C-475.021 320.031 -476.893 313.435 -474.167 307.559L-119.807 -456.249C-115.689 -465.123 -102.614 -469.496 -91.0139 -465.877L1232.31 -53.0705Z" stroke="white"/>
<path opacity="0.252525" d="M1247.65 -48.5186C1253.71 -46.5524 1258.38 -42.7027 1260.38 -38.007L1697.52 985.179C1701.35 994.124 1694.6 1003.44 1682.63 1005.77L642.083 1207.61C634.075 1209.16 625.447 1207.19 619.773 1202.51L-474.037 299.665C-479.712 294.981 -481.466 288.385 -478.575 282.609L-102.877 -468.003C-98.5529 -476.642 -85.4192 -480.69 -73.8662 -476.944L1247.65 -48.5186Z" stroke="white"/>
<path opacity="0.262626" d="M1262.72 -43.8883C1268.86 -41.8241 1273.53 -37.8811 1275.46 -33.1419L1689.96 985.864C1693.58 994.746 1686.69 1003.78 1674.69 1005.87L622.217 1189.94C614.115 1191.36 605.428 1189.24 599.781 1184.48L-478.397 274.789C-484.044 270.024 -485.682 263.428 -482.627 257.753L-85.7736 -479.484C-81.2522 -487.883 -68.0767 -491.609 -56.5768 -487.74L1262.72 -43.8883Z" stroke="white"/>
<path opacity="0.272727" d="M1277.52 -39.1852C1283.73 -37.0204 1288.41 -32.981 1290.26 -28.197L1682.08 986.326C1685.49 995.141 1678.47 1003.88 1666.47 1005.75L602.415 1172.05C594.222 1173.33 585.478 1171.07 579.858 1166.23L-482.406 250.011C-488.026 245.164 -489.547 238.568 -486.33 232.996L-68.5113 -490.688C-63.8014 -498.845 -50.5999 -502.253 -39.1589 -498.264L1277.52 -39.1852Z" stroke="white"/>
<path opacity="0.282828" d="M1292.04 -34.4158C1298.33 -32.148 1303.02 -28.0085 1304.79 -23.1786L1673.9 986.561C1677.09 995.305 1669.95 1003.75 1657.97 1005.41L582.692 1153.94C574.412 1155.09 565.612 1152.68 560.02 1147.75L-486.057 225.333C-491.649 220.403 -493.053 213.806 -489.676 208.339L-51.0868 -501.617C-46.1975 -509.532 -32.9852 -512.625 -21.6087 -508.519L1292.04 -34.4158Z" stroke="white"/>
<path opacity="0.292929" d="M1306.29 -29.5831C1312.65 -27.2099 1317.35 -22.9669 1319.04 -18.0902L1665.4 986.568C1668.39 995.237 1661.15 1003.4 1649.18 1004.84L563.045 1135.62C554.682 1136.63 545.828 1134.08 540.265 1129.07L-489.358 200.763C-494.921 195.747 -496.209 189.151 -492.674 183.791L-33.5148 -512.269C-28.4554 -519.939 -15.247 -522.724 -3.94037 -518.505L1306.29 -29.5831Z" stroke="white"/>
<path opacity="0.30303" d="M1320.26 -24.6898C1326.7 -22.2083 1331.42 -17.8583 1333.01 -12.9338L1656.62 986.347C1659.4 994.938 1652.06 1002.81 1640.12 1004.04L543.494 1117.1C535.05 1117.97 526.145 1115.27 520.612 1110.17L-492.297 176.306C-497.83 171.205 -499.003 164.609 -495.311 159.357L-15.7893 -522.64C-10.5688 -530.065 2.62153 -532.547 13.8531 -528.218L1320.26 -24.6898Z" stroke="white"/>
<path opacity="0.313131" d="M1333.94 -19.7523C1340.46 -17.1601 1345.19 -12.6996 1346.69 -7.72642L1647.52 985.884C1650.1 994.393 1642.67 1001.99 1630.77 1003.01L524.025 1098.36C515.505 1099.09 506.551 1096.25 501.049 1091.06L-494.894 151.955C-500.395 146.767 -501.452 140.172 -497.606 135.031L2.06541 -532.742C7.43775 -539.922 20.5967 -542.107 31.748 -537.672L1333.94 -19.7523Z" stroke="white"/>
<path opacity="0.323232" d="M1347.34 -14.7597C1353.94 -12.0539 1358.68 -7.47918 1360.1 -2.45677L1638.14 985.192C1640.51 993.615 1633.01 1000.93 1621.16 1001.75L504.667 1079.42C496.074 1080.02 487.073 1077.02 481.604 1071.75L-497.126 127.732C-502.595 122.456 -503.536 115.861 -499.537 110.832L20.0647 -542.558C25.5797 -549.494 38.6946 -551.39 49.761 -546.852L1347.34 -14.7597Z" stroke="white"/>
<path opacity="0.333333" d="M1360.45 -9.72769C1367.13 -6.90558 1371.88 -2.21308 1373.2 2.8591L1628.47 984.259C1630.63 992.593 1623.07 999.634 1611.28 1000.26L485.409 1060.28C476.747 1060.74 467.701 1057.6 462.266 1052.24L-499.012 103.628C-504.447 98.2646 -505.272 91.6694 -501.123 86.7541L38.1853 -552.101C43.8342 -558.792 56.8929 -560.406 67.8698 -555.769L1360.45 -9.72769Z" stroke="white"/>
<path opacity="0.343434" d="M1373.26 -4.65663C1380.02 -1.71534 1384.79 3.09861 1386.01 8.22102L1618.51 983.087C1620.47 991.33 1612.86 998.1 1601.13 998.538L466.259 1040.95C457.531 1041.28 448.445 1037.98 443.045 1032.53L-500.549 79.6544C-505.949 74.2012 -506.658 67.6065 -502.361 62.8061L56.4234 -561.364C62.1972 -567.813 75.1884 -569.152 86.0713 -564.419L1373.26 -4.65663Z" stroke="white"/>
<path opacity="0.353535" d="M1385.78 0.444565C1392.62 3.50775 1397.4 8.44691 1398.52 13.6198L1608.26 981.669C1610.03 989.817 1602.37 996.323 1590.72 996.576L447.228 1021.43C438.438 1021.62 429.313 1018.17 423.95 1012.63L-501.734 55.8094C-507.097 50.2661 -507.69 43.6721 -503.247 38.9881L74.7763 -570.352C80.6664 -576.561 93.5794 -577.633 104.364 -572.809L1385.78 0.444565Z" stroke="white"/>
<path opacity="0.363636" d="M1398 5.57449C1404.93 8.7624 1409.72 13.8307 1410.73 19.0539L1597.74 980.009C1599.31 988.059 1591.62 994.304 1580.05 994.378L428.319 1001.72C419.471 1001.78 410.311 998.172 404.986 992.538L-502.57 32.1016C-507.894 26.4672 -508.371 19.8739 -503.784 15.3075L93.2367 -579.063C99.2344 -585.034 112.059 -585.848 122.742 -580.935L1398 5.57449Z" stroke="white"/>
<path opacity="0.373737" d="M1409.91 10.7249C1416.93 14.0405 1421.72 19.2416 1422.63 24.5152L1586.94 978.099C1588.31 986.048 1580.59 992.04 1569.11 991.94L409.532 981.827C400.629 981.749 391.437 977.988 386.153 972.262L-503.065 8.53124C-508.348 2.80513 -508.708 -3.78724 -503.98 -8.23475L111.791 -587.501C117.888 -593.236 130.615 -593.799 141.192 -588.801L1409.91 10.7249Z" stroke="white"/>
<path opacity="0.383838" d="M1421.53 15.8939C1428.63 19.3401 1433.44 24.6778 1434.23 30.0017L1575.88 975.942C1577.06 983.788 1569.32 989.532 1557.93 989.263L390.887 961.755C381.932 961.544 372.711 957.627 367.47 951.808L-503.206 -14.8946C-508.446 -20.7131 -508.689 -27.3043 -503.823 -31.632L130.445 -595.663C136.633 -601.166 149.255 -601.487 159.721 -596.408L1421.53 15.8939Z" stroke="white"/>
<path opacity="0.393939" d="M1432.84 21.0755C1440.02 24.6551 1444.84 30.1333 1445.52 35.5071L1564.56 973.534C1565.54 981.276 1557.79 986.776 1546.5 986.345L372.378 941.507C363.376 941.163 354.129 937.089 348.934 931.178L-503.004 -38.1731C-508.2 -44.0846 -508.325 -50.6746 -503.322 -54.8813L149.183 -603.551C155.454 -608.825 167.962 -608.913 178.316 -603.756L1432.84 21.0755Z" stroke="white"/>
<path opacity="0.40404" d="M1443.84 26.2659C1451.11 29.9819 1455.93 35.6043 1456.49 41.0277L1552.97 970.876C1553.76 978.51 1546.01 983.773 1534.83 983.185L354.016 921.089C344.97 920.614 335.701 916.382 330.553 910.377L-502.457 -61.2991C-507.605 -67.3042 -507.613 -73.8928 -502.476 -77.9775L168.003 -611.166C174.35 -616.214 186.737 -616.077 196.974 -610.846L1443.84 26.2659Z" stroke="white"/>
<path opacity="0.414141" d="M1454.53 31.456C1461.89 35.3112 1466.71 41.0818 1467.15 46.5538L1541.13 967.961C1541.73 975.487 1533.97 980.518 1522.91 979.779L335.8 900.502C326.713 899.895 317.426 895.505 312.328 889.405L-501.573 -84.2734C-506.671 -90.3727 -506.56 -96.9597 -501.292 -100.922L186.89 -618.514C193.306 -623.339 205.565 -622.986 215.682 -617.684L1454.53 31.456Z" stroke="white"/>
<path opacity="0.424242" d="M1464.9 36.6398C1472.34 40.6369 1477.17 46.5597 1477.48 52.0798L1529.03 964.788C1529.45 972.202 1521.69 977.008 1510.74 976.123L317.734 879.747C308.61 879.01 299.308 874.461 294.262 868.267L-500.354 -107.093C-505.4 -113.287 -505.17 -119.872 -499.773 -123.711L205.839 -625.596C212.316 -630.203 224.44 -629.642 234.435 -624.273L1464.9 36.6398Z" stroke="white"/>
<path opacity="0.434343" d="M1474.97 41.8239C1482.49 45.9659 1487.32 52.0447 1487.5 57.6117L1516.69 961.366C1516.93 968.667 1509.18 973.253 1498.35 972.229L299.836 858.841C290.678 857.974 281.366 853.266 276.375 846.977L-498.79 -129.744C-503.781 -136.033 -503.431 -142.616 -497.908 -146.33L224.854 -632.404C231.384 -636.796 243.369 -636.036 253.239 -630.604L1474.97 41.8239Z" stroke="white"/>
<path opacity="0.444444" d="M1484.71 46.9889C1492.32 51.2788 1497.14 57.5173 1497.18 63.1304L1504.1 957.68C1504.16 964.865 1496.43 969.238 1485.73 968.079L282.096 837.773C272.907 836.778 263.589 831.909 258.656 825.525L-496.898 -152.236C-501.831 -158.62 -501.361 -165.201 -495.714 -168.791L243.912 -638.953C250.49 -643.134 262.33 -642.184 272.071 -636.691L1484.71 46.9889Z" stroke="white"/>
<path opacity="0.454545" d="M1494.14 52.1377C1501.83 56.578 1506.65 62.9803 1506.55 68.6379L1491.28 953.735C1491.16 960.805 1483.46 964.97 1472.88 963.682L264.53 816.555C255.314 815.433 245.993 810.404 241.121 803.924L-494.669 -174.559C-499.542 -181.039 -498.95 -187.617 -493.182 -191.081L263.019 -645.238C269.638 -649.213 281.329 -648.08 290.939 -642.531L1494.14 52.1377Z" stroke="white"/>
<path opacity="0.464646" d="M1503.25 57.2674C1511.03 61.861 1515.83 68.4307 1515.59 74.1314L1478.24 949.534C1477.94 956.486 1470.26 960.449 1459.81 959.038L247.142 795.194C237.901 793.945 228.582 788.756 223.773 782.18L-492.108 -196.707C-496.917 -203.283 -496.203 -209.859 -490.316 -213.197L282.165 -651.259C288.819 -655.033 300.357 -653.725 309.834 -648.123L1503.25 57.2674Z" stroke="white"/>
<path opacity="0.474747" d="M1512.05 62.3704C1519.9 67.1199 1524.69 73.861 1524.29 79.6033L1464.96 945.073C1464.49 951.906 1456.84 955.672 1446.53 954.142L229.935 773.69C220.673 772.317 211.36 766.966 206.618 760.294L-489.218 -218.68C-493.96 -225.352 -493.122 -231.924 -487.119 -235.136L301.343 -657.021C308.026 -660.597 319.407 -659.123 328.749 -653.471L1512.05 62.3704Z" stroke="white"/>
<path opacity="0.484848" d="M1520.51 67.4403C1528.44 72.3482 1533.22 79.2645 1532.67 85.0464L1451.47 940.348C1450.83 947.061 1443.2 950.636 1433.03 948.994L212.91 752.047C203.631 750.55 194.329 745.038 189.656 738.27L-486.003 -240.476C-490.675 -247.244 -489.713 -253.814 -483.597 -256.899L320.543 -662.528C327.25 -665.912 338.47 -664.279 347.675 -658.581L1520.51 67.4403Z" stroke="white"/>
<path opacity="0.494949" d="M1528.66 72.4738C1536.66 77.5427 1541.42 84.6381 1540.71 90.4577L1437.76 935.361C1436.95 941.953 1429.36 945.343 1419.32 943.593L196.077 730.271C186.783 728.65 177.496 722.978 172.897 716.114L-482.465 -262.091C-487.063 -268.955 -485.975 -275.521 -479.748 -278.479L339.761 -667.782C346.486 -670.976 357.544 -669.193 366.61 -663.452L1528.66 72.4738Z" stroke="white"/>
<path opacity="0.50505" d="M1536.48 77.4642C1544.56 82.6967 1549.29 89.9747 1548.41 95.8298L1423.83 930.11C1422.87 936.579 1415.31 939.789 1405.41 937.936L179.437 708.363C170.131 706.62 160.863 700.787 156.341 693.827L-478.607 -283.524C-483.129 -290.484 -481.914 -297.046 -475.578 -299.877L358.988 -672.786C365.726 -675.796 376.618 -673.869 385.543 -668.088L1536.48 77.4642Z" stroke="white"/>
<path opacity="0.515152" d="M1543.98 82.4091C1552.13 87.8074 1556.82 95.2716 1555.78 101.16L1409.71 924.595C1408.58 930.941 1401.06 933.976 1391.31 932.025L162.998 686.33C153.682 684.467 144.439 678.473 139.998 671.417L-474.43 -304.769C-478.871 -311.826 -477.527 -318.384 -471.087 -321.087L378.221 -677.541C384.967 -680.372 395.692 -678.309 404.474 -672.491L1543.98 82.4091Z" stroke="white"/>
<path opacity="0.525253" d="M1551.15 87.3038C1559.37 92.8701 1564.03 100.524 1562.81 106.443L1395.38 918.816C1394.1 925.038 1386.62 927.904 1377.01 925.86L146.763 664.177C137.442 662.194 128.227 656.04 123.87 648.888L-469.937 -325.825C-474.294 -332.977 -472.821 -339.53 -466.277 -342.106L397.451 -682.05C404.2 -684.706 414.757 -682.514 423.395 -676.663L1551.15 87.3038Z" stroke="white"/>
<path opacity="0.535354" d="M1557.99 92.1475C1566.28 97.8841 1570.9 105.732 1569.5 111.679L1380.86 912.778C1379.42 918.875 1371.99 921.577 1362.52 919.443L130.736 641.912C121.411 639.811 112.23 633.497 107.961 626.249L-465.133 -346.683C-469.402 -353.931 -467.797 -360.479 -461.152 -362.927L416.671 -686.311C423.42 -688.797 433.806 -686.483 442.298 -680.601L1557.99 92.1475Z" stroke="white"/>
<path opacity="0.545455" d="M1564.51 96.9248C1572.85 102.834 1577.43 110.878 1575.84 116.85L1366.15 906.468C1364.56 912.44 1357.17 914.982 1347.85 912.764L114.919 619.528C105.593 617.31 96.4517 610.837 92.2745 603.494L-460.022 -367.354C-464.199 -374.696 -462.462 -381.239 -455.718 -383.559L435.873 -690.34C442.617 -692.66 452.832 -690.231 461.177 -684.322L1564.51 96.9248Z" stroke="white"/>
<path opacity="0.555556" d="M1570.7 101.646C1579.11 107.729 1583.63 115.973 1581.85 121.967L1351.26 899.901C1349.52 905.748 1342.18 908.135 1333 905.837L99.3249 597.045C90.0021 594.712 80.9041 588.08 76.823 580.642L-454.599 -387.818C-458.68 -395.255 -456.808 -401.792 -449.969 -403.984L455.059 -694.123C461.793 -696.282 471.837 -693.744 480.034 -687.811L1570.7 101.646Z" stroke="white"/>
<path opacity="0.565657" d="M1576.56 106.292C1585.02 112.551 1589.48 120.998 1587.51 127.011L1336.18 893.063C1334.31 898.783 1327.01 901.02 1317.98 898.646L83.9457 574.453C74.6275 572.005 65.5787 565.215 61.5977 557.683L-448.88 -408.088C-452.861 -415.62 -450.853 -422.15 -443.92 -424.215L474.209 -697.68C480.931 -699.682 490.803 -697.04 498.85 -691.086L1576.56 106.292Z" stroke="white"/>
<path opacity="0.575758" d="M1582.1 110.871C1590.61 117.308 1595.01 125.96 1592.84 131.989L1320.95 885.965C1318.93 891.559 1311.69 893.65 1302.8 891.205L68.8014 551.767C59.4907 549.206 50.4961 542.258 46.6196 534.633L-442.852 -428.151C-446.729 -435.776 -444.582 -442.298 -437.559 -444.236L493.333 -701C500.039 -702.85 509.739 -700.111 517.636 -694.139L1582.1 110.871Z" stroke="white"/>
<path opacity="0.585859" d="M1587.3 115.372C1595.86 121.987 1600.19 130.848 1597.81 136.889L1305.54 878.603C1303.38 884.07 1296.19 886.02 1287.44 883.506L53.8769 528.988C44.5759 526.315 35.641 519.211 31.8734 511.493L-436.538 -448.009C-440.306 -455.727 -438.019 -462.241 -430.907 -464.051L512.406 -704.093C519.093 -705.795 528.62 -702.965 536.367 -696.978L1587.3 115.372Z" stroke="white"/>
<path opacity="0.59596" d="M1592.18 119.79C1600.79 126.586 1605.03 135.657 1602.44 141.706L1289.97 870.974C1287.68 876.314 1280.54 878.127 1271.94 875.55L39.1902 506.117C29.9019 503.334 21.0319 496.074 17.3777 488.265L-429.927 -467.662C-433.581 -475.472 -431.152 -481.977 -423.954 -483.659L531.435 -706.964C538.1 -708.522 547.456 -705.607 555.05 -699.607L1592.18 119.79Z" stroke="white"/>
<path opacity="0.606061" d="M1596.74 124.125C1605.38 131.102 1609.53 140.387 1606.73 146.439L1274.25 863.083C1271.83 868.296 1264.74 869.976 1256.28 867.339L24.7416 483.164C15.4682 480.271 6.66884 472.858 3.13278 464.958L-423.026 -487.104C-426.562 -495.004 -423.989 -501.499 -416.706 -503.054L550.412 -709.612C557.052 -711.03 566.236 -708.035 573.679 -702.025L1596.74 124.125Z" stroke="white"/>
<path opacity="0.616162" d="M1600.97 128.371C1609.64 135.53 1613.7 145.03 1610.67 151.082L1258.38 854.929C1255.83 860.016 1248.79 861.567 1240.48 858.872L10.5348 460.132C1.27854 457.132 -7.44475 449.565 -10.858 441.576L-415.839 -506.333C-419.252 -514.322 -416.532 -520.806 -409.168 -522.234L569.329 -712.041C575.941 -713.324 584.955 -710.254 592.245 -704.237L1600.97 128.371Z" stroke="white"/>
<path opacity="0.626263" d="M1604.86 132.521C1613.57 139.863 1617.52 149.579 1614.26 155.626L1242.36 846.509C1239.69 851.469 1232.7 852.895 1224.54 850.147L-3.43063 437.022C-12.6673 433.915 -21.3088 426.196 -24.5943 418.119L-408.373 -525.351C-411.659 -533.428 -408.79 -539.9 -401.347 -541.202L588.176 -714.259C594.758 -715.411 603.602 -712.271 610.739 -706.249L1604.86 132.521Z" stroke="white"/>
<path opacity="0.636364" d="M1608.44 136.577C1617.16 144.102 1621 154.036 1617.51 160.075L1226.21 837.83C1223.42 842.664 1216.48 843.968 1208.46 841.17L-17.147 413.845C-26.3618 410.632 -34.9156 402.763 -38.0685 394.6L-400.629 -544.151C-403.782 -552.314 -400.762 -558.773 -393.242 -559.948L606.951 -716.264C613.502 -717.287 622.177 -714.082 629.161 -708.059L1608.44 136.577Z" stroke="white"/>
<path opacity="0.646465" d="M1611.69 140.532C1620.43 148.241 1624.14 158.393 1620.42 164.418L1209.93 828.89C1207.02 833.597 1200.14 834.784 1192.25 831.938L-30.6094 390.602C-39.7999 387.285 -48.2604 379.268 -51.2755 371.02L-392.609 -562.733C-395.624 -570.981 -392.45 -577.425 -384.855 -578.475L625.65 -718.061C632.167 -718.961 640.675 -715.695 647.506 -709.672L1611.69 140.532Z" stroke="white"/>
<path opacity="0.656566" d="M1614.61 144.381C1623.36 152.273 1626.94 162.645 1622.98 168.651L1193.52 819.687C1190.49 824.269 1183.67 825.341 1175.92 822.451L-43.8202 367.296C-52.9842 363.876 -61.3455 355.714 -64.2177 347.383L-384.322 -581.098C-387.194 -589.429 -383.863 -595.857 -376.196 -596.78L644.262 -719.656C650.742 -720.436 659.085 -717.114 665.762 -711.093L1614.61 144.381Z" stroke="white"/>
<path opacity="0.666667" d="M1617.21 148.127C1625.97 156.201 1629.4 166.792 1625.2 172.775L1176.99 810.229C1173.86 814.685 1167.08 815.646 1159.48 812.714L-56.7661 343.938C-65.9014 340.417 -74.1572 332.11 -76.8812 323.699L-375.762 -599.237C-378.486 -607.649 -374.996 -614.06 -367.259 -614.857L662.789 -721.047C669.232 -721.711 677.411 -718.336 683.935 -712.32L1617.21 148.127Z" stroke="white"/>
<path opacity="0.676768" d="M1619.49 151.756C1628.25 160.014 1631.52 170.823 1627.07 176.776L1160.35 800.507C1157.11 804.839 1150.39 805.692 1142.92 802.721L-69.4542 320.524C-78.5588 316.903 -86.7033 308.455 -89.2737 299.964L-366.944 -617.159C-369.514 -625.649 -365.863 -632.041 -358.058 -632.713L681.216 -722.245C687.62 -722.797 695.638 -719.373 702.009 -713.365L1619.49 151.756Z" stroke="white"/>
<path opacity="0.686869" d="M1621.46 155.271C1630.21 163.71 1633.31 174.736 1628.6 180.655L1143.61 790.528C1140.26 794.735 1133.59 795.484 1126.26 792.476L-81.8741 297.063C-90.9457 293.343 -98.9728 284.755 -101.384 276.189L-357.865 -634.858C-360.276 -643.424 -356.46 -649.794 -348.59 -650.342L699.545 -723.252C705.909 -723.695 713.766 -720.226 719.985 -714.227L1621.46 155.271Z" stroke="white"/>
<path opacity="0.69697" d="M1623.1 158.668C1631.83 167.287 1634.76 178.529 1629.79 184.408L1126.76 780.292C1123.31 784.376 1116.7 785.023 1109.49 781.981L-94.028 273.561C-103.065 269.743 -110.968 261.018 -113.215 252.38L-348.533 -652.331C-350.78 -660.97 -346.797 -667.317 -338.863 -667.74L717.765 -724.07C724.088 -724.407 731.787 -720.896 737.854 -714.909L1623.1 158.668Z" stroke="white"/>
<path opacity="0.707071" d="M1624.41 161.944C1633.13 170.742 1635.86 182.197 1630.64 188.031L1109.81 769.802C1106.26 773.763 1099.7 774.311 1092.63 771.237L-105.919 250.021C-114.919 246.107 -122.692 237.249 -124.769 228.54L-338.96 -669.578C-341.037 -678.287 -336.884 -684.608 -328.889 -684.907L735.864 -724.702C742.145 -724.936 749.688 -721.387 755.603 -715.413L1624.41 161.944Z" stroke="white"/>
<path opacity="0.717172" d="M1625.43 165.098C1634.11 174.072 1636.64 185.738 1631.15 191.52L1092.78 759.059C1089.14 762.898 1082.62 763.35 1075.68 760.245L-117.526 226.449C-126.487 222.441 -134.124 213.452 -136.025 204.677L-329.13 -686.596C-331.031 -695.371 -326.705 -701.665 -318.651 -701.84L753.855 -725.151C760.093 -725.287 767.483 -721.702 773.248 -715.743L1625.43 165.098Z" stroke="white"/>
<path opacity="0.727273" d="M1626.12 168.122C1634.76 177.27 1637.07 189.143 1631.32 194.868L1075.66 748.061C1071.93 751.779 1065.47 752.138 1058.65 749.005L-128.863 202.848C-137.782 198.746 -145.276 189.63 -146.996 180.791L-319.065 -703.387C-320.785 -712.226 -316.283 -718.489 -308.172 -718.541L771.717 -725.425C777.912 -725.465 785.15 -721.847 790.765 -715.905L1626.12 168.122Z" stroke="white"/>
<path opacity="0.737374" d="M1626.5 171.013C1635.1 180.333 1637.18 192.408 1631.16 198.069L1058.47 736.809C1054.65 740.407 1048.23 740.675 1041.54 737.515L-139.92 179.219C-148.796 175.025 -156.142 165.786 -157.675 156.888L-308.763 -719.953C-310.296 -728.851 -305.615 -735.081 -297.45 -735.009L789.448 -725.53C795.6 -725.477 802.689 -721.829 808.155 -715.905L1626.5 171.013Z" stroke="white"/>
<path opacity="0.747475" d="M1626.56 173.77C1635.11 183.259 1636.95 195.531 1630.66 201.122L1041.2 725.306C1037.29 728.786 1030.92 728.965 1024.36 725.779L-150.7 155.571C-159.531 151.286 -166.722 141.927 -168.062 132.974L-298.231 -736.29C-299.572 -745.243 -294.71 -751.436 -286.492 -751.242L807.041 -725.467C813.15 -725.323 820.093 -721.647 825.411 -715.743L1626.56 173.77Z" stroke="white"/>
<path opacity="0.757576" d="M1626.36 176.419C1634.85 186.073 1636.43 198.535 1629.87 204.051L1023.91 713.582C1019.91 716.944 1013.59 717.036 1007.15 713.828L-161.157 131.936C-169.941 127.561 -176.97 118.087 -178.113 109.083L-287.432 -752.37C-288.575 -761.374 -283.528 -767.526 -275.26 -767.211L824.534 -725.211C830.599 -724.98 837.4 -721.278 842.571 -715.395L1626.36 176.419Z" stroke="white"/>
<path opacity="0.767677" d="M1625.82 178.906C1634.23 188.722 1635.55 201.368 1628.71 206.802L1006.52 701.59C1002.44 704.835 996.17 704.843 989.846 701.612L-171.363 108.268C-180.098 103.805 -186.959 94.2195 -187.898 85.1694L-276.444 -768.241C-277.383 -777.291 -272.149 -783.4 -263.833 -782.963L841.847 -724.818C847.868 -724.502 854.529 -720.777 859.554 -714.915L1625.82 178.906Z" stroke="white"/>
<path opacity="0.777778" d="M1624.97 181.249C1633.3 191.222 1634.33 204.043 1627.23 209.388L989.079 689.348C984.918 692.477 978.69 692.403 972.483 689.15L-181.287 84.5894C-189.971 80.0394 -196.658 70.3481 -197.388 61.2572L-265.242 -783.886C-265.972 -792.977 -260.549 -799.039 -252.186 -798.48L859.003 -724.273C864.982 -723.874 871.504 -720.127 876.385 -714.288L1624.97 181.249Z" stroke="white"/>
<path opacity="0.787879" d="M1623.81 183.446C1632.06 193.572 1632.79 206.56 1625.41 211.809L971.588 676.86C967.349 679.875 961.165 679.721 955.071 676.448L-190.922 60.9078C-199.552 56.2723 -206.06 46.4799 -206.575 37.3536L-253.826 -799.302C-254.342 -808.428 -248.726 -814.439 -240.319 -813.76L876.003 -723.579C881.939 -723.099 888.327 -719.332 893.065 -713.517L1623.81 183.446Z" stroke="white"/>
<path opacity="0.79798" d="M1622.36 185.507C1630.52 195.78 1630.94 208.924 1623.28 214.072L954.061 664.14C949.746 667.042 943.604 666.809 937.622 663.516L-200.26 37.2381C-208.835 32.5183 -215.157 22.6302 -215.453 13.4741L-242.195 -814.477C-242.491 -823.633 -236.681 -829.588 -228.232 -828.789L892.847 -722.728C898.741 -722.17 904.998 -718.384 909.593 -712.593L1622.36 185.507Z" stroke="white"/>
<path opacity="0.808081" d="M1620.61 187.416C1628.66 197.831 1628.76 211.12 1620.83 216.161L936.497 651.177C932.108 653.967 926.007 653.657 920.133 650.345L-209.308 13.5722C-217.827 8.76951 -223.957 -1.2086 -224.028 -10.3883L-230.362 -829.426C-230.433 -838.605 -224.426 -844.5 -215.937 -843.581L909.522 -721.738C915.375 -721.104 921.503 -717.3 925.958 -711.535L1620.61 187.416Z" stroke="white"/>
<path opacity="0.818182" d="M1618.57 189.177C1626.51 199.729 1626.28 213.151 1618.08 218.077L918.911 637.978C914.45 640.658 908.387 640.272 902.619 636.942L-218.055 -10.0795C-226.515 -14.964 -232.447 -25.0264 -232.289 -34.2231L-218.32 -844.141C-218.162 -853.337 -211.955 -859.167 -203.429 -858.129L926.032 -720.608C931.845 -719.9 937.848 -716.079 942.164 -710.339L1618.57 189.177Z" stroke="white"/>
<path opacity="0.828283" d="M1616.23 190.783C1624.05 201.465 1623.47 215.007 1615 219.812L901.294 624.541C896.762 627.112 890.737 626.652 885.072 623.304L-226.514 -33.718C-234.914 -38.6827 -240.643 -48.823 -240.25 -58.0299L-206.091 -858.627C-205.698 -867.834 -199.291 -873.594 -190.729 -872.438L942.358 -719.346C948.132 -718.566 954.013 -714.729 958.192 -709.015L1616.23 190.783Z" stroke="white"/>
<path opacity="0.838384" d="M1613.61 192.241C1621.29 203.047 1620.36 216.694 1611.62 221.372L883.668 610.877C879.067 613.339 873.077 612.806 867.513 609.44L-234.668 -57.3305C-243.005 -62.3742 -248.525 -72.5856 -247.894 -81.7959L-193.662 -872.877C-193.031 -882.088 -186.421 -887.773 -177.825 -886.498L958.511 -717.95C964.248 -717.099 970.01 -713.246 974.053 -707.558L1613.61 192.241Z" stroke="white"/>
<path opacity="0.848485" d="M1610.7 193.54C1618.24 204.463 1616.93 218.201 1607.92 222.745L866.027 596.978C861.357 599.333 855.4 598.729 849.934 595.345L-242.529 -80.9211C-250.802 -86.0423 -256.108 -96.3182 -255.234 -105.524L-181.052 -886.9C-180.177 -896.106 -173.363 -901.71 -164.736 -900.318L974.473 -716.432C980.173 -715.511 985.82 -711.643 989.728 -705.982L1610.7 193.54Z" stroke="white"/>
<path opacity="0.858586" d="M1607.5 194.687C1614.89 205.718 1613.21 219.53 1603.94 223.935L848.386 582.854C843.65 585.105 837.724 584.429 832.353 581.027L-250.084 -104.478C-258.291 -109.676 -263.379 -120.009 -262.259 -129.203L-168.252 -900.688C-167.131 -909.882 -160.112 -915.4 -151.456 -913.89L990.25 -714.788C995.916 -713.8 1001.45 -709.917 1005.23 -704.282L1607.5 194.687Z" stroke="white"/>
<path opacity="0.868687" d="M1604.02 195.674C1611.26 206.807 1609.19 220.676 1599.66 224.934L830.748 568.505C825.945 570.65 820.048 569.905 814.769 566.485L-257.337 -128.002C-265.476 -133.274 -270.341 -143.658 -268.972 -152.832L-155.273 -914.246C-153.903 -923.42 -146.677 -928.845 -137.994 -927.219L1005.83 -713.029C1011.47 -711.975 1016.89 -708.077 1020.54 -702.467L1604.02 195.674Z" stroke="white"/>
<path opacity="0.878788" d="M1600.26 196.501C1607.33 207.727 1604.86 221.635 1595.08 225.742L813.111 553.931C808.244 555.974 802.374 555.16 797.183 551.721L-264.294 -151.488C-272.363 -156.834 -277.001 -167.26 -275.379 -176.405L-142.125 -927.574C-140.502 -936.72 -133.07 -942.047 -124.362 -940.305L1021.21 -711.159C1026.81 -710.039 1032.13 -706.126 1035.65 -700.542L1600.26 196.501Z" stroke="white"/>
<path opacity="0.888889" d="M1596.22 197.167C1603.12 208.477 1600.24 222.405 1590.21 226.354L795.491 539.138C790.559 541.079 784.713 540.196 779.609 536.738L-270.945 -174.932C-278.943 -180.349 -283.35 -190.81 -281.472 -199.919L-128.804 -940.672C-126.927 -949.781 -119.288 -955.003 -110.556 -953.146L1036.39 -709.181C1041.96 -707.996 1047.18 -704.068 1050.57 -698.509L1596.22 197.167Z" stroke="white"/>
<path opacity="0.89899" d="M1591.91 197.67C1598.62 209.056 1595.34 222.984 1585.06 226.771L777.891 524.126C772.894 525.967 767.07 525.015 762.049 521.538L-277.292 -198.328C-285.216 -203.816 -289.389 -214.303 -287.255 -223.366L-115.317 -953.541C-113.183 -962.604 -105.337 -967.714 -96.5854 -965.742L1051.36 -707.101C1056.91 -705.851 1062.03 -701.907 1065.29 -696.372L1591.91 197.67Z" stroke="white"/>
<path opacity="0.909091" d="M1587.32 198.008C1593.84 209.46 1590.14 223.368 1579.63 226.987L760.313 508.898C755.252 510.64 749.447 509.62 744.507 506.122L-283.337 -221.674C-291.186 -227.232 -295.121 -237.737 -292.729 -246.746L-101.671 -966.181C-99.2788 -975.189 -91.2279 -980.182 -82.4573 -978.096L1066.12 -704.923C1071.64 -703.61 1076.66 -699.649 1079.8 -694.138L1587.32 198.008Z" stroke="white"/>
<path opacity="0.919192" d="M1582.47 198.185C1588.79 209.694 1584.68 223.561 1573.93 227.007L742.776 493.464C737.652 495.106 731.863 494.019 727.001 490.499L-289.067 -244.961C-296.839 -250.586 -300.534 -261.101 -297.883 -270.046L-87.8578 -978.587C-85.2063 -987.532 -76.951 -992.401 -68.164 -990.201L1080.67 -702.646C1086.17 -701.27 1091.1 -697.291 1094.11 -691.804L1582.47 198.185Z" stroke="white"/>
<path opacity="0.929293" d="M1577.35 198.192C1583.46 209.748 1578.93 223.554 1567.96 226.822L725.27 477.816C720.081 479.362 714.307 478.207 709.519 474.665L-294.498 -268.19C-302.191 -273.882 -305.644 -284.399 -302.733 -293.271L-73.8973 -990.767C-70.9864 -999.64 -62.5287 -1004.38 -53.7273 -1002.06L1095 -700.282C1100.47 -698.843 1105.32 -694.847 1108.21 -689.381L1577.35 198.192Z" stroke="white"/>
<path opacity="0.939394" d="M1571.97 198.035C1577.86 209.628 1572.91 223.35 1561.72 226.435L707.811 461.967C702.557 463.416 696.794 462.193 692.079 458.627L-299.619 -291.352C-307.231 -297.109 -310.44 -307.619 -307.27 -316.41L-59.784 -1002.72C-56.6142 -1011.51 -47.9561 -1016.11 -39.1426 -1013.68L1109.1 -697.83C1114.56 -696.329 1119.32 -692.313 1122.09 -686.869L1571.97 198.035Z" stroke="white"/>
<path opacity="0.949495" d="M1566.31 197.701C1571.98 209.321 1566.62 222.938 1555.22 225.838L690.392 445.909C685.074 447.262 679.319 445.97 674.673 442.379L-304.441 -314.453C-311.971 -320.273 -314.935 -330.768 -311.507 -339.467L-45.5337 -1014.44C-42.1058 -1023.14 -33.2502 -1027.6 -24.4267 -1025.06L1122.98 -695.305C1128.42 -693.74 1133.09 -689.703 1135.74 -684.279L1566.31 197.701Z" stroke="white"/>
<path opacity="0.959596" d="M1560.4 197.204C1565.85 208.841 1560.07 222.331 1548.48 225.041L673.039 429.658C667.655 430.917 661.905 429.555 657.326 425.938L-308.946 -337.474C-316.392 -343.356 -319.111 -353.827 -315.427 -362.426L-31.1321 -1025.93C-27.4478 -1034.53 -18.3979 -1038.84 -9.56641 -1036.19L1136.63 -692.695C1142.06 -691.068 1146.65 -687.009 1149.18 -681.604L1560.4 197.204Z" stroke="white"/>
<path opacity="0.969697" d="M1554.23 196.528C1559.44 208.172 1553.25 221.513 1541.47 224.03L655.74 413.205C650.29 414.369 644.542 412.938 640.029 409.293L-313.15 -360.425C-320.509 -366.368 -322.983 -376.807 -319.044 -385.296L-16.5986 -1037.2C-12.66 -1045.69 -3.41968 -1049.84 5.41762 -1047.08L1150.04 -690.021C1155.46 -688.33 1159.98 -684.247 1162.39 -678.861L1554.23 196.528Z" stroke="white"/>
<path opacity="0.979798" d="M1547.81 195.684C1552.79 207.323 1546.19 220.495 1534.23 222.815L638.516 396.564C632.999 397.635 627.251 396.133 622.8 392.459L-317.037 -383.291C-324.308 -389.292 -326.537 -399.69 -322.347 -408.061L-1.92323 -1048.24C2.26677 -1056.61 11.6935 -1060.59 20.5342 -1057.73L1163.23 -687.273C1168.64 -685.519 1173.09 -681.411 1175.38 -676.041L1547.81 195.684Z" stroke="white"/>
<path opacity="0.989899" d="M1541.13 194.657C1545.86 206.282 1538.87 219.264 1526.74 221.385L621.353 379.728C615.768 380.705 610.016 379.132 605.624 375.427L-320.628 -406.078C-327.81 -412.137 -329.795 -422.486 -325.357 -430.73L12.8695 -1059.06C17.3073 -1067.3 26.9155 -1071.11 35.7576 -1068.14L1176.17 -684.47C1181.57 -682.651 1185.94 -678.516 1188.12 -673.162L1541.13 194.657Z" stroke="white"/>
<path d="M1534.2 193.459C1538.68 205.058 1531.3 217.83 1519.02 219.75L604.272 362.711C598.617 363.595 592.86 361.95 588.525 358.211L-323.907 -428.772C-330.997 -434.887 -332.74 -445.179 -328.059 -453.288L27.7915 -1069.64C32.4731 -1077.75 42.2575 -1081.38 51.0989 -1078.3L1188.86 -681.603C1194.27 -679.719 1198.57 -675.555 1200.63 -670.215L1534.2 193.459Z" stroke="white"/>
</g>
</g>
</svg>
