<svg width="248" height="44" viewBox="0 0 248 44" fill="none" xmlns="http://www.w3.org/2000/svg">
<path d="M191.232 27.3433V32.3366H188.989C186.847 32.3366 185.177 31.8135 183.98 30.7693C182.782 29.7257 182.183 28.0211 182.183 25.6565V15.6125H179.833V10.7228H182.183V6.73242L188.092 9.61919V10.7228H191.198V15.6125H188.092V25.7252C188.092 26.2992 188.231 26.7125 188.506 26.9654C188.782 27.2176 189.939 27.3433 190.584 27.3433H191.232Z" fill="white"/>
<path d="M56.9447 25.8092H63.9261L65.9956 32.1269L51.0361 32.4656V10.752H56.9447V25.8092Z" fill="white"/>
<path d="M78.6942 20.495C78.6942 19.4773 78.3484 18.667 77.6579 18.0646C76.9658 17.4635 76.1027 17.1622 75.066 17.1622C74.075 17.1622 73.2396 17.451 72.5606 18.0305C71.8812 18.6083 71.4606 19.4311 71.2997 20.495H78.6942ZM84.6374 23.7938H71.265C71.3566 24.998 71.7431 25.9185 72.4225 26.5542C73.1019 27.1913 73.937 27.5094 74.9277 27.5094C76.4015 27.5094 77.427 26.8841 78.0027 25.6344H84.2919C83.9688 26.9077 83.3875 28.0534 82.547 29.0725C81.7056 30.0912 80.6514 30.8901 79.385 31.4679C78.1181 32.0471 76.7012 32.3369 75.1348 32.3369C73.2462 32.3369 71.5643 31.9317 70.0904 31.121C68.6152 30.3106 67.4642 29.1534 66.6347 27.6482C65.8059 26.1444 65.3911 24.3848 65.3911 22.3703C65.3911 20.3555 65.7996 18.5974 66.6174 17.0926C67.4348 15.5882 68.5812 14.4297 70.0558 13.6199C71.5296 12.8095 73.2229 12.4043 75.1348 12.4043C77.0004 12.4043 78.6595 12.7978 80.1108 13.5852C81.5621 14.3727 82.6961 15.4951 83.5145 16.9535C84.3316 18.4118 84.7411 20.1134 84.7411 22.0582C84.7411 22.613 84.7064 23.1921 84.6374 23.7938Z" fill="white"/>
<path d="M97.1344 27.3434V32.3366H94.8918C92.7495 32.3366 91.079 31.8135 89.8818 30.7694C88.6837 29.7257 88.0854 28.0211 88.0854 25.6565V15.6125H85.7354V10.7228H88.0854V6.73242L93.994 9.61919V10.7228H97.0997V15.6125H93.994V25.7252C93.994 26.2992 94.1323 26.7125 94.4084 26.9654C94.6848 27.2176 95.8408 27.3434 96.4858 27.3434H97.1344Z" fill="white"/>
<path d="M103.331 31.4679C102.018 30.8901 100.981 30.0964 100.221 29.0895C99.4618 28.0826 99.0342 26.9541 98.9424 25.7038H104.782C104.851 26.3764 105.162 26.9194 105.716 27.3361C106.268 27.7531 106.947 27.961 107.754 27.961C108.49 27.961 109.062 27.8169 109.464 27.5274C109.866 27.2375 110.069 26.8624 110.069 26.3986C110.069 25.8431 109.78 25.4316 109.205 25.1654C108.629 24.9 107.696 24.6049 106.406 24.28C105.024 23.9564 103.872 23.615 102.95 23.2561C102.03 22.897 101.234 22.33 100.566 21.555C99.8983 20.7787 99.5643 19.7315 99.5643 18.4118C99.5643 17.301 99.869 16.2885 100.48 15.3733C101.09 14.4595 101.988 13.7362 103.176 13.2032C104.361 12.6716 105.772 12.4043 107.408 12.4043C109.827 12.4043 111.733 13.0067 113.127 14.2096C114.52 15.4143 115.321 17.0111 115.528 19.002H110.069C109.976 18.3309 109.683 17.7992 109.188 17.4048C108.692 17.0111 108.041 16.815 107.236 16.815C106.544 16.815 106.013 16.9479 105.646 17.2139C105.277 17.4812 105.093 17.8448 105.093 18.3079C105.093 18.8628 105.386 19.2801 105.974 19.5575C106.561 19.8357 107.478 20.1138 108.721 20.3912C110.149 20.7617 111.313 21.1266 112.211 21.4849C113.11 21.8445 113.899 22.4224 114.578 23.2207C115.258 24.0196 115.608 25.0907 115.632 26.4334C115.632 27.568 115.315 28.5805 114.682 29.4718C114.048 30.3624 113.138 31.064 111.953 31.5728C110.765 32.0811 109.39 32.3369 107.824 32.3369C106.141 32.3369 104.643 32.0474 103.331 31.4679Z" fill="white"/>
<path d="M127.447 24.5982L131.813 10.752H138.102L130.377 32.336H123.086L115.674 10.752H121.998L125.992 24.5982H127.447Z" fill="white"/>
<path d="M150.044 20.495C150.044 19.4773 149.698 18.667 149.008 18.0646C148.316 17.4635 147.453 17.1622 146.416 17.1622C145.425 17.1622 144.59 17.451 143.91 18.0304C143.231 18.6083 142.811 19.4311 142.65 20.495H150.044ZM155.987 23.7938H142.615C142.706 24.998 143.093 25.9185 143.773 26.5542C144.452 27.1913 145.287 27.5094 146.278 27.5094C147.751 27.5094 148.777 26.884 149.353 25.6344H155.641C155.318 26.9077 154.737 28.0534 153.897 29.0725C153.055 30.0912 152.002 30.8901 150.735 31.4679C149.468 32.0471 148.051 32.3369 146.485 32.3369C144.596 32.3369 142.914 31.9317 141.44 31.121C139.966 30.3106 138.815 29.1533 137.985 27.6482C137.156 26.1444 136.741 24.3848 136.741 22.3703C136.741 20.3555 137.15 18.5974 137.967 17.0926C138.785 15.5882 139.932 14.4297 141.406 13.6199C142.88 12.8095 144.573 12.4043 146.485 12.4043C148.351 12.4043 150.01 12.7978 151.461 13.5852C152.912 14.3727 154.046 15.4951 154.864 16.9535C155.681 18.4118 156.091 20.1134 156.091 22.0581C156.091 22.613 156.056 23.1921 155.987 23.7938Z" fill="white"/>
<path d="M175.52 14.6488C176.867 16.1447 177.541 18.2005 177.541 20.8154V32.3369H171.667V21.6287C171.667 20.3096 171.332 19.2843 170.664 18.5542C169.996 17.8238 169.097 17.4582 167.969 17.4582C166.841 17.4582 165.941 17.8238 165.275 18.5542C164.606 19.2843 164.272 20.3096 164.272 21.6287V32.3369H158.364V12.6166C158.364 12.6166 168.844 12.4043 170.112 12.4043C172.369 12.4043 174.171 13.1532 175.52 14.6488Z" fill="white"/>
<path d="M212.748 12.4043V32.1247H206.839C206.839 32.1247 202.243 32.3369 201 32.3369C199.525 32.3369 198.223 32.0012 197.096 31.3294C195.966 30.6582 195.091 29.686 194.468 28.4137C193.847 27.1419 193.536 25.6453 193.536 23.9253V12.4043H199.411V23.1129C199.411 24.4323 199.743 25.4568 200.411 26.1867C201.08 26.9181 201.978 27.2833 203.108 27.2833C204.259 27.2833 205.168 26.9181 205.837 26.1867C206.505 25.4568 206.839 24.4323 206.839 23.1129V12.4043H212.748Z" fill="white"/>
<path d="M224.237 13.3418C225.274 12.7162 226.426 12.4043 227.692 12.4043V18.8005H226.068C224.594 18.8005 223.489 19.1249 222.752 19.7737C222.014 20.421 221.645 21.5577 221.645 23.1826V32.3369H215.736V12.6163H221.645C221.645 12.6163 223.201 13.9661 224.237 13.3418Z" fill="white"/>
<path d="M241.954 20.495C241.954 19.4773 241.608 18.667 240.917 18.0646C240.225 17.4635 239.362 17.1622 238.325 17.1622C237.334 17.1622 236.499 17.451 235.82 18.0305C235.14 18.6083 234.72 19.4311 234.558 20.495H241.954ZM247.897 23.7938H234.524C234.616 24.998 235.003 25.9185 235.681 26.5542C236.362 27.1913 237.197 27.5094 238.187 27.5094C239.661 27.5094 240.686 26.8841 241.262 25.6344H247.551C247.228 26.9077 246.647 28.0534 245.806 29.0725C244.965 30.0912 243.911 30.8901 242.645 31.4679C241.377 32.0471 239.961 32.3369 238.395 32.3369C236.505 32.3369 234.823 31.9317 233.35 31.121C231.875 30.3106 230.723 29.1534 229.894 27.6482C229.065 26.1444 228.65 24.3848 228.65 22.3703C228.65 20.3555 229.059 18.5974 229.877 17.0926C230.694 15.5882 231.84 14.4297 233.315 13.6199C234.789 12.8095 236.482 12.4043 238.395 12.4043C240.26 12.4043 241.918 12.7978 243.37 13.5852C244.821 14.3727 245.956 15.4951 246.774 16.9535C247.591 18.4118 248 20.1134 248 22.0582C248 22.613 247.966 23.1921 247.897 23.7938Z" fill="white"/>
<path d="M43.1506 22.3694C43.1506 34.3018 33.4907 43.9762 21.5751 43.9762C9.65993 43.9762 0 34.3018 0 22.3694C0 10.4371 9.65993 0.763672 21.5751 0.763672C33.4907 0.763672 43.1506 10.4371 43.1506 22.3694Z" fill="#0099FF"/>
<path d="M33.976 20.4743L21.5777 8.05859L9.17969 20.4743H15.3797V30.7027L27.7763 36.6806V20.4743H33.976Z" fill="white"/>
</svg>
