<svg width="1440" height="783" viewBox="0 0 1440 783" fill="none" xmlns="http://www.w3.org/2000/svg">
<mask id="mask0_623_338" style="mask-type:alpha" maskUnits="userSpaceOnUse" x="0" y="0" width="1440" height="783">
<rect width="1440" height="783" fill="white"/>
</mask>
<g mask="url(#mask0_623_338)">
<g filter="url(#filter0_f_623_338)">
<path d="M1057.44 -45.0001L426 160L663.978 -168L795.398 -475L1452.94 -728L1746 12.9996L1057.44 -45.0001Z" fill="url(#paint0_angular_623_338)" fill-opacity="0.4"/>
</g>
<g opacity="0.05">
<path opacity="0.010101" d="M165.098 -514.943L683.721 -1490.33C687.484 -1497.41 695.375 -1501.26 703.268 -1499.86L1791.18 -1308.04C1799.07 -1306.64 1805.17 -1300.33 1806.29 -1292.39L1960.03 -198.447C1961.15 -190.511 1957.03 -182.759 1949.82 -179.245L956.929 305.022C949.725 308.535 941.078 307.01 935.511 301.245L168.125 -493.406C162.557 -499.172 161.335 -507.866 165.098 -514.943Z" stroke="white" stroke-width="3"/>
<path opacity="0.020202" d="M154.298 -528.183L688.862 -1492.56C692.748 -1499.57 700.705 -1503.28 708.573 -1501.75L1790.94 -1291.36C1798.81 -1289.83 1804.8 -1283.41 1805.77 -1275.46L1940.15 -181.049C1941.13 -173.094 1936.87 -165.415 1929.61 -162.028L930.287 303.962C923.023 307.349 914.404 305.674 908.938 299.812L156.949 -506.597C151.483 -512.459 150.413 -521.174 154.298 -528.183Z" stroke="white" stroke-width="3"/>
<path opacity="0.030303" d="M143.797 -541.391L694.076 -1494.5C698.083 -1501.44 706.104 -1505.01 713.943 -1503.35L1790.45 -1274.53C1798.29 -1272.86 1804.17 -1266.34 1805 -1258.37L1920.04 -163.839C1920.88 -155.868 1916.49 -148.264 1909.17 -145.004L903.76 302.633C896.438 305.893 887.85 304.067 882.487 298.111L146.07 -519.763C140.707 -525.719 139.789 -534.451 143.797 -541.391Z" stroke="white" stroke-width="3"/>
<path opacity="0.040404" d="M133.586 -554.567L699.35 -1496.16C703.478 -1503.03 711.56 -1506.46 719.369 -1504.65L1789.7 -1257.55C1797.51 -1255.74 1803.27 -1249.12 1803.97 -1241.13L1899.71 -146.825C1900.41 -138.841 1895.89 -131.315 1888.51 -128.183L877.346 301.031C869.968 304.162 861.413 302.187 856.155 296.138L135.482 -532.902C130.224 -538.95 129.458 -547.697 133.586 -554.567Z" stroke="white" stroke-width="3"/>
<path opacity="0.050505" d="M123.673 -567.701L704.687 -1497.52C708.934 -1504.31 717.075 -1507.6 724.852 -1505.66L1788.7 -1240.42C1796.48 -1238.48 1802.12 -1231.75 1802.68 -1223.76L1879.17 -130.008C1879.72 -122.013 1875.07 -114.567 1867.64 -111.565L851.058 299.162C843.627 302.164 835.107 300.04 829.956 293.9L125.19 -546.006C120.039 -552.146 119.426 -560.904 123.673 -567.701Z" stroke="white" stroke-width="3"/>
<path opacity="0.0606061" d="M114.049 -580.795L710.075 -1498.59C714.44 -1505.32 722.637 -1508.46 730.379 -1506.39L1787.44 -1223.15C1795.18 -1221.08 1800.71 -1214.25 1801.13 -1206.25L1858.4 -113.397C1858.82 -105.393 1854.04 -98.0297 1846.56 -95.1575L824.891 297.023C817.409 299.895 808.928 297.623 803.884 291.394L115.187 -559.076C110.143 -565.305 109.684 -574.073 114.049 -580.795Z" stroke="white" stroke-width="3"/>
<path opacity="0.0707071" d="M104.72 -593.84L715.516 -1499.38C719.998 -1506.03 728.249 -1509.03 735.953 -1506.82L1785.92 -1205.75C1793.63 -1203.54 1799.03 -1196.62 1799.31 -1188.61L1837.43 -96.9929C1837.71 -88.9831 1832.8 -81.7041 1825.27 -78.9629L798.861 294.62C791.329 297.361 782.889 294.941 777.955 288.625L105.479 -572.105C100.545 -578.421 100.238 -587.195 104.72 -593.84Z" stroke="white" stroke-width="3"/>
<path opacity="0.0808081" d="M95.6781 -606.823L720.999 -1499.87C725.596 -1506.44 733.897 -1509.3 741.562 -1506.95L1784.14 -1188.21C1791.8 -1185.86 1797.09 -1178.85 1797.23 -1170.84L1816.25 -80.7909C1816.39 -72.7774 1811.36 -65.5852 1803.78 -62.9759L772.962 291.963C765.384 294.572 756.988 292.005 752.164 285.604L96.0577 -585.079C91.2343 -591.479 91.081 -600.258 95.6781 -606.823Z" stroke="white" stroke-width="3"/>
<path opacity="0.0909091" d="M86.9264 -619.754L726.522 -1500.08C731.233 -1506.57 739.583 -1509.28 747.205 -1506.8L1782.09 -1170.55C1789.71 -1168.07 1794.88 -1160.97 1794.88 -1152.95L1794.88 -64.8082C1794.88 -56.7935 1789.71 -49.6902 1782.09 -47.2136L747.205 289.042C739.583 291.518 731.233 288.805 726.522 282.321L86.9264 -598.006C82.2155 -604.49 82.2155 -613.27 86.9264 -619.754Z" stroke="white" stroke-width="3"/>
<path opacity="0.10101" d="M78.458 -632.619L732.074 -1500C736.898 -1506.4 745.294 -1508.97 752.872 -1506.36L1779.78 -1152.76C1787.35 -1150.16 1792.39 -1142.96 1792.25 -1134.95L1773.3 -49.0398C1773.16 -41.0263 1767.87 -34.0142 1760.21 -31.671L721.589 285.867C713.924 288.21 705.623 285.351 701.026 278.786L78.0785 -610.875C73.4814 -617.44 73.6347 -626.219 78.458 -632.619Z" stroke="white" stroke-width="3"/>
<path opacity="0.111111" d="M70.2775 -645.409L737.658 -1499.62C742.593 -1505.93 751.033 -1508.35 758.564 -1505.61L1777.2 -1134.86C1784.73 -1132.12 1789.64 -1124.84 1789.36 -1116.83L1751.53 -33.4848C1751.25 -25.4749 1745.84 -18.5561 1738.14 -16.347L696.124 282.446C688.42 284.655 680.169 281.652 675.687 275.007L69.5186 -623.675C65.0368 -630.319 65.3432 -639.094 70.2775 -645.409Z" stroke="white" stroke-width="3"/>
<path opacity="0.121212" d="M62.377 -658.134L743.262 -1498.96C748.306 -1505.19 756.787 -1507.46 764.269 -1504.59L1774.34 -1116.85C1781.83 -1113.98 1786.61 -1106.62 1786.19 -1098.61L1729.57 -18.1599C1729.15 -10.1561 1723.62 -3.33276 1715.88 -1.25843L670.808 278.768C663.066 280.842 654.869 277.695 650.504 270.974L61.2388 -636.415C56.8737 -643.137 57.3332 -651.905 62.377 -658.134Z" stroke="white" stroke-width="3"/>
<path opacity="0.131313" d="M54.7602 -670.77L748.886 -1498C754.038 -1504.14 762.557 -1506.26 769.989 -1503.26L1771.23 -1098.73C1778.66 -1095.73 1783.31 -1088.28 1782.75 -1080.29L1707.42 -3.05134C1706.86 4.94382 1701.22 11.6698 1693.44 13.6087L645.651 274.853C637.874 276.792 629.734 273.502 625.486 266.706L53.2432 -649.075C48.9961 -655.872 49.6085 -664.631 54.7602 -670.77Z" stroke="white" stroke-width="3"/>
<path opacity="0.141414" d="M47.4212 -683.326L754.522 -1496.75C759.78 -1502.8 768.335 -1504.78 775.712 -1501.64L1767.83 -1080.51C1775.21 -1077.38 1779.73 -1069.86 1779.03 -1061.87L1685.1 11.826C1684.4 19.8102 1678.64 26.4365 1670.83 28.2395L620.653 270.692C612.844 272.495 604.762 269.064 600.634 262.194L45.5258 -661.661C41.3979 -668.531 42.1631 -677.277 47.4212 -683.326Z" stroke="white" stroke-width="3"/>
<path opacity="0.151515" d="M40.359 -695.791L760.163 -1495.21C765.526 -1501.17 774.114 -1503 781.436 -1499.74L1764.17 -1062.2C1771.49 -1058.94 1775.88 -1051.33 1775.04 -1043.36L1662.59 26.4751C1661.76 34.4458 1655.88 40.9707 1648.04 42.637L595.819 266.294C587.979 267.96 579.958 264.389 575.951 257.448L38.0857 -674.162C34.0784 -681.103 34.9961 -689.835 40.359 -695.791Z" stroke="white" stroke-width="3"/>
<path opacity="0.161616" d="M33.5725 -708.163L765.808 -1493.39C771.274 -1499.25 779.893 -1500.93 787.157 -1497.54L1760.22 -1043.79C1767.49 -1040.4 1771.75 -1032.72 1770.77 -1024.77L1639.92 40.8901C1638.95 48.8451 1632.96 55.2664 1625.09 56.7957L571.154 261.66C563.287 263.189 555.329 259.479 551.444 252.469L30.9221 -686.577C27.0365 -693.587 28.1065 -702.301 33.5725 -708.163Z" stroke="white" stroke-width="3"/>
<path opacity="0.171717" d="M27.0581 -720.434L771.449 -1491.27C777.017 -1497.04 785.663 -1498.56 792.867 -1495.05L1756.01 -1025.29C1763.21 -1021.78 1767.33 -1014.03 1766.22 -1006.09L1617.08 55.0725C1615.97 63.0092 1609.87 69.325 1601.97 70.7167L546.661 256.797C538.768 258.189 530.876 254.34 527.114 247.263L24.0313 -698.897C20.2686 -705.974 21.4906 -714.668 27.0581 -720.434Z" stroke="white" stroke-width="3"/>
<path opacity="0.181818" d="M20.8156 -732.605L777.083 -1488.87C782.751 -1494.54 791.423 -1495.91 798.564 -1492.28L1751.52 -1006.72C1758.66 -1003.08 1762.64 -995.26 1761.39 -987.344L1594.08 69.0127C1592.83 76.9287 1586.62 83.1372 1578.7 84.3909L522.345 251.701C514.429 252.955 506.606 248.969 502.967 241.828L17.4135 -711.125C13.7749 -718.266 15.1484 -726.938 20.8156 -732.605Z" stroke="white" stroke-width="3"/>
<path opacity="0.191919" d="M14.8395 -744.666L782.703 -1486.18C788.468 -1491.75 797.162 -1492.97 804.239 -1489.21L1746.75 -988.069C1753.82 -984.306 1757.67 -976.415 1756.28 -968.522L1570.92 82.7161C1569.53 90.609 1563.21 96.7082 1555.27 97.8236L498.207 246.385C490.27 247.5 482.518 243.378 479.005 236.175L11.063 -723.248C7.54963 -730.451 9.07423 -739.098 14.8395 -744.666Z" stroke="white" stroke-width="3"/>
<path opacity="0.20202" d="M9.13094 -756.617L788.305 -1483.21C794.167 -1488.67 802.881 -1489.74 809.891 -1485.86L1741.7 -969.35C1748.71 -965.464 1752.42 -957.507 1750.89 -949.639L1547.6 96.1732C1546.08 104.041 1539.65 110.029 1531.7 111.005L474.254 240.843C466.299 241.82 458.62 237.563 455.233 230.3L4.98122 -735.268C1.59406 -742.532 3.26937 -751.151 9.13094 -756.617Z" stroke="white" stroke-width="3"/>
<path opacity="0.212121" d="M3.68526 -768.447L793.884 -1479.95C799.84 -1485.31 808.572 -1486.23 815.513 -1482.22L1736.37 -950.56C1743.31 -946.553 1746.89 -938.532 1745.22 -930.692L1524.14 109.389C1522.48 117.229 1515.95 123.104 1507.98 123.942L450.488 235.089C442.517 235.926 434.914 231.536 431.654 224.215L-0.836406 -747.174C-4.09628 -754.496 -2.27081 -763.084 3.68526 -768.447Z" stroke="white" stroke-width="3"/>
<path opacity="0.222222" d="M-1.50209 -780.159L799.432 -1476.4C805.481 -1481.66 814.228 -1482.42 821.098 -1478.3L1730.77 -931.713C1737.64 -927.585 1741.07 -919.503 1739.26 -911.693L1500.53 122.355C1498.73 130.165 1492.1 135.925 1484.12 136.623L426.91 229.117C418.926 229.816 411.4 225.294 408.269 217.916L-6.39432 -758.968C-9.5259 -766.346 -7.55084 -774.901 -1.50209 -780.159Z" stroke="white" stroke-width="3"/>
<path opacity="0.232323" d="M-6.43174 -791.742L804.947 -1472.57C811.087 -1477.72 819.845 -1478.33 826.642 -1474.09L1724.88 -912.807C1731.67 -908.56 1734.96 -900.419 1733.02 -892.643L1476.79 135.075C1474.85 142.851 1468.12 148.495 1460.13 149.054L403.526 222.939C395.531 223.498 388.085 218.845 385.083 211.414L-11.6931 -770.64C-14.6954 -778.071 -12.5713 -786.591 -6.43174 -791.742Z" stroke="white" stroke-width="3"/>
<path opacity="0.242424" d="M-11.1032 -803.196L810.426 -1468.46C816.655 -1473.5 825.423 -1473.96 832.144 -1469.6L1718.71 -893.852C1725.43 -889.487 1728.58 -881.29 1726.51 -873.548L1452.91 147.542C1450.83 155.284 1444.01 160.809 1436 161.229L380.342 216.554C372.338 216.973 364.975 212.191 362.103 204.709L-16.732 -782.189C-19.6042 -789.672 -17.3318 -798.152 -11.1032 -803.196Z" stroke="white" stroke-width="3"/>
<path opacity="0.252525" d="M-15.5239 -814.516L815.86 -1464.06C822.176 -1469 830.951 -1469.31 837.595 -1464.82L1712.26 -874.852C1718.91 -870.37 1721.91 -862.12 1719.7 -854.415L1428.89 159.756C1426.68 167.46 1419.77 172.866 1411.76 173.145L357.357 209.966C349.347 210.245 342.068 205.336 339.327 197.804L-21.5185 -793.611C-24.2596 -801.142 -21.8396 -809.582 -15.5239 -814.516Z" stroke="white" stroke-width="3"/>
<path opacity="0.262626" d="M-19.6961 -825.7L821.245 -1459.39C827.646 -1464.22 836.425 -1464.37 842.99 -1459.77L1705.54 -855.814C1712.1 -851.217 1714.96 -842.915 1712.62 -835.251L1404.76 171.712C1402.41 179.377 1395.4 184.661 1387.39 184.801L334.575 203.178C326.561 203.317 319.369 198.281 316.76 190.703L-26.0546 -804.902C-28.664 -812.48 -26.0969 -820.877 -19.6961 -825.7Z" stroke="white" stroke-width="3"/>
<path opacity="0.272727" d="M-23.6203 -836.736L826.579 -1454.44C833.063 -1459.15 841.843 -1459.15 848.327 -1454.44L1698.53 -836.736C1705.01 -832.025 1707.72 -823.674 1705.25 -816.052L1380.5 183.417C1378.02 191.04 1370.92 196.201 1362.91 196.201L312.001 196.201C303.986 196.201 296.883 191.04 294.406 183.417L-30.3408 -816.052C-32.8175 -823.674 -30.1044 -832.025 -23.6203 -836.736Z" stroke="white" stroke-width="3"/>
<path opacity="0.282828" d="M-27.3027 -847.628L831.853 -1449.21C838.418 -1453.81 847.197 -1453.66 853.598 -1448.84L1691.23 -817.631C1697.64 -812.807 1700.2 -804.411 1697.59 -796.833L1356.13 194.86C1353.52 202.438 1346.32 207.474 1338.31 207.335L289.635 189.03C281.622 188.89 274.61 183.606 272.267 175.942L-34.3831 -827.065C-36.7264 -834.729 -33.8679 -843.031 -27.3027 -847.628Z" stroke="white" stroke-width="3"/>
<path opacity="0.292929" d="M-30.7444 -858.364L837.064 -1443.71C843.709 -1448.19 852.483 -1447.88 858.799 -1442.95L1683.66 -798.495C1689.98 -793.561 1692.4 -785.121 1689.66 -777.59L1331.64 206.049C1328.9 213.58 1321.62 218.49 1313.61 218.21L267.483 181.679C259.473 181.399 252.554 175.993 250.345 168.289L-38.1826 -837.927C-40.3918 -845.631 -37.3888 -853.882 -30.7444 -858.364Z" stroke="white" stroke-width="3"/>
<path opacity="0.30303" d="M-33.9494 -868.952L842.208 -1437.93C848.929 -1442.3 857.697 -1441.84 863.926 -1436.8L1675.81 -779.347C1682.04 -774.303 1684.31 -765.822 1681.44 -758.34L1307.05 216.969C1304.18 224.451 1296.82 229.233 1288.81 228.814L245.546 174.139C237.542 173.719 230.719 168.194 228.644 160.452L-41.7432 -848.648C-43.8176 -856.39 -40.6711 -864.587 -33.9494 -868.952Z" stroke="white" stroke-width="3"/>
<path opacity="0.313131" d="M-36.9202 -879.371L847.279 -1431.88C854.076 -1436.13 862.834 -1435.51 868.974 -1430.36L1667.67 -760.175C1673.81 -755.023 1675.94 -746.504 1672.94 -739.072L1282.36 227.636C1279.36 235.067 1271.91 239.72 1263.92 239.16L223.828 166.431C215.832 165.871 209.107 160.228 207.168 152.451L-45.0671 -859.207C-47.0061 -866.983 -43.717 -875.124 -36.9202 -879.371Z" stroke="white" stroke-width="3"/>
<path opacity="0.323232" d="M-39.6613 -889.639L852.272 -1425.57C859.142 -1429.69 867.889 -1428.93 873.938 -1423.67L1659.26 -741.003C1665.31 -735.745 1667.28 -727.19 1664.15 -719.812L1257.57 238.028C1254.44 245.406 1246.91 249.928 1238.93 249.229L202.33 158.539C194.345 157.84 187.719 152.08 185.916 144.271L-48.1589 -869.619C-49.9618 -877.429 -46.5312 -885.511 -39.6613 -889.639Z" stroke="white" stroke-width="3"/>
<path opacity="0.333333" d="M-42.1747 -899.733L857.184 -1418.98C864.125 -1422.99 872.857 -1422.07 878.813 -1416.71L1650.56 -721.82C1656.52 -716.457 1658.34 -707.869 1655.08 -700.547L1232.69 248.161C1229.43 255.483 1221.83 259.873 1213.86 259.035L181.056 150.484C173.085 149.646 166.56 143.771 164.894 135.931L-51.0204 -879.866C-52.6868 -887.705 -49.1156 -895.726 -42.1747 -899.733Z" stroke="white" stroke-width="3"/>
<path opacity="0.343434" d="M-44.4633 -909.658L862.012 -1412.12C869.021 -1416.01 877.736 -1414.94 883.598 -1409.47L1641.59 -702.637C1647.45 -697.171 1649.13 -688.552 1645.74 -681.288L1207.73 258.029C1204.34 265.293 1196.66 269.55 1188.71 268.573L160.01 142.265C152.055 141.288 145.634 135.3 144.104 127.433L-53.6544 -889.947C-55.1837 -897.815 -51.4731 -905.772 -44.4633 -909.658Z" stroke="white" stroke-width="3"/>
<path opacity="0.353535" d="M-46.533 -919.408L866.746 -1405.01C873.823 -1408.77 882.518 -1407.55 888.283 -1401.98L1632.33 -683.459C1638.1 -677.892 1639.62 -669.245 1636.11 -662.042L1182.68 267.629C1179.17 274.832 1171.41 278.954 1163.48 277.839L139.191 133.885C131.254 132.769 124.939 126.67 123.547 118.777L-56.0667 -899.861C-57.4584 -907.754 -53.6095 -915.646 -46.533 -919.408Z" stroke="white" stroke-width="3"/>
<path opacity="0.363636" d="M-48.3873 -928.983L871.384 -1397.63C878.526 -1401.27 887.197 -1399.9 892.865 -1394.23L1622.8 -664.293C1628.47 -658.626 1629.84 -649.954 1626.2 -642.813L1157.55 276.959C1153.92 284.1 1146.09 288.086 1138.18 286.833L118.602 125.348C110.686 124.094 104.478 117.886 103.224 109.97L-58.2607 -909.605C-59.5144 -917.521 -55.5284 -925.344 -48.3873 -928.983Z" stroke="white" stroke-width="3"/>
<path opacity="0.373737" d="M-50.0267 -938.371L875.924 -1389.99C883.128 -1393.5 891.775 -1391.98 897.342 -1386.21L1612.99 -645.137C1618.56 -639.372 1619.78 -630.677 1616.02 -623.6L1132.36 286.025C1128.6 293.102 1120.71 296.951 1112.81 295.559L98.2489 116.664C90.356 115.273 84.2569 108.957 83.1414 101.02L-60.2368 -919.169C-61.3523 -927.106 -57.2303 -934.858 -50.0267 -938.371Z" stroke="white" stroke-width="3"/>
<path opacity="0.383838" d="M-51.4571 -947.58L880.36 -1382.09C887.624 -1385.48 896.242 -1383.81 901.708 -1377.94L1602.9 -626.005C1608.37 -620.144 1609.44 -611.429 1605.55 -604.419L1107.1 294.818C1103.21 301.828 1095.25 305.538 1087.39 304.009L78.1311 107.83C70.2636 106.3 64.2756 99.8789 63.2988 91.924L-62.0007 -928.559C-62.9775 -936.514 -58.7208 -944.193 -51.4571 -947.58Z" stroke="white" stroke-width="3"/>
<path opacity="0.393939" d="M-52.6826 -956.601L884.686 -1373.94C892.008 -1377.2 900.596 -1375.38 905.959 -1369.42L1592.54 -606.898C1597.9 -600.942 1598.82 -592.21 1594.81 -585.269L1081.77 303.34C1077.77 310.281 1069.74 313.852 1061.91 312.186L58.25 98.852C50.4105 97.1857 44.5354 90.6608 43.6977 82.69L-63.5566 -937.766C-64.3943 -945.737 -60.0043 -953.341 -52.6826 -956.601Z" stroke="white" stroke-width="3"/>
<path opacity="0.40404" d="M-53.7048 -965.432L888.9 -1365.54C896.277 -1368.68 904.832 -1366.7 910.091 -1360.65L1581.9 -587.823C1587.16 -581.775 1587.92 -573.028 1583.8 -566.158L1056.39 311.589C1052.26 318.459 1044.18 321.889 1036.37 320.086L38.6104 89.7345C30.8011 87.9316 25.0409 81.3052 24.3423 73.321L-64.9059 -946.791C-65.6044 -954.775 -61.0824 -962.301 -53.7048 -965.432Z" stroke="white" stroke-width="3"/>
<path opacity="0.414141" d="M-54.5299 -974.066L892.996 -1356.89C900.427 -1359.89 908.946 -1357.77 914.098 -1351.63L1570.99 -568.779C1576.14 -562.64 1576.75 -553.881 1572.51 -547.084L1030.96 319.57C1026.71 326.367 1018.57 329.656 1010.8 327.717L19.2117 80.4874C11.4351 78.5485 5.79132 71.8226 5.23222 63.8274L-66.0546 -955.623C-66.6137 -963.618 -61.961 -971.064 -54.5299 -974.066Z" stroke="white" stroke-width="3"/>
<path opacity="0.424242" d="M-55.1612 -982.498L896.97 -1347.99C904.452 -1350.86 912.933 -1348.59 917.977 -1342.36L1559.8 -549.77C1564.85 -543.542 1565.31 -534.774 1560.94 -528.052L1005.48 327.284C1001.11 334.005 992.917 337.152 985.176 335.077L0.056378 71.1155C-7.68518 69.0411 -13.2107 62.2178 -13.6301 54.214L-67.006 -964.259C-67.4255 -972.263 -62.6435 -979.626 -55.1612 -982.498Z" stroke="white" stroke-width="3"/>
<path opacity="0.434343" d="M-55.6009 -990.737L900.82 -1338.85C908.351 -1341.59 916.791 -1339.17 921.726 -1332.85L1548.35 -530.812C1553.28 -524.497 1553.59 -515.722 1549.11 -509.077L979.958 334.719C975.477 341.363 967.226 344.366 959.522 342.157L-18.852 61.6127C-26.5562 59.4035 -31.9618 52.4848 -32.2415 44.475L-67.7622 -972.707C-68.0419 -980.717 -63.1322 -987.996 -55.6009 -990.737Z" stroke="white" stroke-width="3"/>
<path opacity="0.444444" d="M-55.8559 -998.765L904.538 -1329.46C912.116 -1332.06 920.513 -1329.5 925.336 -1323.1L1536.62 -511.897C1541.44 -505.496 1541.6 -496.717 1537 -490.152L954.399 341.888C949.802 348.453 941.5 351.311 933.835 348.968L-37.5147 51.9967C-45.1792 49.6534 -50.4632 42.6413 -50.6031 34.6278L-68.3301 -980.95C-68.4699 -988.964 -63.4339 -996.156 -55.8559 -998.765Z" stroke="white" stroke-width="3"/>
<path opacity="0.454545" d="M-55.9293 -1006.59L908.122 -1319.83C915.745 -1322.31 924.095 -1319.59 928.806 -1313.11L1524.62 -493.037C1529.33 -486.553 1529.33 -477.773 1524.62 -471.289L928.806 348.782C924.095 355.266 915.745 357.979 908.122 355.503L-55.9292 42.2633C-63.5516 39.7866 -68.7124 32.6834 -68.7124 24.6687L-68.7124 -988.995C-68.7125 -997.01 -63.5517 -1004.11 -55.9293 -1006.59Z" stroke="white" stroke-width="3"/>
<path opacity="0.464646" d="M-55.8237 -1014.21L911.57 -1309.97C919.234 -1312.31 927.536 -1309.45 932.133 -1302.89L1512.36 -474.238C1516.96 -467.673 1516.8 -458.894 1511.98 -452.493L903.187 355.402C898.364 361.803 889.967 364.37 882.389 361.761L-74.0925 32.4178C-81.6706 29.8085 -86.7066 22.6163 -86.5668 14.6028L-68.912 -996.838C-68.7721 -1004.85 -63.4881 -1011.86 -55.8237 -1014.21Z" stroke="white" stroke-width="3"/>
<path opacity="0.474747" d="M-55.5434 -1021.61L914.875 -1299.88C922.58 -1302.08 930.83 -1299.08 935.312 -1292.44L1499.83 -455.502C1504.31 -448.857 1504.01 -440.083 1499.07 -433.767L877.547 361.751C872.612 368.066 864.172 370.486 856.641 367.745L-92.0034 22.4669C-99.5347 19.7257 -104.444 12.4467 -104.165 4.43691L-68.9328 -1004.47C-68.6531 -1012.48 -63.2476 -1019.4 -55.5434 -1021.61Z" stroke="white" stroke-width="3"/>
<path opacity="0.484848" d="M-55.0927 -1028.8L918.036 -1289.55C925.778 -1291.63 933.975 -1288.48 938.34 -1281.76L1487.04 -436.832C1491.41 -430.111 1490.95 -421.343 1485.9 -415.114L851.889 367.827C846.845 374.056 838.364 376.328 830.882 373.456L-109.661 12.4157C-117.143 9.54352 -121.925 2.18002 -121.506 -5.8237L-68.7792 -1011.9C-68.3598 -1019.9 -62.8343 -1026.73 -55.0927 -1028.8Z" stroke="white" stroke-width="3"/>
<path opacity="0.494949" d="M-54.4776 -1035.77L921.047 -1279C928.823 -1280.94 936.964 -1277.65 941.211 -1270.85L1473.99 -418.234C1478.23 -411.437 1477.62 -402.678 1472.47 -396.539L826.217 373.634C821.066 379.773 812.546 381.897 805.115 378.895L-127.065 2.26966C-134.496 -0.73271 -139.148 -8.17858 -138.589 -16.1738L-68.457 -1019.11C-67.8979 -1027.11 -62.2542 -1033.83 -54.4776 -1035.77Z" stroke="white" stroke-width="3"/>
<path opacity="0.50505" d="M-53.7015 -1042.52L923.903 -1268.22C931.712 -1270.02 939.794 -1266.59 943.922 -1259.72L1460.67 -399.711C1464.8 -392.841 1464.03 -384.094 1458.77 -378.045L800.538 379.17C795.279 385.218 786.725 387.193 779.347 384.062L-144.214 -7.96633C-151.591 -11.0979 -156.113 -18.6238 -155.415 -26.608L-67.9695 -1026.11C-67.271 -1034.09 -61.5108 -1040.72 -53.7015 -1042.52Z" stroke="white" stroke-width="3"/>
<path opacity="0.515152" d="M-52.7698 -1049.05L926.601 -1257.22C934.441 -1258.89 942.461 -1255.32 946.469 -1248.38L1447.09 -381.27C1451.1 -374.329 1450.18 -365.597 1444.82 -359.641L774.853 384.433C769.491 390.389 760.902 392.215 753.581 388.955L-161.107 -18.2903C-168.429 -21.5502 -172.819 -29.1539 -171.981 -37.1247L-67.3221 -1032.89C-66.4843 -1040.86 -60.6094 -1047.39 -52.7698 -1049.05Z" stroke="white" stroke-width="3"/>
<path opacity="0.525253" d="M-51.6831 -1055.36L929.141 -1246.01C937.008 -1247.54 944.966 -1243.83 948.851 -1236.82L1433.26 -362.914C1437.15 -355.904 1436.08 -347.189 1430.61 -341.328L749.173 389.427C743.707 395.289 735.089 396.964 727.825 393.577L-177.741 -28.6952C-185.005 -32.0824 -189.262 -39.7615 -188.285 -47.7165L-66.5152 -1039.45C-65.5385 -1047.41 -59.5505 -1053.83 -51.6831 -1055.36Z" stroke="white" stroke-width="3"/>
<path opacity="0.535354" d="M-50.4475 -1061.43L931.517 -1234.58C939.41 -1235.97 947.301 -1232.12 951.064 -1225.05L1419.18 -344.648C1422.94 -337.571 1421.72 -328.877 1416.15 -323.111L723.5 394.151C717.933 399.917 709.286 401.441 702.083 397.928L-194.116 -39.1774C-201.32 -42.6909 -205.442 -50.4432 -204.326 -58.3799L-65.5549 -1045.79C-64.4395 -1053.73 -58.3404 -1060.04 -50.4475 -1061.43Z" stroke="white" stroke-width="3"/>
<path opacity="0.545455" d="M-49.0672 -1067.28L933.726 -1222.94C941.642 -1224.19 949.465 -1220.21 953.104 -1213.06L1404.84 -326.474C1408.48 -319.333 1407.11 -310.661 1401.44 -304.994L697.84 398.609C692.173 404.276 683.501 405.649 676.36 402.011L-210.231 -49.7297C-217.372 -53.3683 -221.358 -61.1913 -220.105 -69.1073L-64.4453 -1051.9C-63.1916 -1059.82 -56.9832 -1066.03 -49.0672 -1067.28Z" stroke="white" stroke-width="3"/>
<path opacity="0.555556" d="M-47.5495 -1072.9L935.762 -1211.09C943.699 -1212.21 951.451 -1208.09 954.964 -1200.88L1390.26 -308.403C1393.77 -301.199 1392.24 -292.553 1386.48 -286.985L672.193 402.793C666.428 408.36 657.733 409.582 650.657 405.82L-226.088 -60.3538C-233.165 -64.1165 -237.014 -72.0079 -235.622 -79.9008L-63.1937 -1057.79C-61.802 -1065.68 -55.4862 -1071.78 -47.5495 -1072.9Z" stroke="white" stroke-width="3"/>
<path opacity="0.565657" d="M-45.8935 -1078.28L937.626 -1199.04C945.581 -1200.02 953.26 -1195.76 956.648 -1188.5L1375.42 -290.429C1378.81 -283.166 1377.13 -274.547 1371.27 -269.081L646.57 406.715C640.709 412.181 631.994 413.251 624.984 409.366L-241.682 -71.035C-248.691 -74.9205 -252.402 -82.8779 -250.873 -90.7454L-61.799 -1063.45C-60.2697 -1071.31 -53.8484 -1077.3 -45.8935 -1078.28Z" stroke="white" stroke-width="3"/>
<path opacity="0.575758" d="M-44.1099 -1083.43L939.31 -1186.79C947.281 -1187.63 954.885 -1183.24 958.144 -1175.92L1360.34 -272.569C1363.6 -265.247 1361.78 -256.659 1355.82 -251.296L620.97 410.365C615.014 415.728 606.282 416.645 599.341 412.638L-257.017 -81.7804C-263.958 -85.7878 -267.529 -93.8087 -265.863 -101.648L-60.2719 -1068.88C-58.6055 -1076.72 -52.0807 -1082.59 -44.1099 -1083.43Z" stroke="white" stroke-width="3"/>
<path opacity="0.585859" d="M-42.1957 -1088.34L940.818 -1174.34C948.802 -1175.04 956.328 -1170.52 959.459 -1163.14L1345.02 -254.814C1348.15 -247.437 1346.18 -238.882 1340.13 -233.624L595.405 413.754C589.356 419.013 580.609 419.778 573.739 415.65L-272.086 -92.5733C-278.956 -96.7012 -282.387 -104.783 -280.584 -112.593L-58.6092 -1074.07C-56.8063 -1081.88 -50.1799 -1087.64 -42.1957 -1088.34Z" stroke="white" stroke-width="3"/>
<path opacity="0.59596" d="M-40.1618 -1093.01L942.139 -1161.7C950.134 -1162.26 957.58 -1157.6 960.582 -1150.17L1329.46 -237.176C1332.46 -229.745 1330.34 -221.226 1324.2 -216.074L569.872 416.878C563.733 422.03 554.974 422.643 548.177 418.396L-286.895 -103.416C-293.692 -107.663 -296.981 -115.803 -295.042 -123.58L-56.8217 -1079.03C-54.8828 -1086.81 -48.1569 -1092.45 -40.1618 -1093.01Z" stroke="white" stroke-width="3"/>
<path opacity="0.606061" d="M-38.0116 -1097.44L943.272 -1148.87C951.276 -1149.29 958.639 -1144.51 961.511 -1137.02L1313.65 -219.658C1316.53 -212.176 1314.25 -203.695 1308.03 -198.651L544.379 419.738C538.15 424.782 529.382 425.241 522.66 420.876L-301.443 -114.303C-308.164 -118.668 -311.311 -126.865 -309.236 -134.606L-54.9129 -1083.75C-52.8386 -1091.5 -46.0153 -1097.02 -38.0116 -1097.44Z" stroke="white" stroke-width="3"/>
<path opacity="0.616162" d="M-35.7487 -1101.63L944.216 -1135.85C952.225 -1136.13 959.504 -1131.22 962.245 -1123.69L1297.62 -202.265C1300.36 -194.733 1297.94 -186.293 1291.62 -181.359L518.93 422.335C512.614 427.269 503.839 427.576 497.195 423.094L-315.728 -125.229C-322.372 -129.711 -325.375 -137.961 -323.166 -145.666L-52.8864 -1088.24C-50.6773 -1095.95 -43.7585 -1101.35 -35.7487 -1101.63Z" stroke="white" stroke-width="3"/>
<path opacity="0.626263" d="M-33.3771 -1105.57L944.966 -1122.65C952.98 -1122.79 960.172 -1117.75 962.781 -1110.18L1281.35 -184.994C1283.96 -177.416 1281.39 -169.02 1274.99 -164.196L493.53 424.675C487.129 429.499 478.351 429.652 471.785 425.055L-329.749 -136.185C-336.314 -140.782 -339.173 -149.084 -336.829 -156.749L-50.7459 -1092.49C-48.4026 -1100.15 -41.3905 -1105.43 -33.3771 -1105.57Z" stroke="white" stroke-width="3"/>
<path opacity="0.636364" d="M-30.8997 -1109.27L945.524 -1109.27C953.539 -1109.27 960.642 -1104.11 963.119 -1096.49L1264.85 -167.856C1267.33 -160.234 1264.61 -151.883 1258.13 -147.172L468.186 426.755C461.702 431.466 452.922 431.466 446.438 426.755L-343.505 -147.172C-349.989 -151.883 -352.702 -160.234 -350.226 -167.856L-48.4942 -1096.49C-46.0176 -1104.11 -38.9144 -1109.27 -30.8997 -1109.27Z" stroke="white" stroke-width="3"/>
<path opacity="0.646465" d="M-28.3261 -1112.73L945.88 -1095.72C953.894 -1095.58 960.906 -1090.3 963.249 -1082.63L1248.12 -150.854C1250.47 -143.189 1247.61 -134.888 1241.04 -130.291L442.898 428.576C436.332 433.173 427.554 433.02 421.153 428.197L-357.001 -158.185C-363.402 -163.008 -365.969 -171.404 -363.36 -178.982L-46.1411 -1100.25C-43.5317 -1107.83 -36.3396 -1112.87 -28.3261 -1112.73Z" stroke="white" stroke-width="3"/>
<path opacity="0.656566" d="M-25.6564 -1115.93L946.037 -1082C954.047 -1081.72 960.966 -1076.31 963.175 -1068.61L1231.17 -133.989C1233.38 -126.285 1230.38 -118.034 1223.74 -113.552L417.674 430.143C411.029 434.625 402.254 434.318 395.939 429.384L-370.233 -169.215C-376.549 -174.149 -378.969 -182.589 -376.228 -190.121L-43.6863 -1103.77C-40.9451 -1111.3 -33.6662 -1116.21 -25.6564 -1115.93Z" stroke="white" stroke-width="3"/>
<path opacity="0.666667" d="M-22.8969 -1118.89L945.99 -1068.11C953.994 -1067.69 960.817 -1062.17 962.892 -1054.43L1214 -117.27C1216.08 -109.529 1212.93 -101.332 1206.21 -96.9667L392.516 431.451C385.794 435.816 377.027 435.357 370.798 430.313L-383.202 -180.264C-389.431 -185.308 -391.703 -193.789 -388.831 -201.271L-41.1364 -1107.05C-38.2642 -1114.53 -30.9006 -1119.31 -22.8969 -1118.89Z" stroke="white" stroke-width="3"/>
<path opacity="0.676768" d="M-20.0545 -1121.6L945.735 -1054.06C953.73 -1053.5 960.456 -1047.86 962.395 -1040.08L1196.61 -100.695C1198.55 -92.918 1195.26 -84.7773 1188.46 -80.5301L367.428 432.51C360.631 436.757 351.873 436.145 345.733 430.993L-395.911 -191.32C-402.051 -196.472 -404.175 -204.991 -401.173 -212.422L-38.4979 -1110.07C-35.4955 -1117.5 -28.0497 -1122.16 -20.0545 -1121.6Z" stroke="white" stroke-width="3"/>
<path opacity="0.686869" d="M-17.1303 -1124.06L945.272 -1039.86C953.257 -1039.16 959.883 -1033.4 961.686 -1025.59L1179.01 -84.2712C1180.81 -76.4619 1177.38 -68.3799 1170.51 -64.252L342.417 433.315C335.547 437.443 326.801 436.678 320.752 431.42L-408.357 -202.385C-414.406 -207.643 -416.381 -216.198 -413.249 -223.576L-35.7721 -1112.86C-32.6404 -1120.23 -25.1145 -1124.76 -17.1303 -1124.06Z" stroke="white" stroke-width="3"/>
<path opacity="0.69697" d="M-14.131 -1126.26L944.598 -1025.5C952.569 -1024.66 959.094 -1018.78 960.76 -1010.94L1161.19 -67.9997C1162.86 -60.1602 1159.28 -52.1392 1152.34 -48.1318L317.486 433.873C310.545 437.881 301.813 436.963 295.857 431.6L-420.542 -213.449C-426.498 -218.812 -428.323 -227.4 -425.064 -234.722L-32.9653 -1115.39C-29.7055 -1122.71 -22.1018 -1127.1 -14.131 -1126.26Z" stroke="white" stroke-width="3"/>
<path opacity="0.707071" d="M-11.0576 -1128.21L943.714 -1010.98C951.669 -1010 958.09 -1004.02 959.619 -996.148L1143.17 -51.88C1144.7 -44.0125 1140.98 -36.0552 1133.98 -32.1695L292.642 434.189C285.632 438.075 276.918 437.004 271.056 431.538L-432.463 -224.504C-438.325 -229.97 -440 -238.589 -436.613 -245.852L-30.0789 -1117.67C-26.6917 -1124.93 -19.0125 -1129.19 -11.0576 -1128.21Z" stroke="white" stroke-width="3"/>
<path opacity="0.717172" d="M-7.92069 -1129.91L942.61 -996.325C950.547 -995.21 956.863 -989.111 958.255 -981.218L1124.93 -35.928C1126.33 -28.0351 1122.48 -20.1437 1115.4 -16.381L267.884 434.252C260.807 438.015 252.113 436.793 246.348 431.225L-444.127 -235.558C-449.892 -241.126 -451.417 -249.772 -447.903 -256.976L-27.1231 -1119.7C-23.6097 -1126.91 -15.8574 -1131.03 -7.92069 -1129.91Z" stroke="white" stroke-width="3"/>
<path opacity="0.727273" d="M-4.72093 -1131.36L941.29 -981.524C949.206 -980.27 955.415 -974.061 956.669 -966.145L1106.5 -20.1341C1107.76 -12.2181 1103.77 -4.3951 1096.63 -0.75647L243.22 434.077C236.078 437.716 227.407 436.342 221.739 430.675L-455.53 -246.594C-461.197 -252.261 -462.571 -260.933 -458.932 -268.074L-24.0985 -1121.48C-20.46 -1128.62 -12.6369 -1132.61 -4.72093 -1131.36Z" stroke="white" stroke-width="3"/>
<path opacity="0.737374" d="M-1.4658 -1132.55L939.749 -966.585C947.642 -965.193 953.741 -958.877 954.857 -950.941L1087.87 -4.50701C1088.98 3.42959 1084.86 11.1819 1077.66 14.6953L218.65 433.662C211.447 437.175 202.8 435.651 197.233 429.885L-466.676 -257.613C-472.244 -263.378 -473.466 -272.072 -469.703 -279.149L-21.0128 -1123.01C-17.2501 -1130.09 -9.35872 -1133.94 -1.4658 -1132.55Z" stroke="white" stroke-width="3"/>
<path opacity="0.747475" d="M1.84335 -1133.48L937.988 -951.511C945.855 -949.982 951.843 -943.56 952.82 -935.605L1069.04 10.9523C1070.02 18.9072 1065.76 26.5863 1058.5 29.9735L194.184 433.01C186.92 436.397 178.302 434.722 172.836 428.86L-477.563 -268.607C-483.029 -274.468 -484.099 -283.183 -480.213 -290.193L-17.8671 -1124.29C-13.9815 -1131.3 -6.02407 -1135.01 1.84335 -1133.48Z" stroke="white" stroke-width="3"/>
<path opacity="0.757576" d="M5.20089 -1134.16L936.003 -936.313C943.843 -934.647 949.718 -928.122 950.555 -920.151L1050.02 26.2327C1050.86 34.2035 1046.47 41.8072 1039.15 45.0671L169.823 432.116C162.502 435.376 153.913 433.551 148.551 427.595L-488.192 -279.579C-493.555 -285.536 -494.473 -294.267 -490.465 -301.208L-14.6669 -1125.32C-10.6596 -1132.26 -2.63864 -1135.83 5.20089 -1134.16Z" stroke="white" stroke-width="3"/>
<path opacity="0.767677" d="M8.60093 -1134.59L933.793 -920.99C941.602 -919.187 947.362 -912.56 948.061 -904.576L1030.82 41.3389C1031.52 49.3229 1026.99 56.8489 1019.62 59.9805L145.571 430.991C138.194 434.122 129.639 432.147 124.381 426.098L-498.566 -290.52C-503.824 -296.568 -504.589 -305.315 -500.461 -312.185L-11.4182 -1126.09C-7.29035 -1132.96 0.791667 -1136.39 8.60093 -1134.59Z" stroke="white" stroke-width="3"/>
<path opacity="0.777778" d="M12.0372 -1134.75L931.353 -905.541C939.129 -903.602 944.773 -896.876 945.332 -888.881L1011.42 56.2704C1011.98 64.2656 1007.33 71.7115 999.899 74.7138L121.43 429.638C113.999 432.641 105.48 430.517 100.328 424.377L-508.687 -301.419C-513.839 -307.558 -514.451 -316.317 -510.204 -323.114L-8.12723 -1126.6C-3.8801 -1133.4 4.26055 -1136.69 12.0372 -1134.75Z" stroke="white" stroke-width="3"/>
<path opacity="0.787879" d="M15.5094 -1134.66L928.686 -889.976C936.428 -887.901 941.953 -881.078 942.373 -873.074L991.851 71.0204C992.27 79.0241 987.488 86.3877 980.006 89.2599L97.408 428.057C89.9257 430.93 81.4448 428.657 76.401 422.429L-518.552 -312.278C-523.596 -318.506 -524.056 -327.274 -519.691 -333.996L-4.79416 -1126.87C-0.429052 -1133.59 7.76781 -1136.73 15.5094 -1134.66Z" stroke="white" stroke-width="3"/>
<path opacity="0.79798" d="M19.0087 -1134.32L925.787 -874.304C933.491 -872.094 938.897 -865.176 939.177 -857.166L972.098 85.5807C972.378 93.5905 967.468 100.87 959.937 103.611L73.5048 426.246C65.9734 428.987 57.5336 426.567 52.5992 420.251L-528.167 -323.096C-533.102 -329.412 -533.408 -338.187 -528.926 -344.831L-1.42779 -1126.88C3.05396 -1133.52 11.3045 -1136.53 19.0087 -1134.32Z" stroke="white" stroke-width="3"/>
<path opacity="0.808081" d="M22.5354 -1133.72L922.66 -858.522C930.324 -856.179 935.608 -849.167 935.748 -841.153L952.175 99.9561C952.315 107.97 947.279 115.162 939.701 117.771L49.7292 424.213C42.1512 426.822 33.7549 424.255 28.9315 417.854L-537.528 -333.863C-542.352 -340.264 -542.505 -349.043 -537.908 -355.608L1.97226 -1126.64C6.56935 -1133.2 14.871 -1136.06 22.5354 -1133.72Z" stroke="white" stroke-width="3"/>
<path opacity="0.818182" d="M26.0785 -1132.86L919.295 -842.639C926.918 -840.163 932.078 -833.06 932.078 -825.045L932.078 114.139C932.078 122.153 926.918 129.257 919.295 131.733L26.0785 421.957C18.4561 424.434 10.1059 421.72 5.39493 415.236L-546.643 -344.579C-551.354 -351.063 -551.354 -359.843 -546.643 -366.327L5.3949 -1126.14C10.1058 -1132.63 18.4561 -1135.34 26.0785 -1132.86Z" stroke="white" stroke-width="3"/>
<path opacity="0.828283" d="M29.6382 -1131.75L915.698 -826.653C923.276 -824.044 928.312 -816.852 928.172 -808.838L911.817 128.134C911.677 136.147 906.393 143.159 898.728 145.503L2.56129 419.488C-5.10319 421.832 -13.4048 418.973 -18.0019 412.408L-555.509 -355.232C-560.106 -361.797 -559.953 -370.575 -555.129 -376.976L8.84046 -1125.39C13.6639 -1131.79 22.0602 -1134.36 29.6382 -1131.75Z" stroke="white" stroke-width="3"/>
<path opacity="0.838384" d="M33.2071 -1130.38L911.863 -810.58C919.394 -807.838 924.304 -800.559 924.024 -792.55L891.391 141.927C891.112 149.936 885.706 156.855 878.002 159.064L-20.8217 416.798C-28.5259 419.007 -36.7764 416.004 -41.2582 409.36L-564.129 -365.829C-568.611 -372.473 -568.304 -381.248 -563.37 -387.563L12.3015 -1124.39C17.2358 -1130.71 25.6757 -1133.13 33.2071 -1130.38Z" stroke="white" stroke-width="3"/>
<path opacity="0.848485" d="M36.7834 -1128.76L907.792 -794.41C915.275 -791.538 920.057 -784.174 919.637 -776.171L870.809 155.528C870.39 163.531 864.864 170.355 857.123 172.429L-44.064 413.901C-51.8056 415.976 -60.0024 412.829 -64.3675 406.108L-572.503 -376.353C-576.868 -383.074 -576.409 -391.842 -571.365 -398.071L15.7765 -1123.13C20.8203 -1129.36 29.3011 -1131.63 36.7834 -1128.76Z" stroke="white" stroke-width="3"/>
<path opacity="0.858586" d="M40.3617 -1126.88L903.485 -778.16C910.916 -775.157 915.568 -767.711 915.009 -759.716L850.072 168.924C849.513 176.919 843.87 183.645 836.093 185.584L-67.163 410.791C-74.9396 412.73 -83.0803 409.441 -87.3274 402.644L-580.633 -386.811C-584.881 -393.607 -584.268 -402.366 -579.116 -408.506L19.2597 -1121.62C24.4114 -1127.76 32.9306 -1129.89 40.3617 -1126.88Z" stroke="white" stroke-width="3"/>
<path opacity="0.868687" d="M43.9328 -1124.75L898.934 -761.828C906.311 -758.696 910.833 -751.17 910.135 -743.186L829.181 182.118C828.482 190.103 822.722 196.729 814.913 198.532L-90.12 407.475C-97.9292 409.278 -106.011 405.848 -110.139 398.978L-588.527 -397.193C-592.654 -404.063 -591.889 -412.809 -586.631 -418.858L22.7421 -1119.86C28.0002 -1125.91 36.5552 -1127.89 43.9328 -1124.75Z" stroke="white" stroke-width="3"/>
<path opacity="0.878788" d="M47.5002 -1122.37L894.147 -745.415C901.468 -742.155 905.858 -734.552 905.021 -726.581L808.147 195.112C807.309 203.083 801.434 209.608 793.595 211.274L-112.923 403.961C-120.763 405.627 -128.784 402.056 -132.791 395.115L-596.176 -407.492C-600.183 -414.433 -599.266 -423.164 -593.903 -429.121L26.2274 -1117.84C31.5902 -1123.8 40.1784 -1125.63 47.5002 -1122.37Z" stroke="white" stroke-width="3"/>
<path opacity="0.888889" d="M51.053 -1119.73L889.117 -728.933C896.381 -725.546 900.637 -717.866 899.661 -709.912L786.968 207.897C785.991 215.852 780.003 222.273 772.136 223.803L-135.576 400.244C-143.444 401.773 -151.401 398.063 -155.287 391.053L-603.591 -417.709C-607.476 -424.719 -606.406 -433.433 -600.94 -439.295L29.7045 -1115.58C35.1706 -1121.44 43.7892 -1123.12 51.053 -1119.73Z" stroke="white" stroke-width="3"/>
<path opacity="0.89899" d="M54.5887 -1116.84L883.845 -712.382C891.049 -708.869 895.171 -701.117 894.055 -693.18L765.65 220.473C764.534 228.41 758.435 234.726 750.542 236.118L-158.073 396.331C-165.966 397.723 -173.858 393.874 -177.62 386.797L-610.77 -427.839C-614.533 -434.915 -613.311 -443.61 -607.743 -449.375L33.1711 -1113.06C38.7385 -1118.83 47.3852 -1120.35 54.5887 -1116.84Z" stroke="white" stroke-width="3"/>
<path opacity="0.909091" d="M58.1046 -1113.69L878.333 -695.766C885.474 -692.127 889.46 -684.304 888.206 -676.388L744.198 232.842C742.944 240.758 736.736 246.966 728.82 248.22L-180.41 392.228C-188.326 393.481 -196.149 389.495 -199.787 382.354L-617.715 -437.874C-621.353 -445.015 -619.98 -453.687 -614.312 -459.354L36.6243 -1110.29C42.2915 -1115.96 50.9634 -1117.33 58.1046 -1113.69Z" stroke="white" stroke-width="3"/>
<path opacity="0.919192" d="M61.5935 -1110.31L872.576 -679.098C879.653 -675.335 883.502 -667.444 882.11 -659.551L722.615 244.99C721.223 252.883 714.907 258.982 706.971 260.097L-202.585 387.927C-210.522 389.042 -218.274 384.92 -221.788 377.717L-624.429 -447.821C-627.943 -455.024 -626.418 -463.671 -620.653 -469.238L40.0572 -1107.28C45.8224 -1112.85 54.517 -1114.07 61.5935 -1110.31Z" stroke="white" stroke-width="3"/>
<path opacity="0.929293" d="M65.0513 -1106.66L866.575 -662.371C873.585 -658.485 877.295 -650.528 875.766 -642.66L700.904 256.928C699.375 264.795 692.953 270.783 684.998 271.76L-224.596 383.444C-232.551 384.421 -240.23 380.164 -243.617 372.9L-630.915 -457.663C-634.303 -464.927 -632.627 -473.545 -626.766 -479.012L43.4654 -1104.01C49.327 -1109.48 58.0415 -1110.55 65.0513 -1106.66Z" stroke="white" stroke-width="3"/>
<path opacity="0.939394" d="M68.4759 -1102.78L860.332 -645.597C867.273 -641.59 870.844 -633.569 869.178 -625.729L679.072 268.646C677.406 276.486 670.881 282.361 662.91 283.199L-246.437 378.775C-254.408 379.613 -262.012 375.223 -265.272 367.901L-637.174 -467.405C-640.434 -474.727 -638.608 -483.315 -632.652 -488.678L46.847 -1100.5C52.8031 -1105.87 61.535 -1106.78 68.4759 -1102.78Z" stroke="white" stroke-width="3"/>
<path opacity="0.949495" d="M71.8592 -1098.63L853.843 -628.771C860.712 -624.643 864.143 -616.561 862.34 -608.752L657.12 280.154C655.317 287.964 648.691 293.724 640.706 294.422L-268.11 373.934C-276.094 374.632 -283.62 370.11 -286.751 362.732L-643.211 -477.033C-646.342 -484.411 -644.367 -492.965 -638.318 -498.224L50.1939 -1096.74C56.2427 -1102 64.9893 -1102.76 71.8592 -1098.63Z" stroke="white" stroke-width="3"/>
<path opacity="0.959596" d="M75.2026 -1094.26L847.112 -611.913C853.909 -607.666 857.198 -599.526 855.259 -591.749L635.057 291.432C633.118 299.209 626.392 304.853 618.397 305.412L-289.605 368.906C-297.6 369.465 -305.046 364.812 -308.048 357.381L-649.022 -486.56C-652.024 -493.991 -649.9 -502.51 -643.761 -507.662L53.5076 -1092.74C59.6472 -1097.89 68.4058 -1098.5 75.2026 -1094.26Z" stroke="white" stroke-width="3"/>
<path opacity="0.969697" d="M78.4935 -1089.63L840.132 -595.013C846.854 -590.648 850 -582.452 847.926 -574.71L612.88 302.496C610.805 310.237 603.982 315.763 595.978 316.182L-310.927 363.711C-318.931 364.13 -326.295 359.349 -329.167 351.866L-654.619 -495.965C-657.491 -503.447 -655.218 -511.928 -648.99 -516.972L56.7753 -1088.49C63.0039 -1093.53 71.7718 -1093.99 78.4935 -1089.63Z" stroke="white" stroke-width="3"/>
<path opacity="0.979798" d="M81.7334 -1084.76L832.909 -578.09C839.553 -573.608 842.556 -565.358 840.347 -557.653L590.597 313.328C588.388 321.032 581.469 326.437 573.459 326.717L-332.07 358.339C-340.079 358.619 -347.358 353.709 -350.1 346.177L-659.998 -505.26C-662.739 -512.791 -660.319 -521.231 -654.003 -526.166L59.9986 -1084C66.3143 -1088.94 75.089 -1089.25 81.7334 -1084.76Z" stroke="white" stroke-width="3"/>
<path opacity="0.989899" d="M84.92 -1079.65L825.443 -561.131C832.009 -556.534 834.867 -548.232 832.524 -540.567L568.216 323.944C565.873 331.608 558.861 336.892 550.847 337.032L-353.027 352.809C-361.04 352.949 -368.233 347.913 -370.842 340.335L-665.159 -514.425C-667.769 -522.003 -665.202 -530.4 -658.801 -535.223L63.1753 -1079.27C69.5761 -1084.09 78.3548 -1084.25 84.92 -1079.65Z" stroke="white" stroke-width="3"/>
<path d="M88.045 -1074.3L817.732 -544.152C824.217 -539.441 826.93 -531.091 824.453 -523.468L545.737 334.331C543.26 341.953 536.157 347.114 528.143 347.114L-373.801 347.114C-381.815 347.114 -388.918 341.953 -391.395 334.331L-670.111 -523.468C-672.588 -531.091 -669.874 -539.441 -663.39 -544.152L66.2971 -1074.3C72.7811 -1079.01 81.561 -1079.01 88.045 -1074.3Z" stroke="white" stroke-width="3"/>
</g>
</g>
<defs>
<filter id="filter0_f_623_338" x="226" y="-928" width="1720" height="1288" filterUnits="userSpaceOnUse" color-interpolation-filters="sRGB">
<feFlood flood-opacity="0" result="BackgroundImageFix"/>
<feBlend mode="normal" in="SourceGraphic" in2="BackgroundImageFix" result="shape"/>
<feGaussianBlur stdDeviation="100" result="effect1_foregroundBlur_623_338"/>
</filter>
<radialGradient id="paint0_angular_623_338" cx="0" cy="0" r="1" gradientUnits="userSpaceOnUse" gradientTransform="translate(1139 -54.0017) rotate(46.7455) scale(130.439 130.544)">
<stop offset="0.00807593" stop-color="#FEF1E7"/>
<stop offset="0.250667" stop-color="#F7CA55" stop-opacity="0"/>
<stop offset="0.736757" stop-color="#F79C55"/>
</radialGradient>
</defs>
</svg>
