<svg width="155" height="28" viewBox="0 0 155 28" fill="none" xmlns="http://www.w3.org/2000/svg">
<rect x="1" width="28" height="28" rx="6" fill="#F47715"/>
<path d="M12.9823 19.9826C11.7307 19.9839 10.5068 19.6069 9.46619 18.8993C8.90016 18.5143 8.39792 18.0402 7.97832 17.4946C7.04273 16.2738 6.56938 14.7516 6.64451 13.2054C6.71963 11.6592 7.33823 10.1919 8.3876 9.07089C9.43698 7.94985 10.8473 7.24967 12.3616 7.09792C13.8758 6.94616 15.3933 7.35293 16.6375 8.24411L17.1272 6.11868C15.4234 5.13028 13.4327 4.78158 11.5021 5.13335C9.57157 5.48513 7.82357 6.51507 6.56287 8.04363C5.30216 9.57219 4.60873 11.5024 4.60343 13.4978C4.59814 15.4932 5.28134 17.4272 6.53392 18.9627L4.29705 21.2385C4.10685 21.432 4 21.6944 4 21.9681C4 22.2417 4.10685 22.5042 4.29705 22.6977C4.48724 22.8912 4.7452 22.9999 5.01418 22.9999C5.28315 22.9999 5.54111 22.8912 5.73131 22.6977L8.00875 20.3791C9.68172 21.6378 11.7558 22.2167 13.8259 22.0027C15.896 21.7888 17.8133 20.7973 19.2033 19.2221L18.6991 16.3287C18.1794 17.4223 17.3676 18.345 16.3566 18.9911C15.3456 19.6373 14.1762 19.9809 12.9823 19.9826Z" fill="white"/>
<path d="M11.333 14.2651H17.0566L18.7218 7.71941C18.7751 7.50978 19.077 7.52226 19.1129 7.73557L20.7967 17.7557C20.8281 17.9424 21.0772 17.9851 21.1689 17.8195L23.1379 14.2651H25.9997" stroke="white" stroke-width="1.5" stroke-linecap="round"/>
<path d="M47.368 23C46.92 23 46.56 22.816 46.288 22.448L40.744 15.152L42.928 12.92L48.664 20.504C48.888 20.808 49 21.136 49 21.488C49 21.936 48.832 22.304 48.496 22.592C48.16 22.864 47.784 23 47.368 23ZM47.656 6.08C48.04 6.08 48.352 6.24 48.592 6.56C48.848 6.864 48.976 7.176 48.976 7.496C48.976 7.832 48.832 8.144 48.544 8.432L38.488 18.056L38.368 14.624L46.48 6.632C46.848 6.264 47.24 6.08 47.656 6.08ZM37.288 23C36.84 23 36.48 22.864 36.208 22.592C35.936 22.304 35.8 21.952 35.8 21.536V7.664C35.8 7.248 35.944 6.904 36.232 6.632C36.52 6.344 36.888 6.2 37.336 6.2C37.784 6.2 38.136 6.344 38.392 6.632C38.664 6.904 38.8 7.248 38.8 7.664V21.536C38.8 21.952 38.664 22.304 38.392 22.592C38.12 22.864 37.752 23 37.288 23ZM53.9266 21.536C53.9266 21.952 53.7826 22.304 53.4946 22.592C53.2226 22.864 52.8786 23 52.4626 23C52.0626 23 51.7266 22.864 51.4546 22.592C51.1826 22.304 51.0466 21.952 51.0466 21.536V6.704C51.0466 6.288 51.1826 5.944 51.4546 5.672C51.7426 5.384 52.0946 5.24 52.5106 5.24C52.9266 5.24 53.2626 5.384 53.5186 5.672C53.7906 5.944 53.9266 6.288 53.9266 6.704V21.536ZM69.0169 16.592C69.0169 17.904 68.7209 19.064 68.1289 20.072C67.5529 21.064 66.7689 21.84 65.7769 22.4C64.8009 22.96 63.7049 23.24 62.4889 23.24C61.2729 23.24 60.1689 22.96 59.1769 22.4C58.2009 21.84 57.4169 21.064 56.8249 20.072C56.2489 19.064 55.9609 17.904 55.9609 16.592C55.9609 15.28 56.2489 14.128 56.8249 13.136C57.4169 12.128 58.2009 11.344 59.1769 10.784C60.1689 10.208 61.2729 9.92 62.4889 9.92C63.7049 9.92 64.8009 10.208 65.7769 10.784C66.7689 11.344 67.5529 12.128 68.1289 13.136C68.7209 14.128 69.0169 15.28 69.0169 16.592ZM66.1369 16.592C66.1369 15.776 65.9689 15.072 65.6329 14.48C65.3129 13.872 64.8729 13.4 64.3129 13.064C63.7689 12.728 63.1609 12.56 62.4889 12.56C61.8169 12.56 61.2009 12.728 60.6409 13.064C60.0969 13.4 59.6569 13.872 59.3209 14.48C59.0009 15.072 58.8409 15.776 58.8409 16.592C58.8409 17.392 59.0009 18.096 59.3209 18.704C59.6569 19.296 60.0969 19.76 60.6409 20.096C61.2009 20.432 61.8169 20.6 62.4889 20.6C63.1609 20.6 63.7689 20.432 64.3129 20.096C64.8729 19.76 65.3129 19.296 65.6329 18.704C65.9689 18.096 66.1369 17.392 66.1369 16.592ZM80.5855 10.16C81.0015 10.16 81.3455 10.304 81.6175 10.592C81.8895 10.864 82.0255 11.208 82.0255 11.624V17.72C82.0255 19.416 81.5535 20.76 80.6095 21.752C79.6655 22.744 78.3055 23.24 76.5295 23.24C74.7535 23.24 73.3935 22.744 72.4495 21.752C71.5215 20.76 71.0575 19.416 71.0575 17.72V11.624C71.0575 11.208 71.1935 10.864 71.4655 10.592C71.7375 10.304 72.0815 10.16 72.4975 10.16C72.9135 10.16 73.2575 10.304 73.5295 10.592C73.8015 10.864 73.9375 11.208 73.9375 11.624V17.72C73.9375 18.696 74.1535 19.424 74.5855 19.904C75.0175 20.368 75.6655 20.6 76.5295 20.6C77.4095 20.6 78.0655 20.368 78.4975 19.904C78.9295 19.424 79.1455 18.696 79.1455 17.72V11.624C79.1455 11.208 79.2815 10.864 79.5535 10.592C79.8255 10.304 80.1695 10.16 80.5855 10.16ZM95.1754 5.24C95.5914 5.24 95.9354 5.376 96.2074 5.648C96.4794 5.92 96.6154 6.272 96.6154 6.704V21.536C96.6154 21.952 96.4794 22.304 96.2074 22.592C95.9354 22.864 95.5914 23 95.1754 23C94.7594 23 94.4154 22.864 94.1434 22.592C93.8714 22.304 93.7354 21.952 93.7354 21.536V20.36L94.2634 20.576C94.2634 20.784 94.1514 21.04 93.9274 21.344C93.7034 21.632 93.3994 21.92 93.0154 22.208C92.6314 22.496 92.1754 22.744 91.6474 22.952C91.1354 23.144 90.5754 23.24 89.9674 23.24C88.8634 23.24 87.8634 22.96 86.9674 22.4C86.0714 21.824 85.3594 21.04 84.8314 20.048C84.3194 19.04 84.0634 17.888 84.0634 16.592C84.0634 15.28 84.3194 14.128 84.8314 13.136C85.3594 12.128 86.0634 11.344 86.9434 10.784C87.8234 10.208 88.7994 9.92 89.8714 9.92C90.5594 9.92 91.1914 10.024 91.7674 10.232C92.3434 10.44 92.8394 10.704 93.2554 11.024C93.6874 11.344 94.0154 11.672 94.2394 12.008C94.4794 12.328 94.5994 12.6 94.5994 12.824L93.7354 13.136V6.704C93.7354 6.288 93.8714 5.944 94.1434 5.672C94.4154 5.384 94.7594 5.24 95.1754 5.24ZM90.3274 20.6C91.0314 20.6 91.6474 20.424 92.1754 20.072C92.7034 19.72 93.1114 19.24 93.3994 18.632C93.7034 18.024 93.8554 17.344 93.8554 16.592C93.8554 15.824 93.7034 15.136 93.3994 14.528C93.1114 13.92 92.7034 13.44 92.1754 13.088C91.6474 12.736 91.0314 12.56 90.3274 12.56C89.6394 12.56 89.0314 12.736 88.5034 13.088C87.9754 13.44 87.5594 13.92 87.2554 14.528C86.9674 15.136 86.8234 15.824 86.8234 16.592C86.8234 17.344 86.9674 18.024 87.2554 18.632C87.5594 19.24 87.9754 19.72 88.5034 20.072C89.0314 20.424 89.6394 20.6 90.3274 20.6ZM101.006 6.176C101.23 6.176 101.462 6.24 101.702 6.368C101.958 6.48 102.15 6.632 102.278 6.824L108.11 15.8L106.91 15.752L112.886 6.824C113.19 6.392 113.582 6.176 114.062 6.176C114.446 6.176 114.79 6.312 115.094 6.584C115.398 6.856 115.55 7.208 115.55 7.64V21.536C115.55 21.952 115.414 22.304 115.142 22.592C114.87 22.864 114.51 23 114.062 23C113.614 23 113.246 22.864 112.958 22.592C112.686 22.304 112.55 21.952 112.55 21.536V10.232L113.486 10.448L108.59 17.912C108.446 18.088 108.262 18.24 108.038 18.368C107.83 18.496 107.614 18.552 107.39 18.536C107.182 18.552 106.966 18.496 106.742 18.368C106.534 18.24 106.358 18.088 106.214 17.912L101.63 10.664L102.254 9.392V21.536C102.254 21.952 102.126 22.304 101.87 22.592C101.614 22.864 101.278 23 100.862 23C100.462 23 100.134 22.864 99.8777 22.592C99.6217 22.304 99.4937 21.952 99.4937 21.536V7.64C99.4937 7.24 99.6377 6.896 99.9257 6.608C100.23 6.32 100.59 6.176 101.006 6.176ZM128.95 9.92C129.366 9.92 129.71 10.056 129.982 10.328C130.254 10.6 130.39 10.952 130.39 11.384V21.536C130.39 21.952 130.254 22.304 129.982 22.592C129.71 22.864 129.366 23 128.95 23C128.534 23 128.19 22.864 127.918 22.592C127.646 22.304 127.51 21.952 127.51 21.536V20.36L128.038 20.576C128.038 20.784 127.926 21.04 127.702 21.344C127.478 21.632 127.174 21.92 126.79 22.208C126.406 22.496 125.95 22.744 125.422 22.952C124.91 23.144 124.35 23.24 123.742 23.24C122.638 23.24 121.638 22.96 120.742 22.4C119.846 21.824 119.134 21.04 118.606 20.048C118.094 19.04 117.838 17.888 117.838 16.592C117.838 15.28 118.094 14.128 118.606 13.136C119.134 12.128 119.838 11.344 120.718 10.784C121.598 10.208 122.574 9.92 123.646 9.92C124.334 9.92 124.966 10.024 125.542 10.232C126.118 10.44 126.614 10.704 127.03 11.024C127.462 11.344 127.79 11.672 128.014 12.008C128.254 12.328 128.374 12.6 128.374 12.824L127.51 13.136V11.384C127.51 10.968 127.646 10.624 127.918 10.352C128.19 10.064 128.534 9.92 128.95 9.92ZM124.102 20.6C124.806 20.6 125.422 20.424 125.95 20.072C126.478 19.72 126.886 19.24 127.174 18.632C127.478 18.024 127.63 17.344 127.63 16.592C127.63 15.824 127.478 15.136 127.174 14.528C126.886 13.92 126.478 13.44 125.95 13.088C125.422 12.736 124.806 12.56 124.102 12.56C123.414 12.56 122.806 12.736 122.278 13.088C121.75 13.44 121.334 13.92 121.03 14.528C120.742 15.136 120.598 15.824 120.598 16.592C120.598 17.344 120.742 18.024 121.03 18.632C121.334 19.24 121.75 19.72 122.278 20.072C122.806 20.424 123.414 20.6 124.102 20.6ZM133.172 10.4H138.86C139.244 10.4 139.564 10.528 139.82 10.784C140.076 11.04 140.204 11.36 140.204 11.744C140.204 12.112 140.076 12.424 139.82 12.68C139.564 12.92 139.244 13.04 138.86 13.04H133.172C132.788 13.04 132.468 12.912 132.212 12.656C131.956 12.4 131.828 12.08 131.828 11.696C131.828 11.328 131.956 11.024 132.212 10.784C132.468 10.528 132.788 10.4 133.172 10.4ZM135.74 7.4C136.156 7.4 136.492 7.544 136.748 7.832C137.02 8.104 137.156 8.448 137.156 8.864V19.544C137.156 19.768 137.196 19.952 137.276 20.096C137.372 20.24 137.492 20.344 137.636 20.408C137.796 20.472 137.964 20.504 138.14 20.504C138.332 20.504 138.508 20.472 138.668 20.408C138.828 20.328 139.012 20.288 139.22 20.288C139.444 20.288 139.644 20.392 139.82 20.6C140.012 20.808 140.108 21.096 140.108 21.464C140.108 21.912 139.86 22.28 139.364 22.568C138.884 22.856 138.364 23 137.804 23C137.468 23 137.092 22.976 136.676 22.928C136.276 22.864 135.892 22.728 135.524 22.52C135.172 22.296 134.876 21.96 134.636 21.512C134.396 21.064 134.276 20.448 134.276 19.664V8.864C134.276 8.448 134.412 8.104 134.684 7.832C134.972 7.544 135.324 7.4 135.74 7.4ZM148.299 23.24C146.939 23.24 145.755 22.96 144.747 22.4C143.755 21.824 142.987 21.048 142.443 20.072C141.915 19.096 141.651 17.992 141.651 16.76C141.651 15.32 141.939 14.096 142.515 13.088C143.107 12.064 143.875 11.28 144.819 10.736C145.763 10.192 146.763 9.92 147.819 9.92C148.635 9.92 149.403 10.088 150.123 10.424C150.859 10.76 151.507 11.224 152.067 11.816C152.627 12.392 153.067 13.064 153.387 13.832C153.723 14.6 153.891 15.416 153.891 16.28C153.875 16.664 153.723 16.976 153.435 17.216C153.147 17.456 152.811 17.576 152.427 17.576H143.259L142.539 15.176H151.347L150.819 15.656V15.008C150.787 14.544 150.619 14.128 150.315 13.76C150.027 13.392 149.659 13.104 149.211 12.896C148.779 12.672 148.315 12.56 147.819 12.56C147.339 12.56 146.891 12.624 146.475 12.752C146.059 12.88 145.699 13.096 145.395 13.4C145.091 13.704 144.851 14.112 144.675 14.624C144.499 15.136 144.411 15.784 144.411 16.568C144.411 17.432 144.587 18.168 144.939 18.776C145.307 19.368 145.771 19.824 146.331 20.144C146.907 20.448 147.515 20.6 148.155 20.6C148.747 20.6 149.219 20.552 149.571 20.456C149.923 20.36 150.203 20.248 150.411 20.12C150.635 19.976 150.835 19.856 151.011 19.76C151.299 19.616 151.571 19.544 151.827 19.544C152.179 19.544 152.467 19.664 152.691 19.904C152.931 20.144 153.051 20.424 153.051 20.744C153.051 21.176 152.827 21.568 152.379 21.92C151.963 22.272 151.379 22.584 150.627 22.856C149.875 23.112 149.099 23.24 148.299 23.24Z" fill="white"/>
</svg>
