<svg xmlns="http://www.w3.org/2000/svg" viewBox="0 0 722.77 122.15"><defs><style>.cls-1{fill:#06b2bc;}.cls-2{fill:#04346f;}</style></defs><g id="Layer_2" data-name="Layer 2"><g id="Layer_1-2" data-name="Layer 1"><path class="cls-1" d="M141.2,55.5l-7.91-25a4.08,4.08,0,0,0-7.86.28l-9.51,39.57L105.71,12.87h0a4.14,4.14,0,0,0-8.11-.22L87.22,57,81.74,40.66a4,4,0,0,0-3.67-2.72,3.91,3.91,0,0,0-3.83,2.48L67.31,57.35H30.47v8.52H73l4.5-11,6.64,19.77a4,4,0,0,0,7.74-.37l9.13-39,10.31,58.05a3.89,3.89,0,0,0,3.78,3.27h.12a3.88,3.88,0,0,0,3.85-3L130,48.3,135,64h18.66V55.5Z" transform="translate(0 -2.95)"/><path class="cls-2" d="M62,104.64a43.6,43.6,0,0,1-24.27-7.35,44.31,44.31,0,0,1-10.27-9.53A43.81,43.81,0,0,1,87.23,25l3.38-14.42A57.81,57.81,0,0,0,17.49,97.72L2.05,113.16a7,7,0,0,0,9.9,9.9l15.72-15.73a57.72,57.72,0,0,0,77.27-7.85l-3.48-19.63A43.9,43.9,0,0,1,62,104.64Z" transform="translate(0 -2.95)"/><path class="cls-2" d="M169.45,97.62a6.78,6.78,0,0,1-7.12-7V24.23a6.66,6.66,0,0,1,2.06-5,7.27,7.27,0,0,1,5.29-2,6.7,6.7,0,0,1,5.11,2,7,7,0,0,1,1.89,5V90.61a6.89,6.89,0,0,1-2,5A7,7,0,0,1,169.45,97.62Zm49.61-81a5.56,5.56,0,0,1,4.54,2.24,7.3,7.3,0,0,1,1.78,4.54,6.25,6.25,0,0,1-2.07,4.48L175.19,74l-.58-16.42,38.82-38.25A7.91,7.91,0,0,1,219.06,16.65Zm-1.38,81A6.13,6.13,0,0,1,212.51,95L186,60.06l10.46-10.68,27.44,36.29a7.82,7.82,0,0,1,1.61,4.71,6.47,6.47,0,0,1-2.41,5.23A8.23,8.23,0,0,1,217.68,97.62Z" transform="translate(0 -2.95)"/><path class="cls-2" d="M248.46,90.61a6.87,6.87,0,0,1-7,7,6.46,6.46,0,0,1-4.83-2,6.89,6.89,0,0,1-1.95-5v-71a6.87,6.87,0,0,1,7-7,6.44,6.44,0,0,1,4.89,2,7,7,0,0,1,1.89,5Z" transform="translate(0 -2.95)"/><path class="cls-2" d="M320.12,67a32.23,32.23,0,0,1-4.19,16.59,30,30,0,0,1-11.25,11.2,33,33,0,0,1-31.59,0,30.08,30.08,0,0,1-11.25-11.2A32.23,32.23,0,0,1,257.65,67a32.27,32.27,0,0,1,4.19-16.6A30.61,30.61,0,0,1,273.09,39.1a32.68,32.68,0,0,1,31.59,0,30.54,30.54,0,0,1,11.25,11.26A32.27,32.27,0,0,1,320.12,67Zm-13.78,0A20.88,20.88,0,0,0,304,56.79a17.57,17.57,0,0,0-6.32-6.72,17.22,17.22,0,0,0-17.57,0,17.57,17.57,0,0,0-6.32,6.72A20.88,20.88,0,0,0,271.43,67a20.6,20.6,0,0,0,2.35,10,17.43,17.43,0,0,0,6.32,6.72,17.22,17.22,0,0,0,17.57,0A17.43,17.43,0,0,0,304,77,20.6,20.6,0,0,0,306.34,67Z" transform="translate(0 -2.95)"/><path class="cls-2" d="M374.91,36.18a6.57,6.57,0,0,1,4.93,2,6.85,6.85,0,0,1,2,5V72.35q0,12.18-6.78,19.3T355.5,98.77q-12.75,0-19.47-7.12t-6.72-19.3V43.18a6.88,6.88,0,0,1,1.95-5,7.08,7.08,0,0,1,9.88,0,6.88,6.88,0,0,1,1.95,5V72.35q0,7,3.1,10.4t9.31,3.38q6.31,0,9.41-3.38t3.1-10.4V43.18a6.85,6.85,0,0,1,2-5A6.58,6.58,0,0,1,374.91,36.18Z" transform="translate(0 -2.95)"/><path class="cls-2" d="M444.16,12.63a6.72,6.72,0,0,1,4.94,1.95,6.87,6.87,0,0,1,1.95,5.06v71a6.89,6.89,0,0,1-1.95,5,7.08,7.08,0,0,1-9.88,0,6.89,6.89,0,0,1-2-5V85l2.52,1a6.46,6.46,0,0,1-1.6,3.62,22.32,22.32,0,0,1-4.37,4.19,26.47,26.47,0,0,1-6.49,3.5,22.31,22.31,0,0,1-8.09,1.44,26.25,26.25,0,0,1-14.36-4.08,28.62,28.62,0,0,1-10.16-11.25A35.21,35.21,0,0,1,391,67a35.48,35.48,0,0,1,3.74-16.6,29,29,0,0,1,10-11.26,25.38,25.38,0,0,1,14-4.07,26.67,26.67,0,0,1,9.07,1.49A27.26,27.26,0,0,1,435,40.31,21.89,21.89,0,0,1,439.74,45a7.47,7.47,0,0,1,1.66,4l-4.13,1.5V19.64a6.9,6.9,0,0,1,2-5A6.6,6.6,0,0,1,444.16,12.63ZM421,86.13a15.57,15.57,0,0,0,8.84-2.52,17.11,17.11,0,0,0,5.92-6.89A22.11,22.11,0,0,0,437.84,67a22.36,22.36,0,0,0-2.12-9.88,17,17,0,0,0-5.92-6.89,16.52,16.52,0,0,0-17.57,0,16.94,16.94,0,0,0-5.91,6.89A22.23,22.23,0,0,0,404.19,67a22,22,0,0,0,2.13,9.76,17,17,0,0,0,5.91,6.89A15.42,15.42,0,0,0,421,86.13Z" transform="translate(0 -2.95)"/><path class="cls-2" d="M471.49,17.11a7.87,7.87,0,0,1,3.39.86,6.73,6.73,0,0,1,2.7,2.24l27.9,43-5.74-.23,28.6-42.73a6.63,6.63,0,0,1,5.63-3.1,7.24,7.24,0,0,1,4.94,1.95,6.5,6.5,0,0,1,2.18,5.06V90.61a6.8,6.8,0,0,1-7.12,7,7.07,7.07,0,0,1-5.23-2,6.78,6.78,0,0,1-2-5V36.52l4.48,1L507.78,73.27a9.51,9.51,0,0,1-2.58,2.18,5.37,5.37,0,0,1-3.16.81,5.12,5.12,0,0,1-3-.81,9.41,9.41,0,0,1-2.59-2.18L474.48,38.59l3-6.09V90.61a7.1,7.1,0,0,1-1.84,5,6.21,6.21,0,0,1-4.82,2,6.11,6.11,0,0,1-4.71-2,7.14,7.14,0,0,1-1.84-5V24.12a6.64,6.64,0,0,1,2.13-4.94A7,7,0,0,1,471.49,17.11Z" transform="translate(0 -2.95)"/><path class="cls-2" d="M604.6,35A6.68,6.68,0,0,1,609.53,37a6.85,6.85,0,0,1,2,5.05V90.61a6.89,6.89,0,0,1-2,5,7.06,7.06,0,0,1-9.87,0,6.85,6.85,0,0,1-1.95-5V85l2.52,1a6.42,6.42,0,0,1-1.61,3.62,22,22,0,0,1-4.36,4.19,26.47,26.47,0,0,1-6.49,3.5,22.33,22.33,0,0,1-8.1,1.44,26.24,26.24,0,0,1-14.35-4.08,28.72,28.72,0,0,1-10.17-11.25A35.33,35.33,0,0,1,551.42,67a35.59,35.59,0,0,1,3.73-16.6A29.09,29.09,0,0,1,565.2,39.1a25.35,25.35,0,0,1,14-4.07,26.69,26.69,0,0,1,9.08,1.49,27.42,27.42,0,0,1,7.18,3.79,21.82,21.82,0,0,1,4.7,4.65,7.41,7.41,0,0,1,1.67,4l-4.13,1.5V42a6.84,6.84,0,0,1,1.95-5A6.58,6.58,0,0,1,604.6,35Zm-23.2,51.1a15.62,15.62,0,0,0,8.84-2.52,17,17,0,0,0,5.91-6.89A22,22,0,0,0,598.28,67a22.23,22.23,0,0,0-2.13-9.88,16.94,16.94,0,0,0-5.91-6.89,15.54,15.54,0,0,0-8.84-2.53,15.32,15.32,0,0,0-8.73,2.53,17,17,0,0,0-5.92,6.89A22.36,22.36,0,0,0,564.63,67a22.11,22.11,0,0,0,2.12,9.76,17.11,17.11,0,0,0,5.92,6.89A15.39,15.39,0,0,0,581.4,86.13Z" transform="translate(0 -2.95)"/><path class="cls-2" d="M624.23,37.32h27.22a6.27,6.27,0,0,1,6.43,6.44,5.92,5.92,0,0,1-1.83,4.42,6.34,6.34,0,0,1-4.6,1.78H624.23a6.29,6.29,0,0,1-6.43-6.43,5.92,5.92,0,0,1,1.84-4.43A6.36,6.36,0,0,1,624.23,37.32ZM636.52,23a6.4,6.4,0,0,1,4.88,2,7,7,0,0,1,1.9,5V81.08a5,5,0,0,0,.63,2.64,3.63,3.63,0,0,0,1.72,1.5,6.45,6.45,0,0,0,4.88-.06,6.32,6.32,0,0,1,2.64-.52,3.87,3.87,0,0,1,2.93,1.49,6.05,6.05,0,0,1,1.32,4.14c0,2.14-1.16,3.9-3.5,5.28a14.54,14.54,0,0,1-7.52,2.07,39.15,39.15,0,0,1-5.34-.4,14.36,14.36,0,0,1-5.51-2,11.89,11.89,0,0,1-4.31-4.76q-1.72-3.21-1.72-8.84V30a6.87,6.87,0,0,1,7-7Z" transform="translate(0 -2.95)"/><path class="cls-2" d="M696,98.77a33.72,33.72,0,0,1-16.94-4.08,28.15,28.15,0,0,1-11-11.08,32.31,32.31,0,0,1-3.85-15.85q0-10.34,4.19-17.63a29.74,29.74,0,0,1,11-11.2A28.34,28.34,0,0,1,693.72,35a26.12,26.12,0,0,1,11.08,2.41A30.42,30.42,0,0,1,714,44a32.15,32.15,0,0,1,6.38,9.71,29.48,29.48,0,0,1,2.35,11.71,5.87,5.87,0,0,1-2.18,4.48,7.3,7.3,0,0,1-4.82,1.72H671.9l-3.45-11.48H710.6l-2.53,2.3v-3.1a10.54,10.54,0,0,0-2.35-6,15.53,15.53,0,0,0-5.28-4.19,15.13,15.13,0,0,0-6.72-1.55,21.82,21.82,0,0,0-6.43.92,12.26,12.26,0,0,0-5.17,3.1,15,15,0,0,0-3.45,5.86,29.09,29.09,0,0,0-1.26,9.3A20.12,20.12,0,0,0,680,77.35a17.67,17.67,0,0,0,15.33,8.78,27.16,27.16,0,0,0,6.78-.68,15.45,15.45,0,0,0,4.08-1.67c1-.65,2-1.21,2.81-1.66a8.77,8.77,0,0,1,3.91-1,5.77,5.77,0,0,1,5.85,5.74q0,3.11-3.21,5.63a26.48,26.48,0,0,1-8.39,4.42A33.23,33.23,0,0,1,696,98.77Z" transform="translate(0 -2.95)"/></g></g></svg>