<svg width="1440" height="705" viewBox="0 0 1440 705" fill="none" xmlns="http://www.w3.org/2000/svg">
<g opacity="0.05">
<path opacity="0.010101" d="M507.464 1427.72C502.753 1434.2 494.403 1436.91 486.78 1434.44L-204.425 1209.85C-212.048 1207.37 -217.209 1200.27 -217.209 1192.26L-217.209 465.48C-217.209 457.465 -212.048 450.362 -204.425 447.885L486.78 223.299C494.403 220.822 502.753 223.535 507.464 230.019L934.653 817.994C939.363 824.478 939.363 833.258 934.653 839.742L507.464 1427.72Z" stroke="white" stroke-width="3"/>
<path opacity="0.020202" d="M500.17 1436.62C495.347 1443.03 486.951 1445.59 479.373 1442.98L-206.504 1206.82C-214.082 1204.21 -219.118 1197.02 -218.978 1189L-206.318 463.715C-206.178 455.701 -200.895 448.689 -193.23 446.346L500.471 234.261C508.135 231.917 516.437 234.776 521.034 241.341L937.105 835.552C941.702 842.117 941.549 850.896 936.725 857.296L500.17 1436.62Z" stroke="white" stroke-width="3"/>
<path opacity="0.030303" d="M492.859 1445.34C487.925 1451.65 479.485 1454.07 471.953 1451.33L-208.401 1203.7C-215.933 1200.96 -220.842 1193.68 -220.563 1185.67L-195.295 462.094C-195.015 454.084 -189.609 447.165 -181.905 444.956L514.066 245.39C521.77 243.18 530.02 246.183 534.502 252.828L939.368 853.066C943.85 859.711 943.543 868.485 938.609 874.801L492.859 1445.34Z" stroke="white" stroke-width="3"/>
<path opacity="0.040404" d="M485.53 1453.85C480.486 1460.08 472.005 1462.35 464.523 1459.48L-210.119 1200.51C-217.601 1197.64 -222.383 1190.28 -221.964 1182.27L-184.144 460.623C-183.724 452.62 -178.199 445.797 -170.457 443.722L527.558 256.689C535.3 254.615 543.497 257.762 547.862 264.483L941.439 870.539C945.804 877.261 945.345 886.029 940.301 892.257L485.53 1453.85Z" stroke="white" stroke-width="3"/>
<path opacity="0.050505" d="M478.189 1462.17C473.037 1468.31 464.518 1470.44 457.087 1467.44L-211.654 1197.25C-219.085 1194.25 -223.737 1186.8 -223.178 1178.8L-172.866 459.301C-172.307 451.306 -166.663 444.58 -158.886 442.641L540.949 268.153C548.725 266.214 556.866 269.503 561.113 276.3L943.322 887.963C947.57 894.76 946.957 903.518 941.805 909.658L478.189 1462.17Z" stroke="white" stroke-width="3"/>
<path opacity="0.0606061" d="M470.835 1470.3C465.577 1476.35 457.022 1478.33 449.645 1475.2L-213.009 1193.92C-220.386 1190.78 -224.908 1183.26 -224.21 1175.27L-161.468 458.133C-160.77 450.149 -155.009 443.523 -147.2 441.72L554.23 279.782C562.039 277.979 570.121 281.41 574.249 288.28L945.015 905.338C949.143 912.208 948.377 920.954 943.119 927.003L470.835 1470.3Z" stroke="white" stroke-width="3"/>
<path opacity="0.0707071" d="M463.474 1478.23C458.112 1484.19 449.523 1486.02 442.202 1482.76L-214.182 1190.52C-221.504 1187.26 -225.893 1179.65 -225.056 1171.68L-149.952 457.116C-149.114 449.145 -143.239 442.621 -135.4 440.954L567.4 291.57C575.24 289.903 583.261 293.474 587.268 300.415L946.519 922.655C950.526 929.596 949.608 938.328 944.246 944.284L463.474 1478.23Z" stroke="white" stroke-width="3"/>
<path opacity="0.0808081" d="M456.116 1485.97C450.65 1491.83 442.031 1493.51 434.767 1490.12L-215.166 1187.05C-222.43 1183.67 -226.686 1175.99 -225.709 1168.03L-138.314 456.256C-137.338 448.301 -131.35 441.88 -123.482 440.351L580.464 303.518C588.332 301.988 596.289 305.699 600.175 312.709L947.842 939.917C951.728 946.927 950.658 955.642 945.192 961.503L456.116 1485.97Z" stroke="white" stroke-width="3"/>
<path opacity="0.0909091" d="M448.753 1493.52C443.185 1499.28 434.538 1500.81 427.335 1497.29L-215.97 1183.53C-223.174 1180.02 -227.296 1172.27 -226.18 1164.33L-126.568 455.552C-125.453 447.616 -119.354 441.3 -111.461 439.908L593.408 315.621C601.301 314.229 609.192 318.078 612.955 325.155L948.976 957.118C952.739 964.194 951.517 972.889 945.949 978.654L448.753 1493.52Z" stroke="white" stroke-width="3"/>
<path opacity="0.10101" d="M441.395 1500.87C435.728 1506.54 427.056 1507.91 419.915 1504.27L-216.587 1179.96C-223.729 1176.32 -227.715 1168.49 -226.461 1160.58L-114.71 455.01C-113.456 447.094 -107.248 440.886 -99.3316 439.632L606.237 327.881C614.153 326.627 621.976 330.613 625.614 337.754L949.928 974.257C953.567 981.398 952.193 990.07 946.526 995.737L441.395 1500.87Z" stroke="white" stroke-width="3"/>
<path opacity="0.111111" d="M434.048 1508.02C428.282 1513.59 419.588 1514.81 412.511 1511.05L-217.016 1176.33C-224.093 1172.56 -227.942 1164.67 -226.55 1156.78L-102.741 454.626C-101.35 446.733 -95.0339 440.634 -87.0972 439.519L618.948 340.291C626.885 339.175 634.637 343.297 638.15 350.501L950.702 991.326C954.215 998.53 952.691 1007.18 946.925 1012.74L434.048 1508.02Z" stroke="white" stroke-width="3"/>
<path opacity="0.121212" d="M426.706 1514.99C420.844 1520.46 412.13 1521.53 405.12 1517.64L-217.264 1172.65C-224.273 1168.76 -227.984 1160.8 -226.455 1152.94L-90.6742 454.407C-89.1449 446.54 -82.7236 440.552 -74.7687 439.575L631.532 352.852C639.487 351.875 647.166 356.132 650.553 363.396L951.29 1008.33C954.677 1015.59 953.002 1024.21 947.14 1029.68L426.706 1514.99Z" stroke="white" stroke-width="3"/>
<path opacity="0.131313" d="M419.384 1521.76C413.428 1527.12 404.696 1528.04 397.755 1524.03L-217.318 1168.92C-224.26 1164.91 -227.831 1156.89 -226.164 1149.05L-78.5001 454.349C-76.8337 446.509 -70.3088 440.634 -62.3381 439.797L643.997 365.558C651.967 364.72 659.571 369.11 662.831 376.432L951.706 1025.26C954.966 1032.58 953.14 1041.17 947.184 1046.53L419.384 1521.76Z" stroke="white" stroke-width="3"/>
<path opacity="0.141414" d="M412.076 1528.34C406.028 1533.6 397.281 1534.37 390.411 1530.24L-217.189 1165.16C-224.059 1161.03 -227.489 1152.95 -225.686 1145.14L-66.2306 454.458C-64.4277 446.649 -57.8013 440.888 -49.8172 440.19L656.332 378.41C664.316 377.711 671.842 382.233 674.973 389.611L951.942 1042.11C955.073 1049.48 953.098 1058.04 947.049 1063.3L412.076 1528.34Z" stroke="white" stroke-width="3"/>
<path opacity="0.151515" d="M404.792 1534.73C398.652 1539.89 389.893 1540.5 383.097 1536.25L-216.869 1161.35C-223.666 1157.1 -226.955 1148.96 -225.016 1141.19L-53.8646 454.734C-51.9256 446.957 -45.1997 441.313 -37.2046 440.754L668.539 391.404C676.534 390.845 683.98 395.498 686.982 402.929L952.004 1058.88C955.006 1066.31 952.882 1074.83 946.743 1079.98L404.792 1534.73Z" stroke="white" stroke-width="3"/>
<path opacity="0.161616" d="M397.531 1540.93C391.302 1545.98 382.534 1546.44 375.812 1542.07L-216.362 1157.51C-223.084 1153.14 -226.231 1144.95 -224.156 1137.21L-41.4074 455.178C-39.3331 447.436 -32.5097 441.911 -24.506 441.491L680.614 404.537C688.618 404.118 695.981 408.9 698.853 416.382L951.892 1075.57C954.765 1083.05 952.492 1091.53 946.264 1096.58L397.531 1540.93Z" stroke="white" stroke-width="3"/>
<path opacity="0.171717" d="M390.299 1546.94C383.983 1551.88 375.209 1552.19 368.564 1547.7L-215.665 1153.64C-222.31 1149.15 -225.313 1140.9 -223.104 1133.2L-28.8599 455.79C-26.6508 448.086 -19.732 442.68 -11.7222 442.401L692.557 417.807C700.567 417.527 707.846 422.437 710.587 429.968L951.611 1092.18C954.352 1099.71 951.932 1108.15 945.617 1113.08L390.299 1546.94Z" stroke="white" stroke-width="3"/>
<path opacity="0.181818" d="M383.095 1552.77C376.695 1557.59 367.916 1557.74 361.351 1553.15L-214.783 1149.73C-221.348 1145.14 -224.207 1136.83 -221.863 1129.17L-16.2298 456.573C-13.8865 448.909 -6.87442 443.625 1.13901 443.485L704.361 431.21C712.374 431.07 719.567 436.106 722.176 443.684L951.157 1108.7C953.767 1116.27 951.2 1124.67 944.799 1129.49L383.095 1552.77Z" stroke="white" stroke-width="3"/>
<path opacity="0.191919" d="M375.929 1558.4C369.445 1563.11 360.665 1563.11 354.181 1558.4L-213.709 1145.81C-220.193 1141.1 -222.906 1132.75 -220.429 1125.12L-3.51476 457.529C-1.03808 449.907 6.06513 444.746 14.0798 444.746L716.03 444.746C724.044 444.746 731.147 449.907 733.624 457.529L950.538 1125.12C953.015 1132.75 950.302 1141.1 943.818 1145.81L375.929 1558.4Z" stroke="white" stroke-width="3"/>
<path opacity="0.20202" d="M368.797 1563.85C362.232 1568.45 353.453 1568.29 347.052 1563.47L-212.448 1141.86C-218.849 1137.03 -221.416 1128.64 -218.807 1121.06L9.27685 458.657C11.8862 451.079 19.0784 446.043 27.0918 446.183L727.556 458.409C735.569 458.549 742.581 463.833 744.924 471.498L949.751 1141.46C952.095 1149.12 949.236 1157.42 942.671 1162.02L368.797 1563.85Z" stroke="white" stroke-width="3"/>
<path opacity="0.212121" d="M361.709 1569.11C355.064 1573.59 346.29 1573.29 339.974 1568.35L-210.996 1137.89C-217.312 1132.95 -219.732 1124.51 -216.991 1116.98L22.1468 459.958C24.888 452.427 32.167 447.517 40.1767 447.797L738.942 472.198C746.952 472.478 753.871 477.884 756.08 485.588L948.803 1157.69C951.012 1165.4 948.009 1173.65 941.365 1178.13L361.709 1569.11Z" stroke="white" stroke-width="3"/>
<path opacity="0.222222" d="M354.663 1574.19C347.941 1578.56 339.173 1578.1 332.945 1573.05L-209.357 1133.91C-215.586 1128.86 -217.858 1120.38 -214.986 1112.9L35.0877 461.436C37.9599 453.954 45.3235 449.172 53.3272 449.592L750.183 486.112C758.187 486.532 765.01 492.057 767.084 499.799L947.691 1173.83C949.766 1181.58 946.619 1189.77 939.897 1194.14L354.663 1574.19Z" stroke="white" stroke-width="3"/>
<path opacity="0.232323" d="M347.666 1579.09C340.869 1583.34 332.111 1582.72 325.971 1577.57L-207.527 1129.91C-213.667 1124.76 -215.791 1116.24 -212.788 1108.81L48.0998 463.091C51.1022 455.66 58.5481 451.007 66.5432 451.566L761.279 500.147C769.275 500.706 776 506.35 777.939 514.126L946.422 1189.87C948.361 1197.65 945.072 1205.79 938.275 1210.04L347.666 1579.09Z" stroke="white" stroke-width="3"/>
<path opacity="0.242424" d="M340.719 1583.8C333.849 1587.93 325.102 1587.16 319.053 1581.91L-205.51 1125.91C-211.559 1120.65 -213.534 1112.1 -210.402 1104.72L61.1767 464.92C64.3083 457.542 71.8343 453.02 79.8185 453.719L772.227 514.297C780.211 514.995 786.838 520.755 788.64 528.565L944.993 1205.8C946.796 1213.61 943.366 1221.7 936.496 1225.82L340.719 1583.8Z" stroke="white" stroke-width="3"/>
<path opacity="0.252525" d="M333.825 1588.34C326.884 1592.34 318.152 1591.42 312.196 1586.06L-203.305 1121.9C-209.261 1116.54 -211.086 1107.95 -207.826 1100.63L74.3164 466.927C77.5763 459.606 85.18 455.216 93.1508 456.054L783.025 528.562C790.996 529.4 797.52 535.275 799.187 543.115L943.41 1221.63C945.076 1229.47 941.505 1237.49 934.564 1241.5L333.825 1588.34Z" stroke="white" stroke-width="3"/>
<path opacity="0.262626" d="M326.986 1592.69C319.976 1596.58 311.261 1595.51 305.4 1590.04L-200.913 1117.9C-206.774 1112.43 -208.449 1103.81 -205.062 1096.55L87.5142 469.115C90.9013 461.852 98.5805 457.595 106.535 458.572L793.67 542.941C801.625 543.918 808.046 549.906 809.576 557.773L941.672 1237.35C943.201 1245.22 939.49 1253.17 932.481 1257.06L326.986 1592.69Z" stroke="white" stroke-width="3"/>
<path opacity="0.272727" d="M320.209 1596.87C313.133 1600.63 304.438 1599.41 298.673 1593.84L-198.33 1113.89C-204.095 1108.32 -205.62 1099.67 -202.107 1092.47L100.771 471.479C104.284 464.276 112.037 460.154 119.973 461.269L804.165 557.426C812.102 558.542 818.418 564.641 819.809 572.534L939.786 1252.95C941.177 1260.85 937.328 1268.74 930.252 1272.5L320.209 1596.87Z" stroke="white" stroke-width="3"/>
<path opacity="0.282828" d="M313.494 1600.86C306.353 1604.5 297.681 1603.13 292.014 1597.46L-195.562 1109.89C-201.229 1104.22 -202.603 1095.55 -198.964 1088.41L114.079 474.025C117.718 466.884 125.541 462.898 133.457 464.152L814.504 572.019C822.42 573.273 828.628 579.481 829.882 587.397L937.749 1268.44C939.003 1276.36 935.017 1284.18 927.876 1287.82L313.494 1600.86Z" stroke="white" stroke-width="3"/>
<path opacity="0.292929" d="M306.848 1604.69C299.645 1608.2 290.998 1606.68 285.43 1600.91L-192.604 1105.89C-198.171 1100.13 -199.393 1091.43 -195.63 1084.36L127.44 476.75C131.202 469.674 139.094 465.825 146.987 467.217L824.689 586.714C832.582 588.106 838.681 594.422 839.797 602.358L935.57 1283.82C936.685 1291.75 932.563 1299.51 925.36 1303.02L306.848 1604.69Z" stroke="white" stroke-width="3"/>
<path opacity="0.30303" d="M300.266 1608.34C293.002 1611.73 284.383 1610.05 278.917 1604.19L-189.464 1101.91C-194.93 1096.05 -196 1087.34 -192.114 1080.33L140.842 479.657C144.728 472.647 152.685 468.937 160.553 470.466L834.712 601.509C842.58 603.039 848.568 609.46 849.545 617.415L933.242 1299.07C934.218 1307.03 929.962 1314.71 922.698 1318.09L300.266 1608.34Z" stroke="white" stroke-width="3"/>
<path opacity="0.313131" d="M293.761 1611.82C286.44 1615.08 277.852 1613.25 272.489 1607.3L-186.132 1097.95C-191.495 1091.99 -192.413 1083.26 -188.406 1076.32L154.293 482.744C158.301 475.803 166.322 472.232 174.161 473.898L844.582 616.401C852.422 618.067 858.297 624.592 859.135 632.563L930.778 1314.21C931.616 1322.18 927.226 1329.78 919.904 1333.04L293.761 1611.82Z" stroke="white" stroke-width="3"/>
<path opacity="0.323232" d="M287.325 1615.13C279.947 1618.26 271.392 1616.28 266.134 1610.24L-182.623 1094C-187.881 1087.95 -188.646 1079.2 -184.518 1072.33L167.777 486.015C171.905 479.145 179.987 475.714 187.797 477.517L854.285 631.388C862.094 633.191 867.854 639.817 868.553 647.802L928.169 1329.22C928.867 1337.2 924.345 1344.73 916.968 1347.86L287.325 1615.13Z" stroke="white" stroke-width="3"/>
<path opacity="0.333333" d="M280.969 1618.27C273.538 1621.27 265.019 1619.15 259.867 1613.01L-178.925 1090.07C-184.077 1083.93 -184.689 1075.18 -180.442 1068.38L181.302 489.467C185.549 482.67 193.69 479.381 201.466 481.32L863.829 646.465C871.605 648.404 877.249 655.13 877.808 663.125L925.427 1344.1C925.986 1352.1 921.333 1359.54 913.902 1362.55L280.969 1618.27Z" stroke="white" stroke-width="3"/>
<path opacity="0.343434" d="M274.695 1621.24C267.212 1624.11 258.731 1621.84 253.688 1615.61L-175.044 1086.17C-180.088 1079.94 -180.547 1071.17 -176.182 1064.45L194.859 493.099C199.224 486.378 207.421 483.231 215.163 485.306L873.21 661.629C880.952 663.703 886.477 670.527 886.897 678.53L922.551 1358.86C922.971 1366.86 918.189 1374.22 910.706 1377.1L274.695 1621.24Z" stroke="white" stroke-width="3"/>
<path opacity="0.353535" d="M268.503 1624.05C260.971 1626.79 252.531 1624.37 247.597 1618.05L-170.98 1082.3C-175.914 1075.98 -176.221 1067.21 -171.739 1060.56L208.446 496.916C212.928 490.271 221.178 487.268 228.882 489.478L882.427 676.878C890.131 679.087 895.536 686.006 895.816 694.016L919.544 1373.48C919.823 1381.49 914.914 1388.77 907.382 1391.51L268.503 1624.05Z" stroke="white" stroke-width="3"/>
<path opacity="0.363636" d="M262.396 1626.69C254.818 1629.3 246.421 1626.73 241.598 1620.33L-166.735 1078.46C-171.558 1072.06 -171.712 1063.28 -167.114 1056.71L222.058 500.916C226.655 494.351 234.957 491.492 242.622 493.836L891.476 692.211C899.141 694.554 904.425 701.566 904.565 709.579L916.406 1387.98C916.546 1395.99 911.51 1403.18 903.932 1405.79L262.396 1626.69Z" stroke="white" stroke-width="3"/>
<path opacity="0.373737" d="M256.381 1629.17C248.758 1631.65 240.408 1628.94 235.697 1622.45L-162.306 1074.65C-167.017 1068.16 -167.017 1059.38 -162.306 1052.9L235.697 505.097C240.408 498.612 248.758 495.899 256.38 498.376L900.363 707.619C907.985 710.095 913.146 717.198 913.146 725.213L913.146 1402.34C913.146 1410.35 907.985 1417.45 900.363 1419.93L256.381 1629.17Z" stroke="white" stroke-width="3"/>
<path opacity="0.383838" d="M250.454 1631.5C242.789 1633.84 234.488 1630.98 229.891 1624.42L-157.7 1070.88C-162.297 1064.31 -162.144 1055.54 -157.32 1049.13L249.352 509.461C254.176 503.061 262.572 500.494 270.15 503.103L909.078 723.104C916.656 725.713 921.692 732.905 921.553 740.919L909.759 1416.56C909.619 1424.57 904.335 1431.58 896.671 1433.93L250.454 1631.5Z" stroke="white" stroke-width="3"/>
<path opacity="0.393939" d="M244.621 1633.66C236.917 1635.87 228.666 1632.87 224.185 1626.22L-152.915 1067.15C-157.397 1060.51 -157.09 1051.73 -152.156 1045.42L263.024 514.01C267.958 507.694 276.398 505.274 283.93 508.015L917.625 738.661C925.156 741.403 930.066 748.681 929.786 756.691L906.251 1430.64C905.972 1438.65 900.566 1445.57 892.862 1447.78L244.621 1633.66Z" stroke="white" stroke-width="3"/>
<path opacity="0.40404" d="M238.883 1635.67C231.142 1637.75 222.945 1634.6 218.58 1627.88L-147.954 1063.47C-152.319 1056.74 -151.86 1047.98 -146.816 1041.75L276.707 518.74C281.751 512.512 290.232 510.239 297.714 513.111L926 754.288C933.483 757.16 938.264 764.523 937.845 772.527L902.624 1444.59C902.204 1452.59 896.679 1459.42 888.937 1461.49L238.883 1635.67Z" stroke="white" stroke-width="3"/>
<path opacity="0.414141" d="M233.247 1637.53C225.471 1639.47 217.33 1636.18 213.083 1629.38L-142.814 1059.83C-147.061 1053.03 -146.449 1044.27 -141.297 1038.13L290.403 523.652C295.555 517.513 304.074 515.389 311.505 518.391L934.207 769.979C941.638 772.981 946.291 780.427 945.732 788.422L898.883 1458.39C898.324 1466.39 892.68 1473.11 884.904 1475.05L233.247 1637.53Z" stroke="white" stroke-width="3"/>
<path opacity="0.424242" d="M227.716 1639.23C219.907 1641.04 211.825 1637.61 207.697 1630.74L-137.495 1056.24C-141.623 1049.37 -140.858 1040.62 -135.6 1034.57L304.108 528.747C309.366 522.698 317.921 520.723 325.299 523.855L942.246 785.733C949.623 788.865 954.146 796.391 953.447 804.375L895.033 1472.05C894.334 1480.04 888.574 1486.66 880.765 1488.46L227.716 1639.23Z" stroke="white" stroke-width="3"/>
<path opacity="0.434343" d="M222.284 1640.79C214.444 1642.45 206.423 1638.88 202.416 1631.94L-132.008 1052.7C-136.015 1045.76 -135.097 1037.03 -129.734 1031.08L317.812 534.024C323.175 528.068 331.763 526.243 339.085 529.503L950.107 801.548C957.429 804.807 961.819 812.411 960.981 820.382L891.068 1485.57C890.23 1493.54 884.355 1500.06 876.515 1501.73L222.284 1640.79Z" stroke="white" stroke-width="3"/>
<path opacity="0.444444" d="M216.963 1642.2C209.095 1643.73 201.138 1640.02 197.252 1633.01L-126.343 1049.22C-130.228 1042.22 -129.158 1033.5 -123.692 1027.64L331.52 539.484C336.986 533.622 345.605 531.947 352.868 535.334L957.8 817.418C965.064 820.805 969.32 828.485 968.343 836.44L887 1498.93C886.023 1506.89 880.035 1513.31 872.167 1514.84L216.963 1642.2Z" stroke="white" stroke-width="3"/>
<path opacity="0.454545" d="M211.75 1643.46C203.857 1644.85 195.965 1641 192.203 1633.93L-120.507 1045.81C-124.27 1038.73 -123.048 1030.03 -117.48 1024.27L345.224 545.124C350.791 539.359 359.438 537.835 366.641 541.348L965.318 833.342C972.521 836.856 976.643 844.608 975.528 852.545L882.826 1512.15C881.711 1520.09 875.612 1526.4 867.719 1527.8L211.75 1643.46Z" stroke="white" stroke-width="3"/>
<path opacity="0.464646" d="M206.646 1644.58C198.73 1645.83 190.907 1641.85 187.268 1634.71L-114.504 1042.45C-118.142 1035.31 -116.769 1026.63 -111.102 1020.97L358.919 550.946C364.586 545.278 373.258 543.905 380.399 547.544L972.66 849.315C979.801 852.954 983.787 860.777 982.533 868.693L878.55 1525.22C877.296 1533.14 871.088 1539.34 863.172 1540.6L206.646 1644.58Z" stroke="white" stroke-width="3"/>
<path opacity="0.474747" d="M201.656 1645.56C193.719 1646.68 185.967 1642.55 182.453 1635.35L-108.331 1039.15C-111.845 1031.95 -110.32 1023.3 -104.555 1017.74L372.605 556.948C378.37 551.38 387.065 550.158 394.141 553.921L979.827 865.336C986.904 869.098 990.753 876.99 989.361 884.883L874.175 1538.14C872.783 1546.03 866.467 1552.13 858.531 1553.24L201.656 1645.56Z" stroke="white" stroke-width="3"/>
<path opacity="0.484848" d="M196.782 1646.4C188.827 1647.38 181.148 1643.12 177.761 1635.86L-101.992 1035.93C-105.379 1028.66 -103.703 1020.05 -97.8419 1014.58L386.279 563.13C392.14 557.664 400.855 556.594 407.864 560.48L986.82 881.4C993.83 885.285 997.54 893.243 996.011 901.11L869.705 1550.9C868.176 1558.77 861.754 1564.75 853.799 1565.73L196.782 1646.4Z" stroke="white" stroke-width="3"/>
<path opacity="0.494949" d="M192.028 1647.11C184.057 1647.95 176.453 1643.56 173.194 1636.24L-95.4851 1032.77C-98.7451 1025.45 -96.9196 1016.86 -90.9635 1011.5L399.937 569.491C405.893 564.129 414.625 563.211 421.566 567.218L993.638 897.504C1000.58 901.511 1004.15 909.532 1002.48 917.372L865.143 1563.51C863.477 1571.35 856.952 1577.22 848.981 1578.06L192.028 1647.11Z" stroke="white" stroke-width="3"/>
<path opacity="0.50505" d="M187.395 1647.68C179.411 1648.38 171.885 1643.86 168.753 1636.48L-88.8139 1029.69C-91.9455 1022.31 -89.9704 1013.76 -83.9217 1008.5L413.577 576.032C419.626 570.774 428.373 570.009 435.242 574.136L1000.28 913.646C1007.15 917.774 1010.58 925.856 1008.78 933.665L860.492 1575.96C858.689 1583.77 852.063 1589.53 844.079 1590.23L187.395 1647.68Z" stroke="white" stroke-width="3"/>
<path opacity="0.515152" d="M182.883 1648.13C174.888 1648.68 167.442 1644.03 164.44 1636.6L-81.9813 1026.69C-84.9838 1019.26 -82.8597 1010.74 -76.7201 1005.59L427.194 582.751C433.334 577.599 442.092 576.987 448.889 581.234L1006.75 929.822C1013.54 934.069 1016.83 942.21 1014.89 949.986L855.754 1588.26C853.815 1596.04 847.089 1601.68 839.094 1602.24L182.883 1648.13Z" stroke="white" stroke-width="3"/>
<path opacity="0.525253" d="M178.496 1648.44C170.493 1648.86 163.129 1644.08 160.257 1636.59L-74.9878 1023.76C-77.8601 1016.28 -75.5876 1007.8 -69.359 1002.75L440.786 589.647C447.015 584.603 455.783 584.143 462.504 588.509L1013.04 946.028C1019.76 950.393 1022.9 958.59 1020.83 966.332L850.932 1600.4C848.858 1608.14 842.034 1613.67 834.031 1614.08L178.496 1648.44Z" stroke="white" stroke-width="3"/>
<path opacity="0.535354" d="M174.237 1648.63C166.227 1648.91 158.948 1644 156.207 1636.47L-67.835 1020.92C-70.5763 1013.38 -68.1561 1004.94 -61.8404 1000.01L454.35 596.718C460.665 591.784 469.44 591.477 476.084 595.959L1019.15 962.261C1025.79 966.743 1028.8 974.993 1026.59 982.697L846.03 1612.38C843.821 1620.08 836.902 1625.49 828.892 1625.77L174.237 1648.63Z" stroke="white" stroke-width="3"/>
<path opacity="0.545455" d="M170.106 1648.69C162.093 1648.83 154.901 1643.79 152.291 1636.22L-60.5244 1018.15C-63.1338 1010.58 -60.5668 1002.18 -54.166 997.356L467.883 603.964C474.283 599.141 483.062 598.987 489.627 603.584L1025.09 978.517C1031.65 983.114 1034.51 991.416 1032.17 999.081L841.051 1624.19C838.708 1631.86 831.696 1637.14 823.682 1637.28L170.106 1648.69Z" stroke="white" stroke-width="3"/>
<path opacity="0.555556" d="M166.104 1648.63C158.089 1648.63 150.986 1643.47 148.51 1635.85L-53.061 1015.48C-55.5378 1007.86 -52.8246 999.508 -46.3405 994.797L481.378 611.387C487.862 606.676 496.642 606.676 503.126 611.387L1030.84 994.797C1037.33 999.508 1040.04 1007.86 1037.57 1015.48L835.995 1635.85C833.518 1643.47 826.415 1648.63 818.4 1648.63L166.104 1648.63Z" stroke="white" stroke-width="3"/>
<path opacity="0.565657" d="M162.237 1648.46C154.224 1648.32 147.212 1643.03 144.869 1635.37L-45.4411 1012.9C-47.7843 1005.23 -44.9258 996.929 -38.3606 992.332L494.839 618.982C501.405 614.385 510.183 614.538 516.584 619.361L1036.43 1011.09C1042.83 1015.92 1045.4 1024.31 1042.79 1031.89L830.87 1647.34C828.261 1654.92 821.069 1659.96 813.055 1659.82L162.237 1648.46Z" stroke="white" stroke-width="3"/>
<path opacity="0.575758" d="M158.502 1648.17C150.492 1647.89 143.573 1642.48 141.364 1634.78L-37.6725 1010.4C-39.8817 1002.7 -36.8788 994.45 -30.2343 989.968L508.257 626.751C514.901 622.269 523.676 622.576 529.992 627.51L1041.83 1027.41C1048.15 1032.34 1050.57 1040.78 1047.83 1048.31L825.674 1658.68C822.933 1666.21 815.654 1671.12 807.644 1670.84L158.502 1648.17Z" stroke="white" stroke-width="3"/>
<path opacity="0.585859" d="M154.905 1647.76C146.901 1647.34 140.078 1641.82 138.003 1634.08L-29.7524 1008C-31.8268 1000.26 -28.6803 992.066 -21.9586 987.701L521.633 634.688C528.354 630.323 537.122 630.783 543.351 635.826L1047.06 1043.73C1053.29 1048.77 1055.57 1057.25 1052.69 1064.73L820.414 1669.84C817.542 1677.32 810.178 1682.1 802.175 1681.69L154.905 1647.76Z" stroke="white" stroke-width="3"/>
<path opacity="0.59596" d="M151.446 1647.25C143.451 1646.69 136.725 1641.05 134.786 1633.27L-21.6841 1005.7C-23.6231 997.927 -20.334 989.786 -13.5372 985.539L534.962 642.798C541.759 638.551 550.518 639.164 556.657 644.315L1052.12 1060.06C1058.26 1065.21 1060.38 1073.73 1057.38 1081.16L815.093 1680.84C812.09 1688.27 804.644 1692.93 796.649 1692.37L151.446 1647.25Z" stroke="white" stroke-width="3"/>
<path opacity="0.606061" d="M148.124 1646.63C140.14 1645.93 133.514 1640.17 131.711 1632.36L-13.4724 1003.5C-15.2754 995.692 -11.8447 987.61 -4.97481 983.482L548.241 651.077C555.111 646.949 563.857 647.714 569.906 652.972L1057 1076.39C1063.04 1081.65 1065.02 1090.21 1061.89 1097.58L809.71 1691.68C806.578 1699.05 799.052 1703.58 791.068 1702.88L148.124 1646.63Z" stroke="white" stroke-width="3"/>
<path opacity="0.616162" d="M144.944 1645.9C136.973 1645.06 130.448 1639.19 128.782 1631.35L-5.11769 1001.4C-6.7841 993.562 -3.21295 985.542 3.72799 981.534L561.466 659.524C568.407 655.517 577.139 656.434 583.095 661.797L1061.7 1092.73C1067.65 1098.09 1069.48 1106.68 1066.22 1114L804.271 1702.35C801.011 1709.67 793.407 1714.06 785.436 1713.22L144.944 1645.9Z" stroke="white" stroke-width="3"/>
<path opacity="0.626263" d="M141.91 1645.07C133.955 1644.1 127.533 1638.11 126.004 1630.24L3.38233 999.407C1.85305 991.539 5.56365 983.582 12.5735 979.696L574.64 668.138C581.65 664.252 590.364 665.322 596.226 670.788L1066.22 1109.07C1072.09 1114.53 1073.76 1123.15 1070.37 1130.42L798.782 1712.85C795.395 1720.11 787.716 1724.37 779.761 1723.39L141.91 1645.07Z" stroke="white" stroke-width="3"/>
<path opacity="0.636364" d="M139.017 1644.14C131.08 1643.03 124.765 1636.93 123.373 1629.04L12.0191 997.516C10.6273 989.623 14.4762 981.732 21.5528 977.969L587.753 676.915C594.83 673.152 603.525 674.374 609.29 679.941L1070.58 1125.4C1076.34 1130.97 1077.87 1139.61 1074.35 1146.82L793.241 1723.18C789.727 1730.38 781.975 1734.51 774.038 1733.39L139.017 1644.14Z" stroke="white" stroke-width="3"/>
<path opacity="0.646465" d="M136.271 1643.12C128.355 1641.87 122.146 1635.66 120.892 1627.74L20.7927 995.736C19.539 987.82 23.525 979.997 30.6662 976.358L600.806 685.858C607.947 682.219 616.619 683.593 622.286 689.26L1074.75 1141.73C1080.42 1147.39 1081.79 1156.06 1078.15 1163.21L787.653 1733.35C784.014 1740.49 776.191 1744.47 768.275 1743.22L136.271 1643.12Z" stroke="white" stroke-width="3"/>
<path opacity="0.656566" d="M133.672 1642C125.779 1640.61 119.68 1634.29 118.564 1626.35L29.7017 994.065C28.5862 986.128 32.7082 978.376 39.9118 974.862L613.795 694.961C620.999 691.447 629.645 692.972 635.213 698.737L1078.75 1158.04C1084.32 1163.8 1085.54 1172.5 1081.78 1179.57L782.022 1743.34C778.259 1750.42 770.368 1754.27 762.475 1752.87L133.672 1642Z" stroke="white" stroke-width="3"/>
<path opacity="0.666667" d="M131.219 1640.79C123.351 1639.26 117.363 1632.84 116.387 1624.88L38.7408 992.508C37.764 984.553 42.0206 976.874 49.2844 973.487L626.715 704.227C633.979 700.84 642.597 702.515 648.063 708.377L1082.58 1174.34C1088.05 1180.2 1089.12 1188.92 1085.23 1195.93L776.348 1753.17C772.462 1760.18 764.505 1763.89 756.637 1762.36L131.219 1640.79Z" stroke="white" stroke-width="3"/>
<path opacity="0.676768" d="M128.917 1639.49C121.078 1637.83 115.203 1631.3 114.365 1623.33L47.9117 991.067C47.074 983.097 51.464 975.493 58.7858 972.233L639.568 713.652C646.889 710.392 655.478 712.218 660.84 718.174L1086.24 1190.62C1091.6 1196.58 1092.52 1205.31 1088.51 1212.25L770.638 1762.82C766.63 1769.77 758.609 1773.34 750.77 1771.67L128.917 1639.49Z" stroke="white" stroke-width="3"/>
<path opacity="0.686869" d="M126.765 1638.11C118.956 1636.31 113.195 1629.68 112.497 1621.7L57.2084 989.744C56.5099 981.759 61.0319 974.234 68.4095 971.102L652.346 723.235C659.724 720.104 668.279 722.079 673.537 728.128L1089.72 1206.89C1094.98 1212.94 1095.74 1221.68 1091.61 1228.55L764.891 1772.31C760.763 1779.18 752.681 1782.61 744.872 1780.81L126.765 1638.11Z" stroke="white" stroke-width="3"/>
<path opacity="0.69697" d="M124.766 1636.64C116.989 1634.7 111.346 1627.98 110.787 1619.98L66.6318 988.539C66.0726 980.544 70.7253 973.098 78.1564 970.095L665.051 732.974C672.482 729.972 681.001 732.096 686.153 738.236L1093.03 1223.13C1098.18 1229.27 1098.79 1238.03 1094.55 1244.83L759.114 1781.63C754.867 1788.43 746.727 1791.72 738.95 1789.78L124.766 1636.64Z" stroke="white" stroke-width="3"/>
<path opacity="0.707071" d="M122.924 1635.1C115.182 1633.02 109.657 1626.2 109.237 1618.19L76.1813 987.453C75.7618 979.449 80.5437 972.086 88.0261 969.213L677.682 742.866C685.165 739.993 693.645 742.266 698.689 748.494L1096.17 1239.35C1101.22 1245.57 1101.68 1254.34 1097.31 1261.06L753.313 1790.77C748.948 1797.5 740.751 1800.64 733.009 1798.57L122.924 1635.1Z" stroke="white" stroke-width="3"/>
<path opacity="0.717172" d="M121.23 1633.47C113.526 1631.27 108.12 1624.35 107.84 1616.34L85.8458 986.493C85.5661 978.483 90.4758 971.205 98.0071 968.463L690.228 752.913C697.759 750.172 706.199 752.592 711.133 758.907L1099.14 1255.53C1104.07 1261.85 1104.38 1270.62 1099.9 1277.27L747.48 1799.75C742.999 1806.4 734.748 1809.4 727.044 1807.19L121.23 1633.47Z" stroke="white" stroke-width="3"/>
<path opacity="0.727273" d="M119.695 1631.78C112.031 1629.44 106.747 1622.42 106.607 1614.41L95.6323 985.657C95.4924 977.644 100.528 970.451 108.106 967.842L702.694 763.109C710.272 760.5 718.669 763.067 723.492 769.467L1101.94 1271.69C1106.77 1278.09 1106.92 1286.87 1102.32 1293.43L741.63 1808.56C737.033 1815.12 728.731 1817.98 721.066 1815.64L119.695 1631.78Z" stroke="white" stroke-width="3"/>
<path opacity="0.737374" d="M118.317 1630.01C110.695 1627.54 105.534 1620.43 105.534 1612.42L105.534 984.949C105.534 976.935 110.695 969.832 118.317 967.355L715.076 773.456C722.699 770.98 731.049 773.693 735.76 780.177L1104.58 1287.81C1109.29 1294.29 1109.29 1303.07 1104.58 1309.56L735.76 1817.19C731.049 1823.68 722.699 1826.39 715.076 1823.91L118.317 1630.01Z" stroke="white" stroke-width="3"/>
<path opacity="0.747475" d="M117.098 1628.18C109.52 1625.57 104.484 1618.38 104.623 1610.36L115.55 984.369C115.69 976.355 120.974 969.344 128.639 967L727.371 783.949C735.036 781.606 743.338 784.464 747.935 791.03L1107.05 1303.89C1111.64 1310.46 1111.49 1319.24 1106.67 1325.64L729.875 1825.66C725.052 1832.06 716.655 1834.62 709.077 1832.01L117.098 1628.18Z" stroke="white" stroke-width="3"/>
<path opacity="0.757576" d="M116.032 1626.28C108.501 1623.54 103.591 1616.26 103.871 1608.25L125.673 983.919C125.952 975.909 131.358 968.99 139.062 966.781L739.573 794.587C747.277 792.378 755.527 795.381 760.009 802.026L1109.34 1319.93C1113.82 1326.58 1113.52 1335.35 1108.58 1341.67L723.974 1833.95C719.039 1840.26 710.6 1842.68 703.068 1839.94L116.032 1626.28Z" stroke="white" stroke-width="3"/>
<path opacity="0.767677" d="M115.127 1624.32C107.645 1621.45 102.863 1614.08 103.283 1606.08L135.905 983.601C136.325 975.598 141.85 968.774 149.592 966.7L751.684 805.37C759.425 803.295 767.622 806.442 771.987 813.164L1111.48 1335.93C1115.84 1342.66 1115.38 1351.42 1110.34 1357.65L718.065 1842.07C713.021 1848.3 704.54 1850.57 697.058 1847.7L115.127 1624.32Z" stroke="white" stroke-width="3"/>
<path opacity="0.777778" d="M114.385 1622.3C106.953 1619.3 102.301 1611.85 102.86 1603.85L146.245 983.418C146.804 975.422 152.448 968.697 160.224 966.758L763.702 816.294C771.479 814.355 779.619 817.644 783.866 824.441L1113.45 1351.89C1117.7 1358.68 1117.09 1367.44 1111.93 1373.58L712.151 1850.02C706.999 1856.16 698.48 1858.29 691.049 1855.29L114.385 1622.3Z" stroke="white" stroke-width="3"/>
<path opacity="0.787879" d="M113.802 1620.22C106.425 1617.09 101.903 1609.56 102.601 1601.58L156.688 983.369C157.386 975.385 163.147 968.758 170.956 966.955L775.624 827.357C783.433 825.554 791.515 828.985 795.643 835.854L1115.26 1367.79C1119.39 1374.66 1118.62 1383.41 1113.37 1389.45L706.234 1857.81C700.975 1863.86 692.42 1865.83 685.043 1862.7L113.802 1620.22Z" stroke="white" stroke-width="3"/>
<path opacity="0.79798" d="M113.378 1618.09C106.056 1614.83 101.666 1607.23 102.504 1599.26L167.227 983.459C168.065 975.488 173.94 968.963 181.78 967.297L787.443 838.559C795.282 836.893 803.303 840.464 807.31 847.405L1116.91 1383.64C1120.91 1390.58 1120 1399.32 1114.63 1405.27L700.312 1865.42C694.95 1871.38 686.361 1873.2 679.04 1869.94L113.378 1618.09Z" stroke="white" stroke-width="3"/>
<path opacity="0.808081" d="M113.117 1615.91C105.853 1612.53 101.597 1604.85 102.573 1596.89L177.866 983.684C178.843 975.729 184.831 969.308 192.698 967.779L799.162 849.894C807.029 848.365 814.987 852.075 818.872 859.085L1118.39 1399.44C1122.28 1406.45 1121.21 1415.16 1115.74 1421.02L694.396 1872.86C688.93 1878.73 680.311 1880.4 673.047 1877.01L113.117 1615.91Z" stroke="white" stroke-width="3"/>
<path opacity="0.818182" d="M113.016 1613.69C105.813 1610.18 101.691 1602.43 102.806 1594.49L188.598 984.052C189.713 976.116 195.812 969.8 203.705 968.408L810.775 861.365C818.668 859.973 826.56 863.822 830.322 870.899L1119.72 1415.18C1123.48 1422.26 1122.26 1430.95 1116.69 1436.72L688.482 1880.14C682.915 1885.91 674.268 1887.43 667.065 1883.92L113.016 1613.69Z" stroke="white" stroke-width="3"/>
<path opacity="0.828283" d="M113.083 1611.42C105.942 1607.78 101.956 1599.96 103.21 1592.04L199.426 984.56C200.679 976.643 206.888 970.435 214.804 969.181L822.287 872.965C830.203 871.712 838.026 875.698 841.665 882.839L1120.89 1430.86C1124.53 1438 1123.16 1446.67 1117.49 1452.34L682.582 1887.25C676.915 1892.92 668.243 1894.29 661.102 1890.65L113.083 1611.42Z" stroke="white" stroke-width="3"/>
<path opacity="0.838384" d="M113.307 1609.11C106.23 1605.35 102.381 1597.46 103.773 1589.56L210.337 985.211C211.729 977.318 218.044 971.219 225.981 970.104L833.685 884.696C841.622 883.581 849.374 887.703 852.888 894.906L1121.91 1446.48C1125.42 1453.68 1123.89 1462.33 1118.13 1467.89L676.687 1894.19C670.922 1899.76 662.228 1900.98 655.151 1897.22L113.307 1609.11Z" stroke="white" stroke-width="3"/>
</g>
</svg>
