<svg width="1440" height="427" viewBox="0 0 1440 427" fill="none" xmlns="http://www.w3.org/2000/svg">
    <g opacity="0.2">
        <path opacity="0.010101" d="M815.154 -124.709C820.266 -124.665 825.375 -122.25 829.254 -118.046L1778.31 910.533C1786.47 919.383 1786.81 933.255 1779.05 940.563L1122.54 1558.15C1117.67 1562.73 1110.6 1563.68 1104.13 1560.62L-265.085 913.607C-271.558 910.548 -276.396 903.974 -277.687 896.481L-451.729 -113.579C-453.788 -125.531 -446.317 -135.711 -435.556 -135.617L815.154 -124.709Z" stroke="white"/>
        <path opacity="0.020202" d="M835.356 -123.324C840.479 -123.203 845.535 -120.75 849.319 -116.548L1778.9 915.554C1786.93 924.473 1786.91 938.329 1778.84 945.498L1102.89 1546.6C1097.86 1551.07 1090.73 1551.91 1084.31 1548.79L-277.746 887.843C-284.172 884.724 -288.866 878.145 -289.982 870.693L-440.015 -131.222C-441.804 -143.172 -433.979 -153.243 -423.104 -152.987L835.356 -123.324Z" stroke="white"/>
        <path opacity="0.030303" d="M855.4 -121.75C860.537 -121.554 865.542 -119.061 869.235 -114.859L1779.13 920.432C1787.02 929.415 1786.63 943.236 1778.28 950.258L1083.16 1534.76C1077.97 1539.12 1070.78 1539.85 1064.4 1536.68L-290.086 862.053C-296.467 858.875 -301.019 852.292 -301.96 844.884L-428.037 -148.627C-429.552 -160.563 -421.375 -170.508 -410.393 -170.089L855.4 -121.75Z" stroke="white"/>
        <path opacity="0.040404" d="M875.289 -119.99C880.442 -119.719 885.4 -117.185 889.003 -112.983L1779 925.168C1786.75 934.208 1785.99 947.977 1777.35 954.842L1063.35 1522.65C1058.01 1526.89 1050.76 1527.51 1044.42 1524.28L-302.095 836.247C-308.431 833.009 -312.843 826.423 -313.607 819.061L-415.79 -165.79C-417.026 -177.698 -408.501 -187.501 -397.418 -186.919L875.289 -119.99Z" stroke="white"/>
        <path opacity="0.050505" d="M895.01 -118.049C900.18 -117.703 905.095 -115.128 908.611 -110.922L1778.52 929.757C1786.12 938.85 1784.98 952.548 1776.08 959.247L1043.47 1510.25C1037.98 1514.38 1030.66 1514.9 1024.37 1511.6L-313.777 810.43C-320.071 807.132 -324.344 800.543 -324.931 793.231L-403.287 -182.711C-404.239 -194.578 -395.371 -204.223 -384.194 -203.476L895.01 -118.049Z" stroke="white"/>
        <path opacity="0.0606061" d="M914.565 -115.929C919.755 -115.51 924.631 -112.891 928.062 -108.679L1777.68 934.196C1785.13 943.337 1783.63 956.945 1774.45 963.47L1023.52 1497.59C1017.89 1501.6 1010.5 1502 1004.25 1498.64L-325.121 784.607C-331.373 781.249 -335.509 774.658 -335.919 767.398L-390.519 -199.387C-391.186 -211.199 -381.98 -220.669 -370.715 -219.759L914.565 -115.929Z" stroke="white"/>
        <path opacity="0.0707071" d="M933.944 -113.634C939.157 -113.14 943.996 -110.477 947.344 -106.258L1776.49 938.485C1783.78 947.667 1781.92 961.168 1772.48 967.511L1003.53 1484.65C997.74 1488.54 990.294 1488.84 984.081 1485.42L-336.128 758.787C-342.341 755.368 -346.341 748.775 -346.574 741.571L-377.497 -215.815C-377.876 -227.559 -368.34 -236.838 -356.994 -235.765L933.944 -113.634Z" stroke="white"/>
        <path opacity="0.0808081" d="M953.136 -111.179C958.373 -110.612 963.179 -107.903 966.446 -103.675L1774.95 942.608C1782.07 951.825 1779.85 965.2 1770.16 971.354L983.471 1471.44C977.539 1475.21 970.028 1475.39 963.853 1471.91L-346.805 732.964C-352.979 729.482 -356.844 722.889 -356.9 715.742L-364.229 -232.006C-364.319 -243.668 -354.461 -252.741 -343.043 -251.505L953.136 -111.179Z" stroke="white"/>
        <path opacity="0.0909091" d="M972.148 -108.555C977.413 -107.914 982.189 -105.157 985.376 -100.918L1773.06 946.577C1780.01 955.824 1777.43 969.057 1767.52 975.013L963.379 1457.96C957.304 1461.61 949.727 1461.67 943.59 1458.13L-357.133 707.157C-363.271 703.613 -367.003 697.019 -366.881 689.933L-350.706 -247.942C-350.506 -259.51 -340.336 -268.361 -328.852 -266.963L972.148 -108.555Z" stroke="white"/>
        <path opacity="0.10101" d="M990.966 -105.778C996.26 -105.063 1001.01 -102.255 1004.12 -98.0033L1770.82 950.376C1777.6 959.647 1774.67 972.72 1764.53 978.473L943.249 1444.21C937.032 1447.73 929.389 1447.68 923.287 1444.08L-367.122 681.36C-373.223 677.753 -376.823 671.158 -376.524 664.136L-336.939 -263.635C-336.45 -275.095 -325.98 -283.711 -314.436 -282.151L990.966 -105.778Z" stroke="white"/>
        <path opacity="0.111111" d="M1009.58 -102.846C1014.91 -102.056 1019.63 -99.1966 1022.67 -94.9291L1768.23 954.009C1774.83 963.298 1771.56 976.196 1761.2 981.739L923.079 1430.2C916.724 1433.6 909.015 1433.43 902.947 1429.76L-376.773 655.585C-382.84 651.915 -386.31 645.32 -385.833 638.363L-322.939 -279.075C-322.161 -290.415 -311.402 -298.781 -299.807 -297.062L1009.58 -102.846Z" stroke="white"/>
        <path opacity="0.121212" d="M1028 -99.7637C1033.36 -98.8981 1038.07 -95.9851 1041.03 -91.6999L1765.3 957.472C1771.72 966.773 1768.12 979.48 1757.56 984.808L902.897 1415.92C896.405 1419.2 888.629 1418.91 882.595 1415.18L-386.067 629.838C-392.102 626.103 -395.442 619.508 -394.788 612.619L-308.69 -294.261C-307.626 -305.47 -296.591 -313.574 -284.952 -311.695L1028 -99.7637Z" stroke="white"/>
        <path opacity="0.131313" d="M1046.2 -96.5451C1051.6 -95.6033 1056.29 -92.6342 1059.17 -88.3294L1762.02 960.752C1768.26 970.059 1764.34 982.562 1753.58 987.67L882.686 1401.38C876.06 1404.53 868.217 1404.13 862.214 1400.32L-395.026 604.115C-401.029 600.313 -404.241 593.718 -403.411 586.901L-294.219 -309.201C-292.871 -320.265 -281.575 -328.096 -269.899 -326.06L1046.2 -96.5451Z" stroke="white"/>
        <path opacity="0.141414" d="M1064.19 -93.1832C1069.64 -92.1643 1074.31 -89.1369 1077.12 -84.8101L1758.4 963.859C1764.45 973.166 1760.22 985.45 1749.29 990.334L862.467 1386.59C855.711 1389.61 847.8 1389.08 841.828 1385.21L-403.631 578.432C-409.603 574.564 -412.688 567.968 -411.682 561.225L-279.513 -323.881C-277.884 -334.789 -266.341 -342.336 -254.637 -340.144L1064.19 -93.1832Z" stroke="white"/>
        <path opacity="0.151515" d="M1081.97 -89.6898C1087.45 -88.5927 1092.11 -85.5045 1094.85 -81.1539L1754.44 966.78C1760.29 976.081 1755.77 988.135 1744.67 992.791L842.241 1371.54C835.355 1374.43 827.377 1373.78 821.435 1369.84L-411.889 552.788C-417.832 548.851 -420.791 542.256 -419.609 535.588L-264.584 -338.305C-262.678 -349.048 -250.905 -356.3 -239.179 -353.954L1081.97 -89.6898Z" stroke="white"/>
        <path opacity="0.161616" d="M1099.52 -86.0671C1105.05 -84.8906 1109.7 -81.7389 1112.37 -77.3624L1750.14 969.516C1755.8 978.806 1750.99 990.618 1739.74 995.043L822.018 1356.24C815.006 1359 806.961 1358.22 801.048 1354.22L-419.794 527.191C-425.707 523.185 -428.543 516.59 -427.185 510L-249.431 -352.469C-247.254 -363.036 -235.267 -369.985 -223.526 -367.488L1099.52 -86.0671Z" stroke="white"/>
        <path opacity="0.171717" d="M1116.83 -82.3247C1122.41 -81.0675 1127.06 -77.8498 1129.65 -73.4452L1745.49 972.059C1750.96 981.331 1745.88 992.892 1734.5 997.084L801.797 1340.68C794.662 1343.31 786.55 1342.41 780.665 1338.33L-427.352 501.64C-433.238 497.564 -435.95 490.969 -434.417 484.461L-234.067 -366.376C-231.622 -376.757 -219.438 -383.397 -207.691 -380.751L1116.83 -82.3247Z" stroke="white"/>
        <path opacity="0.181818" d="M1133.92 -78.457C1139.55 -77.1175 1144.2 -73.8313 1146.72 -69.3965L1740.52 974.415C1745.78 983.665 1740.45 994.964 1728.94 998.922L781.595 1324.89C774.341 1327.38 766.162 1326.35 760.303 1322.21L-434.552 476.152C-440.41 472.004 -443 465.409 -441.294 458.984L-218.484 -380.014C-215.779 -390.2 -203.415 -396.525 -191.668 -393.731L1133.92 -78.457Z" stroke="white"/>
        <path opacity="0.191919" d="M1150.77 -74.4833C1156.46 -73.06 1161.1 -69.7022 1163.55 -65.2354L1735.22 976.567C1740.28 985.789 1734.7 996.82 1723.08 1000.54L761.412 1308.84C754.041 1311.2 745.795 1310.04 739.964 1305.82L-441.4 450.717C-447.231 446.496 -449.7 439.901 -447.821 433.562L-202.695 -393.394C-199.736 -403.378 -187.209 -409.382 -175.469 -406.444L1150.77 -74.4833Z" stroke="white"/>
        <path opacity="0.20202" d="M1167.38 -70.3936C1173.13 -68.8848 1177.77 -65.4528 1180.14 -60.9521L1729.58 978.526C1734.44 987.714 1728.63 998.47 1716.92 1001.96L741.257 1292.56C733.771 1294.79 725.46 1293.5 719.655 1289.2L-447.892 425.354C-453.697 421.059 -456.045 414.464 -453.994 408.213L-186.701 -406.5C-183.495 -416.274 -170.823 -421.955 -159.098 -418.875L1167.38 -70.3936Z" stroke="white"/>
        <path opacity="0.212121" d="M1183.74 -66.2054C1189.55 -64.6092 1194.19 -61.0999 1196.49 -56.5635L1723.61 980.277C1728.27 989.426 1722.24 999.902 1710.45 1003.15L721.131 1276.03C713.534 1278.13 705.157 1276.7 699.378 1272.33L-454.034 400.057C-459.813 395.687 -462.04 389.092 -459.819 382.931L-170.514 -419.344C-167.067 -428.901 -154.268 -434.255 -142.565 -431.036L1183.74 -66.2054Z" stroke="white"/>
        <path opacity="0.222222" d="M1199.86 -61.9165C1205.72 -60.2309 1210.37 -56.6412 1212.6 -52.0674L1717.33 981.823C1721.77 990.928 1715.54 1001.12 1703.69 1004.14L701.046 1259.28C693.342 1261.24 684.901 1259.68 679.148 1255.23L-459.817 374.837C-465.569 370.391 -467.678 363.795 -465.287 357.728L-154.129 -431.915C-150.451 -441.249 -137.542 -446.276 -125.867 -442.921L1199.86 -61.9165Z" stroke="white"/>
        <path opacity="0.232323" d="M1215.71 -57.5397C1221.64 -55.7629 1226.29 -52.0896 1228.45 -47.4768L1710.71 983.153C1714.95 992.21 1708.54 1002.11 1696.63 1004.9L681.006 1242.28C673.197 1244.1 664.693 1242.41 658.966 1237.88L-465.245 349.691C-470.971 345.167 -472.962 338.572 -470.402 332.599L-137.557 -444.22C-133.655 -453.327 -120.655 -458.026 -109.014 -454.537L1215.71 -57.5397Z" stroke="white"/>
        <path opacity="0.242424" d="M1231.31 -53.0705C1237.31 -51.2001 1241.96 -47.4404 1244.05 -42.7868L1703.78 984.274C1707.81 993.278 1701.22 1002.89 1689.27 1005.44L661.014 1225.06C653.104 1226.75 644.538 1224.91 638.837 1220.31L-470.32 324.634C-476.021 320.031 -477.893 313.435 -475.167 307.559L-120.807 -456.249C-116.689 -465.123 -103.614 -469.496 -92.0139 -465.877L1231.31 -53.0705Z" stroke="white"/>
        <path opacity="0.252525" d="M1246.65 -48.5186C1252.71 -46.5524 1257.38 -42.7027 1259.38 -38.007L1696.52 985.179C1700.35 994.124 1693.6 1003.44 1681.63 1005.77L641.083 1207.61C633.075 1209.16 624.447 1207.19 618.773 1202.51L-475.037 299.665C-480.712 294.981 -482.466 288.385 -479.575 282.609L-103.877 -468.003C-99.5529 -476.642 -86.4192 -480.69 -74.8662 -476.944L1246.65 -48.5186Z" stroke="white"/>
        <path opacity="0.262626" d="M1261.72 -43.8883C1267.86 -41.8241 1272.53 -37.8811 1274.46 -33.1419L1688.96 985.864C1692.58 994.746 1685.69 1003.78 1673.69 1005.87L621.217 1189.94C613.115 1191.36 604.428 1189.24 598.781 1184.48L-479.397 274.789C-485.044 270.024 -486.682 263.428 -483.627 257.753L-86.7736 -479.484C-82.2522 -487.883 -69.0767 -491.609 -57.5768 -487.74L1261.72 -43.8883Z" stroke="white"/>
        <path opacity="0.272727" d="M1276.52 -39.1852C1282.73 -37.0204 1287.41 -32.981 1289.26 -28.197L1681.08 986.326C1684.49 995.141 1677.47 1003.88 1665.47 1005.75L601.415 1172.05C593.222 1173.33 584.478 1171.07 578.858 1166.23L-483.406 250.011C-489.026 245.164 -490.547 238.568 -487.33 232.996L-69.5113 -490.688C-64.8014 -498.845 -51.5999 -502.253 -40.1589 -498.264L1276.52 -39.1852Z" stroke="white"/>
        <path opacity="0.282828" d="M1291.04 -34.4158C1297.33 -32.148 1302.02 -28.0085 1303.79 -23.1786L1672.9 986.561C1676.09 995.305 1668.95 1003.75 1656.97 1005.41L581.692 1153.94C573.412 1155.09 564.612 1152.68 559.02 1147.75L-487.057 225.333C-492.649 220.403 -494.053 213.806 -490.676 208.339L-52.0868 -501.617C-47.1975 -509.532 -33.9852 -512.625 -22.6087 -508.519L1291.04 -34.4158Z" stroke="white"/>
        <path opacity="0.292929" d="M1305.29 -29.5831C1311.65 -27.2099 1316.35 -22.9669 1318.04 -18.0902L1664.4 986.568C1667.39 995.237 1660.15 1003.4 1648.18 1004.84L562.045 1135.62C553.682 1136.63 544.828 1134.08 539.265 1129.07L-490.358 200.763C-495.921 195.747 -497.209 189.151 -493.674 183.791L-34.5148 -512.269C-29.4554 -519.939 -16.247 -522.724 -4.94037 -518.505L1305.29 -29.5831Z" stroke="white"/>
        <path opacity="0.30303" d="M1319.26 -24.6898C1325.7 -22.2083 1330.42 -17.8583 1332.01 -12.9338L1655.62 986.347C1658.4 994.938 1651.06 1002.81 1639.12 1004.04L542.494 1117.1C534.05 1117.97 525.145 1115.27 519.612 1110.17L-493.297 176.306C-498.83 171.205 -500.003 164.609 -496.311 159.357L-16.7893 -522.64C-11.5688 -530.065 1.62153 -532.547 12.8531 -528.218L1319.26 -24.6898Z" stroke="white"/>
        <path opacity="0.313131" d="M1332.94 -19.7523C1339.46 -17.1601 1344.19 -12.6996 1345.69 -7.72642L1646.52 985.884C1649.1 994.393 1641.67 1001.99 1629.77 1003.01L523.025 1098.36C514.505 1099.09 505.551 1096.25 500.049 1091.06L-495.894 151.955C-501.395 146.767 -502.452 140.172 -498.606 135.031L1.06541 -532.742C6.43775 -539.922 19.5967 -542.107 30.748 -537.672L1332.94 -19.7523Z" stroke="white"/>
        <path opacity="0.323232" d="M1346.34 -14.7597C1352.94 -12.0539 1357.68 -7.47918 1359.1 -2.45677L1637.14 985.192C1639.51 993.615 1632.01 1000.93 1620.16 1001.75L503.667 1079.42C495.074 1080.02 486.073 1077.02 480.604 1071.75L-498.126 127.732C-503.595 122.456 -504.536 115.861 -500.537 110.832L19.0647 -542.558C24.5797 -549.494 37.6946 -551.39 48.761 -546.852L1346.34 -14.7597Z" stroke="white"/>
        <path opacity="0.333333" d="M1359.45 -9.72769C1366.13 -6.90558 1370.88 -2.21308 1372.2 2.8591L1627.47 984.259C1629.63 992.593 1622.07 999.634 1610.28 1000.26L484.409 1060.28C475.747 1060.74 466.701 1057.6 461.266 1052.24L-500.012 103.628C-505.447 98.2646 -506.272 91.6694 -502.123 86.7541L37.1853 -552.101C42.8342 -558.792 55.8929 -560.406 66.8698 -555.769L1359.45 -9.72769Z" stroke="white"/>
        <path opacity="0.343434" d="M1372.26 -4.65663C1379.02 -1.71534 1383.79 3.09861 1385.01 8.22102L1617.51 983.087C1619.47 991.33 1611.86 998.1 1600.13 998.538L465.259 1040.95C456.531 1041.28 447.445 1037.98 442.045 1032.53L-501.549 79.6544C-506.949 74.2012 -507.658 67.6065 -503.361 62.8061L55.4234 -561.364C61.1972 -567.813 74.1884 -569.152 85.0713 -564.419L1372.26 -4.65663Z" stroke="white"/>
        <path opacity="0.353535" d="M1384.78 0.444565C1391.62 3.50775 1396.4 8.44691 1397.52 13.6198L1607.26 981.669C1609.03 989.817 1601.37 996.323 1589.72 996.576L446.228 1021.43C437.438 1021.62 428.313 1018.17 422.95 1012.63L-502.734 55.8094C-508.097 50.2661 -508.69 43.6721 -504.247 38.9881L73.7763 -570.352C79.6664 -576.561 92.5794 -577.633 103.364 -572.809L1384.78 0.444565Z" stroke="white"/>
        <path opacity="0.363636" d="M1397 5.57449C1403.93 8.7624 1408.72 13.8307 1409.73 19.0539L1596.74 980.009C1598.31 988.059 1590.62 994.304 1579.05 994.378L427.319 1001.72C418.471 1001.78 409.311 998.172 403.986 992.538L-503.57 32.1016C-508.894 26.4672 -509.371 19.8739 -504.784 15.3075L92.2367 -579.063C98.2344 -585.034 111.059 -585.848 121.742 -580.935L1397 5.57449Z" stroke="white"/>
        <path opacity="0.373737" d="M1408.91 10.7249C1415.93 14.0405 1420.72 19.2416 1421.63 24.5152L1585.94 978.099C1587.31 986.048 1579.59 992.04 1568.11 991.94L408.532 981.827C399.629 981.749 390.437 977.988 385.153 972.262L-504.065 8.53124C-509.348 2.80513 -509.708 -3.78724 -504.98 -8.23475L110.791 -587.501C116.888 -593.236 129.615 -593.799 140.192 -588.801L1408.91 10.7249Z" stroke="white"/>
        <path opacity="0.383838" d="M1420.53 15.8939C1427.63 19.3401 1432.44 24.6778 1433.23 30.0017L1574.88 975.942C1576.06 983.788 1568.32 989.532 1556.93 989.263L389.887 961.755C380.932 961.544 371.711 957.627 366.47 951.808L-504.206 -14.8946C-509.446 -20.7131 -509.689 -27.3043 -504.823 -31.632L129.445 -595.663C135.633 -601.166 148.255 -601.487 158.721 -596.408L1420.53 15.8939Z" stroke="white"/>
        <path opacity="0.393939" d="M1431.84 21.0755C1439.02 24.6551 1443.84 30.1333 1444.52 35.5071L1563.56 973.534C1564.54 981.276 1556.79 986.776 1545.5 986.345L371.378 941.507C362.376 941.163 353.129 937.089 347.934 931.178L-504.004 -38.1731C-509.2 -44.0846 -509.325 -50.6746 -504.322 -54.8813L148.183 -603.551C154.454 -608.825 166.962 -608.913 177.316 -603.756L1431.84 21.0755Z" stroke="white"/>
        <path opacity="0.40404" d="M1442.84 26.2659C1450.11 29.9819 1454.93 35.6043 1455.49 41.0277L1551.97 970.876C1552.76 978.51 1545.01 983.773 1533.83 983.185L353.016 921.089C343.97 920.614 334.701 916.382 329.553 910.377L-503.457 -61.2991C-508.605 -67.3042 -508.613 -73.8928 -503.476 -77.9775L167.003 -611.166C173.35 -616.214 185.737 -616.077 195.974 -610.846L1442.84 26.2659Z" stroke="white"/>
        <path opacity="0.414141" d="M1453.53 31.456C1460.89 35.3112 1465.71 41.0818 1466.15 46.5538L1540.13 967.961C1540.73 975.487 1532.97 980.518 1521.91 979.779L334.8 900.502C325.713 899.895 316.426 895.505 311.328 889.405L-502.573 -84.2734C-507.671 -90.3727 -507.56 -96.9597 -502.292 -100.922L185.89 -618.514C192.306 -623.339 204.565 -622.986 214.682 -617.684L1453.53 31.456Z" stroke="white"/>
        <path opacity="0.424242" d="M1463.9 36.6398C1471.34 40.6369 1476.17 46.5597 1476.48 52.0798L1528.03 964.788C1528.45 972.202 1520.69 977.008 1509.74 976.123L316.734 879.747C307.61 879.01 298.308 874.461 293.262 868.267L-501.354 -107.093C-506.4 -113.287 -506.17 -119.872 -500.773 -123.711L204.839 -625.596C211.316 -630.203 223.44 -629.642 233.435 -624.273L1463.9 36.6398Z" stroke="white"/>
        <path opacity="0.434343" d="M1473.97 41.8239C1481.49 45.9659 1486.32 52.0447 1486.5 57.6117L1515.69 961.366C1515.93 968.667 1508.18 973.253 1497.35 972.229L298.836 858.841C289.678 857.974 280.366 853.266 275.375 846.977L-499.79 -129.744C-504.781 -136.033 -504.431 -142.616 -498.908 -146.33L223.854 -632.404C230.384 -636.796 242.369 -636.036 252.239 -630.604L1473.97 41.8239Z" stroke="white"/>
        <path opacity="0.444444" d="M1483.71 46.9889C1491.32 51.2788 1496.14 57.5173 1496.18 63.1304L1503.1 957.68C1503.16 964.865 1495.43 969.238 1484.73 968.079L281.096 837.773C271.907 836.778 262.589 831.909 257.656 825.525L-497.898 -152.236C-502.831 -158.62 -502.361 -165.201 -496.714 -168.791L242.912 -638.953C249.49 -643.134 261.33 -642.184 271.071 -636.691L1483.71 46.9889Z" stroke="white"/>
        <path opacity="0.454545" d="M1493.14 52.1377C1500.83 56.578 1505.65 62.9803 1505.55 68.6379L1490.28 953.735C1490.16 960.805 1482.46 964.97 1471.88 963.682L263.53 816.555C254.314 815.433 244.993 810.404 240.121 803.924L-495.669 -174.559C-500.542 -181.039 -499.95 -187.617 -494.182 -191.081L262.019 -645.238C268.638 -649.213 280.329 -648.08 289.939 -642.531L1493.14 52.1377Z" stroke="white"/>
        <path opacity="0.464646" d="M1502.25 57.2674C1510.03 61.861 1514.83 68.4307 1514.59 74.1314L1477.24 949.534C1476.94 956.486 1469.26 960.449 1458.81 959.038L246.142 795.194C236.901 793.945 227.582 788.756 222.773 782.18L-493.108 -196.707C-497.917 -203.283 -497.203 -209.859 -491.316 -213.197L281.165 -651.259C287.819 -655.033 299.357 -653.725 308.834 -648.123L1502.25 57.2674Z" stroke="white"/>
        <path opacity="0.474747" d="M1511.05 62.3704C1518.9 67.1199 1523.69 73.861 1523.29 79.6033L1463.96 945.073C1463.49 951.906 1455.84 955.672 1445.53 954.142L228.935 773.69C219.673 772.317 210.36 766.966 205.618 760.294L-490.218 -218.68C-494.96 -225.352 -494.122 -231.924 -488.119 -235.136L300.343 -657.021C307.026 -660.597 318.407 -659.123 327.749 -653.471L1511.05 62.3704Z" stroke="white"/>
        <path opacity="0.484848" d="M1519.51 67.4403C1527.44 72.3482 1532.22 79.2645 1531.67 85.0464L1450.47 940.348C1449.83 947.061 1442.2 950.636 1432.03 948.994L211.91 752.047C202.631 750.55 193.329 745.038 188.656 738.27L-487.003 -240.476C-491.675 -247.244 -490.713 -253.814 -484.597 -256.899L319.543 -662.528C326.25 -665.912 337.47 -664.279 346.675 -658.581L1519.51 67.4403Z" stroke="white"/>
        <path opacity="0.494949" d="M1527.66 72.4738C1535.66 77.5427 1540.42 84.6381 1539.71 90.4577L1436.76 935.361C1435.95 941.953 1428.36 945.343 1418.32 943.593L195.077 730.271C185.783 728.65 176.496 722.978 171.897 716.114L-483.465 -262.091C-488.063 -268.955 -486.975 -275.521 -480.748 -278.479L338.761 -667.782C345.486 -670.976 356.544 -669.193 365.61 -663.452L1527.66 72.4738Z" stroke="white"/>
        <path opacity="0.50505" d="M1535.48 77.4642C1543.56 82.6967 1548.29 89.9747 1547.41 95.8298L1422.83 930.11C1421.87 936.579 1414.31 939.789 1404.41 937.936L178.437 708.363C169.131 706.62 159.863 700.787 155.341 693.827L-479.607 -283.524C-484.129 -290.484 -482.914 -297.046 -476.578 -299.877L357.988 -672.786C364.726 -675.796 375.618 -673.869 384.543 -668.088L1535.48 77.4642Z" stroke="white"/>
        <path opacity="0.515152" d="M1542.98 82.4091C1551.13 87.8074 1555.82 95.2716 1554.78 101.16L1408.71 924.595C1407.58 930.941 1400.06 933.976 1390.31 932.025L161.998 686.33C152.682 684.467 143.439 678.473 138.998 671.417L-475.43 -304.769C-479.871 -311.826 -478.527 -318.384 -472.087 -321.087L377.221 -677.541C383.967 -680.372 394.692 -678.309 403.474 -672.491L1542.98 82.4091Z" stroke="white"/>
        <path opacity="0.525253" d="M1550.15 87.3038C1558.37 92.8701 1563.03 100.524 1561.81 106.443L1394.38 918.816C1393.1 925.038 1385.62 927.904 1376.01 925.86L145.763 664.177C136.442 662.194 127.227 656.04 122.87 648.888L-470.937 -325.825C-475.294 -332.977 -473.821 -339.53 -467.277 -342.106L396.451 -682.05C403.2 -684.706 413.757 -682.514 422.395 -676.663L1550.15 87.3038Z" stroke="white"/>
        <path opacity="0.535354" d="M1556.99 92.1475C1565.28 97.8841 1569.9 105.732 1568.5 111.679L1379.86 912.778C1378.42 918.875 1370.99 921.577 1361.52 919.443L129.736 641.912C120.411 639.811 111.23 633.497 106.961 626.249L-466.133 -346.683C-470.402 -353.931 -468.797 -360.479 -462.152 -362.927L415.671 -686.311C422.42 -688.797 432.806 -686.483 441.298 -680.601L1556.99 92.1475Z" stroke="white"/>
        <path opacity="0.545455" d="M1563.51 96.9248C1571.85 102.834 1576.43 110.878 1574.84 116.85L1365.15 906.468C1363.56 912.44 1356.17 914.982 1346.85 912.764L113.919 619.528C104.593 617.31 95.4517 610.837 91.2745 603.494L-461.022 -367.354C-465.199 -374.696 -463.462 -381.239 -456.718 -383.559L434.873 -690.34C441.617 -692.66 451.832 -690.231 460.177 -684.322L1563.51 96.9248Z" stroke="white"/>
        <path opacity="0.555556" d="M1569.7 101.646C1578.11 107.729 1582.63 115.973 1580.85 121.967L1350.26 899.901C1348.52 905.748 1341.18 908.135 1332 905.837L98.3249 597.045C89.0021 594.712 79.9041 588.08 75.823 580.642L-455.599 -387.818C-459.68 -395.255 -457.808 -401.792 -450.969 -403.984L454.059 -694.123C460.793 -696.282 470.837 -693.744 479.034 -687.811L1569.7 101.646Z" stroke="white"/>
        <path opacity="0.565657" d="M1575.56 106.292C1584.02 112.551 1588.48 120.998 1586.51 127.011L1335.18 893.063C1333.31 898.783 1326.01 901.02 1316.98 898.646L82.9457 574.453C73.6275 572.005 64.5787 565.215 60.5977 557.683L-449.88 -408.088C-453.861 -415.62 -451.853 -422.15 -444.92 -424.215L473.209 -697.68C479.931 -699.682 489.803 -697.04 497.85 -691.086L1575.56 106.292Z" stroke="white"/>
        <path opacity="0.575758" d="M1581.1 110.871C1589.61 117.308 1594.01 125.96 1591.84 131.989L1319.95 885.965C1317.93 891.559 1310.69 893.65 1301.8 891.205L67.8014 551.767C58.4907 549.206 49.4961 542.258 45.6196 534.633L-443.852 -428.151C-447.729 -435.776 -445.582 -442.298 -438.559 -444.236L492.333 -701C499.039 -702.85 508.739 -700.111 516.636 -694.139L1581.1 110.871Z" stroke="white"/>
        <path opacity="0.585859" d="M1586.3 115.372C1594.86 121.987 1599.19 130.848 1596.81 136.889L1304.54 878.603C1302.38 884.07 1295.19 886.02 1286.44 883.506L52.8769 528.988C43.5759 526.315 34.641 519.211 30.8734 511.493L-437.538 -448.009C-441.306 -455.727 -439.019 -462.241 -431.907 -464.051L511.406 -704.093C518.093 -705.795 527.62 -702.965 535.367 -696.978L1586.3 115.372Z" stroke="white"/>
        <path opacity="0.59596" d="M1591.18 119.79C1599.79 126.586 1604.03 135.657 1601.44 141.706L1288.97 870.974C1286.68 876.314 1279.54 878.127 1270.94 875.55L38.1902 506.117C28.9019 503.334 20.0319 496.074 16.3777 488.265L-430.927 -467.662C-434.581 -475.472 -432.152 -481.977 -424.954 -483.659L530.435 -706.964C537.1 -708.522 546.456 -705.607 554.05 -699.607L1591.18 119.79Z" stroke="white"/>
        <path opacity="0.606061" d="M1595.74 124.125C1604.38 131.102 1608.53 140.387 1605.73 146.439L1273.25 863.083C1270.83 868.296 1263.74 869.976 1255.28 867.339L23.7416 483.164C14.4682 480.271 5.66884 472.858 2.13278 464.958L-424.026 -487.104C-427.562 -495.004 -424.989 -501.499 -417.706 -503.054L549.412 -709.612C556.052 -711.03 565.236 -708.035 572.679 -702.025L1595.74 124.125Z" stroke="white"/>
        <path opacity="0.616162" d="M1599.97 128.371C1608.64 135.53 1612.7 145.03 1609.67 151.082L1257.38 854.929C1254.83 860.016 1247.79 861.567 1239.48 858.872L9.53484 460.132C0.278542 457.132 -8.44475 449.565 -11.858 441.576L-416.839 -506.333C-420.252 -514.322 -417.532 -520.806 -410.168 -522.234L568.329 -712.041C574.941 -713.324 583.955 -710.254 591.245 -704.237L1599.97 128.371Z" stroke="white"/>
        <path opacity="0.626263" d="M1603.86 132.521C1612.57 139.863 1616.52 149.579 1613.26 155.626L1241.36 846.509C1238.69 851.469 1231.7 852.895 1223.54 850.147L-4.43063 437.022C-13.6673 433.915 -22.3088 426.196 -25.5943 418.119L-409.373 -525.351C-412.659 -533.428 -409.79 -539.9 -402.347 -541.202L587.176 -714.259C593.758 -715.411 602.602 -712.271 609.739 -706.249L1603.86 132.521Z" stroke="white"/>
        <path opacity="0.636364" d="M1607.44 136.577C1616.16 144.102 1620 154.036 1616.51 160.075L1225.21 837.83C1222.42 842.664 1215.48 843.968 1207.46 841.17L-18.147 413.845C-27.3618 410.632 -35.9156 402.763 -39.0685 394.6L-401.629 -544.151C-404.782 -552.314 -401.762 -558.773 -394.242 -559.948L605.951 -716.264C612.502 -717.287 621.177 -714.082 628.161 -708.059L1607.44 136.577Z" stroke="white"/>
        <path opacity="0.646465" d="M1610.69 140.532C1619.43 148.241 1623.14 158.393 1619.42 164.418L1208.93 828.89C1206.02 833.597 1199.14 834.784 1191.25 831.938L-31.6094 390.602C-40.7999 387.285 -49.2604 379.268 -52.2755 371.02L-393.609 -562.733C-396.624 -570.981 -393.45 -577.425 -385.855 -578.475L624.65 -718.061C631.167 -718.961 639.675 -715.695 646.506 -709.672L1610.69 140.532Z" stroke="white"/>
        <path opacity="0.656566" d="M1613.61 144.381C1622.36 152.273 1625.94 162.645 1621.98 168.651L1192.52 819.687C1189.49 824.269 1182.67 825.341 1174.92 822.451L-44.8202 367.296C-53.9842 363.876 -62.3455 355.714 -65.2177 347.383L-385.322 -581.098C-388.194 -589.429 -384.863 -595.857 -377.196 -596.78L643.262 -719.656C649.742 -720.436 658.085 -717.114 664.762 -711.093L1613.61 144.381Z" stroke="white"/>
        <path opacity="0.666667" d="M1616.21 148.127C1624.97 156.201 1628.4 166.792 1624.2 172.775L1175.99 810.229C1172.86 814.685 1166.08 815.646 1158.48 812.714L-57.7661 343.938C-66.9014 340.417 -75.1572 332.11 -77.8812 323.699L-376.762 -599.237C-379.486 -607.649 -375.996 -614.06 -368.259 -614.857L661.789 -721.047C668.232 -721.711 676.411 -718.336 682.935 -712.32L1616.21 148.127Z" stroke="white"/>
        <path opacity="0.676768" d="M1618.49 151.756C1627.25 160.014 1630.52 170.823 1626.07 176.776L1159.35 800.507C1156.11 804.839 1149.39 805.692 1141.92 802.721L-70.4542 320.524C-79.5588 316.903 -87.7033 308.455 -90.2737 299.964L-367.944 -617.159C-370.514 -625.649 -366.863 -632.041 -359.058 -632.713L680.216 -722.245C686.62 -722.797 694.638 -719.373 701.009 -713.365L1618.49 151.756Z" stroke="white"/>
        <path opacity="0.686869" d="M1620.46 155.271C1629.21 163.71 1632.31 174.736 1627.6 180.655L1142.61 790.528C1139.26 794.735 1132.59 795.484 1125.26 792.476L-82.8741 297.063C-91.9457 293.343 -99.9728 284.755 -102.384 276.189L-358.865 -634.858C-361.276 -643.424 -357.46 -649.794 -349.59 -650.342L698.545 -723.252C704.909 -723.695 712.766 -720.226 718.985 -714.227L1620.46 155.271Z" stroke="white"/>
        <path opacity="0.69697" d="M1622.1 158.668C1630.83 167.287 1633.76 178.529 1628.79 184.408L1125.76 780.292C1122.31 784.376 1115.7 785.023 1108.49 781.981L-95.028 273.561C-104.065 269.743 -111.968 261.018 -114.215 252.38L-349.533 -652.331C-351.78 -660.97 -347.797 -667.317 -339.863 -667.74L716.765 -724.07C723.088 -724.407 730.787 -720.896 736.854 -714.909L1622.1 158.668Z" stroke="white"/>
        <path opacity="0.707071" d="M1623.41 161.944C1632.13 170.742 1634.86 182.197 1629.64 188.031L1108.81 769.802C1105.26 773.763 1098.7 774.311 1091.63 771.237L-106.919 250.021C-115.919 246.107 -123.692 237.249 -125.769 228.54L-339.96 -669.578C-342.037 -678.287 -337.884 -684.608 -329.889 -684.907L734.864 -724.702C741.145 -724.936 748.688 -721.387 754.603 -715.413L1623.41 161.944Z" stroke="white"/>
        <path opacity="0.717172" d="M1624.43 165.098C1633.11 174.072 1635.64 185.738 1630.15 191.52L1091.78 759.059C1088.14 762.898 1081.62 763.35 1074.68 760.245L-118.526 226.449C-127.487 222.441 -135.124 213.452 -137.025 204.677L-330.13 -686.596C-332.031 -695.371 -327.705 -701.665 -319.651 -701.84L752.855 -725.151C759.093 -725.287 766.483 -721.702 772.248 -715.743L1624.43 165.098Z" stroke="white"/>
        <path opacity="0.727273" d="M1625.12 168.122C1633.76 177.27 1636.07 189.143 1630.32 194.868L1074.66 748.061C1070.93 751.779 1064.47 752.138 1057.65 749.005L-129.863 202.848C-138.782 198.746 -146.276 189.63 -147.996 180.791L-320.065 -703.387C-321.785 -712.226 -317.283 -718.489 -309.172 -718.541L770.717 -725.425C776.912 -725.465 784.15 -721.847 789.765 -715.905L1625.12 168.122Z" stroke="white"/>
        <path opacity="0.737374" d="M1625.5 171.013C1634.1 180.333 1636.18 192.408 1630.16 198.069L1057.47 736.809C1053.65 740.407 1047.23 740.675 1040.54 737.515L-140.92 179.219C-149.796 175.025 -157.142 165.786 -158.675 156.888L-309.763 -719.953C-311.296 -728.851 -306.615 -735.081 -298.45 -735.009L788.448 -725.53C794.6 -725.477 801.689 -721.829 807.155 -715.905L1625.5 171.013Z" stroke="white"/>
        <path opacity="0.747475" d="M1625.56 173.77C1634.11 183.259 1635.95 195.531 1629.66 201.122L1040.2 725.306C1036.29 728.786 1029.92 728.965 1023.36 725.779L-151.7 155.571C-160.531 151.286 -167.722 141.927 -169.062 132.974L-299.231 -736.29C-300.572 -745.243 -295.71 -751.436 -287.492 -751.242L806.041 -725.467C812.15 -725.323 819.093 -721.647 824.411 -715.743L1625.56 173.77Z" stroke="white"/>
        <path opacity="0.757576" d="M1625.36 176.419C1633.85 186.073 1635.43 198.535 1628.87 204.051L1022.91 713.582C1018.91 716.944 1012.59 717.036 1006.15 713.828L-162.157 131.936C-170.941 127.561 -177.97 118.087 -179.113 109.083L-288.432 -752.37C-289.575 -761.374 -284.528 -767.526 -276.26 -767.211L823.534 -725.211C829.599 -724.98 836.4 -721.278 841.571 -715.395L1625.36 176.419Z" stroke="white"/>
        <path opacity="0.767677" d="M1624.82 178.906C1633.23 188.722 1634.55 201.368 1627.71 206.802L1005.52 701.59C1001.44 704.835 995.17 704.843 988.846 701.612L-172.363 108.268C-181.098 103.805 -187.959 94.2195 -188.898 85.1694L-277.444 -768.241C-278.383 -777.291 -273.149 -783.4 -264.833 -782.963L840.847 -724.818C846.868 -724.502 853.529 -720.777 858.554 -714.915L1624.82 178.906Z" stroke="white"/>
        <path opacity="0.777778" d="M1623.97 181.249C1632.3 191.222 1633.33 204.043 1626.23 209.388L988.079 689.348C983.918 692.477 977.69 692.403 971.483 689.15L-182.287 84.5894C-190.971 80.0394 -197.658 70.3481 -198.388 61.2572L-266.242 -783.886C-266.972 -792.977 -261.549 -799.039 -253.186 -798.48L858.003 -724.273C863.982 -723.874 870.504 -720.127 875.385 -714.288L1623.97 181.249Z" stroke="white"/>
        <path opacity="0.787879" d="M1622.81 183.446C1631.06 193.572 1631.79 206.56 1624.41 211.809L970.588 676.86C966.349 679.875 960.165 679.721 954.071 676.448L-191.922 60.9078C-200.552 56.2723 -207.06 46.4799 -207.575 37.3536L-254.826 -799.302C-255.342 -808.428 -249.726 -814.439 -241.319 -813.76L875.003 -723.579C880.939 -723.099 887.327 -719.332 892.065 -713.517L1622.81 183.446Z" stroke="white"/>
        <path opacity="0.79798" d="M1621.36 185.507C1629.52 195.78 1629.94 208.924 1622.28 214.072L953.061 664.14C948.746 667.042 942.604 666.809 936.622 663.516L-201.26 37.2381C-209.835 32.5183 -216.157 22.6302 -216.453 13.4741L-243.195 -814.477C-243.491 -823.633 -237.681 -829.588 -229.232 -828.789L891.847 -722.728C897.741 -722.17 903.998 -718.384 908.593 -712.593L1621.36 185.507Z" stroke="white"/>
        <path opacity="0.808081" d="M1619.61 187.416C1627.66 197.831 1627.76 211.12 1619.83 216.161L935.497 651.177C931.108 653.967 925.007 653.657 919.133 650.345L-210.308 13.5722C-218.827 8.76951 -224.957 -1.2086 -225.028 -10.3883L-231.362 -829.426C-231.433 -838.605 -225.426 -844.5 -216.937 -843.581L908.522 -721.738C914.375 -721.104 920.503 -717.3 924.958 -711.535L1619.61 187.416Z" stroke="white"/>
        <path opacity="0.818182" d="M1617.57 189.177C1625.51 199.729 1625.28 213.151 1617.08 218.077L917.911 637.978C913.45 640.658 907.387 640.272 901.619 636.942L-219.055 -10.0795C-227.515 -14.964 -233.447 -25.0264 -233.289 -34.2231L-219.32 -844.141C-219.162 -853.337 -212.955 -859.167 -204.429 -858.129L925.032 -720.608C930.845 -719.9 936.848 -716.079 941.164 -710.339L1617.57 189.177Z" stroke="white"/>
        <path opacity="0.828283" d="M1615.23 190.783C1623.05 201.465 1622.47 215.007 1614 219.812L900.294 624.541C895.762 627.112 889.737 626.652 884.072 623.304L-227.514 -33.718C-235.914 -38.6827 -241.643 -48.823 -241.25 -58.0299L-207.091 -858.627C-206.698 -867.834 -200.291 -873.594 -191.729 -872.438L941.358 -719.346C947.132 -718.566 953.013 -714.729 957.192 -709.015L1615.23 190.783Z" stroke="white"/>
        <path opacity="0.838384" d="M1612.61 192.241C1620.29 203.047 1619.36 216.694 1610.62 221.372L882.668 610.877C878.067 613.339 872.077 612.806 866.513 609.44L-235.668 -57.3305C-244.005 -62.3742 -249.525 -72.5856 -248.894 -81.7959L-194.662 -872.877C-194.031 -882.088 -187.421 -887.773 -178.825 -886.498L957.511 -717.95C963.248 -717.099 969.01 -713.246 973.053 -707.558L1612.61 192.241Z" stroke="white"/>
        <path opacity="0.848485" d="M1609.7 193.54C1617.24 204.463 1615.93 218.201 1606.92 222.745L865.027 596.978C860.357 599.333 854.4 598.729 848.934 595.345L-243.529 -80.9211C-251.802 -86.0423 -257.108 -96.3182 -256.234 -105.524L-182.052 -886.9C-181.177 -896.106 -174.363 -901.71 -165.736 -900.318L973.473 -716.432C979.173 -715.511 984.82 -711.643 988.728 -705.982L1609.7 193.54Z" stroke="white"/>
        <path opacity="0.858586" d="M1606.5 194.687C1613.89 205.718 1612.21 219.53 1602.94 223.935L847.386 582.854C842.65 585.105 836.724 584.429 831.353 581.027L-251.084 -104.478C-259.291 -109.676 -264.379 -120.009 -263.259 -129.203L-169.252 -900.688C-168.131 -909.882 -161.112 -915.4 -152.456 -913.89L989.25 -714.788C994.916 -713.8 1000.45 -709.917 1004.23 -704.282L1606.5 194.687Z" stroke="white"/>
        <path opacity="0.868687" d="M1603.02 195.674C1610.26 206.807 1608.19 220.676 1598.66 224.934L829.748 568.505C824.945 570.65 819.048 569.905 813.769 566.485L-258.337 -128.002C-266.476 -133.274 -271.341 -143.658 -269.972 -152.832L-156.273 -914.246C-154.903 -923.42 -147.677 -928.845 -138.994 -927.219L1004.83 -713.029C1010.47 -711.975 1015.89 -708.077 1019.54 -702.467L1603.02 195.674Z" stroke="white"/>
        <path opacity="0.878788" d="M1599.26 196.501C1606.33 207.727 1603.86 221.635 1594.08 225.742L812.111 553.931C807.244 555.974 801.374 555.16 796.183 551.721L-265.294 -151.488C-273.363 -156.834 -278.001 -167.26 -276.379 -176.405L-143.125 -927.574C-141.502 -936.72 -134.07 -942.047 -125.362 -940.305L1020.21 -711.159C1025.81 -710.039 1031.13 -706.126 1034.65 -700.542L1599.26 196.501Z" stroke="white"/>
        <path opacity="0.888889" d="M1595.22 197.167C1602.12 208.477 1599.24 222.405 1589.21 226.354L794.491 539.138C789.559 541.079 783.713 540.196 778.609 536.738L-271.945 -174.932C-279.943 -180.349 -284.35 -190.81 -282.472 -199.919L-129.804 -940.672C-127.927 -949.781 -120.288 -955.003 -111.556 -953.146L1035.39 -709.181C1040.96 -707.996 1046.18 -704.068 1049.57 -698.509L1595.22 197.167Z" stroke="white"/>
        <path opacity="0.89899" d="M1590.91 197.67C1597.62 209.056 1594.34 222.984 1584.06 226.771L776.891 524.126C771.894 525.967 766.07 525.015 761.049 521.538L-278.292 -198.328C-286.216 -203.816 -290.389 -214.303 -288.255 -223.366L-116.317 -953.541C-114.183 -962.604 -106.337 -967.714 -97.5854 -965.742L1050.36 -707.101C1055.91 -705.851 1061.03 -701.907 1064.29 -696.372L1590.91 197.67Z" stroke="white"/>
        <path opacity="0.909091" d="M1586.32 198.008C1592.84 209.46 1589.14 223.368 1578.63 226.987L759.313 508.898C754.252 510.64 748.447 509.62 743.507 506.122L-284.337 -221.674C-292.186 -227.232 -296.121 -237.737 -293.729 -246.746L-102.671 -966.181C-100.279 -975.189 -92.2279 -980.182 -83.4573 -978.096L1065.12 -704.923C1070.64 -703.61 1075.66 -699.649 1078.8 -694.138L1586.32 198.008Z" stroke="white"/>
        <path opacity="0.919192" d="M1581.47 198.185C1587.79 209.694 1583.68 223.561 1572.93 227.007L741.776 493.464C736.652 495.106 730.863 494.019 726.001 490.499L-290.067 -244.961C-297.839 -250.586 -301.534 -261.101 -298.883 -270.046L-88.8578 -978.587C-86.2063 -987.532 -77.951 -992.401 -69.164 -990.201L1079.67 -702.646C1085.17 -701.27 1090.1 -697.291 1093.11 -691.804L1581.47 198.185Z" stroke="white"/>
        <path opacity="0.929293" d="M1576.35 198.192C1582.46 209.748 1577.93 223.554 1566.96 226.822L724.27 477.816C719.081 479.362 713.307 478.207 708.519 474.665L-295.498 -268.19C-303.191 -273.882 -306.644 -284.399 -303.733 -293.271L-74.8973 -990.767C-71.9864 -999.64 -63.5287 -1004.38 -54.7273 -1002.06L1094 -700.282C1099.47 -698.843 1104.32 -694.847 1107.21 -689.381L1576.35 198.192Z" stroke="white"/>
        <path opacity="0.939394" d="M1570.97 198.035C1576.86 209.628 1571.91 223.35 1560.72 226.435L706.811 461.967C701.557 463.416 695.794 462.193 691.079 458.627L-300.619 -291.352C-308.231 -297.109 -311.44 -307.619 -308.27 -316.41L-60.784 -1002.72C-57.6142 -1011.51 -48.9561 -1016.11 -40.1426 -1013.68L1108.1 -697.83C1113.56 -696.329 1118.32 -692.313 1121.09 -686.869L1570.97 198.035Z" stroke="white"/>
        <path opacity="0.949495" d="M1565.31 197.701C1570.98 209.321 1565.62 222.938 1554.22 225.838L689.392 445.909C684.074 447.262 678.319 445.97 673.673 442.379L-305.441 -314.453C-312.971 -320.273 -315.935 -330.768 -312.507 -339.467L-46.5337 -1014.44C-43.1058 -1023.14 -34.2502 -1027.6 -25.4267 -1025.06L1121.98 -695.305C1127.42 -693.74 1132.09 -689.703 1134.74 -684.279L1565.31 197.701Z" stroke="white"/>
        <path opacity="0.959596" d="M1559.4 197.204C1564.85 208.841 1559.07 222.331 1547.48 225.041L672.039 429.658C666.655 430.917 660.905 429.555 656.326 425.938L-309.946 -337.474C-317.392 -343.356 -320.111 -353.827 -316.427 -362.426L-32.1321 -1025.93C-28.4478 -1034.53 -19.3979 -1038.84 -10.5664 -1036.19L1135.63 -692.695C1141.06 -691.068 1145.65 -687.009 1148.18 -681.604L1559.4 197.204Z" stroke="white"/>
        <path opacity="0.969697" d="M1553.23 196.528C1558.44 208.172 1552.25 221.513 1540.47 224.03L654.74 413.205C649.29 414.369 643.542 412.938 639.029 409.293L-314.15 -360.425C-321.509 -366.368 -323.983 -376.807 -320.044 -385.296L-17.5986 -1037.2C-13.66 -1045.69 -4.41968 -1049.84 4.41762 -1047.08L1149.04 -690.021C1154.46 -688.33 1158.98 -684.247 1161.39 -678.861L1553.23 196.528Z" stroke="white"/>
        <path opacity="0.979798" d="M1546.81 195.684C1551.79 207.323 1545.19 220.495 1533.23 222.815L637.516 396.564C631.999 397.635 626.251 396.133 621.8 392.459L-318.037 -383.291C-325.308 -389.292 -327.537 -399.69 -323.347 -408.061L-2.92323 -1048.24C1.26677 -1056.61 10.6935 -1060.59 19.5342 -1057.73L1162.23 -687.273C1167.64 -685.519 1172.09 -681.411 1174.38 -676.041L1546.81 195.684Z" stroke="white"/>
        <path opacity="0.989899" d="M1540.13 194.657C1544.86 206.282 1537.87 219.264 1525.74 221.385L620.353 379.728C614.768 380.705 609.016 379.132 604.624 375.427L-321.628 -406.078C-328.81 -412.137 -330.795 -422.486 -326.357 -430.73L11.8695 -1059.06C16.3073 -1067.3 25.9155 -1071.11 34.7576 -1068.14L1175.17 -684.47C1180.57 -682.651 1184.94 -678.516 1187.12 -673.162L1540.13 194.657Z" stroke="white"/>
        <path d="M1533.2 193.459C1537.68 205.058 1530.3 217.83 1518.02 219.75L603.272 362.711C597.617 363.595 591.86 361.95 587.525 358.211L-324.907 -428.772C-331.997 -434.887 -333.74 -445.179 -329.059 -453.288L26.7915 -1069.64C31.4731 -1077.75 41.2575 -1081.38 50.0989 -1078.3L1187.86 -681.603C1193.27 -679.719 1197.57 -675.555 1199.63 -670.215L1533.2 193.459Z" stroke="white"/>
    </g>
</svg>
