<svg width="30" height="30" viewBox="0 0 30 30" fill="none" xmlns="http://www.w3.org/2000/svg">
<path d="M12.4075 18.8909L8.42104 22.9272C7.86498 23.4902 7.58695 23.7717 7.34797 23.7916C7.14064 23.8088 6.93765 23.7254 6.80224 23.5675C6.64616 23.3854 6.64616 22.9898 6.64616 22.1985V20.1763C6.64616 19.4664 6.0648 18.9527 5.36237 18.8499V18.8499C3.66233 18.6008 2.32719 17.2657 2.07817 15.5657C2.03711 15.2853 2.03711 14.9508 2.03711 14.2819V8.26129C2.03711 6.0833 2.03711 4.99431 2.46097 4.16243C2.83381 3.43069 3.42874 2.83577 4.16048 2.46293C4.99236 2.03906 6.08135 2.03906 8.25933 2.03906H17.8519C20.0299 2.03906 21.1189 2.03906 21.9508 2.46293C22.6825 2.83577 23.2774 3.43069 23.6503 4.16243C24.0741 4.99431 24.0741 6.0833 24.0741 8.26129V13.7057M24.0741 27.965L21.2529 26.0035C20.8563 25.7278 20.658 25.59 20.4422 25.4922C20.2506 25.4055 20.0493 25.3423 19.8425 25.3042C19.6095 25.2613 19.368 25.2613 18.885 25.2613H16.5556C15.1036 25.2613 14.3776 25.2613 13.8231 24.9787C13.3352 24.7301 12.9386 24.3335 12.6901 23.8457C12.4075 23.2911 12.4075 22.5651 12.4075 21.1131V17.8539C12.4075 16.4019 12.4075 15.6759 12.6901 15.1213C12.9386 14.6335 13.3352 14.2369 13.8231 13.9883C14.3776 13.7057 15.1036 13.7057 16.5556 13.7057H23.8149C25.2669 13.7057 25.9929 13.7057 26.5475 13.9883C27.0353 14.2369 27.4319 14.6335 27.6805 15.1213C27.963 15.6759 27.963 16.4019 27.963 17.8539V21.3724C27.963 22.5804 27.963 23.1844 27.7657 23.6608C27.5026 24.2961 26.9978 24.8008 26.3626 25.0639C25.8861 25.2613 25.2821 25.2613 24.0741 25.2613V27.965Z" stroke="white" stroke-width="4" stroke-linecap="round" stroke-linejoin="round"/>
</svg>
