<svg width="30" height="26" viewBox="0 0 30 26" fill="none" xmlns="http://www.w3.org/2000/svg">
<path d="M2.03711 6.5178L12.6213 13.9267C13.4783 14.5267 13.9069 14.8266 14.373 14.9428C14.7848 15.0455 15.2154 15.0455 15.6271 14.9428C16.0933 14.8266 16.5218 14.5267 17.3789 13.9267L27.963 6.5178M8.25933 23.3696H21.7408C23.9188 23.3696 25.0078 23.3696 25.8397 22.9458C26.5714 22.5729 27.1663 21.978 27.5392 21.2463C27.963 20.4144 27.963 19.3254 27.963 17.1474V8.85113C27.963 6.67315 27.963 5.58416 27.5392 4.75228C27.1663 4.02054 26.5714 3.42561 25.8397 3.05277C25.0078 2.62891 23.9188 2.62891 21.7408 2.62891H8.25933C6.08135 2.62891 4.99236 2.62891 4.16048 3.05277C3.42874 3.42561 2.83381 4.02054 2.46097 4.75228C2.03711 5.58416 2.03711 6.67315 2.03711 8.85113V17.1474C2.03711 19.3254 2.03711 20.4144 2.46097 21.2463C2.83381 21.978 3.42874 22.5729 4.16048 22.9458C4.99236 23.3696 6.08135 23.3696 8.25933 23.3696Z" stroke="white" stroke-width="4" stroke-linecap="round" stroke-linejoin="round"/>
</svg>
