<svg width="30" height="30" viewBox="0 0 30 30" fill="none" xmlns="http://www.w3.org/2000/svg">
<path d="M11.2278 11.1131C11.5326 10.2468 12.1341 9.51622 12.9259 9.05089C13.7177 8.58555 14.6486 8.41545 15.5538 8.57071C16.459 8.72598 17.28 9.19658 17.8714 9.89918C18.4629 10.6018 18.7866 11.491 18.7852 12.4094C18.7852 15.002 14.8963 16.2983 14.8963 16.2983M15.0001 21.4835H15.013M2.03711 10.4945V19.5096C2.03711 19.8266 2.03711 19.9852 2.07293 20.1344C2.10468 20.2666 2.15706 20.3931 2.22813 20.5091C2.3083 20.6399 2.4204 20.752 2.64459 20.9762L9.02592 27.3575C9.25012 27.5817 9.36222 27.6938 9.49304 27.774C9.60902 27.845 9.73547 27.8974 9.86774 27.9292C10.0169 27.965 10.1755 27.965 10.4925 27.965H19.5076C19.8247 27.965 19.9832 27.965 20.1324 27.9292C20.2647 27.8974 20.3911 27.845 20.5071 27.774C20.6379 27.6938 20.75 27.5817 20.9742 27.3575L27.3556 20.9762C27.5798 20.752 27.6918 20.6399 27.772 20.5091C27.8431 20.3931 27.8955 20.2666 27.9272 20.1344C27.963 19.9852 27.963 19.8266 27.963 19.5096V10.4945C27.963 10.1774 27.963 10.0189 27.9272 9.86969C27.8955 9.73742 27.8431 9.61097 27.772 9.49499C27.6918 9.36417 27.5798 9.25207 27.3556 9.02788L20.9742 2.64654C20.75 2.42235 20.6379 2.31025 20.5071 2.23008C20.3911 2.15901 20.2647 2.10663 20.1324 2.07488C19.9832 2.03906 19.8247 2.03906 19.5076 2.03906H10.4925C10.1755 2.03906 10.0169 2.03906 9.86774 2.07488C9.73547 2.10663 9.60902 2.15901 9.49304 2.23008C9.36222 2.31025 9.25012 2.42235 9.02592 2.64655L2.64459 9.02788C2.42039 9.25207 2.3083 9.36417 2.22813 9.49499C2.15706 9.61097 2.10468 9.73742 2.07293 9.86969C2.03711 10.0189 2.03711 10.1774 2.03711 10.4945Z" stroke="white" stroke-width="4" stroke-linecap="round" stroke-linejoin="round"/>
</svg>
